M48
; DRILL file {KiCad (5.1.2)-2} date 2019-09-23 21:32:16
; FORMAT={-:-/ absolute / metric / decimal}
; #@! TF.CreationDate,2019-09-23T21:32:16+02:00
; #@! TF.GenerationSoftware,Kicad,Pcbnew,(5.1.2)-2
FMAT,2
METRIC
T1C0.400
T2C0.600
T3C0.900
T4C1.000
T5C0.600
T6C0.700
T7C3.300
%
G90
G05
T1
X133.274Y-119.659
X135.636Y-112.014
X135.763Y-85.28
X135.763Y-87.82
X135.77Y-89.09
X136.017Y-75.184
X137.033Y-91.948
X137.058Y-119.71
X137.16Y-92.9
X138.024Y-120.752
X138.247Y-88.9
X138.633Y-128.092
X139.192Y-93.472
X139.192Y-88.011
X140.081Y-92.837
X140.335Y-119.659
X141.072Y-86.004
X141.187Y-127.839
X141.247Y-113.007
X141.698Y-87.695
X141.859Y-110.617
X142.057Y-100.711
X142.392Y-112.928
X142.748Y-99.949
X142.799Y-120.828
X142.834Y-110.594
X142.977Y-129.642
X143.002Y-114.935
X143.053Y-125.654
X143.053Y-126.873
X143.332Y-112.928
X143.51Y-92.075
X143.516Y-88.172
X143.916Y-125.654
X143.916Y-126.873
X143.916Y-128.092
X144.78Y-125.654
X144.78Y-126.873
X146.545Y-124.73
X147.11Y-112.453
X147.65Y-134.798
X147.828Y-98.227
X148.209Y-101.092
X148.348Y-95.306
X148.615Y-134.747
X148.844Y-94.488
X149.091Y-92.823
X149.377Y-134.214
X149.606Y-93.631
X149.986Y-98.297
X149.987Y-89.027
X149.987Y-91.948
X150.089Y-133.35
X151.076Y-100.257
X152.019Y-96.012
X152.4Y-112.911
X153.756Y-98.212
X156.743Y-119.634
X156.934Y-109.22
X156.945Y-106.686
X157.988Y-85.649
X158.632Y-98.098
X158.637Y-102.476
X158.648Y-106.705
X159.131Y-112.624
X159.14Y-97.046
X159.147Y-94.985
X160.045Y-102.641
X160.553Y-119.024
X162.166Y-106.806
X164.389Y-107.747
X165.938Y-104.14
X166.878Y-105.232
T2
X132.588Y-72.111
X133.985Y-116.459
X134.493Y-107.696
X135.509Y-118.364
X136.271Y-99.06
X136.813Y-104.234
X136.906Y-84.455
X136.906Y-86.36
X136.906Y-88.265
X136.906Y-90.614
X136.906Y-73.914
X136.906Y-82.677
X137.16Y-72.111
X137.668Y-110.744
X138.43Y-73.66
X138.43Y-76.2
X138.43Y-78.74
X139.573Y-102.362
X139.7Y-72.111
X139.7Y-74.93
X140.144Y-98.171
X140.764Y-108.188
X140.97Y-73.66
X141.097Y-97.218
X141.097Y-101.399
X141.097Y-103.378
X141.47Y-84.828
X141.986Y-96.33
X142.24Y-72.111
X142.24Y-74.93
X142.403Y-86.145
X143.51Y-73.66
X143.764Y-84.836
X143.764Y-97.282
X143.764Y-103.378
X144.273Y-92.838
X144.399Y-114.935
X144.78Y-72.111
X144.78Y-74.93
X144.912Y-86.145
X145.034Y-108.331
X145.415Y-95.631
X146.05Y-73.66
X146.177Y-84.836
X146.812Y-108.458
X147.32Y-72.111
X147.32Y-74.93
X147.419Y-85.567
X148.463Y-117.221
X148.59Y-73.66
X148.59Y-76.2
X148.59Y-78.74
X148.59Y-81.28
X148.59Y-83.82
X148.717Y-107.188
X149.827Y-115.316
X149.86Y-72.111
X149.86Y-74.93
X151.003Y-104.775
X151.13Y-85.344
X151.13Y-86.614
X151.13Y-87.884
X151.13Y-89.154
X151.13Y-90.424
X154.305Y-72.111
X141.47Y-77.952
X141.47Y-80.187
X141.47Y-82.651
X143.781Y-77.952
X143.781Y-82.651
X146.143Y-77.952
X146.143Y-80.187
X146.143Y-82.651
T3
X139.957Y-130.081
X139.959Y-132.093
T4
X143.781Y-80.314
X156.21Y-72.39
X156.21Y-74.93
X156.21Y-77.47
X156.21Y-80.01
X156.21Y-82.55
X156.21Y-85.09
X156.21Y-87.63
X156.21Y-90.17
X156.21Y-92.71
X156.21Y-95.25
X156.21Y-97.79
X156.21Y-100.33
X156.21Y-102.87
X156.21Y-105.41
X156.21Y-107.95
X156.21Y-110.49
X156.21Y-113.03
X156.21Y-115.57
X156.21Y-118.11
X130.81Y-72.39
X130.81Y-74.93
X130.81Y-77.47
X130.81Y-80.01
X130.81Y-82.55
X130.81Y-85.09
X130.81Y-87.63
X130.81Y-90.17
X130.81Y-92.71
X130.81Y-95.25
X130.81Y-97.79
X130.81Y-100.33
X130.81Y-102.87
X130.81Y-105.41
X130.81Y-107.95
X130.81Y-110.49
X130.81Y-113.03
X130.81Y-115.57
X130.81Y-118.11
T5
X147.398Y-138.918
X151.398Y-138.918
T6
X162.958Y-86.204
X164.758Y-86.204
X162.958Y-121.204
X164.758Y-121.204
X140.564Y-139.268
X142.364Y-139.268
T7
X163.858Y-137.664
X163.858Y-69.744
T2
G00X145.798Y-137.298
M15
G01X145.798Y-137.898
M16
G05
G00X145.798Y-140.768
M15
G01X145.798Y-141.368
M16
G05
G00X152.998Y-137.298
M15
G01X152.998Y-137.898
M16
G05
G00X152.998Y-140.768
M15
G01X152.998Y-141.368
M16
G05
T0
M30
