G04 #@! TF.GenerationSoftware,KiCad,Pcbnew,(5.1.2)-2*
G04 #@! TF.CreationDate,2019-09-23T21:32:25+02:00*
G04 #@! TF.ProjectId,hm-env-sensor,686d2d65-6e76-42d7-9365-6e736f722e6b,A1*
G04 #@! TF.SameCoordinates,Original*
G04 #@! TF.FileFunction,Soldermask,Bot*
G04 #@! TF.FilePolarity,Negative*
%FSLAX46Y46*%
G04 Gerber Fmt 4.6, Leading zero omitted, Abs format (unit mm)*
G04 Created by KiCad (PCBNEW (5.1.2)-2) date 2019-09-23 21:32:25*
%MOMM*%
%LPD*%
G04 APERTURE LIST*
%ADD10C,0.254000*%
%ADD11C,0.100000*%
G04 APERTURE END LIST*
D10*
X169398000Y-135704200D02*
X169398000Y-71704200D01*
X129398000Y-71704200D02*
X129398000Y-135704200D01*
X161898000Y-64204200D02*
X136898000Y-64204200D01*
X161898000Y-64204200D02*
G75*
G02X169398000Y-71704200I0J-7500000D01*
G01*
X169398000Y-135704200D02*
G75*
G02X161898000Y-143204200I-7500000J0D01*
G01*
X161898000Y-143204200D02*
X136898000Y-143204200D01*
X129398000Y-71704200D02*
G75*
G02X136898000Y-64204200I7500000J0D01*
G01*
X136898000Y-143204200D02*
G75*
G02X129398000Y-135704200I0J7500000D01*
G01*
D11*
G36*
X145925578Y-140126217D02*
G01*
X146048254Y-140163431D01*
X146048257Y-140163432D01*
X146161312Y-140223861D01*
X146260412Y-140305189D01*
X146341739Y-140404287D01*
X146402168Y-140517342D01*
X146402168Y-140517343D01*
X146402169Y-140517345D01*
X146439383Y-140640021D01*
X146448800Y-140735637D01*
X146448800Y-141399563D01*
X146439383Y-141495179D01*
X146402169Y-141617855D01*
X146402168Y-141617858D01*
X146341739Y-141730913D01*
X146260412Y-141830012D01*
X146161313Y-141911339D01*
X146048258Y-141971768D01*
X146048255Y-141971769D01*
X145925579Y-142008983D01*
X145798000Y-142021548D01*
X145670422Y-142008983D01*
X145547746Y-141971769D01*
X145547743Y-141971768D01*
X145434688Y-141911339D01*
X145335589Y-141830012D01*
X145254263Y-141730915D01*
X145193831Y-141617856D01*
X145181426Y-141576963D01*
X145156617Y-141495179D01*
X145147200Y-141399563D01*
X145147200Y-140735638D01*
X145156617Y-140640022D01*
X145193831Y-140517346D01*
X145193832Y-140517343D01*
X145254261Y-140404288D01*
X145335589Y-140305188D01*
X145434687Y-140223861D01*
X145547742Y-140163432D01*
X145547745Y-140163431D01*
X145670421Y-140126217D01*
X145798000Y-140113652D01*
X145925578Y-140126217D01*
X145925578Y-140126217D01*
G37*
G36*
X153125578Y-140126217D02*
G01*
X153248254Y-140163431D01*
X153248257Y-140163432D01*
X153361312Y-140223861D01*
X153460412Y-140305189D01*
X153541739Y-140404287D01*
X153602168Y-140517342D01*
X153602168Y-140517343D01*
X153602169Y-140517345D01*
X153639383Y-140640021D01*
X153648800Y-140735637D01*
X153648800Y-141399563D01*
X153639383Y-141495179D01*
X153602169Y-141617855D01*
X153602168Y-141617858D01*
X153541739Y-141730913D01*
X153460412Y-141830012D01*
X153361313Y-141911339D01*
X153248258Y-141971768D01*
X153248255Y-141971769D01*
X153125579Y-142008983D01*
X152998000Y-142021548D01*
X152870422Y-142008983D01*
X152747746Y-141971769D01*
X152747743Y-141971768D01*
X152634688Y-141911339D01*
X152535589Y-141830012D01*
X152454263Y-141730915D01*
X152393831Y-141617856D01*
X152381426Y-141576963D01*
X152356617Y-141495179D01*
X152347200Y-141399563D01*
X152347200Y-140735638D01*
X152356617Y-140640022D01*
X152393831Y-140517346D01*
X152393832Y-140517343D01*
X152454261Y-140404288D01*
X152535589Y-140305188D01*
X152634687Y-140223861D01*
X152747742Y-140163432D01*
X152747745Y-140163431D01*
X152870421Y-140126217D01*
X152998000Y-140113652D01*
X153125578Y-140126217D01*
X153125578Y-140126217D01*
G37*
G36*
X140680508Y-138882802D02*
G01*
X140753448Y-138913015D01*
X140753450Y-138913016D01*
X140786495Y-138935096D01*
X140819094Y-138956878D01*
X140874922Y-139012706D01*
X140918785Y-139078352D01*
X140948998Y-139151292D01*
X140964400Y-139228723D01*
X140964400Y-139307677D01*
X140948998Y-139385108D01*
X140918785Y-139458048D01*
X140881266Y-139514200D01*
X140874921Y-139523695D01*
X140819095Y-139579521D01*
X140753450Y-139623384D01*
X140753449Y-139623385D01*
X140753448Y-139623385D01*
X140680508Y-139653598D01*
X140603077Y-139669000D01*
X140524123Y-139669000D01*
X140446692Y-139653598D01*
X140373752Y-139623385D01*
X140373751Y-139623385D01*
X140373750Y-139623384D01*
X140308105Y-139579521D01*
X140252279Y-139523695D01*
X140245935Y-139514200D01*
X140208415Y-139458048D01*
X140178202Y-139385108D01*
X140162800Y-139307677D01*
X140162800Y-139228723D01*
X140178202Y-139151292D01*
X140208415Y-139078352D01*
X140252278Y-139012706D01*
X140308106Y-138956878D01*
X140340705Y-138935096D01*
X140373750Y-138913016D01*
X140373752Y-138913015D01*
X140446692Y-138882802D01*
X140524123Y-138867400D01*
X140603077Y-138867400D01*
X140680508Y-138882802D01*
X140680508Y-138882802D01*
G37*
G36*
X142480508Y-138882802D02*
G01*
X142553448Y-138913015D01*
X142553450Y-138913016D01*
X142586495Y-138935096D01*
X142619094Y-138956878D01*
X142674922Y-139012706D01*
X142718785Y-139078352D01*
X142748998Y-139151292D01*
X142764400Y-139228723D01*
X142764400Y-139307677D01*
X142748998Y-139385108D01*
X142718785Y-139458048D01*
X142681266Y-139514200D01*
X142674921Y-139523695D01*
X142619095Y-139579521D01*
X142553450Y-139623384D01*
X142553449Y-139623385D01*
X142553448Y-139623385D01*
X142480508Y-139653598D01*
X142403077Y-139669000D01*
X142324123Y-139669000D01*
X142246692Y-139653598D01*
X142173752Y-139623385D01*
X142173751Y-139623385D01*
X142173750Y-139623384D01*
X142108105Y-139579521D01*
X142052279Y-139523695D01*
X142045935Y-139514200D01*
X142008415Y-139458048D01*
X141978202Y-139385108D01*
X141962800Y-139307677D01*
X141962800Y-139228723D01*
X141978202Y-139151292D01*
X142008415Y-139078352D01*
X142052278Y-139012706D01*
X142108106Y-138956878D01*
X142140705Y-138935096D01*
X142173750Y-138913016D01*
X142173752Y-138913015D01*
X142246692Y-138882802D01*
X142324123Y-138867400D01*
X142403077Y-138867400D01*
X142480508Y-138882802D01*
X142480508Y-138882802D01*
G37*
G36*
X164397624Y-135885294D02*
G01*
X164734302Y-136024751D01*
X164734303Y-136024752D01*
X165037306Y-136227211D01*
X165294989Y-136484894D01*
X165401067Y-136643652D01*
X165497449Y-136787898D01*
X165636906Y-137124576D01*
X165708000Y-137481990D01*
X165708000Y-137846410D01*
X165636906Y-138203824D01*
X165497449Y-138540502D01*
X165430268Y-138641046D01*
X165294989Y-138843506D01*
X165037306Y-139101189D01*
X164962321Y-139151292D01*
X164734302Y-139303649D01*
X164397624Y-139443106D01*
X164040210Y-139514200D01*
X163675790Y-139514200D01*
X163318376Y-139443106D01*
X162981698Y-139303649D01*
X162753679Y-139151292D01*
X162678694Y-139101189D01*
X162421011Y-138843506D01*
X162285732Y-138641046D01*
X162218551Y-138540502D01*
X162079094Y-138203824D01*
X162008000Y-137846410D01*
X162008000Y-137481990D01*
X162079094Y-137124576D01*
X162218551Y-136787898D01*
X162314933Y-136643652D01*
X162421011Y-136484894D01*
X162678694Y-136227211D01*
X162981697Y-136024752D01*
X162981698Y-136024751D01*
X163318376Y-135885294D01*
X163675790Y-135814200D01*
X164040210Y-135814200D01*
X164397624Y-135885294D01*
X164397624Y-135885294D01*
G37*
G36*
X151500324Y-138580281D02*
G01*
X151564166Y-138606725D01*
X151621622Y-138645116D01*
X151670484Y-138693978D01*
X151708875Y-138751434D01*
X151735319Y-138815276D01*
X151748800Y-138883049D01*
X151748800Y-138952151D01*
X151735319Y-139019924D01*
X151708875Y-139083766D01*
X151670484Y-139141222D01*
X151621622Y-139190084D01*
X151564166Y-139228475D01*
X151500324Y-139254919D01*
X151432551Y-139268400D01*
X151363449Y-139268400D01*
X151295676Y-139254919D01*
X151231834Y-139228475D01*
X151174378Y-139190084D01*
X151125516Y-139141222D01*
X151087125Y-139083766D01*
X151060681Y-139019924D01*
X151047200Y-138952151D01*
X151047200Y-138883049D01*
X151060681Y-138815276D01*
X151087125Y-138751434D01*
X151125516Y-138693978D01*
X151174378Y-138645116D01*
X151231834Y-138606725D01*
X151295676Y-138580281D01*
X151363449Y-138566800D01*
X151432551Y-138566800D01*
X151500324Y-138580281D01*
X151500324Y-138580281D01*
G37*
G36*
X147500324Y-138580281D02*
G01*
X147564166Y-138606725D01*
X147621622Y-138645116D01*
X147670484Y-138693978D01*
X147708875Y-138751434D01*
X147735319Y-138815276D01*
X147748800Y-138883049D01*
X147748800Y-138952151D01*
X147735319Y-139019924D01*
X147708875Y-139083766D01*
X147670484Y-139141222D01*
X147621622Y-139190084D01*
X147564166Y-139228475D01*
X147500324Y-139254919D01*
X147432551Y-139268400D01*
X147363449Y-139268400D01*
X147295676Y-139254919D01*
X147231834Y-139228475D01*
X147174378Y-139190084D01*
X147125516Y-139141222D01*
X147087125Y-139083766D01*
X147060681Y-139019924D01*
X147047200Y-138952151D01*
X147047200Y-138883049D01*
X147060681Y-138815276D01*
X147087125Y-138751434D01*
X147125516Y-138693978D01*
X147174378Y-138645116D01*
X147231834Y-138606725D01*
X147295676Y-138580281D01*
X147363449Y-138566800D01*
X147432551Y-138566800D01*
X147500324Y-138580281D01*
X147500324Y-138580281D01*
G37*
G36*
X145925578Y-136656217D02*
G01*
X146048254Y-136693431D01*
X146048257Y-136693432D01*
X146161312Y-136753861D01*
X146260412Y-136835189D01*
X146341739Y-136934287D01*
X146402168Y-137047342D01*
X146402168Y-137047343D01*
X146402169Y-137047345D01*
X146439383Y-137170021D01*
X146448800Y-137265637D01*
X146448800Y-137929563D01*
X146439383Y-138025179D01*
X146402169Y-138147855D01*
X146402168Y-138147858D01*
X146341739Y-138260913D01*
X146260412Y-138360012D01*
X146161313Y-138441339D01*
X146048258Y-138501768D01*
X146048255Y-138501769D01*
X145925579Y-138538983D01*
X145798000Y-138551548D01*
X145670422Y-138538983D01*
X145547746Y-138501769D01*
X145547743Y-138501768D01*
X145434688Y-138441339D01*
X145335589Y-138360012D01*
X145254263Y-138260915D01*
X145193831Y-138147856D01*
X145181426Y-138106963D01*
X145156617Y-138025179D01*
X145147200Y-137929563D01*
X145147200Y-137265638D01*
X145156617Y-137170022D01*
X145193831Y-137047346D01*
X145193832Y-137047343D01*
X145254261Y-136934288D01*
X145335589Y-136835188D01*
X145434687Y-136753861D01*
X145547742Y-136693432D01*
X145547745Y-136693431D01*
X145670421Y-136656217D01*
X145798000Y-136643652D01*
X145925578Y-136656217D01*
X145925578Y-136656217D01*
G37*
G36*
X153125578Y-136656217D02*
G01*
X153248254Y-136693431D01*
X153248257Y-136693432D01*
X153361312Y-136753861D01*
X153460412Y-136835189D01*
X153541739Y-136934287D01*
X153602168Y-137047342D01*
X153602168Y-137047343D01*
X153602169Y-137047345D01*
X153639383Y-137170021D01*
X153648800Y-137265637D01*
X153648800Y-137929563D01*
X153639383Y-138025179D01*
X153602169Y-138147855D01*
X153602168Y-138147858D01*
X153541739Y-138260913D01*
X153460412Y-138360012D01*
X153361313Y-138441339D01*
X153248258Y-138501768D01*
X153248255Y-138501769D01*
X153125579Y-138538983D01*
X152998000Y-138551548D01*
X152870422Y-138538983D01*
X152747746Y-138501769D01*
X152747743Y-138501768D01*
X152634688Y-138441339D01*
X152535589Y-138360012D01*
X152454263Y-138260915D01*
X152393831Y-138147856D01*
X152381426Y-138106963D01*
X152356617Y-138025179D01*
X152347200Y-137929563D01*
X152347200Y-137265638D01*
X152356617Y-137170022D01*
X152393831Y-137047346D01*
X152393832Y-137047343D01*
X152454261Y-136934288D01*
X152535589Y-136835188D01*
X152634687Y-136753861D01*
X152747742Y-136693432D01*
X152747745Y-136693431D01*
X152870421Y-136656217D01*
X152998000Y-136643652D01*
X153125578Y-136656217D01*
X153125578Y-136656217D01*
G37*
G36*
X140178079Y-131370752D02*
G01*
X140314719Y-131427350D01*
X140437685Y-131509513D01*
X140542267Y-131614095D01*
X140624430Y-131737061D01*
X140681028Y-131873701D01*
X140709880Y-132018751D01*
X140709880Y-132166649D01*
X140681028Y-132311699D01*
X140624430Y-132448339D01*
X140542267Y-132571305D01*
X140437685Y-132675887D01*
X140314719Y-132758050D01*
X140178079Y-132814648D01*
X140033029Y-132843500D01*
X139885131Y-132843500D01*
X139740081Y-132814648D01*
X139603441Y-132758050D01*
X139480475Y-132675887D01*
X139375893Y-132571305D01*
X139293730Y-132448339D01*
X139237132Y-132311699D01*
X139208280Y-132166649D01*
X139208280Y-132018751D01*
X139237132Y-131873701D01*
X139293730Y-131737061D01*
X139375893Y-131614095D01*
X139480475Y-131509513D01*
X139603441Y-131427350D01*
X139740081Y-131370752D01*
X139885131Y-131341900D01*
X140033029Y-131341900D01*
X140178079Y-131370752D01*
X140178079Y-131370752D01*
G37*
G36*
X140707340Y-130831820D02*
G01*
X139205740Y-130831820D01*
X139205740Y-129330220D01*
X140707340Y-129330220D01*
X140707340Y-130831820D01*
X140707340Y-130831820D01*
G37*
G36*
X164874908Y-120818802D02*
G01*
X164947848Y-120849015D01*
X164947850Y-120849016D01*
X164980895Y-120871096D01*
X165013494Y-120892878D01*
X165069322Y-120948706D01*
X165113185Y-121014352D01*
X165143398Y-121087292D01*
X165158800Y-121164723D01*
X165158800Y-121243677D01*
X165143398Y-121321108D01*
X165113185Y-121394048D01*
X165113184Y-121394050D01*
X165069321Y-121459695D01*
X165013495Y-121515521D01*
X164947850Y-121559384D01*
X164947849Y-121559385D01*
X164947848Y-121559385D01*
X164874908Y-121589598D01*
X164797477Y-121605000D01*
X164718523Y-121605000D01*
X164641092Y-121589598D01*
X164568152Y-121559385D01*
X164568151Y-121559385D01*
X164568150Y-121559384D01*
X164502505Y-121515521D01*
X164446679Y-121459695D01*
X164402816Y-121394050D01*
X164402815Y-121394048D01*
X164372602Y-121321108D01*
X164357200Y-121243677D01*
X164357200Y-121164723D01*
X164372602Y-121087292D01*
X164402815Y-121014352D01*
X164446678Y-120948706D01*
X164502506Y-120892878D01*
X164535105Y-120871096D01*
X164568150Y-120849016D01*
X164568152Y-120849015D01*
X164641092Y-120818802D01*
X164718523Y-120803400D01*
X164797477Y-120803400D01*
X164874908Y-120818802D01*
X164874908Y-120818802D01*
G37*
G36*
X163074908Y-120818802D02*
G01*
X163147848Y-120849015D01*
X163147850Y-120849016D01*
X163180895Y-120871096D01*
X163213494Y-120892878D01*
X163269322Y-120948706D01*
X163313185Y-121014352D01*
X163343398Y-121087292D01*
X163358800Y-121164723D01*
X163358800Y-121243677D01*
X163343398Y-121321108D01*
X163313185Y-121394048D01*
X163313184Y-121394050D01*
X163269321Y-121459695D01*
X163213495Y-121515521D01*
X163147850Y-121559384D01*
X163147849Y-121559385D01*
X163147848Y-121559385D01*
X163074908Y-121589598D01*
X162997477Y-121605000D01*
X162918523Y-121605000D01*
X162841092Y-121589598D01*
X162768152Y-121559385D01*
X162768151Y-121559385D01*
X162768150Y-121559384D01*
X162702505Y-121515521D01*
X162646679Y-121459695D01*
X162602816Y-121394050D01*
X162602815Y-121394048D01*
X162572602Y-121321108D01*
X162557200Y-121243677D01*
X162557200Y-121164723D01*
X162572602Y-121087292D01*
X162602815Y-121014352D01*
X162646678Y-120948706D01*
X162702506Y-120892878D01*
X162735105Y-120871096D01*
X162768150Y-120849016D01*
X162768152Y-120849015D01*
X162841092Y-120818802D01*
X162918523Y-120803400D01*
X162997477Y-120803400D01*
X163074908Y-120818802D01*
X163074908Y-120818802D01*
G37*
G36*
X156423607Y-117194277D02*
G01*
X156484129Y-117206316D01*
X156655162Y-117277160D01*
X156809087Y-117380010D01*
X156939990Y-117510913D01*
X157014142Y-117621888D01*
X157042841Y-117664840D01*
X157113684Y-117835872D01*
X157149800Y-118017436D01*
X157149800Y-118202564D01*
X157113684Y-118384128D01*
X157050018Y-118537834D01*
X157042840Y-118555162D01*
X156939990Y-118709087D01*
X156809087Y-118839990D01*
X156655162Y-118942840D01*
X156484129Y-119013684D01*
X156423607Y-119025723D01*
X156302564Y-119049800D01*
X156117436Y-119049800D01*
X155996393Y-119025723D01*
X155935871Y-119013684D01*
X155764838Y-118942840D01*
X155610913Y-118839990D01*
X155480010Y-118709087D01*
X155377160Y-118555162D01*
X155369983Y-118537834D01*
X155306316Y-118384128D01*
X155270200Y-118202564D01*
X155270200Y-118017436D01*
X155306316Y-117835872D01*
X155377159Y-117664840D01*
X155405859Y-117621888D01*
X155480010Y-117510913D01*
X155610913Y-117380010D01*
X155764838Y-117277160D01*
X155935871Y-117206316D01*
X155996393Y-117194277D01*
X156117436Y-117170200D01*
X156302564Y-117170200D01*
X156423607Y-117194277D01*
X156423607Y-117194277D01*
G37*
G36*
X131023607Y-117194277D02*
G01*
X131084129Y-117206316D01*
X131255162Y-117277160D01*
X131409087Y-117380010D01*
X131539990Y-117510913D01*
X131614142Y-117621888D01*
X131642841Y-117664840D01*
X131713684Y-117835872D01*
X131749800Y-118017436D01*
X131749800Y-118202564D01*
X131713684Y-118384128D01*
X131650018Y-118537834D01*
X131642840Y-118555162D01*
X131539990Y-118709087D01*
X131409087Y-118839990D01*
X131255162Y-118942840D01*
X131084129Y-119013684D01*
X131023607Y-119025723D01*
X130902564Y-119049800D01*
X130717436Y-119049800D01*
X130596393Y-119025723D01*
X130535871Y-119013684D01*
X130364838Y-118942840D01*
X130210913Y-118839990D01*
X130080010Y-118709087D01*
X129977160Y-118555162D01*
X129969983Y-118537834D01*
X129906316Y-118384128D01*
X129870200Y-118202564D01*
X129870200Y-118017436D01*
X129906316Y-117835872D01*
X129977159Y-117664840D01*
X130005859Y-117621888D01*
X130080010Y-117510913D01*
X130210913Y-117380010D01*
X130364838Y-117277160D01*
X130535871Y-117206316D01*
X130596393Y-117194277D01*
X130717436Y-117170200D01*
X130902564Y-117170200D01*
X131023607Y-117194277D01*
X131023607Y-117194277D01*
G37*
G36*
X153830659Y-117580366D02*
G01*
X153830661Y-117580367D01*
X153830662Y-117580367D01*
X153930902Y-117621887D01*
X154021114Y-117682166D01*
X154097834Y-117758886D01*
X154158113Y-117849098D01*
X154199633Y-117949338D01*
X154220800Y-118055751D01*
X154220800Y-118164249D01*
X154199633Y-118270662D01*
X154158113Y-118370902D01*
X154097834Y-118461114D01*
X154021114Y-118537834D01*
X153930902Y-118598113D01*
X153830662Y-118639633D01*
X153830661Y-118639633D01*
X153830659Y-118639634D01*
X153724250Y-118660800D01*
X153615750Y-118660800D01*
X153509341Y-118639634D01*
X153509339Y-118639633D01*
X153509338Y-118639633D01*
X153409098Y-118598113D01*
X153318886Y-118537834D01*
X153242166Y-118461114D01*
X153181887Y-118370902D01*
X153140367Y-118270662D01*
X153119200Y-118164249D01*
X153119200Y-118055751D01*
X153140367Y-117949338D01*
X153181887Y-117849098D01*
X153242166Y-117758886D01*
X153318886Y-117682166D01*
X153409098Y-117621887D01*
X153509338Y-117580367D01*
X153509339Y-117580367D01*
X153509341Y-117580366D01*
X153615750Y-117559200D01*
X153724250Y-117559200D01*
X153830659Y-117580366D01*
X153830659Y-117580366D01*
G37*
G36*
X151290659Y-117580366D02*
G01*
X151290661Y-117580367D01*
X151290662Y-117580367D01*
X151390902Y-117621887D01*
X151481114Y-117682166D01*
X151557834Y-117758886D01*
X151618113Y-117849098D01*
X151659633Y-117949338D01*
X151680800Y-118055751D01*
X151680800Y-118164249D01*
X151659633Y-118270662D01*
X151618113Y-118370902D01*
X151557834Y-118461114D01*
X151481114Y-118537834D01*
X151390902Y-118598113D01*
X151290662Y-118639633D01*
X151290661Y-118639633D01*
X151290659Y-118639634D01*
X151184250Y-118660800D01*
X151075750Y-118660800D01*
X150969341Y-118639634D01*
X150969339Y-118639633D01*
X150969338Y-118639633D01*
X150869098Y-118598113D01*
X150778886Y-118537834D01*
X150702166Y-118461114D01*
X150641887Y-118370902D01*
X150600367Y-118270662D01*
X150579200Y-118164249D01*
X150579200Y-118055751D01*
X150600367Y-117949338D01*
X150641887Y-117849098D01*
X150702166Y-117758886D01*
X150778886Y-117682166D01*
X150869098Y-117621887D01*
X150969338Y-117580367D01*
X150969339Y-117580367D01*
X150969341Y-117580366D01*
X151075750Y-117559200D01*
X151184250Y-117559200D01*
X151290659Y-117580366D01*
X151290659Y-117580366D01*
G37*
G36*
X131023607Y-114654277D02*
G01*
X131084129Y-114666316D01*
X131255162Y-114737160D01*
X131409087Y-114840010D01*
X131539990Y-114970913D01*
X131642840Y-115124838D01*
X131713684Y-115295871D01*
X131749800Y-115477438D01*
X131749800Y-115662562D01*
X131713684Y-115844129D01*
X131642840Y-116015162D01*
X131539990Y-116169087D01*
X131409087Y-116299990D01*
X131255162Y-116402840D01*
X131084129Y-116473684D01*
X131023607Y-116485723D01*
X130902564Y-116509800D01*
X130717436Y-116509800D01*
X130596393Y-116485723D01*
X130535871Y-116473684D01*
X130364838Y-116402840D01*
X130210913Y-116299990D01*
X130080010Y-116169087D01*
X129977160Y-116015162D01*
X129906316Y-115844129D01*
X129870200Y-115662562D01*
X129870200Y-115477438D01*
X129906316Y-115295871D01*
X129977160Y-115124838D01*
X130080010Y-114970913D01*
X130210913Y-114840010D01*
X130364838Y-114737160D01*
X130535871Y-114666316D01*
X130596393Y-114654277D01*
X130717436Y-114630200D01*
X130902564Y-114630200D01*
X131023607Y-114654277D01*
X131023607Y-114654277D01*
G37*
G36*
X156423607Y-114654277D02*
G01*
X156484129Y-114666316D01*
X156655162Y-114737160D01*
X156809087Y-114840010D01*
X156939990Y-114970913D01*
X157042840Y-115124838D01*
X157113684Y-115295871D01*
X157149800Y-115477438D01*
X157149800Y-115662562D01*
X157113684Y-115844129D01*
X157042840Y-116015162D01*
X156939990Y-116169087D01*
X156809087Y-116299990D01*
X156655162Y-116402840D01*
X156484129Y-116473684D01*
X156423607Y-116485723D01*
X156302564Y-116509800D01*
X156117436Y-116509800D01*
X155996393Y-116485723D01*
X155935871Y-116473684D01*
X155764838Y-116402840D01*
X155610913Y-116299990D01*
X155480010Y-116169087D01*
X155377160Y-116015162D01*
X155306316Y-115844129D01*
X155270200Y-115662562D01*
X155270200Y-115477438D01*
X155306316Y-115295871D01*
X155377160Y-115124838D01*
X155480010Y-114970913D01*
X155610913Y-114840010D01*
X155764838Y-114737160D01*
X155935871Y-114666316D01*
X155996393Y-114654277D01*
X156117436Y-114630200D01*
X156302564Y-114630200D01*
X156423607Y-114654277D01*
X156423607Y-114654277D01*
G37*
G36*
X156423607Y-112114277D02*
G01*
X156484129Y-112126316D01*
X156655162Y-112197160D01*
X156809087Y-112300010D01*
X156939990Y-112430913D01*
X157042840Y-112584838D01*
X157113684Y-112755871D01*
X157149800Y-112937438D01*
X157149800Y-113122562D01*
X157113684Y-113304129D01*
X157042840Y-113475162D01*
X156939990Y-113629087D01*
X156809087Y-113759990D01*
X156655162Y-113862840D01*
X156484129Y-113933684D01*
X156423607Y-113945723D01*
X156302564Y-113969800D01*
X156117436Y-113969800D01*
X155996393Y-113945723D01*
X155935871Y-113933684D01*
X155764838Y-113862840D01*
X155610913Y-113759990D01*
X155480010Y-113629087D01*
X155377160Y-113475162D01*
X155306316Y-113304129D01*
X155270200Y-113122562D01*
X155270200Y-112937438D01*
X155306316Y-112755871D01*
X155377160Y-112584838D01*
X155480010Y-112430913D01*
X155610913Y-112300010D01*
X155764838Y-112197160D01*
X155935871Y-112126316D01*
X155996393Y-112114277D01*
X156117436Y-112090200D01*
X156302564Y-112090200D01*
X156423607Y-112114277D01*
X156423607Y-112114277D01*
G37*
G36*
X131023607Y-112114277D02*
G01*
X131084129Y-112126316D01*
X131255162Y-112197160D01*
X131409087Y-112300010D01*
X131539990Y-112430913D01*
X131642840Y-112584838D01*
X131713684Y-112755871D01*
X131749800Y-112937438D01*
X131749800Y-113122562D01*
X131713684Y-113304129D01*
X131642840Y-113475162D01*
X131539990Y-113629087D01*
X131409087Y-113759990D01*
X131255162Y-113862840D01*
X131084129Y-113933684D01*
X131023607Y-113945723D01*
X130902564Y-113969800D01*
X130717436Y-113969800D01*
X130596393Y-113945723D01*
X130535871Y-113933684D01*
X130364838Y-113862840D01*
X130210913Y-113759990D01*
X130080010Y-113629087D01*
X129977160Y-113475162D01*
X129906316Y-113304129D01*
X129870200Y-113122562D01*
X129870200Y-112937438D01*
X129906316Y-112755871D01*
X129977160Y-112584838D01*
X130080010Y-112430913D01*
X130210913Y-112300010D01*
X130364838Y-112197160D01*
X130535871Y-112126316D01*
X130596393Y-112114277D01*
X130717436Y-112090200D01*
X130902564Y-112090200D01*
X131023607Y-112114277D01*
X131023607Y-112114277D01*
G37*
G36*
X156423607Y-109574277D02*
G01*
X156484129Y-109586316D01*
X156655162Y-109657160D01*
X156809087Y-109760010D01*
X156939990Y-109890913D01*
X157042840Y-110044838D01*
X157113684Y-110215871D01*
X157149800Y-110397438D01*
X157149800Y-110582562D01*
X157113684Y-110764129D01*
X157042840Y-110935162D01*
X156939990Y-111089087D01*
X156809087Y-111219990D01*
X156655162Y-111322840D01*
X156484129Y-111393684D01*
X156423607Y-111405723D01*
X156302564Y-111429800D01*
X156117436Y-111429800D01*
X155996393Y-111405723D01*
X155935871Y-111393684D01*
X155764838Y-111322840D01*
X155610913Y-111219990D01*
X155480010Y-111089087D01*
X155377160Y-110935162D01*
X155306316Y-110764129D01*
X155270200Y-110582562D01*
X155270200Y-110397438D01*
X155306316Y-110215871D01*
X155377160Y-110044838D01*
X155480010Y-109890913D01*
X155610913Y-109760010D01*
X155764838Y-109657160D01*
X155935871Y-109586316D01*
X155996393Y-109574277D01*
X156117436Y-109550200D01*
X156302564Y-109550200D01*
X156423607Y-109574277D01*
X156423607Y-109574277D01*
G37*
G36*
X131023607Y-109574277D02*
G01*
X131084129Y-109586316D01*
X131255162Y-109657160D01*
X131409087Y-109760010D01*
X131539990Y-109890913D01*
X131642840Y-110044838D01*
X131713684Y-110215871D01*
X131749800Y-110397438D01*
X131749800Y-110582562D01*
X131713684Y-110764129D01*
X131642840Y-110935162D01*
X131539990Y-111089087D01*
X131409087Y-111219990D01*
X131255162Y-111322840D01*
X131084129Y-111393684D01*
X131023607Y-111405723D01*
X130902564Y-111429800D01*
X130717436Y-111429800D01*
X130596393Y-111405723D01*
X130535871Y-111393684D01*
X130364838Y-111322840D01*
X130210913Y-111219990D01*
X130080010Y-111089087D01*
X129977160Y-110935162D01*
X129906316Y-110764129D01*
X129870200Y-110582562D01*
X129870200Y-110397438D01*
X129906316Y-110215871D01*
X129977160Y-110044838D01*
X130080010Y-109890913D01*
X130210913Y-109760010D01*
X130364838Y-109657160D01*
X130535871Y-109586316D01*
X130596393Y-109574277D01*
X130717436Y-109550200D01*
X130902564Y-109550200D01*
X131023607Y-109574277D01*
X131023607Y-109574277D01*
G37*
G36*
X156423607Y-107034277D02*
G01*
X156484129Y-107046316D01*
X156655162Y-107117160D01*
X156809087Y-107220010D01*
X156939990Y-107350913D01*
X157042840Y-107504838D01*
X157113684Y-107675871D01*
X157149800Y-107857438D01*
X157149800Y-108042562D01*
X157113684Y-108224129D01*
X157042840Y-108395162D01*
X156939990Y-108549087D01*
X156809087Y-108679990D01*
X156655162Y-108782840D01*
X156484129Y-108853684D01*
X156423607Y-108865723D01*
X156302564Y-108889800D01*
X156117436Y-108889800D01*
X155996393Y-108865723D01*
X155935871Y-108853684D01*
X155764838Y-108782840D01*
X155610913Y-108679990D01*
X155480010Y-108549087D01*
X155377160Y-108395162D01*
X155306316Y-108224129D01*
X155270200Y-108042562D01*
X155270200Y-107857438D01*
X155306316Y-107675871D01*
X155377160Y-107504838D01*
X155480010Y-107350913D01*
X155610913Y-107220010D01*
X155764838Y-107117160D01*
X155935871Y-107046316D01*
X155996393Y-107034277D01*
X156117436Y-107010200D01*
X156302564Y-107010200D01*
X156423607Y-107034277D01*
X156423607Y-107034277D01*
G37*
G36*
X131023607Y-107034277D02*
G01*
X131084129Y-107046316D01*
X131255162Y-107117160D01*
X131409087Y-107220010D01*
X131539990Y-107350913D01*
X131642840Y-107504838D01*
X131713684Y-107675871D01*
X131749800Y-107857438D01*
X131749800Y-108042562D01*
X131713684Y-108224129D01*
X131642840Y-108395162D01*
X131539990Y-108549087D01*
X131409087Y-108679990D01*
X131255162Y-108782840D01*
X131084129Y-108853684D01*
X131023607Y-108865723D01*
X130902564Y-108889800D01*
X130717436Y-108889800D01*
X130596393Y-108865723D01*
X130535871Y-108853684D01*
X130364838Y-108782840D01*
X130210913Y-108679990D01*
X130080010Y-108549087D01*
X129977160Y-108395162D01*
X129906316Y-108224129D01*
X129870200Y-108042562D01*
X129870200Y-107857438D01*
X129906316Y-107675871D01*
X129977160Y-107504838D01*
X130080010Y-107350913D01*
X130210913Y-107220010D01*
X130364838Y-107117160D01*
X130535871Y-107046316D01*
X130596393Y-107034277D01*
X130717436Y-107010200D01*
X130902564Y-107010200D01*
X131023607Y-107034277D01*
X131023607Y-107034277D01*
G37*
G36*
X131023607Y-104494277D02*
G01*
X131084129Y-104506316D01*
X131255162Y-104577160D01*
X131409087Y-104680010D01*
X131539990Y-104810913D01*
X131642840Y-104964838D01*
X131713684Y-105135871D01*
X131749800Y-105317438D01*
X131749800Y-105502562D01*
X131713684Y-105684129D01*
X131642840Y-105855162D01*
X131539990Y-106009087D01*
X131409087Y-106139990D01*
X131255162Y-106242840D01*
X131084129Y-106313684D01*
X131023607Y-106325723D01*
X130902564Y-106349800D01*
X130717436Y-106349800D01*
X130596393Y-106325723D01*
X130535871Y-106313684D01*
X130364838Y-106242840D01*
X130210913Y-106139990D01*
X130080010Y-106009087D01*
X129977160Y-105855162D01*
X129906316Y-105684129D01*
X129870200Y-105502562D01*
X129870200Y-105317438D01*
X129906316Y-105135871D01*
X129977160Y-104964838D01*
X130080010Y-104810913D01*
X130210913Y-104680010D01*
X130364838Y-104577160D01*
X130535871Y-104506316D01*
X130596393Y-104494277D01*
X130717436Y-104470200D01*
X130902564Y-104470200D01*
X131023607Y-104494277D01*
X131023607Y-104494277D01*
G37*
G36*
X156423607Y-104494277D02*
G01*
X156484129Y-104506316D01*
X156655162Y-104577160D01*
X156809087Y-104680010D01*
X156939990Y-104810913D01*
X157042840Y-104964838D01*
X157113684Y-105135871D01*
X157149800Y-105317438D01*
X157149800Y-105502562D01*
X157113684Y-105684129D01*
X157042840Y-105855162D01*
X156939990Y-106009087D01*
X156809087Y-106139990D01*
X156655162Y-106242840D01*
X156484129Y-106313684D01*
X156423607Y-106325723D01*
X156302564Y-106349800D01*
X156117436Y-106349800D01*
X155996393Y-106325723D01*
X155935871Y-106313684D01*
X155764838Y-106242840D01*
X155610913Y-106139990D01*
X155480010Y-106009087D01*
X155377160Y-105855162D01*
X155306316Y-105684129D01*
X155270200Y-105502562D01*
X155270200Y-105317438D01*
X155306316Y-105135871D01*
X155377160Y-104964838D01*
X155480010Y-104810913D01*
X155610913Y-104680010D01*
X155764838Y-104577160D01*
X155935871Y-104506316D01*
X155996393Y-104494277D01*
X156117436Y-104470200D01*
X156302564Y-104470200D01*
X156423607Y-104494277D01*
X156423607Y-104494277D01*
G37*
G36*
X131023607Y-101954277D02*
G01*
X131084129Y-101966316D01*
X131255162Y-102037160D01*
X131409087Y-102140010D01*
X131539990Y-102270913D01*
X131642840Y-102424838D01*
X131713684Y-102595871D01*
X131749800Y-102777438D01*
X131749800Y-102962562D01*
X131713684Y-103144129D01*
X131642840Y-103315162D01*
X131539990Y-103469087D01*
X131409087Y-103599990D01*
X131255162Y-103702840D01*
X131084129Y-103773684D01*
X131023607Y-103785723D01*
X130902564Y-103809800D01*
X130717436Y-103809800D01*
X130596393Y-103785723D01*
X130535871Y-103773684D01*
X130364838Y-103702840D01*
X130210913Y-103599990D01*
X130080010Y-103469087D01*
X129977160Y-103315162D01*
X129906316Y-103144129D01*
X129870200Y-102962562D01*
X129870200Y-102777438D01*
X129906316Y-102595871D01*
X129977160Y-102424838D01*
X130080010Y-102270913D01*
X130210913Y-102140010D01*
X130364838Y-102037160D01*
X130535871Y-101966316D01*
X130596393Y-101954277D01*
X130717436Y-101930200D01*
X130902564Y-101930200D01*
X131023607Y-101954277D01*
X131023607Y-101954277D01*
G37*
G36*
X156423607Y-101954277D02*
G01*
X156484129Y-101966316D01*
X156655162Y-102037160D01*
X156809087Y-102140010D01*
X156939990Y-102270913D01*
X157042840Y-102424838D01*
X157113684Y-102595871D01*
X157149800Y-102777438D01*
X157149800Y-102962562D01*
X157113684Y-103144129D01*
X157042840Y-103315162D01*
X156939990Y-103469087D01*
X156809087Y-103599990D01*
X156655162Y-103702840D01*
X156484129Y-103773684D01*
X156423607Y-103785723D01*
X156302564Y-103809800D01*
X156117436Y-103809800D01*
X155996393Y-103785723D01*
X155935871Y-103773684D01*
X155764838Y-103702840D01*
X155610913Y-103599990D01*
X155480010Y-103469087D01*
X155377160Y-103315162D01*
X155306316Y-103144129D01*
X155270200Y-102962562D01*
X155270200Y-102777438D01*
X155306316Y-102595871D01*
X155377160Y-102424838D01*
X155480010Y-102270913D01*
X155610913Y-102140010D01*
X155764838Y-102037160D01*
X155935871Y-101966316D01*
X155996393Y-101954277D01*
X156117436Y-101930200D01*
X156302564Y-101930200D01*
X156423607Y-101954277D01*
X156423607Y-101954277D01*
G37*
G36*
X131023607Y-99414277D02*
G01*
X131084129Y-99426316D01*
X131255162Y-99497160D01*
X131409087Y-99600010D01*
X131539990Y-99730913D01*
X131642840Y-99884838D01*
X131713684Y-100055871D01*
X131749800Y-100237438D01*
X131749800Y-100422562D01*
X131713684Y-100604129D01*
X131642840Y-100775162D01*
X131539990Y-100929087D01*
X131409087Y-101059990D01*
X131255162Y-101162840D01*
X131084129Y-101233684D01*
X131023607Y-101245723D01*
X130902564Y-101269800D01*
X130717436Y-101269800D01*
X130596393Y-101245723D01*
X130535871Y-101233684D01*
X130364838Y-101162840D01*
X130210913Y-101059990D01*
X130080010Y-100929087D01*
X129977160Y-100775162D01*
X129906316Y-100604129D01*
X129870200Y-100422562D01*
X129870200Y-100237438D01*
X129906316Y-100055871D01*
X129977160Y-99884838D01*
X130080010Y-99730913D01*
X130210913Y-99600010D01*
X130364838Y-99497160D01*
X130535871Y-99426316D01*
X130596393Y-99414277D01*
X130717436Y-99390200D01*
X130902564Y-99390200D01*
X131023607Y-99414277D01*
X131023607Y-99414277D01*
G37*
G36*
X156423607Y-99414277D02*
G01*
X156484129Y-99426316D01*
X156655162Y-99497160D01*
X156809087Y-99600010D01*
X156939990Y-99730913D01*
X157042840Y-99884838D01*
X157113684Y-100055871D01*
X157149800Y-100237438D01*
X157149800Y-100422562D01*
X157113684Y-100604129D01*
X157042840Y-100775162D01*
X156939990Y-100929087D01*
X156809087Y-101059990D01*
X156655162Y-101162840D01*
X156484129Y-101233684D01*
X156423607Y-101245723D01*
X156302564Y-101269800D01*
X156117436Y-101269800D01*
X155996393Y-101245723D01*
X155935871Y-101233684D01*
X155764838Y-101162840D01*
X155610913Y-101059990D01*
X155480010Y-100929087D01*
X155377160Y-100775162D01*
X155306316Y-100604129D01*
X155270200Y-100422562D01*
X155270200Y-100237438D01*
X155306316Y-100055871D01*
X155377160Y-99884838D01*
X155480010Y-99730913D01*
X155610913Y-99600010D01*
X155764838Y-99497160D01*
X155935871Y-99426316D01*
X155996393Y-99414277D01*
X156117436Y-99390200D01*
X156302564Y-99390200D01*
X156423607Y-99414277D01*
X156423607Y-99414277D01*
G37*
G36*
X156423607Y-96874277D02*
G01*
X156484129Y-96886316D01*
X156655162Y-96957160D01*
X156809087Y-97060010D01*
X156939990Y-97190913D01*
X157042840Y-97344838D01*
X157113684Y-97515871D01*
X157149800Y-97697438D01*
X157149800Y-97882562D01*
X157113684Y-98064129D01*
X157042840Y-98235162D01*
X156939990Y-98389087D01*
X156809087Y-98519990D01*
X156655162Y-98622840D01*
X156484129Y-98693684D01*
X156423607Y-98705723D01*
X156302564Y-98729800D01*
X156117436Y-98729800D01*
X155996393Y-98705723D01*
X155935871Y-98693684D01*
X155764838Y-98622840D01*
X155610913Y-98519990D01*
X155480010Y-98389087D01*
X155377160Y-98235162D01*
X155306316Y-98064129D01*
X155270200Y-97882562D01*
X155270200Y-97697438D01*
X155306316Y-97515871D01*
X155377160Y-97344838D01*
X155480010Y-97190913D01*
X155610913Y-97060010D01*
X155764838Y-96957160D01*
X155935871Y-96886316D01*
X155996393Y-96874277D01*
X156117436Y-96850200D01*
X156302564Y-96850200D01*
X156423607Y-96874277D01*
X156423607Y-96874277D01*
G37*
G36*
X131023607Y-96874277D02*
G01*
X131084129Y-96886316D01*
X131255162Y-96957160D01*
X131409087Y-97060010D01*
X131539990Y-97190913D01*
X131642840Y-97344838D01*
X131713684Y-97515871D01*
X131749800Y-97697438D01*
X131749800Y-97882562D01*
X131713684Y-98064129D01*
X131642840Y-98235162D01*
X131539990Y-98389087D01*
X131409087Y-98519990D01*
X131255162Y-98622840D01*
X131084129Y-98693684D01*
X131023607Y-98705723D01*
X130902564Y-98729800D01*
X130717436Y-98729800D01*
X130596393Y-98705723D01*
X130535871Y-98693684D01*
X130364838Y-98622840D01*
X130210913Y-98519990D01*
X130080010Y-98389087D01*
X129977160Y-98235162D01*
X129906316Y-98064129D01*
X129870200Y-97882562D01*
X129870200Y-97697438D01*
X129906316Y-97515871D01*
X129977160Y-97344838D01*
X130080010Y-97190913D01*
X130210913Y-97060010D01*
X130364838Y-96957160D01*
X130535871Y-96886316D01*
X130596393Y-96874277D01*
X130717436Y-96850200D01*
X130902564Y-96850200D01*
X131023607Y-96874277D01*
X131023607Y-96874277D01*
G37*
G36*
X131023607Y-94334277D02*
G01*
X131084129Y-94346316D01*
X131255162Y-94417160D01*
X131409087Y-94520010D01*
X131539990Y-94650913D01*
X131642840Y-94804838D01*
X131713684Y-94975871D01*
X131749800Y-95157438D01*
X131749800Y-95342562D01*
X131713684Y-95524129D01*
X131642840Y-95695162D01*
X131539990Y-95849087D01*
X131409087Y-95979990D01*
X131255162Y-96082840D01*
X131084129Y-96153684D01*
X131023607Y-96165723D01*
X130902564Y-96189800D01*
X130717436Y-96189800D01*
X130596393Y-96165723D01*
X130535871Y-96153684D01*
X130364838Y-96082840D01*
X130210913Y-95979990D01*
X130080010Y-95849087D01*
X129977160Y-95695162D01*
X129906316Y-95524129D01*
X129870200Y-95342562D01*
X129870200Y-95157438D01*
X129906316Y-94975871D01*
X129977160Y-94804838D01*
X130080010Y-94650913D01*
X130210913Y-94520010D01*
X130364838Y-94417160D01*
X130535871Y-94346316D01*
X130596393Y-94334277D01*
X130717436Y-94310200D01*
X130902564Y-94310200D01*
X131023607Y-94334277D01*
X131023607Y-94334277D01*
G37*
G36*
X156423607Y-94334277D02*
G01*
X156484129Y-94346316D01*
X156655162Y-94417160D01*
X156809087Y-94520010D01*
X156939990Y-94650913D01*
X157042840Y-94804838D01*
X157113684Y-94975871D01*
X157149800Y-95157438D01*
X157149800Y-95342562D01*
X157113684Y-95524129D01*
X157042840Y-95695162D01*
X156939990Y-95849087D01*
X156809087Y-95979990D01*
X156655162Y-96082840D01*
X156484129Y-96153684D01*
X156423607Y-96165723D01*
X156302564Y-96189800D01*
X156117436Y-96189800D01*
X155996393Y-96165723D01*
X155935871Y-96153684D01*
X155764838Y-96082840D01*
X155610913Y-95979990D01*
X155480010Y-95849087D01*
X155377160Y-95695162D01*
X155306316Y-95524129D01*
X155270200Y-95342562D01*
X155270200Y-95157438D01*
X155306316Y-94975871D01*
X155377160Y-94804838D01*
X155480010Y-94650913D01*
X155610913Y-94520010D01*
X155764838Y-94417160D01*
X155935871Y-94346316D01*
X155996393Y-94334277D01*
X156117436Y-94310200D01*
X156302564Y-94310200D01*
X156423607Y-94334277D01*
X156423607Y-94334277D01*
G37*
G36*
X131023607Y-91794277D02*
G01*
X131084129Y-91806316D01*
X131255162Y-91877160D01*
X131409087Y-91980010D01*
X131539990Y-92110913D01*
X131642840Y-92264838D01*
X131713684Y-92435871D01*
X131749800Y-92617438D01*
X131749800Y-92802562D01*
X131713684Y-92984129D01*
X131642840Y-93155162D01*
X131539990Y-93309087D01*
X131409087Y-93439990D01*
X131255162Y-93542840D01*
X131084129Y-93613684D01*
X131023607Y-93625723D01*
X130902564Y-93649800D01*
X130717436Y-93649800D01*
X130596393Y-93625723D01*
X130535871Y-93613684D01*
X130364838Y-93542840D01*
X130210913Y-93439990D01*
X130080010Y-93309087D01*
X129977160Y-93155162D01*
X129906316Y-92984129D01*
X129870200Y-92802562D01*
X129870200Y-92617438D01*
X129906316Y-92435871D01*
X129977160Y-92264838D01*
X130080010Y-92110913D01*
X130210913Y-91980010D01*
X130364838Y-91877160D01*
X130535871Y-91806316D01*
X130596393Y-91794277D01*
X130717436Y-91770200D01*
X130902564Y-91770200D01*
X131023607Y-91794277D01*
X131023607Y-91794277D01*
G37*
G36*
X156423607Y-91794277D02*
G01*
X156484129Y-91806316D01*
X156655162Y-91877160D01*
X156809087Y-91980010D01*
X156939990Y-92110913D01*
X157042840Y-92264838D01*
X157113684Y-92435871D01*
X157149800Y-92617438D01*
X157149800Y-92802562D01*
X157113684Y-92984129D01*
X157042840Y-93155162D01*
X156939990Y-93309087D01*
X156809087Y-93439990D01*
X156655162Y-93542840D01*
X156484129Y-93613684D01*
X156423607Y-93625723D01*
X156302564Y-93649800D01*
X156117436Y-93649800D01*
X155996393Y-93625723D01*
X155935871Y-93613684D01*
X155764838Y-93542840D01*
X155610913Y-93439990D01*
X155480010Y-93309087D01*
X155377160Y-93155162D01*
X155306316Y-92984129D01*
X155270200Y-92802562D01*
X155270200Y-92617438D01*
X155306316Y-92435871D01*
X155377160Y-92264838D01*
X155480010Y-92110913D01*
X155610913Y-91980010D01*
X155764838Y-91877160D01*
X155935871Y-91806316D01*
X155996393Y-91794277D01*
X156117436Y-91770200D01*
X156302564Y-91770200D01*
X156423607Y-91794277D01*
X156423607Y-91794277D01*
G37*
G36*
X156423607Y-89254277D02*
G01*
X156484129Y-89266316D01*
X156655162Y-89337160D01*
X156809087Y-89440010D01*
X156939990Y-89570913D01*
X157042840Y-89724838D01*
X157113684Y-89895871D01*
X157149800Y-90077438D01*
X157149800Y-90262562D01*
X157113684Y-90444129D01*
X157042840Y-90615162D01*
X156939990Y-90769087D01*
X156809087Y-90899990D01*
X156655162Y-91002840D01*
X156484129Y-91073684D01*
X156423607Y-91085723D01*
X156302564Y-91109800D01*
X156117436Y-91109800D01*
X155996393Y-91085723D01*
X155935871Y-91073684D01*
X155764838Y-91002840D01*
X155610913Y-90899990D01*
X155480010Y-90769087D01*
X155377160Y-90615162D01*
X155306316Y-90444129D01*
X155270200Y-90262562D01*
X155270200Y-90077438D01*
X155306316Y-89895871D01*
X155377160Y-89724838D01*
X155480010Y-89570913D01*
X155610913Y-89440010D01*
X155764838Y-89337160D01*
X155935871Y-89266316D01*
X155996393Y-89254277D01*
X156117436Y-89230200D01*
X156302564Y-89230200D01*
X156423607Y-89254277D01*
X156423607Y-89254277D01*
G37*
G36*
X131023607Y-89254277D02*
G01*
X131084129Y-89266316D01*
X131255162Y-89337160D01*
X131409087Y-89440010D01*
X131539990Y-89570913D01*
X131642840Y-89724838D01*
X131713684Y-89895871D01*
X131749800Y-90077438D01*
X131749800Y-90262562D01*
X131713684Y-90444129D01*
X131642840Y-90615162D01*
X131539990Y-90769087D01*
X131409087Y-90899990D01*
X131255162Y-91002840D01*
X131084129Y-91073684D01*
X131023607Y-91085723D01*
X130902564Y-91109800D01*
X130717436Y-91109800D01*
X130596393Y-91085723D01*
X130535871Y-91073684D01*
X130364838Y-91002840D01*
X130210913Y-90899990D01*
X130080010Y-90769087D01*
X129977160Y-90615162D01*
X129906316Y-90444129D01*
X129870200Y-90262562D01*
X129870200Y-90077438D01*
X129906316Y-89895871D01*
X129977160Y-89724838D01*
X130080010Y-89570913D01*
X130210913Y-89440010D01*
X130364838Y-89337160D01*
X130535871Y-89266316D01*
X130596393Y-89254277D01*
X130717436Y-89230200D01*
X130902564Y-89230200D01*
X131023607Y-89254277D01*
X131023607Y-89254277D01*
G37*
G36*
X156423607Y-86714277D02*
G01*
X156484129Y-86726316D01*
X156655162Y-86797160D01*
X156809087Y-86900010D01*
X156939990Y-87030913D01*
X157042840Y-87184838D01*
X157113684Y-87355871D01*
X157149800Y-87537438D01*
X157149800Y-87722562D01*
X157113684Y-87904129D01*
X157042840Y-88075162D01*
X156939990Y-88229087D01*
X156809087Y-88359990D01*
X156655162Y-88462840D01*
X156484129Y-88533684D01*
X156423607Y-88545723D01*
X156302564Y-88569800D01*
X156117436Y-88569800D01*
X155996393Y-88545723D01*
X155935871Y-88533684D01*
X155764838Y-88462840D01*
X155610913Y-88359990D01*
X155480010Y-88229087D01*
X155377160Y-88075162D01*
X155306316Y-87904129D01*
X155270200Y-87722562D01*
X155270200Y-87537438D01*
X155306316Y-87355871D01*
X155377160Y-87184838D01*
X155480010Y-87030913D01*
X155610913Y-86900010D01*
X155764838Y-86797160D01*
X155935871Y-86726316D01*
X155996393Y-86714277D01*
X156117436Y-86690200D01*
X156302564Y-86690200D01*
X156423607Y-86714277D01*
X156423607Y-86714277D01*
G37*
G36*
X131023607Y-86714277D02*
G01*
X131084129Y-86726316D01*
X131255162Y-86797160D01*
X131409087Y-86900010D01*
X131539990Y-87030913D01*
X131642840Y-87184838D01*
X131713684Y-87355871D01*
X131749800Y-87537438D01*
X131749800Y-87722562D01*
X131713684Y-87904129D01*
X131642840Y-88075162D01*
X131539990Y-88229087D01*
X131409087Y-88359990D01*
X131255162Y-88462840D01*
X131084129Y-88533684D01*
X131023607Y-88545723D01*
X130902564Y-88569800D01*
X130717436Y-88569800D01*
X130596393Y-88545723D01*
X130535871Y-88533684D01*
X130364838Y-88462840D01*
X130210913Y-88359990D01*
X130080010Y-88229087D01*
X129977160Y-88075162D01*
X129906316Y-87904129D01*
X129870200Y-87722562D01*
X129870200Y-87537438D01*
X129906316Y-87355871D01*
X129977160Y-87184838D01*
X130080010Y-87030913D01*
X130210913Y-86900010D01*
X130364838Y-86797160D01*
X130535871Y-86726316D01*
X130596393Y-86714277D01*
X130717436Y-86690200D01*
X130902564Y-86690200D01*
X131023607Y-86714277D01*
X131023607Y-86714277D01*
G37*
G36*
X164874908Y-85818802D02*
G01*
X164947848Y-85849015D01*
X164947850Y-85849016D01*
X164980895Y-85871096D01*
X165013494Y-85892878D01*
X165069322Y-85948706D01*
X165113185Y-86014352D01*
X165143398Y-86087292D01*
X165158800Y-86164723D01*
X165158800Y-86243677D01*
X165143398Y-86321108D01*
X165113185Y-86394048D01*
X165113184Y-86394050D01*
X165069321Y-86459695D01*
X165013495Y-86515521D01*
X164947850Y-86559384D01*
X164947849Y-86559385D01*
X164947848Y-86559385D01*
X164874908Y-86589598D01*
X164797477Y-86605000D01*
X164718523Y-86605000D01*
X164641092Y-86589598D01*
X164568152Y-86559385D01*
X164568151Y-86559385D01*
X164568150Y-86559384D01*
X164502505Y-86515521D01*
X164446679Y-86459695D01*
X164402816Y-86394050D01*
X164402815Y-86394048D01*
X164372602Y-86321108D01*
X164357200Y-86243677D01*
X164357200Y-86164723D01*
X164372602Y-86087292D01*
X164402815Y-86014352D01*
X164446678Y-85948706D01*
X164502506Y-85892878D01*
X164535105Y-85871096D01*
X164568150Y-85849016D01*
X164568152Y-85849015D01*
X164641092Y-85818802D01*
X164718523Y-85803400D01*
X164797477Y-85803400D01*
X164874908Y-85818802D01*
X164874908Y-85818802D01*
G37*
G36*
X163074908Y-85818802D02*
G01*
X163147848Y-85849015D01*
X163147850Y-85849016D01*
X163180895Y-85871096D01*
X163213494Y-85892878D01*
X163269322Y-85948706D01*
X163313185Y-86014352D01*
X163343398Y-86087292D01*
X163358800Y-86164723D01*
X163358800Y-86243677D01*
X163343398Y-86321108D01*
X163313185Y-86394048D01*
X163313184Y-86394050D01*
X163269321Y-86459695D01*
X163213495Y-86515521D01*
X163147850Y-86559384D01*
X163147849Y-86559385D01*
X163147848Y-86559385D01*
X163074908Y-86589598D01*
X162997477Y-86605000D01*
X162918523Y-86605000D01*
X162841092Y-86589598D01*
X162768152Y-86559385D01*
X162768151Y-86559385D01*
X162768150Y-86559384D01*
X162702505Y-86515521D01*
X162646679Y-86459695D01*
X162602816Y-86394050D01*
X162602815Y-86394048D01*
X162572602Y-86321108D01*
X162557200Y-86243677D01*
X162557200Y-86164723D01*
X162572602Y-86087292D01*
X162602815Y-86014352D01*
X162646678Y-85948706D01*
X162702506Y-85892878D01*
X162735105Y-85871096D01*
X162768150Y-85849016D01*
X162768152Y-85849015D01*
X162841092Y-85818802D01*
X162918523Y-85803400D01*
X162997477Y-85803400D01*
X163074908Y-85818802D01*
X163074908Y-85818802D01*
G37*
G36*
X156423607Y-84174277D02*
G01*
X156484129Y-84186316D01*
X156655162Y-84257160D01*
X156809087Y-84360010D01*
X156939990Y-84490913D01*
X157042840Y-84644838D01*
X157113684Y-84815871D01*
X157149800Y-84997438D01*
X157149800Y-85182562D01*
X157113684Y-85364129D01*
X157042840Y-85535162D01*
X156939990Y-85689087D01*
X156809087Y-85819990D01*
X156655162Y-85922840D01*
X156484129Y-85993684D01*
X156423607Y-86005723D01*
X156302564Y-86029800D01*
X156117436Y-86029800D01*
X155996393Y-86005723D01*
X155935871Y-85993684D01*
X155764838Y-85922840D01*
X155610913Y-85819990D01*
X155480010Y-85689087D01*
X155377160Y-85535162D01*
X155306316Y-85364129D01*
X155270200Y-85182562D01*
X155270200Y-84997438D01*
X155306316Y-84815871D01*
X155377160Y-84644838D01*
X155480010Y-84490913D01*
X155610913Y-84360010D01*
X155764838Y-84257160D01*
X155935871Y-84186316D01*
X155996393Y-84174277D01*
X156117436Y-84150200D01*
X156302564Y-84150200D01*
X156423607Y-84174277D01*
X156423607Y-84174277D01*
G37*
G36*
X131023607Y-84174277D02*
G01*
X131084129Y-84186316D01*
X131255162Y-84257160D01*
X131409087Y-84360010D01*
X131539990Y-84490913D01*
X131642840Y-84644838D01*
X131713684Y-84815871D01*
X131749800Y-84997438D01*
X131749800Y-85182562D01*
X131713684Y-85364129D01*
X131642840Y-85535162D01*
X131539990Y-85689087D01*
X131409087Y-85819990D01*
X131255162Y-85922840D01*
X131084129Y-85993684D01*
X131023607Y-86005723D01*
X130902564Y-86029800D01*
X130717436Y-86029800D01*
X130596393Y-86005723D01*
X130535871Y-85993684D01*
X130364838Y-85922840D01*
X130210913Y-85819990D01*
X130080010Y-85689087D01*
X129977160Y-85535162D01*
X129906316Y-85364129D01*
X129870200Y-85182562D01*
X129870200Y-84997438D01*
X129906316Y-84815871D01*
X129977160Y-84644838D01*
X130080010Y-84490913D01*
X130210913Y-84360010D01*
X130364838Y-84257160D01*
X130535871Y-84186316D01*
X130596393Y-84174277D01*
X130717436Y-84150200D01*
X130902564Y-84150200D01*
X131023607Y-84174277D01*
X131023607Y-84174277D01*
G37*
G36*
X144028935Y-81833464D02*
G01*
X144183624Y-81897539D01*
X144183626Y-81897540D01*
X144322844Y-81990562D01*
X144441238Y-82108956D01*
X144534260Y-82248174D01*
X144534261Y-82248176D01*
X144598336Y-82402865D01*
X144631000Y-82567081D01*
X144631000Y-82734519D01*
X144598336Y-82898735D01*
X144558395Y-82995160D01*
X144534260Y-83053426D01*
X144441238Y-83192644D01*
X144322844Y-83311038D01*
X144183626Y-83404060D01*
X144183625Y-83404061D01*
X144183624Y-83404061D01*
X144028935Y-83468136D01*
X143864719Y-83500800D01*
X143697281Y-83500800D01*
X143533065Y-83468136D01*
X143378376Y-83404061D01*
X143378375Y-83404061D01*
X143378374Y-83404060D01*
X143239156Y-83311038D01*
X143120762Y-83192644D01*
X143027740Y-83053426D01*
X143003605Y-82995160D01*
X142963664Y-82898735D01*
X142931000Y-82734519D01*
X142931000Y-82567081D01*
X142963664Y-82402865D01*
X143027739Y-82248176D01*
X143027740Y-82248174D01*
X143120762Y-82108956D01*
X143239156Y-81990562D01*
X143378374Y-81897540D01*
X143378376Y-81897539D01*
X143533065Y-81833464D01*
X143697281Y-81800800D01*
X143864719Y-81800800D01*
X144028935Y-81833464D01*
X144028935Y-81833464D01*
G37*
G36*
X146391135Y-81833464D02*
G01*
X146545824Y-81897539D01*
X146545826Y-81897540D01*
X146685044Y-81990562D01*
X146803438Y-82108956D01*
X146896460Y-82248174D01*
X146896461Y-82248176D01*
X146960536Y-82402865D01*
X146993200Y-82567081D01*
X146993200Y-82734519D01*
X146960536Y-82898735D01*
X146920595Y-82995160D01*
X146896460Y-83053426D01*
X146803438Y-83192644D01*
X146685044Y-83311038D01*
X146545826Y-83404060D01*
X146545825Y-83404061D01*
X146545824Y-83404061D01*
X146391135Y-83468136D01*
X146226919Y-83500800D01*
X146059481Y-83500800D01*
X145895265Y-83468136D01*
X145740576Y-83404061D01*
X145740575Y-83404061D01*
X145740574Y-83404060D01*
X145601356Y-83311038D01*
X145482962Y-83192644D01*
X145389940Y-83053426D01*
X145365805Y-82995160D01*
X145325864Y-82898735D01*
X145293200Y-82734519D01*
X145293200Y-82567081D01*
X145325864Y-82402865D01*
X145389939Y-82248176D01*
X145389940Y-82248174D01*
X145482962Y-82108956D01*
X145601356Y-81990562D01*
X145740574Y-81897540D01*
X145740576Y-81897539D01*
X145895265Y-81833464D01*
X146059481Y-81800800D01*
X146226919Y-81800800D01*
X146391135Y-81833464D01*
X146391135Y-81833464D01*
G37*
G36*
X141717535Y-81833464D02*
G01*
X141872224Y-81897539D01*
X141872226Y-81897540D01*
X142011444Y-81990562D01*
X142129838Y-82108956D01*
X142222860Y-82248174D01*
X142222861Y-82248176D01*
X142286936Y-82402865D01*
X142319600Y-82567081D01*
X142319600Y-82734519D01*
X142286936Y-82898735D01*
X142246995Y-82995160D01*
X142222860Y-83053426D01*
X142129838Y-83192644D01*
X142011444Y-83311038D01*
X141872226Y-83404060D01*
X141872225Y-83404061D01*
X141872224Y-83404061D01*
X141717535Y-83468136D01*
X141553319Y-83500800D01*
X141385881Y-83500800D01*
X141221665Y-83468136D01*
X141066976Y-83404061D01*
X141066975Y-83404061D01*
X141066974Y-83404060D01*
X140927756Y-83311038D01*
X140809362Y-83192644D01*
X140716340Y-83053426D01*
X140692205Y-82995160D01*
X140652264Y-82898735D01*
X140619600Y-82734519D01*
X140619600Y-82567081D01*
X140652264Y-82402865D01*
X140716339Y-82248176D01*
X140716340Y-82248174D01*
X140809362Y-82108956D01*
X140927756Y-81990562D01*
X141066974Y-81897540D01*
X141066976Y-81897539D01*
X141221665Y-81833464D01*
X141385881Y-81800800D01*
X141553319Y-81800800D01*
X141717535Y-81833464D01*
X141717535Y-81833464D01*
G37*
G36*
X131023607Y-81634277D02*
G01*
X131084129Y-81646316D01*
X131255162Y-81717160D01*
X131409087Y-81820010D01*
X131539990Y-81950913D01*
X131642840Y-82104838D01*
X131713684Y-82275871D01*
X131749800Y-82457438D01*
X131749800Y-82642562D01*
X131713684Y-82824129D01*
X131642840Y-82995162D01*
X131539990Y-83149087D01*
X131409087Y-83279990D01*
X131255162Y-83382840D01*
X131084129Y-83453684D01*
X131023607Y-83465723D01*
X130902564Y-83489800D01*
X130717436Y-83489800D01*
X130596393Y-83465723D01*
X130535871Y-83453684D01*
X130364838Y-83382840D01*
X130210913Y-83279990D01*
X130080010Y-83149087D01*
X129977160Y-82995162D01*
X129906316Y-82824129D01*
X129870200Y-82642562D01*
X129870200Y-82457438D01*
X129906316Y-82275871D01*
X129977160Y-82104838D01*
X130080010Y-81950913D01*
X130210913Y-81820010D01*
X130364838Y-81717160D01*
X130535871Y-81646316D01*
X130596393Y-81634277D01*
X130717436Y-81610200D01*
X130902564Y-81610200D01*
X131023607Y-81634277D01*
X131023607Y-81634277D01*
G37*
G36*
X156423607Y-81634277D02*
G01*
X156484129Y-81646316D01*
X156655162Y-81717160D01*
X156809087Y-81820010D01*
X156939990Y-81950913D01*
X157042840Y-82104838D01*
X157113684Y-82275871D01*
X157149800Y-82457438D01*
X157149800Y-82642562D01*
X157113684Y-82824129D01*
X157042840Y-82995162D01*
X156939990Y-83149087D01*
X156809087Y-83279990D01*
X156655162Y-83382840D01*
X156484129Y-83453684D01*
X156423607Y-83465723D01*
X156302564Y-83489800D01*
X156117436Y-83489800D01*
X155996393Y-83465723D01*
X155935871Y-83453684D01*
X155764838Y-83382840D01*
X155610913Y-83279990D01*
X155480010Y-83149087D01*
X155377160Y-82995162D01*
X155306316Y-82824129D01*
X155270200Y-82642562D01*
X155270200Y-82457438D01*
X155306316Y-82275871D01*
X155377160Y-82104838D01*
X155480010Y-81950913D01*
X155610913Y-81820010D01*
X155764838Y-81717160D01*
X155935871Y-81646316D01*
X155996393Y-81634277D01*
X156117436Y-81610200D01*
X156302564Y-81610200D01*
X156423607Y-81634277D01*
X156423607Y-81634277D01*
G37*
G36*
X144131026Y-79160115D02*
G01*
X144349411Y-79250573D01*
X144349413Y-79250574D01*
X144545955Y-79381899D01*
X144713101Y-79549045D01*
X144837935Y-79735872D01*
X144844427Y-79745589D01*
X144934885Y-79963974D01*
X144981000Y-80195809D01*
X144981000Y-80432191D01*
X144934885Y-80664026D01*
X144860818Y-80842840D01*
X144844426Y-80882413D01*
X144713101Y-81078955D01*
X144545955Y-81246101D01*
X144349413Y-81377426D01*
X144349412Y-81377427D01*
X144349411Y-81377427D01*
X144131026Y-81467885D01*
X143899191Y-81514000D01*
X143662809Y-81514000D01*
X143430974Y-81467885D01*
X143212589Y-81377427D01*
X143212588Y-81377427D01*
X143212587Y-81377426D01*
X143016045Y-81246101D01*
X142848899Y-81078955D01*
X142717574Y-80882413D01*
X142701182Y-80842840D01*
X142627115Y-80664026D01*
X142581000Y-80432191D01*
X142581000Y-80195809D01*
X142627115Y-79963974D01*
X142717573Y-79745589D01*
X142724066Y-79735872D01*
X142848899Y-79549045D01*
X143016045Y-79381899D01*
X143212587Y-79250574D01*
X143212589Y-79250573D01*
X143430974Y-79160115D01*
X143662809Y-79114000D01*
X143899191Y-79114000D01*
X144131026Y-79160115D01*
X144131026Y-79160115D01*
G37*
G36*
X141717535Y-79369664D02*
G01*
X141872224Y-79433739D01*
X141872226Y-79433740D01*
X142011444Y-79526762D01*
X142129838Y-79645156D01*
X142222860Y-79784374D01*
X142222861Y-79784376D01*
X142286936Y-79939065D01*
X142319600Y-80103281D01*
X142319600Y-80270719D01*
X142286936Y-80434935D01*
X142222861Y-80589624D01*
X142222860Y-80589626D01*
X142129838Y-80728844D01*
X142011444Y-80847238D01*
X141872226Y-80940260D01*
X141872225Y-80940261D01*
X141872224Y-80940261D01*
X141717535Y-81004336D01*
X141553319Y-81037000D01*
X141385881Y-81037000D01*
X141221665Y-81004336D01*
X141066976Y-80940261D01*
X141066975Y-80940261D01*
X141066974Y-80940260D01*
X140927756Y-80847238D01*
X140809362Y-80728844D01*
X140716340Y-80589626D01*
X140716339Y-80589624D01*
X140652264Y-80434935D01*
X140619600Y-80270719D01*
X140619600Y-80103281D01*
X140652264Y-79939065D01*
X140716339Y-79784376D01*
X140716340Y-79784374D01*
X140809362Y-79645156D01*
X140927756Y-79526762D01*
X141066974Y-79433740D01*
X141066976Y-79433739D01*
X141221665Y-79369664D01*
X141385881Y-79337000D01*
X141553319Y-79337000D01*
X141717535Y-79369664D01*
X141717535Y-79369664D01*
G37*
G36*
X146391135Y-79369664D02*
G01*
X146545824Y-79433739D01*
X146545826Y-79433740D01*
X146685044Y-79526762D01*
X146803438Y-79645156D01*
X146896460Y-79784374D01*
X146896461Y-79784376D01*
X146960536Y-79939065D01*
X146993200Y-80103281D01*
X146993200Y-80270719D01*
X146960536Y-80434935D01*
X146896461Y-80589624D01*
X146896460Y-80589626D01*
X146803438Y-80728844D01*
X146685044Y-80847238D01*
X146545826Y-80940260D01*
X146545825Y-80940261D01*
X146545824Y-80940261D01*
X146391135Y-81004336D01*
X146226919Y-81037000D01*
X146059481Y-81037000D01*
X145895265Y-81004336D01*
X145740576Y-80940261D01*
X145740575Y-80940261D01*
X145740574Y-80940260D01*
X145601356Y-80847238D01*
X145482962Y-80728844D01*
X145389940Y-80589626D01*
X145389939Y-80589624D01*
X145325864Y-80434935D01*
X145293200Y-80270719D01*
X145293200Y-80103281D01*
X145325864Y-79939065D01*
X145389939Y-79784376D01*
X145389940Y-79784374D01*
X145482962Y-79645156D01*
X145601356Y-79526762D01*
X145740574Y-79433740D01*
X145740576Y-79433739D01*
X145895265Y-79369664D01*
X146059481Y-79337000D01*
X146226919Y-79337000D01*
X146391135Y-79369664D01*
X146391135Y-79369664D01*
G37*
G36*
X131023607Y-79094277D02*
G01*
X131084129Y-79106316D01*
X131255162Y-79177160D01*
X131409087Y-79280010D01*
X131539990Y-79410913D01*
X131642840Y-79564838D01*
X131713684Y-79735871D01*
X131749800Y-79917438D01*
X131749800Y-80102562D01*
X131713684Y-80284129D01*
X131642840Y-80455162D01*
X131539990Y-80609087D01*
X131409087Y-80739990D01*
X131255162Y-80842840D01*
X131255161Y-80842841D01*
X131255160Y-80842841D01*
X131205065Y-80863591D01*
X131084129Y-80913684D01*
X131023607Y-80925723D01*
X130902564Y-80949800D01*
X130717436Y-80949800D01*
X130596393Y-80925723D01*
X130535871Y-80913684D01*
X130414935Y-80863591D01*
X130364840Y-80842841D01*
X130364839Y-80842841D01*
X130364838Y-80842840D01*
X130210913Y-80739990D01*
X130080010Y-80609087D01*
X129977160Y-80455162D01*
X129906316Y-80284129D01*
X129870200Y-80102562D01*
X129870200Y-79917438D01*
X129906316Y-79735871D01*
X129977160Y-79564838D01*
X130080010Y-79410913D01*
X130210913Y-79280010D01*
X130364838Y-79177160D01*
X130535871Y-79106316D01*
X130596393Y-79094277D01*
X130717436Y-79070200D01*
X130902564Y-79070200D01*
X131023607Y-79094277D01*
X131023607Y-79094277D01*
G37*
G36*
X156423607Y-79094277D02*
G01*
X156484129Y-79106316D01*
X156655162Y-79177160D01*
X156809087Y-79280010D01*
X156939990Y-79410913D01*
X157042840Y-79564838D01*
X157113684Y-79735871D01*
X157149800Y-79917438D01*
X157149800Y-80102562D01*
X157113684Y-80284129D01*
X157042840Y-80455162D01*
X156939990Y-80609087D01*
X156809087Y-80739990D01*
X156655162Y-80842840D01*
X156655161Y-80842841D01*
X156655160Y-80842841D01*
X156605065Y-80863591D01*
X156484129Y-80913684D01*
X156423607Y-80925723D01*
X156302564Y-80949800D01*
X156117436Y-80949800D01*
X155996393Y-80925723D01*
X155935871Y-80913684D01*
X155814935Y-80863591D01*
X155764840Y-80842841D01*
X155764839Y-80842841D01*
X155764838Y-80842840D01*
X155610913Y-80739990D01*
X155480010Y-80609087D01*
X155377160Y-80455162D01*
X155306316Y-80284129D01*
X155270200Y-80102562D01*
X155270200Y-79917438D01*
X155306316Y-79735871D01*
X155377160Y-79564838D01*
X155480010Y-79410913D01*
X155610913Y-79280010D01*
X155764838Y-79177160D01*
X155935871Y-79106316D01*
X155996393Y-79094277D01*
X156117436Y-79070200D01*
X156302564Y-79070200D01*
X156423607Y-79094277D01*
X156423607Y-79094277D01*
G37*
G36*
X146391135Y-77134464D02*
G01*
X146539385Y-77195872D01*
X146545826Y-77198540D01*
X146685044Y-77291562D01*
X146803438Y-77409956D01*
X146896460Y-77549174D01*
X146896461Y-77549176D01*
X146960536Y-77703865D01*
X146993200Y-77868081D01*
X146993200Y-78035519D01*
X146960536Y-78199735D01*
X146896461Y-78354424D01*
X146896460Y-78354426D01*
X146803438Y-78493644D01*
X146685044Y-78612038D01*
X146545826Y-78705060D01*
X146545825Y-78705061D01*
X146545824Y-78705061D01*
X146391135Y-78769136D01*
X146226919Y-78801800D01*
X146059481Y-78801800D01*
X145895265Y-78769136D01*
X145740576Y-78705061D01*
X145740575Y-78705061D01*
X145740574Y-78705060D01*
X145601356Y-78612038D01*
X145482962Y-78493644D01*
X145389940Y-78354426D01*
X145389939Y-78354424D01*
X145325864Y-78199735D01*
X145293200Y-78035519D01*
X145293200Y-77868081D01*
X145325864Y-77703865D01*
X145389939Y-77549176D01*
X145389940Y-77549174D01*
X145482962Y-77409956D01*
X145601356Y-77291562D01*
X145740574Y-77198540D01*
X145747015Y-77195872D01*
X145895265Y-77134464D01*
X146059481Y-77101800D01*
X146226919Y-77101800D01*
X146391135Y-77134464D01*
X146391135Y-77134464D01*
G37*
G36*
X144028935Y-77134464D02*
G01*
X144177185Y-77195872D01*
X144183626Y-77198540D01*
X144322844Y-77291562D01*
X144441238Y-77409956D01*
X144534260Y-77549174D01*
X144534261Y-77549176D01*
X144598336Y-77703865D01*
X144631000Y-77868081D01*
X144631000Y-78035519D01*
X144598336Y-78199735D01*
X144534261Y-78354424D01*
X144534260Y-78354426D01*
X144441238Y-78493644D01*
X144322844Y-78612038D01*
X144183626Y-78705060D01*
X144183625Y-78705061D01*
X144183624Y-78705061D01*
X144028935Y-78769136D01*
X143864719Y-78801800D01*
X143697281Y-78801800D01*
X143533065Y-78769136D01*
X143378376Y-78705061D01*
X143378375Y-78705061D01*
X143378374Y-78705060D01*
X143239156Y-78612038D01*
X143120762Y-78493644D01*
X143027740Y-78354426D01*
X143027739Y-78354424D01*
X142963664Y-78199735D01*
X142931000Y-78035519D01*
X142931000Y-77868081D01*
X142963664Y-77703865D01*
X143027739Y-77549176D01*
X143027740Y-77549174D01*
X143120762Y-77409956D01*
X143239156Y-77291562D01*
X143378374Y-77198540D01*
X143384815Y-77195872D01*
X143533065Y-77134464D01*
X143697281Y-77101800D01*
X143864719Y-77101800D01*
X144028935Y-77134464D01*
X144028935Y-77134464D01*
G37*
G36*
X141717535Y-77134464D02*
G01*
X141865785Y-77195872D01*
X141872226Y-77198540D01*
X142011444Y-77291562D01*
X142129838Y-77409956D01*
X142222860Y-77549174D01*
X142222861Y-77549176D01*
X142286936Y-77703865D01*
X142319600Y-77868081D01*
X142319600Y-78035519D01*
X142286936Y-78199735D01*
X142222861Y-78354424D01*
X142222860Y-78354426D01*
X142129838Y-78493644D01*
X142011444Y-78612038D01*
X141872226Y-78705060D01*
X141872225Y-78705061D01*
X141872224Y-78705061D01*
X141717535Y-78769136D01*
X141553319Y-78801800D01*
X141385881Y-78801800D01*
X141221665Y-78769136D01*
X141066976Y-78705061D01*
X141066975Y-78705061D01*
X141066974Y-78705060D01*
X140927756Y-78612038D01*
X140809362Y-78493644D01*
X140716340Y-78354426D01*
X140716339Y-78354424D01*
X140652264Y-78199735D01*
X140619600Y-78035519D01*
X140619600Y-77868081D01*
X140652264Y-77703865D01*
X140716339Y-77549176D01*
X140716340Y-77549174D01*
X140809362Y-77409956D01*
X140927756Y-77291562D01*
X141066974Y-77198540D01*
X141073415Y-77195872D01*
X141221665Y-77134464D01*
X141385881Y-77101800D01*
X141553319Y-77101800D01*
X141717535Y-77134464D01*
X141717535Y-77134464D01*
G37*
G36*
X131023607Y-76554277D02*
G01*
X131084129Y-76566316D01*
X131255162Y-76637160D01*
X131409087Y-76740010D01*
X131539990Y-76870913D01*
X131642840Y-77024838D01*
X131713684Y-77195871D01*
X131749800Y-77377438D01*
X131749800Y-77562562D01*
X131713684Y-77744129D01*
X131642840Y-77915162D01*
X131539990Y-78069087D01*
X131409087Y-78199990D01*
X131255162Y-78302840D01*
X131084129Y-78373684D01*
X131023607Y-78385723D01*
X130902564Y-78409800D01*
X130717436Y-78409800D01*
X130596393Y-78385723D01*
X130535871Y-78373684D01*
X130364838Y-78302840D01*
X130210913Y-78199990D01*
X130080010Y-78069087D01*
X129977160Y-77915162D01*
X129906316Y-77744129D01*
X129870200Y-77562562D01*
X129870200Y-77377438D01*
X129906316Y-77195871D01*
X129977160Y-77024838D01*
X130080010Y-76870913D01*
X130210913Y-76740010D01*
X130364838Y-76637160D01*
X130535871Y-76566316D01*
X130596393Y-76554277D01*
X130717436Y-76530200D01*
X130902564Y-76530200D01*
X131023607Y-76554277D01*
X131023607Y-76554277D01*
G37*
G36*
X156423607Y-76554277D02*
G01*
X156484129Y-76566316D01*
X156655162Y-76637160D01*
X156809087Y-76740010D01*
X156939990Y-76870913D01*
X157042840Y-77024838D01*
X157113684Y-77195871D01*
X157149800Y-77377438D01*
X157149800Y-77562562D01*
X157113684Y-77744129D01*
X157042840Y-77915162D01*
X156939990Y-78069087D01*
X156809087Y-78199990D01*
X156655162Y-78302840D01*
X156484129Y-78373684D01*
X156423607Y-78385723D01*
X156302564Y-78409800D01*
X156117436Y-78409800D01*
X155996393Y-78385723D01*
X155935871Y-78373684D01*
X155764838Y-78302840D01*
X155610913Y-78199990D01*
X155480010Y-78069087D01*
X155377160Y-77915162D01*
X155306316Y-77744129D01*
X155270200Y-77562562D01*
X155270200Y-77377438D01*
X155306316Y-77195871D01*
X155377160Y-77024838D01*
X155480010Y-76870913D01*
X155610913Y-76740010D01*
X155764838Y-76637160D01*
X155935871Y-76566316D01*
X155996393Y-76554277D01*
X156117436Y-76530200D01*
X156302564Y-76530200D01*
X156423607Y-76554277D01*
X156423607Y-76554277D01*
G37*
G36*
X131023607Y-74014277D02*
G01*
X131084129Y-74026316D01*
X131255162Y-74097160D01*
X131409087Y-74200010D01*
X131539990Y-74330913D01*
X131642840Y-74484838D01*
X131713684Y-74655871D01*
X131749800Y-74837438D01*
X131749800Y-75022562D01*
X131713684Y-75204129D01*
X131642840Y-75375162D01*
X131539990Y-75529087D01*
X131409087Y-75659990D01*
X131255162Y-75762840D01*
X131084129Y-75833684D01*
X131023607Y-75845723D01*
X130902564Y-75869800D01*
X130717436Y-75869800D01*
X130596393Y-75845723D01*
X130535871Y-75833684D01*
X130364838Y-75762840D01*
X130210913Y-75659990D01*
X130080010Y-75529087D01*
X129977160Y-75375162D01*
X129906316Y-75204129D01*
X129870200Y-75022562D01*
X129870200Y-74837438D01*
X129906316Y-74655871D01*
X129977160Y-74484838D01*
X130080010Y-74330913D01*
X130210913Y-74200010D01*
X130364838Y-74097160D01*
X130535871Y-74026316D01*
X130596393Y-74014277D01*
X130717436Y-73990200D01*
X130902564Y-73990200D01*
X131023607Y-74014277D01*
X131023607Y-74014277D01*
G37*
G36*
X156423607Y-74014277D02*
G01*
X156484129Y-74026316D01*
X156655162Y-74097160D01*
X156809087Y-74200010D01*
X156939990Y-74330913D01*
X157042840Y-74484838D01*
X157113684Y-74655871D01*
X157149800Y-74837438D01*
X157149800Y-75022562D01*
X157113684Y-75204129D01*
X157042840Y-75375162D01*
X156939990Y-75529087D01*
X156809087Y-75659990D01*
X156655162Y-75762840D01*
X156484129Y-75833684D01*
X156423607Y-75845723D01*
X156302564Y-75869800D01*
X156117436Y-75869800D01*
X155996393Y-75845723D01*
X155935871Y-75833684D01*
X155764838Y-75762840D01*
X155610913Y-75659990D01*
X155480010Y-75529087D01*
X155377160Y-75375162D01*
X155306316Y-75204129D01*
X155270200Y-75022562D01*
X155270200Y-74837438D01*
X155306316Y-74655871D01*
X155377160Y-74484838D01*
X155480010Y-74330913D01*
X155610913Y-74200010D01*
X155764838Y-74097160D01*
X155935871Y-74026316D01*
X155996393Y-74014277D01*
X156117436Y-73990200D01*
X156302564Y-73990200D01*
X156423607Y-74014277D01*
X156423607Y-74014277D01*
G37*
G36*
X131749800Y-73329800D02*
G01*
X129870200Y-73329800D01*
X129870200Y-71450200D01*
X131749800Y-71450200D01*
X131749800Y-73329800D01*
X131749800Y-73329800D01*
G37*
G36*
X157149800Y-73329800D02*
G01*
X155270200Y-73329800D01*
X155270200Y-71450200D01*
X157149800Y-71450200D01*
X157149800Y-73329800D01*
X157149800Y-73329800D01*
G37*
G36*
X164397624Y-67965294D02*
G01*
X164734302Y-68104751D01*
X164734303Y-68104752D01*
X165037306Y-68307211D01*
X165294989Y-68564894D01*
X165430268Y-68767354D01*
X165497449Y-68867898D01*
X165636906Y-69204576D01*
X165708000Y-69561990D01*
X165708000Y-69926410D01*
X165636906Y-70283824D01*
X165497449Y-70620502D01*
X165497448Y-70620503D01*
X165294989Y-70923506D01*
X165037306Y-71181189D01*
X164834846Y-71316468D01*
X164734302Y-71383649D01*
X164397624Y-71523106D01*
X164040210Y-71594200D01*
X163675790Y-71594200D01*
X163318376Y-71523106D01*
X162981698Y-71383649D01*
X162881154Y-71316468D01*
X162678694Y-71181189D01*
X162421011Y-70923506D01*
X162218552Y-70620503D01*
X162218551Y-70620502D01*
X162079094Y-70283824D01*
X162008000Y-69926410D01*
X162008000Y-69561990D01*
X162079094Y-69204576D01*
X162218551Y-68867898D01*
X162285732Y-68767354D01*
X162421011Y-68564894D01*
X162678694Y-68307211D01*
X162981697Y-68104752D01*
X162981698Y-68104751D01*
X163318376Y-67965294D01*
X163675790Y-67894200D01*
X164040210Y-67894200D01*
X164397624Y-67965294D01*
X164397624Y-67965294D01*
G37*
M02*
