G04 #@! TF.GenerationSoftware,KiCad,Pcbnew,5.1.6-c6e7f7d~87~ubuntu18.04.1*
G04 #@! TF.CreationDate,2020-07-31T19:21:43+02:00*
G04 #@! TF.ProjectId,hm-env-sensor,686d2d65-6e76-42d7-9365-6e736f722e6b,A1*
G04 #@! TF.SameCoordinates,Original*
G04 #@! TF.FileFunction,Copper,L2,Bot*
G04 #@! TF.FilePolarity,Positive*
%FSLAX46Y46*%
G04 Gerber Fmt 4.6, Leading zero omitted, Abs format (unit mm)*
G04 Created by KiCad (PCBNEW 5.1.6-c6e7f7d~87~ubuntu18.04.1) date 2020-07-31 19:21:43*
%MOMM*%
%LPD*%
G01*
G04 APERTURE LIST*
G04 #@! TA.AperFunction,Profile*
%ADD10C,0.254000*%
G04 #@! TD*
G04 #@! TA.AperFunction,ComponentPad*
%ADD11O,1.700000X1.700000*%
G04 #@! TD*
G04 #@! TA.AperFunction,ComponentPad*
%ADD12R,1.700000X1.700000*%
G04 #@! TD*
G04 #@! TA.AperFunction,ComponentPad*
%ADD13O,1.200000X2.300000*%
G04 #@! TD*
G04 #@! TA.AperFunction,Conductor*
%ADD14R,2.800000X2.300000*%
G04 #@! TD*
G04 #@! TA.AperFunction,ComponentPad*
%ADD15C,0.600000*%
G04 #@! TD*
G04 #@! TA.AperFunction,ComponentPad*
%ADD16C,1.524000*%
G04 #@! TD*
G04 #@! TA.AperFunction,ComponentPad*
%ADD17R,1.378000X1.378000*%
G04 #@! TD*
G04 #@! TA.AperFunction,ComponentPad*
%ADD18C,1.378000*%
G04 #@! TD*
G04 #@! TA.AperFunction,ComponentPad*
%ADD19R,1.400000X1.400000*%
G04 #@! TD*
G04 #@! TA.AperFunction,ComponentPad*
%ADD20C,1.400000*%
G04 #@! TD*
G04 #@! TA.AperFunction,ComponentPad*
%ADD21C,1.300000*%
G04 #@! TD*
G04 #@! TA.AperFunction,ComponentPad*
%ADD22C,2.000000*%
G04 #@! TD*
G04 #@! TA.AperFunction,ViaPad*
%ADD23C,0.700000*%
G04 #@! TD*
G04 #@! TA.AperFunction,ViaPad*
%ADD24C,1.000000*%
G04 #@! TD*
G04 #@! TA.AperFunction,Conductor*
%ADD25C,1.016000*%
G04 #@! TD*
G04 #@! TA.AperFunction,Conductor*
%ADD26C,0.508000*%
G04 #@! TD*
G04 #@! TA.AperFunction,Conductor*
%ADD27C,0.762000*%
G04 #@! TD*
G04 #@! TA.AperFunction,Conductor*
%ADD28C,1.270000*%
G04 #@! TD*
G04 #@! TA.AperFunction,Conductor*
%ADD29C,0.254000*%
G04 #@! TD*
G04 #@! TA.AperFunction,Conductor*
%ADD30C,0.203200*%
G04 #@! TD*
G04 APERTURE END LIST*
D10*
X169398000Y-135704200D02*
X169398000Y-71704200D01*
X90398000Y-71704200D02*
X90398000Y-135704200D01*
X161898000Y-64204200D02*
X97898000Y-64204200D01*
X161898000Y-64204200D02*
G75*
G02*
X169398000Y-71704200I0J-7500000D01*
G01*
X169398000Y-135704200D02*
G75*
G02*
X161898000Y-143204200I-7500000J0D01*
G01*
X161898000Y-143204200D02*
X97898000Y-143204200D01*
X90398000Y-71704200D02*
G75*
G02*
X97898000Y-64204200I7500000J0D01*
G01*
X97898000Y-143204200D02*
G75*
G02*
X90398000Y-135704200I0J7500000D01*
G01*
D11*
X92456000Y-79756000D03*
X94996000Y-79756000D03*
X92456000Y-82296000D03*
X94996000Y-82296000D03*
X92456000Y-84836000D03*
X94996000Y-84836000D03*
X92456000Y-87376000D03*
X94996000Y-87376000D03*
X92456000Y-89916000D03*
X94996000Y-89916000D03*
X92456000Y-92456000D03*
D12*
X94996000Y-92456000D03*
D13*
X133140000Y-135056000D03*
X133140000Y-138606000D03*
X125940000Y-135056000D03*
X125940000Y-138606000D03*
D14*
X114990500Y-121143500D03*
D15*
X114240500Y-120643500D03*
X115740500Y-120643500D03*
X115740500Y-121643500D03*
X114990500Y-121143500D03*
X114240500Y-121643500D03*
D16*
X115378000Y-108712000D03*
X115378000Y-106172000D03*
X115378000Y-103632000D03*
X115378000Y-101092000D03*
X144763000Y-108712000D03*
X144763000Y-106172000D03*
X144763000Y-103632000D03*
X144763000Y-101092000D03*
X144763000Y-98552000D03*
D17*
X98012000Y-105410000D03*
D18*
X98012000Y-102870000D03*
D19*
X111439960Y-129369820D03*
D20*
X111442500Y-131381500D03*
D21*
X127753600Y-82015800D03*
D22*
X130065000Y-79679000D03*
D21*
X132427200Y-82015800D03*
X127753600Y-77316800D03*
X132427200Y-77316800D03*
X130065000Y-77316800D03*
X130065000Y-82015800D03*
X127753600Y-79552000D03*
X132427200Y-79552000D03*
D23*
X125476000Y-128397000D03*
X125476000Y-121412000D03*
X162814000Y-78232000D03*
X158242000Y-84074000D03*
X137160000Y-72136000D03*
X140462000Y-72136000D03*
X122936000Y-121412000D03*
X122936000Y-122174000D03*
X119888000Y-125730000D03*
X119888000Y-127254000D03*
X119253000Y-131000500D03*
X118364000Y-131000500D03*
X135636000Y-140970000D03*
X130810000Y-133858000D03*
X100838000Y-92710000D03*
X103378000Y-92710000D03*
X102108000Y-91694000D03*
D24*
X124079000Y-88265000D03*
D23*
X148336000Y-81280000D03*
X148336000Y-79502000D03*
X154178000Y-79248000D03*
X131572000Y-135382000D03*
X130810000Y-136906000D03*
X138684000Y-140970000D03*
X141732000Y-140970000D03*
X137414000Y-136398000D03*
X138176000Y-133858000D03*
X135382000Y-133858000D03*
X141478000Y-133604000D03*
X114290490Y-118617401D03*
X132334000Y-125222000D03*
X115810414Y-123886990D03*
X148082000Y-101091990D03*
X97663000Y-94488000D03*
X94615000Y-94615000D03*
X94615000Y-97282000D03*
X94615000Y-105410000D03*
X94615000Y-101092000D03*
X118364000Y-90043000D03*
X122682000Y-71882000D03*
X115316000Y-71882000D03*
X110617000Y-71882000D03*
X104775000Y-72009000D03*
X99949000Y-72009000D03*
X91694000Y-75819000D03*
X91186000Y-95250000D03*
X91186000Y-101473000D03*
X91313000Y-108204000D03*
X91313000Y-114808000D03*
X91313000Y-119888000D03*
X91313000Y-125603000D03*
X91186000Y-131064000D03*
X91567000Y-137033000D03*
X97790000Y-141859000D03*
X103505000Y-141859000D03*
X109601000Y-141859000D03*
X115316000Y-141732000D03*
X121285000Y-141732000D03*
X146685000Y-141732000D03*
X154305000Y-141605000D03*
X161417000Y-141732000D03*
X168021000Y-136144000D03*
X168021000Y-130048000D03*
X167894000Y-125095000D03*
X167894000Y-83185000D03*
X167767000Y-74803000D03*
X158496000Y-71882000D03*
X151003000Y-71755000D03*
X145034000Y-71755000D03*
X140716000Y-89916000D03*
X148082000Y-92202000D03*
X141605000Y-91567000D03*
X142113000Y-94615000D03*
X142240000Y-96012000D03*
X127127000Y-91821000D03*
X134493000Y-91821000D03*
X130429000Y-95504000D03*
X98425000Y-84328000D03*
X105029000Y-84328000D03*
X110617000Y-84328000D03*
X110744000Y-90043000D03*
X98552000Y-90678000D03*
X105156000Y-90551000D03*
X98552000Y-110744000D03*
X107569000Y-110617000D03*
X115189000Y-110744000D03*
X121031000Y-111125000D03*
X123190000Y-117602000D03*
X117221000Y-116332000D03*
X109728000Y-117094000D03*
X107315000Y-121793000D03*
X98425000Y-117983000D03*
X98806000Y-127000000D03*
X101473000Y-135001000D03*
X109982000Y-136525000D03*
X106299000Y-129921000D03*
X121920000Y-132842000D03*
X111760000Y-133350000D03*
X113157000Y-134874000D03*
X111760000Y-123063000D03*
X124206000Y-121920000D03*
X126746000Y-122682000D03*
X127000000Y-119761000D03*
X127000000Y-116332000D03*
X132588000Y-118237000D03*
X126873000Y-112395000D03*
X136398000Y-116586000D03*
X130810000Y-111125000D03*
X123190000Y-103505000D03*
X119634000Y-98806000D03*
X115062000Y-94107000D03*
X118618000Y-95123000D03*
X125984000Y-97028000D03*
X133731000Y-99949000D03*
X140843000Y-100330000D03*
X142240000Y-107950000D03*
X143129000Y-113030000D03*
X166116000Y-119253000D03*
X160782000Y-119126000D03*
X151257000Y-119126000D03*
X156083000Y-119126000D03*
X152781000Y-86614000D03*
X145161000Y-77343000D03*
X145288000Y-129286000D03*
X147066000Y-127508000D03*
X148463000Y-125349000D03*
X138811000Y-127762000D03*
X139319000Y-120269000D03*
X137414000Y-122301000D03*
X142621000Y-116840000D03*
X108712000Y-107315000D03*
X121412000Y-107061000D03*
X135509000Y-118745000D03*
X136525000Y-123317000D03*
X148082000Y-123190000D03*
X149606000Y-84328000D03*
X149606000Y-76454000D03*
X149352000Y-88900000D03*
X149451417Y-101210886D03*
X156210000Y-103251000D03*
X154178000Y-101346000D03*
X148082000Y-108966000D03*
X144399000Y-97028000D03*
X144145000Y-88519000D03*
X125476000Y-88646000D03*
X119126000Y-85852000D03*
X118618000Y-124714000D03*
X144018000Y-121666000D03*
X114102029Y-135910349D03*
X145796000Y-126238000D03*
X147290379Y-87002978D03*
X146084833Y-92915763D03*
X122572128Y-83167872D03*
X114681000Y-135191500D03*
X147574000Y-103886000D03*
X144786780Y-126244780D03*
X147221662Y-85884079D03*
X122337924Y-82259076D03*
X119126000Y-79436998D03*
X119126000Y-78486000D03*
X95758000Y-109982000D03*
X137352010Y-82765913D03*
X98171000Y-80391000D03*
X97281993Y-92837007D03*
X136652000Y-81788000D03*
X98933000Y-79790021D03*
X114672474Y-131236509D03*
X145288000Y-125222000D03*
X144653000Y-80137000D03*
X144752023Y-82931000D03*
X146050000Y-94234000D03*
X146187027Y-86875412D03*
X137407675Y-84054290D03*
X97282000Y-80899000D03*
X161544000Y-127000000D03*
X159258000Y-127000000D03*
X148082000Y-105918000D03*
X148005215Y-102311785D03*
X140436166Y-85697680D03*
X147134921Y-91978233D03*
X114219917Y-124615475D03*
X144526000Y-122555000D03*
X144272000Y-110617000D03*
X142641088Y-87075877D03*
X137402061Y-87879900D03*
X148082000Y-107950000D03*
X144269749Y-89919012D03*
X141862058Y-87671607D03*
X134277087Y-88838010D03*
X148082000Y-106934000D03*
X145481885Y-89482361D03*
X120015000Y-134810500D03*
X114300000Y-129349500D03*
X134788002Y-123190000D03*
X130556000Y-127477000D03*
X100838000Y-94996000D03*
X103378000Y-94996000D03*
X99060000Y-97536000D03*
X105156000Y-104140000D03*
X108712000Y-101854000D03*
X108712000Y-103124000D03*
X107188000Y-104140000D03*
X110236000Y-95250000D03*
X106426000Y-107188000D03*
X110871000Y-102743000D03*
X96774000Y-98298000D03*
X101473000Y-107188000D03*
X96774000Y-101600000D03*
X103886000Y-98933000D03*
X100457000Y-101219000D03*
X117729000Y-76200000D03*
X112776000Y-76327000D03*
X112268000Y-90297000D03*
X112268000Y-96012000D03*
X111760000Y-118618000D03*
X114724869Y-123842834D03*
X116840000Y-122682000D03*
X120773732Y-120711990D03*
X119126000Y-77216000D03*
X145041598Y-110017609D03*
X143129000Y-76962000D03*
X143829010Y-82931000D03*
X143564097Y-87078104D03*
X144526000Y-84201000D03*
X140970000Y-75819000D03*
X145397332Y-94886668D03*
X145226010Y-86904360D03*
X121158000Y-124714000D03*
X115711636Y-125287010D03*
X137922000Y-132001000D03*
X130717509Y-131519064D03*
X137922000Y-132951000D03*
X129984500Y-132080002D03*
D25*
X125476000Y-128397000D02*
X125476000Y-121412000D01*
D26*
X135509000Y-118745000D02*
X135509000Y-122301000D01*
X135509000Y-122301000D02*
X136525000Y-123317000D01*
D27*
X148082000Y-123190000D02*
X143637000Y-118745000D01*
D28*
X135509000Y-118745000D02*
X143637000Y-118745000D01*
X149606000Y-76454000D02*
X149606000Y-84328000D01*
X149352000Y-102108000D02*
X149352000Y-88900000D01*
X143637000Y-118745000D02*
X149352000Y-113030000D01*
X149352000Y-113030000D02*
X149352000Y-102108000D01*
D27*
X149451417Y-102008583D02*
X149451417Y-101210886D01*
X149352000Y-102108000D02*
X149451417Y-102008583D01*
D28*
X149606000Y-84328000D02*
X149606000Y-88646000D01*
X149606000Y-88646000D02*
X149352000Y-88900000D01*
D26*
X156210000Y-103251000D02*
X156083000Y-103251000D01*
X156083000Y-103251000D02*
X154178000Y-101346000D01*
D29*
X145875001Y-106759001D02*
X148082000Y-108966000D01*
X145875002Y-103241361D02*
X145875001Y-106759001D01*
X145875001Y-101382210D02*
X145874180Y-101383031D01*
X145875001Y-98018239D02*
X145875001Y-101382210D01*
X145874180Y-101383031D02*
X145874180Y-103240539D01*
X145874180Y-103240539D02*
X145875002Y-103241361D01*
X144884762Y-97028000D02*
X145875001Y-98018239D01*
X144399000Y-97028000D02*
X144884762Y-97028000D01*
X125984000Y-88138000D02*
X125476000Y-88646000D01*
X135382000Y-88138000D02*
X125984000Y-88138000D01*
X144399000Y-88265000D02*
X144399000Y-86877274D01*
X142168102Y-86375599D02*
X139897701Y-88646000D01*
X144145000Y-88519000D02*
X144399000Y-88265000D01*
X135890000Y-88646000D02*
X135382000Y-88138000D01*
X144399000Y-86877274D02*
X143897325Y-86375599D01*
X139897701Y-88646000D02*
X135890000Y-88646000D01*
X143897325Y-86375599D02*
X142168102Y-86375599D01*
X116428010Y-83154010D02*
X96677990Y-83154010D01*
X119126000Y-85852000D02*
X116428010Y-83154010D01*
X96677990Y-83154010D02*
X94996000Y-84836000D01*
X118618000Y-124714000D02*
X116586000Y-124714000D01*
X116586000Y-124714000D02*
X116332000Y-124714000D01*
X116332000Y-124714000D02*
X116205000Y-124587000D01*
X116205000Y-124587000D02*
X115316000Y-124587000D01*
X115316000Y-124587000D02*
X114808000Y-125095000D01*
X114808000Y-125095000D02*
X114808000Y-125730000D01*
X114808000Y-125730000D02*
X114808000Y-127254000D01*
X114808000Y-127254000D02*
X115824000Y-128270000D01*
X115824000Y-128270000D02*
X119126000Y-128270000D01*
X119126000Y-128270000D02*
X121158000Y-130302000D01*
X121158000Y-130302000D02*
X121158000Y-133858000D01*
X121158000Y-133858000D02*
X121412000Y-134112000D01*
X121412000Y-134112000D02*
X121920000Y-134112000D01*
X121920000Y-134112000D02*
X127254000Y-128778000D01*
X127254000Y-128778000D02*
X139446000Y-128778000D01*
X139446000Y-128778000D02*
X139827000Y-128778000D01*
X139827000Y-128778000D02*
X143764000Y-124841000D01*
X143764000Y-124841000D02*
X143764000Y-121920000D01*
X143764000Y-121920000D02*
X144018000Y-121666000D01*
X128292483Y-130810000D02*
X141224000Y-130810000D01*
X141224000Y-130810000D02*
X145796000Y-126238000D01*
X122512461Y-136590022D02*
X128292483Y-130810000D01*
X114781702Y-136590022D02*
X122512461Y-136590022D01*
X114102029Y-135910349D02*
X114781702Y-136590022D01*
X145761987Y-91541414D02*
X145761987Y-92592917D01*
X147290379Y-87002978D02*
X147290379Y-90013022D01*
X147290379Y-90013022D02*
X145761987Y-91541414D01*
X145761987Y-92592917D02*
X146084833Y-92915763D01*
X140642372Y-87156033D02*
X126560289Y-87156033D01*
X147290379Y-87002978D02*
X147290379Y-86942760D01*
X147290379Y-86942760D02*
X146230610Y-85882991D01*
X146230610Y-85882991D02*
X141915414Y-85882991D01*
X126560289Y-87156033D02*
X122572128Y-83167872D01*
X141915414Y-85882991D02*
X140642372Y-87156033D01*
X95123000Y-82169000D02*
X94996000Y-82296000D01*
X122572128Y-83167872D02*
X122156872Y-83167872D01*
X121158000Y-82169000D02*
X95123000Y-82169000D01*
X122156872Y-83167872D02*
X121158000Y-82169000D01*
X128125888Y-130302000D02*
X140729560Y-130302000D01*
X122314877Y-136113011D02*
X128125888Y-130302000D01*
X115602511Y-136113011D02*
X122314877Y-136113011D01*
X114681000Y-135191500D02*
X115602511Y-136113011D01*
X140729560Y-130302000D02*
X144786780Y-126244780D01*
X147990381Y-86652798D02*
X147221662Y-85884079D01*
X147990381Y-87338980D02*
X147990381Y-86652798D01*
X147877450Y-90100546D02*
X147877450Y-87451911D01*
X147305213Y-102647787D02*
X147305213Y-101975783D01*
X147574000Y-103886000D02*
X147574000Y-102916574D01*
X147306034Y-101974962D02*
X147306034Y-93139310D01*
X147305213Y-101975783D02*
X147306034Y-101974962D01*
X147574000Y-102916574D02*
X147305213Y-102647787D01*
X147877450Y-87451911D02*
X147990381Y-87338980D01*
X146238998Y-91738998D02*
X147877450Y-90100546D01*
X147306034Y-93139310D02*
X146238998Y-92072274D01*
X146238998Y-92072274D02*
X146238998Y-91738998D01*
X146743563Y-85405980D02*
X141717830Y-85405980D01*
X140444788Y-86679022D02*
X127073242Y-86679022D01*
X141717830Y-85405980D02*
X140444788Y-86679022D01*
X122653296Y-82259076D02*
X122337924Y-82259076D01*
X147221662Y-85884079D02*
X146743563Y-85405980D01*
X127073242Y-86679022D02*
X122653296Y-82259076D01*
X96901000Y-81661000D02*
X94996000Y-79756000D01*
X122337924Y-82259076D02*
X121739848Y-81661000D01*
X121739848Y-81661000D02*
X96901000Y-81661000D01*
X118995976Y-79567022D02*
X99760022Y-79567022D01*
X96106010Y-79090010D02*
X95572001Y-78555999D01*
X99760022Y-79567022D02*
X99283011Y-79090011D01*
X95572001Y-78555999D02*
X94419999Y-78555999D01*
X93656001Y-79319997D02*
X93656001Y-81095999D01*
X94419999Y-78555999D02*
X93656001Y-79319997D01*
X99283011Y-79090011D02*
X96106010Y-79090010D01*
X93656001Y-81095999D02*
X92456000Y-82296000D01*
X119126000Y-79436998D02*
X118995976Y-79567022D01*
X100045012Y-79090012D02*
X99568000Y-78613000D01*
X94133012Y-78078988D02*
X92456000Y-79756000D01*
X95769585Y-78078988D02*
X94133012Y-78078988D01*
X119126000Y-78486000D02*
X118276594Y-78486000D01*
X96303596Y-78613000D02*
X95769585Y-78078988D01*
X118276594Y-78486000D02*
X117672583Y-79090012D01*
X117672583Y-79090012D02*
X100045012Y-79090012D01*
X99568000Y-78613000D02*
X96303596Y-78613000D01*
X134659595Y-85725000D02*
X127468406Y-85725000D01*
X137352010Y-82765913D02*
X137352010Y-83032585D01*
X127468406Y-85725000D02*
X122735395Y-80991989D01*
X137352010Y-83032585D02*
X134659595Y-85725000D01*
X122735395Y-80991989D02*
X122388406Y-80645000D01*
X122388406Y-80645000D02*
X101981000Y-80645000D01*
X101981000Y-80645000D02*
X98425000Y-80645000D01*
X98425000Y-80645000D02*
X98171000Y-80391000D01*
X96901000Y-93218000D02*
X97281993Y-92837007D01*
X96901000Y-96647000D02*
X96901000Y-93218000D01*
X95758000Y-109982000D02*
X95758000Y-97790000D01*
X95758000Y-97790000D02*
X96901000Y-96647000D01*
X136652000Y-81788000D02*
X136652000Y-83058000D01*
X136652000Y-83058000D02*
X134493000Y-85217000D01*
X128778000Y-85217000D02*
X128397000Y-85217000D01*
X134493000Y-85217000D02*
X128778000Y-85217000D01*
X123701020Y-80140020D02*
X99282999Y-80140020D01*
X99282999Y-80140020D02*
X98933000Y-79790021D01*
X128778000Y-85217000D02*
X123701020Y-80140020D01*
X144819594Y-125222000D02*
X145288000Y-125222000D01*
X119071965Y-135636000D02*
X121920000Y-135636000D01*
X140278584Y-129763011D02*
X144819594Y-125222000D01*
X127792989Y-129763011D02*
X140278584Y-129763011D01*
X121920000Y-135636000D02*
X127792989Y-129763011D01*
X114672474Y-131236509D02*
X119071965Y-135636000D01*
X144653000Y-82831977D02*
X144752023Y-82931000D01*
X144653000Y-80137000D02*
X144653000Y-82831977D01*
X146719013Y-89909793D02*
X146719013Y-87407398D01*
X145277164Y-91351642D02*
X146719013Y-89909793D01*
X146719013Y-87407398D02*
X146187027Y-86875412D01*
X145277164Y-93096010D02*
X145277164Y-91351642D01*
X145559040Y-93377885D02*
X145277164Y-93096010D01*
X145559040Y-93743040D02*
X145559040Y-93377885D01*
X146050000Y-94234000D02*
X145559040Y-93743040D01*
X137407675Y-84054290D02*
X135259954Y-86202011D01*
X135259954Y-86202011D02*
X127270824Y-86202011D01*
X127270824Y-86202011D02*
X122537813Y-81469000D01*
X122537813Y-81469000D02*
X122221813Y-81153000D01*
X122221813Y-81153000D02*
X101981000Y-81153000D01*
X101981000Y-81153000D02*
X97536000Y-81153000D01*
X97536000Y-81153000D02*
X97282000Y-80899000D01*
X161544000Y-127000000D02*
X159258000Y-127000000D01*
X148082000Y-105918000D02*
X148355214Y-105644786D01*
X148005215Y-102158215D02*
X148005215Y-102311785D01*
X148355214Y-102661784D02*
X148005215Y-102311785D01*
X148355214Y-105644786D02*
X148355214Y-102661784D01*
X140436166Y-85697680D02*
X141204877Y-84928969D01*
X147302556Y-84928969D02*
X148467392Y-86093805D01*
X148467392Y-86093805D02*
X148467392Y-87536564D01*
X141204877Y-84928969D02*
X147302556Y-84928969D01*
X148354461Y-87649495D02*
X148354461Y-90758693D01*
X148467392Y-87536564D02*
X148354461Y-87649495D01*
X148354461Y-90758693D02*
X147134921Y-91978233D01*
X114219917Y-124615475D02*
X114219917Y-127427917D01*
X114219917Y-127427917D02*
X115570000Y-128778000D01*
X115570000Y-128778000D02*
X118872000Y-128778000D01*
X118872000Y-128778000D02*
X120650000Y-130556000D01*
X120650000Y-130556000D02*
X120650000Y-134112000D01*
X120650000Y-134112000D02*
X121158000Y-134620000D01*
X121158000Y-134620000D02*
X121920000Y-134620000D01*
X121920000Y-134620000D02*
X122174000Y-134620000D01*
X122174000Y-134620000D02*
X127508000Y-129286000D01*
X127508000Y-129286000D02*
X139700000Y-129286000D01*
X139700000Y-129286000D02*
X140081000Y-129286000D01*
X140081000Y-129286000D02*
X144526000Y-124841000D01*
X144526000Y-124841000D02*
X144526000Y-122555000D01*
X142641088Y-87570851D02*
X142641088Y-87075877D01*
X142641088Y-93832912D02*
X142641088Y-87570851D01*
X143173989Y-94365813D02*
X142641088Y-93832912D01*
X143173989Y-109518989D02*
X143173989Y-94365813D01*
X144272000Y-110617000D02*
X143173989Y-109518989D01*
X94996000Y-92456000D02*
X93795999Y-91255999D01*
X93795999Y-91255999D02*
X93795999Y-84259999D01*
X93795999Y-84259999D02*
X94559997Y-83496001D01*
X125860044Y-87633044D02*
X137155205Y-87633044D01*
X94559997Y-83496001D02*
X95661405Y-83496001D01*
X137155205Y-87633044D02*
X137402061Y-87879900D01*
X95661405Y-83496001D02*
X96480406Y-82676999D01*
X120904000Y-82677000D02*
X125860044Y-87633044D01*
X96480406Y-82676999D02*
X120904000Y-82677000D01*
X148082000Y-107950000D02*
X146352012Y-106220012D01*
X146352012Y-106220012D02*
X146352012Y-103043776D01*
X143846131Y-90342630D02*
X144269749Y-89919012D01*
X146351191Y-101445801D02*
X146352010Y-101444982D01*
X144128010Y-93970643D02*
X143846131Y-93688765D01*
X146352010Y-97584011D02*
X144128011Y-95360012D01*
X144128011Y-95360012D02*
X144128010Y-93970643D01*
X143846131Y-93688765D02*
X143846131Y-90342630D01*
X146352010Y-101444982D02*
X146352010Y-97584011D01*
X146352012Y-103043776D02*
X146351191Y-103042955D01*
X146351191Y-103042955D02*
X146351191Y-101445801D01*
X140345656Y-89188009D02*
X134627086Y-89188009D01*
X134627086Y-89188009D02*
X134277087Y-88838010D01*
X141862058Y-87671607D02*
X140345656Y-89188009D01*
X147745999Y-106618001D02*
X147381999Y-106254001D01*
X148082000Y-106934000D02*
X148082000Y-106618001D01*
X148082000Y-106618001D02*
X147745999Y-106618001D01*
X146829023Y-102846192D02*
X146828202Y-102845371D01*
X144605020Y-95162426D02*
X144605020Y-93773057D01*
X144605020Y-93773057D02*
X144323142Y-93491180D01*
X146829021Y-97386427D02*
X144605020Y-95162426D01*
X145481885Y-89742880D02*
X145481885Y-89482361D01*
X146828202Y-102845371D02*
X146828202Y-101643385D01*
X146829023Y-105681023D02*
X146829023Y-102846192D01*
X146829021Y-101642566D02*
X146829021Y-97386427D01*
X146828202Y-101643385D02*
X146829021Y-101642566D01*
X144323142Y-93491180D02*
X144323142Y-90901623D01*
X144323142Y-90901623D02*
X145481885Y-89742880D01*
X148082000Y-106934000D02*
X146829023Y-105681023D01*
X120015000Y-134810500D02*
X120015000Y-131000500D01*
X120015000Y-131000500D02*
X120015000Y-130746500D01*
X120015000Y-130746500D02*
X118618000Y-129349500D01*
X118618000Y-129349500D02*
X114300000Y-129349500D01*
X134788002Y-123190000D02*
X134788002Y-126450998D01*
X134788002Y-126450998D02*
X133762000Y-127477000D01*
X133762000Y-127477000D02*
X130556000Y-127477000D01*
D26*
X112903000Y-76200000D02*
X112776000Y-76327000D01*
X114808000Y-76200000D02*
X112903000Y-76200000D01*
X117729000Y-76200000D02*
X114808000Y-76200000D01*
X114808000Y-76200000D02*
X114300000Y-76200000D01*
X112268000Y-90297000D02*
X112268000Y-96012000D01*
D29*
X111760000Y-118618000D02*
X111760000Y-121372939D01*
X111760000Y-121372939D02*
X114229895Y-123842834D01*
X114229895Y-123842834D02*
X114724869Y-123842834D01*
X118803722Y-122682000D02*
X120773732Y-120711990D01*
X116840000Y-122682000D02*
X118803722Y-122682000D01*
X91255999Y-83635999D02*
X92456000Y-84836000D01*
X92834019Y-77601979D02*
X91255999Y-79179999D01*
X95967168Y-77601979D02*
X92834019Y-77601979D01*
X119126000Y-77216000D02*
X118872000Y-77216000D01*
X100330001Y-78613001D02*
X99822000Y-78105000D01*
X96470190Y-78105000D02*
X95967168Y-77601979D01*
X91255999Y-79179999D02*
X91255999Y-83635999D01*
X118872000Y-77216000D02*
X117474999Y-78613001D01*
X117474999Y-78613001D02*
X100330001Y-78613001D01*
X99822000Y-78105000D02*
X96470190Y-78105000D01*
X143829010Y-77662010D02*
X143829010Y-82931000D01*
X143129000Y-76962000D02*
X143829010Y-77662010D01*
X143369120Y-87273081D02*
X143564097Y-87078104D01*
X143369120Y-93886350D02*
X143369120Y-87273081D01*
X143651000Y-94168229D02*
X143369120Y-93886350D01*
X144322237Y-109916999D02*
X143651000Y-109245762D01*
X143651000Y-109245762D02*
X143651000Y-94168229D01*
X144940988Y-109916999D02*
X144322237Y-109916999D01*
X145041598Y-110017609D02*
X144940988Y-109916999D01*
X143891000Y-84201000D02*
X144526000Y-84201000D01*
X143129000Y-83439000D02*
X143891000Y-84201000D01*
X140970000Y-75819000D02*
X143129000Y-77978000D01*
X143129000Y-77978000D02*
X143129000Y-83439000D01*
X145397332Y-94886668D02*
X145082031Y-94571367D01*
X145082030Y-93575471D02*
X144800153Y-93293595D01*
X146242002Y-87920352D02*
X145226010Y-86904360D01*
X144800153Y-93293595D02*
X144800153Y-91154058D01*
X145082031Y-94571367D02*
X145082030Y-93575471D01*
X146242002Y-89712209D02*
X146242002Y-87920352D01*
X144800153Y-91154058D02*
X146242002Y-89712209D01*
X119634000Y-124714000D02*
X118710991Y-125637009D01*
X116061635Y-125637009D02*
X115711636Y-125287010D01*
X118710991Y-125637009D02*
X116061635Y-125637009D01*
X121158000Y-124714000D02*
X119634000Y-124714000D01*
D30*
X137922000Y-132001000D02*
X131199445Y-132001000D01*
X131199445Y-132001000D02*
X130717509Y-131519064D01*
X137922000Y-132951000D02*
X130855498Y-132951000D01*
X130855498Y-132951000D02*
X129984500Y-132080002D01*
D29*
G36*
X125423580Y-87915000D02*
G01*
X125404003Y-87915000D01*
X125262775Y-87943092D01*
X125129742Y-87998196D01*
X125010015Y-88078195D01*
X124908195Y-88180015D01*
X124828196Y-88299742D01*
X124773092Y-88432775D01*
X124745000Y-88574003D01*
X124745000Y-88717997D01*
X124773092Y-88859225D01*
X124828196Y-88992258D01*
X124908195Y-89111985D01*
X125010015Y-89213805D01*
X125129742Y-89293804D01*
X125262775Y-89348908D01*
X125404003Y-89377000D01*
X125547997Y-89377000D01*
X125689225Y-89348908D01*
X125822258Y-89293804D01*
X125941985Y-89213805D01*
X126043805Y-89111985D01*
X126123804Y-88992258D01*
X126178908Y-88859225D01*
X126207000Y-88717997D01*
X126207000Y-88646000D01*
X133569959Y-88646000D01*
X133546087Y-88766013D01*
X133546087Y-88910007D01*
X133574179Y-89051235D01*
X133629283Y-89184268D01*
X133709282Y-89303995D01*
X133811102Y-89405815D01*
X133930829Y-89485814D01*
X134063862Y-89540918D01*
X134205090Y-89569010D01*
X134290573Y-89569010D01*
X134343490Y-89612438D01*
X134408709Y-89647298D01*
X134431743Y-89659610D01*
X134527501Y-89688658D01*
X134602139Y-89696009D01*
X134602141Y-89696009D01*
X134627085Y-89698466D01*
X134652029Y-89696009D01*
X140320712Y-89696009D01*
X140345656Y-89698466D01*
X140370600Y-89696009D01*
X140370603Y-89696009D01*
X140445241Y-89688658D01*
X140540999Y-89659610D01*
X140629251Y-89612438D01*
X140706604Y-89548957D01*
X140722511Y-89529574D01*
X141849479Y-88402607D01*
X141934055Y-88402607D01*
X142075283Y-88374515D01*
X142133089Y-88350571D01*
X142133088Y-93807968D01*
X142130631Y-93832912D01*
X142133088Y-93857856D01*
X142133088Y-93857858D01*
X142140439Y-93932496D01*
X142169487Y-94028254D01*
X142216659Y-94116507D01*
X142280140Y-94193860D01*
X142299523Y-94209767D01*
X142665990Y-94576234D01*
X142665989Y-109494045D01*
X142663532Y-109518989D01*
X142665989Y-109543933D01*
X142665989Y-109543935D01*
X142673340Y-109618573D01*
X142702388Y-109714331D01*
X142749560Y-109802584D01*
X142813041Y-109879937D01*
X142832424Y-109895844D01*
X143541000Y-110604421D01*
X143541000Y-110688997D01*
X143569092Y-110830225D01*
X143624196Y-110963258D01*
X143704195Y-111082985D01*
X143806015Y-111184805D01*
X143925742Y-111264804D01*
X144058775Y-111319908D01*
X144200003Y-111348000D01*
X144343997Y-111348000D01*
X144485225Y-111319908D01*
X144618258Y-111264804D01*
X144737985Y-111184805D01*
X144839805Y-111082985D01*
X144919804Y-110963258D01*
X144974908Y-110830225D01*
X144991142Y-110748609D01*
X145113595Y-110748609D01*
X145254823Y-110720517D01*
X145387856Y-110665413D01*
X145507583Y-110585414D01*
X145609403Y-110483594D01*
X145689402Y-110363867D01*
X145744506Y-110230834D01*
X145772598Y-110089606D01*
X145772598Y-109945612D01*
X145744506Y-109804384D01*
X145689402Y-109671351D01*
X145609403Y-109551624D01*
X145574613Y-109516834D01*
X145650826Y-109440620D01*
X145775913Y-109253413D01*
X145862075Y-109045401D01*
X145906000Y-108824576D01*
X145906000Y-108599424D01*
X145862075Y-108378599D01*
X145775913Y-108170587D01*
X145650826Y-107983380D01*
X145491620Y-107824174D01*
X145304413Y-107699087D01*
X145096401Y-107612925D01*
X144875576Y-107569000D01*
X144650424Y-107569000D01*
X144429599Y-107612925D01*
X144221587Y-107699087D01*
X144159000Y-107740906D01*
X144159000Y-107143094D01*
X144221587Y-107184913D01*
X144429599Y-107271075D01*
X144650424Y-107315000D01*
X144875576Y-107315000D01*
X145096401Y-107271075D01*
X145304413Y-107184913D01*
X145474242Y-107071438D01*
X145489148Y-107089601D01*
X145514053Y-107119948D01*
X145533430Y-107135850D01*
X147351000Y-108953420D01*
X147351000Y-109037997D01*
X147379092Y-109179225D01*
X147434196Y-109312258D01*
X147514195Y-109431985D01*
X147616015Y-109533805D01*
X147735742Y-109613804D01*
X147868775Y-109668908D01*
X148010003Y-109697000D01*
X148153997Y-109697000D01*
X148295225Y-109668908D01*
X148336000Y-109652018D01*
X148336000Y-112609159D01*
X143216160Y-117729000D01*
X135459098Y-117729000D01*
X135309829Y-117743702D01*
X135118313Y-117801798D01*
X134941810Y-117896140D01*
X134787104Y-118023104D01*
X134660140Y-118177810D01*
X134565798Y-118354313D01*
X134507702Y-118545829D01*
X134488085Y-118745000D01*
X134507702Y-118944171D01*
X134565798Y-119135687D01*
X134660140Y-119312190D01*
X134787104Y-119466896D01*
X134874000Y-119538210D01*
X134874001Y-122269809D01*
X134870929Y-122301000D01*
X134883189Y-122425481D01*
X134895499Y-122466061D01*
X134859999Y-122459000D01*
X134716005Y-122459000D01*
X134574777Y-122487092D01*
X134441744Y-122542196D01*
X134322017Y-122622195D01*
X134220197Y-122724015D01*
X134140198Y-122843742D01*
X134085094Y-122976775D01*
X134057002Y-123118003D01*
X134057002Y-123261997D01*
X134085094Y-123403225D01*
X134140198Y-123536258D01*
X134220197Y-123655985D01*
X134280002Y-123715790D01*
X134280003Y-126240576D01*
X133551580Y-126969000D01*
X131081790Y-126969000D01*
X131021985Y-126909195D01*
X130902258Y-126829196D01*
X130769225Y-126774092D01*
X130627997Y-126746000D01*
X130484003Y-126746000D01*
X130342775Y-126774092D01*
X130209742Y-126829196D01*
X130090015Y-126909195D01*
X129988195Y-127011015D01*
X129908196Y-127130742D01*
X129853092Y-127263775D01*
X129825000Y-127405003D01*
X129825000Y-127548997D01*
X129853092Y-127690225D01*
X129908196Y-127823258D01*
X129988195Y-127942985D01*
X130090015Y-128044805D01*
X130209742Y-128124804D01*
X130342775Y-128179908D01*
X130484003Y-128208000D01*
X130627997Y-128208000D01*
X130769225Y-128179908D01*
X130902258Y-128124804D01*
X131021985Y-128044805D01*
X131081790Y-127985000D01*
X133737056Y-127985000D01*
X133762000Y-127987457D01*
X133786944Y-127985000D01*
X133786947Y-127985000D01*
X133861585Y-127977649D01*
X133957343Y-127948601D01*
X134045595Y-127901429D01*
X134122948Y-127837948D01*
X134138855Y-127818565D01*
X135129573Y-126827848D01*
X135148950Y-126811946D01*
X135169607Y-126786775D01*
X135212431Y-126734594D01*
X135259602Y-126646342D01*
X135259603Y-126646341D01*
X135288651Y-126550583D01*
X135296002Y-126475945D01*
X135296002Y-126475942D01*
X135298459Y-126450998D01*
X135296002Y-126426054D01*
X135296002Y-123715790D01*
X135355807Y-123655985D01*
X135435806Y-123536258D01*
X135490910Y-123403225D01*
X135519002Y-123261997D01*
X135519002Y-123209026D01*
X135817596Y-123507620D01*
X135822092Y-123530225D01*
X135877196Y-123663258D01*
X135957195Y-123782985D01*
X136059015Y-123884805D01*
X136178742Y-123964804D01*
X136311775Y-124019908D01*
X136453003Y-124048000D01*
X136596997Y-124048000D01*
X136738225Y-124019908D01*
X136871258Y-123964804D01*
X136990985Y-123884805D01*
X137092805Y-123782985D01*
X137172804Y-123663258D01*
X137227908Y-123530225D01*
X137256000Y-123388997D01*
X137256000Y-123245003D01*
X137227908Y-123103775D01*
X137172804Y-122970742D01*
X137092805Y-122851015D01*
X136990985Y-122749195D01*
X136871258Y-122669196D01*
X136738225Y-122614092D01*
X136715620Y-122609596D01*
X136144000Y-122037976D01*
X136144000Y-119761000D01*
X143575370Y-119761000D01*
X147569648Y-123755279D01*
X147656607Y-123826644D01*
X147788983Y-123897401D01*
X147932621Y-123940973D01*
X148081999Y-123955686D01*
X148231378Y-123940973D01*
X148375015Y-123897401D01*
X148507392Y-123826644D01*
X148623421Y-123731421D01*
X148718644Y-123615392D01*
X148789401Y-123483015D01*
X148832973Y-123339378D01*
X148847686Y-123189999D01*
X148832973Y-123040621D01*
X148789401Y-122896983D01*
X148718644Y-122764607D01*
X148647279Y-122677648D01*
X147309634Y-121340003D01*
X162199000Y-121340003D01*
X162199000Y-121483997D01*
X162227092Y-121625225D01*
X162282196Y-121758258D01*
X162362195Y-121877985D01*
X162464015Y-121979805D01*
X162583742Y-122059804D01*
X162716775Y-122114908D01*
X162858003Y-122143000D01*
X163001997Y-122143000D01*
X163143225Y-122114908D01*
X163276258Y-122059804D01*
X163395985Y-121979805D01*
X163497805Y-121877985D01*
X163577804Y-121758258D01*
X163632908Y-121625225D01*
X163661000Y-121483997D01*
X163661000Y-121340003D01*
X163999000Y-121340003D01*
X163999000Y-121483997D01*
X164027092Y-121625225D01*
X164082196Y-121758258D01*
X164162195Y-121877985D01*
X164264015Y-121979805D01*
X164383742Y-122059804D01*
X164516775Y-122114908D01*
X164658003Y-122143000D01*
X164801997Y-122143000D01*
X164943225Y-122114908D01*
X165076258Y-122059804D01*
X165195985Y-121979805D01*
X165297805Y-121877985D01*
X165377804Y-121758258D01*
X165432908Y-121625225D01*
X165461000Y-121483997D01*
X165461000Y-121340003D01*
X165432908Y-121198775D01*
X165377804Y-121065742D01*
X165297805Y-120946015D01*
X165195985Y-120844195D01*
X165076258Y-120764196D01*
X164943225Y-120709092D01*
X164801997Y-120681000D01*
X164658003Y-120681000D01*
X164516775Y-120709092D01*
X164383742Y-120764196D01*
X164264015Y-120844195D01*
X164162195Y-120946015D01*
X164082196Y-121065742D01*
X164027092Y-121198775D01*
X163999000Y-121340003D01*
X163661000Y-121340003D01*
X163632908Y-121198775D01*
X163577804Y-121065742D01*
X163497805Y-120946015D01*
X163395985Y-120844195D01*
X163276258Y-120764196D01*
X163143225Y-120709092D01*
X163001997Y-120681000D01*
X162858003Y-120681000D01*
X162716775Y-120709092D01*
X162583742Y-120764196D01*
X162464015Y-120844195D01*
X162362195Y-120946015D01*
X162282196Y-121065742D01*
X162227092Y-121198775D01*
X162199000Y-121340003D01*
X147309634Y-121340003D01*
X144894235Y-118924605D01*
X148717000Y-115101841D01*
X148717000Y-118364000D01*
X148719440Y-118388776D01*
X148726667Y-118412601D01*
X148738403Y-118434557D01*
X148754197Y-118453803D01*
X148773443Y-118469597D01*
X148795399Y-118481333D01*
X148819224Y-118488560D01*
X148844000Y-118491000D01*
X168890000Y-118491000D01*
X168890000Y-135685795D01*
X168815442Y-136713348D01*
X168597312Y-137701348D01*
X168238840Y-138647521D01*
X167747537Y-139532033D01*
X167133695Y-140336357D01*
X166410181Y-141043639D01*
X165592132Y-141639079D01*
X164696707Y-142110183D01*
X163742645Y-142447098D01*
X162747105Y-142643318D01*
X161882487Y-142696200D01*
X97916405Y-142696200D01*
X96888852Y-142621642D01*
X95900852Y-142403512D01*
X94954679Y-142045040D01*
X94070167Y-141553737D01*
X93265843Y-140939895D01*
X92558561Y-140216381D01*
X91963121Y-139398332D01*
X91492017Y-138502907D01*
X91155102Y-137548845D01*
X91088222Y-137209519D01*
X92560600Y-137209519D01*
X92560600Y-137864881D01*
X92688455Y-138507650D01*
X92939251Y-139113125D01*
X93303350Y-139658039D01*
X93766761Y-140121450D01*
X94311675Y-140485549D01*
X94917150Y-140736345D01*
X95559919Y-140864200D01*
X96215281Y-140864200D01*
X96858050Y-140736345D01*
X97463525Y-140485549D01*
X98008439Y-140121450D01*
X98471850Y-139658039D01*
X98835949Y-139113125D01*
X99086745Y-138507650D01*
X99186168Y-138007814D01*
X124959000Y-138007814D01*
X124959001Y-139204187D01*
X124973196Y-139348310D01*
X125029290Y-139533229D01*
X125120383Y-139703651D01*
X125242973Y-139853028D01*
X125392350Y-139975618D01*
X125562772Y-140066711D01*
X125747691Y-140122805D01*
X125940000Y-140141746D01*
X126132310Y-140122805D01*
X126317229Y-140066711D01*
X126487651Y-139975618D01*
X126637028Y-139853028D01*
X126759618Y-139703651D01*
X126850711Y-139533229D01*
X126906805Y-139348310D01*
X126921000Y-139204187D01*
X126921000Y-138007814D01*
X132159000Y-138007814D01*
X132159001Y-139204187D01*
X132173196Y-139348310D01*
X132229290Y-139533229D01*
X132320383Y-139703651D01*
X132442973Y-139853028D01*
X132592350Y-139975618D01*
X132762772Y-140066711D01*
X132947691Y-140122805D01*
X133140000Y-140141746D01*
X133332310Y-140122805D01*
X133517229Y-140066711D01*
X133687651Y-139975618D01*
X133837028Y-139853028D01*
X133959618Y-139703651D01*
X134050711Y-139533229D01*
X134106805Y-139348310D01*
X134121000Y-139204187D01*
X134121000Y-138007813D01*
X134106805Y-137863690D01*
X134050711Y-137678771D01*
X133959618Y-137508349D01*
X133837028Y-137358972D01*
X133809669Y-137336519D01*
X160531000Y-137336519D01*
X160531000Y-137991881D01*
X160658855Y-138634650D01*
X160909651Y-139240125D01*
X161273750Y-139785039D01*
X161737161Y-140248450D01*
X162282075Y-140612549D01*
X162887550Y-140863345D01*
X163530319Y-140991200D01*
X164185681Y-140991200D01*
X164828450Y-140863345D01*
X165433925Y-140612549D01*
X165978839Y-140248450D01*
X166442250Y-139785039D01*
X166806349Y-139240125D01*
X167057145Y-138634650D01*
X167185000Y-137991881D01*
X167185000Y-137336519D01*
X167057145Y-136693750D01*
X166806349Y-136088275D01*
X166442250Y-135543361D01*
X165978839Y-135079950D01*
X165433925Y-134715851D01*
X164828450Y-134465055D01*
X164185681Y-134337200D01*
X163530319Y-134337200D01*
X162887550Y-134465055D01*
X162282075Y-134715851D01*
X161737161Y-135079950D01*
X161273750Y-135543361D01*
X160909651Y-136088275D01*
X160658855Y-136693750D01*
X160531000Y-137336519D01*
X133809669Y-137336519D01*
X133687651Y-137236382D01*
X133517228Y-137145289D01*
X133332309Y-137089195D01*
X133140000Y-137070254D01*
X132947690Y-137089195D01*
X132762771Y-137145289D01*
X132592349Y-137236382D01*
X132442972Y-137358972D01*
X132320382Y-137508349D01*
X132229289Y-137678772D01*
X132173195Y-137863691D01*
X132159000Y-138007814D01*
X126921000Y-138007814D01*
X126921000Y-138007813D01*
X126906805Y-137863690D01*
X126850711Y-137678771D01*
X126759618Y-137508349D01*
X126637028Y-137358972D01*
X126487651Y-137236382D01*
X126317228Y-137145289D01*
X126132309Y-137089195D01*
X125940000Y-137070254D01*
X125747690Y-137089195D01*
X125562771Y-137145289D01*
X125392349Y-137236382D01*
X125242972Y-137358972D01*
X125120382Y-137508349D01*
X125029289Y-137678772D01*
X124973195Y-137863691D01*
X124959000Y-138007814D01*
X99186168Y-138007814D01*
X99214600Y-137864881D01*
X99214600Y-137209519D01*
X99086745Y-136566750D01*
X98835949Y-135961275D01*
X98471850Y-135416361D01*
X98008439Y-134952950D01*
X97463525Y-134588851D01*
X96858050Y-134338055D01*
X96215281Y-134210200D01*
X95559919Y-134210200D01*
X94917150Y-134338055D01*
X94311675Y-134588851D01*
X93766761Y-134952950D01*
X93303350Y-135416361D01*
X92939251Y-135961275D01*
X92688455Y-136566750D01*
X92560600Y-137209519D01*
X91088222Y-137209519D01*
X90958882Y-136553305D01*
X90906000Y-135688687D01*
X90906000Y-132302769D01*
X110700836Y-132302769D01*
X110760297Y-132536537D01*
X110998742Y-132647434D01*
X111254240Y-132709683D01*
X111516973Y-132720890D01*
X111776844Y-132680625D01*
X112023866Y-132590435D01*
X112124703Y-132536537D01*
X112184164Y-132302769D01*
X111442500Y-131561105D01*
X110700836Y-132302769D01*
X90906000Y-132302769D01*
X90906000Y-131455973D01*
X110103110Y-131455973D01*
X110143375Y-131715844D01*
X110233565Y-131962866D01*
X110287463Y-132063703D01*
X110521231Y-132123164D01*
X111262895Y-131381500D01*
X111622105Y-131381500D01*
X112363769Y-132123164D01*
X112597537Y-132063703D01*
X112708434Y-131825258D01*
X112770683Y-131569760D01*
X112781890Y-131307027D01*
X112741625Y-131047156D01*
X112651435Y-130800134D01*
X112597537Y-130699297D01*
X112363769Y-130639836D01*
X111622105Y-131381500D01*
X111262895Y-131381500D01*
X110521231Y-130639836D01*
X110287463Y-130699297D01*
X110176566Y-130937742D01*
X110114317Y-131193240D01*
X110103110Y-131455973D01*
X90906000Y-131455973D01*
X90906000Y-128669820D01*
X110357117Y-128669820D01*
X110357117Y-130069820D01*
X110364473Y-130144509D01*
X110386259Y-130216328D01*
X110421638Y-130282516D01*
X110469249Y-130340531D01*
X110527264Y-130388142D01*
X110593452Y-130423521D01*
X110665271Y-130445307D01*
X110703670Y-130449089D01*
X110700836Y-130460231D01*
X111442500Y-131201895D01*
X112184164Y-130460231D01*
X112181206Y-130448601D01*
X112214649Y-130445307D01*
X112286468Y-130423521D01*
X112352656Y-130388142D01*
X112410671Y-130340531D01*
X112458282Y-130282516D01*
X112493661Y-130216328D01*
X112515447Y-130144509D01*
X112522803Y-130069820D01*
X112522803Y-128669820D01*
X112515447Y-128595131D01*
X112493661Y-128523312D01*
X112458282Y-128457124D01*
X112410671Y-128399109D01*
X112352656Y-128351498D01*
X112286468Y-128316119D01*
X112214649Y-128294333D01*
X112139960Y-128286977D01*
X110739960Y-128286977D01*
X110665271Y-128294333D01*
X110593452Y-128316119D01*
X110527264Y-128351498D01*
X110469249Y-128399109D01*
X110421638Y-128457124D01*
X110386259Y-128523312D01*
X110364473Y-128595131D01*
X110357117Y-128669820D01*
X90906000Y-128669820D01*
X90906000Y-118546003D01*
X111029000Y-118546003D01*
X111029000Y-118689997D01*
X111057092Y-118831225D01*
X111112196Y-118964258D01*
X111192195Y-119083985D01*
X111252000Y-119143790D01*
X111252001Y-121347985D01*
X111249543Y-121372939D01*
X111254115Y-121419351D01*
X111259352Y-121472524D01*
X111266343Y-121495571D01*
X111288400Y-121568282D01*
X111335571Y-121656534D01*
X111380679Y-121711498D01*
X111399053Y-121733887D01*
X111418430Y-121749789D01*
X113735121Y-124066481D01*
X113652112Y-124149490D01*
X113572113Y-124269217D01*
X113517009Y-124402250D01*
X113488917Y-124543478D01*
X113488917Y-124687472D01*
X113517009Y-124828700D01*
X113572113Y-124961733D01*
X113652112Y-125081460D01*
X113711917Y-125141265D01*
X113711918Y-127402963D01*
X113709460Y-127427917D01*
X113713210Y-127465985D01*
X113719269Y-127527502D01*
X113731495Y-127567805D01*
X113748317Y-127623260D01*
X113795488Y-127711512D01*
X113842956Y-127769352D01*
X113858970Y-127788865D01*
X113878347Y-127804767D01*
X114915080Y-128841500D01*
X114825790Y-128841500D01*
X114765985Y-128781695D01*
X114646258Y-128701696D01*
X114513225Y-128646592D01*
X114371997Y-128618500D01*
X114228003Y-128618500D01*
X114086775Y-128646592D01*
X113953742Y-128701696D01*
X113834015Y-128781695D01*
X113732195Y-128883515D01*
X113652196Y-129003242D01*
X113597092Y-129136275D01*
X113569000Y-129277503D01*
X113569000Y-129421497D01*
X113597092Y-129562725D01*
X113652196Y-129695758D01*
X113732195Y-129815485D01*
X113834015Y-129917305D01*
X113953742Y-129997304D01*
X114086775Y-130052408D01*
X114228003Y-130080500D01*
X114371997Y-130080500D01*
X114513225Y-130052408D01*
X114646258Y-129997304D01*
X114765985Y-129917305D01*
X114825790Y-129857500D01*
X118407580Y-129857500D01*
X119507000Y-130956921D01*
X119507000Y-131025446D01*
X119507001Y-131025456D01*
X119507000Y-134284710D01*
X119447195Y-134344515D01*
X119367196Y-134464242D01*
X119312092Y-134597275D01*
X119284000Y-134738503D01*
X119284000Y-134882497D01*
X119312092Y-135023725D01*
X119355284Y-135128000D01*
X119282385Y-135128000D01*
X115403474Y-131249089D01*
X115403474Y-131164512D01*
X115375382Y-131023284D01*
X115320278Y-130890251D01*
X115240279Y-130770524D01*
X115138459Y-130668704D01*
X115018732Y-130588705D01*
X114885699Y-130533601D01*
X114744471Y-130505509D01*
X114600477Y-130505509D01*
X114459249Y-130533601D01*
X114326216Y-130588705D01*
X114206489Y-130668704D01*
X114104669Y-130770524D01*
X114024670Y-130890251D01*
X113969566Y-131023284D01*
X113941474Y-131164512D01*
X113941474Y-131308506D01*
X113969566Y-131449734D01*
X114024670Y-131582767D01*
X114104669Y-131702494D01*
X114206489Y-131804314D01*
X114326216Y-131884313D01*
X114459249Y-131939417D01*
X114600477Y-131967509D01*
X114685054Y-131967509D01*
X118322556Y-135605011D01*
X115812932Y-135605011D01*
X115412000Y-135204080D01*
X115412000Y-135119503D01*
X115383908Y-134978275D01*
X115328804Y-134845242D01*
X115248805Y-134725515D01*
X115146985Y-134623695D01*
X115027258Y-134543696D01*
X114894225Y-134488592D01*
X114752997Y-134460500D01*
X114609003Y-134460500D01*
X114467775Y-134488592D01*
X114334742Y-134543696D01*
X114215015Y-134623695D01*
X114113195Y-134725515D01*
X114033196Y-134845242D01*
X113978092Y-134978275D01*
X113950000Y-135119503D01*
X113950000Y-135195268D01*
X113888804Y-135207441D01*
X113755771Y-135262545D01*
X113636044Y-135342544D01*
X113534224Y-135444364D01*
X113454225Y-135564091D01*
X113399121Y-135697124D01*
X113371029Y-135838352D01*
X113371029Y-135982346D01*
X113399121Y-136123574D01*
X113454225Y-136256607D01*
X113534224Y-136376334D01*
X113636044Y-136478154D01*
X113755771Y-136558153D01*
X113888804Y-136613257D01*
X114030032Y-136641349D01*
X114114609Y-136641349D01*
X114404847Y-136931587D01*
X114420754Y-136950970D01*
X114498107Y-137014451D01*
X114586359Y-137061623D01*
X114682117Y-137090671D01*
X114756755Y-137098022D01*
X114756758Y-137098022D01*
X114781702Y-137100479D01*
X114806646Y-137098022D01*
X122487517Y-137098022D01*
X122512461Y-137100479D01*
X122537405Y-137098022D01*
X122537408Y-137098022D01*
X122612046Y-137090671D01*
X122707804Y-137061623D01*
X122796056Y-137014451D01*
X122873409Y-136950970D01*
X122889316Y-136931587D01*
X124959000Y-134861903D01*
X124959001Y-135654187D01*
X124973196Y-135798310D01*
X125029290Y-135983229D01*
X125120383Y-136153651D01*
X125242973Y-136303028D01*
X125392350Y-136425618D01*
X125562772Y-136516711D01*
X125747691Y-136572805D01*
X125940000Y-136591746D01*
X126132310Y-136572805D01*
X126317229Y-136516711D01*
X126487651Y-136425618D01*
X126637028Y-136303028D01*
X126759618Y-136153651D01*
X126850711Y-135983229D01*
X126906805Y-135798310D01*
X126921000Y-135654187D01*
X126921000Y-134457814D01*
X132159000Y-134457814D01*
X132159001Y-135654187D01*
X132173196Y-135798310D01*
X132229290Y-135983229D01*
X132320383Y-136153651D01*
X132442973Y-136303028D01*
X132592350Y-136425618D01*
X132762772Y-136516711D01*
X132947691Y-136572805D01*
X133140000Y-136591746D01*
X133332310Y-136572805D01*
X133517229Y-136516711D01*
X133687651Y-136425618D01*
X133837028Y-136303028D01*
X133959618Y-136153651D01*
X134050711Y-135983229D01*
X134106805Y-135798310D01*
X134121000Y-135654187D01*
X134121000Y-134457813D01*
X134106805Y-134313690D01*
X134050711Y-134128771D01*
X133959618Y-133958349D01*
X133837028Y-133808972D01*
X133687651Y-133686382D01*
X133517228Y-133595289D01*
X133332309Y-133539195D01*
X133140000Y-133520254D01*
X132947690Y-133539195D01*
X132762771Y-133595289D01*
X132592349Y-133686382D01*
X132442972Y-133808972D01*
X132320382Y-133958349D01*
X132229289Y-134128772D01*
X132173195Y-134313691D01*
X132159000Y-134457814D01*
X126921000Y-134457814D01*
X126921000Y-134457813D01*
X126906805Y-134313690D01*
X126850711Y-134128771D01*
X126759618Y-133958349D01*
X126637028Y-133808972D01*
X126487651Y-133686382D01*
X126317228Y-133595289D01*
X126246936Y-133573967D01*
X128502903Y-131318000D01*
X130012182Y-131318000D01*
X130006015Y-131349002D01*
X129912503Y-131349002D01*
X129771275Y-131377094D01*
X129638242Y-131432198D01*
X129518515Y-131512197D01*
X129416695Y-131614017D01*
X129336696Y-131733744D01*
X129281592Y-131866777D01*
X129253500Y-132008005D01*
X129253500Y-132151999D01*
X129281592Y-132293227D01*
X129336696Y-132426260D01*
X129416695Y-132545987D01*
X129518515Y-132647807D01*
X129638242Y-132727806D01*
X129771275Y-132782910D01*
X129912503Y-132811002D01*
X130033001Y-132811002D01*
X130497481Y-133275482D01*
X130512597Y-133293901D01*
X130586083Y-133354209D01*
X130669921Y-133399022D01*
X130760892Y-133426617D01*
X130831791Y-133433600D01*
X130831792Y-133433600D01*
X130855497Y-133435935D01*
X130879202Y-133433600D01*
X137370810Y-133433600D01*
X137456015Y-133518805D01*
X137575742Y-133598804D01*
X137708775Y-133653908D01*
X137850003Y-133682000D01*
X137993997Y-133682000D01*
X138135225Y-133653908D01*
X138268258Y-133598804D01*
X138387985Y-133518805D01*
X138489805Y-133416985D01*
X138569804Y-133297258D01*
X138624908Y-133164225D01*
X138653000Y-133022997D01*
X138653000Y-132879003D01*
X138624908Y-132737775D01*
X138569804Y-132604742D01*
X138489805Y-132485015D01*
X138480790Y-132476000D01*
X138489805Y-132466985D01*
X138569804Y-132347258D01*
X138624908Y-132214225D01*
X138653000Y-132072997D01*
X138653000Y-131929003D01*
X138624908Y-131787775D01*
X138569804Y-131654742D01*
X138489805Y-131535015D01*
X138387985Y-131433195D01*
X138268258Y-131353196D01*
X138183287Y-131318000D01*
X141199056Y-131318000D01*
X141224000Y-131320457D01*
X141248944Y-131318000D01*
X141248947Y-131318000D01*
X141323585Y-131310649D01*
X141419343Y-131281601D01*
X141507595Y-131234429D01*
X141584948Y-131170948D01*
X141600855Y-131151565D01*
X145783421Y-126969000D01*
X145867997Y-126969000D01*
X146009225Y-126940908D01*
X146040380Y-126928003D01*
X158527000Y-126928003D01*
X158527000Y-127071997D01*
X158555092Y-127213225D01*
X158610196Y-127346258D01*
X158690195Y-127465985D01*
X158792015Y-127567805D01*
X158911742Y-127647804D01*
X159044775Y-127702908D01*
X159186003Y-127731000D01*
X159329997Y-127731000D01*
X159471225Y-127702908D01*
X159604258Y-127647804D01*
X159723985Y-127567805D01*
X159783790Y-127508000D01*
X161018210Y-127508000D01*
X161078015Y-127567805D01*
X161197742Y-127647804D01*
X161330775Y-127702908D01*
X161472003Y-127731000D01*
X161615997Y-127731000D01*
X161757225Y-127702908D01*
X161890258Y-127647804D01*
X162009985Y-127567805D01*
X162111805Y-127465985D01*
X162191804Y-127346258D01*
X162246908Y-127213225D01*
X162275000Y-127071997D01*
X162275000Y-126928003D01*
X162246908Y-126786775D01*
X162191804Y-126653742D01*
X162111805Y-126534015D01*
X162009985Y-126432195D01*
X161890258Y-126352196D01*
X161757225Y-126297092D01*
X161615997Y-126269000D01*
X161472003Y-126269000D01*
X161330775Y-126297092D01*
X161197742Y-126352196D01*
X161078015Y-126432195D01*
X161018210Y-126492000D01*
X159783790Y-126492000D01*
X159723985Y-126432195D01*
X159604258Y-126352196D01*
X159471225Y-126297092D01*
X159329997Y-126269000D01*
X159186003Y-126269000D01*
X159044775Y-126297092D01*
X158911742Y-126352196D01*
X158792015Y-126432195D01*
X158690195Y-126534015D01*
X158610196Y-126653742D01*
X158555092Y-126786775D01*
X158527000Y-126928003D01*
X146040380Y-126928003D01*
X146142258Y-126885804D01*
X146261985Y-126805805D01*
X146363805Y-126703985D01*
X146443804Y-126584258D01*
X146498908Y-126451225D01*
X146527000Y-126309997D01*
X146527000Y-126166003D01*
X146498908Y-126024775D01*
X146443804Y-125891742D01*
X146363805Y-125772015D01*
X146261985Y-125670195D01*
X146142258Y-125590196D01*
X146009225Y-125535092D01*
X145954085Y-125524124D01*
X145990908Y-125435225D01*
X146019000Y-125293997D01*
X146019000Y-125150003D01*
X145990908Y-125008775D01*
X145935804Y-124875742D01*
X145855805Y-124756015D01*
X145753985Y-124654195D01*
X145634258Y-124574196D01*
X145501225Y-124519092D01*
X145359997Y-124491000D01*
X145216003Y-124491000D01*
X145074775Y-124519092D01*
X145034000Y-124535982D01*
X145034000Y-123080790D01*
X145093805Y-123020985D01*
X145173804Y-122901258D01*
X145228908Y-122768225D01*
X145257000Y-122626997D01*
X145257000Y-122483003D01*
X145228908Y-122341775D01*
X145173804Y-122208742D01*
X145093805Y-122089015D01*
X144991985Y-121987195D01*
X144872258Y-121907196D01*
X144739225Y-121852092D01*
X144726797Y-121849620D01*
X144749000Y-121737997D01*
X144749000Y-121594003D01*
X144720908Y-121452775D01*
X144665804Y-121319742D01*
X144585805Y-121200015D01*
X144483985Y-121098195D01*
X144364258Y-121018196D01*
X144231225Y-120963092D01*
X144089997Y-120935000D01*
X143946003Y-120935000D01*
X143804775Y-120963092D01*
X143671742Y-121018196D01*
X143552015Y-121098195D01*
X143450195Y-121200015D01*
X143370196Y-121319742D01*
X143315092Y-121452775D01*
X143287000Y-121594003D01*
X143287000Y-121737997D01*
X143287536Y-121740692D01*
X143263352Y-121820416D01*
X143253543Y-121920000D01*
X143256001Y-121944954D01*
X143256000Y-124630580D01*
X139616580Y-128270000D01*
X127278943Y-128270000D01*
X127253999Y-128267543D01*
X127229055Y-128270000D01*
X127229053Y-128270000D01*
X127154415Y-128277351D01*
X127058657Y-128306399D01*
X127058655Y-128306400D01*
X126970404Y-128353571D01*
X126915810Y-128398376D01*
X126893052Y-128417052D01*
X126877150Y-128436429D01*
X121709580Y-133604000D01*
X121666000Y-133604000D01*
X121666000Y-130326944D01*
X121668457Y-130302000D01*
X121664681Y-130263660D01*
X121658649Y-130202415D01*
X121629601Y-130106657D01*
X121595100Y-130042110D01*
X121582429Y-130018404D01*
X121534850Y-129960429D01*
X121518948Y-129941052D01*
X121499571Y-129925150D01*
X120015087Y-128440666D01*
X124587000Y-128440666D01*
X124599864Y-128571273D01*
X124650697Y-128738850D01*
X124733247Y-128893290D01*
X124844341Y-129028659D01*
X124979709Y-129139753D01*
X125134149Y-129222303D01*
X125301726Y-129273136D01*
X125476000Y-129290301D01*
X125650273Y-129273136D01*
X125817850Y-129222303D01*
X125972290Y-129139753D01*
X126107659Y-129028659D01*
X126218753Y-128893291D01*
X126301303Y-128738851D01*
X126352136Y-128571274D01*
X126365000Y-128440667D01*
X126365000Y-121368333D01*
X126352136Y-121237726D01*
X126301303Y-121070149D01*
X126218753Y-120915709D01*
X126107659Y-120780341D01*
X125972291Y-120669247D01*
X125817851Y-120586697D01*
X125650274Y-120535864D01*
X125476000Y-120518699D01*
X125301727Y-120535864D01*
X125134150Y-120586697D01*
X124979710Y-120669247D01*
X124844342Y-120780341D01*
X124733248Y-120915709D01*
X124650698Y-121070149D01*
X124599865Y-121237726D01*
X124587001Y-121368333D01*
X124587000Y-128440666D01*
X120015087Y-128440666D01*
X119502855Y-127928435D01*
X119486948Y-127909052D01*
X119409595Y-127845571D01*
X119321343Y-127798399D01*
X119225585Y-127769351D01*
X119150947Y-127762000D01*
X119150944Y-127762000D01*
X119126000Y-127759543D01*
X119101056Y-127762000D01*
X116034421Y-127762000D01*
X115316000Y-127043580D01*
X115316000Y-125901821D01*
X115365378Y-125934814D01*
X115498411Y-125989918D01*
X115639639Y-126018010D01*
X115725122Y-126018010D01*
X115778039Y-126061438D01*
X115866290Y-126108609D01*
X115866292Y-126108610D01*
X115962050Y-126137658D01*
X116036688Y-126145009D01*
X116036690Y-126145009D01*
X116061634Y-126147466D01*
X116086578Y-126145009D01*
X118686047Y-126145009D01*
X118710991Y-126147466D01*
X118735935Y-126145009D01*
X118735938Y-126145009D01*
X118810576Y-126137658D01*
X118906334Y-126108610D01*
X118994586Y-126061438D01*
X119071939Y-125997957D01*
X119087846Y-125978574D01*
X119844420Y-125222000D01*
X120632210Y-125222000D01*
X120692015Y-125281805D01*
X120811742Y-125361804D01*
X120944775Y-125416908D01*
X121086003Y-125445000D01*
X121229997Y-125445000D01*
X121371225Y-125416908D01*
X121504258Y-125361804D01*
X121623985Y-125281805D01*
X121725805Y-125179985D01*
X121805804Y-125060258D01*
X121860908Y-124927225D01*
X121889000Y-124785997D01*
X121889000Y-124642003D01*
X121860908Y-124500775D01*
X121805804Y-124367742D01*
X121725805Y-124248015D01*
X121623985Y-124146195D01*
X121504258Y-124066196D01*
X121371225Y-124011092D01*
X121229997Y-123983000D01*
X121086003Y-123983000D01*
X120944775Y-124011092D01*
X120811742Y-124066196D01*
X120692015Y-124146195D01*
X120632210Y-124206000D01*
X119658944Y-124206000D01*
X119634000Y-124203543D01*
X119609056Y-124206000D01*
X119609053Y-124206000D01*
X119534415Y-124213351D01*
X119438657Y-124242399D01*
X119350405Y-124289571D01*
X119273052Y-124353052D01*
X119263646Y-124364513D01*
X119185805Y-124248015D01*
X119083985Y-124146195D01*
X118964258Y-124066196D01*
X118831225Y-124011092D01*
X118689997Y-123983000D01*
X118546003Y-123983000D01*
X118404775Y-124011092D01*
X118271742Y-124066196D01*
X118152015Y-124146195D01*
X118092210Y-124206000D01*
X116541514Y-124206000D01*
X116488595Y-124162571D01*
X116400343Y-124115399D01*
X116304585Y-124086351D01*
X116229947Y-124079000D01*
X116229944Y-124079000D01*
X116205000Y-124076543D01*
X116180056Y-124079000D01*
X115418275Y-124079000D01*
X115427777Y-124056059D01*
X115455869Y-123914831D01*
X115455869Y-123770837D01*
X115427777Y-123629609D01*
X115372673Y-123496576D01*
X115292674Y-123376849D01*
X115190854Y-123275029D01*
X115071127Y-123195030D01*
X114938094Y-123139926D01*
X114796866Y-123111834D01*
X114652872Y-123111834D01*
X114511644Y-123139926D01*
X114378611Y-123195030D01*
X114331794Y-123226312D01*
X114035826Y-122930344D01*
X114704750Y-122928500D01*
X114863500Y-122769750D01*
X114863500Y-122086895D01*
X114875041Y-122098436D01*
X114990500Y-122092155D01*
X115105959Y-122098436D01*
X115117500Y-122086895D01*
X115117500Y-122769750D01*
X115276250Y-122928500D01*
X116151875Y-122930914D01*
X116192196Y-123028258D01*
X116272195Y-123147985D01*
X116374015Y-123249805D01*
X116493742Y-123329804D01*
X116626775Y-123384908D01*
X116768003Y-123413000D01*
X116911997Y-123413000D01*
X117053225Y-123384908D01*
X117186258Y-123329804D01*
X117305985Y-123249805D01*
X117365790Y-123190000D01*
X118778778Y-123190000D01*
X118803722Y-123192457D01*
X118828666Y-123190000D01*
X118828669Y-123190000D01*
X118903307Y-123182649D01*
X118999065Y-123153601D01*
X119087317Y-123106429D01*
X119164670Y-123042948D01*
X119180577Y-123023565D01*
X120761152Y-121442990D01*
X120845729Y-121442990D01*
X120986957Y-121414898D01*
X121119990Y-121359794D01*
X121239717Y-121279795D01*
X121341537Y-121177975D01*
X121421536Y-121058248D01*
X121476640Y-120925215D01*
X121504732Y-120783987D01*
X121504732Y-120639993D01*
X121476640Y-120498765D01*
X121421536Y-120365732D01*
X121341537Y-120246005D01*
X121239717Y-120144185D01*
X121119990Y-120064186D01*
X120986957Y-120009082D01*
X120845729Y-119980990D01*
X120701735Y-119980990D01*
X120560507Y-120009082D01*
X120427474Y-120064186D01*
X120307747Y-120144185D01*
X120205927Y-120246005D01*
X120125928Y-120365732D01*
X120070824Y-120498765D01*
X120042732Y-120639993D01*
X120042732Y-120724570D01*
X118593302Y-122174000D01*
X117365790Y-122174000D01*
X117305985Y-122114195D01*
X117186258Y-122034196D01*
X117053225Y-121979092D01*
X117027436Y-121973962D01*
X117025500Y-121429250D01*
X116866750Y-121270500D01*
X116598071Y-121270500D01*
X116569908Y-121202149D01*
X116568263Y-121199075D01*
X116470357Y-121193749D01*
X116420108Y-121143500D01*
X116470357Y-121093251D01*
X116568263Y-121087925D01*
X116598004Y-121016500D01*
X116866750Y-121016500D01*
X117025500Y-120857750D01*
X117028572Y-119993500D01*
X117016312Y-119869018D01*
X116980002Y-119749320D01*
X116921037Y-119639006D01*
X116841685Y-119542315D01*
X116744994Y-119462963D01*
X116634680Y-119403998D01*
X116514982Y-119367688D01*
X116390500Y-119355428D01*
X115276250Y-119358500D01*
X115117500Y-119517250D01*
X115117500Y-120200105D01*
X115105959Y-120188564D01*
X114990500Y-120194845D01*
X114875041Y-120188564D01*
X114863500Y-120200105D01*
X114863500Y-119517250D01*
X114704750Y-119358500D01*
X113590500Y-119355428D01*
X113466018Y-119367688D01*
X113346320Y-119403998D01*
X113236006Y-119462963D01*
X113139315Y-119542315D01*
X113059963Y-119639006D01*
X113000998Y-119749320D01*
X112964688Y-119869018D01*
X112952428Y-119993500D01*
X112955500Y-120857750D01*
X113114250Y-121016500D01*
X113382929Y-121016500D01*
X113411092Y-121084851D01*
X113412737Y-121087925D01*
X113510643Y-121093251D01*
X113560892Y-121143500D01*
X113510643Y-121193749D01*
X113412737Y-121199075D01*
X113382996Y-121270500D01*
X113114250Y-121270500D01*
X112955500Y-121429250D01*
X112954010Y-121848528D01*
X112268000Y-121162519D01*
X112268000Y-119143790D01*
X112327805Y-119083985D01*
X112407804Y-118964258D01*
X112462908Y-118831225D01*
X112491000Y-118689997D01*
X112491000Y-118546003D01*
X112462908Y-118404775D01*
X112407804Y-118271742D01*
X112327805Y-118152015D01*
X112225985Y-118050195D01*
X112106258Y-117970196D01*
X111973225Y-117915092D01*
X111831997Y-117887000D01*
X111688003Y-117887000D01*
X111546775Y-117915092D01*
X111413742Y-117970196D01*
X111294015Y-118050195D01*
X111192195Y-118152015D01*
X111112196Y-118271742D01*
X111057092Y-118404775D01*
X111029000Y-118546003D01*
X90906000Y-118546003D01*
X90906000Y-109910003D01*
X95027000Y-109910003D01*
X95027000Y-110053997D01*
X95055092Y-110195225D01*
X95110196Y-110328258D01*
X95190195Y-110447985D01*
X95292015Y-110549805D01*
X95411742Y-110629804D01*
X95544775Y-110684908D01*
X95686003Y-110713000D01*
X95829997Y-110713000D01*
X95971225Y-110684908D01*
X96104258Y-110629804D01*
X96223985Y-110549805D01*
X96325805Y-110447985D01*
X96405804Y-110328258D01*
X96460908Y-110195225D01*
X96489000Y-110053997D01*
X96489000Y-109910003D01*
X96460908Y-109768775D01*
X96405804Y-109635742D01*
X96325805Y-109516015D01*
X96266000Y-109456210D01*
X96266000Y-108599424D01*
X114235000Y-108599424D01*
X114235000Y-108824576D01*
X114278925Y-109045401D01*
X114365087Y-109253413D01*
X114490174Y-109440620D01*
X114649380Y-109599826D01*
X114836587Y-109724913D01*
X115044599Y-109811075D01*
X115265424Y-109855000D01*
X115490576Y-109855000D01*
X115711401Y-109811075D01*
X115919413Y-109724913D01*
X116106620Y-109599826D01*
X116265826Y-109440620D01*
X116390913Y-109253413D01*
X116477075Y-109045401D01*
X116521000Y-108824576D01*
X116521000Y-108599424D01*
X116477075Y-108378599D01*
X116390913Y-108170587D01*
X116265826Y-107983380D01*
X116106620Y-107824174D01*
X115919413Y-107699087D01*
X115711401Y-107612925D01*
X115490576Y-107569000D01*
X115482614Y-107569000D01*
X115722133Y-107532922D01*
X115981023Y-107439636D01*
X116096980Y-107377656D01*
X116163960Y-107137565D01*
X115378000Y-106351605D01*
X114592040Y-107137565D01*
X114659020Y-107377656D01*
X114908048Y-107494756D01*
X115175135Y-107561023D01*
X115345286Y-107569000D01*
X115265424Y-107569000D01*
X115044599Y-107612925D01*
X114836587Y-107699087D01*
X114649380Y-107824174D01*
X114490174Y-107983380D01*
X114365087Y-108170587D01*
X114278925Y-108378599D01*
X114235000Y-108599424D01*
X96266000Y-108599424D01*
X96266000Y-108364247D01*
X96276828Y-108371482D01*
X96449715Y-108463892D01*
X96518720Y-108492475D01*
X96706313Y-108549380D01*
X96779565Y-108563950D01*
X96974655Y-108583165D01*
X97012000Y-108585000D01*
X106265786Y-108585000D01*
X106303131Y-108583165D01*
X106498222Y-108563950D01*
X106571474Y-108549380D01*
X106759067Y-108492475D01*
X106828072Y-108463892D01*
X107000959Y-108371482D01*
X107063062Y-108329986D01*
X107214598Y-108205623D01*
X107242301Y-108180515D01*
X109178799Y-106244017D01*
X113976090Y-106244017D01*
X114017078Y-106516133D01*
X114110364Y-106775023D01*
X114172344Y-106890980D01*
X114412435Y-106957960D01*
X115198395Y-106172000D01*
X115557605Y-106172000D01*
X116343565Y-106957960D01*
X116583656Y-106890980D01*
X116700756Y-106641952D01*
X116767023Y-106374865D01*
X116779910Y-106099983D01*
X116738922Y-105827867D01*
X116645636Y-105568977D01*
X116583656Y-105453020D01*
X116343565Y-105386040D01*
X115557605Y-106172000D01*
X115198395Y-106172000D01*
X114412435Y-105386040D01*
X114172344Y-105453020D01*
X114055244Y-105702048D01*
X113988977Y-105969135D01*
X113976090Y-106244017D01*
X109178799Y-106244017D01*
X111736515Y-103686301D01*
X111761623Y-103658598D01*
X111875840Y-103519424D01*
X114235000Y-103519424D01*
X114235000Y-103744576D01*
X114278925Y-103965401D01*
X114365087Y-104173413D01*
X114490174Y-104360620D01*
X114649380Y-104519826D01*
X114836587Y-104644913D01*
X115044599Y-104731075D01*
X115265424Y-104775000D01*
X115273386Y-104775000D01*
X115033867Y-104811078D01*
X114774977Y-104904364D01*
X114659020Y-104966344D01*
X114592040Y-105206435D01*
X115378000Y-105992395D01*
X116163960Y-105206435D01*
X116096980Y-104966344D01*
X115847952Y-104849244D01*
X115580865Y-104782977D01*
X115410714Y-104775000D01*
X115490576Y-104775000D01*
X115711401Y-104731075D01*
X115919413Y-104644913D01*
X116106620Y-104519826D01*
X116265826Y-104360620D01*
X116390913Y-104173413D01*
X116477075Y-103965401D01*
X116521000Y-103744576D01*
X116521000Y-103519424D01*
X116477075Y-103298599D01*
X116390913Y-103090587D01*
X116265826Y-102903380D01*
X116106620Y-102744174D01*
X115919413Y-102619087D01*
X115711401Y-102532925D01*
X115490576Y-102489000D01*
X115265424Y-102489000D01*
X115044599Y-102532925D01*
X114836587Y-102619087D01*
X114649380Y-102744174D01*
X114490174Y-102903380D01*
X114365087Y-103090587D01*
X114278925Y-103298599D01*
X114235000Y-103519424D01*
X111875840Y-103519424D01*
X111885986Y-103507062D01*
X111927482Y-103444959D01*
X112019892Y-103272072D01*
X112048475Y-103203067D01*
X112105380Y-103015474D01*
X112119950Y-102942222D01*
X112139165Y-102747131D01*
X112141000Y-102709786D01*
X112141000Y-100979424D01*
X114235000Y-100979424D01*
X114235000Y-101204576D01*
X114278925Y-101425401D01*
X114365087Y-101633413D01*
X114490174Y-101820620D01*
X114649380Y-101979826D01*
X114836587Y-102104913D01*
X115044599Y-102191075D01*
X115265424Y-102235000D01*
X115490576Y-102235000D01*
X115711401Y-102191075D01*
X115919413Y-102104913D01*
X116106620Y-101979826D01*
X116265826Y-101820620D01*
X116390913Y-101633413D01*
X116477075Y-101425401D01*
X116521000Y-101204576D01*
X116521000Y-100979424D01*
X116477075Y-100758599D01*
X116390913Y-100550587D01*
X116265826Y-100363380D01*
X116106620Y-100204174D01*
X115919413Y-100079087D01*
X115711401Y-99992925D01*
X115490576Y-99949000D01*
X115265424Y-99949000D01*
X115044599Y-99992925D01*
X114836587Y-100079087D01*
X114649380Y-100204174D01*
X114490174Y-100363380D01*
X114365087Y-100550587D01*
X114278925Y-100758599D01*
X114235000Y-100979424D01*
X112141000Y-100979424D01*
X112141000Y-96732059D01*
X112196003Y-96743000D01*
X112339997Y-96743000D01*
X112481225Y-96714908D01*
X112614258Y-96659804D01*
X112733985Y-96579805D01*
X112835805Y-96477985D01*
X112915804Y-96358258D01*
X112970908Y-96225225D01*
X112999000Y-96083997D01*
X112999000Y-95940003D01*
X112970908Y-95798775D01*
X112915804Y-95665742D01*
X112903000Y-95646579D01*
X112903000Y-90662421D01*
X112915804Y-90643258D01*
X112970908Y-90510225D01*
X112999000Y-90368997D01*
X112999000Y-90225003D01*
X112970908Y-90083775D01*
X112915804Y-89950742D01*
X112835805Y-89831015D01*
X112733985Y-89729195D01*
X112614258Y-89649196D01*
X112481225Y-89594092D01*
X112339997Y-89566000D01*
X112196003Y-89566000D01*
X112054775Y-89594092D01*
X111921742Y-89649196D01*
X111802015Y-89729195D01*
X111700195Y-89831015D01*
X111620196Y-89950742D01*
X111565092Y-90083775D01*
X111537000Y-90225003D01*
X111537000Y-90368997D01*
X111565092Y-90510225D01*
X111620196Y-90643258D01*
X111633000Y-90662421D01*
X111633001Y-93916160D01*
X111557274Y-93854013D01*
X111495172Y-93812518D01*
X111322285Y-93720108D01*
X111253280Y-93691525D01*
X111065687Y-93634620D01*
X110992435Y-93620050D01*
X110797345Y-93600835D01*
X110760000Y-93599000D01*
X101202968Y-93599000D01*
X101158625Y-93601589D01*
X100927438Y-93628680D01*
X100841156Y-93649183D01*
X100622495Y-93728987D01*
X100543290Y-93768882D01*
X100349002Y-93897076D01*
X100313416Y-93923658D01*
X97409000Y-96369482D01*
X97409000Y-93557065D01*
X97495218Y-93539915D01*
X97628251Y-93484811D01*
X97747978Y-93404812D01*
X97849798Y-93302992D01*
X97929797Y-93183265D01*
X97984901Y-93050232D01*
X98012993Y-92909004D01*
X98012993Y-92765010D01*
X97984901Y-92623782D01*
X97929797Y-92490749D01*
X97849798Y-92371022D01*
X97747978Y-92269202D01*
X97628251Y-92189203D01*
X97495218Y-92134099D01*
X97353990Y-92106007D01*
X97209996Y-92106007D01*
X97068768Y-92134099D01*
X96935735Y-92189203D01*
X96816008Y-92269202D01*
X96714188Y-92371022D01*
X96634189Y-92490749D01*
X96579085Y-92623782D01*
X96550993Y-92765010D01*
X96550993Y-92848074D01*
X96540053Y-92857052D01*
X96524151Y-92876429D01*
X96524150Y-92876430D01*
X96476571Y-92934405D01*
X96451814Y-92980723D01*
X96429400Y-93022657D01*
X96401592Y-93114329D01*
X96400352Y-93118416D01*
X96390543Y-93218000D01*
X96393001Y-93242954D01*
X96393000Y-96436579D01*
X95416430Y-97413150D01*
X95397053Y-97429052D01*
X95381151Y-97448429D01*
X95381150Y-97448430D01*
X95333571Y-97506405D01*
X95305425Y-97559064D01*
X95286400Y-97594657D01*
X95263539Y-97670021D01*
X95257352Y-97690416D01*
X95247543Y-97790000D01*
X95250001Y-97814954D01*
X95250000Y-109456210D01*
X95190195Y-109516015D01*
X95110196Y-109635742D01*
X95055092Y-109768775D01*
X95027000Y-109910003D01*
X90906000Y-109910003D01*
X90906000Y-92334757D01*
X91225000Y-92334757D01*
X91225000Y-92577243D01*
X91272307Y-92815069D01*
X91365102Y-93039097D01*
X91499820Y-93240717D01*
X91671283Y-93412180D01*
X91872903Y-93546898D01*
X92096931Y-93639693D01*
X92334757Y-93687000D01*
X92577243Y-93687000D01*
X92815069Y-93639693D01*
X93039097Y-93546898D01*
X93240717Y-93412180D01*
X93412180Y-93240717D01*
X93546898Y-93039097D01*
X93639693Y-92815069D01*
X93687000Y-92577243D01*
X93687000Y-92334757D01*
X93639693Y-92096931D01*
X93546898Y-91872903D01*
X93412180Y-91671283D01*
X93240717Y-91499820D01*
X93039097Y-91365102D01*
X92815069Y-91272307D01*
X92577243Y-91225000D01*
X92334757Y-91225000D01*
X92096931Y-91272307D01*
X91872903Y-91365102D01*
X91671283Y-91499820D01*
X91499820Y-91671283D01*
X91365102Y-91872903D01*
X91272307Y-92096931D01*
X91225000Y-92334757D01*
X90906000Y-92334757D01*
X90906000Y-84005932D01*
X90914429Y-84012849D01*
X91303413Y-84401833D01*
X91272307Y-84476931D01*
X91225000Y-84714757D01*
X91225000Y-84957243D01*
X91272307Y-85195069D01*
X91365102Y-85419097D01*
X91499820Y-85620717D01*
X91671283Y-85792180D01*
X91872903Y-85926898D01*
X91987168Y-85974228D01*
X91824748Y-86031843D01*
X91574645Y-86180822D01*
X91358412Y-86375731D01*
X91184359Y-86609080D01*
X91059175Y-86871901D01*
X91014524Y-87019110D01*
X91135845Y-87249000D01*
X92329000Y-87249000D01*
X92329000Y-87229000D01*
X92583000Y-87229000D01*
X92583000Y-87249000D01*
X92603000Y-87249000D01*
X92603000Y-87503000D01*
X92583000Y-87503000D01*
X92583000Y-87523000D01*
X92329000Y-87523000D01*
X92329000Y-87503000D01*
X91135845Y-87503000D01*
X91014524Y-87732890D01*
X91059175Y-87880099D01*
X91184359Y-88142920D01*
X91358412Y-88376269D01*
X91574645Y-88571178D01*
X91824748Y-88720157D01*
X91987168Y-88777772D01*
X91872903Y-88825102D01*
X91671283Y-88959820D01*
X91499820Y-89131283D01*
X91365102Y-89332903D01*
X91272307Y-89556931D01*
X91225000Y-89794757D01*
X91225000Y-90037243D01*
X91272307Y-90275069D01*
X91365102Y-90499097D01*
X91499820Y-90700717D01*
X91671283Y-90872180D01*
X91872903Y-91006898D01*
X92096931Y-91099693D01*
X92334757Y-91147000D01*
X92577243Y-91147000D01*
X92815069Y-91099693D01*
X93039097Y-91006898D01*
X93240717Y-90872180D01*
X93287999Y-90824898D01*
X93287999Y-91231055D01*
X93285542Y-91255999D01*
X93287999Y-91280943D01*
X93287999Y-91280945D01*
X93295350Y-91355583D01*
X93324398Y-91451341D01*
X93371570Y-91539594D01*
X93435051Y-91616947D01*
X93454434Y-91632854D01*
X93763157Y-91941577D01*
X93763157Y-93306000D01*
X93770513Y-93380689D01*
X93792299Y-93452508D01*
X93827678Y-93518696D01*
X93875289Y-93576711D01*
X93933304Y-93624322D01*
X93999492Y-93659701D01*
X94071311Y-93681487D01*
X94146000Y-93688843D01*
X95846000Y-93688843D01*
X95920689Y-93681487D01*
X95992508Y-93659701D01*
X96058696Y-93624322D01*
X96116711Y-93576711D01*
X96164322Y-93518696D01*
X96199701Y-93452508D01*
X96221487Y-93380689D01*
X96228843Y-93306000D01*
X96228843Y-91606000D01*
X96221487Y-91531311D01*
X96199701Y-91459492D01*
X96164322Y-91393304D01*
X96116711Y-91335289D01*
X96058696Y-91287678D01*
X95992508Y-91252299D01*
X95920689Y-91230513D01*
X95846000Y-91223157D01*
X94481577Y-91223157D01*
X94303999Y-91045579D01*
X94303999Y-90934131D01*
X94412903Y-91006898D01*
X94636931Y-91099693D01*
X94874757Y-91147000D01*
X95117243Y-91147000D01*
X95355069Y-91099693D01*
X95579097Y-91006898D01*
X95780717Y-90872180D01*
X95952180Y-90700717D01*
X96086898Y-90499097D01*
X96179693Y-90275069D01*
X96227000Y-90037243D01*
X96227000Y-89794757D01*
X96179693Y-89556931D01*
X96086898Y-89332903D01*
X95952180Y-89131283D01*
X95780717Y-88959820D01*
X95579097Y-88825102D01*
X95355069Y-88732307D01*
X95117243Y-88685000D01*
X94874757Y-88685000D01*
X94636931Y-88732307D01*
X94412903Y-88825102D01*
X94303999Y-88897869D01*
X94303999Y-88394131D01*
X94412903Y-88466898D01*
X94636931Y-88559693D01*
X94874757Y-88607000D01*
X95117243Y-88607000D01*
X95355069Y-88559693D01*
X95579097Y-88466898D01*
X95780717Y-88332180D01*
X95952180Y-88160717D01*
X96086898Y-87959097D01*
X96179693Y-87735069D01*
X96227000Y-87497243D01*
X96227000Y-87254757D01*
X96179693Y-87016931D01*
X96086898Y-86792903D01*
X95952180Y-86591283D01*
X95780717Y-86419820D01*
X95579097Y-86285102D01*
X95355069Y-86192307D01*
X95117243Y-86145000D01*
X94874757Y-86145000D01*
X94636931Y-86192307D01*
X94412903Y-86285102D01*
X94303999Y-86357869D01*
X94303999Y-85854131D01*
X94412903Y-85926898D01*
X94636931Y-86019693D01*
X94874757Y-86067000D01*
X95117243Y-86067000D01*
X95355069Y-86019693D01*
X95579097Y-85926898D01*
X95780717Y-85792180D01*
X95952180Y-85620717D01*
X96086898Y-85419097D01*
X96179693Y-85195069D01*
X96227000Y-84957243D01*
X96227000Y-84714757D01*
X96179693Y-84476931D01*
X96148587Y-84401834D01*
X96888411Y-83662010D01*
X116217590Y-83662010D01*
X118395000Y-85839421D01*
X118395000Y-85923997D01*
X118423092Y-86065225D01*
X118478196Y-86198258D01*
X118558195Y-86317985D01*
X118660015Y-86419805D01*
X118779742Y-86499804D01*
X118912775Y-86554908D01*
X119054003Y-86583000D01*
X119197997Y-86583000D01*
X119339225Y-86554908D01*
X119472258Y-86499804D01*
X119591985Y-86419805D01*
X119693805Y-86317985D01*
X119773804Y-86198258D01*
X119828908Y-86065225D01*
X119857000Y-85923997D01*
X119857000Y-85780003D01*
X119828908Y-85638775D01*
X119773804Y-85505742D01*
X119693805Y-85386015D01*
X119591985Y-85284195D01*
X119472258Y-85204196D01*
X119339225Y-85149092D01*
X119197997Y-85121000D01*
X119113421Y-85121000D01*
X117177420Y-83185000D01*
X120693580Y-83185000D01*
X125423580Y-87915000D01*
G37*
X125423580Y-87915000D02*
X125404003Y-87915000D01*
X125262775Y-87943092D01*
X125129742Y-87998196D01*
X125010015Y-88078195D01*
X124908195Y-88180015D01*
X124828196Y-88299742D01*
X124773092Y-88432775D01*
X124745000Y-88574003D01*
X124745000Y-88717997D01*
X124773092Y-88859225D01*
X124828196Y-88992258D01*
X124908195Y-89111985D01*
X125010015Y-89213805D01*
X125129742Y-89293804D01*
X125262775Y-89348908D01*
X125404003Y-89377000D01*
X125547997Y-89377000D01*
X125689225Y-89348908D01*
X125822258Y-89293804D01*
X125941985Y-89213805D01*
X126043805Y-89111985D01*
X126123804Y-88992258D01*
X126178908Y-88859225D01*
X126207000Y-88717997D01*
X126207000Y-88646000D01*
X133569959Y-88646000D01*
X133546087Y-88766013D01*
X133546087Y-88910007D01*
X133574179Y-89051235D01*
X133629283Y-89184268D01*
X133709282Y-89303995D01*
X133811102Y-89405815D01*
X133930829Y-89485814D01*
X134063862Y-89540918D01*
X134205090Y-89569010D01*
X134290573Y-89569010D01*
X134343490Y-89612438D01*
X134408709Y-89647298D01*
X134431743Y-89659610D01*
X134527501Y-89688658D01*
X134602139Y-89696009D01*
X134602141Y-89696009D01*
X134627085Y-89698466D01*
X134652029Y-89696009D01*
X140320712Y-89696009D01*
X140345656Y-89698466D01*
X140370600Y-89696009D01*
X140370603Y-89696009D01*
X140445241Y-89688658D01*
X140540999Y-89659610D01*
X140629251Y-89612438D01*
X140706604Y-89548957D01*
X140722511Y-89529574D01*
X141849479Y-88402607D01*
X141934055Y-88402607D01*
X142075283Y-88374515D01*
X142133089Y-88350571D01*
X142133088Y-93807968D01*
X142130631Y-93832912D01*
X142133088Y-93857856D01*
X142133088Y-93857858D01*
X142140439Y-93932496D01*
X142169487Y-94028254D01*
X142216659Y-94116507D01*
X142280140Y-94193860D01*
X142299523Y-94209767D01*
X142665990Y-94576234D01*
X142665989Y-109494045D01*
X142663532Y-109518989D01*
X142665989Y-109543933D01*
X142665989Y-109543935D01*
X142673340Y-109618573D01*
X142702388Y-109714331D01*
X142749560Y-109802584D01*
X142813041Y-109879937D01*
X142832424Y-109895844D01*
X143541000Y-110604421D01*
X143541000Y-110688997D01*
X143569092Y-110830225D01*
X143624196Y-110963258D01*
X143704195Y-111082985D01*
X143806015Y-111184805D01*
X143925742Y-111264804D01*
X144058775Y-111319908D01*
X144200003Y-111348000D01*
X144343997Y-111348000D01*
X144485225Y-111319908D01*
X144618258Y-111264804D01*
X144737985Y-111184805D01*
X144839805Y-111082985D01*
X144919804Y-110963258D01*
X144974908Y-110830225D01*
X144991142Y-110748609D01*
X145113595Y-110748609D01*
X145254823Y-110720517D01*
X145387856Y-110665413D01*
X145507583Y-110585414D01*
X145609403Y-110483594D01*
X145689402Y-110363867D01*
X145744506Y-110230834D01*
X145772598Y-110089606D01*
X145772598Y-109945612D01*
X145744506Y-109804384D01*
X145689402Y-109671351D01*
X145609403Y-109551624D01*
X145574613Y-109516834D01*
X145650826Y-109440620D01*
X145775913Y-109253413D01*
X145862075Y-109045401D01*
X145906000Y-108824576D01*
X145906000Y-108599424D01*
X145862075Y-108378599D01*
X145775913Y-108170587D01*
X145650826Y-107983380D01*
X145491620Y-107824174D01*
X145304413Y-107699087D01*
X145096401Y-107612925D01*
X144875576Y-107569000D01*
X144650424Y-107569000D01*
X144429599Y-107612925D01*
X144221587Y-107699087D01*
X144159000Y-107740906D01*
X144159000Y-107143094D01*
X144221587Y-107184913D01*
X144429599Y-107271075D01*
X144650424Y-107315000D01*
X144875576Y-107315000D01*
X145096401Y-107271075D01*
X145304413Y-107184913D01*
X145474242Y-107071438D01*
X145489148Y-107089601D01*
X145514053Y-107119948D01*
X145533430Y-107135850D01*
X147351000Y-108953420D01*
X147351000Y-109037997D01*
X147379092Y-109179225D01*
X147434196Y-109312258D01*
X147514195Y-109431985D01*
X147616015Y-109533805D01*
X147735742Y-109613804D01*
X147868775Y-109668908D01*
X148010003Y-109697000D01*
X148153997Y-109697000D01*
X148295225Y-109668908D01*
X148336000Y-109652018D01*
X148336000Y-112609159D01*
X143216160Y-117729000D01*
X135459098Y-117729000D01*
X135309829Y-117743702D01*
X135118313Y-117801798D01*
X134941810Y-117896140D01*
X134787104Y-118023104D01*
X134660140Y-118177810D01*
X134565798Y-118354313D01*
X134507702Y-118545829D01*
X134488085Y-118745000D01*
X134507702Y-118944171D01*
X134565798Y-119135687D01*
X134660140Y-119312190D01*
X134787104Y-119466896D01*
X134874000Y-119538210D01*
X134874001Y-122269809D01*
X134870929Y-122301000D01*
X134883189Y-122425481D01*
X134895499Y-122466061D01*
X134859999Y-122459000D01*
X134716005Y-122459000D01*
X134574777Y-122487092D01*
X134441744Y-122542196D01*
X134322017Y-122622195D01*
X134220197Y-122724015D01*
X134140198Y-122843742D01*
X134085094Y-122976775D01*
X134057002Y-123118003D01*
X134057002Y-123261997D01*
X134085094Y-123403225D01*
X134140198Y-123536258D01*
X134220197Y-123655985D01*
X134280002Y-123715790D01*
X134280003Y-126240576D01*
X133551580Y-126969000D01*
X131081790Y-126969000D01*
X131021985Y-126909195D01*
X130902258Y-126829196D01*
X130769225Y-126774092D01*
X130627997Y-126746000D01*
X130484003Y-126746000D01*
X130342775Y-126774092D01*
X130209742Y-126829196D01*
X130090015Y-126909195D01*
X129988195Y-127011015D01*
X129908196Y-127130742D01*
X129853092Y-127263775D01*
X129825000Y-127405003D01*
X129825000Y-127548997D01*
X129853092Y-127690225D01*
X129908196Y-127823258D01*
X129988195Y-127942985D01*
X130090015Y-128044805D01*
X130209742Y-128124804D01*
X130342775Y-128179908D01*
X130484003Y-128208000D01*
X130627997Y-128208000D01*
X130769225Y-128179908D01*
X130902258Y-128124804D01*
X131021985Y-128044805D01*
X131081790Y-127985000D01*
X133737056Y-127985000D01*
X133762000Y-127987457D01*
X133786944Y-127985000D01*
X133786947Y-127985000D01*
X133861585Y-127977649D01*
X133957343Y-127948601D01*
X134045595Y-127901429D01*
X134122948Y-127837948D01*
X134138855Y-127818565D01*
X135129573Y-126827848D01*
X135148950Y-126811946D01*
X135169607Y-126786775D01*
X135212431Y-126734594D01*
X135259602Y-126646342D01*
X135259603Y-126646341D01*
X135288651Y-126550583D01*
X135296002Y-126475945D01*
X135296002Y-126475942D01*
X135298459Y-126450998D01*
X135296002Y-126426054D01*
X135296002Y-123715790D01*
X135355807Y-123655985D01*
X135435806Y-123536258D01*
X135490910Y-123403225D01*
X135519002Y-123261997D01*
X135519002Y-123209026D01*
X135817596Y-123507620D01*
X135822092Y-123530225D01*
X135877196Y-123663258D01*
X135957195Y-123782985D01*
X136059015Y-123884805D01*
X136178742Y-123964804D01*
X136311775Y-124019908D01*
X136453003Y-124048000D01*
X136596997Y-124048000D01*
X136738225Y-124019908D01*
X136871258Y-123964804D01*
X136990985Y-123884805D01*
X137092805Y-123782985D01*
X137172804Y-123663258D01*
X137227908Y-123530225D01*
X137256000Y-123388997D01*
X137256000Y-123245003D01*
X137227908Y-123103775D01*
X137172804Y-122970742D01*
X137092805Y-122851015D01*
X136990985Y-122749195D01*
X136871258Y-122669196D01*
X136738225Y-122614092D01*
X136715620Y-122609596D01*
X136144000Y-122037976D01*
X136144000Y-119761000D01*
X143575370Y-119761000D01*
X147569648Y-123755279D01*
X147656607Y-123826644D01*
X147788983Y-123897401D01*
X147932621Y-123940973D01*
X148081999Y-123955686D01*
X148231378Y-123940973D01*
X148375015Y-123897401D01*
X148507392Y-123826644D01*
X148623421Y-123731421D01*
X148718644Y-123615392D01*
X148789401Y-123483015D01*
X148832973Y-123339378D01*
X148847686Y-123189999D01*
X148832973Y-123040621D01*
X148789401Y-122896983D01*
X148718644Y-122764607D01*
X148647279Y-122677648D01*
X147309634Y-121340003D01*
X162199000Y-121340003D01*
X162199000Y-121483997D01*
X162227092Y-121625225D01*
X162282196Y-121758258D01*
X162362195Y-121877985D01*
X162464015Y-121979805D01*
X162583742Y-122059804D01*
X162716775Y-122114908D01*
X162858003Y-122143000D01*
X163001997Y-122143000D01*
X163143225Y-122114908D01*
X163276258Y-122059804D01*
X163395985Y-121979805D01*
X163497805Y-121877985D01*
X163577804Y-121758258D01*
X163632908Y-121625225D01*
X163661000Y-121483997D01*
X163661000Y-121340003D01*
X163999000Y-121340003D01*
X163999000Y-121483997D01*
X164027092Y-121625225D01*
X164082196Y-121758258D01*
X164162195Y-121877985D01*
X164264015Y-121979805D01*
X164383742Y-122059804D01*
X164516775Y-122114908D01*
X164658003Y-122143000D01*
X164801997Y-122143000D01*
X164943225Y-122114908D01*
X165076258Y-122059804D01*
X165195985Y-121979805D01*
X165297805Y-121877985D01*
X165377804Y-121758258D01*
X165432908Y-121625225D01*
X165461000Y-121483997D01*
X165461000Y-121340003D01*
X165432908Y-121198775D01*
X165377804Y-121065742D01*
X165297805Y-120946015D01*
X165195985Y-120844195D01*
X165076258Y-120764196D01*
X164943225Y-120709092D01*
X164801997Y-120681000D01*
X164658003Y-120681000D01*
X164516775Y-120709092D01*
X164383742Y-120764196D01*
X164264015Y-120844195D01*
X164162195Y-120946015D01*
X164082196Y-121065742D01*
X164027092Y-121198775D01*
X163999000Y-121340003D01*
X163661000Y-121340003D01*
X163632908Y-121198775D01*
X163577804Y-121065742D01*
X163497805Y-120946015D01*
X163395985Y-120844195D01*
X163276258Y-120764196D01*
X163143225Y-120709092D01*
X163001997Y-120681000D01*
X162858003Y-120681000D01*
X162716775Y-120709092D01*
X162583742Y-120764196D01*
X162464015Y-120844195D01*
X162362195Y-120946015D01*
X162282196Y-121065742D01*
X162227092Y-121198775D01*
X162199000Y-121340003D01*
X147309634Y-121340003D01*
X144894235Y-118924605D01*
X148717000Y-115101841D01*
X148717000Y-118364000D01*
X148719440Y-118388776D01*
X148726667Y-118412601D01*
X148738403Y-118434557D01*
X148754197Y-118453803D01*
X148773443Y-118469597D01*
X148795399Y-118481333D01*
X148819224Y-118488560D01*
X148844000Y-118491000D01*
X168890000Y-118491000D01*
X168890000Y-135685795D01*
X168815442Y-136713348D01*
X168597312Y-137701348D01*
X168238840Y-138647521D01*
X167747537Y-139532033D01*
X167133695Y-140336357D01*
X166410181Y-141043639D01*
X165592132Y-141639079D01*
X164696707Y-142110183D01*
X163742645Y-142447098D01*
X162747105Y-142643318D01*
X161882487Y-142696200D01*
X97916405Y-142696200D01*
X96888852Y-142621642D01*
X95900852Y-142403512D01*
X94954679Y-142045040D01*
X94070167Y-141553737D01*
X93265843Y-140939895D01*
X92558561Y-140216381D01*
X91963121Y-139398332D01*
X91492017Y-138502907D01*
X91155102Y-137548845D01*
X91088222Y-137209519D01*
X92560600Y-137209519D01*
X92560600Y-137864881D01*
X92688455Y-138507650D01*
X92939251Y-139113125D01*
X93303350Y-139658039D01*
X93766761Y-140121450D01*
X94311675Y-140485549D01*
X94917150Y-140736345D01*
X95559919Y-140864200D01*
X96215281Y-140864200D01*
X96858050Y-140736345D01*
X97463525Y-140485549D01*
X98008439Y-140121450D01*
X98471850Y-139658039D01*
X98835949Y-139113125D01*
X99086745Y-138507650D01*
X99186168Y-138007814D01*
X124959000Y-138007814D01*
X124959001Y-139204187D01*
X124973196Y-139348310D01*
X125029290Y-139533229D01*
X125120383Y-139703651D01*
X125242973Y-139853028D01*
X125392350Y-139975618D01*
X125562772Y-140066711D01*
X125747691Y-140122805D01*
X125940000Y-140141746D01*
X126132310Y-140122805D01*
X126317229Y-140066711D01*
X126487651Y-139975618D01*
X126637028Y-139853028D01*
X126759618Y-139703651D01*
X126850711Y-139533229D01*
X126906805Y-139348310D01*
X126921000Y-139204187D01*
X126921000Y-138007814D01*
X132159000Y-138007814D01*
X132159001Y-139204187D01*
X132173196Y-139348310D01*
X132229290Y-139533229D01*
X132320383Y-139703651D01*
X132442973Y-139853028D01*
X132592350Y-139975618D01*
X132762772Y-140066711D01*
X132947691Y-140122805D01*
X133140000Y-140141746D01*
X133332310Y-140122805D01*
X133517229Y-140066711D01*
X133687651Y-139975618D01*
X133837028Y-139853028D01*
X133959618Y-139703651D01*
X134050711Y-139533229D01*
X134106805Y-139348310D01*
X134121000Y-139204187D01*
X134121000Y-138007813D01*
X134106805Y-137863690D01*
X134050711Y-137678771D01*
X133959618Y-137508349D01*
X133837028Y-137358972D01*
X133809669Y-137336519D01*
X160531000Y-137336519D01*
X160531000Y-137991881D01*
X160658855Y-138634650D01*
X160909651Y-139240125D01*
X161273750Y-139785039D01*
X161737161Y-140248450D01*
X162282075Y-140612549D01*
X162887550Y-140863345D01*
X163530319Y-140991200D01*
X164185681Y-140991200D01*
X164828450Y-140863345D01*
X165433925Y-140612549D01*
X165978839Y-140248450D01*
X166442250Y-139785039D01*
X166806349Y-139240125D01*
X167057145Y-138634650D01*
X167185000Y-137991881D01*
X167185000Y-137336519D01*
X167057145Y-136693750D01*
X166806349Y-136088275D01*
X166442250Y-135543361D01*
X165978839Y-135079950D01*
X165433925Y-134715851D01*
X164828450Y-134465055D01*
X164185681Y-134337200D01*
X163530319Y-134337200D01*
X162887550Y-134465055D01*
X162282075Y-134715851D01*
X161737161Y-135079950D01*
X161273750Y-135543361D01*
X160909651Y-136088275D01*
X160658855Y-136693750D01*
X160531000Y-137336519D01*
X133809669Y-137336519D01*
X133687651Y-137236382D01*
X133517228Y-137145289D01*
X133332309Y-137089195D01*
X133140000Y-137070254D01*
X132947690Y-137089195D01*
X132762771Y-137145289D01*
X132592349Y-137236382D01*
X132442972Y-137358972D01*
X132320382Y-137508349D01*
X132229289Y-137678772D01*
X132173195Y-137863691D01*
X132159000Y-138007814D01*
X126921000Y-138007814D01*
X126921000Y-138007813D01*
X126906805Y-137863690D01*
X126850711Y-137678771D01*
X126759618Y-137508349D01*
X126637028Y-137358972D01*
X126487651Y-137236382D01*
X126317228Y-137145289D01*
X126132309Y-137089195D01*
X125940000Y-137070254D01*
X125747690Y-137089195D01*
X125562771Y-137145289D01*
X125392349Y-137236382D01*
X125242972Y-137358972D01*
X125120382Y-137508349D01*
X125029289Y-137678772D01*
X124973195Y-137863691D01*
X124959000Y-138007814D01*
X99186168Y-138007814D01*
X99214600Y-137864881D01*
X99214600Y-137209519D01*
X99086745Y-136566750D01*
X98835949Y-135961275D01*
X98471850Y-135416361D01*
X98008439Y-134952950D01*
X97463525Y-134588851D01*
X96858050Y-134338055D01*
X96215281Y-134210200D01*
X95559919Y-134210200D01*
X94917150Y-134338055D01*
X94311675Y-134588851D01*
X93766761Y-134952950D01*
X93303350Y-135416361D01*
X92939251Y-135961275D01*
X92688455Y-136566750D01*
X92560600Y-137209519D01*
X91088222Y-137209519D01*
X90958882Y-136553305D01*
X90906000Y-135688687D01*
X90906000Y-132302769D01*
X110700836Y-132302769D01*
X110760297Y-132536537D01*
X110998742Y-132647434D01*
X111254240Y-132709683D01*
X111516973Y-132720890D01*
X111776844Y-132680625D01*
X112023866Y-132590435D01*
X112124703Y-132536537D01*
X112184164Y-132302769D01*
X111442500Y-131561105D01*
X110700836Y-132302769D01*
X90906000Y-132302769D01*
X90906000Y-131455973D01*
X110103110Y-131455973D01*
X110143375Y-131715844D01*
X110233565Y-131962866D01*
X110287463Y-132063703D01*
X110521231Y-132123164D01*
X111262895Y-131381500D01*
X111622105Y-131381500D01*
X112363769Y-132123164D01*
X112597537Y-132063703D01*
X112708434Y-131825258D01*
X112770683Y-131569760D01*
X112781890Y-131307027D01*
X112741625Y-131047156D01*
X112651435Y-130800134D01*
X112597537Y-130699297D01*
X112363769Y-130639836D01*
X111622105Y-131381500D01*
X111262895Y-131381500D01*
X110521231Y-130639836D01*
X110287463Y-130699297D01*
X110176566Y-130937742D01*
X110114317Y-131193240D01*
X110103110Y-131455973D01*
X90906000Y-131455973D01*
X90906000Y-128669820D01*
X110357117Y-128669820D01*
X110357117Y-130069820D01*
X110364473Y-130144509D01*
X110386259Y-130216328D01*
X110421638Y-130282516D01*
X110469249Y-130340531D01*
X110527264Y-130388142D01*
X110593452Y-130423521D01*
X110665271Y-130445307D01*
X110703670Y-130449089D01*
X110700836Y-130460231D01*
X111442500Y-131201895D01*
X112184164Y-130460231D01*
X112181206Y-130448601D01*
X112214649Y-130445307D01*
X112286468Y-130423521D01*
X112352656Y-130388142D01*
X112410671Y-130340531D01*
X112458282Y-130282516D01*
X112493661Y-130216328D01*
X112515447Y-130144509D01*
X112522803Y-130069820D01*
X112522803Y-128669820D01*
X112515447Y-128595131D01*
X112493661Y-128523312D01*
X112458282Y-128457124D01*
X112410671Y-128399109D01*
X112352656Y-128351498D01*
X112286468Y-128316119D01*
X112214649Y-128294333D01*
X112139960Y-128286977D01*
X110739960Y-128286977D01*
X110665271Y-128294333D01*
X110593452Y-128316119D01*
X110527264Y-128351498D01*
X110469249Y-128399109D01*
X110421638Y-128457124D01*
X110386259Y-128523312D01*
X110364473Y-128595131D01*
X110357117Y-128669820D01*
X90906000Y-128669820D01*
X90906000Y-118546003D01*
X111029000Y-118546003D01*
X111029000Y-118689997D01*
X111057092Y-118831225D01*
X111112196Y-118964258D01*
X111192195Y-119083985D01*
X111252000Y-119143790D01*
X111252001Y-121347985D01*
X111249543Y-121372939D01*
X111254115Y-121419351D01*
X111259352Y-121472524D01*
X111266343Y-121495571D01*
X111288400Y-121568282D01*
X111335571Y-121656534D01*
X111380679Y-121711498D01*
X111399053Y-121733887D01*
X111418430Y-121749789D01*
X113735121Y-124066481D01*
X113652112Y-124149490D01*
X113572113Y-124269217D01*
X113517009Y-124402250D01*
X113488917Y-124543478D01*
X113488917Y-124687472D01*
X113517009Y-124828700D01*
X113572113Y-124961733D01*
X113652112Y-125081460D01*
X113711917Y-125141265D01*
X113711918Y-127402963D01*
X113709460Y-127427917D01*
X113713210Y-127465985D01*
X113719269Y-127527502D01*
X113731495Y-127567805D01*
X113748317Y-127623260D01*
X113795488Y-127711512D01*
X113842956Y-127769352D01*
X113858970Y-127788865D01*
X113878347Y-127804767D01*
X114915080Y-128841500D01*
X114825790Y-128841500D01*
X114765985Y-128781695D01*
X114646258Y-128701696D01*
X114513225Y-128646592D01*
X114371997Y-128618500D01*
X114228003Y-128618500D01*
X114086775Y-128646592D01*
X113953742Y-128701696D01*
X113834015Y-128781695D01*
X113732195Y-128883515D01*
X113652196Y-129003242D01*
X113597092Y-129136275D01*
X113569000Y-129277503D01*
X113569000Y-129421497D01*
X113597092Y-129562725D01*
X113652196Y-129695758D01*
X113732195Y-129815485D01*
X113834015Y-129917305D01*
X113953742Y-129997304D01*
X114086775Y-130052408D01*
X114228003Y-130080500D01*
X114371997Y-130080500D01*
X114513225Y-130052408D01*
X114646258Y-129997304D01*
X114765985Y-129917305D01*
X114825790Y-129857500D01*
X118407580Y-129857500D01*
X119507000Y-130956921D01*
X119507000Y-131025446D01*
X119507001Y-131025456D01*
X119507000Y-134284710D01*
X119447195Y-134344515D01*
X119367196Y-134464242D01*
X119312092Y-134597275D01*
X119284000Y-134738503D01*
X119284000Y-134882497D01*
X119312092Y-135023725D01*
X119355284Y-135128000D01*
X119282385Y-135128000D01*
X115403474Y-131249089D01*
X115403474Y-131164512D01*
X115375382Y-131023284D01*
X115320278Y-130890251D01*
X115240279Y-130770524D01*
X115138459Y-130668704D01*
X115018732Y-130588705D01*
X114885699Y-130533601D01*
X114744471Y-130505509D01*
X114600477Y-130505509D01*
X114459249Y-130533601D01*
X114326216Y-130588705D01*
X114206489Y-130668704D01*
X114104669Y-130770524D01*
X114024670Y-130890251D01*
X113969566Y-131023284D01*
X113941474Y-131164512D01*
X113941474Y-131308506D01*
X113969566Y-131449734D01*
X114024670Y-131582767D01*
X114104669Y-131702494D01*
X114206489Y-131804314D01*
X114326216Y-131884313D01*
X114459249Y-131939417D01*
X114600477Y-131967509D01*
X114685054Y-131967509D01*
X118322556Y-135605011D01*
X115812932Y-135605011D01*
X115412000Y-135204080D01*
X115412000Y-135119503D01*
X115383908Y-134978275D01*
X115328804Y-134845242D01*
X115248805Y-134725515D01*
X115146985Y-134623695D01*
X115027258Y-134543696D01*
X114894225Y-134488592D01*
X114752997Y-134460500D01*
X114609003Y-134460500D01*
X114467775Y-134488592D01*
X114334742Y-134543696D01*
X114215015Y-134623695D01*
X114113195Y-134725515D01*
X114033196Y-134845242D01*
X113978092Y-134978275D01*
X113950000Y-135119503D01*
X113950000Y-135195268D01*
X113888804Y-135207441D01*
X113755771Y-135262545D01*
X113636044Y-135342544D01*
X113534224Y-135444364D01*
X113454225Y-135564091D01*
X113399121Y-135697124D01*
X113371029Y-135838352D01*
X113371029Y-135982346D01*
X113399121Y-136123574D01*
X113454225Y-136256607D01*
X113534224Y-136376334D01*
X113636044Y-136478154D01*
X113755771Y-136558153D01*
X113888804Y-136613257D01*
X114030032Y-136641349D01*
X114114609Y-136641349D01*
X114404847Y-136931587D01*
X114420754Y-136950970D01*
X114498107Y-137014451D01*
X114586359Y-137061623D01*
X114682117Y-137090671D01*
X114756755Y-137098022D01*
X114756758Y-137098022D01*
X114781702Y-137100479D01*
X114806646Y-137098022D01*
X122487517Y-137098022D01*
X122512461Y-137100479D01*
X122537405Y-137098022D01*
X122537408Y-137098022D01*
X122612046Y-137090671D01*
X122707804Y-137061623D01*
X122796056Y-137014451D01*
X122873409Y-136950970D01*
X122889316Y-136931587D01*
X124959000Y-134861903D01*
X124959001Y-135654187D01*
X124973196Y-135798310D01*
X125029290Y-135983229D01*
X125120383Y-136153651D01*
X125242973Y-136303028D01*
X125392350Y-136425618D01*
X125562772Y-136516711D01*
X125747691Y-136572805D01*
X125940000Y-136591746D01*
X126132310Y-136572805D01*
X126317229Y-136516711D01*
X126487651Y-136425618D01*
X126637028Y-136303028D01*
X126759618Y-136153651D01*
X126850711Y-135983229D01*
X126906805Y-135798310D01*
X126921000Y-135654187D01*
X126921000Y-134457814D01*
X132159000Y-134457814D01*
X132159001Y-135654187D01*
X132173196Y-135798310D01*
X132229290Y-135983229D01*
X132320383Y-136153651D01*
X132442973Y-136303028D01*
X132592350Y-136425618D01*
X132762772Y-136516711D01*
X132947691Y-136572805D01*
X133140000Y-136591746D01*
X133332310Y-136572805D01*
X133517229Y-136516711D01*
X133687651Y-136425618D01*
X133837028Y-136303028D01*
X133959618Y-136153651D01*
X134050711Y-135983229D01*
X134106805Y-135798310D01*
X134121000Y-135654187D01*
X134121000Y-134457813D01*
X134106805Y-134313690D01*
X134050711Y-134128771D01*
X133959618Y-133958349D01*
X133837028Y-133808972D01*
X133687651Y-133686382D01*
X133517228Y-133595289D01*
X133332309Y-133539195D01*
X133140000Y-133520254D01*
X132947690Y-133539195D01*
X132762771Y-133595289D01*
X132592349Y-133686382D01*
X132442972Y-133808972D01*
X132320382Y-133958349D01*
X132229289Y-134128772D01*
X132173195Y-134313691D01*
X132159000Y-134457814D01*
X126921000Y-134457814D01*
X126921000Y-134457813D01*
X126906805Y-134313690D01*
X126850711Y-134128771D01*
X126759618Y-133958349D01*
X126637028Y-133808972D01*
X126487651Y-133686382D01*
X126317228Y-133595289D01*
X126246936Y-133573967D01*
X128502903Y-131318000D01*
X130012182Y-131318000D01*
X130006015Y-131349002D01*
X129912503Y-131349002D01*
X129771275Y-131377094D01*
X129638242Y-131432198D01*
X129518515Y-131512197D01*
X129416695Y-131614017D01*
X129336696Y-131733744D01*
X129281592Y-131866777D01*
X129253500Y-132008005D01*
X129253500Y-132151999D01*
X129281592Y-132293227D01*
X129336696Y-132426260D01*
X129416695Y-132545987D01*
X129518515Y-132647807D01*
X129638242Y-132727806D01*
X129771275Y-132782910D01*
X129912503Y-132811002D01*
X130033001Y-132811002D01*
X130497481Y-133275482D01*
X130512597Y-133293901D01*
X130586083Y-133354209D01*
X130669921Y-133399022D01*
X130760892Y-133426617D01*
X130831791Y-133433600D01*
X130831792Y-133433600D01*
X130855497Y-133435935D01*
X130879202Y-133433600D01*
X137370810Y-133433600D01*
X137456015Y-133518805D01*
X137575742Y-133598804D01*
X137708775Y-133653908D01*
X137850003Y-133682000D01*
X137993997Y-133682000D01*
X138135225Y-133653908D01*
X138268258Y-133598804D01*
X138387985Y-133518805D01*
X138489805Y-133416985D01*
X138569804Y-133297258D01*
X138624908Y-133164225D01*
X138653000Y-133022997D01*
X138653000Y-132879003D01*
X138624908Y-132737775D01*
X138569804Y-132604742D01*
X138489805Y-132485015D01*
X138480790Y-132476000D01*
X138489805Y-132466985D01*
X138569804Y-132347258D01*
X138624908Y-132214225D01*
X138653000Y-132072997D01*
X138653000Y-131929003D01*
X138624908Y-131787775D01*
X138569804Y-131654742D01*
X138489805Y-131535015D01*
X138387985Y-131433195D01*
X138268258Y-131353196D01*
X138183287Y-131318000D01*
X141199056Y-131318000D01*
X141224000Y-131320457D01*
X141248944Y-131318000D01*
X141248947Y-131318000D01*
X141323585Y-131310649D01*
X141419343Y-131281601D01*
X141507595Y-131234429D01*
X141584948Y-131170948D01*
X141600855Y-131151565D01*
X145783421Y-126969000D01*
X145867997Y-126969000D01*
X146009225Y-126940908D01*
X146040380Y-126928003D01*
X158527000Y-126928003D01*
X158527000Y-127071997D01*
X158555092Y-127213225D01*
X158610196Y-127346258D01*
X158690195Y-127465985D01*
X158792015Y-127567805D01*
X158911742Y-127647804D01*
X159044775Y-127702908D01*
X159186003Y-127731000D01*
X159329997Y-127731000D01*
X159471225Y-127702908D01*
X159604258Y-127647804D01*
X159723985Y-127567805D01*
X159783790Y-127508000D01*
X161018210Y-127508000D01*
X161078015Y-127567805D01*
X161197742Y-127647804D01*
X161330775Y-127702908D01*
X161472003Y-127731000D01*
X161615997Y-127731000D01*
X161757225Y-127702908D01*
X161890258Y-127647804D01*
X162009985Y-127567805D01*
X162111805Y-127465985D01*
X162191804Y-127346258D01*
X162246908Y-127213225D01*
X162275000Y-127071997D01*
X162275000Y-126928003D01*
X162246908Y-126786775D01*
X162191804Y-126653742D01*
X162111805Y-126534015D01*
X162009985Y-126432195D01*
X161890258Y-126352196D01*
X161757225Y-126297092D01*
X161615997Y-126269000D01*
X161472003Y-126269000D01*
X161330775Y-126297092D01*
X161197742Y-126352196D01*
X161078015Y-126432195D01*
X161018210Y-126492000D01*
X159783790Y-126492000D01*
X159723985Y-126432195D01*
X159604258Y-126352196D01*
X159471225Y-126297092D01*
X159329997Y-126269000D01*
X159186003Y-126269000D01*
X159044775Y-126297092D01*
X158911742Y-126352196D01*
X158792015Y-126432195D01*
X158690195Y-126534015D01*
X158610196Y-126653742D01*
X158555092Y-126786775D01*
X158527000Y-126928003D01*
X146040380Y-126928003D01*
X146142258Y-126885804D01*
X146261985Y-126805805D01*
X146363805Y-126703985D01*
X146443804Y-126584258D01*
X146498908Y-126451225D01*
X146527000Y-126309997D01*
X146527000Y-126166003D01*
X146498908Y-126024775D01*
X146443804Y-125891742D01*
X146363805Y-125772015D01*
X146261985Y-125670195D01*
X146142258Y-125590196D01*
X146009225Y-125535092D01*
X145954085Y-125524124D01*
X145990908Y-125435225D01*
X146019000Y-125293997D01*
X146019000Y-125150003D01*
X145990908Y-125008775D01*
X145935804Y-124875742D01*
X145855805Y-124756015D01*
X145753985Y-124654195D01*
X145634258Y-124574196D01*
X145501225Y-124519092D01*
X145359997Y-124491000D01*
X145216003Y-124491000D01*
X145074775Y-124519092D01*
X145034000Y-124535982D01*
X145034000Y-123080790D01*
X145093805Y-123020985D01*
X145173804Y-122901258D01*
X145228908Y-122768225D01*
X145257000Y-122626997D01*
X145257000Y-122483003D01*
X145228908Y-122341775D01*
X145173804Y-122208742D01*
X145093805Y-122089015D01*
X144991985Y-121987195D01*
X144872258Y-121907196D01*
X144739225Y-121852092D01*
X144726797Y-121849620D01*
X144749000Y-121737997D01*
X144749000Y-121594003D01*
X144720908Y-121452775D01*
X144665804Y-121319742D01*
X144585805Y-121200015D01*
X144483985Y-121098195D01*
X144364258Y-121018196D01*
X144231225Y-120963092D01*
X144089997Y-120935000D01*
X143946003Y-120935000D01*
X143804775Y-120963092D01*
X143671742Y-121018196D01*
X143552015Y-121098195D01*
X143450195Y-121200015D01*
X143370196Y-121319742D01*
X143315092Y-121452775D01*
X143287000Y-121594003D01*
X143287000Y-121737997D01*
X143287536Y-121740692D01*
X143263352Y-121820416D01*
X143253543Y-121920000D01*
X143256001Y-121944954D01*
X143256000Y-124630580D01*
X139616580Y-128270000D01*
X127278943Y-128270000D01*
X127253999Y-128267543D01*
X127229055Y-128270000D01*
X127229053Y-128270000D01*
X127154415Y-128277351D01*
X127058657Y-128306399D01*
X127058655Y-128306400D01*
X126970404Y-128353571D01*
X126915810Y-128398376D01*
X126893052Y-128417052D01*
X126877150Y-128436429D01*
X121709580Y-133604000D01*
X121666000Y-133604000D01*
X121666000Y-130326944D01*
X121668457Y-130302000D01*
X121664681Y-130263660D01*
X121658649Y-130202415D01*
X121629601Y-130106657D01*
X121595100Y-130042110D01*
X121582429Y-130018404D01*
X121534850Y-129960429D01*
X121518948Y-129941052D01*
X121499571Y-129925150D01*
X120015087Y-128440666D01*
X124587000Y-128440666D01*
X124599864Y-128571273D01*
X124650697Y-128738850D01*
X124733247Y-128893290D01*
X124844341Y-129028659D01*
X124979709Y-129139753D01*
X125134149Y-129222303D01*
X125301726Y-129273136D01*
X125476000Y-129290301D01*
X125650273Y-129273136D01*
X125817850Y-129222303D01*
X125972290Y-129139753D01*
X126107659Y-129028659D01*
X126218753Y-128893291D01*
X126301303Y-128738851D01*
X126352136Y-128571274D01*
X126365000Y-128440667D01*
X126365000Y-121368333D01*
X126352136Y-121237726D01*
X126301303Y-121070149D01*
X126218753Y-120915709D01*
X126107659Y-120780341D01*
X125972291Y-120669247D01*
X125817851Y-120586697D01*
X125650274Y-120535864D01*
X125476000Y-120518699D01*
X125301727Y-120535864D01*
X125134150Y-120586697D01*
X124979710Y-120669247D01*
X124844342Y-120780341D01*
X124733248Y-120915709D01*
X124650698Y-121070149D01*
X124599865Y-121237726D01*
X124587001Y-121368333D01*
X124587000Y-128440666D01*
X120015087Y-128440666D01*
X119502855Y-127928435D01*
X119486948Y-127909052D01*
X119409595Y-127845571D01*
X119321343Y-127798399D01*
X119225585Y-127769351D01*
X119150947Y-127762000D01*
X119150944Y-127762000D01*
X119126000Y-127759543D01*
X119101056Y-127762000D01*
X116034421Y-127762000D01*
X115316000Y-127043580D01*
X115316000Y-125901821D01*
X115365378Y-125934814D01*
X115498411Y-125989918D01*
X115639639Y-126018010D01*
X115725122Y-126018010D01*
X115778039Y-126061438D01*
X115866290Y-126108609D01*
X115866292Y-126108610D01*
X115962050Y-126137658D01*
X116036688Y-126145009D01*
X116036690Y-126145009D01*
X116061634Y-126147466D01*
X116086578Y-126145009D01*
X118686047Y-126145009D01*
X118710991Y-126147466D01*
X118735935Y-126145009D01*
X118735938Y-126145009D01*
X118810576Y-126137658D01*
X118906334Y-126108610D01*
X118994586Y-126061438D01*
X119071939Y-125997957D01*
X119087846Y-125978574D01*
X119844420Y-125222000D01*
X120632210Y-125222000D01*
X120692015Y-125281805D01*
X120811742Y-125361804D01*
X120944775Y-125416908D01*
X121086003Y-125445000D01*
X121229997Y-125445000D01*
X121371225Y-125416908D01*
X121504258Y-125361804D01*
X121623985Y-125281805D01*
X121725805Y-125179985D01*
X121805804Y-125060258D01*
X121860908Y-124927225D01*
X121889000Y-124785997D01*
X121889000Y-124642003D01*
X121860908Y-124500775D01*
X121805804Y-124367742D01*
X121725805Y-124248015D01*
X121623985Y-124146195D01*
X121504258Y-124066196D01*
X121371225Y-124011092D01*
X121229997Y-123983000D01*
X121086003Y-123983000D01*
X120944775Y-124011092D01*
X120811742Y-124066196D01*
X120692015Y-124146195D01*
X120632210Y-124206000D01*
X119658944Y-124206000D01*
X119634000Y-124203543D01*
X119609056Y-124206000D01*
X119609053Y-124206000D01*
X119534415Y-124213351D01*
X119438657Y-124242399D01*
X119350405Y-124289571D01*
X119273052Y-124353052D01*
X119263646Y-124364513D01*
X119185805Y-124248015D01*
X119083985Y-124146195D01*
X118964258Y-124066196D01*
X118831225Y-124011092D01*
X118689997Y-123983000D01*
X118546003Y-123983000D01*
X118404775Y-124011092D01*
X118271742Y-124066196D01*
X118152015Y-124146195D01*
X118092210Y-124206000D01*
X116541514Y-124206000D01*
X116488595Y-124162571D01*
X116400343Y-124115399D01*
X116304585Y-124086351D01*
X116229947Y-124079000D01*
X116229944Y-124079000D01*
X116205000Y-124076543D01*
X116180056Y-124079000D01*
X115418275Y-124079000D01*
X115427777Y-124056059D01*
X115455869Y-123914831D01*
X115455869Y-123770837D01*
X115427777Y-123629609D01*
X115372673Y-123496576D01*
X115292674Y-123376849D01*
X115190854Y-123275029D01*
X115071127Y-123195030D01*
X114938094Y-123139926D01*
X114796866Y-123111834D01*
X114652872Y-123111834D01*
X114511644Y-123139926D01*
X114378611Y-123195030D01*
X114331794Y-123226312D01*
X114035826Y-122930344D01*
X114704750Y-122928500D01*
X114863500Y-122769750D01*
X114863500Y-122086895D01*
X114875041Y-122098436D01*
X114990500Y-122092155D01*
X115105959Y-122098436D01*
X115117500Y-122086895D01*
X115117500Y-122769750D01*
X115276250Y-122928500D01*
X116151875Y-122930914D01*
X116192196Y-123028258D01*
X116272195Y-123147985D01*
X116374015Y-123249805D01*
X116493742Y-123329804D01*
X116626775Y-123384908D01*
X116768003Y-123413000D01*
X116911997Y-123413000D01*
X117053225Y-123384908D01*
X117186258Y-123329804D01*
X117305985Y-123249805D01*
X117365790Y-123190000D01*
X118778778Y-123190000D01*
X118803722Y-123192457D01*
X118828666Y-123190000D01*
X118828669Y-123190000D01*
X118903307Y-123182649D01*
X118999065Y-123153601D01*
X119087317Y-123106429D01*
X119164670Y-123042948D01*
X119180577Y-123023565D01*
X120761152Y-121442990D01*
X120845729Y-121442990D01*
X120986957Y-121414898D01*
X121119990Y-121359794D01*
X121239717Y-121279795D01*
X121341537Y-121177975D01*
X121421536Y-121058248D01*
X121476640Y-120925215D01*
X121504732Y-120783987D01*
X121504732Y-120639993D01*
X121476640Y-120498765D01*
X121421536Y-120365732D01*
X121341537Y-120246005D01*
X121239717Y-120144185D01*
X121119990Y-120064186D01*
X120986957Y-120009082D01*
X120845729Y-119980990D01*
X120701735Y-119980990D01*
X120560507Y-120009082D01*
X120427474Y-120064186D01*
X120307747Y-120144185D01*
X120205927Y-120246005D01*
X120125928Y-120365732D01*
X120070824Y-120498765D01*
X120042732Y-120639993D01*
X120042732Y-120724570D01*
X118593302Y-122174000D01*
X117365790Y-122174000D01*
X117305985Y-122114195D01*
X117186258Y-122034196D01*
X117053225Y-121979092D01*
X117027436Y-121973962D01*
X117025500Y-121429250D01*
X116866750Y-121270500D01*
X116598071Y-121270500D01*
X116569908Y-121202149D01*
X116568263Y-121199075D01*
X116470357Y-121193749D01*
X116420108Y-121143500D01*
X116470357Y-121093251D01*
X116568263Y-121087925D01*
X116598004Y-121016500D01*
X116866750Y-121016500D01*
X117025500Y-120857750D01*
X117028572Y-119993500D01*
X117016312Y-119869018D01*
X116980002Y-119749320D01*
X116921037Y-119639006D01*
X116841685Y-119542315D01*
X116744994Y-119462963D01*
X116634680Y-119403998D01*
X116514982Y-119367688D01*
X116390500Y-119355428D01*
X115276250Y-119358500D01*
X115117500Y-119517250D01*
X115117500Y-120200105D01*
X115105959Y-120188564D01*
X114990500Y-120194845D01*
X114875041Y-120188564D01*
X114863500Y-120200105D01*
X114863500Y-119517250D01*
X114704750Y-119358500D01*
X113590500Y-119355428D01*
X113466018Y-119367688D01*
X113346320Y-119403998D01*
X113236006Y-119462963D01*
X113139315Y-119542315D01*
X113059963Y-119639006D01*
X113000998Y-119749320D01*
X112964688Y-119869018D01*
X112952428Y-119993500D01*
X112955500Y-120857750D01*
X113114250Y-121016500D01*
X113382929Y-121016500D01*
X113411092Y-121084851D01*
X113412737Y-121087925D01*
X113510643Y-121093251D01*
X113560892Y-121143500D01*
X113510643Y-121193749D01*
X113412737Y-121199075D01*
X113382996Y-121270500D01*
X113114250Y-121270500D01*
X112955500Y-121429250D01*
X112954010Y-121848528D01*
X112268000Y-121162519D01*
X112268000Y-119143790D01*
X112327805Y-119083985D01*
X112407804Y-118964258D01*
X112462908Y-118831225D01*
X112491000Y-118689997D01*
X112491000Y-118546003D01*
X112462908Y-118404775D01*
X112407804Y-118271742D01*
X112327805Y-118152015D01*
X112225985Y-118050195D01*
X112106258Y-117970196D01*
X111973225Y-117915092D01*
X111831997Y-117887000D01*
X111688003Y-117887000D01*
X111546775Y-117915092D01*
X111413742Y-117970196D01*
X111294015Y-118050195D01*
X111192195Y-118152015D01*
X111112196Y-118271742D01*
X111057092Y-118404775D01*
X111029000Y-118546003D01*
X90906000Y-118546003D01*
X90906000Y-109910003D01*
X95027000Y-109910003D01*
X95027000Y-110053997D01*
X95055092Y-110195225D01*
X95110196Y-110328258D01*
X95190195Y-110447985D01*
X95292015Y-110549805D01*
X95411742Y-110629804D01*
X95544775Y-110684908D01*
X95686003Y-110713000D01*
X95829997Y-110713000D01*
X95971225Y-110684908D01*
X96104258Y-110629804D01*
X96223985Y-110549805D01*
X96325805Y-110447985D01*
X96405804Y-110328258D01*
X96460908Y-110195225D01*
X96489000Y-110053997D01*
X96489000Y-109910003D01*
X96460908Y-109768775D01*
X96405804Y-109635742D01*
X96325805Y-109516015D01*
X96266000Y-109456210D01*
X96266000Y-108599424D01*
X114235000Y-108599424D01*
X114235000Y-108824576D01*
X114278925Y-109045401D01*
X114365087Y-109253413D01*
X114490174Y-109440620D01*
X114649380Y-109599826D01*
X114836587Y-109724913D01*
X115044599Y-109811075D01*
X115265424Y-109855000D01*
X115490576Y-109855000D01*
X115711401Y-109811075D01*
X115919413Y-109724913D01*
X116106620Y-109599826D01*
X116265826Y-109440620D01*
X116390913Y-109253413D01*
X116477075Y-109045401D01*
X116521000Y-108824576D01*
X116521000Y-108599424D01*
X116477075Y-108378599D01*
X116390913Y-108170587D01*
X116265826Y-107983380D01*
X116106620Y-107824174D01*
X115919413Y-107699087D01*
X115711401Y-107612925D01*
X115490576Y-107569000D01*
X115482614Y-107569000D01*
X115722133Y-107532922D01*
X115981023Y-107439636D01*
X116096980Y-107377656D01*
X116163960Y-107137565D01*
X115378000Y-106351605D01*
X114592040Y-107137565D01*
X114659020Y-107377656D01*
X114908048Y-107494756D01*
X115175135Y-107561023D01*
X115345286Y-107569000D01*
X115265424Y-107569000D01*
X115044599Y-107612925D01*
X114836587Y-107699087D01*
X114649380Y-107824174D01*
X114490174Y-107983380D01*
X114365087Y-108170587D01*
X114278925Y-108378599D01*
X114235000Y-108599424D01*
X96266000Y-108599424D01*
X96266000Y-108364247D01*
X96276828Y-108371482D01*
X96449715Y-108463892D01*
X96518720Y-108492475D01*
X96706313Y-108549380D01*
X96779565Y-108563950D01*
X96974655Y-108583165D01*
X97012000Y-108585000D01*
X106265786Y-108585000D01*
X106303131Y-108583165D01*
X106498222Y-108563950D01*
X106571474Y-108549380D01*
X106759067Y-108492475D01*
X106828072Y-108463892D01*
X107000959Y-108371482D01*
X107063062Y-108329986D01*
X107214598Y-108205623D01*
X107242301Y-108180515D01*
X109178799Y-106244017D01*
X113976090Y-106244017D01*
X114017078Y-106516133D01*
X114110364Y-106775023D01*
X114172344Y-106890980D01*
X114412435Y-106957960D01*
X115198395Y-106172000D01*
X115557605Y-106172000D01*
X116343565Y-106957960D01*
X116583656Y-106890980D01*
X116700756Y-106641952D01*
X116767023Y-106374865D01*
X116779910Y-106099983D01*
X116738922Y-105827867D01*
X116645636Y-105568977D01*
X116583656Y-105453020D01*
X116343565Y-105386040D01*
X115557605Y-106172000D01*
X115198395Y-106172000D01*
X114412435Y-105386040D01*
X114172344Y-105453020D01*
X114055244Y-105702048D01*
X113988977Y-105969135D01*
X113976090Y-106244017D01*
X109178799Y-106244017D01*
X111736515Y-103686301D01*
X111761623Y-103658598D01*
X111875840Y-103519424D01*
X114235000Y-103519424D01*
X114235000Y-103744576D01*
X114278925Y-103965401D01*
X114365087Y-104173413D01*
X114490174Y-104360620D01*
X114649380Y-104519826D01*
X114836587Y-104644913D01*
X115044599Y-104731075D01*
X115265424Y-104775000D01*
X115273386Y-104775000D01*
X115033867Y-104811078D01*
X114774977Y-104904364D01*
X114659020Y-104966344D01*
X114592040Y-105206435D01*
X115378000Y-105992395D01*
X116163960Y-105206435D01*
X116096980Y-104966344D01*
X115847952Y-104849244D01*
X115580865Y-104782977D01*
X115410714Y-104775000D01*
X115490576Y-104775000D01*
X115711401Y-104731075D01*
X115919413Y-104644913D01*
X116106620Y-104519826D01*
X116265826Y-104360620D01*
X116390913Y-104173413D01*
X116477075Y-103965401D01*
X116521000Y-103744576D01*
X116521000Y-103519424D01*
X116477075Y-103298599D01*
X116390913Y-103090587D01*
X116265826Y-102903380D01*
X116106620Y-102744174D01*
X115919413Y-102619087D01*
X115711401Y-102532925D01*
X115490576Y-102489000D01*
X115265424Y-102489000D01*
X115044599Y-102532925D01*
X114836587Y-102619087D01*
X114649380Y-102744174D01*
X114490174Y-102903380D01*
X114365087Y-103090587D01*
X114278925Y-103298599D01*
X114235000Y-103519424D01*
X111875840Y-103519424D01*
X111885986Y-103507062D01*
X111927482Y-103444959D01*
X112019892Y-103272072D01*
X112048475Y-103203067D01*
X112105380Y-103015474D01*
X112119950Y-102942222D01*
X112139165Y-102747131D01*
X112141000Y-102709786D01*
X112141000Y-100979424D01*
X114235000Y-100979424D01*
X114235000Y-101204576D01*
X114278925Y-101425401D01*
X114365087Y-101633413D01*
X114490174Y-101820620D01*
X114649380Y-101979826D01*
X114836587Y-102104913D01*
X115044599Y-102191075D01*
X115265424Y-102235000D01*
X115490576Y-102235000D01*
X115711401Y-102191075D01*
X115919413Y-102104913D01*
X116106620Y-101979826D01*
X116265826Y-101820620D01*
X116390913Y-101633413D01*
X116477075Y-101425401D01*
X116521000Y-101204576D01*
X116521000Y-100979424D01*
X116477075Y-100758599D01*
X116390913Y-100550587D01*
X116265826Y-100363380D01*
X116106620Y-100204174D01*
X115919413Y-100079087D01*
X115711401Y-99992925D01*
X115490576Y-99949000D01*
X115265424Y-99949000D01*
X115044599Y-99992925D01*
X114836587Y-100079087D01*
X114649380Y-100204174D01*
X114490174Y-100363380D01*
X114365087Y-100550587D01*
X114278925Y-100758599D01*
X114235000Y-100979424D01*
X112141000Y-100979424D01*
X112141000Y-96732059D01*
X112196003Y-96743000D01*
X112339997Y-96743000D01*
X112481225Y-96714908D01*
X112614258Y-96659804D01*
X112733985Y-96579805D01*
X112835805Y-96477985D01*
X112915804Y-96358258D01*
X112970908Y-96225225D01*
X112999000Y-96083997D01*
X112999000Y-95940003D01*
X112970908Y-95798775D01*
X112915804Y-95665742D01*
X112903000Y-95646579D01*
X112903000Y-90662421D01*
X112915804Y-90643258D01*
X112970908Y-90510225D01*
X112999000Y-90368997D01*
X112999000Y-90225003D01*
X112970908Y-90083775D01*
X112915804Y-89950742D01*
X112835805Y-89831015D01*
X112733985Y-89729195D01*
X112614258Y-89649196D01*
X112481225Y-89594092D01*
X112339997Y-89566000D01*
X112196003Y-89566000D01*
X112054775Y-89594092D01*
X111921742Y-89649196D01*
X111802015Y-89729195D01*
X111700195Y-89831015D01*
X111620196Y-89950742D01*
X111565092Y-90083775D01*
X111537000Y-90225003D01*
X111537000Y-90368997D01*
X111565092Y-90510225D01*
X111620196Y-90643258D01*
X111633000Y-90662421D01*
X111633001Y-93916160D01*
X111557274Y-93854013D01*
X111495172Y-93812518D01*
X111322285Y-93720108D01*
X111253280Y-93691525D01*
X111065687Y-93634620D01*
X110992435Y-93620050D01*
X110797345Y-93600835D01*
X110760000Y-93599000D01*
X101202968Y-93599000D01*
X101158625Y-93601589D01*
X100927438Y-93628680D01*
X100841156Y-93649183D01*
X100622495Y-93728987D01*
X100543290Y-93768882D01*
X100349002Y-93897076D01*
X100313416Y-93923658D01*
X97409000Y-96369482D01*
X97409000Y-93557065D01*
X97495218Y-93539915D01*
X97628251Y-93484811D01*
X97747978Y-93404812D01*
X97849798Y-93302992D01*
X97929797Y-93183265D01*
X97984901Y-93050232D01*
X98012993Y-92909004D01*
X98012993Y-92765010D01*
X97984901Y-92623782D01*
X97929797Y-92490749D01*
X97849798Y-92371022D01*
X97747978Y-92269202D01*
X97628251Y-92189203D01*
X97495218Y-92134099D01*
X97353990Y-92106007D01*
X97209996Y-92106007D01*
X97068768Y-92134099D01*
X96935735Y-92189203D01*
X96816008Y-92269202D01*
X96714188Y-92371022D01*
X96634189Y-92490749D01*
X96579085Y-92623782D01*
X96550993Y-92765010D01*
X96550993Y-92848074D01*
X96540053Y-92857052D01*
X96524151Y-92876429D01*
X96524150Y-92876430D01*
X96476571Y-92934405D01*
X96451814Y-92980723D01*
X96429400Y-93022657D01*
X96401592Y-93114329D01*
X96400352Y-93118416D01*
X96390543Y-93218000D01*
X96393001Y-93242954D01*
X96393000Y-96436579D01*
X95416430Y-97413150D01*
X95397053Y-97429052D01*
X95381151Y-97448429D01*
X95381150Y-97448430D01*
X95333571Y-97506405D01*
X95305425Y-97559064D01*
X95286400Y-97594657D01*
X95263539Y-97670021D01*
X95257352Y-97690416D01*
X95247543Y-97790000D01*
X95250001Y-97814954D01*
X95250000Y-109456210D01*
X95190195Y-109516015D01*
X95110196Y-109635742D01*
X95055092Y-109768775D01*
X95027000Y-109910003D01*
X90906000Y-109910003D01*
X90906000Y-92334757D01*
X91225000Y-92334757D01*
X91225000Y-92577243D01*
X91272307Y-92815069D01*
X91365102Y-93039097D01*
X91499820Y-93240717D01*
X91671283Y-93412180D01*
X91872903Y-93546898D01*
X92096931Y-93639693D01*
X92334757Y-93687000D01*
X92577243Y-93687000D01*
X92815069Y-93639693D01*
X93039097Y-93546898D01*
X93240717Y-93412180D01*
X93412180Y-93240717D01*
X93546898Y-93039097D01*
X93639693Y-92815069D01*
X93687000Y-92577243D01*
X93687000Y-92334757D01*
X93639693Y-92096931D01*
X93546898Y-91872903D01*
X93412180Y-91671283D01*
X93240717Y-91499820D01*
X93039097Y-91365102D01*
X92815069Y-91272307D01*
X92577243Y-91225000D01*
X92334757Y-91225000D01*
X92096931Y-91272307D01*
X91872903Y-91365102D01*
X91671283Y-91499820D01*
X91499820Y-91671283D01*
X91365102Y-91872903D01*
X91272307Y-92096931D01*
X91225000Y-92334757D01*
X90906000Y-92334757D01*
X90906000Y-84005932D01*
X90914429Y-84012849D01*
X91303413Y-84401833D01*
X91272307Y-84476931D01*
X91225000Y-84714757D01*
X91225000Y-84957243D01*
X91272307Y-85195069D01*
X91365102Y-85419097D01*
X91499820Y-85620717D01*
X91671283Y-85792180D01*
X91872903Y-85926898D01*
X91987168Y-85974228D01*
X91824748Y-86031843D01*
X91574645Y-86180822D01*
X91358412Y-86375731D01*
X91184359Y-86609080D01*
X91059175Y-86871901D01*
X91014524Y-87019110D01*
X91135845Y-87249000D01*
X92329000Y-87249000D01*
X92329000Y-87229000D01*
X92583000Y-87229000D01*
X92583000Y-87249000D01*
X92603000Y-87249000D01*
X92603000Y-87503000D01*
X92583000Y-87503000D01*
X92583000Y-87523000D01*
X92329000Y-87523000D01*
X92329000Y-87503000D01*
X91135845Y-87503000D01*
X91014524Y-87732890D01*
X91059175Y-87880099D01*
X91184359Y-88142920D01*
X91358412Y-88376269D01*
X91574645Y-88571178D01*
X91824748Y-88720157D01*
X91987168Y-88777772D01*
X91872903Y-88825102D01*
X91671283Y-88959820D01*
X91499820Y-89131283D01*
X91365102Y-89332903D01*
X91272307Y-89556931D01*
X91225000Y-89794757D01*
X91225000Y-90037243D01*
X91272307Y-90275069D01*
X91365102Y-90499097D01*
X91499820Y-90700717D01*
X91671283Y-90872180D01*
X91872903Y-91006898D01*
X92096931Y-91099693D01*
X92334757Y-91147000D01*
X92577243Y-91147000D01*
X92815069Y-91099693D01*
X93039097Y-91006898D01*
X93240717Y-90872180D01*
X93287999Y-90824898D01*
X93287999Y-91231055D01*
X93285542Y-91255999D01*
X93287999Y-91280943D01*
X93287999Y-91280945D01*
X93295350Y-91355583D01*
X93324398Y-91451341D01*
X93371570Y-91539594D01*
X93435051Y-91616947D01*
X93454434Y-91632854D01*
X93763157Y-91941577D01*
X93763157Y-93306000D01*
X93770513Y-93380689D01*
X93792299Y-93452508D01*
X93827678Y-93518696D01*
X93875289Y-93576711D01*
X93933304Y-93624322D01*
X93999492Y-93659701D01*
X94071311Y-93681487D01*
X94146000Y-93688843D01*
X95846000Y-93688843D01*
X95920689Y-93681487D01*
X95992508Y-93659701D01*
X96058696Y-93624322D01*
X96116711Y-93576711D01*
X96164322Y-93518696D01*
X96199701Y-93452508D01*
X96221487Y-93380689D01*
X96228843Y-93306000D01*
X96228843Y-91606000D01*
X96221487Y-91531311D01*
X96199701Y-91459492D01*
X96164322Y-91393304D01*
X96116711Y-91335289D01*
X96058696Y-91287678D01*
X95992508Y-91252299D01*
X95920689Y-91230513D01*
X95846000Y-91223157D01*
X94481577Y-91223157D01*
X94303999Y-91045579D01*
X94303999Y-90934131D01*
X94412903Y-91006898D01*
X94636931Y-91099693D01*
X94874757Y-91147000D01*
X95117243Y-91147000D01*
X95355069Y-91099693D01*
X95579097Y-91006898D01*
X95780717Y-90872180D01*
X95952180Y-90700717D01*
X96086898Y-90499097D01*
X96179693Y-90275069D01*
X96227000Y-90037243D01*
X96227000Y-89794757D01*
X96179693Y-89556931D01*
X96086898Y-89332903D01*
X95952180Y-89131283D01*
X95780717Y-88959820D01*
X95579097Y-88825102D01*
X95355069Y-88732307D01*
X95117243Y-88685000D01*
X94874757Y-88685000D01*
X94636931Y-88732307D01*
X94412903Y-88825102D01*
X94303999Y-88897869D01*
X94303999Y-88394131D01*
X94412903Y-88466898D01*
X94636931Y-88559693D01*
X94874757Y-88607000D01*
X95117243Y-88607000D01*
X95355069Y-88559693D01*
X95579097Y-88466898D01*
X95780717Y-88332180D01*
X95952180Y-88160717D01*
X96086898Y-87959097D01*
X96179693Y-87735069D01*
X96227000Y-87497243D01*
X96227000Y-87254757D01*
X96179693Y-87016931D01*
X96086898Y-86792903D01*
X95952180Y-86591283D01*
X95780717Y-86419820D01*
X95579097Y-86285102D01*
X95355069Y-86192307D01*
X95117243Y-86145000D01*
X94874757Y-86145000D01*
X94636931Y-86192307D01*
X94412903Y-86285102D01*
X94303999Y-86357869D01*
X94303999Y-85854131D01*
X94412903Y-85926898D01*
X94636931Y-86019693D01*
X94874757Y-86067000D01*
X95117243Y-86067000D01*
X95355069Y-86019693D01*
X95579097Y-85926898D01*
X95780717Y-85792180D01*
X95952180Y-85620717D01*
X96086898Y-85419097D01*
X96179693Y-85195069D01*
X96227000Y-84957243D01*
X96227000Y-84714757D01*
X96179693Y-84476931D01*
X96148587Y-84401834D01*
X96888411Y-83662010D01*
X116217590Y-83662010D01*
X118395000Y-85839421D01*
X118395000Y-85923997D01*
X118423092Y-86065225D01*
X118478196Y-86198258D01*
X118558195Y-86317985D01*
X118660015Y-86419805D01*
X118779742Y-86499804D01*
X118912775Y-86554908D01*
X119054003Y-86583000D01*
X119197997Y-86583000D01*
X119339225Y-86554908D01*
X119472258Y-86499804D01*
X119591985Y-86419805D01*
X119693805Y-86317985D01*
X119773804Y-86198258D01*
X119828908Y-86065225D01*
X119857000Y-85923997D01*
X119857000Y-85780003D01*
X119828908Y-85638775D01*
X119773804Y-85505742D01*
X119693805Y-85386015D01*
X119591985Y-85284195D01*
X119472258Y-85204196D01*
X119339225Y-85149092D01*
X119197997Y-85121000D01*
X119113421Y-85121000D01*
X117177420Y-83185000D01*
X120693580Y-83185000D01*
X125423580Y-87915000D01*
G36*
X115010643Y-121093251D02*
G01*
X115060892Y-121143500D01*
X115010643Y-121193749D01*
X114990500Y-121194845D01*
X114970357Y-121193749D01*
X114920108Y-121143500D01*
X114970357Y-121093251D01*
X114990500Y-121092155D01*
X115010643Y-121093251D01*
G37*
X115010643Y-121093251D02*
X115060892Y-121143500D01*
X115010643Y-121193749D01*
X114990500Y-121194845D01*
X114970357Y-121193749D01*
X114920108Y-121143500D01*
X114970357Y-121093251D01*
X114990500Y-121092155D01*
X115010643Y-121093251D01*
G36*
X148336000Y-101657572D02*
G01*
X148218440Y-101608877D01*
X148077212Y-101580785D01*
X147933218Y-101580785D01*
X147814034Y-101604492D01*
X147814034Y-93164254D01*
X147816491Y-93139310D01*
X147814034Y-93114363D01*
X147806683Y-93039725D01*
X147777635Y-92943967D01*
X147730463Y-92855715D01*
X147666982Y-92778362D01*
X147647599Y-92762455D01*
X147499164Y-92614020D01*
X147600906Y-92546038D01*
X147702726Y-92444218D01*
X147782725Y-92324491D01*
X147837829Y-92191458D01*
X147865921Y-92050230D01*
X147865921Y-91965653D01*
X148336001Y-91495574D01*
X148336000Y-101657572D01*
G37*
X148336000Y-101657572D02*
X148218440Y-101608877D01*
X148077212Y-101580785D01*
X147933218Y-101580785D01*
X147814034Y-101604492D01*
X147814034Y-93164254D01*
X147816491Y-93139310D01*
X147814034Y-93114363D01*
X147806683Y-93039725D01*
X147777635Y-92943967D01*
X147730463Y-92855715D01*
X147666982Y-92778362D01*
X147647599Y-92762455D01*
X147499164Y-92614020D01*
X147600906Y-92546038D01*
X147702726Y-92444218D01*
X147782725Y-92324491D01*
X147837829Y-92191458D01*
X147865921Y-92050230D01*
X147865921Y-91965653D01*
X148336001Y-91495574D01*
X148336000Y-101657572D01*
G36*
X168890001Y-71719730D02*
G01*
X168890001Y-89027000D01*
X150552141Y-89027000D01*
X150607298Y-88845171D01*
X150622000Y-88695902D01*
X150622000Y-88695895D01*
X150626914Y-88646001D01*
X150622000Y-88596107D01*
X150622000Y-86161003D01*
X162227000Y-86161003D01*
X162227000Y-86304997D01*
X162255092Y-86446225D01*
X162310196Y-86579258D01*
X162390195Y-86698985D01*
X162492015Y-86800805D01*
X162611742Y-86880804D01*
X162744775Y-86935908D01*
X162886003Y-86964000D01*
X163029997Y-86964000D01*
X163171225Y-86935908D01*
X163304258Y-86880804D01*
X163423985Y-86800805D01*
X163525805Y-86698985D01*
X163605804Y-86579258D01*
X163660908Y-86446225D01*
X163689000Y-86304997D01*
X163689000Y-86161003D01*
X164027000Y-86161003D01*
X164027000Y-86304997D01*
X164055092Y-86446225D01*
X164110196Y-86579258D01*
X164190195Y-86698985D01*
X164292015Y-86800805D01*
X164411742Y-86880804D01*
X164544775Y-86935908D01*
X164686003Y-86964000D01*
X164829997Y-86964000D01*
X164971225Y-86935908D01*
X165104258Y-86880804D01*
X165223985Y-86800805D01*
X165325805Y-86698985D01*
X165405804Y-86579258D01*
X165460908Y-86446225D01*
X165489000Y-86304997D01*
X165489000Y-86161003D01*
X165460908Y-86019775D01*
X165405804Y-85886742D01*
X165325805Y-85767015D01*
X165223985Y-85665195D01*
X165104258Y-85585196D01*
X164971225Y-85530092D01*
X164829997Y-85502000D01*
X164686003Y-85502000D01*
X164544775Y-85530092D01*
X164411742Y-85585196D01*
X164292015Y-85665195D01*
X164190195Y-85767015D01*
X164110196Y-85886742D01*
X164055092Y-86019775D01*
X164027000Y-86161003D01*
X163689000Y-86161003D01*
X163660908Y-86019775D01*
X163605804Y-85886742D01*
X163525805Y-85767015D01*
X163423985Y-85665195D01*
X163304258Y-85585196D01*
X163171225Y-85530092D01*
X163029997Y-85502000D01*
X162886003Y-85502000D01*
X162744775Y-85530092D01*
X162611742Y-85585196D01*
X162492015Y-85665195D01*
X162390195Y-85767015D01*
X162310196Y-85886742D01*
X162255092Y-86019775D01*
X162227000Y-86161003D01*
X150622000Y-86161003D01*
X150622000Y-76404098D01*
X150607298Y-76254829D01*
X150549202Y-76063313D01*
X150454860Y-75886810D01*
X150327896Y-75732104D01*
X150173190Y-75605140D01*
X149996686Y-75510798D01*
X149805170Y-75452702D01*
X149606000Y-75433085D01*
X149406829Y-75452702D01*
X149215313Y-75510798D01*
X149038810Y-75605140D01*
X148884104Y-75732104D01*
X148757140Y-75886810D01*
X148662798Y-76063314D01*
X148604702Y-76254830D01*
X148590000Y-76404099D01*
X148590001Y-84278089D01*
X148590000Y-84278099D01*
X148590000Y-85497993D01*
X147679411Y-84587404D01*
X147663504Y-84568021D01*
X147586151Y-84504540D01*
X147497899Y-84457368D01*
X147402141Y-84428320D01*
X147327503Y-84420969D01*
X147327500Y-84420969D01*
X147302556Y-84418512D01*
X147277612Y-84420969D01*
X145226115Y-84420969D01*
X145228908Y-84414225D01*
X145257000Y-84272997D01*
X145257000Y-84129003D01*
X145228908Y-83987775D01*
X145173804Y-83854742D01*
X145093805Y-83735015D01*
X144991985Y-83633195D01*
X144982412Y-83626798D01*
X145098281Y-83578804D01*
X145218008Y-83498805D01*
X145319828Y-83396985D01*
X145399827Y-83277258D01*
X145454931Y-83144225D01*
X145483023Y-83002997D01*
X145483023Y-82859003D01*
X145454931Y-82717775D01*
X145399827Y-82584742D01*
X145319828Y-82465015D01*
X145218008Y-82363195D01*
X145161000Y-82325103D01*
X145161000Y-80662790D01*
X145220805Y-80602985D01*
X145300804Y-80483258D01*
X145355908Y-80350225D01*
X145384000Y-80208997D01*
X145384000Y-80065003D01*
X145355908Y-79923775D01*
X145300804Y-79790742D01*
X145220805Y-79671015D01*
X145118985Y-79569195D01*
X144999258Y-79489196D01*
X144866225Y-79434092D01*
X144724997Y-79406000D01*
X144581003Y-79406000D01*
X144439775Y-79434092D01*
X144337010Y-79476659D01*
X144337010Y-77686954D01*
X144339467Y-77662010D01*
X144337010Y-77637063D01*
X144329659Y-77562425D01*
X144300611Y-77466667D01*
X144253439Y-77378415D01*
X144189958Y-77301062D01*
X144170575Y-77285155D01*
X143860000Y-76974580D01*
X143860000Y-76890003D01*
X143831908Y-76748775D01*
X143776804Y-76615742D01*
X143696805Y-76496015D01*
X143594985Y-76394195D01*
X143475258Y-76314196D01*
X143342225Y-76259092D01*
X143200997Y-76231000D01*
X143057003Y-76231000D01*
X142915775Y-76259092D01*
X142782742Y-76314196D01*
X142663015Y-76394195D01*
X142561195Y-76496015D01*
X142482785Y-76613364D01*
X141701000Y-75831580D01*
X141701000Y-75747003D01*
X141672908Y-75605775D01*
X141617804Y-75472742D01*
X141537805Y-75353015D01*
X141435985Y-75251195D01*
X141316258Y-75171196D01*
X141183225Y-75116092D01*
X141041997Y-75088000D01*
X140898003Y-75088000D01*
X140756775Y-75116092D01*
X140623742Y-75171196D01*
X140504015Y-75251195D01*
X140402195Y-75353015D01*
X140322196Y-75472742D01*
X140267092Y-75605775D01*
X140239000Y-75747003D01*
X140239000Y-75890997D01*
X140267092Y-76032225D01*
X140322196Y-76165258D01*
X140402195Y-76284985D01*
X140504015Y-76386805D01*
X140623742Y-76466804D01*
X140756775Y-76521908D01*
X140898003Y-76550000D01*
X140982580Y-76550000D01*
X142621000Y-78188421D01*
X142621001Y-83414046D01*
X142618543Y-83439000D01*
X142624364Y-83498092D01*
X142628352Y-83538585D01*
X142644647Y-83592301D01*
X142657400Y-83634343D01*
X142704571Y-83722595D01*
X142752150Y-83780570D01*
X142768053Y-83799948D01*
X142787430Y-83815850D01*
X143392549Y-84420969D01*
X141229821Y-84420969D01*
X141204877Y-84418512D01*
X141179933Y-84420969D01*
X141179930Y-84420969D01*
X141105292Y-84428320D01*
X141009534Y-84457368D01*
X140921282Y-84504540D01*
X140843929Y-84568021D01*
X140828022Y-84587404D01*
X140448746Y-84966680D01*
X140364169Y-84966680D01*
X140222941Y-84994772D01*
X140089908Y-85049876D01*
X139970181Y-85129875D01*
X139868361Y-85231695D01*
X139788362Y-85351422D01*
X139733258Y-85484455D01*
X139705166Y-85625683D01*
X139705166Y-85769677D01*
X139733258Y-85910905D01*
X139788362Y-86043938D01*
X139868361Y-86163665D01*
X139875718Y-86171022D01*
X136009363Y-86171022D01*
X137395096Y-84785290D01*
X137479672Y-84785290D01*
X137620900Y-84757198D01*
X137753933Y-84702094D01*
X137873660Y-84622095D01*
X137975480Y-84520275D01*
X138055479Y-84400548D01*
X138110583Y-84267515D01*
X138138675Y-84126287D01*
X138138675Y-83982293D01*
X138110583Y-83841065D01*
X138055479Y-83708032D01*
X137975480Y-83588305D01*
X137873660Y-83486485D01*
X137753933Y-83406486D01*
X137726251Y-83395020D01*
X137817995Y-83333718D01*
X137919815Y-83231898D01*
X137999814Y-83112171D01*
X138054918Y-82979138D01*
X138083010Y-82837910D01*
X138083010Y-82693916D01*
X138054918Y-82552688D01*
X137999814Y-82419655D01*
X137919815Y-82299928D01*
X137817995Y-82198108D01*
X137698268Y-82118109D01*
X137565235Y-82063005D01*
X137424007Y-82034913D01*
X137340954Y-82034913D01*
X137354908Y-82001225D01*
X137383000Y-81859997D01*
X137383000Y-81716003D01*
X137354908Y-81574775D01*
X137299804Y-81441742D01*
X137219805Y-81322015D01*
X137117985Y-81220195D01*
X136998258Y-81140196D01*
X136865225Y-81085092D01*
X136723997Y-81057000D01*
X136580003Y-81057000D01*
X136438775Y-81085092D01*
X136305742Y-81140196D01*
X136186015Y-81220195D01*
X136084195Y-81322015D01*
X136004196Y-81441742D01*
X135949092Y-81574775D01*
X135921000Y-81716003D01*
X135921000Y-81859997D01*
X135949092Y-82001225D01*
X136004196Y-82134258D01*
X136084195Y-82253985D01*
X136144000Y-82313790D01*
X136144001Y-82847578D01*
X134282580Y-84709000D01*
X128988421Y-84709000D01*
X127573439Y-83294019D01*
X127577124Y-83294902D01*
X127830055Y-83304752D01*
X128080049Y-83265070D01*
X128317496Y-83177378D01*
X128406134Y-83130001D01*
X128459522Y-82901327D01*
X129359078Y-82901327D01*
X129412466Y-83130001D01*
X129642374Y-83235895D01*
X129888524Y-83294902D01*
X130141455Y-83304752D01*
X130391449Y-83265070D01*
X130628896Y-83177378D01*
X130717534Y-83130001D01*
X130770922Y-82901327D01*
X131721278Y-82901327D01*
X131774666Y-83130001D01*
X132004574Y-83235895D01*
X132250724Y-83294902D01*
X132503655Y-83304752D01*
X132753649Y-83265070D01*
X132991096Y-83177378D01*
X133079734Y-83130001D01*
X133133122Y-82901327D01*
X132427200Y-82195405D01*
X131721278Y-82901327D01*
X130770922Y-82901327D01*
X130065000Y-82195405D01*
X129359078Y-82901327D01*
X128459522Y-82901327D01*
X127753600Y-82195405D01*
X127739458Y-82209548D01*
X127559853Y-82029943D01*
X127573995Y-82015800D01*
X127933205Y-82015800D01*
X128639127Y-82721722D01*
X128867801Y-82668334D01*
X128906218Y-82584927D01*
X128950799Y-82668334D01*
X129179473Y-82721722D01*
X129885395Y-82015800D01*
X130244605Y-82015800D01*
X130950527Y-82721722D01*
X131179201Y-82668334D01*
X131245332Y-82524756D01*
X131265622Y-82579696D01*
X131312999Y-82668334D01*
X131541673Y-82721722D01*
X132247595Y-82015800D01*
X132606805Y-82015800D01*
X133312727Y-82721722D01*
X133541401Y-82668334D01*
X133647295Y-82438426D01*
X133706302Y-82192276D01*
X133716152Y-81939345D01*
X133676470Y-81689351D01*
X133588778Y-81451904D01*
X133541401Y-81363266D01*
X133312727Y-81309878D01*
X132606805Y-82015800D01*
X132247595Y-82015800D01*
X131541673Y-81309878D01*
X131312999Y-81363266D01*
X131246868Y-81506844D01*
X131226578Y-81451904D01*
X131179201Y-81363266D01*
X130950527Y-81309878D01*
X130244605Y-82015800D01*
X129885395Y-82015800D01*
X129179473Y-81309878D01*
X128950799Y-81363266D01*
X128912382Y-81446673D01*
X128867801Y-81363266D01*
X128639127Y-81309878D01*
X127933205Y-82015800D01*
X127573995Y-82015800D01*
X126868073Y-81309878D01*
X126639399Y-81363266D01*
X126533505Y-81593174D01*
X126474498Y-81839324D01*
X126464648Y-82092255D01*
X126482190Y-82202770D01*
X124716947Y-80437527D01*
X127047678Y-80437527D01*
X127101066Y-80666201D01*
X127330974Y-80772095D01*
X127380158Y-80783885D01*
X127189704Y-80854222D01*
X127101066Y-80901599D01*
X127047678Y-81130273D01*
X127753600Y-81836195D01*
X128459522Y-81130273D01*
X128406134Y-80901599D01*
X128216844Y-80814413D01*
X129109192Y-80814413D01*
X129204956Y-81078814D01*
X129404874Y-81176069D01*
X130065000Y-81836195D01*
X130717953Y-81183242D01*
X130751088Y-81171795D01*
X130925044Y-81078814D01*
X131020808Y-80814413D01*
X130065000Y-79858605D01*
X129109192Y-80814413D01*
X128216844Y-80814413D01*
X128176226Y-80795705D01*
X128127042Y-80783915D01*
X128317496Y-80713578D01*
X128406134Y-80666201D01*
X128459521Y-80437529D01*
X128576390Y-80554398D01*
X128639604Y-80491184D01*
X128665186Y-80539044D01*
X128929587Y-80634808D01*
X129885395Y-79679000D01*
X130244605Y-79679000D01*
X131200413Y-80634808D01*
X131464814Y-80539044D01*
X131514199Y-80437527D01*
X131721278Y-80437527D01*
X131774666Y-80666201D01*
X132004574Y-80772095D01*
X132053758Y-80783885D01*
X131863304Y-80854222D01*
X131774666Y-80901599D01*
X131721278Y-81130273D01*
X132427200Y-81836195D01*
X133133122Y-81130273D01*
X133079734Y-80901599D01*
X132849826Y-80795705D01*
X132800642Y-80783915D01*
X132991096Y-80713578D01*
X133079734Y-80666201D01*
X133133122Y-80437527D01*
X132427200Y-79731605D01*
X131721278Y-80437527D01*
X131514199Y-80437527D01*
X131605704Y-80249429D01*
X131625440Y-80174155D01*
X132247595Y-79552000D01*
X132606805Y-79552000D01*
X133312727Y-80257922D01*
X133541401Y-80204534D01*
X133647295Y-79974626D01*
X133706302Y-79728476D01*
X133716152Y-79475545D01*
X133676470Y-79225551D01*
X133588778Y-78988104D01*
X133541401Y-78899466D01*
X133312727Y-78846078D01*
X132606805Y-79552000D01*
X132247595Y-79552000D01*
X131541673Y-78846078D01*
X131486230Y-78859022D01*
X131464814Y-78818956D01*
X131200413Y-78723192D01*
X130244605Y-79679000D01*
X129885395Y-79679000D01*
X128929587Y-78723192D01*
X128665186Y-78818956D01*
X128650680Y-78848775D01*
X128639127Y-78846078D01*
X127933205Y-79552000D01*
X127947348Y-79566143D01*
X127767743Y-79745748D01*
X127753600Y-79731605D01*
X127047678Y-80437527D01*
X124716947Y-80437527D01*
X124077875Y-79798455D01*
X124061968Y-79779072D01*
X123984615Y-79715591D01*
X123896363Y-79668419D01*
X123800605Y-79639371D01*
X123725967Y-79632020D01*
X123725964Y-79632020D01*
X123701020Y-79629563D01*
X123676076Y-79632020D01*
X119832529Y-79632020D01*
X119833238Y-79628455D01*
X126464648Y-79628455D01*
X126504330Y-79878449D01*
X126592022Y-80115896D01*
X126639399Y-80204534D01*
X126868073Y-80257922D01*
X127573995Y-79552000D01*
X126868073Y-78846078D01*
X126639399Y-78899466D01*
X126533505Y-79129374D01*
X126474498Y-79375524D01*
X126464648Y-79628455D01*
X119833238Y-79628455D01*
X119857000Y-79508995D01*
X119857000Y-79365001D01*
X119828908Y-79223773D01*
X119773804Y-79090740D01*
X119693805Y-78971013D01*
X119684291Y-78961499D01*
X119693805Y-78951985D01*
X119773804Y-78832258D01*
X119828908Y-78699225D01*
X119857000Y-78557997D01*
X119857000Y-78414003D01*
X119828908Y-78272775D01*
X119799728Y-78202327D01*
X127047678Y-78202327D01*
X127101066Y-78431001D01*
X127107898Y-78434148D01*
X127101066Y-78437799D01*
X127047678Y-78666473D01*
X127753600Y-79372395D01*
X128459522Y-78666473D01*
X128430833Y-78543587D01*
X129109192Y-78543587D01*
X130065000Y-79499395D01*
X131020808Y-78543587D01*
X130925044Y-78279186D01*
X130770527Y-78204018D01*
X130770922Y-78202327D01*
X131721278Y-78202327D01*
X131774666Y-78431001D01*
X131781498Y-78434148D01*
X131774666Y-78437799D01*
X131721278Y-78666473D01*
X132427200Y-79372395D01*
X133133122Y-78666473D01*
X133079734Y-78437799D01*
X133072902Y-78434652D01*
X133079734Y-78431001D01*
X133133122Y-78202327D01*
X132427200Y-77496405D01*
X131721278Y-78202327D01*
X130770922Y-78202327D01*
X130065000Y-77496405D01*
X129370938Y-78190467D01*
X129204956Y-78279186D01*
X129109192Y-78543587D01*
X128430833Y-78543587D01*
X128406134Y-78437799D01*
X128399302Y-78434652D01*
X128406134Y-78431001D01*
X128459522Y-78202327D01*
X127753600Y-77496405D01*
X127047678Y-78202327D01*
X119799728Y-78202327D01*
X119773804Y-78139742D01*
X119693805Y-78020015D01*
X119591985Y-77918195D01*
X119491421Y-77851000D01*
X119591985Y-77783805D01*
X119693805Y-77681985D01*
X119773804Y-77562258D01*
X119828908Y-77429225D01*
X119836062Y-77393255D01*
X126464648Y-77393255D01*
X126504330Y-77643249D01*
X126592022Y-77880696D01*
X126639399Y-77969334D01*
X126868073Y-78022722D01*
X127573995Y-77316800D01*
X127933205Y-77316800D01*
X128639127Y-78022722D01*
X128867801Y-77969334D01*
X128906218Y-77885927D01*
X128950799Y-77969334D01*
X129179473Y-78022722D01*
X129885395Y-77316800D01*
X130244605Y-77316800D01*
X130950527Y-78022722D01*
X131179201Y-77969334D01*
X131245332Y-77825756D01*
X131265622Y-77880696D01*
X131312999Y-77969334D01*
X131541673Y-78022722D01*
X132247595Y-77316800D01*
X132606805Y-77316800D01*
X133312727Y-78022722D01*
X133541401Y-77969334D01*
X133647295Y-77739426D01*
X133706302Y-77493276D01*
X133716152Y-77240345D01*
X133676470Y-76990351D01*
X133588778Y-76752904D01*
X133541401Y-76664266D01*
X133312727Y-76610878D01*
X132606805Y-77316800D01*
X132247595Y-77316800D01*
X131541673Y-76610878D01*
X131312999Y-76664266D01*
X131246868Y-76807844D01*
X131226578Y-76752904D01*
X131179201Y-76664266D01*
X130950527Y-76610878D01*
X130244605Y-77316800D01*
X129885395Y-77316800D01*
X129179473Y-76610878D01*
X128950799Y-76664266D01*
X128912382Y-76747673D01*
X128867801Y-76664266D01*
X128639127Y-76610878D01*
X127933205Y-77316800D01*
X127573995Y-77316800D01*
X126868073Y-76610878D01*
X126639399Y-76664266D01*
X126533505Y-76894174D01*
X126474498Y-77140324D01*
X126464648Y-77393255D01*
X119836062Y-77393255D01*
X119857000Y-77287997D01*
X119857000Y-77144003D01*
X119828908Y-77002775D01*
X119773804Y-76869742D01*
X119693805Y-76750015D01*
X119591985Y-76648195D01*
X119472258Y-76568196D01*
X119339225Y-76513092D01*
X119197997Y-76485000D01*
X119054003Y-76485000D01*
X118912775Y-76513092D01*
X118779742Y-76568196D01*
X118660015Y-76648195D01*
X118558195Y-76750015D01*
X118478196Y-76869742D01*
X118462893Y-76906687D01*
X117264579Y-78105001D01*
X100540421Y-78105001D01*
X100198855Y-77763435D01*
X100182948Y-77744052D01*
X100105595Y-77680571D01*
X100017343Y-77633399D01*
X99921585Y-77604351D01*
X99846947Y-77597000D01*
X99846944Y-77597000D01*
X99822000Y-77594543D01*
X99797056Y-77597000D01*
X96680610Y-77597000D01*
X96344027Y-77260418D01*
X96328116Y-77241031D01*
X96250763Y-77177550D01*
X96162511Y-77130378D01*
X96066753Y-77101330D01*
X95992115Y-77093979D01*
X95992112Y-77093979D01*
X95967168Y-77091522D01*
X95942224Y-77093979D01*
X92858962Y-77093979D01*
X92834018Y-77091522D01*
X92809074Y-77093979D01*
X92809072Y-77093979D01*
X92734434Y-77101330D01*
X92638676Y-77130378D01*
X92638674Y-77130379D01*
X92550423Y-77177550D01*
X92503572Y-77216000D01*
X92473071Y-77241031D01*
X92457169Y-77260408D01*
X90914434Y-78803144D01*
X90906000Y-78810066D01*
X90906000Y-76255003D01*
X112045000Y-76255003D01*
X112045000Y-76398997D01*
X112073092Y-76540225D01*
X112128196Y-76673258D01*
X112208195Y-76792985D01*
X112310015Y-76894805D01*
X112429742Y-76974804D01*
X112562775Y-77029908D01*
X112704003Y-77058000D01*
X112847997Y-77058000D01*
X112989225Y-77029908D01*
X113122258Y-76974804D01*
X113241985Y-76894805D01*
X113301790Y-76835000D01*
X117363579Y-76835000D01*
X117382742Y-76847804D01*
X117515775Y-76902908D01*
X117657003Y-76931000D01*
X117800997Y-76931000D01*
X117942225Y-76902908D01*
X118075258Y-76847804D01*
X118194985Y-76767805D01*
X118296805Y-76665985D01*
X118376804Y-76546258D01*
X118424432Y-76431273D01*
X127047678Y-76431273D01*
X127753600Y-77137195D01*
X128459522Y-76431273D01*
X129359078Y-76431273D01*
X130065000Y-77137195D01*
X130770922Y-76431273D01*
X131721278Y-76431273D01*
X132427200Y-77137195D01*
X133133122Y-76431273D01*
X133079734Y-76202599D01*
X132849826Y-76096705D01*
X132603676Y-76037698D01*
X132350745Y-76027848D01*
X132100751Y-76067530D01*
X131863304Y-76155222D01*
X131774666Y-76202599D01*
X131721278Y-76431273D01*
X130770922Y-76431273D01*
X130717534Y-76202599D01*
X130487626Y-76096705D01*
X130241476Y-76037698D01*
X129988545Y-76027848D01*
X129738551Y-76067530D01*
X129501104Y-76155222D01*
X129412466Y-76202599D01*
X129359078Y-76431273D01*
X128459522Y-76431273D01*
X128406134Y-76202599D01*
X128176226Y-76096705D01*
X127930076Y-76037698D01*
X127677145Y-76027848D01*
X127427151Y-76067530D01*
X127189704Y-76155222D01*
X127101066Y-76202599D01*
X127047678Y-76431273D01*
X118424432Y-76431273D01*
X118431908Y-76413225D01*
X118460000Y-76271997D01*
X118460000Y-76128003D01*
X118431908Y-75986775D01*
X118376804Y-75853742D01*
X118296805Y-75734015D01*
X118194985Y-75632195D01*
X118075258Y-75552196D01*
X117942225Y-75497092D01*
X117800997Y-75469000D01*
X117657003Y-75469000D01*
X117515775Y-75497092D01*
X117382742Y-75552196D01*
X117363579Y-75565000D01*
X112934180Y-75565000D01*
X112902999Y-75561929D01*
X112871818Y-75565000D01*
X112871808Y-75565000D01*
X112778518Y-75574188D01*
X112706613Y-75596000D01*
X112704003Y-75596000D01*
X112562775Y-75624092D01*
X112429742Y-75679196D01*
X112310015Y-75759195D01*
X112208195Y-75861015D01*
X112128196Y-75980742D01*
X112073092Y-76113775D01*
X112045000Y-76255003D01*
X90906000Y-76255003D01*
X90906000Y-71722605D01*
X90942425Y-71220590D01*
X93095034Y-71218893D01*
X93427750Y-71716839D01*
X93891161Y-72180250D01*
X94436075Y-72544349D01*
X95041550Y-72795145D01*
X95684319Y-72923000D01*
X96339681Y-72923000D01*
X96982450Y-72795145D01*
X97587925Y-72544349D01*
X98132839Y-72180250D01*
X98596250Y-71716839D01*
X98932042Y-71214289D01*
X160845587Y-71165462D01*
X160909651Y-71320125D01*
X161273750Y-71865039D01*
X161737161Y-72328450D01*
X162282075Y-72692549D01*
X162887550Y-72943345D01*
X163530319Y-73071200D01*
X164185681Y-73071200D01*
X164828450Y-72943345D01*
X165433925Y-72692549D01*
X165978839Y-72328450D01*
X166442250Y-71865039D01*
X166806349Y-71320125D01*
X166872381Y-71160709D01*
X168855714Y-71159144D01*
X168890001Y-71719730D01*
G37*
X168890001Y-71719730D02*
X168890001Y-89027000D01*
X150552141Y-89027000D01*
X150607298Y-88845171D01*
X150622000Y-88695902D01*
X150622000Y-88695895D01*
X150626914Y-88646001D01*
X150622000Y-88596107D01*
X150622000Y-86161003D01*
X162227000Y-86161003D01*
X162227000Y-86304997D01*
X162255092Y-86446225D01*
X162310196Y-86579258D01*
X162390195Y-86698985D01*
X162492015Y-86800805D01*
X162611742Y-86880804D01*
X162744775Y-86935908D01*
X162886003Y-86964000D01*
X163029997Y-86964000D01*
X163171225Y-86935908D01*
X163304258Y-86880804D01*
X163423985Y-86800805D01*
X163525805Y-86698985D01*
X163605804Y-86579258D01*
X163660908Y-86446225D01*
X163689000Y-86304997D01*
X163689000Y-86161003D01*
X164027000Y-86161003D01*
X164027000Y-86304997D01*
X164055092Y-86446225D01*
X164110196Y-86579258D01*
X164190195Y-86698985D01*
X164292015Y-86800805D01*
X164411742Y-86880804D01*
X164544775Y-86935908D01*
X164686003Y-86964000D01*
X164829997Y-86964000D01*
X164971225Y-86935908D01*
X165104258Y-86880804D01*
X165223985Y-86800805D01*
X165325805Y-86698985D01*
X165405804Y-86579258D01*
X165460908Y-86446225D01*
X165489000Y-86304997D01*
X165489000Y-86161003D01*
X165460908Y-86019775D01*
X165405804Y-85886742D01*
X165325805Y-85767015D01*
X165223985Y-85665195D01*
X165104258Y-85585196D01*
X164971225Y-85530092D01*
X164829997Y-85502000D01*
X164686003Y-85502000D01*
X164544775Y-85530092D01*
X164411742Y-85585196D01*
X164292015Y-85665195D01*
X164190195Y-85767015D01*
X164110196Y-85886742D01*
X164055092Y-86019775D01*
X164027000Y-86161003D01*
X163689000Y-86161003D01*
X163660908Y-86019775D01*
X163605804Y-85886742D01*
X163525805Y-85767015D01*
X163423985Y-85665195D01*
X163304258Y-85585196D01*
X163171225Y-85530092D01*
X163029997Y-85502000D01*
X162886003Y-85502000D01*
X162744775Y-85530092D01*
X162611742Y-85585196D01*
X162492015Y-85665195D01*
X162390195Y-85767015D01*
X162310196Y-85886742D01*
X162255092Y-86019775D01*
X162227000Y-86161003D01*
X150622000Y-86161003D01*
X150622000Y-76404098D01*
X150607298Y-76254829D01*
X150549202Y-76063313D01*
X150454860Y-75886810D01*
X150327896Y-75732104D01*
X150173190Y-75605140D01*
X149996686Y-75510798D01*
X149805170Y-75452702D01*
X149606000Y-75433085D01*
X149406829Y-75452702D01*
X149215313Y-75510798D01*
X149038810Y-75605140D01*
X148884104Y-75732104D01*
X148757140Y-75886810D01*
X148662798Y-76063314D01*
X148604702Y-76254830D01*
X148590000Y-76404099D01*
X148590001Y-84278089D01*
X148590000Y-84278099D01*
X148590000Y-85497993D01*
X147679411Y-84587404D01*
X147663504Y-84568021D01*
X147586151Y-84504540D01*
X147497899Y-84457368D01*
X147402141Y-84428320D01*
X147327503Y-84420969D01*
X147327500Y-84420969D01*
X147302556Y-84418512D01*
X147277612Y-84420969D01*
X145226115Y-84420969D01*
X145228908Y-84414225D01*
X145257000Y-84272997D01*
X145257000Y-84129003D01*
X145228908Y-83987775D01*
X145173804Y-83854742D01*
X145093805Y-83735015D01*
X144991985Y-83633195D01*
X144982412Y-83626798D01*
X145098281Y-83578804D01*
X145218008Y-83498805D01*
X145319828Y-83396985D01*
X145399827Y-83277258D01*
X145454931Y-83144225D01*
X145483023Y-83002997D01*
X145483023Y-82859003D01*
X145454931Y-82717775D01*
X145399827Y-82584742D01*
X145319828Y-82465015D01*
X145218008Y-82363195D01*
X145161000Y-82325103D01*
X145161000Y-80662790D01*
X145220805Y-80602985D01*
X145300804Y-80483258D01*
X145355908Y-80350225D01*
X145384000Y-80208997D01*
X145384000Y-80065003D01*
X145355908Y-79923775D01*
X145300804Y-79790742D01*
X145220805Y-79671015D01*
X145118985Y-79569195D01*
X144999258Y-79489196D01*
X144866225Y-79434092D01*
X144724997Y-79406000D01*
X144581003Y-79406000D01*
X144439775Y-79434092D01*
X144337010Y-79476659D01*
X144337010Y-77686954D01*
X144339467Y-77662010D01*
X144337010Y-77637063D01*
X144329659Y-77562425D01*
X144300611Y-77466667D01*
X144253439Y-77378415D01*
X144189958Y-77301062D01*
X144170575Y-77285155D01*
X143860000Y-76974580D01*
X143860000Y-76890003D01*
X143831908Y-76748775D01*
X143776804Y-76615742D01*
X143696805Y-76496015D01*
X143594985Y-76394195D01*
X143475258Y-76314196D01*
X143342225Y-76259092D01*
X143200997Y-76231000D01*
X143057003Y-76231000D01*
X142915775Y-76259092D01*
X142782742Y-76314196D01*
X142663015Y-76394195D01*
X142561195Y-76496015D01*
X142482785Y-76613364D01*
X141701000Y-75831580D01*
X141701000Y-75747003D01*
X141672908Y-75605775D01*
X141617804Y-75472742D01*
X141537805Y-75353015D01*
X141435985Y-75251195D01*
X141316258Y-75171196D01*
X141183225Y-75116092D01*
X141041997Y-75088000D01*
X140898003Y-75088000D01*
X140756775Y-75116092D01*
X140623742Y-75171196D01*
X140504015Y-75251195D01*
X140402195Y-75353015D01*
X140322196Y-75472742D01*
X140267092Y-75605775D01*
X140239000Y-75747003D01*
X140239000Y-75890997D01*
X140267092Y-76032225D01*
X140322196Y-76165258D01*
X140402195Y-76284985D01*
X140504015Y-76386805D01*
X140623742Y-76466804D01*
X140756775Y-76521908D01*
X140898003Y-76550000D01*
X140982580Y-76550000D01*
X142621000Y-78188421D01*
X142621001Y-83414046D01*
X142618543Y-83439000D01*
X142624364Y-83498092D01*
X142628352Y-83538585D01*
X142644647Y-83592301D01*
X142657400Y-83634343D01*
X142704571Y-83722595D01*
X142752150Y-83780570D01*
X142768053Y-83799948D01*
X142787430Y-83815850D01*
X143392549Y-84420969D01*
X141229821Y-84420969D01*
X141204877Y-84418512D01*
X141179933Y-84420969D01*
X141179930Y-84420969D01*
X141105292Y-84428320D01*
X141009534Y-84457368D01*
X140921282Y-84504540D01*
X140843929Y-84568021D01*
X140828022Y-84587404D01*
X140448746Y-84966680D01*
X140364169Y-84966680D01*
X140222941Y-84994772D01*
X140089908Y-85049876D01*
X139970181Y-85129875D01*
X139868361Y-85231695D01*
X139788362Y-85351422D01*
X139733258Y-85484455D01*
X139705166Y-85625683D01*
X139705166Y-85769677D01*
X139733258Y-85910905D01*
X139788362Y-86043938D01*
X139868361Y-86163665D01*
X139875718Y-86171022D01*
X136009363Y-86171022D01*
X137395096Y-84785290D01*
X137479672Y-84785290D01*
X137620900Y-84757198D01*
X137753933Y-84702094D01*
X137873660Y-84622095D01*
X137975480Y-84520275D01*
X138055479Y-84400548D01*
X138110583Y-84267515D01*
X138138675Y-84126287D01*
X138138675Y-83982293D01*
X138110583Y-83841065D01*
X138055479Y-83708032D01*
X137975480Y-83588305D01*
X137873660Y-83486485D01*
X137753933Y-83406486D01*
X137726251Y-83395020D01*
X137817995Y-83333718D01*
X137919815Y-83231898D01*
X137999814Y-83112171D01*
X138054918Y-82979138D01*
X138083010Y-82837910D01*
X138083010Y-82693916D01*
X138054918Y-82552688D01*
X137999814Y-82419655D01*
X137919815Y-82299928D01*
X137817995Y-82198108D01*
X137698268Y-82118109D01*
X137565235Y-82063005D01*
X137424007Y-82034913D01*
X137340954Y-82034913D01*
X137354908Y-82001225D01*
X137383000Y-81859997D01*
X137383000Y-81716003D01*
X137354908Y-81574775D01*
X137299804Y-81441742D01*
X137219805Y-81322015D01*
X137117985Y-81220195D01*
X136998258Y-81140196D01*
X136865225Y-81085092D01*
X136723997Y-81057000D01*
X136580003Y-81057000D01*
X136438775Y-81085092D01*
X136305742Y-81140196D01*
X136186015Y-81220195D01*
X136084195Y-81322015D01*
X136004196Y-81441742D01*
X135949092Y-81574775D01*
X135921000Y-81716003D01*
X135921000Y-81859997D01*
X135949092Y-82001225D01*
X136004196Y-82134258D01*
X136084195Y-82253985D01*
X136144000Y-82313790D01*
X136144001Y-82847578D01*
X134282580Y-84709000D01*
X128988421Y-84709000D01*
X127573439Y-83294019D01*
X127577124Y-83294902D01*
X127830055Y-83304752D01*
X128080049Y-83265070D01*
X128317496Y-83177378D01*
X128406134Y-83130001D01*
X128459522Y-82901327D01*
X129359078Y-82901327D01*
X129412466Y-83130001D01*
X129642374Y-83235895D01*
X129888524Y-83294902D01*
X130141455Y-83304752D01*
X130391449Y-83265070D01*
X130628896Y-83177378D01*
X130717534Y-83130001D01*
X130770922Y-82901327D01*
X131721278Y-82901327D01*
X131774666Y-83130001D01*
X132004574Y-83235895D01*
X132250724Y-83294902D01*
X132503655Y-83304752D01*
X132753649Y-83265070D01*
X132991096Y-83177378D01*
X133079734Y-83130001D01*
X133133122Y-82901327D01*
X132427200Y-82195405D01*
X131721278Y-82901327D01*
X130770922Y-82901327D01*
X130065000Y-82195405D01*
X129359078Y-82901327D01*
X128459522Y-82901327D01*
X127753600Y-82195405D01*
X127739458Y-82209548D01*
X127559853Y-82029943D01*
X127573995Y-82015800D01*
X127933205Y-82015800D01*
X128639127Y-82721722D01*
X128867801Y-82668334D01*
X128906218Y-82584927D01*
X128950799Y-82668334D01*
X129179473Y-82721722D01*
X129885395Y-82015800D01*
X130244605Y-82015800D01*
X130950527Y-82721722D01*
X131179201Y-82668334D01*
X131245332Y-82524756D01*
X131265622Y-82579696D01*
X131312999Y-82668334D01*
X131541673Y-82721722D01*
X132247595Y-82015800D01*
X132606805Y-82015800D01*
X133312727Y-82721722D01*
X133541401Y-82668334D01*
X133647295Y-82438426D01*
X133706302Y-82192276D01*
X133716152Y-81939345D01*
X133676470Y-81689351D01*
X133588778Y-81451904D01*
X133541401Y-81363266D01*
X133312727Y-81309878D01*
X132606805Y-82015800D01*
X132247595Y-82015800D01*
X131541673Y-81309878D01*
X131312999Y-81363266D01*
X131246868Y-81506844D01*
X131226578Y-81451904D01*
X131179201Y-81363266D01*
X130950527Y-81309878D01*
X130244605Y-82015800D01*
X129885395Y-82015800D01*
X129179473Y-81309878D01*
X128950799Y-81363266D01*
X128912382Y-81446673D01*
X128867801Y-81363266D01*
X128639127Y-81309878D01*
X127933205Y-82015800D01*
X127573995Y-82015800D01*
X126868073Y-81309878D01*
X126639399Y-81363266D01*
X126533505Y-81593174D01*
X126474498Y-81839324D01*
X126464648Y-82092255D01*
X126482190Y-82202770D01*
X124716947Y-80437527D01*
X127047678Y-80437527D01*
X127101066Y-80666201D01*
X127330974Y-80772095D01*
X127380158Y-80783885D01*
X127189704Y-80854222D01*
X127101066Y-80901599D01*
X127047678Y-81130273D01*
X127753600Y-81836195D01*
X128459522Y-81130273D01*
X128406134Y-80901599D01*
X128216844Y-80814413D01*
X129109192Y-80814413D01*
X129204956Y-81078814D01*
X129404874Y-81176069D01*
X130065000Y-81836195D01*
X130717953Y-81183242D01*
X130751088Y-81171795D01*
X130925044Y-81078814D01*
X131020808Y-80814413D01*
X130065000Y-79858605D01*
X129109192Y-80814413D01*
X128216844Y-80814413D01*
X128176226Y-80795705D01*
X128127042Y-80783915D01*
X128317496Y-80713578D01*
X128406134Y-80666201D01*
X128459521Y-80437529D01*
X128576390Y-80554398D01*
X128639604Y-80491184D01*
X128665186Y-80539044D01*
X128929587Y-80634808D01*
X129885395Y-79679000D01*
X130244605Y-79679000D01*
X131200413Y-80634808D01*
X131464814Y-80539044D01*
X131514199Y-80437527D01*
X131721278Y-80437527D01*
X131774666Y-80666201D01*
X132004574Y-80772095D01*
X132053758Y-80783885D01*
X131863304Y-80854222D01*
X131774666Y-80901599D01*
X131721278Y-81130273D01*
X132427200Y-81836195D01*
X133133122Y-81130273D01*
X133079734Y-80901599D01*
X132849826Y-80795705D01*
X132800642Y-80783915D01*
X132991096Y-80713578D01*
X133079734Y-80666201D01*
X133133122Y-80437527D01*
X132427200Y-79731605D01*
X131721278Y-80437527D01*
X131514199Y-80437527D01*
X131605704Y-80249429D01*
X131625440Y-80174155D01*
X132247595Y-79552000D01*
X132606805Y-79552000D01*
X133312727Y-80257922D01*
X133541401Y-80204534D01*
X133647295Y-79974626D01*
X133706302Y-79728476D01*
X133716152Y-79475545D01*
X133676470Y-79225551D01*
X133588778Y-78988104D01*
X133541401Y-78899466D01*
X133312727Y-78846078D01*
X132606805Y-79552000D01*
X132247595Y-79552000D01*
X131541673Y-78846078D01*
X131486230Y-78859022D01*
X131464814Y-78818956D01*
X131200413Y-78723192D01*
X130244605Y-79679000D01*
X129885395Y-79679000D01*
X128929587Y-78723192D01*
X128665186Y-78818956D01*
X128650680Y-78848775D01*
X128639127Y-78846078D01*
X127933205Y-79552000D01*
X127947348Y-79566143D01*
X127767743Y-79745748D01*
X127753600Y-79731605D01*
X127047678Y-80437527D01*
X124716947Y-80437527D01*
X124077875Y-79798455D01*
X124061968Y-79779072D01*
X123984615Y-79715591D01*
X123896363Y-79668419D01*
X123800605Y-79639371D01*
X123725967Y-79632020D01*
X123725964Y-79632020D01*
X123701020Y-79629563D01*
X123676076Y-79632020D01*
X119832529Y-79632020D01*
X119833238Y-79628455D01*
X126464648Y-79628455D01*
X126504330Y-79878449D01*
X126592022Y-80115896D01*
X126639399Y-80204534D01*
X126868073Y-80257922D01*
X127573995Y-79552000D01*
X126868073Y-78846078D01*
X126639399Y-78899466D01*
X126533505Y-79129374D01*
X126474498Y-79375524D01*
X126464648Y-79628455D01*
X119833238Y-79628455D01*
X119857000Y-79508995D01*
X119857000Y-79365001D01*
X119828908Y-79223773D01*
X119773804Y-79090740D01*
X119693805Y-78971013D01*
X119684291Y-78961499D01*
X119693805Y-78951985D01*
X119773804Y-78832258D01*
X119828908Y-78699225D01*
X119857000Y-78557997D01*
X119857000Y-78414003D01*
X119828908Y-78272775D01*
X119799728Y-78202327D01*
X127047678Y-78202327D01*
X127101066Y-78431001D01*
X127107898Y-78434148D01*
X127101066Y-78437799D01*
X127047678Y-78666473D01*
X127753600Y-79372395D01*
X128459522Y-78666473D01*
X128430833Y-78543587D01*
X129109192Y-78543587D01*
X130065000Y-79499395D01*
X131020808Y-78543587D01*
X130925044Y-78279186D01*
X130770527Y-78204018D01*
X130770922Y-78202327D01*
X131721278Y-78202327D01*
X131774666Y-78431001D01*
X131781498Y-78434148D01*
X131774666Y-78437799D01*
X131721278Y-78666473D01*
X132427200Y-79372395D01*
X133133122Y-78666473D01*
X133079734Y-78437799D01*
X133072902Y-78434652D01*
X133079734Y-78431001D01*
X133133122Y-78202327D01*
X132427200Y-77496405D01*
X131721278Y-78202327D01*
X130770922Y-78202327D01*
X130065000Y-77496405D01*
X129370938Y-78190467D01*
X129204956Y-78279186D01*
X129109192Y-78543587D01*
X128430833Y-78543587D01*
X128406134Y-78437799D01*
X128399302Y-78434652D01*
X128406134Y-78431001D01*
X128459522Y-78202327D01*
X127753600Y-77496405D01*
X127047678Y-78202327D01*
X119799728Y-78202327D01*
X119773804Y-78139742D01*
X119693805Y-78020015D01*
X119591985Y-77918195D01*
X119491421Y-77851000D01*
X119591985Y-77783805D01*
X119693805Y-77681985D01*
X119773804Y-77562258D01*
X119828908Y-77429225D01*
X119836062Y-77393255D01*
X126464648Y-77393255D01*
X126504330Y-77643249D01*
X126592022Y-77880696D01*
X126639399Y-77969334D01*
X126868073Y-78022722D01*
X127573995Y-77316800D01*
X127933205Y-77316800D01*
X128639127Y-78022722D01*
X128867801Y-77969334D01*
X128906218Y-77885927D01*
X128950799Y-77969334D01*
X129179473Y-78022722D01*
X129885395Y-77316800D01*
X130244605Y-77316800D01*
X130950527Y-78022722D01*
X131179201Y-77969334D01*
X131245332Y-77825756D01*
X131265622Y-77880696D01*
X131312999Y-77969334D01*
X131541673Y-78022722D01*
X132247595Y-77316800D01*
X132606805Y-77316800D01*
X133312727Y-78022722D01*
X133541401Y-77969334D01*
X133647295Y-77739426D01*
X133706302Y-77493276D01*
X133716152Y-77240345D01*
X133676470Y-76990351D01*
X133588778Y-76752904D01*
X133541401Y-76664266D01*
X133312727Y-76610878D01*
X132606805Y-77316800D01*
X132247595Y-77316800D01*
X131541673Y-76610878D01*
X131312999Y-76664266D01*
X131246868Y-76807844D01*
X131226578Y-76752904D01*
X131179201Y-76664266D01*
X130950527Y-76610878D01*
X130244605Y-77316800D01*
X129885395Y-77316800D01*
X129179473Y-76610878D01*
X128950799Y-76664266D01*
X128912382Y-76747673D01*
X128867801Y-76664266D01*
X128639127Y-76610878D01*
X127933205Y-77316800D01*
X127573995Y-77316800D01*
X126868073Y-76610878D01*
X126639399Y-76664266D01*
X126533505Y-76894174D01*
X126474498Y-77140324D01*
X126464648Y-77393255D01*
X119836062Y-77393255D01*
X119857000Y-77287997D01*
X119857000Y-77144003D01*
X119828908Y-77002775D01*
X119773804Y-76869742D01*
X119693805Y-76750015D01*
X119591985Y-76648195D01*
X119472258Y-76568196D01*
X119339225Y-76513092D01*
X119197997Y-76485000D01*
X119054003Y-76485000D01*
X118912775Y-76513092D01*
X118779742Y-76568196D01*
X118660015Y-76648195D01*
X118558195Y-76750015D01*
X118478196Y-76869742D01*
X118462893Y-76906687D01*
X117264579Y-78105001D01*
X100540421Y-78105001D01*
X100198855Y-77763435D01*
X100182948Y-77744052D01*
X100105595Y-77680571D01*
X100017343Y-77633399D01*
X99921585Y-77604351D01*
X99846947Y-77597000D01*
X99846944Y-77597000D01*
X99822000Y-77594543D01*
X99797056Y-77597000D01*
X96680610Y-77597000D01*
X96344027Y-77260418D01*
X96328116Y-77241031D01*
X96250763Y-77177550D01*
X96162511Y-77130378D01*
X96066753Y-77101330D01*
X95992115Y-77093979D01*
X95992112Y-77093979D01*
X95967168Y-77091522D01*
X95942224Y-77093979D01*
X92858962Y-77093979D01*
X92834018Y-77091522D01*
X92809074Y-77093979D01*
X92809072Y-77093979D01*
X92734434Y-77101330D01*
X92638676Y-77130378D01*
X92638674Y-77130379D01*
X92550423Y-77177550D01*
X92503572Y-77216000D01*
X92473071Y-77241031D01*
X92457169Y-77260408D01*
X90914434Y-78803144D01*
X90906000Y-78810066D01*
X90906000Y-76255003D01*
X112045000Y-76255003D01*
X112045000Y-76398997D01*
X112073092Y-76540225D01*
X112128196Y-76673258D01*
X112208195Y-76792985D01*
X112310015Y-76894805D01*
X112429742Y-76974804D01*
X112562775Y-77029908D01*
X112704003Y-77058000D01*
X112847997Y-77058000D01*
X112989225Y-77029908D01*
X113122258Y-76974804D01*
X113241985Y-76894805D01*
X113301790Y-76835000D01*
X117363579Y-76835000D01*
X117382742Y-76847804D01*
X117515775Y-76902908D01*
X117657003Y-76931000D01*
X117800997Y-76931000D01*
X117942225Y-76902908D01*
X118075258Y-76847804D01*
X118194985Y-76767805D01*
X118296805Y-76665985D01*
X118376804Y-76546258D01*
X118424432Y-76431273D01*
X127047678Y-76431273D01*
X127753600Y-77137195D01*
X128459522Y-76431273D01*
X129359078Y-76431273D01*
X130065000Y-77137195D01*
X130770922Y-76431273D01*
X131721278Y-76431273D01*
X132427200Y-77137195D01*
X133133122Y-76431273D01*
X133079734Y-76202599D01*
X132849826Y-76096705D01*
X132603676Y-76037698D01*
X132350745Y-76027848D01*
X132100751Y-76067530D01*
X131863304Y-76155222D01*
X131774666Y-76202599D01*
X131721278Y-76431273D01*
X130770922Y-76431273D01*
X130717534Y-76202599D01*
X130487626Y-76096705D01*
X130241476Y-76037698D01*
X129988545Y-76027848D01*
X129738551Y-76067530D01*
X129501104Y-76155222D01*
X129412466Y-76202599D01*
X129359078Y-76431273D01*
X128459522Y-76431273D01*
X128406134Y-76202599D01*
X128176226Y-76096705D01*
X127930076Y-76037698D01*
X127677145Y-76027848D01*
X127427151Y-76067530D01*
X127189704Y-76155222D01*
X127101066Y-76202599D01*
X127047678Y-76431273D01*
X118424432Y-76431273D01*
X118431908Y-76413225D01*
X118460000Y-76271997D01*
X118460000Y-76128003D01*
X118431908Y-75986775D01*
X118376804Y-75853742D01*
X118296805Y-75734015D01*
X118194985Y-75632195D01*
X118075258Y-75552196D01*
X117942225Y-75497092D01*
X117800997Y-75469000D01*
X117657003Y-75469000D01*
X117515775Y-75497092D01*
X117382742Y-75552196D01*
X117363579Y-75565000D01*
X112934180Y-75565000D01*
X112902999Y-75561929D01*
X112871818Y-75565000D01*
X112871808Y-75565000D01*
X112778518Y-75574188D01*
X112706613Y-75596000D01*
X112704003Y-75596000D01*
X112562775Y-75624092D01*
X112429742Y-75679196D01*
X112310015Y-75759195D01*
X112208195Y-75861015D01*
X112128196Y-75980742D01*
X112073092Y-76113775D01*
X112045000Y-76255003D01*
X90906000Y-76255003D01*
X90906000Y-71722605D01*
X90942425Y-71220590D01*
X93095034Y-71218893D01*
X93427750Y-71716839D01*
X93891161Y-72180250D01*
X94436075Y-72544349D01*
X95041550Y-72795145D01*
X95684319Y-72923000D01*
X96339681Y-72923000D01*
X96982450Y-72795145D01*
X97587925Y-72544349D01*
X98132839Y-72180250D01*
X98596250Y-71716839D01*
X98932042Y-71214289D01*
X160845587Y-71165462D01*
X160909651Y-71320125D01*
X161273750Y-71865039D01*
X161737161Y-72328450D01*
X162282075Y-72692549D01*
X162887550Y-72943345D01*
X163530319Y-73071200D01*
X164185681Y-73071200D01*
X164828450Y-72943345D01*
X165433925Y-72692549D01*
X165978839Y-72328450D01*
X166442250Y-71865039D01*
X166806349Y-71320125D01*
X166872381Y-71160709D01*
X168855714Y-71159144D01*
X168890001Y-71719730D01*
G36*
X110930189Y-94124376D02*
G01*
X111093850Y-94174022D01*
X111244672Y-94254638D01*
X111376870Y-94363130D01*
X111485362Y-94495328D01*
X111565978Y-94646150D01*
X111615624Y-94809811D01*
X111633000Y-94986234D01*
X111633000Y-95646579D01*
X111620196Y-95665742D01*
X111565092Y-95798775D01*
X111537000Y-95940003D01*
X111537000Y-96083997D01*
X111565092Y-96225225D01*
X111620196Y-96358258D01*
X111633000Y-96377421D01*
X111633000Y-102703552D01*
X111615624Y-102879976D01*
X111565978Y-103043637D01*
X111485363Y-103194458D01*
X111372898Y-103331496D01*
X106887496Y-107816898D01*
X106750458Y-107929363D01*
X106599637Y-108009978D01*
X106435976Y-108059624D01*
X106259552Y-108077000D01*
X97018234Y-108077000D01*
X96841811Y-108059624D01*
X96678150Y-108009978D01*
X96527328Y-107929362D01*
X96395130Y-107820870D01*
X96286638Y-107688672D01*
X96266000Y-107650061D01*
X96266000Y-106099000D01*
X96684928Y-106099000D01*
X96697188Y-106223482D01*
X96733498Y-106343180D01*
X96792463Y-106453494D01*
X96871815Y-106550185D01*
X96968506Y-106629537D01*
X97078820Y-106688502D01*
X97198518Y-106724812D01*
X97323000Y-106737072D01*
X97726250Y-106734000D01*
X97885000Y-106575250D01*
X97885000Y-105537000D01*
X98139000Y-105537000D01*
X98139000Y-106575250D01*
X98297750Y-106734000D01*
X98701000Y-106737072D01*
X98825482Y-106724812D01*
X98945180Y-106688502D01*
X99055494Y-106629537D01*
X99152185Y-106550185D01*
X99231537Y-106453494D01*
X99290502Y-106343180D01*
X99326812Y-106223482D01*
X99339072Y-106099000D01*
X99336000Y-105695750D01*
X99177250Y-105537000D01*
X98139000Y-105537000D01*
X97885000Y-105537000D01*
X96846750Y-105537000D01*
X96688000Y-105695750D01*
X96684928Y-106099000D01*
X96266000Y-106099000D01*
X96266000Y-104721000D01*
X96684928Y-104721000D01*
X96688000Y-105124250D01*
X96846750Y-105283000D01*
X97885000Y-105283000D01*
X97885000Y-104244750D01*
X98139000Y-104244750D01*
X98139000Y-105283000D01*
X99177250Y-105283000D01*
X99336000Y-105124250D01*
X99339072Y-104721000D01*
X99326812Y-104596518D01*
X99290502Y-104476820D01*
X99231537Y-104366506D01*
X99152185Y-104269815D01*
X99055494Y-104190463D01*
X98945180Y-104131498D01*
X98825482Y-104095188D01*
X98701000Y-104082928D01*
X98297750Y-104086000D01*
X98139000Y-104244750D01*
X97885000Y-104244750D01*
X97726250Y-104086000D01*
X97323000Y-104082928D01*
X97198518Y-104095188D01*
X97078820Y-104131498D01*
X96968506Y-104190463D01*
X96871815Y-104269815D01*
X96792463Y-104366506D01*
X96733498Y-104476820D01*
X96697188Y-104596518D01*
X96684928Y-104721000D01*
X96266000Y-104721000D01*
X96266000Y-102764614D01*
X96942000Y-102764614D01*
X96942000Y-102975386D01*
X96983120Y-103182107D01*
X97063779Y-103376835D01*
X97180877Y-103552085D01*
X97329915Y-103701123D01*
X97505165Y-103818221D01*
X97699893Y-103898880D01*
X97906614Y-103940000D01*
X98117386Y-103940000D01*
X98324107Y-103898880D01*
X98518835Y-103818221D01*
X98694085Y-103701123D01*
X98843123Y-103552085D01*
X98960221Y-103376835D01*
X99040880Y-103182107D01*
X99082000Y-102975386D01*
X99082000Y-102764614D01*
X99040880Y-102557893D01*
X98960221Y-102363165D01*
X98843123Y-102187915D01*
X98694085Y-102038877D01*
X98518835Y-101921779D01*
X98324107Y-101841120D01*
X98117386Y-101800000D01*
X97906614Y-101800000D01*
X97699893Y-101841120D01*
X97505165Y-101921779D01*
X97329915Y-102038877D01*
X97180877Y-102187915D01*
X97063779Y-102363165D01*
X96983120Y-102557893D01*
X96942000Y-102764614D01*
X96266000Y-102764614D01*
X96266000Y-98067219D01*
X96319302Y-97979162D01*
X96454961Y-97837013D01*
X100634969Y-94317006D01*
X100810638Y-94201097D01*
X101001344Y-94131496D01*
X101210384Y-94107000D01*
X110753766Y-94107000D01*
X110930189Y-94124376D01*
G37*
X110930189Y-94124376D02*
X111093850Y-94174022D01*
X111244672Y-94254638D01*
X111376870Y-94363130D01*
X111485362Y-94495328D01*
X111565978Y-94646150D01*
X111615624Y-94809811D01*
X111633000Y-94986234D01*
X111633000Y-95646579D01*
X111620196Y-95665742D01*
X111565092Y-95798775D01*
X111537000Y-95940003D01*
X111537000Y-96083997D01*
X111565092Y-96225225D01*
X111620196Y-96358258D01*
X111633000Y-96377421D01*
X111633000Y-102703552D01*
X111615624Y-102879976D01*
X111565978Y-103043637D01*
X111485363Y-103194458D01*
X111372898Y-103331496D01*
X106887496Y-107816898D01*
X106750458Y-107929363D01*
X106599637Y-108009978D01*
X106435976Y-108059624D01*
X106259552Y-108077000D01*
X97018234Y-108077000D01*
X96841811Y-108059624D01*
X96678150Y-108009978D01*
X96527328Y-107929362D01*
X96395130Y-107820870D01*
X96286638Y-107688672D01*
X96266000Y-107650061D01*
X96266000Y-106099000D01*
X96684928Y-106099000D01*
X96697188Y-106223482D01*
X96733498Y-106343180D01*
X96792463Y-106453494D01*
X96871815Y-106550185D01*
X96968506Y-106629537D01*
X97078820Y-106688502D01*
X97198518Y-106724812D01*
X97323000Y-106737072D01*
X97726250Y-106734000D01*
X97885000Y-106575250D01*
X97885000Y-105537000D01*
X98139000Y-105537000D01*
X98139000Y-106575250D01*
X98297750Y-106734000D01*
X98701000Y-106737072D01*
X98825482Y-106724812D01*
X98945180Y-106688502D01*
X99055494Y-106629537D01*
X99152185Y-106550185D01*
X99231537Y-106453494D01*
X99290502Y-106343180D01*
X99326812Y-106223482D01*
X99339072Y-106099000D01*
X99336000Y-105695750D01*
X99177250Y-105537000D01*
X98139000Y-105537000D01*
X97885000Y-105537000D01*
X96846750Y-105537000D01*
X96688000Y-105695750D01*
X96684928Y-106099000D01*
X96266000Y-106099000D01*
X96266000Y-104721000D01*
X96684928Y-104721000D01*
X96688000Y-105124250D01*
X96846750Y-105283000D01*
X97885000Y-105283000D01*
X97885000Y-104244750D01*
X98139000Y-104244750D01*
X98139000Y-105283000D01*
X99177250Y-105283000D01*
X99336000Y-105124250D01*
X99339072Y-104721000D01*
X99326812Y-104596518D01*
X99290502Y-104476820D01*
X99231537Y-104366506D01*
X99152185Y-104269815D01*
X99055494Y-104190463D01*
X98945180Y-104131498D01*
X98825482Y-104095188D01*
X98701000Y-104082928D01*
X98297750Y-104086000D01*
X98139000Y-104244750D01*
X97885000Y-104244750D01*
X97726250Y-104086000D01*
X97323000Y-104082928D01*
X97198518Y-104095188D01*
X97078820Y-104131498D01*
X96968506Y-104190463D01*
X96871815Y-104269815D01*
X96792463Y-104366506D01*
X96733498Y-104476820D01*
X96697188Y-104596518D01*
X96684928Y-104721000D01*
X96266000Y-104721000D01*
X96266000Y-102764614D01*
X96942000Y-102764614D01*
X96942000Y-102975386D01*
X96983120Y-103182107D01*
X97063779Y-103376835D01*
X97180877Y-103552085D01*
X97329915Y-103701123D01*
X97505165Y-103818221D01*
X97699893Y-103898880D01*
X97906614Y-103940000D01*
X98117386Y-103940000D01*
X98324107Y-103898880D01*
X98518835Y-103818221D01*
X98694085Y-103701123D01*
X98843123Y-103552085D01*
X98960221Y-103376835D01*
X99040880Y-103182107D01*
X99082000Y-102975386D01*
X99082000Y-102764614D01*
X99040880Y-102557893D01*
X98960221Y-102363165D01*
X98843123Y-102187915D01*
X98694085Y-102038877D01*
X98518835Y-101921779D01*
X98324107Y-101841120D01*
X98117386Y-101800000D01*
X97906614Y-101800000D01*
X97699893Y-101841120D01*
X97505165Y-101921779D01*
X97329915Y-102038877D01*
X97180877Y-102187915D01*
X97063779Y-102363165D01*
X96983120Y-102557893D01*
X96942000Y-102764614D01*
X96266000Y-102764614D01*
X96266000Y-98067219D01*
X96319302Y-97979162D01*
X96454961Y-97837013D01*
X100634969Y-94317006D01*
X100810638Y-94201097D01*
X101001344Y-94131496D01*
X101210384Y-94107000D01*
X110753766Y-94107000D01*
X110930189Y-94124376D01*
M02*
