G04 #@! TF.GenerationSoftware,KiCad,Pcbnew,(5.1.2)-2*
G04 #@! TF.CreationDate,2019-09-23T21:32:25+02:00*
G04 #@! TF.ProjectId,hm-env-sensor,686d2d65-6e76-42d7-9365-6e736f722e6b,A1*
G04 #@! TF.SameCoordinates,Original*
G04 #@! TF.FileFunction,Legend,Top*
G04 #@! TF.FilePolarity,Positive*
%FSLAX46Y46*%
G04 Gerber Fmt 4.6, Leading zero omitted, Abs format (unit mm)*
G04 Created by KiCad (PCBNEW (5.1.2)-2) date 2019-09-23 21:32:25*
%MOMM*%
%LPD*%
G04 APERTURE LIST*
%ADD10C,0.300000*%
%ADD11C,0.254000*%
%ADD12C,0.190500*%
%ADD13C,0.127000*%
%ADD14C,0.146050*%
%ADD15C,0.114300*%
%ADD16C,0.317500*%
%ADD17C,0.420000*%
%ADD18C,0.370000*%
%ADD19C,0.400000*%
%ADD20C,0.380000*%
%ADD21C,0.150000*%
%ADD22C,1.000000*%
%ADD23C,0.100000*%
%ADD24C,0.050000*%
%ADD25C,0.200000*%
%ADD26C,0.203200*%
%ADD27C,0.223606*%
%ADD28C,0.180000*%
%ADD29C,0.158750*%
%ADD30C,0.222250*%
%ADD31C,0.036576*%
%ADD32C,0.065024*%
G04 APERTURE END LIST*
D10*
X134194028Y-140149971D02*
X133694028Y-139435685D01*
X133336885Y-140149971D02*
X133336885Y-138649971D01*
X133908314Y-138649971D01*
X134051171Y-138721400D01*
X134122600Y-138792828D01*
X134194028Y-138935685D01*
X134194028Y-139149971D01*
X134122600Y-139292828D01*
X134051171Y-139364257D01*
X133908314Y-139435685D01*
X133336885Y-139435685D01*
X134836885Y-139364257D02*
X135336885Y-139364257D01*
X135551171Y-140149971D02*
X134836885Y-140149971D01*
X134836885Y-138649971D01*
X135551171Y-138649971D01*
X136122600Y-140078542D02*
X136336885Y-140149971D01*
X136694028Y-140149971D01*
X136836885Y-140078542D01*
X136908314Y-140007114D01*
X136979742Y-139864257D01*
X136979742Y-139721400D01*
X136908314Y-139578542D01*
X136836885Y-139507114D01*
X136694028Y-139435685D01*
X136408314Y-139364257D01*
X136265457Y-139292828D01*
X136194028Y-139221400D01*
X136122600Y-139078542D01*
X136122600Y-138935685D01*
X136194028Y-138792828D01*
X136265457Y-138721400D01*
X136408314Y-138649971D01*
X136765457Y-138649971D01*
X136979742Y-138721400D01*
X137622600Y-139364257D02*
X138122600Y-139364257D01*
X138336885Y-140149971D02*
X137622600Y-140149971D01*
X137622600Y-138649971D01*
X138336885Y-138649971D01*
X138765457Y-138649971D02*
X139622600Y-138649971D01*
X139194028Y-140149971D02*
X139194028Y-138649971D01*
X168851971Y-88360771D02*
X168137685Y-88860771D01*
X168851971Y-89217914D02*
X167351971Y-89217914D01*
X167351971Y-88646485D01*
X167423400Y-88503628D01*
X167494828Y-88432200D01*
X167637685Y-88360771D01*
X167851971Y-88360771D01*
X167994828Y-88432200D01*
X168066257Y-88503628D01*
X168137685Y-88646485D01*
X168137685Y-89217914D01*
X168066257Y-87717914D02*
X168066257Y-87217914D01*
X168851971Y-87003628D02*
X168851971Y-87717914D01*
X167351971Y-87717914D01*
X167351971Y-87003628D01*
X168780542Y-86432200D02*
X168851971Y-86217914D01*
X168851971Y-85860771D01*
X168780542Y-85717914D01*
X168709114Y-85646485D01*
X168566257Y-85575057D01*
X168423400Y-85575057D01*
X168280542Y-85646485D01*
X168209114Y-85717914D01*
X168137685Y-85860771D01*
X168066257Y-86146485D01*
X167994828Y-86289342D01*
X167923400Y-86360771D01*
X167780542Y-86432200D01*
X167637685Y-86432200D01*
X167494828Y-86360771D01*
X167423400Y-86289342D01*
X167351971Y-86146485D01*
X167351971Y-85789342D01*
X167423400Y-85575057D01*
X168066257Y-84932200D02*
X168066257Y-84432200D01*
X168851971Y-84217914D02*
X168851971Y-84932200D01*
X167351971Y-84932200D01*
X167351971Y-84217914D01*
X167351971Y-83789342D02*
X167351971Y-82932200D01*
X168851971Y-83360771D02*
X167351971Y-83360771D01*
X168372600Y-123065942D02*
X168372600Y-122351657D01*
X168801171Y-123208800D02*
X167301171Y-122708800D01*
X168801171Y-122208800D01*
X168801171Y-121708800D02*
X167301171Y-121708800D01*
X167301171Y-121137371D01*
X167372600Y-120994514D01*
X167444028Y-120923085D01*
X167586885Y-120851657D01*
X167801171Y-120851657D01*
X167944028Y-120923085D01*
X168015457Y-120994514D01*
X168086885Y-121137371D01*
X168086885Y-121708800D01*
X168801171Y-120208800D02*
X167301171Y-120208800D01*
X167301171Y-119637371D01*
X167372600Y-119494514D01*
X167444028Y-119423085D01*
X167586885Y-119351657D01*
X167801171Y-119351657D01*
X167944028Y-119423085D01*
X168015457Y-119494514D01*
X168086885Y-119637371D01*
X168086885Y-120208800D01*
X168040857Y-106924028D02*
X168112285Y-106709742D01*
X168183714Y-106638314D01*
X168326571Y-106566885D01*
X168540857Y-106566885D01*
X168683714Y-106638314D01*
X168755142Y-106709742D01*
X168826571Y-106852600D01*
X168826571Y-107424028D01*
X167326571Y-107424028D01*
X167326571Y-106924028D01*
X167398000Y-106781171D01*
X167469428Y-106709742D01*
X167612285Y-106638314D01*
X167755142Y-106638314D01*
X167898000Y-106709742D01*
X167969428Y-106781171D01*
X168040857Y-106924028D01*
X168040857Y-107424028D01*
X168826571Y-105924028D02*
X167326571Y-105924028D01*
X168398000Y-105424028D01*
X167326571Y-104924028D01*
X168826571Y-104924028D01*
X168040857Y-104209742D02*
X168040857Y-103709742D01*
X168826571Y-103495457D02*
X168826571Y-104209742D01*
X167326571Y-104209742D01*
X167326571Y-103495457D01*
X167469428Y-102924028D02*
X167398000Y-102852600D01*
X167326571Y-102709742D01*
X167326571Y-102352600D01*
X167398000Y-102209742D01*
X167469428Y-102138314D01*
X167612285Y-102066885D01*
X167755142Y-102066885D01*
X167969428Y-102138314D01*
X168826571Y-102995457D01*
X168826571Y-102066885D01*
X167969428Y-101209742D02*
X167898000Y-101352600D01*
X167826571Y-101424028D01*
X167683714Y-101495457D01*
X167612285Y-101495457D01*
X167469428Y-101424028D01*
X167398000Y-101352600D01*
X167326571Y-101209742D01*
X167326571Y-100924028D01*
X167398000Y-100781171D01*
X167469428Y-100709742D01*
X167612285Y-100638314D01*
X167683714Y-100638314D01*
X167826571Y-100709742D01*
X167898000Y-100781171D01*
X167969428Y-100924028D01*
X167969428Y-101209742D01*
X168040857Y-101352600D01*
X168112285Y-101424028D01*
X168255142Y-101495457D01*
X168540857Y-101495457D01*
X168683714Y-101424028D01*
X168755142Y-101352600D01*
X168826571Y-101209742D01*
X168826571Y-100924028D01*
X168755142Y-100781171D01*
X168683714Y-100709742D01*
X168540857Y-100638314D01*
X168255142Y-100638314D01*
X168112285Y-100709742D01*
X168040857Y-100781171D01*
X167969428Y-100924028D01*
X167326571Y-99709742D02*
X167326571Y-99566885D01*
X167398000Y-99424028D01*
X167469428Y-99352600D01*
X167612285Y-99281171D01*
X167898000Y-99209742D01*
X168255142Y-99209742D01*
X168540857Y-99281171D01*
X168683714Y-99352600D01*
X168755142Y-99424028D01*
X168826571Y-99566885D01*
X168826571Y-99709742D01*
X168755142Y-99852600D01*
X168683714Y-99924028D01*
X168540857Y-99995457D01*
X168255142Y-100066885D01*
X167898000Y-100066885D01*
X167612285Y-99995457D01*
X167469428Y-99924028D01*
X167398000Y-99852600D01*
X167326571Y-99709742D01*
X150991039Y-131994161D02*
X151241039Y-129994161D01*
X151121991Y-130946542D02*
X152264848Y-130946542D01*
X152133896Y-131994161D02*
X152383896Y-129994161D01*
X153086277Y-131994161D02*
X153252944Y-130660828D01*
X153336277Y-129994161D02*
X153229134Y-130089400D01*
X153312467Y-130184638D01*
X153419610Y-130089400D01*
X153336277Y-129994161D01*
X153312467Y-130184638D01*
X154038658Y-131994161D02*
X154205325Y-130660828D01*
X154181515Y-130851304D02*
X154288658Y-130756066D01*
X154491039Y-130660828D01*
X154776753Y-130660828D01*
X154955325Y-130756066D01*
X155026753Y-130946542D01*
X154895801Y-131994161D01*
X155026753Y-130946542D02*
X155145801Y-130756066D01*
X155348182Y-130660828D01*
X155633896Y-130660828D01*
X155812467Y-130756066D01*
X155883896Y-130946542D01*
X155752944Y-131994161D01*
X156705325Y-131994161D02*
X156871991Y-130660828D01*
X156955325Y-129994161D02*
X156848182Y-130089400D01*
X156931515Y-130184638D01*
X157038658Y-130089400D01*
X156955325Y-129994161D01*
X156931515Y-130184638D01*
X157824372Y-130660828D02*
X157657705Y-131994161D01*
X157800563Y-130851304D02*
X157907705Y-130756066D01*
X158110086Y-130660828D01*
X158395801Y-130660828D01*
X158574372Y-130756066D01*
X158645801Y-130946542D01*
X158514848Y-131994161D01*
X160324372Y-131994161D02*
X160574372Y-129994161D01*
X160336277Y-131898923D02*
X160133896Y-131994161D01*
X159752944Y-131994161D01*
X159574372Y-131898923D01*
X159491039Y-131803685D01*
X159419610Y-131613209D01*
X159491039Y-131041780D01*
X159610086Y-130851304D01*
X159717229Y-130756066D01*
X159919610Y-130660828D01*
X160300563Y-130660828D01*
X160479134Y-130756066D01*
X161193420Y-131898923D02*
X161371991Y-131994161D01*
X161752944Y-131994161D01*
X161955325Y-131898923D01*
X162074372Y-131708447D01*
X162086277Y-131613209D01*
X162014848Y-131422733D01*
X161836277Y-131327495D01*
X161550563Y-131327495D01*
X161371991Y-131232257D01*
X161300563Y-131041780D01*
X161312467Y-130946542D01*
X161431515Y-130756066D01*
X161633896Y-130660828D01*
X161919610Y-130660828D01*
X162098182Y-130756066D01*
D11*
X169398000Y-135704200D02*
X169398000Y-71704200D01*
X129398000Y-71704200D02*
X129398000Y-135704200D01*
X161898000Y-64204200D02*
X136898000Y-64204200D01*
X161898000Y-64204200D02*
G75*
G02X169398000Y-71704200I0J-7500000D01*
G01*
X169398000Y-135704200D02*
G75*
G02X161898000Y-143204200I-7500000J0D01*
G01*
X161898000Y-143204200D02*
X136898000Y-143204200D01*
X129398000Y-71704200D02*
G75*
G02X136898000Y-64204200I7500000J0D01*
G01*
X136898000Y-143204200D02*
G75*
G02X129398000Y-135704200I0J7500000D01*
G01*
D12*
X134649935Y-128418771D02*
X134649935Y-128890485D01*
X134359650Y-128636485D01*
X134359650Y-128745342D01*
X134323364Y-128817914D01*
X134287078Y-128854200D01*
X134214507Y-128890485D01*
X134033078Y-128890485D01*
X133960507Y-128854200D01*
X133924221Y-128817914D01*
X133887935Y-128745342D01*
X133887935Y-128527628D01*
X133924221Y-128455057D01*
X133960507Y-128418771D01*
X133960507Y-129217057D02*
X133924221Y-129253342D01*
X133887935Y-129217057D01*
X133924221Y-129180771D01*
X133960507Y-129217057D01*
X133887935Y-129217057D01*
X134649935Y-129507342D02*
X134649935Y-130015342D01*
X133887935Y-129688771D01*
X134649935Y-130196771D02*
X133887935Y-130450771D01*
X134649935Y-130704771D01*
X133887935Y-131902200D02*
X133887935Y-131539342D01*
X134649935Y-131539342D01*
X133887935Y-132156200D02*
X134395935Y-132156200D01*
X134649935Y-132156200D02*
X134613650Y-132119914D01*
X134577364Y-132156200D01*
X134613650Y-132192485D01*
X134649935Y-132156200D01*
X134577364Y-132156200D01*
X134395935Y-132519057D02*
X133633935Y-132519057D01*
X134359650Y-132519057D02*
X134395935Y-132591628D01*
X134395935Y-132736771D01*
X134359650Y-132809342D01*
X134323364Y-132845628D01*
X134250792Y-132881914D01*
X134033078Y-132881914D01*
X133960507Y-132845628D01*
X133924221Y-132809342D01*
X133887935Y-132736771D01*
X133887935Y-132591628D01*
X133924221Y-132519057D01*
X133887935Y-133317342D02*
X133924221Y-133244771D01*
X133960507Y-133208485D01*
X134033078Y-133172200D01*
X134250792Y-133172200D01*
X134323364Y-133208485D01*
X134359650Y-133244771D01*
X134395935Y-133317342D01*
X134395935Y-133426200D01*
X134359650Y-133498771D01*
X134323364Y-133535057D01*
X134250792Y-133571342D01*
X134033078Y-133571342D01*
X133960507Y-133535057D01*
X133924221Y-133498771D01*
X133887935Y-133426200D01*
X133887935Y-133317342D01*
X130286578Y-129434771D02*
X130250292Y-129543628D01*
X130214007Y-129579914D01*
X130141435Y-129616200D01*
X130032578Y-129616200D01*
X129960007Y-129579914D01*
X129923721Y-129543628D01*
X129887435Y-129471057D01*
X129887435Y-129180771D01*
X130649435Y-129180771D01*
X130649435Y-129434771D01*
X130613150Y-129507342D01*
X130576864Y-129543628D01*
X130504292Y-129579914D01*
X130431721Y-129579914D01*
X130359150Y-129543628D01*
X130322864Y-129507342D01*
X130286578Y-129434771D01*
X130286578Y-129180771D01*
X129887435Y-130269342D02*
X130286578Y-130269342D01*
X130359150Y-130233057D01*
X130395435Y-130160485D01*
X130395435Y-130015342D01*
X130359150Y-129942771D01*
X129923721Y-130269342D02*
X129887435Y-130196771D01*
X129887435Y-130015342D01*
X129923721Y-129942771D01*
X129996292Y-129906485D01*
X130068864Y-129906485D01*
X130141435Y-129942771D01*
X130177721Y-130015342D01*
X130177721Y-130196771D01*
X130214007Y-130269342D01*
X130395435Y-130523342D02*
X130395435Y-130813628D01*
X130649435Y-130632200D02*
X129996292Y-130632200D01*
X129923721Y-130668485D01*
X129887435Y-130741057D01*
X129887435Y-130813628D01*
X130395435Y-130958771D02*
X130395435Y-131249057D01*
X130649435Y-131067628D02*
X129996292Y-131067628D01*
X129923721Y-131103914D01*
X129887435Y-131176485D01*
X129887435Y-131249057D01*
X129923721Y-131793342D02*
X129887435Y-131720771D01*
X129887435Y-131575628D01*
X129923721Y-131503057D01*
X129996292Y-131466771D01*
X130286578Y-131466771D01*
X130359150Y-131503057D01*
X130395435Y-131575628D01*
X130395435Y-131720771D01*
X130359150Y-131793342D01*
X130286578Y-131829628D01*
X130214007Y-131829628D01*
X130141435Y-131466771D01*
X129887435Y-132156200D02*
X130395435Y-132156200D01*
X130250292Y-132156200D02*
X130322864Y-132192485D01*
X130359150Y-132228771D01*
X130395435Y-132301342D01*
X130395435Y-132373914D01*
X130395435Y-132555342D02*
X129887435Y-132736771D01*
X130395435Y-132918200D02*
X129887435Y-132736771D01*
X129706007Y-132664200D01*
X129669721Y-132627914D01*
X129633435Y-132555342D01*
D13*
X154044952Y-72517000D02*
X153996571Y-72492809D01*
X153924000Y-72492809D01*
X153851428Y-72517000D01*
X153803047Y-72565380D01*
X153778857Y-72613761D01*
X153754666Y-72710523D01*
X153754666Y-72783095D01*
X153778857Y-72879857D01*
X153803047Y-72928238D01*
X153851428Y-72976619D01*
X153924000Y-73000809D01*
X153972380Y-73000809D01*
X154044952Y-72976619D01*
X154069142Y-72952428D01*
X154069142Y-72783095D01*
X153972380Y-72783095D01*
X154286857Y-73000809D02*
X154286857Y-72492809D01*
X154577142Y-73000809D01*
X154577142Y-72492809D01*
X154819047Y-73000809D02*
X154819047Y-72492809D01*
X154940000Y-72492809D01*
X155012571Y-72517000D01*
X155060952Y-72565380D01*
X155085142Y-72613761D01*
X155109333Y-72710523D01*
X155109333Y-72783095D01*
X155085142Y-72879857D01*
X155060952Y-72928238D01*
X155012571Y-72976619D01*
X154940000Y-73000809D01*
X154819047Y-73000809D01*
X154637619Y-118859904D02*
X155290761Y-119295333D01*
X155121428Y-118400285D02*
X155145619Y-118424476D01*
X155169809Y-118497047D01*
X155169809Y-118545428D01*
X155145619Y-118618000D01*
X155097238Y-118666380D01*
X155048857Y-118690571D01*
X154952095Y-118714761D01*
X154879523Y-118714761D01*
X154782761Y-118690571D01*
X154734380Y-118666380D01*
X154686000Y-118618000D01*
X154661809Y-118545428D01*
X154661809Y-118497047D01*
X154686000Y-118424476D01*
X154710190Y-118400285D01*
X155169809Y-117940666D02*
X155169809Y-118182571D01*
X154661809Y-118182571D01*
X155169809Y-117771333D02*
X154661809Y-117771333D01*
X155169809Y-117481047D02*
X154879523Y-117698761D01*
X154661809Y-117481047D02*
X154952095Y-117771333D01*
X153670000Y-118732904D02*
X153645809Y-118781285D01*
X153645809Y-118853857D01*
X153670000Y-118926428D01*
X153718380Y-118974809D01*
X153766761Y-118999000D01*
X153863523Y-119023190D01*
X153936095Y-119023190D01*
X154032857Y-118999000D01*
X154081238Y-118974809D01*
X154129619Y-118926428D01*
X154153809Y-118853857D01*
X154153809Y-118805476D01*
X154129619Y-118732904D01*
X154105428Y-118708714D01*
X153936095Y-118708714D01*
X153936095Y-118805476D01*
X154153809Y-118491000D02*
X153645809Y-118491000D01*
X153645809Y-118297476D01*
X153670000Y-118249095D01*
X153694190Y-118224904D01*
X153742571Y-118200714D01*
X153815142Y-118200714D01*
X153863523Y-118224904D01*
X153887714Y-118249095D01*
X153911904Y-118297476D01*
X153911904Y-118491000D01*
X154153809Y-117983000D02*
X153645809Y-117983000D01*
X153645809Y-117644333D02*
X153645809Y-117547571D01*
X153670000Y-117499190D01*
X153718380Y-117450809D01*
X153815142Y-117426619D01*
X153984476Y-117426619D01*
X154081238Y-117450809D01*
X154129619Y-117499190D01*
X154153809Y-117547571D01*
X154153809Y-117644333D01*
X154129619Y-117692714D01*
X154081238Y-117741095D01*
X153984476Y-117765285D01*
X153815142Y-117765285D01*
X153718380Y-117741095D01*
X153670000Y-117692714D01*
X153645809Y-117644333D01*
X153645809Y-116991190D02*
X153645809Y-117087952D01*
X153670000Y-117136333D01*
X153694190Y-117160523D01*
X153766761Y-117208904D01*
X153863523Y-117233095D01*
X154057047Y-117233095D01*
X154105428Y-117208904D01*
X154129619Y-117184714D01*
X154153809Y-117136333D01*
X154153809Y-117039571D01*
X154129619Y-116991190D01*
X154105428Y-116967000D01*
X154057047Y-116942809D01*
X153936095Y-116942809D01*
X153887714Y-116967000D01*
X153863523Y-116991190D01*
X153839333Y-117039571D01*
X153839333Y-117136333D01*
X153863523Y-117184714D01*
X153887714Y-117208904D01*
X153936095Y-117233095D01*
X155206095Y-116586000D02*
X155157714Y-116561809D01*
X155085142Y-116561809D01*
X155012571Y-116586000D01*
X154964190Y-116634380D01*
X154940000Y-116682761D01*
X154915809Y-116779523D01*
X154915809Y-116852095D01*
X154940000Y-116948857D01*
X154964190Y-116997238D01*
X155012571Y-117045619D01*
X155085142Y-117069809D01*
X155133523Y-117069809D01*
X155206095Y-117045619D01*
X155230285Y-117021428D01*
X155230285Y-116852095D01*
X155133523Y-116852095D01*
X155448000Y-117069809D02*
X155448000Y-116561809D01*
X155641523Y-116561809D01*
X155689904Y-116586000D01*
X155714095Y-116610190D01*
X155738285Y-116658571D01*
X155738285Y-116731142D01*
X155714095Y-116779523D01*
X155689904Y-116803714D01*
X155641523Y-116827904D01*
X155448000Y-116827904D01*
X155956000Y-117069809D02*
X155956000Y-116561809D01*
X156294666Y-116561809D02*
X156391428Y-116561809D01*
X156439809Y-116586000D01*
X156488190Y-116634380D01*
X156512380Y-116731142D01*
X156512380Y-116900476D01*
X156488190Y-116997238D01*
X156439809Y-117045619D01*
X156391428Y-117069809D01*
X156294666Y-117069809D01*
X156246285Y-117045619D01*
X156197904Y-116997238D01*
X156173714Y-116900476D01*
X156173714Y-116731142D01*
X156197904Y-116634380D01*
X156246285Y-116586000D01*
X156294666Y-116561809D01*
X156681714Y-116561809D02*
X157020380Y-116561809D01*
X156802666Y-117069809D01*
X154637619Y-115848190D02*
X155290761Y-116283619D01*
X155169809Y-115678857D02*
X154661809Y-115678857D01*
X154661809Y-115557904D01*
X154686000Y-115485333D01*
X154734380Y-115436952D01*
X154782761Y-115412761D01*
X154879523Y-115388571D01*
X154952095Y-115388571D01*
X155048857Y-115412761D01*
X155097238Y-115436952D01*
X155145619Y-115485333D01*
X155169809Y-115557904D01*
X155169809Y-115678857D01*
X154661809Y-115074095D02*
X154661809Y-115025714D01*
X154686000Y-114977333D01*
X154710190Y-114953142D01*
X154758571Y-114928952D01*
X154855333Y-114904761D01*
X154976285Y-114904761D01*
X155073047Y-114928952D01*
X155121428Y-114953142D01*
X155145619Y-114977333D01*
X155169809Y-115025714D01*
X155169809Y-115074095D01*
X155145619Y-115122476D01*
X155121428Y-115146666D01*
X155073047Y-115170857D01*
X154976285Y-115195047D01*
X154855333Y-115195047D01*
X154758571Y-115170857D01*
X154710190Y-115146666D01*
X154686000Y-115122476D01*
X154661809Y-115074095D01*
X154637619Y-113308190D02*
X155290761Y-113743619D01*
X155169809Y-113138857D02*
X154661809Y-113138857D01*
X154661809Y-113017904D01*
X154686000Y-112945333D01*
X154734380Y-112896952D01*
X154782761Y-112872761D01*
X154879523Y-112848571D01*
X154952095Y-112848571D01*
X155048857Y-112872761D01*
X155097238Y-112896952D01*
X155145619Y-112945333D01*
X155169809Y-113017904D01*
X155169809Y-113138857D01*
X155169809Y-112364761D02*
X155169809Y-112655047D01*
X155169809Y-112509904D02*
X154661809Y-112509904D01*
X154734380Y-112558285D01*
X154782761Y-112606666D01*
X154806952Y-112655047D01*
X155206095Y-114046000D02*
X155157714Y-114021809D01*
X155085142Y-114021809D01*
X155012571Y-114046000D01*
X154964190Y-114094380D01*
X154940000Y-114142761D01*
X154915809Y-114239523D01*
X154915809Y-114312095D01*
X154940000Y-114408857D01*
X154964190Y-114457238D01*
X155012571Y-114505619D01*
X155085142Y-114529809D01*
X155133523Y-114529809D01*
X155206095Y-114505619D01*
X155230285Y-114481428D01*
X155230285Y-114312095D01*
X155133523Y-114312095D01*
X155448000Y-114529809D02*
X155448000Y-114021809D01*
X155641523Y-114021809D01*
X155689904Y-114046000D01*
X155714095Y-114070190D01*
X155738285Y-114118571D01*
X155738285Y-114191142D01*
X155714095Y-114239523D01*
X155689904Y-114263714D01*
X155641523Y-114287904D01*
X155448000Y-114287904D01*
X155956000Y-114529809D02*
X155956000Y-114021809D01*
X156294666Y-114021809D02*
X156391428Y-114021809D01*
X156439809Y-114046000D01*
X156488190Y-114094380D01*
X156512380Y-114191142D01*
X156512380Y-114360476D01*
X156488190Y-114457238D01*
X156439809Y-114505619D01*
X156391428Y-114529809D01*
X156294666Y-114529809D01*
X156246285Y-114505619D01*
X156197904Y-114457238D01*
X156173714Y-114360476D01*
X156173714Y-114191142D01*
X156197904Y-114094380D01*
X156246285Y-114046000D01*
X156294666Y-114021809D01*
X156802666Y-114239523D02*
X156754285Y-114215333D01*
X156730095Y-114191142D01*
X156705904Y-114142761D01*
X156705904Y-114118571D01*
X156730095Y-114070190D01*
X156754285Y-114046000D01*
X156802666Y-114021809D01*
X156899428Y-114021809D01*
X156947809Y-114046000D01*
X156972000Y-114070190D01*
X156996190Y-114118571D01*
X156996190Y-114142761D01*
X156972000Y-114191142D01*
X156947809Y-114215333D01*
X156899428Y-114239523D01*
X156802666Y-114239523D01*
X156754285Y-114263714D01*
X156730095Y-114287904D01*
X156705904Y-114336285D01*
X156705904Y-114433047D01*
X156730095Y-114481428D01*
X156754285Y-114505619D01*
X156802666Y-114529809D01*
X156899428Y-114529809D01*
X156947809Y-114505619D01*
X156972000Y-114481428D01*
X156996190Y-114433047D01*
X156996190Y-114336285D01*
X156972000Y-114287904D01*
X156947809Y-114263714D01*
X156899428Y-114239523D01*
X154964190Y-111506000D02*
X154915809Y-111481809D01*
X154843238Y-111481809D01*
X154770666Y-111506000D01*
X154722285Y-111554380D01*
X154698095Y-111602761D01*
X154673904Y-111699523D01*
X154673904Y-111772095D01*
X154698095Y-111868857D01*
X154722285Y-111917238D01*
X154770666Y-111965619D01*
X154843238Y-111989809D01*
X154891619Y-111989809D01*
X154964190Y-111965619D01*
X154988380Y-111941428D01*
X154988380Y-111772095D01*
X154891619Y-111772095D01*
X155206095Y-111989809D02*
X155206095Y-111481809D01*
X155399619Y-111481809D01*
X155448000Y-111506000D01*
X155472190Y-111530190D01*
X155496380Y-111578571D01*
X155496380Y-111651142D01*
X155472190Y-111699523D01*
X155448000Y-111723714D01*
X155399619Y-111747904D01*
X155206095Y-111747904D01*
X155714095Y-111989809D02*
X155714095Y-111481809D01*
X156052761Y-111481809D02*
X156149523Y-111481809D01*
X156197904Y-111506000D01*
X156246285Y-111554380D01*
X156270476Y-111651142D01*
X156270476Y-111820476D01*
X156246285Y-111917238D01*
X156197904Y-111965619D01*
X156149523Y-111989809D01*
X156052761Y-111989809D01*
X156004380Y-111965619D01*
X155956000Y-111917238D01*
X155931809Y-111820476D01*
X155931809Y-111651142D01*
X155956000Y-111554380D01*
X156004380Y-111506000D01*
X156052761Y-111481809D01*
X156754285Y-111989809D02*
X156464000Y-111989809D01*
X156609142Y-111989809D02*
X156609142Y-111481809D01*
X156560761Y-111554380D01*
X156512380Y-111602761D01*
X156464000Y-111626952D01*
X157213904Y-111481809D02*
X156972000Y-111481809D01*
X156947809Y-111723714D01*
X156972000Y-111699523D01*
X157020380Y-111675333D01*
X157141333Y-111675333D01*
X157189714Y-111699523D01*
X157213904Y-111723714D01*
X157238095Y-111772095D01*
X157238095Y-111893047D01*
X157213904Y-111941428D01*
X157189714Y-111965619D01*
X157141333Y-111989809D01*
X157020380Y-111989809D01*
X156972000Y-111965619D01*
X156947809Y-111941428D01*
X155460095Y-108966000D02*
X155411714Y-108941809D01*
X155339142Y-108941809D01*
X155266571Y-108966000D01*
X155218190Y-109014380D01*
X155194000Y-109062761D01*
X155169809Y-109159523D01*
X155169809Y-109232095D01*
X155194000Y-109328857D01*
X155218190Y-109377238D01*
X155266571Y-109425619D01*
X155339142Y-109449809D01*
X155387523Y-109449809D01*
X155460095Y-109425619D01*
X155484285Y-109401428D01*
X155484285Y-109232095D01*
X155387523Y-109232095D01*
X155702000Y-109449809D02*
X155702000Y-108941809D01*
X155895523Y-108941809D01*
X155943904Y-108966000D01*
X155968095Y-108990190D01*
X155992285Y-109038571D01*
X155992285Y-109111142D01*
X155968095Y-109159523D01*
X155943904Y-109183714D01*
X155895523Y-109207904D01*
X155702000Y-109207904D01*
X156210000Y-109449809D02*
X156210000Y-108941809D01*
X156548666Y-108941809D02*
X156645428Y-108941809D01*
X156693809Y-108966000D01*
X156742190Y-109014380D01*
X156766380Y-109111142D01*
X156766380Y-109280476D01*
X156742190Y-109377238D01*
X156693809Y-109425619D01*
X156645428Y-109449809D01*
X156548666Y-109449809D01*
X156500285Y-109425619D01*
X156451904Y-109377238D01*
X156427714Y-109280476D01*
X156427714Y-109111142D01*
X156451904Y-109014380D01*
X156500285Y-108966000D01*
X156548666Y-108941809D01*
X156959904Y-108990190D02*
X156984095Y-108966000D01*
X157032476Y-108941809D01*
X157153428Y-108941809D01*
X157201809Y-108966000D01*
X157226000Y-108990190D01*
X157250190Y-109038571D01*
X157250190Y-109086952D01*
X157226000Y-109159523D01*
X156935714Y-109449809D01*
X157250190Y-109449809D01*
X155460095Y-106426000D02*
X155411714Y-106401809D01*
X155339142Y-106401809D01*
X155266571Y-106426000D01*
X155218190Y-106474380D01*
X155194000Y-106522761D01*
X155169809Y-106619523D01*
X155169809Y-106692095D01*
X155194000Y-106788857D01*
X155218190Y-106837238D01*
X155266571Y-106885619D01*
X155339142Y-106909809D01*
X155387523Y-106909809D01*
X155460095Y-106885619D01*
X155484285Y-106861428D01*
X155484285Y-106692095D01*
X155387523Y-106692095D01*
X155702000Y-106909809D02*
X155702000Y-106401809D01*
X155895523Y-106401809D01*
X155943904Y-106426000D01*
X155968095Y-106450190D01*
X155992285Y-106498571D01*
X155992285Y-106571142D01*
X155968095Y-106619523D01*
X155943904Y-106643714D01*
X155895523Y-106667904D01*
X155702000Y-106667904D01*
X156210000Y-106909809D02*
X156210000Y-106401809D01*
X156548666Y-106401809D02*
X156645428Y-106401809D01*
X156693809Y-106426000D01*
X156742190Y-106474380D01*
X156766380Y-106571142D01*
X156766380Y-106740476D01*
X156742190Y-106837238D01*
X156693809Y-106885619D01*
X156645428Y-106909809D01*
X156548666Y-106909809D01*
X156500285Y-106885619D01*
X156451904Y-106837238D01*
X156427714Y-106740476D01*
X156427714Y-106571142D01*
X156451904Y-106474380D01*
X156500285Y-106426000D01*
X156548666Y-106401809D01*
X157080857Y-106401809D02*
X157129238Y-106401809D01*
X157177619Y-106426000D01*
X157201809Y-106450190D01*
X157226000Y-106498571D01*
X157250190Y-106595333D01*
X157250190Y-106716285D01*
X157226000Y-106813047D01*
X157201809Y-106861428D01*
X157177619Y-106885619D01*
X157129238Y-106909809D01*
X157080857Y-106909809D01*
X157032476Y-106885619D01*
X157008285Y-106861428D01*
X156984095Y-106813047D01*
X156959904Y-106716285D01*
X156959904Y-106595333D01*
X156984095Y-106498571D01*
X157008285Y-106450190D01*
X157032476Y-106426000D01*
X157080857Y-106401809D01*
X155460095Y-103886000D02*
X155411714Y-103861809D01*
X155339142Y-103861809D01*
X155266571Y-103886000D01*
X155218190Y-103934380D01*
X155194000Y-103982761D01*
X155169809Y-104079523D01*
X155169809Y-104152095D01*
X155194000Y-104248857D01*
X155218190Y-104297238D01*
X155266571Y-104345619D01*
X155339142Y-104369809D01*
X155387523Y-104369809D01*
X155460095Y-104345619D01*
X155484285Y-104321428D01*
X155484285Y-104152095D01*
X155387523Y-104152095D01*
X155702000Y-104369809D02*
X155702000Y-103861809D01*
X155895523Y-103861809D01*
X155943904Y-103886000D01*
X155968095Y-103910190D01*
X155992285Y-103958571D01*
X155992285Y-104031142D01*
X155968095Y-104079523D01*
X155943904Y-104103714D01*
X155895523Y-104127904D01*
X155702000Y-104127904D01*
X156210000Y-104369809D02*
X156210000Y-103861809D01*
X156548666Y-103861809D02*
X156645428Y-103861809D01*
X156693809Y-103886000D01*
X156742190Y-103934380D01*
X156766380Y-104031142D01*
X156766380Y-104200476D01*
X156742190Y-104297238D01*
X156693809Y-104345619D01*
X156645428Y-104369809D01*
X156548666Y-104369809D01*
X156500285Y-104345619D01*
X156451904Y-104297238D01*
X156427714Y-104200476D01*
X156427714Y-104031142D01*
X156451904Y-103934380D01*
X156500285Y-103886000D01*
X156548666Y-103861809D01*
X157201809Y-104031142D02*
X157201809Y-104369809D01*
X157080857Y-103837619D02*
X156959904Y-104200476D01*
X157274380Y-104200476D01*
X154964190Y-101346000D02*
X154915809Y-101321809D01*
X154843238Y-101321809D01*
X154770666Y-101346000D01*
X154722285Y-101394380D01*
X154698095Y-101442761D01*
X154673904Y-101539523D01*
X154673904Y-101612095D01*
X154698095Y-101708857D01*
X154722285Y-101757238D01*
X154770666Y-101805619D01*
X154843238Y-101829809D01*
X154891619Y-101829809D01*
X154964190Y-101805619D01*
X154988380Y-101781428D01*
X154988380Y-101612095D01*
X154891619Y-101612095D01*
X155206095Y-101829809D02*
X155206095Y-101321809D01*
X155399619Y-101321809D01*
X155448000Y-101346000D01*
X155472190Y-101370190D01*
X155496380Y-101418571D01*
X155496380Y-101491142D01*
X155472190Y-101539523D01*
X155448000Y-101563714D01*
X155399619Y-101587904D01*
X155206095Y-101587904D01*
X155714095Y-101829809D02*
X155714095Y-101321809D01*
X156052761Y-101321809D02*
X156149523Y-101321809D01*
X156197904Y-101346000D01*
X156246285Y-101394380D01*
X156270476Y-101491142D01*
X156270476Y-101660476D01*
X156246285Y-101757238D01*
X156197904Y-101805619D01*
X156149523Y-101829809D01*
X156052761Y-101829809D01*
X156004380Y-101805619D01*
X155956000Y-101757238D01*
X155931809Y-101660476D01*
X155931809Y-101491142D01*
X155956000Y-101394380D01*
X156004380Y-101346000D01*
X156052761Y-101321809D01*
X156754285Y-101829809D02*
X156464000Y-101829809D01*
X156609142Y-101829809D02*
X156609142Y-101321809D01*
X156560761Y-101394380D01*
X156512380Y-101442761D01*
X156464000Y-101466952D01*
X157189714Y-101321809D02*
X157092952Y-101321809D01*
X157044571Y-101346000D01*
X157020380Y-101370190D01*
X156972000Y-101442761D01*
X156947809Y-101539523D01*
X156947809Y-101733047D01*
X156972000Y-101781428D01*
X156996190Y-101805619D01*
X157044571Y-101829809D01*
X157141333Y-101829809D01*
X157189714Y-101805619D01*
X157213904Y-101781428D01*
X157238095Y-101733047D01*
X157238095Y-101612095D01*
X157213904Y-101563714D01*
X157189714Y-101539523D01*
X157141333Y-101515333D01*
X157044571Y-101515333D01*
X156996190Y-101539523D01*
X156972000Y-101563714D01*
X156947809Y-101612095D01*
X154964190Y-98806000D02*
X154915809Y-98781809D01*
X154843238Y-98781809D01*
X154770666Y-98806000D01*
X154722285Y-98854380D01*
X154698095Y-98902761D01*
X154673904Y-98999523D01*
X154673904Y-99072095D01*
X154698095Y-99168857D01*
X154722285Y-99217238D01*
X154770666Y-99265619D01*
X154843238Y-99289809D01*
X154891619Y-99289809D01*
X154964190Y-99265619D01*
X154988380Y-99241428D01*
X154988380Y-99072095D01*
X154891619Y-99072095D01*
X155206095Y-99289809D02*
X155206095Y-98781809D01*
X155399619Y-98781809D01*
X155448000Y-98806000D01*
X155472190Y-98830190D01*
X155496380Y-98878571D01*
X155496380Y-98951142D01*
X155472190Y-98999523D01*
X155448000Y-99023714D01*
X155399619Y-99047904D01*
X155206095Y-99047904D01*
X155714095Y-99289809D02*
X155714095Y-98781809D01*
X156052761Y-98781809D02*
X156149523Y-98781809D01*
X156197904Y-98806000D01*
X156246285Y-98854380D01*
X156270476Y-98951142D01*
X156270476Y-99120476D01*
X156246285Y-99217238D01*
X156197904Y-99265619D01*
X156149523Y-99289809D01*
X156052761Y-99289809D01*
X156004380Y-99265619D01*
X155956000Y-99217238D01*
X155931809Y-99120476D01*
X155931809Y-98951142D01*
X155956000Y-98854380D01*
X156004380Y-98806000D01*
X156052761Y-98781809D01*
X156754285Y-99289809D02*
X156464000Y-99289809D01*
X156609142Y-99289809D02*
X156609142Y-98781809D01*
X156560761Y-98854380D01*
X156512380Y-98902761D01*
X156464000Y-98926952D01*
X156923619Y-98781809D02*
X157262285Y-98781809D01*
X157044571Y-99289809D01*
X155460095Y-96266000D02*
X155411714Y-96241809D01*
X155339142Y-96241809D01*
X155266571Y-96266000D01*
X155218190Y-96314380D01*
X155194000Y-96362761D01*
X155169809Y-96459523D01*
X155169809Y-96532095D01*
X155194000Y-96628857D01*
X155218190Y-96677238D01*
X155266571Y-96725619D01*
X155339142Y-96749809D01*
X155387523Y-96749809D01*
X155460095Y-96725619D01*
X155484285Y-96701428D01*
X155484285Y-96532095D01*
X155387523Y-96532095D01*
X155702000Y-96749809D02*
X155702000Y-96241809D01*
X155895523Y-96241809D01*
X155943904Y-96266000D01*
X155968095Y-96290190D01*
X155992285Y-96338571D01*
X155992285Y-96411142D01*
X155968095Y-96459523D01*
X155943904Y-96483714D01*
X155895523Y-96507904D01*
X155702000Y-96507904D01*
X156210000Y-96749809D02*
X156210000Y-96241809D01*
X156548666Y-96241809D02*
X156645428Y-96241809D01*
X156693809Y-96266000D01*
X156742190Y-96314380D01*
X156766380Y-96411142D01*
X156766380Y-96580476D01*
X156742190Y-96677238D01*
X156693809Y-96725619D01*
X156645428Y-96749809D01*
X156548666Y-96749809D01*
X156500285Y-96725619D01*
X156451904Y-96677238D01*
X156427714Y-96580476D01*
X156427714Y-96411142D01*
X156451904Y-96314380D01*
X156500285Y-96266000D01*
X156548666Y-96241809D01*
X157226000Y-96241809D02*
X156984095Y-96241809D01*
X156959904Y-96483714D01*
X156984095Y-96459523D01*
X157032476Y-96435333D01*
X157153428Y-96435333D01*
X157201809Y-96459523D01*
X157226000Y-96483714D01*
X157250190Y-96532095D01*
X157250190Y-96653047D01*
X157226000Y-96701428D01*
X157201809Y-96725619D01*
X157153428Y-96749809D01*
X157032476Y-96749809D01*
X156984095Y-96725619D01*
X156959904Y-96701428D01*
X154964190Y-93726000D02*
X154915809Y-93701809D01*
X154843238Y-93701809D01*
X154770666Y-93726000D01*
X154722285Y-93774380D01*
X154698095Y-93822761D01*
X154673904Y-93919523D01*
X154673904Y-93992095D01*
X154698095Y-94088857D01*
X154722285Y-94137238D01*
X154770666Y-94185619D01*
X154843238Y-94209809D01*
X154891619Y-94209809D01*
X154964190Y-94185619D01*
X154988380Y-94161428D01*
X154988380Y-93992095D01*
X154891619Y-93992095D01*
X155206095Y-94209809D02*
X155206095Y-93701809D01*
X155399619Y-93701809D01*
X155448000Y-93726000D01*
X155472190Y-93750190D01*
X155496380Y-93798571D01*
X155496380Y-93871142D01*
X155472190Y-93919523D01*
X155448000Y-93943714D01*
X155399619Y-93967904D01*
X155206095Y-93967904D01*
X155714095Y-94209809D02*
X155714095Y-93701809D01*
X156052761Y-93701809D02*
X156149523Y-93701809D01*
X156197904Y-93726000D01*
X156246285Y-93774380D01*
X156270476Y-93871142D01*
X156270476Y-94040476D01*
X156246285Y-94137238D01*
X156197904Y-94185619D01*
X156149523Y-94209809D01*
X156052761Y-94209809D01*
X156004380Y-94185619D01*
X155956000Y-94137238D01*
X155931809Y-94040476D01*
X155931809Y-93871142D01*
X155956000Y-93774380D01*
X156004380Y-93726000D01*
X156052761Y-93701809D01*
X156754285Y-94209809D02*
X156464000Y-94209809D01*
X156609142Y-94209809D02*
X156609142Y-93701809D01*
X156560761Y-93774380D01*
X156512380Y-93822761D01*
X156464000Y-93846952D01*
X157044571Y-93919523D02*
X156996190Y-93895333D01*
X156972000Y-93871142D01*
X156947809Y-93822761D01*
X156947809Y-93798571D01*
X156972000Y-93750190D01*
X156996190Y-93726000D01*
X157044571Y-93701809D01*
X157141333Y-93701809D01*
X157189714Y-93726000D01*
X157213904Y-93750190D01*
X157238095Y-93798571D01*
X157238095Y-93822761D01*
X157213904Y-93871142D01*
X157189714Y-93895333D01*
X157141333Y-93919523D01*
X157044571Y-93919523D01*
X156996190Y-93943714D01*
X156972000Y-93967904D01*
X156947809Y-94016285D01*
X156947809Y-94113047D01*
X156972000Y-94161428D01*
X156996190Y-94185619D01*
X157044571Y-94209809D01*
X157141333Y-94209809D01*
X157189714Y-94185619D01*
X157213904Y-94161428D01*
X157238095Y-94113047D01*
X157238095Y-94016285D01*
X157213904Y-93967904D01*
X157189714Y-93943714D01*
X157141333Y-93919523D01*
X154964190Y-91186000D02*
X154915809Y-91161809D01*
X154843238Y-91161809D01*
X154770666Y-91186000D01*
X154722285Y-91234380D01*
X154698095Y-91282761D01*
X154673904Y-91379523D01*
X154673904Y-91452095D01*
X154698095Y-91548857D01*
X154722285Y-91597238D01*
X154770666Y-91645619D01*
X154843238Y-91669809D01*
X154891619Y-91669809D01*
X154964190Y-91645619D01*
X154988380Y-91621428D01*
X154988380Y-91452095D01*
X154891619Y-91452095D01*
X155206095Y-91669809D02*
X155206095Y-91161809D01*
X155399619Y-91161809D01*
X155448000Y-91186000D01*
X155472190Y-91210190D01*
X155496380Y-91258571D01*
X155496380Y-91331142D01*
X155472190Y-91379523D01*
X155448000Y-91403714D01*
X155399619Y-91427904D01*
X155206095Y-91427904D01*
X155714095Y-91669809D02*
X155714095Y-91161809D01*
X156052761Y-91161809D02*
X156149523Y-91161809D01*
X156197904Y-91186000D01*
X156246285Y-91234380D01*
X156270476Y-91331142D01*
X156270476Y-91500476D01*
X156246285Y-91597238D01*
X156197904Y-91645619D01*
X156149523Y-91669809D01*
X156052761Y-91669809D01*
X156004380Y-91645619D01*
X155956000Y-91597238D01*
X155931809Y-91500476D01*
X155931809Y-91331142D01*
X155956000Y-91234380D01*
X156004380Y-91186000D01*
X156052761Y-91161809D01*
X156754285Y-91669809D02*
X156464000Y-91669809D01*
X156609142Y-91669809D02*
X156609142Y-91161809D01*
X156560761Y-91234380D01*
X156512380Y-91282761D01*
X156464000Y-91306952D01*
X156996190Y-91669809D02*
X157092952Y-91669809D01*
X157141333Y-91645619D01*
X157165523Y-91621428D01*
X157213904Y-91548857D01*
X157238095Y-91452095D01*
X157238095Y-91258571D01*
X157213904Y-91210190D01*
X157189714Y-91186000D01*
X157141333Y-91161809D01*
X157044571Y-91161809D01*
X156996190Y-91186000D01*
X156972000Y-91210190D01*
X156947809Y-91258571D01*
X156947809Y-91379523D01*
X156972000Y-91427904D01*
X156996190Y-91452095D01*
X157044571Y-91476285D01*
X157141333Y-91476285D01*
X157189714Y-91452095D01*
X157213904Y-91427904D01*
X157238095Y-91379523D01*
X155822952Y-88646000D02*
X155774571Y-88621809D01*
X155702000Y-88621809D01*
X155629428Y-88646000D01*
X155581047Y-88694380D01*
X155556857Y-88742761D01*
X155532666Y-88839523D01*
X155532666Y-88912095D01*
X155556857Y-89008857D01*
X155581047Y-89057238D01*
X155629428Y-89105619D01*
X155702000Y-89129809D01*
X155750380Y-89129809D01*
X155822952Y-89105619D01*
X155847142Y-89081428D01*
X155847142Y-88912095D01*
X155750380Y-88912095D01*
X156064857Y-89129809D02*
X156064857Y-88621809D01*
X156355142Y-89129809D01*
X156355142Y-88621809D01*
X156597047Y-89129809D02*
X156597047Y-88621809D01*
X156718000Y-88621809D01*
X156790571Y-88646000D01*
X156838952Y-88694380D01*
X156863142Y-88742761D01*
X156887333Y-88839523D01*
X156887333Y-88912095D01*
X156863142Y-89008857D01*
X156838952Y-89057238D01*
X156790571Y-89105619D01*
X156718000Y-89129809D01*
X156597047Y-89129809D01*
X154964190Y-86106000D02*
X154915809Y-86081809D01*
X154843238Y-86081809D01*
X154770666Y-86106000D01*
X154722285Y-86154380D01*
X154698095Y-86202761D01*
X154673904Y-86299523D01*
X154673904Y-86372095D01*
X154698095Y-86468857D01*
X154722285Y-86517238D01*
X154770666Y-86565619D01*
X154843238Y-86589809D01*
X154891619Y-86589809D01*
X154964190Y-86565619D01*
X154988380Y-86541428D01*
X154988380Y-86372095D01*
X154891619Y-86372095D01*
X155206095Y-86589809D02*
X155206095Y-86081809D01*
X155399619Y-86081809D01*
X155448000Y-86106000D01*
X155472190Y-86130190D01*
X155496380Y-86178571D01*
X155496380Y-86251142D01*
X155472190Y-86299523D01*
X155448000Y-86323714D01*
X155399619Y-86347904D01*
X155206095Y-86347904D01*
X155714095Y-86589809D02*
X155714095Y-86081809D01*
X156052761Y-86081809D02*
X156149523Y-86081809D01*
X156197904Y-86106000D01*
X156246285Y-86154380D01*
X156270476Y-86251142D01*
X156270476Y-86420476D01*
X156246285Y-86517238D01*
X156197904Y-86565619D01*
X156149523Y-86589809D01*
X156052761Y-86589809D01*
X156004380Y-86565619D01*
X155956000Y-86517238D01*
X155931809Y-86420476D01*
X155931809Y-86251142D01*
X155956000Y-86154380D01*
X156004380Y-86106000D01*
X156052761Y-86081809D01*
X156464000Y-86130190D02*
X156488190Y-86106000D01*
X156536571Y-86081809D01*
X156657523Y-86081809D01*
X156705904Y-86106000D01*
X156730095Y-86130190D01*
X156754285Y-86178571D01*
X156754285Y-86226952D01*
X156730095Y-86299523D01*
X156439809Y-86589809D01*
X156754285Y-86589809D01*
X157238095Y-86589809D02*
X156947809Y-86589809D01*
X157092952Y-86589809D02*
X157092952Y-86081809D01*
X157044571Y-86154380D01*
X156996190Y-86202761D01*
X156947809Y-86226952D01*
X155460095Y-83591400D02*
X155411714Y-83567209D01*
X155339142Y-83567209D01*
X155266571Y-83591400D01*
X155218190Y-83639780D01*
X155194000Y-83688161D01*
X155169809Y-83784923D01*
X155169809Y-83857495D01*
X155194000Y-83954257D01*
X155218190Y-84002638D01*
X155266571Y-84051019D01*
X155339142Y-84075209D01*
X155387523Y-84075209D01*
X155460095Y-84051019D01*
X155484285Y-84026828D01*
X155484285Y-83857495D01*
X155387523Y-83857495D01*
X155702000Y-84075209D02*
X155702000Y-83567209D01*
X155895523Y-83567209D01*
X155943904Y-83591400D01*
X155968095Y-83615590D01*
X155992285Y-83663971D01*
X155992285Y-83736542D01*
X155968095Y-83784923D01*
X155943904Y-83809114D01*
X155895523Y-83833304D01*
X155702000Y-83833304D01*
X156210000Y-84075209D02*
X156210000Y-83567209D01*
X156548666Y-83567209D02*
X156645428Y-83567209D01*
X156693809Y-83591400D01*
X156742190Y-83639780D01*
X156766380Y-83736542D01*
X156766380Y-83905876D01*
X156742190Y-84002638D01*
X156693809Y-84051019D01*
X156645428Y-84075209D01*
X156548666Y-84075209D01*
X156500285Y-84051019D01*
X156451904Y-84002638D01*
X156427714Y-83905876D01*
X156427714Y-83736542D01*
X156451904Y-83639780D01*
X156500285Y-83591400D01*
X156548666Y-83567209D01*
X156935714Y-83567209D02*
X157250190Y-83567209D01*
X157080857Y-83760733D01*
X157153428Y-83760733D01*
X157201809Y-83784923D01*
X157226000Y-83809114D01*
X157250190Y-83857495D01*
X157250190Y-83978447D01*
X157226000Y-84026828D01*
X157201809Y-84051019D01*
X157153428Y-84075209D01*
X157008285Y-84075209D01*
X156959904Y-84051019D01*
X156935714Y-84026828D01*
X155460095Y-81051400D02*
X155411714Y-81027209D01*
X155339142Y-81027209D01*
X155266571Y-81051400D01*
X155218190Y-81099780D01*
X155194000Y-81148161D01*
X155169809Y-81244923D01*
X155169809Y-81317495D01*
X155194000Y-81414257D01*
X155218190Y-81462638D01*
X155266571Y-81511019D01*
X155339142Y-81535209D01*
X155387523Y-81535209D01*
X155460095Y-81511019D01*
X155484285Y-81486828D01*
X155484285Y-81317495D01*
X155387523Y-81317495D01*
X155702000Y-81535209D02*
X155702000Y-81027209D01*
X155895523Y-81027209D01*
X155943904Y-81051400D01*
X155968095Y-81075590D01*
X155992285Y-81123971D01*
X155992285Y-81196542D01*
X155968095Y-81244923D01*
X155943904Y-81269114D01*
X155895523Y-81293304D01*
X155702000Y-81293304D01*
X156210000Y-81535209D02*
X156210000Y-81027209D01*
X156548666Y-81027209D02*
X156645428Y-81027209D01*
X156693809Y-81051400D01*
X156742190Y-81099780D01*
X156766380Y-81196542D01*
X156766380Y-81365876D01*
X156742190Y-81462638D01*
X156693809Y-81511019D01*
X156645428Y-81535209D01*
X156548666Y-81535209D01*
X156500285Y-81511019D01*
X156451904Y-81462638D01*
X156427714Y-81365876D01*
X156427714Y-81196542D01*
X156451904Y-81099780D01*
X156500285Y-81051400D01*
X156548666Y-81027209D01*
X157250190Y-81535209D02*
X156959904Y-81535209D01*
X157105047Y-81535209D02*
X157105047Y-81027209D01*
X157056666Y-81099780D01*
X157008285Y-81148161D01*
X156959904Y-81172352D01*
X155169809Y-82852380D02*
X154927904Y-83021714D01*
X155169809Y-83142666D02*
X154661809Y-83142666D01*
X154661809Y-82949142D01*
X154686000Y-82900761D01*
X154710190Y-82876571D01*
X154758571Y-82852380D01*
X154831142Y-82852380D01*
X154879523Y-82876571D01*
X154903714Y-82900761D01*
X154927904Y-82949142D01*
X154927904Y-83142666D01*
X155169809Y-82683047D02*
X154831142Y-82416952D01*
X154831142Y-82683047D02*
X155169809Y-82416952D01*
X155169809Y-82223428D02*
X154661809Y-82223428D01*
X154661809Y-82102476D01*
X154686000Y-82029904D01*
X154734380Y-81981523D01*
X154782761Y-81957333D01*
X154879523Y-81933142D01*
X154952095Y-81933142D01*
X155048857Y-81957333D01*
X155097238Y-81981523D01*
X155145619Y-82029904D01*
X155169809Y-82102476D01*
X155169809Y-82223428D01*
X154636409Y-80614761D02*
X154636409Y-80324476D01*
X155144409Y-80469619D02*
X154636409Y-80469619D01*
X155144409Y-80203523D02*
X154805742Y-79937428D01*
X154805742Y-80203523D02*
X155144409Y-79937428D01*
X155144409Y-79743904D02*
X154636409Y-79743904D01*
X154636409Y-79622952D01*
X154660600Y-79550380D01*
X154708980Y-79502000D01*
X154757361Y-79477809D01*
X154854123Y-79453619D01*
X154926695Y-79453619D01*
X155023457Y-79477809D01*
X155071838Y-79502000D01*
X155120219Y-79550380D01*
X155144409Y-79622952D01*
X155144409Y-79743904D01*
X154964190Y-78511400D02*
X154915809Y-78487209D01*
X154843238Y-78487209D01*
X154770666Y-78511400D01*
X154722285Y-78559780D01*
X154698095Y-78608161D01*
X154673904Y-78704923D01*
X154673904Y-78777495D01*
X154698095Y-78874257D01*
X154722285Y-78922638D01*
X154770666Y-78971019D01*
X154843238Y-78995209D01*
X154891619Y-78995209D01*
X154964190Y-78971019D01*
X154988380Y-78946828D01*
X154988380Y-78777495D01*
X154891619Y-78777495D01*
X155206095Y-78995209D02*
X155206095Y-78487209D01*
X155399619Y-78487209D01*
X155448000Y-78511400D01*
X155472190Y-78535590D01*
X155496380Y-78583971D01*
X155496380Y-78656542D01*
X155472190Y-78704923D01*
X155448000Y-78729114D01*
X155399619Y-78753304D01*
X155206095Y-78753304D01*
X155714095Y-78995209D02*
X155714095Y-78487209D01*
X156052761Y-78487209D02*
X156149523Y-78487209D01*
X156197904Y-78511400D01*
X156246285Y-78559780D01*
X156270476Y-78656542D01*
X156270476Y-78825876D01*
X156246285Y-78922638D01*
X156197904Y-78971019D01*
X156149523Y-78995209D01*
X156052761Y-78995209D01*
X156004380Y-78971019D01*
X155956000Y-78922638D01*
X155931809Y-78825876D01*
X155931809Y-78656542D01*
X155956000Y-78559780D01*
X156004380Y-78511400D01*
X156052761Y-78487209D01*
X156464000Y-78535590D02*
X156488190Y-78511400D01*
X156536571Y-78487209D01*
X156657523Y-78487209D01*
X156705904Y-78511400D01*
X156730095Y-78535590D01*
X156754285Y-78583971D01*
X156754285Y-78632352D01*
X156730095Y-78704923D01*
X156439809Y-78995209D01*
X156754285Y-78995209D01*
X156947809Y-78535590D02*
X156972000Y-78511400D01*
X157020380Y-78487209D01*
X157141333Y-78487209D01*
X157189714Y-78511400D01*
X157213904Y-78535590D01*
X157238095Y-78583971D01*
X157238095Y-78632352D01*
X157213904Y-78704923D01*
X156923619Y-78995209D01*
X157238095Y-78995209D01*
X154964190Y-75971400D02*
X154915809Y-75947209D01*
X154843238Y-75947209D01*
X154770666Y-75971400D01*
X154722285Y-76019780D01*
X154698095Y-76068161D01*
X154673904Y-76164923D01*
X154673904Y-76237495D01*
X154698095Y-76334257D01*
X154722285Y-76382638D01*
X154770666Y-76431019D01*
X154843238Y-76455209D01*
X154891619Y-76455209D01*
X154964190Y-76431019D01*
X154988380Y-76406828D01*
X154988380Y-76237495D01*
X154891619Y-76237495D01*
X155206095Y-76455209D02*
X155206095Y-75947209D01*
X155399619Y-75947209D01*
X155448000Y-75971400D01*
X155472190Y-75995590D01*
X155496380Y-76043971D01*
X155496380Y-76116542D01*
X155472190Y-76164923D01*
X155448000Y-76189114D01*
X155399619Y-76213304D01*
X155206095Y-76213304D01*
X155714095Y-76455209D02*
X155714095Y-75947209D01*
X156052761Y-75947209D02*
X156149523Y-75947209D01*
X156197904Y-75971400D01*
X156246285Y-76019780D01*
X156270476Y-76116542D01*
X156270476Y-76285876D01*
X156246285Y-76382638D01*
X156197904Y-76431019D01*
X156149523Y-76455209D01*
X156052761Y-76455209D01*
X156004380Y-76431019D01*
X155956000Y-76382638D01*
X155931809Y-76285876D01*
X155931809Y-76116542D01*
X155956000Y-76019780D01*
X156004380Y-75971400D01*
X156052761Y-75947209D01*
X156464000Y-75995590D02*
X156488190Y-75971400D01*
X156536571Y-75947209D01*
X156657523Y-75947209D01*
X156705904Y-75971400D01*
X156730095Y-75995590D01*
X156754285Y-76043971D01*
X156754285Y-76092352D01*
X156730095Y-76164923D01*
X156439809Y-76455209D01*
X156754285Y-76455209D01*
X156923619Y-75947209D02*
X157238095Y-75947209D01*
X157068761Y-76140733D01*
X157141333Y-76140733D01*
X157189714Y-76164923D01*
X157213904Y-76189114D01*
X157238095Y-76237495D01*
X157238095Y-76358447D01*
X157213904Y-76406828D01*
X157189714Y-76431019D01*
X157141333Y-76455209D01*
X156996190Y-76455209D01*
X156947809Y-76431019D01*
X156923619Y-76406828D01*
X155822952Y-73431400D02*
X155774571Y-73407209D01*
X155702000Y-73407209D01*
X155629428Y-73431400D01*
X155581047Y-73479780D01*
X155556857Y-73528161D01*
X155532666Y-73624923D01*
X155532666Y-73697495D01*
X155556857Y-73794257D01*
X155581047Y-73842638D01*
X155629428Y-73891019D01*
X155702000Y-73915209D01*
X155750380Y-73915209D01*
X155822952Y-73891019D01*
X155847142Y-73866828D01*
X155847142Y-73697495D01*
X155750380Y-73697495D01*
X156064857Y-73915209D02*
X156064857Y-73407209D01*
X156355142Y-73915209D01*
X156355142Y-73407209D01*
X156597047Y-73915209D02*
X156597047Y-73407209D01*
X156718000Y-73407209D01*
X156790571Y-73431400D01*
X156838952Y-73479780D01*
X156863142Y-73528161D01*
X156887333Y-73624923D01*
X156887333Y-73697495D01*
X156863142Y-73794257D01*
X156838952Y-73842638D01*
X156790571Y-73891019D01*
X156718000Y-73915209D01*
X156597047Y-73915209D01*
X131777619Y-111276190D02*
X132430761Y-111711619D01*
X132309809Y-111106857D02*
X131801809Y-111106857D01*
X131801809Y-110985904D01*
X131826000Y-110913333D01*
X131874380Y-110864952D01*
X131922761Y-110840761D01*
X132019523Y-110816571D01*
X132092095Y-110816571D01*
X132188857Y-110840761D01*
X132237238Y-110864952D01*
X132285619Y-110913333D01*
X132309809Y-110985904D01*
X132309809Y-111106857D01*
X131850190Y-110623047D02*
X131826000Y-110598857D01*
X131801809Y-110550476D01*
X131801809Y-110429523D01*
X131826000Y-110381142D01*
X131850190Y-110356952D01*
X131898571Y-110332761D01*
X131946952Y-110332761D01*
X132019523Y-110356952D01*
X132309809Y-110647238D01*
X132309809Y-110332761D01*
X131959047Y-72442009D02*
X132273523Y-72442009D01*
X132104190Y-72635533D01*
X132176761Y-72635533D01*
X132225142Y-72659723D01*
X132249333Y-72683914D01*
X132273523Y-72732295D01*
X132273523Y-72853247D01*
X132249333Y-72901628D01*
X132225142Y-72925819D01*
X132176761Y-72950009D01*
X132031619Y-72950009D01*
X131983238Y-72925819D01*
X131959047Y-72901628D01*
X132418666Y-72442009D02*
X132588000Y-72950009D01*
X132757333Y-72442009D01*
X132878285Y-72442009D02*
X133192761Y-72442009D01*
X133023428Y-72635533D01*
X133096000Y-72635533D01*
X133144380Y-72659723D01*
X133168571Y-72683914D01*
X133192761Y-72732295D01*
X133192761Y-72853247D01*
X133168571Y-72901628D01*
X133144380Y-72925819D01*
X133096000Y-72950009D01*
X132950857Y-72950009D01*
X132902476Y-72925819D01*
X132878285Y-72901628D01*
D14*
X131582885Y-118913728D02*
X132027990Y-118913728D01*
X131805438Y-119136280D02*
X131805438Y-118691176D01*
X132584371Y-118552080D02*
X132306180Y-118552080D01*
X132278361Y-118830271D01*
X132306180Y-118802452D01*
X132361819Y-118774633D01*
X132500914Y-118774633D01*
X132556552Y-118802452D01*
X132584371Y-118830271D01*
X132612190Y-118885909D01*
X132612190Y-119025004D01*
X132584371Y-119080642D01*
X132556552Y-119108461D01*
X132500914Y-119136280D01*
X132361819Y-119136280D01*
X132306180Y-119108461D01*
X132278361Y-119080642D01*
X132779104Y-118552080D02*
X132973838Y-119136280D01*
X133168571Y-118552080D01*
D15*
X131807857Y-116168714D02*
X132395685Y-116560600D01*
X132243285Y-115755057D02*
X132265057Y-115776828D01*
X132286828Y-115842142D01*
X132286828Y-115885685D01*
X132265057Y-115951000D01*
X132221514Y-115994542D01*
X132177971Y-116016314D01*
X132090885Y-116038085D01*
X132025571Y-116038085D01*
X131938485Y-116016314D01*
X131894942Y-115994542D01*
X131851400Y-115951000D01*
X131829628Y-115885685D01*
X131829628Y-115842142D01*
X131851400Y-115776828D01*
X131873171Y-115755057D01*
X132286828Y-115559114D02*
X131829628Y-115559114D01*
X132156200Y-115406714D01*
X131829628Y-115254314D01*
X132286828Y-115254314D01*
X132286828Y-115036600D02*
X131829628Y-115036600D01*
X131829628Y-114927742D01*
X131851400Y-114862428D01*
X131894942Y-114818885D01*
X131938485Y-114797114D01*
X132025571Y-114775342D01*
X132090885Y-114775342D01*
X132177971Y-114797114D01*
X132221514Y-114818885D01*
X132265057Y-114862428D01*
X132286828Y-114927742D01*
X132286828Y-115036600D01*
D13*
X130072190Y-116611400D02*
X130023809Y-116587209D01*
X129951238Y-116587209D01*
X129878666Y-116611400D01*
X129830285Y-116659780D01*
X129806095Y-116708161D01*
X129781904Y-116804923D01*
X129781904Y-116877495D01*
X129806095Y-116974257D01*
X129830285Y-117022638D01*
X129878666Y-117071019D01*
X129951238Y-117095209D01*
X129999619Y-117095209D01*
X130072190Y-117071019D01*
X130096380Y-117046828D01*
X130096380Y-116877495D01*
X129999619Y-116877495D01*
X130314095Y-117095209D02*
X130314095Y-116587209D01*
X130507619Y-116587209D01*
X130556000Y-116611400D01*
X130580190Y-116635590D01*
X130604380Y-116683971D01*
X130604380Y-116756542D01*
X130580190Y-116804923D01*
X130556000Y-116829114D01*
X130507619Y-116853304D01*
X130314095Y-116853304D01*
X130822095Y-117095209D02*
X130822095Y-116587209D01*
X131160761Y-116587209D02*
X131257523Y-116587209D01*
X131305904Y-116611400D01*
X131354285Y-116659780D01*
X131378476Y-116756542D01*
X131378476Y-116925876D01*
X131354285Y-117022638D01*
X131305904Y-117071019D01*
X131257523Y-117095209D01*
X131160761Y-117095209D01*
X131112380Y-117071019D01*
X131064000Y-117022638D01*
X131039809Y-116925876D01*
X131039809Y-116756542D01*
X131064000Y-116659780D01*
X131112380Y-116611400D01*
X131160761Y-116587209D01*
X131862285Y-117095209D02*
X131572000Y-117095209D01*
X131717142Y-117095209D02*
X131717142Y-116587209D01*
X131668761Y-116659780D01*
X131620380Y-116708161D01*
X131572000Y-116732352D01*
X132346095Y-117095209D02*
X132055809Y-117095209D01*
X132200952Y-117095209D02*
X132200952Y-116587209D01*
X132152571Y-116659780D01*
X132104190Y-116708161D01*
X132055809Y-116732352D01*
X131777619Y-113562190D02*
X132430761Y-113997619D01*
X132309809Y-113392857D02*
X131801809Y-113392857D01*
X131801809Y-113271904D01*
X131826000Y-113199333D01*
X131874380Y-113150952D01*
X131922761Y-113126761D01*
X132019523Y-113102571D01*
X132092095Y-113102571D01*
X132188857Y-113126761D01*
X132237238Y-113150952D01*
X132285619Y-113199333D01*
X132309809Y-113271904D01*
X132309809Y-113392857D01*
X131801809Y-112933238D02*
X131801809Y-112618761D01*
X131995333Y-112788095D01*
X131995333Y-112715523D01*
X132019523Y-112667142D01*
X132043714Y-112642952D01*
X132092095Y-112618761D01*
X132213047Y-112618761D01*
X132261428Y-112642952D01*
X132285619Y-112667142D01*
X132309809Y-112715523D01*
X132309809Y-112860666D01*
X132285619Y-112909047D01*
X132261428Y-112933238D01*
X130072190Y-114071400D02*
X130023809Y-114047209D01*
X129951238Y-114047209D01*
X129878666Y-114071400D01*
X129830285Y-114119780D01*
X129806095Y-114168161D01*
X129781904Y-114264923D01*
X129781904Y-114337495D01*
X129806095Y-114434257D01*
X129830285Y-114482638D01*
X129878666Y-114531019D01*
X129951238Y-114555209D01*
X129999619Y-114555209D01*
X130072190Y-114531019D01*
X130096380Y-114506828D01*
X130096380Y-114337495D01*
X129999619Y-114337495D01*
X130314095Y-114555209D02*
X130314095Y-114047209D01*
X130507619Y-114047209D01*
X130556000Y-114071400D01*
X130580190Y-114095590D01*
X130604380Y-114143971D01*
X130604380Y-114216542D01*
X130580190Y-114264923D01*
X130556000Y-114289114D01*
X130507619Y-114313304D01*
X130314095Y-114313304D01*
X130822095Y-114555209D02*
X130822095Y-114047209D01*
X131160761Y-114047209D02*
X131257523Y-114047209D01*
X131305904Y-114071400D01*
X131354285Y-114119780D01*
X131378476Y-114216542D01*
X131378476Y-114385876D01*
X131354285Y-114482638D01*
X131305904Y-114531019D01*
X131257523Y-114555209D01*
X131160761Y-114555209D01*
X131112380Y-114531019D01*
X131064000Y-114482638D01*
X131039809Y-114385876D01*
X131039809Y-114216542D01*
X131064000Y-114119780D01*
X131112380Y-114071400D01*
X131160761Y-114047209D01*
X131862285Y-114555209D02*
X131572000Y-114555209D01*
X131717142Y-114555209D02*
X131717142Y-114047209D01*
X131668761Y-114119780D01*
X131620380Y-114168161D01*
X131572000Y-114192352D01*
X132176761Y-114047209D02*
X132225142Y-114047209D01*
X132273523Y-114071400D01*
X132297714Y-114095590D01*
X132321904Y-114143971D01*
X132346095Y-114240733D01*
X132346095Y-114361685D01*
X132321904Y-114458447D01*
X132297714Y-114506828D01*
X132273523Y-114531019D01*
X132225142Y-114555209D01*
X132176761Y-114555209D01*
X132128380Y-114531019D01*
X132104190Y-114506828D01*
X132080000Y-114458447D01*
X132055809Y-114361685D01*
X132055809Y-114240733D01*
X132080000Y-114143971D01*
X132104190Y-114095590D01*
X132128380Y-114071400D01*
X132176761Y-114047209D01*
X130060095Y-111531400D02*
X130011714Y-111507209D01*
X129939142Y-111507209D01*
X129866571Y-111531400D01*
X129818190Y-111579780D01*
X129794000Y-111628161D01*
X129769809Y-111724923D01*
X129769809Y-111797495D01*
X129794000Y-111894257D01*
X129818190Y-111942638D01*
X129866571Y-111991019D01*
X129939142Y-112015209D01*
X129987523Y-112015209D01*
X130060095Y-111991019D01*
X130084285Y-111966828D01*
X130084285Y-111797495D01*
X129987523Y-111797495D01*
X130302000Y-112015209D02*
X130302000Y-111507209D01*
X130495523Y-111507209D01*
X130543904Y-111531400D01*
X130568095Y-111555590D01*
X130592285Y-111603971D01*
X130592285Y-111676542D01*
X130568095Y-111724923D01*
X130543904Y-111749114D01*
X130495523Y-111773304D01*
X130302000Y-111773304D01*
X130810000Y-112015209D02*
X130810000Y-111507209D01*
X131148666Y-111507209D02*
X131245428Y-111507209D01*
X131293809Y-111531400D01*
X131342190Y-111579780D01*
X131366380Y-111676542D01*
X131366380Y-111845876D01*
X131342190Y-111942638D01*
X131293809Y-111991019D01*
X131245428Y-112015209D01*
X131148666Y-112015209D01*
X131100285Y-111991019D01*
X131051904Y-111942638D01*
X131027714Y-111845876D01*
X131027714Y-111676542D01*
X131051904Y-111579780D01*
X131100285Y-111531400D01*
X131148666Y-111507209D01*
X131608285Y-112015209D02*
X131705047Y-112015209D01*
X131753428Y-111991019D01*
X131777619Y-111966828D01*
X131826000Y-111894257D01*
X131850190Y-111797495D01*
X131850190Y-111603971D01*
X131826000Y-111555590D01*
X131801809Y-111531400D01*
X131753428Y-111507209D01*
X131656666Y-111507209D01*
X131608285Y-111531400D01*
X131584095Y-111555590D01*
X131559904Y-111603971D01*
X131559904Y-111724923D01*
X131584095Y-111773304D01*
X131608285Y-111797495D01*
X131656666Y-111821685D01*
X131753428Y-111821685D01*
X131801809Y-111797495D01*
X131826000Y-111773304D01*
X131850190Y-111724923D01*
X129995990Y-108991400D02*
X129947609Y-108967209D01*
X129875038Y-108967209D01*
X129802466Y-108991400D01*
X129754085Y-109039780D01*
X129729895Y-109088161D01*
X129705704Y-109184923D01*
X129705704Y-109257495D01*
X129729895Y-109354257D01*
X129754085Y-109402638D01*
X129802466Y-109451019D01*
X129875038Y-109475209D01*
X129923419Y-109475209D01*
X129995990Y-109451019D01*
X130020180Y-109426828D01*
X130020180Y-109257495D01*
X129923419Y-109257495D01*
X130237895Y-109475209D02*
X130237895Y-108967209D01*
X130431419Y-108967209D01*
X130479800Y-108991400D01*
X130503990Y-109015590D01*
X130528180Y-109063971D01*
X130528180Y-109136542D01*
X130503990Y-109184923D01*
X130479800Y-109209114D01*
X130431419Y-109233304D01*
X130237895Y-109233304D01*
X130745895Y-109475209D02*
X130745895Y-108967209D01*
X131084561Y-108967209D02*
X131181323Y-108967209D01*
X131229704Y-108991400D01*
X131278085Y-109039780D01*
X131302276Y-109136542D01*
X131302276Y-109305876D01*
X131278085Y-109402638D01*
X131229704Y-109451019D01*
X131181323Y-109475209D01*
X131084561Y-109475209D01*
X131036180Y-109451019D01*
X130987800Y-109402638D01*
X130963609Y-109305876D01*
X130963609Y-109136542D01*
X130987800Y-109039780D01*
X131036180Y-108991400D01*
X131084561Y-108967209D01*
X131786085Y-109475209D02*
X131495800Y-109475209D01*
X131640942Y-109475209D02*
X131640942Y-108967209D01*
X131592561Y-109039780D01*
X131544180Y-109088161D01*
X131495800Y-109112352D01*
X131955419Y-108967209D02*
X132269895Y-108967209D01*
X132100561Y-109160733D01*
X132173133Y-109160733D01*
X132221514Y-109184923D01*
X132245704Y-109209114D01*
X132269895Y-109257495D01*
X132269895Y-109378447D01*
X132245704Y-109426828D01*
X132221514Y-109451019D01*
X132173133Y-109475209D01*
X132027990Y-109475209D01*
X131979609Y-109451019D01*
X131955419Y-109426828D01*
X130448352Y-106451400D02*
X130399971Y-106427209D01*
X130327400Y-106427209D01*
X130254828Y-106451400D01*
X130206447Y-106499780D01*
X130182257Y-106548161D01*
X130158066Y-106644923D01*
X130158066Y-106717495D01*
X130182257Y-106814257D01*
X130206447Y-106862638D01*
X130254828Y-106911019D01*
X130327400Y-106935209D01*
X130375780Y-106935209D01*
X130448352Y-106911019D01*
X130472542Y-106886828D01*
X130472542Y-106717495D01*
X130375780Y-106717495D01*
X130690257Y-106935209D02*
X130690257Y-106427209D01*
X130980542Y-106935209D01*
X130980542Y-106427209D01*
X131222447Y-106935209D02*
X131222447Y-106427209D01*
X131343400Y-106427209D01*
X131415971Y-106451400D01*
X131464352Y-106499780D01*
X131488542Y-106548161D01*
X131512733Y-106644923D01*
X131512733Y-106717495D01*
X131488542Y-106814257D01*
X131464352Y-106862638D01*
X131415971Y-106911019D01*
X131343400Y-106935209D01*
X131222447Y-106935209D01*
X130072190Y-103911400D02*
X130023809Y-103887209D01*
X129951238Y-103887209D01*
X129878666Y-103911400D01*
X129830285Y-103959780D01*
X129806095Y-104008161D01*
X129781904Y-104104923D01*
X129781904Y-104177495D01*
X129806095Y-104274257D01*
X129830285Y-104322638D01*
X129878666Y-104371019D01*
X129951238Y-104395209D01*
X129999619Y-104395209D01*
X130072190Y-104371019D01*
X130096380Y-104346828D01*
X130096380Y-104177495D01*
X129999619Y-104177495D01*
X130314095Y-104395209D02*
X130314095Y-103887209D01*
X130507619Y-103887209D01*
X130556000Y-103911400D01*
X130580190Y-103935590D01*
X130604380Y-103983971D01*
X130604380Y-104056542D01*
X130580190Y-104104923D01*
X130556000Y-104129114D01*
X130507619Y-104153304D01*
X130314095Y-104153304D01*
X130822095Y-104395209D02*
X130822095Y-103887209D01*
X131160761Y-103887209D02*
X131257523Y-103887209D01*
X131305904Y-103911400D01*
X131354285Y-103959780D01*
X131378476Y-104056542D01*
X131378476Y-104225876D01*
X131354285Y-104322638D01*
X131305904Y-104371019D01*
X131257523Y-104395209D01*
X131160761Y-104395209D01*
X131112380Y-104371019D01*
X131064000Y-104322638D01*
X131039809Y-104225876D01*
X131039809Y-104056542D01*
X131064000Y-103959780D01*
X131112380Y-103911400D01*
X131160761Y-103887209D01*
X131862285Y-104395209D02*
X131572000Y-104395209D01*
X131717142Y-104395209D02*
X131717142Y-103887209D01*
X131668761Y-103959780D01*
X131620380Y-104008161D01*
X131572000Y-104032352D01*
X132055809Y-103935590D02*
X132080000Y-103911400D01*
X132128380Y-103887209D01*
X132249333Y-103887209D01*
X132297714Y-103911400D01*
X132321904Y-103935590D01*
X132346095Y-103983971D01*
X132346095Y-104032352D01*
X132321904Y-104104923D01*
X132031619Y-104395209D01*
X132346095Y-104395209D01*
X130072190Y-101371400D02*
X130023809Y-101347209D01*
X129951238Y-101347209D01*
X129878666Y-101371400D01*
X129830285Y-101419780D01*
X129806095Y-101468161D01*
X129781904Y-101564923D01*
X129781904Y-101637495D01*
X129806095Y-101734257D01*
X129830285Y-101782638D01*
X129878666Y-101831019D01*
X129951238Y-101855209D01*
X129999619Y-101855209D01*
X130072190Y-101831019D01*
X130096380Y-101806828D01*
X130096380Y-101637495D01*
X129999619Y-101637495D01*
X130314095Y-101855209D02*
X130314095Y-101347209D01*
X130507619Y-101347209D01*
X130556000Y-101371400D01*
X130580190Y-101395590D01*
X130604380Y-101443971D01*
X130604380Y-101516542D01*
X130580190Y-101564923D01*
X130556000Y-101589114D01*
X130507619Y-101613304D01*
X130314095Y-101613304D01*
X130822095Y-101855209D02*
X130822095Y-101347209D01*
X131160761Y-101347209D02*
X131257523Y-101347209D01*
X131305904Y-101371400D01*
X131354285Y-101419780D01*
X131378476Y-101516542D01*
X131378476Y-101685876D01*
X131354285Y-101782638D01*
X131305904Y-101831019D01*
X131257523Y-101855209D01*
X131160761Y-101855209D01*
X131112380Y-101831019D01*
X131064000Y-101782638D01*
X131039809Y-101685876D01*
X131039809Y-101516542D01*
X131064000Y-101419780D01*
X131112380Y-101371400D01*
X131160761Y-101347209D01*
X131862285Y-101855209D02*
X131572000Y-101855209D01*
X131717142Y-101855209D02*
X131717142Y-101347209D01*
X131668761Y-101419780D01*
X131620380Y-101468161D01*
X131572000Y-101492352D01*
X132297714Y-101516542D02*
X132297714Y-101855209D01*
X132176761Y-101323019D02*
X132055809Y-101685876D01*
X132370285Y-101685876D01*
X130072190Y-98831400D02*
X130023809Y-98807209D01*
X129951238Y-98807209D01*
X129878666Y-98831400D01*
X129830285Y-98879780D01*
X129806095Y-98928161D01*
X129781904Y-99024923D01*
X129781904Y-99097495D01*
X129806095Y-99194257D01*
X129830285Y-99242638D01*
X129878666Y-99291019D01*
X129951238Y-99315209D01*
X129999619Y-99315209D01*
X130072190Y-99291019D01*
X130096380Y-99266828D01*
X130096380Y-99097495D01*
X129999619Y-99097495D01*
X130314095Y-99315209D02*
X130314095Y-98807209D01*
X130507619Y-98807209D01*
X130556000Y-98831400D01*
X130580190Y-98855590D01*
X130604380Y-98903971D01*
X130604380Y-98976542D01*
X130580190Y-99024923D01*
X130556000Y-99049114D01*
X130507619Y-99073304D01*
X130314095Y-99073304D01*
X130822095Y-99315209D02*
X130822095Y-98807209D01*
X131160761Y-98807209D02*
X131257523Y-98807209D01*
X131305904Y-98831400D01*
X131354285Y-98879780D01*
X131378476Y-98976542D01*
X131378476Y-99145876D01*
X131354285Y-99242638D01*
X131305904Y-99291019D01*
X131257523Y-99315209D01*
X131160761Y-99315209D01*
X131112380Y-99291019D01*
X131064000Y-99242638D01*
X131039809Y-99145876D01*
X131039809Y-98976542D01*
X131064000Y-98879780D01*
X131112380Y-98831400D01*
X131160761Y-98807209D01*
X131572000Y-98855590D02*
X131596190Y-98831400D01*
X131644571Y-98807209D01*
X131765523Y-98807209D01*
X131813904Y-98831400D01*
X131838095Y-98855590D01*
X131862285Y-98903971D01*
X131862285Y-98952352D01*
X131838095Y-99024923D01*
X131547809Y-99315209D01*
X131862285Y-99315209D01*
X132031619Y-98807209D02*
X132370285Y-98807209D01*
X132152571Y-99315209D01*
X130072190Y-96291400D02*
X130023809Y-96267209D01*
X129951238Y-96267209D01*
X129878666Y-96291400D01*
X129830285Y-96339780D01*
X129806095Y-96388161D01*
X129781904Y-96484923D01*
X129781904Y-96557495D01*
X129806095Y-96654257D01*
X129830285Y-96702638D01*
X129878666Y-96751019D01*
X129951238Y-96775209D01*
X129999619Y-96775209D01*
X130072190Y-96751019D01*
X130096380Y-96726828D01*
X130096380Y-96557495D01*
X129999619Y-96557495D01*
X130314095Y-96775209D02*
X130314095Y-96267209D01*
X130507619Y-96267209D01*
X130556000Y-96291400D01*
X130580190Y-96315590D01*
X130604380Y-96363971D01*
X130604380Y-96436542D01*
X130580190Y-96484923D01*
X130556000Y-96509114D01*
X130507619Y-96533304D01*
X130314095Y-96533304D01*
X130822095Y-96775209D02*
X130822095Y-96267209D01*
X131160761Y-96267209D02*
X131257523Y-96267209D01*
X131305904Y-96291400D01*
X131354285Y-96339780D01*
X131378476Y-96436542D01*
X131378476Y-96605876D01*
X131354285Y-96702638D01*
X131305904Y-96751019D01*
X131257523Y-96775209D01*
X131160761Y-96775209D01*
X131112380Y-96751019D01*
X131064000Y-96702638D01*
X131039809Y-96605876D01*
X131039809Y-96436542D01*
X131064000Y-96339780D01*
X131112380Y-96291400D01*
X131160761Y-96267209D01*
X131572000Y-96315590D02*
X131596190Y-96291400D01*
X131644571Y-96267209D01*
X131765523Y-96267209D01*
X131813904Y-96291400D01*
X131838095Y-96315590D01*
X131862285Y-96363971D01*
X131862285Y-96412352D01*
X131838095Y-96484923D01*
X131547809Y-96775209D01*
X131862285Y-96775209D01*
X132297714Y-96267209D02*
X132200952Y-96267209D01*
X132152571Y-96291400D01*
X132128380Y-96315590D01*
X132080000Y-96388161D01*
X132055809Y-96484923D01*
X132055809Y-96678447D01*
X132080000Y-96726828D01*
X132104190Y-96751019D01*
X132152571Y-96775209D01*
X132249333Y-96775209D01*
X132297714Y-96751019D01*
X132321904Y-96726828D01*
X132346095Y-96678447D01*
X132346095Y-96557495D01*
X132321904Y-96509114D01*
X132297714Y-96484923D01*
X132249333Y-96460733D01*
X132152571Y-96460733D01*
X132104190Y-96484923D01*
X132080000Y-96509114D01*
X132055809Y-96557495D01*
X130072190Y-93751400D02*
X130023809Y-93727209D01*
X129951238Y-93727209D01*
X129878666Y-93751400D01*
X129830285Y-93799780D01*
X129806095Y-93848161D01*
X129781904Y-93944923D01*
X129781904Y-94017495D01*
X129806095Y-94114257D01*
X129830285Y-94162638D01*
X129878666Y-94211019D01*
X129951238Y-94235209D01*
X129999619Y-94235209D01*
X130072190Y-94211019D01*
X130096380Y-94186828D01*
X130096380Y-94017495D01*
X129999619Y-94017495D01*
X130314095Y-94235209D02*
X130314095Y-93727209D01*
X130507619Y-93727209D01*
X130556000Y-93751400D01*
X130580190Y-93775590D01*
X130604380Y-93823971D01*
X130604380Y-93896542D01*
X130580190Y-93944923D01*
X130556000Y-93969114D01*
X130507619Y-93993304D01*
X130314095Y-93993304D01*
X130822095Y-94235209D02*
X130822095Y-93727209D01*
X131160761Y-93727209D02*
X131257523Y-93727209D01*
X131305904Y-93751400D01*
X131354285Y-93799780D01*
X131378476Y-93896542D01*
X131378476Y-94065876D01*
X131354285Y-94162638D01*
X131305904Y-94211019D01*
X131257523Y-94235209D01*
X131160761Y-94235209D01*
X131112380Y-94211019D01*
X131064000Y-94162638D01*
X131039809Y-94065876D01*
X131039809Y-93896542D01*
X131064000Y-93799780D01*
X131112380Y-93751400D01*
X131160761Y-93727209D01*
X131572000Y-93775590D02*
X131596190Y-93751400D01*
X131644571Y-93727209D01*
X131765523Y-93727209D01*
X131813904Y-93751400D01*
X131838095Y-93775590D01*
X131862285Y-93823971D01*
X131862285Y-93872352D01*
X131838095Y-93944923D01*
X131547809Y-94235209D01*
X131862285Y-94235209D01*
X132321904Y-93727209D02*
X132080000Y-93727209D01*
X132055809Y-93969114D01*
X132080000Y-93944923D01*
X132128380Y-93920733D01*
X132249333Y-93920733D01*
X132297714Y-93944923D01*
X132321904Y-93969114D01*
X132346095Y-94017495D01*
X132346095Y-94138447D01*
X132321904Y-94186828D01*
X132297714Y-94211019D01*
X132249333Y-94235209D01*
X132128380Y-94235209D01*
X132080000Y-94211019D01*
X132055809Y-94186828D01*
X130072190Y-91211400D02*
X130023809Y-91187209D01*
X129951238Y-91187209D01*
X129878666Y-91211400D01*
X129830285Y-91259780D01*
X129806095Y-91308161D01*
X129781904Y-91404923D01*
X129781904Y-91477495D01*
X129806095Y-91574257D01*
X129830285Y-91622638D01*
X129878666Y-91671019D01*
X129951238Y-91695209D01*
X129999619Y-91695209D01*
X130072190Y-91671019D01*
X130096380Y-91646828D01*
X130096380Y-91477495D01*
X129999619Y-91477495D01*
X130314095Y-91695209D02*
X130314095Y-91187209D01*
X130507619Y-91187209D01*
X130556000Y-91211400D01*
X130580190Y-91235590D01*
X130604380Y-91283971D01*
X130604380Y-91356542D01*
X130580190Y-91404923D01*
X130556000Y-91429114D01*
X130507619Y-91453304D01*
X130314095Y-91453304D01*
X130822095Y-91695209D02*
X130822095Y-91187209D01*
X131160761Y-91187209D02*
X131257523Y-91187209D01*
X131305904Y-91211400D01*
X131354285Y-91259780D01*
X131378476Y-91356542D01*
X131378476Y-91525876D01*
X131354285Y-91622638D01*
X131305904Y-91671019D01*
X131257523Y-91695209D01*
X131160761Y-91695209D01*
X131112380Y-91671019D01*
X131064000Y-91622638D01*
X131039809Y-91525876D01*
X131039809Y-91356542D01*
X131064000Y-91259780D01*
X131112380Y-91211400D01*
X131160761Y-91187209D01*
X131547809Y-91187209D02*
X131862285Y-91187209D01*
X131692952Y-91380733D01*
X131765523Y-91380733D01*
X131813904Y-91404923D01*
X131838095Y-91429114D01*
X131862285Y-91477495D01*
X131862285Y-91598447D01*
X131838095Y-91646828D01*
X131813904Y-91671019D01*
X131765523Y-91695209D01*
X131620380Y-91695209D01*
X131572000Y-91671019D01*
X131547809Y-91646828D01*
X132031619Y-91187209D02*
X132346095Y-91187209D01*
X132176761Y-91380733D01*
X132249333Y-91380733D01*
X132297714Y-91404923D01*
X132321904Y-91429114D01*
X132346095Y-91477495D01*
X132346095Y-91598447D01*
X132321904Y-91646828D01*
X132297714Y-91671019D01*
X132249333Y-91695209D01*
X132104190Y-91695209D01*
X132055809Y-91671019D01*
X132031619Y-91646828D01*
X130072190Y-88671400D02*
X130023809Y-88647209D01*
X129951238Y-88647209D01*
X129878666Y-88671400D01*
X129830285Y-88719780D01*
X129806095Y-88768161D01*
X129781904Y-88864923D01*
X129781904Y-88937495D01*
X129806095Y-89034257D01*
X129830285Y-89082638D01*
X129878666Y-89131019D01*
X129951238Y-89155209D01*
X129999619Y-89155209D01*
X130072190Y-89131019D01*
X130096380Y-89106828D01*
X130096380Y-88937495D01*
X129999619Y-88937495D01*
X130314095Y-89155209D02*
X130314095Y-88647209D01*
X130507619Y-88647209D01*
X130556000Y-88671400D01*
X130580190Y-88695590D01*
X130604380Y-88743971D01*
X130604380Y-88816542D01*
X130580190Y-88864923D01*
X130556000Y-88889114D01*
X130507619Y-88913304D01*
X130314095Y-88913304D01*
X130822095Y-89155209D02*
X130822095Y-88647209D01*
X131160761Y-88647209D02*
X131257523Y-88647209D01*
X131305904Y-88671400D01*
X131354285Y-88719780D01*
X131378476Y-88816542D01*
X131378476Y-88985876D01*
X131354285Y-89082638D01*
X131305904Y-89131019D01*
X131257523Y-89155209D01*
X131160761Y-89155209D01*
X131112380Y-89131019D01*
X131064000Y-89082638D01*
X131039809Y-88985876D01*
X131039809Y-88816542D01*
X131064000Y-88719780D01*
X131112380Y-88671400D01*
X131160761Y-88647209D01*
X131547809Y-88647209D02*
X131862285Y-88647209D01*
X131692952Y-88840733D01*
X131765523Y-88840733D01*
X131813904Y-88864923D01*
X131838095Y-88889114D01*
X131862285Y-88937495D01*
X131862285Y-89058447D01*
X131838095Y-89106828D01*
X131813904Y-89131019D01*
X131765523Y-89155209D01*
X131620380Y-89155209D01*
X131572000Y-89131019D01*
X131547809Y-89106828D01*
X132055809Y-88695590D02*
X132080000Y-88671400D01*
X132128380Y-88647209D01*
X132249333Y-88647209D01*
X132297714Y-88671400D01*
X132321904Y-88695590D01*
X132346095Y-88743971D01*
X132346095Y-88792352D01*
X132321904Y-88864923D01*
X132031619Y-89155209D01*
X132346095Y-89155209D01*
X130084285Y-86131400D02*
X130035904Y-86107209D01*
X129963333Y-86107209D01*
X129890761Y-86131400D01*
X129842380Y-86179780D01*
X129818190Y-86228161D01*
X129794000Y-86324923D01*
X129794000Y-86397495D01*
X129818190Y-86494257D01*
X129842380Y-86542638D01*
X129890761Y-86591019D01*
X129963333Y-86615209D01*
X130011714Y-86615209D01*
X130084285Y-86591019D01*
X130108476Y-86566828D01*
X130108476Y-86397495D01*
X130011714Y-86397495D01*
X130326190Y-86615209D02*
X130326190Y-86107209D01*
X130519714Y-86107209D01*
X130568095Y-86131400D01*
X130592285Y-86155590D01*
X130616476Y-86203971D01*
X130616476Y-86276542D01*
X130592285Y-86324923D01*
X130568095Y-86349114D01*
X130519714Y-86373304D01*
X130326190Y-86373304D01*
X130834190Y-86615209D02*
X130834190Y-86107209D01*
X131027714Y-86107209D02*
X131342190Y-86107209D01*
X131172857Y-86300733D01*
X131245428Y-86300733D01*
X131293809Y-86324923D01*
X131318000Y-86349114D01*
X131342190Y-86397495D01*
X131342190Y-86518447D01*
X131318000Y-86566828D01*
X131293809Y-86591019D01*
X131245428Y-86615209D01*
X131100285Y-86615209D01*
X131051904Y-86591019D01*
X131027714Y-86566828D01*
X131801809Y-86107209D02*
X131559904Y-86107209D01*
X131535714Y-86349114D01*
X131559904Y-86324923D01*
X131608285Y-86300733D01*
X131729238Y-86300733D01*
X131777619Y-86324923D01*
X131801809Y-86349114D01*
X131826000Y-86397495D01*
X131826000Y-86518447D01*
X131801809Y-86566828D01*
X131777619Y-86591019D01*
X131729238Y-86615209D01*
X131608285Y-86615209D01*
X131559904Y-86591019D01*
X131535714Y-86566828D01*
X130084285Y-83591400D02*
X130035904Y-83567209D01*
X129963333Y-83567209D01*
X129890761Y-83591400D01*
X129842380Y-83639780D01*
X129818190Y-83688161D01*
X129794000Y-83784923D01*
X129794000Y-83857495D01*
X129818190Y-83954257D01*
X129842380Y-84002638D01*
X129890761Y-84051019D01*
X129963333Y-84075209D01*
X130011714Y-84075209D01*
X130084285Y-84051019D01*
X130108476Y-84026828D01*
X130108476Y-83857495D01*
X130011714Y-83857495D01*
X130326190Y-84075209D02*
X130326190Y-83567209D01*
X130519714Y-83567209D01*
X130568095Y-83591400D01*
X130592285Y-83615590D01*
X130616476Y-83663971D01*
X130616476Y-83736542D01*
X130592285Y-83784923D01*
X130568095Y-83809114D01*
X130519714Y-83833304D01*
X130326190Y-83833304D01*
X130834190Y-84075209D02*
X130834190Y-83567209D01*
X131027714Y-83567209D02*
X131342190Y-83567209D01*
X131172857Y-83760733D01*
X131245428Y-83760733D01*
X131293809Y-83784923D01*
X131318000Y-83809114D01*
X131342190Y-83857495D01*
X131342190Y-83978447D01*
X131318000Y-84026828D01*
X131293809Y-84051019D01*
X131245428Y-84075209D01*
X131100285Y-84075209D01*
X131051904Y-84051019D01*
X131027714Y-84026828D01*
X131777619Y-83736542D02*
X131777619Y-84075209D01*
X131656666Y-83543019D02*
X131535714Y-83905876D01*
X131850190Y-83905876D01*
X130096380Y-81051400D02*
X130048000Y-81027209D01*
X129975428Y-81027209D01*
X129902857Y-81051400D01*
X129854476Y-81099780D01*
X129830285Y-81148161D01*
X129806095Y-81244923D01*
X129806095Y-81317495D01*
X129830285Y-81414257D01*
X129854476Y-81462638D01*
X129902857Y-81511019D01*
X129975428Y-81535209D01*
X130023809Y-81535209D01*
X130096380Y-81511019D01*
X130120571Y-81486828D01*
X130120571Y-81317495D01*
X130023809Y-81317495D01*
X130338285Y-81535209D02*
X130338285Y-81027209D01*
X130531809Y-81027209D01*
X130580190Y-81051400D01*
X130604380Y-81075590D01*
X130628571Y-81123971D01*
X130628571Y-81196542D01*
X130604380Y-81244923D01*
X130580190Y-81269114D01*
X130531809Y-81293304D01*
X130338285Y-81293304D01*
X130846285Y-81535209D02*
X130846285Y-81027209D01*
X131039809Y-81027209D02*
X131354285Y-81027209D01*
X131184952Y-81220733D01*
X131257523Y-81220733D01*
X131305904Y-81244923D01*
X131330095Y-81269114D01*
X131354285Y-81317495D01*
X131354285Y-81438447D01*
X131330095Y-81486828D01*
X131305904Y-81511019D01*
X131257523Y-81535209D01*
X131112380Y-81535209D01*
X131064000Y-81511019D01*
X131039809Y-81486828D01*
X131596190Y-81535209D02*
X131692952Y-81535209D01*
X131741333Y-81511019D01*
X131765523Y-81486828D01*
X131813904Y-81414257D01*
X131838095Y-81317495D01*
X131838095Y-81123971D01*
X131813904Y-81075590D01*
X131789714Y-81051400D01*
X131741333Y-81027209D01*
X131644571Y-81027209D01*
X131596190Y-81051400D01*
X131572000Y-81075590D01*
X131547809Y-81123971D01*
X131547809Y-81244923D01*
X131572000Y-81293304D01*
X131596190Y-81317495D01*
X131644571Y-81341685D01*
X131741333Y-81341685D01*
X131789714Y-81317495D01*
X131813904Y-81293304D01*
X131838095Y-81244923D01*
X132418666Y-81003019D02*
X131983238Y-81656161D01*
X132515428Y-81027209D02*
X132684761Y-81535209D01*
X132854095Y-81027209D01*
X133023428Y-81535209D02*
X133023428Y-81027209D01*
X133313714Y-81535209D01*
X133313714Y-81027209D01*
X130108476Y-78511400D02*
X130060095Y-78487209D01*
X129987523Y-78487209D01*
X129914952Y-78511400D01*
X129866571Y-78559780D01*
X129842380Y-78608161D01*
X129818190Y-78704923D01*
X129818190Y-78777495D01*
X129842380Y-78874257D01*
X129866571Y-78922638D01*
X129914952Y-78971019D01*
X129987523Y-78995209D01*
X130035904Y-78995209D01*
X130108476Y-78971019D01*
X130132666Y-78946828D01*
X130132666Y-78777495D01*
X130035904Y-78777495D01*
X130350380Y-78995209D02*
X130350380Y-78487209D01*
X130543904Y-78487209D01*
X130592285Y-78511400D01*
X130616476Y-78535590D01*
X130640666Y-78583971D01*
X130640666Y-78656542D01*
X130616476Y-78704923D01*
X130592285Y-78729114D01*
X130543904Y-78753304D01*
X130350380Y-78753304D01*
X130858380Y-78995209D02*
X130858380Y-78487209D01*
X131051904Y-78487209D02*
X131366380Y-78487209D01*
X131197047Y-78680733D01*
X131269619Y-78680733D01*
X131318000Y-78704923D01*
X131342190Y-78729114D01*
X131366380Y-78777495D01*
X131366380Y-78898447D01*
X131342190Y-78946828D01*
X131318000Y-78971019D01*
X131269619Y-78995209D01*
X131124476Y-78995209D01*
X131076095Y-78971019D01*
X131051904Y-78946828D01*
X131801809Y-78487209D02*
X131705047Y-78487209D01*
X131656666Y-78511400D01*
X131632476Y-78535590D01*
X131584095Y-78608161D01*
X131559904Y-78704923D01*
X131559904Y-78898447D01*
X131584095Y-78946828D01*
X131608285Y-78971019D01*
X131656666Y-78995209D01*
X131753428Y-78995209D01*
X131801809Y-78971019D01*
X131826000Y-78946828D01*
X131850190Y-78898447D01*
X131850190Y-78777495D01*
X131826000Y-78729114D01*
X131801809Y-78704923D01*
X131753428Y-78680733D01*
X131656666Y-78680733D01*
X131608285Y-78704923D01*
X131584095Y-78729114D01*
X131559904Y-78777495D01*
X132430761Y-78463019D02*
X131995333Y-79116161D01*
X132527523Y-78487209D02*
X132696857Y-78995209D01*
X132866190Y-78487209D01*
X133035523Y-78995209D02*
X133035523Y-78487209D01*
X133229047Y-78487209D01*
X133277428Y-78511400D01*
X133301619Y-78535590D01*
X133325809Y-78583971D01*
X133325809Y-78656542D01*
X133301619Y-78704923D01*
X133277428Y-78729114D01*
X133229047Y-78753304D01*
X133035523Y-78753304D01*
X130435047Y-76189114D02*
X130604380Y-76189114D01*
X130676952Y-76455209D02*
X130435047Y-76455209D01*
X130435047Y-75947209D01*
X130676952Y-75947209D01*
X130894666Y-76455209D02*
X130894666Y-75947209D01*
X131184952Y-76455209D01*
X131184952Y-75947209D01*
X130181047Y-73407209D02*
X130495523Y-73407209D01*
X130326190Y-73600733D01*
X130398761Y-73600733D01*
X130447142Y-73624923D01*
X130471333Y-73649114D01*
X130495523Y-73697495D01*
X130495523Y-73818447D01*
X130471333Y-73866828D01*
X130447142Y-73891019D01*
X130398761Y-73915209D01*
X130253619Y-73915209D01*
X130205238Y-73891019D01*
X130181047Y-73866828D01*
X130640666Y-73407209D02*
X130810000Y-73915209D01*
X130979333Y-73407209D01*
X131100285Y-73407209D02*
X131414761Y-73407209D01*
X131245428Y-73600733D01*
X131318000Y-73600733D01*
X131366380Y-73624923D01*
X131390571Y-73649114D01*
X131414761Y-73697495D01*
X131414761Y-73818447D01*
X131390571Y-73866828D01*
X131366380Y-73891019D01*
X131318000Y-73915209D01*
X131172857Y-73915209D01*
X131124476Y-73891019D01*
X131100285Y-73866828D01*
D16*
X140917990Y-128919514D02*
X141885609Y-128919514D01*
X141401800Y-129403323D02*
X141401800Y-128435704D01*
X140841790Y-133542314D02*
X141809409Y-133542314D01*
D17*
X145102580Y-119275860D02*
X145653760Y-117853460D01*
D18*
X144757140Y-119090440D02*
X145074640Y-119296180D01*
D19*
X143967200Y-119639080D02*
X144746980Y-119108220D01*
D20*
X143390620Y-119100600D02*
X143954500Y-119639080D01*
D18*
X143405860Y-119100600D02*
X143939260Y-118267480D01*
X143581120Y-117340380D02*
X143939260Y-118224300D01*
X142603220Y-117099080D02*
X143553180Y-117317520D01*
D20*
X142613380Y-116321840D02*
X142608300Y-117109240D01*
D18*
X142600680Y-116309140D02*
X143619220Y-116128800D01*
X143649700Y-116093240D02*
X143997680Y-115227100D01*
X143421100Y-114325400D02*
X143977360Y-115176300D01*
D20*
X143410940Y-114302540D02*
X143911320Y-113769140D01*
D18*
X143959580Y-113743740D02*
X144787620Y-114396520D01*
X144848580Y-114386360D02*
X145694400Y-113979960D01*
X145953480Y-112946180D02*
X145747740Y-113959640D01*
X145945860Y-112933480D02*
X146730720Y-112933480D01*
X146712940Y-112953800D02*
X146926300Y-113972340D01*
X146926300Y-113972340D02*
X147828000Y-114421920D01*
X147840700Y-114416840D02*
X148744940Y-113782400D01*
X148744940Y-113784380D02*
X149298660Y-114330480D01*
X149298660Y-114333020D02*
X148681440Y-115122960D01*
X148681440Y-115122960D02*
X149021800Y-116060220D01*
X149021800Y-116060220D02*
X150103840Y-116288820D01*
X150103840Y-116288820D02*
X150103840Y-117124480D01*
X150103840Y-117124480D02*
X149090380Y-117294660D01*
X149090380Y-117294660D02*
X148683980Y-118206520D01*
X148734780Y-119654320D02*
X147899120Y-119087900D01*
X147899120Y-119087900D02*
X147561300Y-119273320D01*
X147561300Y-119273320D02*
X146987260Y-117833140D01*
X146997420Y-117830600D02*
G75*
G03X147368260Y-115966240I-746760J1117600D01*
G01*
X147378420Y-115981480D02*
G75*
G03X145453100Y-115783360I-1061720J-863600D01*
G01*
X145427700Y-115808760D02*
G75*
G03X145503900Y-117662960I965200J-889000D01*
G01*
X148683980Y-118206520D02*
X149303740Y-119092980D01*
X148750020Y-119646700D02*
X149303740Y-119100600D01*
D21*
X145183860Y-119456200D02*
X145834100Y-117787420D01*
X144800320Y-119253000D02*
X145145760Y-119473980D01*
X144787620Y-119242840D02*
X143962120Y-119806720D01*
X143954500Y-119814340D02*
X143233140Y-119120920D01*
X143225520Y-119118380D02*
X143822420Y-118254780D01*
X142463520Y-117210840D02*
X143535400Y-117406420D01*
X142463520Y-116217700D02*
X142463520Y-117203220D01*
X142460980Y-116215160D02*
X143631920Y-116011960D01*
X143530320Y-116017040D02*
X143865600Y-115183920D01*
X143268700Y-114333020D02*
X143863060Y-115186460D01*
X143248380Y-114297460D02*
X143921480Y-113583720D01*
X143934180Y-113581180D02*
X144904460Y-114297460D01*
X144868900Y-114228880D02*
X145773140Y-113850420D01*
X145856960Y-112834420D02*
X145656300Y-113860580D01*
X145867120Y-112826800D02*
X146832320Y-112826800D01*
X146832320Y-112826800D02*
X147058380Y-113997740D01*
X147048220Y-113916460D02*
X147853400Y-114254280D01*
X147734020Y-114302540D02*
X148744940Y-113629440D01*
X148750020Y-113626900D02*
X149443440Y-114317780D01*
X149448520Y-114325400D02*
X148744940Y-115316000D01*
X148833840Y-115206780D02*
X149199600Y-116075460D01*
X150136860Y-116977160D02*
X149029420Y-117200680D01*
X150220680Y-116235480D02*
X150218140Y-117193060D01*
X149082760Y-117424200D02*
X150205440Y-117213380D01*
X149186900Y-117391180D02*
X148805900Y-118371620D01*
X149153880Y-119026940D02*
X148668740Y-119557800D01*
X148757640Y-119801640D02*
X149440900Y-119110760D01*
X147871180Y-119186960D02*
X148747480Y-119806720D01*
X148734780Y-119491760D02*
X147914360Y-118963440D01*
X148051520Y-119159020D02*
X147523200Y-119486680D01*
X147523200Y-119486680D02*
X147137120Y-118506240D01*
X147132040Y-117807740D02*
X147660360Y-119189500D01*
X142755620Y-116405660D02*
X142755620Y-117055900D01*
X142613380Y-116461540D02*
X143728440Y-116215160D01*
X144142460Y-115194080D02*
X143756380Y-116192300D01*
X144147540Y-115199160D02*
X143545560Y-114289840D01*
X143903700Y-113845340D02*
X144787620Y-114566700D01*
X147175220Y-117866160D02*
X147353020Y-117744240D01*
X147353020Y-117744240D02*
X147728940Y-117033040D01*
X147728940Y-117033040D02*
X147728940Y-116514880D01*
X147734020Y-116527580D02*
X147500340Y-115854480D01*
X147500340Y-115854480D02*
X146989800Y-115425220D01*
X146989800Y-115425220D02*
X146174460Y-115265200D01*
X146174460Y-115257580D02*
X145303240Y-115686840D01*
X145303240Y-115686840D02*
X144884140Y-116418360D01*
X144879060Y-116423440D02*
X145011140Y-117246400D01*
X145016220Y-117276880D02*
X145110200Y-117447060D01*
X145016220Y-117276880D02*
X145110200Y-117447060D01*
X145239740Y-117497860D02*
X145498820Y-117835680D01*
X145608040Y-117612160D02*
X145834100Y-117787420D01*
X147109180Y-117614700D02*
X146855180Y-117779800D01*
X146972020Y-118069360D02*
X146850100Y-117784880D01*
X144792700Y-114564160D02*
X145775680Y-114071400D01*
X145122900Y-117477540D02*
X145430240Y-117744240D01*
D22*
X144106900Y-118907560D02*
X144960340Y-117886480D01*
X143070580Y-116702840D02*
X144487900Y-116641880D01*
X144056100Y-114416840D02*
X145117820Y-115524280D01*
X146316700Y-113441480D02*
X146321780Y-114955320D01*
X148582380Y-114498120D02*
X147469860Y-115564920D01*
X149572980Y-116682520D02*
X148104860Y-116768880D01*
X144782540Y-118734840D02*
X145148300Y-117972840D01*
X144117060Y-117835680D02*
X144680940Y-117355620D01*
X143868140Y-117190520D02*
X144574260Y-117063520D01*
X144193260Y-115945920D02*
X144635220Y-116105940D01*
X144368520Y-115465860D02*
X144825720Y-115755420D01*
X145366740Y-114688620D02*
X145542000Y-115046760D01*
X145801080Y-114429540D02*
X145968720Y-115039140D01*
X147066000Y-114444780D02*
X146845020Y-115130580D01*
X147652740Y-114696240D02*
X147233640Y-115282980D01*
X148521420Y-115564920D02*
X147866100Y-115930680D01*
X148762720Y-116258340D02*
X148041360Y-116405660D01*
X147927060Y-117416580D02*
X148536660Y-117523260D01*
X147607020Y-117835680D02*
X148224240Y-118163340D01*
X147492720Y-117972840D02*
X148673820Y-118986300D01*
X147492720Y-117881400D02*
X147825460Y-118612920D01*
D13*
X162358000Y-88204200D02*
X162358000Y-84204200D01*
X165358000Y-88204200D02*
X165358000Y-84204200D01*
X162361000Y-84204200D02*
X162919800Y-84204200D01*
X164797000Y-84204200D02*
X165355800Y-84204200D01*
X162360200Y-88204200D02*
X162969800Y-88204200D01*
X164797000Y-88204200D02*
X165355800Y-88204200D01*
X164697738Y-86204200D02*
G75*
G03X164697738Y-86204200I-839738J0D01*
G01*
X142963600Y-137268200D02*
X142963600Y-141268200D01*
X139963600Y-137268200D02*
X139963600Y-141268200D01*
X142960600Y-141268200D02*
X142401800Y-141268200D01*
X140524600Y-141268200D02*
X139965800Y-141268200D01*
X142961400Y-137268200D02*
X142351800Y-137268200D01*
X140524600Y-137268200D02*
X139965800Y-137268200D01*
X142303338Y-139268200D02*
G75*
G03X142303338Y-139268200I-839738J0D01*
G01*
X162358000Y-123204200D02*
X162358000Y-119204200D01*
X165358000Y-123204200D02*
X165358000Y-119204200D01*
X162361000Y-119204200D02*
X162919800Y-119204200D01*
X164797000Y-119204200D02*
X165355800Y-119204200D01*
X162360200Y-123204200D02*
X162969800Y-123204200D01*
X164797000Y-123204200D02*
X165355800Y-123204200D01*
X164697738Y-121204200D02*
G75*
G03X164697738Y-121204200I-839738J0D01*
G01*
D11*
X135255000Y-100711000D02*
X135255000Y-100203000D01*
X132715000Y-100711000D02*
X132715000Y-100203000D01*
X139966700Y-133096000D02*
X139966700Y-134099300D01*
X139966700Y-128028700D02*
X139966700Y-129082800D01*
X139959080Y-128023620D02*
X133649720Y-128023620D01*
X133649720Y-128023620D02*
X133649720Y-134104380D01*
X133649720Y-134104380D02*
X139966702Y-134104380D01*
X150876000Y-107188000D02*
X149860000Y-107188000D01*
X150876000Y-105156000D02*
X149860000Y-105156000D01*
X133477000Y-96774000D02*
X134493000Y-96774000D01*
X133477000Y-98298000D02*
X134493000Y-98298000D01*
X134493000Y-104140000D02*
X133477000Y-104140000D01*
X134493000Y-102616000D02*
X133477000Y-102616000D01*
X144018000Y-93472000D02*
X145034000Y-93472000D01*
X144018000Y-94996000D02*
X145034000Y-94996000D01*
X134493000Y-96520000D02*
X133477000Y-96520000D01*
X134493000Y-94996000D02*
X133477000Y-94996000D01*
X140589000Y-108077000D02*
X141605000Y-108077000D01*
X140589000Y-110109000D02*
X141605000Y-110109000D01*
X136779000Y-108077000D02*
X137795000Y-108077000D01*
X136779000Y-110109000D02*
X137795000Y-110109000D01*
D13*
X154330400Y-106324400D02*
X154559000Y-106502200D01*
X154559000Y-106502200D02*
X154533600Y-106400600D01*
X154559000Y-106502200D02*
X154457400Y-106502200D01*
X154508200Y-105156000D02*
X154508200Y-106172000D01*
X153339800Y-105156000D02*
X153339800Y-106172000D01*
X154508200Y-105156000D02*
X153339800Y-105156000D01*
X153339800Y-107950000D02*
X153339800Y-106934000D01*
X154559000Y-106934000D02*
X154559000Y-107950000D01*
D23*
X153924000Y-106293000D02*
X153924000Y-106813000D01*
X154034000Y-106463000D02*
X153814000Y-106463000D01*
X154034000Y-106463000D02*
X153934000Y-106573000D01*
X153814000Y-106463000D02*
X153914000Y-106563000D01*
X154034000Y-106653000D02*
X153814000Y-106653000D01*
D24*
X153678400Y-106730800D02*
X153568400Y-106600800D01*
X153569400Y-106599200D02*
X153579400Y-106679200D01*
X153569400Y-106599200D02*
X153649400Y-106599200D01*
X153569400Y-106383800D02*
X153649400Y-106383800D01*
X153569400Y-106383800D02*
X153579400Y-106463800D01*
X153699400Y-106523800D02*
X153589400Y-106393800D01*
D13*
X154559000Y-106781600D02*
X154457400Y-106781600D01*
X154559000Y-106781600D02*
X154533600Y-106680000D01*
X154330400Y-106603800D02*
X154559000Y-106781600D01*
D11*
X154495500Y-107962700D02*
X154368500Y-108115100D01*
X153403300Y-107962700D02*
X153530300Y-108102400D01*
X154368500Y-108115100D02*
X153543000Y-108115100D01*
X153441400Y-107950000D02*
X154482800Y-107950000D01*
X135810000Y-116133000D02*
X138510000Y-116133000D01*
X135810000Y-112943000D02*
X135810000Y-117943000D01*
X135810000Y-116573000D02*
X138510000Y-116573000D01*
X138510000Y-117943000D02*
X138510000Y-112943000D01*
X150186000Y-102028000D02*
X150186000Y-104728000D01*
X153376000Y-102028000D02*
X148376000Y-102028000D01*
X149746000Y-102028000D02*
X149746000Y-104728000D01*
X148376000Y-104728000D02*
X153376000Y-104728000D01*
X144881600Y-107061000D02*
X145592800Y-107061000D01*
X144881600Y-106222800D02*
X144881600Y-107061000D01*
X147726400Y-106222800D02*
X147726400Y-107061000D01*
X147015200Y-107061000D02*
X147726400Y-107061000D01*
X137487000Y-104672000D02*
X137087000Y-104672000D01*
X137487000Y-107672000D02*
X137087000Y-107672000D01*
D25*
X137387000Y-106422000D02*
G75*
G02X137387000Y-105922000I0J250000D01*
G01*
X137387000Y-106922000D02*
G75*
G02X137387000Y-106422000I0J250000D01*
G01*
X137387000Y-105922000D02*
G75*
G02X137387000Y-105422000I0J250000D01*
G01*
X137437000Y-106922000D02*
X137437000Y-107272000D01*
X137437000Y-105422000D02*
X137437000Y-105072000D01*
D13*
X133502400Y-106324400D02*
X133731000Y-106502200D01*
X133731000Y-106502200D02*
X133705600Y-106400600D01*
X133731000Y-106502200D02*
X133629400Y-106502200D01*
X133680200Y-105156000D02*
X133680200Y-106172000D01*
X132511800Y-105156000D02*
X132511800Y-106172000D01*
X133680200Y-105156000D02*
X132511800Y-105156000D01*
X132511800Y-107950000D02*
X132511800Y-106934000D01*
X133731000Y-106934000D02*
X133731000Y-107950000D01*
D23*
X133096000Y-106293000D02*
X133096000Y-106813000D01*
X133206000Y-106463000D02*
X132986000Y-106463000D01*
X133206000Y-106463000D02*
X133106000Y-106573000D01*
X132986000Y-106463000D02*
X133086000Y-106563000D01*
X133206000Y-106653000D02*
X132986000Y-106653000D01*
D24*
X132850400Y-106730800D02*
X132740400Y-106600800D01*
X132741400Y-106599200D02*
X132751400Y-106679200D01*
X132741400Y-106599200D02*
X132821400Y-106599200D01*
X132741400Y-106383800D02*
X132821400Y-106383800D01*
X132741400Y-106383800D02*
X132751400Y-106463800D01*
X132871400Y-106523800D02*
X132761400Y-106393800D01*
D13*
X133731000Y-106781600D02*
X133629400Y-106781600D01*
X133731000Y-106781600D02*
X133705600Y-106680000D01*
X133502400Y-106603800D02*
X133731000Y-106781600D01*
D11*
X133667500Y-107962700D02*
X133540500Y-108115100D01*
X132575300Y-107962700D02*
X132702300Y-108102400D01*
X133540500Y-108115100D02*
X132715000Y-108115100D01*
X132613400Y-107950000D02*
X133654800Y-107950000D01*
X151282400Y-95377000D02*
X150571200Y-95377000D01*
X151282400Y-96215200D02*
X151282400Y-95377000D01*
X148437600Y-96215200D02*
X148437600Y-95377000D01*
X149148800Y-95377000D02*
X148437600Y-95377000D01*
X148437600Y-100584000D02*
X149148800Y-100584000D01*
X148437600Y-99745800D02*
X148437600Y-100584000D01*
X151282400Y-99745800D02*
X151282400Y-100584000D01*
X150571200Y-100584000D02*
X151282400Y-100584000D01*
X135382000Y-109347000D02*
X135382000Y-110363000D01*
X133858000Y-109347000D02*
X133858000Y-110363000D01*
X133858000Y-109347001D02*
X133858000Y-110363001D01*
X132334000Y-109347001D02*
X132334000Y-110363001D01*
X154686000Y-109347000D02*
X154686000Y-110363000D01*
X153162000Y-109347000D02*
X153162000Y-110363000D01*
X149352000Y-108839000D02*
X149352000Y-109855000D01*
X147828000Y-108839000D02*
X147828000Y-109855000D01*
X146685000Y-110109000D02*
X145669000Y-110109000D01*
X146685000Y-108585000D02*
X145669000Y-108585000D01*
X137541000Y-93472000D02*
X138557000Y-93472000D01*
X137541000Y-94996000D02*
X138557000Y-94996000D01*
X140843000Y-93472000D02*
X141859000Y-93472000D01*
X140843000Y-94996000D02*
X141859000Y-94996000D01*
X148082000Y-99695000D02*
X148082000Y-100711000D01*
X146558000Y-99695000D02*
X146558000Y-100711000D01*
X146558000Y-96647000D02*
X146558000Y-95631000D01*
X148082000Y-96647000D02*
X148082000Y-95631000D01*
X151638000Y-100584000D02*
X151638000Y-99568000D01*
X153162000Y-100584000D02*
X153162000Y-99568000D01*
X143002000Y-105791000D02*
X143002000Y-104775000D01*
X144526000Y-105791000D02*
X144526000Y-104775000D01*
X144526000Y-107950000D02*
X144526000Y-108966000D01*
X143002000Y-107950000D02*
X143002000Y-108966000D01*
X133477000Y-74041000D02*
X133477000Y-75057000D01*
X131953000Y-74041000D02*
X131953000Y-75057000D01*
X154686000Y-99568000D02*
X154686000Y-100584000D01*
X153162000Y-99568000D02*
X153162000Y-100584000D01*
X152146000Y-108788200D02*
X152146000Y-109918500D01*
X149339300Y-108788200D02*
X149339300Y-109918500D01*
D13*
X144081500Y-96139000D02*
X138620500Y-96139000D01*
D21*
X144081500Y-103378000D02*
X144081500Y-95758000D01*
X138620500Y-95758000D02*
X138620500Y-103378000D01*
X144081500Y-103378000D02*
X138620500Y-103378000D01*
X138620500Y-95758000D02*
X144081500Y-95758000D01*
X138217710Y-95631000D02*
G75*
G03X138217710Y-95631000I-359210J0D01*
G01*
D11*
X139700000Y-106603800D02*
X139700000Y-105473500D01*
X142506700Y-106603800D02*
X142506700Y-105473500D01*
X152831800Y-96672400D02*
X153238200Y-96672400D01*
X154457400Y-95351600D02*
X154457400Y-96139000D01*
X153797000Y-95351600D02*
X154457400Y-95351600D01*
X151612600Y-95351600D02*
X152273000Y-95351600D01*
X151612600Y-96139000D02*
X151612600Y-95351600D01*
X134510000Y-65101000D02*
X152510000Y-65101000D01*
X134510000Y-71101000D02*
X152510000Y-71101000D01*
X133919411Y-71321000D02*
G75*
G03X133919411Y-71321000I-339411J0D01*
G01*
X152510000Y-65101000D02*
X152510000Y-71721000D01*
X134510000Y-90601000D02*
X134510000Y-90011000D01*
X134510000Y-90601000D02*
X136880000Y-90601000D01*
X152510000Y-90601000D02*
X150020000Y-90601000D01*
X152510000Y-90601000D02*
X152510000Y-90061000D01*
X134510000Y-65101000D02*
X134510000Y-71721000D01*
X153098000Y-143217600D02*
X145698000Y-143217600D01*
X145698000Y-138717600D02*
X145698000Y-139917600D01*
X147598000Y-137217600D02*
X146598000Y-137217600D01*
X152198000Y-137217600D02*
X151198000Y-137217600D01*
X153098000Y-142217600D02*
X153098000Y-143217600D01*
X153462000Y-144317600D02*
X145334000Y-144317600D01*
X145698000Y-143217600D02*
X145698000Y-142217600D01*
X153098000Y-138717600D02*
X153098000Y-139917600D01*
X153462000Y-144246600D02*
X153081000Y-143230600D01*
X145334000Y-144246600D02*
X145715000Y-143230600D01*
X142849600Y-130708400D02*
X142849600Y-131724400D01*
X141325600Y-130708400D02*
X141325600Y-131724400D01*
X146710400Y-126009400D02*
X146710400Y-127025400D01*
X148234400Y-126009400D02*
X148234400Y-127025400D01*
X160629600Y-104394000D02*
X160629600Y-105410000D01*
X162153600Y-104394000D02*
X162153600Y-105410000D01*
X160629600Y-102412800D02*
X160629600Y-101396800D01*
X162153600Y-102412800D02*
X162153600Y-101396800D01*
D13*
X165255000Y-126788400D02*
X164239000Y-126788400D01*
X164239000Y-125569200D02*
X165255000Y-125569200D01*
D23*
X163598000Y-126204200D02*
X164118000Y-126204200D01*
X163768000Y-126094200D02*
X163768000Y-126314200D01*
X163768000Y-126094200D02*
X163878000Y-126194200D01*
X163768000Y-126314200D02*
X163868000Y-126214200D01*
X163958000Y-126094200D02*
X163958000Y-126314200D01*
D24*
X164035800Y-126449800D02*
X163905800Y-126559800D01*
X163904200Y-126558800D02*
X163984200Y-126548800D01*
X163904200Y-126558800D02*
X163904200Y-126478800D01*
X163688800Y-126558800D02*
X163688800Y-126478800D01*
X163688800Y-126558800D02*
X163768800Y-126548800D01*
X163828800Y-126428800D02*
X163698800Y-126538800D01*
D11*
X165267700Y-125632700D02*
X165420100Y-125759700D01*
X165267700Y-126724900D02*
X165407400Y-126597900D01*
X165420100Y-125759700D02*
X165420100Y-126585200D01*
X165255000Y-126686800D02*
X165255000Y-125645400D01*
X165255000Y-81686800D02*
X165255000Y-80645400D01*
X165420100Y-80759700D02*
X165420100Y-81585200D01*
X165267700Y-81724900D02*
X165407400Y-81597900D01*
X165267700Y-80632700D02*
X165420100Y-80759700D01*
D24*
X163828800Y-81428800D02*
X163698800Y-81538800D01*
X163688800Y-81558800D02*
X163768800Y-81548800D01*
X163688800Y-81558800D02*
X163688800Y-81478800D01*
X163904200Y-81558800D02*
X163904200Y-81478800D01*
X163904200Y-81558800D02*
X163984200Y-81548800D01*
X164035800Y-81449800D02*
X163905800Y-81559800D01*
D23*
X163958000Y-81094200D02*
X163958000Y-81314200D01*
X163768000Y-81314200D02*
X163868000Y-81214200D01*
X163768000Y-81094200D02*
X163878000Y-81194200D01*
X163768000Y-81094200D02*
X163768000Y-81314200D01*
X163598000Y-81204200D02*
X164118000Y-81204200D01*
D13*
X164239000Y-80569200D02*
X165255000Y-80569200D01*
X165255000Y-81788400D02*
X164239000Y-81788400D01*
D11*
X141097000Y-125984000D02*
X141097000Y-124460000D01*
X138811000Y-125984000D02*
X138811000Y-124460000D01*
X136550400Y-127736600D02*
X137566400Y-127736600D01*
X136550400Y-126212600D02*
X137566400Y-126212600D01*
X158673800Y-101422200D02*
X159689800Y-101422200D01*
X158673800Y-99898200D02*
X159689800Y-99898200D01*
X160604200Y-107975400D02*
X160604200Y-108991400D01*
X162128200Y-107975400D02*
X162128200Y-108991400D01*
X163931600Y-108000800D02*
X163931600Y-109016800D01*
X162407600Y-108000800D02*
X162407600Y-109016800D01*
X164414200Y-102006400D02*
X163398200Y-102006400D01*
X164414200Y-100482400D02*
X163398200Y-100482400D01*
X163398200Y-128574800D02*
X164414200Y-128574800D01*
X163398200Y-127050800D02*
X164414200Y-127050800D01*
X163398200Y-80340200D02*
X164414200Y-80340200D01*
X163398200Y-78816200D02*
X164414200Y-78816200D01*
X164617400Y-115951000D02*
X164617400Y-116967000D01*
X163093400Y-115951000D02*
X163093400Y-116967000D01*
D26*
X141916400Y-127613400D02*
X142516400Y-127613400D01*
X145916400Y-124913400D02*
X145316400Y-124913400D01*
X141916400Y-124913400D02*
X142516400Y-124913400D01*
X143116400Y-127613400D02*
X144716400Y-127613400D01*
X144716400Y-124913400D02*
X143116400Y-124913400D01*
D27*
X146228203Y-127813400D02*
G75*
G03X146228203Y-127813400I-111803J0D01*
G01*
D26*
X145916400Y-127613400D02*
X145316400Y-127613400D01*
X141916400Y-127613400D02*
X141916400Y-127513400D01*
X145916400Y-124913400D02*
X145916400Y-125013400D01*
D13*
X141916400Y-124913400D02*
X141916400Y-125013400D01*
X145916400Y-127613400D02*
X145916400Y-127513400D01*
X165642350Y-101957950D02*
G75*
G03X165642350Y-101957950I-38100J0D01*
G01*
X165683625Y-101957950D02*
G75*
G03X165683625Y-101957950I-79375J0D01*
G01*
X165763000Y-101957950D02*
G75*
G03X165763000Y-101957950I-158750J0D01*
G01*
D11*
X162429250Y-105132950D02*
X162429250Y-102275450D01*
X165286750Y-105132950D02*
X162429250Y-105132950D01*
X165286750Y-102275450D02*
X165286750Y-105132950D01*
X162429250Y-102275450D02*
X165286750Y-102275450D01*
X141383101Y-121487979D02*
X141278340Y-121435598D01*
X141225959Y-121383217D01*
X141173578Y-121278455D01*
X141173578Y-120964169D01*
X141225959Y-120859407D01*
X141278340Y-120807026D01*
X141383101Y-120754645D01*
X141540244Y-120754645D01*
X141645006Y-120807026D01*
X141697387Y-120859407D01*
X141749768Y-120964169D01*
X141749768Y-121278455D01*
X141697387Y-121383217D01*
X141645006Y-121435598D01*
X141540244Y-121487979D01*
X141383101Y-121487979D01*
X142221197Y-120754645D02*
X142221197Y-121854645D01*
X142221197Y-120807026D02*
X142325959Y-120754645D01*
X142535482Y-120754645D01*
X142640244Y-120807026D01*
X142692625Y-120859407D01*
X142745006Y-120964169D01*
X142745006Y-121278455D01*
X142692625Y-121383217D01*
X142640244Y-121435598D01*
X142535482Y-121487979D01*
X142325959Y-121487979D01*
X142221197Y-121435598D01*
X143635482Y-121435598D02*
X143530720Y-121487979D01*
X143321197Y-121487979D01*
X143216435Y-121435598D01*
X143164054Y-121330836D01*
X143164054Y-120911788D01*
X143216435Y-120807026D01*
X143321197Y-120754645D01*
X143530720Y-120754645D01*
X143635482Y-120807026D01*
X143687863Y-120911788D01*
X143687863Y-121016550D01*
X143164054Y-121121312D01*
X144159292Y-120754645D02*
X144159292Y-121487979D01*
X144159292Y-120859407D02*
X144211673Y-120807026D01*
X144316435Y-120754645D01*
X144473578Y-120754645D01*
X144578340Y-120807026D01*
X144630720Y-120911788D01*
X144630720Y-121487979D01*
D28*
X145698602Y-121534180D02*
X145698602Y-120534180D01*
X146127174Y-121534180D02*
X146127174Y-121010371D01*
X146079555Y-120915133D01*
X145984317Y-120867514D01*
X145841460Y-120867514D01*
X145746221Y-120915133D01*
X145698602Y-120962752D01*
X147031936Y-121534180D02*
X147031936Y-121010371D01*
X146984317Y-120915133D01*
X146889079Y-120867514D01*
X146698602Y-120867514D01*
X146603364Y-120915133D01*
X147031936Y-121486561D02*
X146936698Y-121534180D01*
X146698602Y-121534180D01*
X146603364Y-121486561D01*
X146555745Y-121391323D01*
X146555745Y-121296085D01*
X146603364Y-121200847D01*
X146698602Y-121153228D01*
X146936698Y-121153228D01*
X147031936Y-121105609D01*
X147508126Y-121534180D02*
X147508126Y-120867514D01*
X147508126Y-121057990D02*
X147555745Y-120962752D01*
X147603364Y-120915133D01*
X147698602Y-120867514D01*
X147793840Y-120867514D01*
X148555745Y-121534180D02*
X148555745Y-120534180D01*
X148555745Y-121486561D02*
X148460507Y-121534180D01*
X148270031Y-121534180D01*
X148174793Y-121486561D01*
X148127174Y-121438942D01*
X148079555Y-121343704D01*
X148079555Y-121057990D01*
X148127174Y-120962752D01*
X148174793Y-120915133D01*
X148270031Y-120867514D01*
X148460507Y-120867514D01*
X148555745Y-120915133D01*
X148936698Y-120867514D02*
X149127174Y-121534180D01*
X149317650Y-121057990D01*
X149508126Y-121534180D01*
X149698602Y-120867514D01*
X150508126Y-121534180D02*
X150508126Y-121010371D01*
X150460507Y-120915133D01*
X150365269Y-120867514D01*
X150174793Y-120867514D01*
X150079555Y-120915133D01*
X150508126Y-121486561D02*
X150412888Y-121534180D01*
X150174793Y-121534180D01*
X150079555Y-121486561D01*
X150031936Y-121391323D01*
X150031936Y-121296085D01*
X150079555Y-121200847D01*
X150174793Y-121153228D01*
X150412888Y-121153228D01*
X150508126Y-121105609D01*
X150984317Y-121534180D02*
X150984317Y-120867514D01*
X150984317Y-121057990D02*
X151031936Y-120962752D01*
X151079555Y-120915133D01*
X151174793Y-120867514D01*
X151270031Y-120867514D01*
X151984317Y-121486561D02*
X151889079Y-121534180D01*
X151698602Y-121534180D01*
X151603364Y-121486561D01*
X151555745Y-121391323D01*
X151555745Y-121010371D01*
X151603364Y-120915133D01*
X151698602Y-120867514D01*
X151889079Y-120867514D01*
X151984317Y-120915133D01*
X152031936Y-121010371D01*
X152031936Y-121105609D01*
X151555745Y-121200847D01*
D29*
X162161461Y-86857719D02*
X161859080Y-87069385D01*
X162161461Y-87220576D02*
X161526461Y-87220576D01*
X161526461Y-86978671D01*
X161556700Y-86918195D01*
X161586938Y-86887957D01*
X161647414Y-86857719D01*
X161738128Y-86857719D01*
X161798604Y-86887957D01*
X161828842Y-86918195D01*
X161859080Y-86978671D01*
X161859080Y-87220576D01*
X162131223Y-86615814D02*
X162161461Y-86525100D01*
X162161461Y-86373909D01*
X162131223Y-86313433D01*
X162100985Y-86283195D01*
X162040509Y-86252957D01*
X161980033Y-86252957D01*
X161919557Y-86283195D01*
X161889319Y-86313433D01*
X161859080Y-86373909D01*
X161828842Y-86494861D01*
X161798604Y-86555338D01*
X161768366Y-86585576D01*
X161707890Y-86615814D01*
X161647414Y-86615814D01*
X161586938Y-86585576D01*
X161556700Y-86555338D01*
X161526461Y-86494861D01*
X161526461Y-86343671D01*
X161556700Y-86252957D01*
X161526461Y-86071528D02*
X161526461Y-85708671D01*
X162161461Y-85890100D02*
X161526461Y-85890100D01*
X162161461Y-85164385D02*
X162161461Y-85527242D01*
X162161461Y-85345814D02*
X161526461Y-85345814D01*
X161617176Y-85406290D01*
X161677652Y-85466766D01*
X161707890Y-85527242D01*
X143848061Y-139918319D02*
X143545680Y-140129985D01*
X143848061Y-140281176D02*
X143213061Y-140281176D01*
X143213061Y-140039271D01*
X143243300Y-139978795D01*
X143273538Y-139948557D01*
X143334014Y-139918319D01*
X143424728Y-139918319D01*
X143485204Y-139948557D01*
X143515442Y-139978795D01*
X143545680Y-140039271D01*
X143545680Y-140281176D01*
X143817823Y-139676414D02*
X143848061Y-139585700D01*
X143848061Y-139434509D01*
X143817823Y-139374033D01*
X143787585Y-139343795D01*
X143727109Y-139313557D01*
X143666633Y-139313557D01*
X143606157Y-139343795D01*
X143575919Y-139374033D01*
X143545680Y-139434509D01*
X143515442Y-139555461D01*
X143485204Y-139615938D01*
X143454966Y-139646176D01*
X143394490Y-139676414D01*
X143334014Y-139676414D01*
X143273538Y-139646176D01*
X143243300Y-139615938D01*
X143213061Y-139555461D01*
X143213061Y-139404271D01*
X143243300Y-139313557D01*
X143213061Y-139132128D02*
X143213061Y-138769271D01*
X143848061Y-138950700D02*
X143213061Y-138950700D01*
X143213061Y-138618080D02*
X143213061Y-138224985D01*
X143454966Y-138436652D01*
X143454966Y-138345938D01*
X143485204Y-138285461D01*
X143515442Y-138255223D01*
X143575919Y-138224985D01*
X143727109Y-138224985D01*
X143787585Y-138255223D01*
X143817823Y-138285461D01*
X143848061Y-138345938D01*
X143848061Y-138527366D01*
X143817823Y-138587842D01*
X143787585Y-138618080D01*
X162110661Y-121884319D02*
X161808280Y-122095985D01*
X162110661Y-122247176D02*
X161475661Y-122247176D01*
X161475661Y-122005271D01*
X161505900Y-121944795D01*
X161536138Y-121914557D01*
X161596614Y-121884319D01*
X161687328Y-121884319D01*
X161747804Y-121914557D01*
X161778042Y-121944795D01*
X161808280Y-122005271D01*
X161808280Y-122247176D01*
X162080423Y-121642414D02*
X162110661Y-121551700D01*
X162110661Y-121400509D01*
X162080423Y-121340033D01*
X162050185Y-121309795D01*
X161989709Y-121279557D01*
X161929233Y-121279557D01*
X161868757Y-121309795D01*
X161838519Y-121340033D01*
X161808280Y-121400509D01*
X161778042Y-121521461D01*
X161747804Y-121581938D01*
X161717566Y-121612176D01*
X161657090Y-121642414D01*
X161596614Y-121642414D01*
X161536138Y-121612176D01*
X161505900Y-121581938D01*
X161475661Y-121521461D01*
X161475661Y-121370271D01*
X161505900Y-121279557D01*
X161475661Y-121098128D02*
X161475661Y-120735271D01*
X162110661Y-120916700D02*
X161475661Y-120916700D01*
X161536138Y-120553842D02*
X161505900Y-120523604D01*
X161475661Y-120463128D01*
X161475661Y-120311938D01*
X161505900Y-120251461D01*
X161536138Y-120221223D01*
X161596614Y-120190985D01*
X161657090Y-120190985D01*
X161747804Y-120221223D01*
X162110661Y-120584080D01*
X162110661Y-120190985D01*
D30*
X136821333Y-100541666D02*
X136779000Y-100626333D01*
X136694333Y-100711000D01*
X136567333Y-100838000D01*
X136525000Y-100922666D01*
X136525000Y-101007333D01*
X136736666Y-100965000D02*
X136694333Y-101049666D01*
X136609666Y-101134333D01*
X136440333Y-101176666D01*
X136144000Y-101176666D01*
X135974666Y-101134333D01*
X135890000Y-101049666D01*
X135847666Y-100965000D01*
X135847666Y-100795666D01*
X135890000Y-100711000D01*
X135974666Y-100626333D01*
X136144000Y-100584000D01*
X136440333Y-100584000D01*
X136609666Y-100626333D01*
X136694333Y-100711000D01*
X136736666Y-100795666D01*
X136736666Y-100965000D01*
X136736666Y-99737333D02*
X136736666Y-100245333D01*
X136736666Y-99991333D02*
X135847666Y-99991333D01*
X135974666Y-100076000D01*
X136059333Y-100160666D01*
X136101666Y-100245333D01*
D25*
X132022857Y-100183904D02*
X131946666Y-100145809D01*
X131908571Y-100107714D01*
X131870476Y-100031523D01*
X131870476Y-99802952D01*
X131908571Y-99726761D01*
X131946666Y-99688666D01*
X132022857Y-99650571D01*
X132137142Y-99650571D01*
X132213333Y-99688666D01*
X132251428Y-99726761D01*
X132289523Y-99802952D01*
X132289523Y-100031523D01*
X132251428Y-100107714D01*
X132213333Y-100145809D01*
X132137142Y-100183904D01*
X132022857Y-100183904D01*
D29*
X138395528Y-134803242D02*
X138486242Y-134833480D01*
X138516480Y-134863719D01*
X138546719Y-134924195D01*
X138546719Y-135014909D01*
X138516480Y-135075385D01*
X138486242Y-135105623D01*
X138425766Y-135135861D01*
X138183861Y-135135861D01*
X138183861Y-134500861D01*
X138395528Y-134500861D01*
X138456004Y-134531100D01*
X138486242Y-134561338D01*
X138516480Y-134621814D01*
X138516480Y-134682290D01*
X138486242Y-134742766D01*
X138456004Y-134773004D01*
X138395528Y-134803242D01*
X138183861Y-134803242D01*
X138788623Y-134954433D02*
X139091004Y-134954433D01*
X138728147Y-135135861D02*
X138939814Y-134500861D01*
X139151480Y-135135861D01*
X139272433Y-134500861D02*
X139635290Y-134500861D01*
X139453861Y-135135861D02*
X139453861Y-134500861D01*
X140179576Y-135135861D02*
X139816719Y-135135861D01*
X139998147Y-135135861D02*
X139998147Y-134500861D01*
X139937671Y-134591576D01*
X139877195Y-134652052D01*
X139816719Y-134682290D01*
X148499285Y-105706333D02*
X148529523Y-105736571D01*
X148559761Y-105827285D01*
X148559761Y-105887761D01*
X148529523Y-105978476D01*
X148469047Y-106038952D01*
X148408571Y-106069190D01*
X148287619Y-106099428D01*
X148196904Y-106099428D01*
X148075952Y-106069190D01*
X148015476Y-106038952D01*
X147955000Y-105978476D01*
X147924761Y-105887761D01*
X147924761Y-105827285D01*
X147955000Y-105736571D01*
X147985238Y-105706333D01*
X148559761Y-105101571D02*
X148559761Y-105464428D01*
X148559761Y-105283000D02*
X147924761Y-105283000D01*
X148015476Y-105343476D01*
X148075952Y-105403952D01*
X148106190Y-105464428D01*
D12*
X136080500Y-97808142D02*
X136044214Y-97844428D01*
X135935357Y-97880714D01*
X135862785Y-97880714D01*
X135753928Y-97844428D01*
X135681357Y-97771857D01*
X135645071Y-97699285D01*
X135608785Y-97554142D01*
X135608785Y-97445285D01*
X135645071Y-97300142D01*
X135681357Y-97227571D01*
X135753928Y-97155000D01*
X135862785Y-97118714D01*
X135935357Y-97118714D01*
X136044214Y-97155000D01*
X136080500Y-97191285D01*
X136370785Y-97191285D02*
X136407071Y-97155000D01*
X136479642Y-97118714D01*
X136661071Y-97118714D01*
X136733642Y-97155000D01*
X136769928Y-97191285D01*
X136806214Y-97263857D01*
X136806214Y-97336428D01*
X136769928Y-97445285D01*
X136334500Y-97880714D01*
X136806214Y-97880714D01*
X136080500Y-103650142D02*
X136044214Y-103686428D01*
X135935357Y-103722714D01*
X135862785Y-103722714D01*
X135753928Y-103686428D01*
X135681357Y-103613857D01*
X135645071Y-103541285D01*
X135608785Y-103396142D01*
X135608785Y-103287285D01*
X135645071Y-103142142D01*
X135681357Y-103069571D01*
X135753928Y-102997000D01*
X135862785Y-102960714D01*
X135935357Y-102960714D01*
X136044214Y-102997000D01*
X136080500Y-103033285D01*
X136334500Y-102960714D02*
X136806214Y-102960714D01*
X136552214Y-103251000D01*
X136661071Y-103251000D01*
X136733642Y-103287285D01*
X136769928Y-103323571D01*
X136806214Y-103396142D01*
X136806214Y-103577571D01*
X136769928Y-103650142D01*
X136733642Y-103686428D01*
X136661071Y-103722714D01*
X136443357Y-103722714D01*
X136370785Y-103686428D01*
X136334500Y-103650142D01*
D29*
X143277166Y-95502185D02*
X143246928Y-95532423D01*
X143156214Y-95562661D01*
X143095738Y-95562661D01*
X143005023Y-95532423D01*
X142944547Y-95471947D01*
X142914309Y-95411471D01*
X142884071Y-95290519D01*
X142884071Y-95199804D01*
X142914309Y-95078852D01*
X142944547Y-95018376D01*
X143005023Y-94957900D01*
X143095738Y-94927661D01*
X143156214Y-94927661D01*
X143246928Y-94957900D01*
X143277166Y-94988138D01*
X143821452Y-95139328D02*
X143821452Y-95562661D01*
X143670261Y-94897423D02*
X143519071Y-95350995D01*
X143912166Y-95350995D01*
D12*
X133858000Y-94633142D02*
X133821714Y-94669428D01*
X133712857Y-94705714D01*
X133640285Y-94705714D01*
X133531428Y-94669428D01*
X133458857Y-94596857D01*
X133422571Y-94524285D01*
X133386285Y-94379142D01*
X133386285Y-94270285D01*
X133422571Y-94125142D01*
X133458857Y-94052571D01*
X133531428Y-93980000D01*
X133640285Y-93943714D01*
X133712857Y-93943714D01*
X133821714Y-93980000D01*
X133858000Y-94016285D01*
X134547428Y-93943714D02*
X134184571Y-93943714D01*
X134148285Y-94306571D01*
X134184571Y-94270285D01*
X134257142Y-94234000D01*
X134438571Y-94234000D01*
X134511142Y-94270285D01*
X134547428Y-94306571D01*
X134583714Y-94379142D01*
X134583714Y-94560571D01*
X134547428Y-94633142D01*
X134511142Y-94669428D01*
X134438571Y-94705714D01*
X134257142Y-94705714D01*
X134184571Y-94669428D01*
X134148285Y-94633142D01*
D29*
X143038285Y-107547833D02*
X143068523Y-107578071D01*
X143098761Y-107668785D01*
X143098761Y-107729261D01*
X143068523Y-107819976D01*
X143008047Y-107880452D01*
X142947571Y-107910690D01*
X142826619Y-107940928D01*
X142735904Y-107940928D01*
X142614952Y-107910690D01*
X142554476Y-107880452D01*
X142494000Y-107819976D01*
X142463761Y-107729261D01*
X142463761Y-107668785D01*
X142494000Y-107578071D01*
X142524238Y-107547833D01*
X142463761Y-107003547D02*
X142463761Y-107124500D01*
X142494000Y-107184976D01*
X142524238Y-107215214D01*
X142614952Y-107275690D01*
X142735904Y-107305928D01*
X142977809Y-107305928D01*
X143038285Y-107275690D01*
X143068523Y-107245452D01*
X143098761Y-107184976D01*
X143098761Y-107064023D01*
X143068523Y-107003547D01*
X143038285Y-106973309D01*
X142977809Y-106943071D01*
X142826619Y-106943071D01*
X142766142Y-106973309D01*
X142735904Y-107003547D01*
X142705666Y-107064023D01*
X142705666Y-107184976D01*
X142735904Y-107245452D01*
X142766142Y-107275690D01*
X142826619Y-107305928D01*
X138451166Y-110589785D02*
X138420928Y-110620023D01*
X138330214Y-110650261D01*
X138269738Y-110650261D01*
X138179023Y-110620023D01*
X138118547Y-110559547D01*
X138088309Y-110499071D01*
X138058071Y-110378119D01*
X138058071Y-110287404D01*
X138088309Y-110166452D01*
X138118547Y-110105976D01*
X138179023Y-110045500D01*
X138269738Y-110015261D01*
X138330214Y-110015261D01*
X138420928Y-110045500D01*
X138451166Y-110075738D01*
X138662833Y-110015261D02*
X139086166Y-110015261D01*
X138814023Y-110650261D01*
X152944285Y-109334904D02*
X152974523Y-109365142D01*
X153004761Y-109455857D01*
X153004761Y-109516333D01*
X152974523Y-109607047D01*
X152914047Y-109667523D01*
X152853571Y-109697761D01*
X152732619Y-109728000D01*
X152641904Y-109728000D01*
X152520952Y-109697761D01*
X152460476Y-109667523D01*
X152400000Y-109607047D01*
X152369761Y-109516333D01*
X152369761Y-109455857D01*
X152400000Y-109365142D01*
X152430238Y-109334904D01*
X153004761Y-109062761D02*
X152369761Y-109062761D01*
X152672142Y-109062761D02*
X152672142Y-108699904D01*
X153004761Y-108699904D02*
X152369761Y-108699904D01*
X152823333Y-108427761D02*
X152823333Y-108125380D01*
X153004761Y-108488238D02*
X152369761Y-108276571D01*
X153004761Y-108064904D01*
X153004761Y-107490380D02*
X152702380Y-107702047D01*
X153004761Y-107853238D02*
X152369761Y-107853238D01*
X152369761Y-107611333D01*
X152400000Y-107550857D01*
X152430238Y-107520619D01*
X152490714Y-107490380D01*
X152581428Y-107490380D01*
X152641904Y-107520619D01*
X152672142Y-107550857D01*
X152702380Y-107611333D01*
X152702380Y-107853238D01*
X152400000Y-106885619D02*
X152369761Y-106946095D01*
X152369761Y-107036809D01*
X152400000Y-107127523D01*
X152460476Y-107188000D01*
X152520952Y-107218238D01*
X152641904Y-107248476D01*
X152732619Y-107248476D01*
X152853571Y-107218238D01*
X152914047Y-107188000D01*
X152974523Y-107127523D01*
X153004761Y-107036809D01*
X153004761Y-106976333D01*
X152974523Y-106885619D01*
X152944285Y-106855380D01*
X152732619Y-106855380D01*
X152732619Y-106976333D01*
X153004761Y-106583238D02*
X152369761Y-106583238D01*
X153004761Y-106280857D02*
X152369761Y-106280857D01*
X153004761Y-105918000D01*
X152369761Y-105918000D01*
X152400000Y-105283000D02*
X152369761Y-105343476D01*
X152369761Y-105434190D01*
X152400000Y-105524904D01*
X152460476Y-105585380D01*
X152520952Y-105615619D01*
X152641904Y-105645857D01*
X152732619Y-105645857D01*
X152853571Y-105615619D01*
X152914047Y-105585380D01*
X152974523Y-105524904D01*
X153004761Y-105434190D01*
X153004761Y-105373714D01*
X152974523Y-105283000D01*
X152944285Y-105252761D01*
X152732619Y-105252761D01*
X152732619Y-105373714D01*
X153004761Y-104648000D02*
X153004761Y-105010857D01*
X153004761Y-104829428D02*
X152369761Y-104829428D01*
X152460476Y-104889904D01*
X152520952Y-104950380D01*
X152551190Y-105010857D01*
X136691309Y-111729761D02*
X136691309Y-111094761D01*
X136842500Y-111094761D01*
X136933214Y-111125000D01*
X136993690Y-111185476D01*
X137023928Y-111245952D01*
X137054166Y-111366904D01*
X137054166Y-111457619D01*
X137023928Y-111578571D01*
X136993690Y-111639047D01*
X136933214Y-111699523D01*
X136842500Y-111729761D01*
X136691309Y-111729761D01*
X137658928Y-111729761D02*
X137296071Y-111729761D01*
X137477500Y-111729761D02*
X137477500Y-111094761D01*
X137417023Y-111185476D01*
X137356547Y-111245952D01*
X137296071Y-111276190D01*
X150661309Y-101633261D02*
X150661309Y-100998261D01*
X150812500Y-100998261D01*
X150903214Y-101028500D01*
X150963690Y-101088976D01*
X150993928Y-101149452D01*
X151024166Y-101270404D01*
X151024166Y-101361119D01*
X150993928Y-101482071D01*
X150963690Y-101542547D01*
X150903214Y-101603023D01*
X150812500Y-101633261D01*
X150661309Y-101633261D01*
X151266071Y-101058738D02*
X151296309Y-101028500D01*
X151356785Y-100998261D01*
X151507976Y-100998261D01*
X151568452Y-101028500D01*
X151598690Y-101058738D01*
X151628928Y-101119214D01*
X151628928Y-101179690D01*
X151598690Y-101270404D01*
X151235833Y-101633261D01*
X151628928Y-101633261D01*
D12*
X146249571Y-104140000D02*
X146249571Y-104394000D01*
X146648714Y-104394000D02*
X145886714Y-104394000D01*
X145886714Y-104031142D01*
X146249571Y-103740857D02*
X146249571Y-103486857D01*
X146648714Y-103378000D02*
X146648714Y-103740857D01*
X145886714Y-103740857D01*
X145886714Y-103378000D01*
X145886714Y-103160285D02*
X145886714Y-102724857D01*
X146648714Y-102942571D02*
X145886714Y-102942571D01*
X146648714Y-102071714D02*
X146648714Y-102507142D01*
X146648714Y-102289428D02*
X145886714Y-102289428D01*
X145995571Y-102362000D01*
X146068142Y-102434571D01*
X146104428Y-102507142D01*
X138366500Y-104421214D02*
X138003642Y-104421214D01*
X138003642Y-103659214D01*
X139019642Y-104421214D02*
X138584214Y-104421214D01*
X138801928Y-104421214D02*
X138801928Y-103659214D01*
X138729357Y-103768071D01*
X138656785Y-103840642D01*
X138584214Y-103876928D01*
D29*
X134780261Y-108246333D02*
X134145261Y-108246333D01*
X134145261Y-108004428D01*
X134175500Y-107943952D01*
X134205738Y-107913714D01*
X134266214Y-107883476D01*
X134356928Y-107883476D01*
X134417404Y-107913714D01*
X134447642Y-107943952D01*
X134477880Y-108004428D01*
X134477880Y-108246333D01*
X134145261Y-107671809D02*
X134780261Y-107520619D01*
X134326690Y-107399666D01*
X134780261Y-107278714D01*
X134145261Y-107127523D01*
X134780261Y-106522761D02*
X134477880Y-106734428D01*
X134780261Y-106885619D02*
X134145261Y-106885619D01*
X134145261Y-106643714D01*
X134175500Y-106583238D01*
X134205738Y-106553000D01*
X134266214Y-106522761D01*
X134356928Y-106522761D01*
X134417404Y-106553000D01*
X134447642Y-106583238D01*
X134477880Y-106643714D01*
X134477880Y-106885619D01*
X134780261Y-105948238D02*
X134780261Y-106250619D01*
X134145261Y-106250619D01*
X134447642Y-105736571D02*
X134447642Y-105524904D01*
X134780261Y-105434190D02*
X134780261Y-105736571D01*
X134145261Y-105736571D01*
X134145261Y-105434190D01*
X134780261Y-105162047D02*
X134145261Y-105162047D01*
X134145261Y-105010857D01*
X134175500Y-104920142D01*
X134235976Y-104859666D01*
X134296452Y-104829428D01*
X134417404Y-104799190D01*
X134508119Y-104799190D01*
X134629071Y-104829428D01*
X134689547Y-104859666D01*
X134750023Y-104920142D01*
X134780261Y-105010857D01*
X134780261Y-105162047D01*
X134780261Y-104194428D02*
X134780261Y-104557285D01*
X134780261Y-104375857D02*
X134145261Y-104375857D01*
X134235976Y-104436333D01*
X134296452Y-104496809D01*
X134326690Y-104557285D01*
D12*
X149134285Y-94560571D02*
X149098000Y-94633142D01*
X149025428Y-94705714D01*
X148916571Y-94814571D01*
X148880285Y-94887142D01*
X148880285Y-94959714D01*
X149061714Y-94923428D02*
X149025428Y-94996000D01*
X148952857Y-95068571D01*
X148807714Y-95104857D01*
X148553714Y-95104857D01*
X148408571Y-95068571D01*
X148336000Y-94996000D01*
X148299714Y-94923428D01*
X148299714Y-94778285D01*
X148336000Y-94705714D01*
X148408571Y-94633142D01*
X148553714Y-94596857D01*
X148807714Y-94596857D01*
X148952857Y-94633142D01*
X149025428Y-94705714D01*
X149061714Y-94778285D01*
X149061714Y-94923428D01*
X148372285Y-94306571D02*
X148336000Y-94270285D01*
X148299714Y-94197714D01*
X148299714Y-94016285D01*
X148336000Y-93943714D01*
X148372285Y-93907428D01*
X148444857Y-93871142D01*
X148517428Y-93871142D01*
X148626285Y-93907428D01*
X149061714Y-94342857D01*
X149061714Y-93871142D01*
D29*
X149191738Y-101342976D02*
X149161500Y-101403452D01*
X149101023Y-101463928D01*
X149010309Y-101554642D01*
X148980071Y-101615119D01*
X148980071Y-101675595D01*
X149131261Y-101645357D02*
X149101023Y-101705833D01*
X149040547Y-101766309D01*
X148919595Y-101796547D01*
X148707928Y-101796547D01*
X148586976Y-101766309D01*
X148526500Y-101705833D01*
X148496261Y-101645357D01*
X148496261Y-101524404D01*
X148526500Y-101463928D01*
X148586976Y-101403452D01*
X148707928Y-101373214D01*
X148919595Y-101373214D01*
X149040547Y-101403452D01*
X149101023Y-101463928D01*
X149131261Y-101524404D01*
X149131261Y-101645357D01*
X148496261Y-101161547D02*
X148496261Y-100768452D01*
X148738166Y-100980119D01*
X148738166Y-100889404D01*
X148768404Y-100828928D01*
X148798642Y-100798690D01*
X148859119Y-100768452D01*
X149010309Y-100768452D01*
X149070785Y-100798690D01*
X149101023Y-100828928D01*
X149131261Y-100889404D01*
X149131261Y-101070833D01*
X149101023Y-101131309D01*
X149070785Y-101161547D01*
X136304261Y-110659333D02*
X136001880Y-110871000D01*
X136304261Y-111022190D02*
X135669261Y-111022190D01*
X135669261Y-110780285D01*
X135699500Y-110719809D01*
X135729738Y-110689571D01*
X135790214Y-110659333D01*
X135880928Y-110659333D01*
X135941404Y-110689571D01*
X135971642Y-110719809D01*
X136001880Y-110780285D01*
X136001880Y-111022190D01*
X136304261Y-110054571D02*
X136304261Y-110417428D01*
X136304261Y-110236000D02*
X135669261Y-110236000D01*
X135759976Y-110296476D01*
X135820452Y-110356952D01*
X135850690Y-110417428D01*
D13*
X132360609Y-108339466D02*
X132118704Y-108508800D01*
X132360609Y-108629752D02*
X131852609Y-108629752D01*
X131852609Y-108436228D01*
X131876800Y-108387847D01*
X131900990Y-108363657D01*
X131949371Y-108339466D01*
X132021942Y-108339466D01*
X132070323Y-108363657D01*
X132094514Y-108387847D01*
X132118704Y-108436228D01*
X132118704Y-108629752D01*
X131900990Y-108145942D02*
X131876800Y-108121752D01*
X131852609Y-108073371D01*
X131852609Y-107952419D01*
X131876800Y-107904038D01*
X131900990Y-107879847D01*
X131949371Y-107855657D01*
X131997752Y-107855657D01*
X132070323Y-107879847D01*
X132360609Y-108170133D01*
X132360609Y-107855657D01*
X152883809Y-110828666D02*
X152641904Y-110998000D01*
X152883809Y-111118952D02*
X152375809Y-111118952D01*
X152375809Y-110925428D01*
X152400000Y-110877047D01*
X152424190Y-110852857D01*
X152472571Y-110828666D01*
X152545142Y-110828666D01*
X152593523Y-110852857D01*
X152617714Y-110877047D01*
X152641904Y-110925428D01*
X152641904Y-111118952D01*
X152375809Y-110659333D02*
X152375809Y-110344857D01*
X152569333Y-110514190D01*
X152569333Y-110441619D01*
X152593523Y-110393238D01*
X152617714Y-110369047D01*
X152666095Y-110344857D01*
X152787047Y-110344857D01*
X152835428Y-110369047D01*
X152859619Y-110393238D01*
X152883809Y-110441619D01*
X152883809Y-110586761D01*
X152859619Y-110635142D01*
X152835428Y-110659333D01*
D29*
X148484166Y-107792761D02*
X148272500Y-107490380D01*
X148121309Y-107792761D02*
X148121309Y-107157761D01*
X148363214Y-107157761D01*
X148423690Y-107188000D01*
X148453928Y-107218238D01*
X148484166Y-107278714D01*
X148484166Y-107369428D01*
X148453928Y-107429904D01*
X148423690Y-107460142D01*
X148363214Y-107490380D01*
X148121309Y-107490380D01*
X149028452Y-107369428D02*
X149028452Y-107792761D01*
X148877261Y-107127523D02*
X148726071Y-107581095D01*
X149119166Y-107581095D01*
X147861261Y-108182833D02*
X147558880Y-108394500D01*
X147861261Y-108545690D02*
X147226261Y-108545690D01*
X147226261Y-108303785D01*
X147256500Y-108243309D01*
X147286738Y-108213071D01*
X147347214Y-108182833D01*
X147437928Y-108182833D01*
X147498404Y-108213071D01*
X147528642Y-108243309D01*
X147558880Y-108303785D01*
X147558880Y-108545690D01*
X147226261Y-107608309D02*
X147226261Y-107910690D01*
X147528642Y-107940928D01*
X147498404Y-107910690D01*
X147468166Y-107850214D01*
X147468166Y-107699023D01*
X147498404Y-107638547D01*
X147528642Y-107608309D01*
X147589119Y-107578071D01*
X147740309Y-107578071D01*
X147800785Y-107608309D01*
X147831023Y-107638547D01*
X147861261Y-107699023D01*
X147861261Y-107850214D01*
X147831023Y-107910690D01*
X147800785Y-107940928D01*
X135784166Y-94521261D02*
X135572500Y-94218880D01*
X135421309Y-94521261D02*
X135421309Y-93886261D01*
X135663214Y-93886261D01*
X135723690Y-93916500D01*
X135753928Y-93946738D01*
X135784166Y-94007214D01*
X135784166Y-94097928D01*
X135753928Y-94158404D01*
X135723690Y-94188642D01*
X135663214Y-94218880D01*
X135421309Y-94218880D01*
X136328452Y-93886261D02*
X136207500Y-93886261D01*
X136147023Y-93916500D01*
X136116785Y-93946738D01*
X136056309Y-94037452D01*
X136026071Y-94158404D01*
X136026071Y-94400309D01*
X136056309Y-94460785D01*
X136086547Y-94491023D01*
X136147023Y-94521261D01*
X136267976Y-94521261D01*
X136328452Y-94491023D01*
X136358690Y-94460785D01*
X136388928Y-94400309D01*
X136388928Y-94249119D01*
X136358690Y-94188642D01*
X136328452Y-94158404D01*
X136267976Y-94128166D01*
X136147023Y-94128166D01*
X136086547Y-94158404D01*
X136056309Y-94188642D01*
X136026071Y-94249119D01*
X139975166Y-95562661D02*
X139763500Y-95260280D01*
X139612309Y-95562661D02*
X139612309Y-94927661D01*
X139854214Y-94927661D01*
X139914690Y-94957900D01*
X139944928Y-94988138D01*
X139975166Y-95048614D01*
X139975166Y-95139328D01*
X139944928Y-95199804D01*
X139914690Y-95230042D01*
X139854214Y-95260280D01*
X139612309Y-95260280D01*
X140186833Y-94927661D02*
X140610166Y-94927661D01*
X140338023Y-95562661D01*
D12*
X146685000Y-98579214D02*
X146431000Y-98216357D01*
X146249571Y-98579214D02*
X146249571Y-97817214D01*
X146539857Y-97817214D01*
X146612428Y-97853500D01*
X146648714Y-97889785D01*
X146685000Y-97962357D01*
X146685000Y-98071214D01*
X146648714Y-98143785D01*
X146612428Y-98180071D01*
X146539857Y-98216357D01*
X146249571Y-98216357D01*
X147120428Y-98143785D02*
X147047857Y-98107500D01*
X147011571Y-98071214D01*
X146975285Y-97998642D01*
X146975285Y-97962357D01*
X147011571Y-97889785D01*
X147047857Y-97853500D01*
X147120428Y-97817214D01*
X147265571Y-97817214D01*
X147338142Y-97853500D01*
X147374428Y-97889785D01*
X147410714Y-97962357D01*
X147410714Y-97998642D01*
X147374428Y-98071214D01*
X147338142Y-98107500D01*
X147265571Y-98143785D01*
X147120428Y-98143785D01*
X147047857Y-98180071D01*
X147011571Y-98216357D01*
X146975285Y-98288928D01*
X146975285Y-98434071D01*
X147011571Y-98506642D01*
X147047857Y-98542928D01*
X147120428Y-98579214D01*
X147265571Y-98579214D01*
X147338142Y-98542928D01*
X147374428Y-98506642D01*
X147410714Y-98434071D01*
X147410714Y-98288928D01*
X147374428Y-98216357D01*
X147338142Y-98180071D01*
X147265571Y-98143785D01*
D29*
X146337261Y-95736833D02*
X146034880Y-95948500D01*
X146337261Y-96099690D02*
X145702261Y-96099690D01*
X145702261Y-95857785D01*
X145732500Y-95797309D01*
X145762738Y-95767071D01*
X145823214Y-95736833D01*
X145913928Y-95736833D01*
X145974404Y-95767071D01*
X146004642Y-95797309D01*
X146034880Y-95857785D01*
X146034880Y-96099690D01*
X146337261Y-95434452D02*
X146337261Y-95313500D01*
X146307023Y-95253023D01*
X146276785Y-95222785D01*
X146186071Y-95162309D01*
X146065119Y-95132071D01*
X145823214Y-95132071D01*
X145762738Y-95162309D01*
X145732500Y-95192547D01*
X145702261Y-95253023D01*
X145702261Y-95373976D01*
X145732500Y-95434452D01*
X145762738Y-95464690D01*
X145823214Y-95494928D01*
X145974404Y-95494928D01*
X146034880Y-95464690D01*
X146065119Y-95434452D01*
X146095357Y-95373976D01*
X146095357Y-95253023D01*
X146065119Y-95192547D01*
X146034880Y-95162309D01*
X145974404Y-95132071D01*
D13*
X151946428Y-98527809D02*
X151777095Y-98285904D01*
X151656142Y-98527809D02*
X151656142Y-98019809D01*
X151849666Y-98019809D01*
X151898047Y-98044000D01*
X151922238Y-98068190D01*
X151946428Y-98116571D01*
X151946428Y-98189142D01*
X151922238Y-98237523D01*
X151898047Y-98261714D01*
X151849666Y-98285904D01*
X151656142Y-98285904D01*
X152430238Y-98527809D02*
X152139952Y-98527809D01*
X152285095Y-98527809D02*
X152285095Y-98019809D01*
X152236714Y-98092380D01*
X152188333Y-98140761D01*
X152139952Y-98164952D01*
X152744714Y-98019809D02*
X152793095Y-98019809D01*
X152841476Y-98044000D01*
X152865666Y-98068190D01*
X152889857Y-98116571D01*
X152914047Y-98213333D01*
X152914047Y-98334285D01*
X152889857Y-98431047D01*
X152865666Y-98479428D01*
X152841476Y-98503619D01*
X152793095Y-98527809D01*
X152744714Y-98527809D01*
X152696333Y-98503619D01*
X152672142Y-98479428D01*
X152647952Y-98431047D01*
X152623761Y-98334285D01*
X152623761Y-98213333D01*
X152647952Y-98116571D01*
X152672142Y-98068190D01*
X152696333Y-98044000D01*
X152744714Y-98019809D01*
D29*
X145130761Y-104040214D02*
X144828380Y-104251880D01*
X145130761Y-104403071D02*
X144495761Y-104403071D01*
X144495761Y-104161166D01*
X144526000Y-104100690D01*
X144556238Y-104070452D01*
X144616714Y-104040214D01*
X144707428Y-104040214D01*
X144767904Y-104070452D01*
X144798142Y-104100690D01*
X144828380Y-104161166D01*
X144828380Y-104403071D01*
X145130761Y-103435452D02*
X145130761Y-103798309D01*
X145130761Y-103616880D02*
X144495761Y-103616880D01*
X144586476Y-103677357D01*
X144646952Y-103737833D01*
X144677190Y-103798309D01*
X145130761Y-102830690D02*
X145130761Y-103193547D01*
X145130761Y-103012119D02*
X144495761Y-103012119D01*
X144586476Y-103072595D01*
X144646952Y-103133071D01*
X144677190Y-103193547D01*
D13*
X144707428Y-107798809D02*
X144538095Y-107556904D01*
X144417142Y-107798809D02*
X144417142Y-107290809D01*
X144610666Y-107290809D01*
X144659047Y-107315000D01*
X144683238Y-107339190D01*
X144707428Y-107387571D01*
X144707428Y-107460142D01*
X144683238Y-107508523D01*
X144659047Y-107532714D01*
X144610666Y-107556904D01*
X144417142Y-107556904D01*
X145191238Y-107798809D02*
X144900952Y-107798809D01*
X145046095Y-107798809D02*
X145046095Y-107290809D01*
X144997714Y-107363380D01*
X144949333Y-107411761D01*
X144900952Y-107435952D01*
X145384761Y-107339190D02*
X145408952Y-107315000D01*
X145457333Y-107290809D01*
X145578285Y-107290809D01*
X145626666Y-107315000D01*
X145650857Y-107339190D01*
X145675047Y-107387571D01*
X145675047Y-107435952D01*
X145650857Y-107508523D01*
X145360571Y-107798809D01*
X145675047Y-107798809D01*
D12*
X133059714Y-77578857D02*
X132696857Y-77832857D01*
X133059714Y-78014285D02*
X132297714Y-78014285D01*
X132297714Y-77724000D01*
X132334000Y-77651428D01*
X132370285Y-77615142D01*
X132442857Y-77578857D01*
X132551714Y-77578857D01*
X132624285Y-77615142D01*
X132660571Y-77651428D01*
X132696857Y-77724000D01*
X132696857Y-78014285D01*
X133059714Y-76853142D02*
X133059714Y-77288571D01*
X133059714Y-77070857D02*
X132297714Y-77070857D01*
X132406571Y-77143428D01*
X132479142Y-77216000D01*
X132515428Y-77288571D01*
X132297714Y-76599142D02*
X132297714Y-76127428D01*
X132588000Y-76381428D01*
X132588000Y-76272571D01*
X132624285Y-76200000D01*
X132660571Y-76163714D01*
X132733142Y-76127428D01*
X132914571Y-76127428D01*
X132987142Y-76163714D01*
X133023428Y-76200000D01*
X133059714Y-76272571D01*
X133059714Y-76490285D01*
X133023428Y-76562857D01*
X132987142Y-76599142D01*
D13*
X153660928Y-98527809D02*
X153491595Y-98285904D01*
X153370642Y-98527809D02*
X153370642Y-98019809D01*
X153564166Y-98019809D01*
X153612547Y-98044000D01*
X153636738Y-98068190D01*
X153660928Y-98116571D01*
X153660928Y-98189142D01*
X153636738Y-98237523D01*
X153612547Y-98261714D01*
X153564166Y-98285904D01*
X153370642Y-98285904D01*
X154144738Y-98527809D02*
X153854452Y-98527809D01*
X153999595Y-98527809D02*
X153999595Y-98019809D01*
X153951214Y-98092380D01*
X153902833Y-98140761D01*
X153854452Y-98164952D01*
X154580166Y-98189142D02*
X154580166Y-98527809D01*
X154459214Y-97995619D02*
X154338261Y-98358476D01*
X154652738Y-98358476D01*
D29*
X150265190Y-107665761D02*
X150265190Y-108179809D01*
X150295428Y-108240285D01*
X150325666Y-108270523D01*
X150386142Y-108300761D01*
X150507095Y-108300761D01*
X150567571Y-108270523D01*
X150597809Y-108240285D01*
X150628047Y-108179809D01*
X150628047Y-107665761D01*
X151263047Y-108300761D02*
X150900190Y-108300761D01*
X151081619Y-108300761D02*
X151081619Y-107665761D01*
X151021142Y-107756476D01*
X150960666Y-107816952D01*
X150900190Y-107847190D01*
D12*
X135626928Y-95340714D02*
X135626928Y-95957571D01*
X135663214Y-96030142D01*
X135699500Y-96066428D01*
X135772071Y-96102714D01*
X135917214Y-96102714D01*
X135989785Y-96066428D01*
X136026071Y-96030142D01*
X136062357Y-95957571D01*
X136062357Y-95340714D01*
X136388928Y-95413285D02*
X136425214Y-95377000D01*
X136497785Y-95340714D01*
X136679214Y-95340714D01*
X136751785Y-95377000D01*
X136788071Y-95413285D01*
X136824357Y-95485857D01*
X136824357Y-95558428D01*
X136788071Y-95667285D01*
X136352642Y-96102714D01*
X136824357Y-96102714D01*
D29*
X140613190Y-107030761D02*
X140613190Y-107544809D01*
X140643428Y-107605285D01*
X140673666Y-107635523D01*
X140734142Y-107665761D01*
X140855095Y-107665761D01*
X140915571Y-107635523D01*
X140945809Y-107605285D01*
X140976047Y-107544809D01*
X140976047Y-107030761D01*
X141217952Y-107030761D02*
X141611047Y-107030761D01*
X141399380Y-107272666D01*
X141490095Y-107272666D01*
X141550571Y-107302904D01*
X141580809Y-107333142D01*
X141611047Y-107393619D01*
X141611047Y-107544809D01*
X141580809Y-107605285D01*
X141550571Y-107635523D01*
X141490095Y-107665761D01*
X141308666Y-107665761D01*
X141248190Y-107635523D01*
X141217952Y-107605285D01*
D12*
X151601714Y-95068571D02*
X152218571Y-95068571D01*
X152291142Y-95032285D01*
X152327428Y-94996000D01*
X152363714Y-94923428D01*
X152363714Y-94778285D01*
X152327428Y-94705714D01*
X152291142Y-94669428D01*
X152218571Y-94633142D01*
X151601714Y-94633142D01*
X151855714Y-93943714D02*
X152363714Y-93943714D01*
X151565428Y-94125142D02*
X152109714Y-94306571D01*
X152109714Y-93834857D01*
D29*
X132358190Y-89568261D02*
X132358190Y-90082309D01*
X132388428Y-90142785D01*
X132418666Y-90173023D01*
X132479142Y-90203261D01*
X132600095Y-90203261D01*
X132660571Y-90173023D01*
X132690809Y-90142785D01*
X132721047Y-90082309D01*
X132721047Y-89568261D01*
X133325809Y-89568261D02*
X133023428Y-89568261D01*
X132993190Y-89870642D01*
X133023428Y-89840404D01*
X133083904Y-89810166D01*
X133235095Y-89810166D01*
X133295571Y-89840404D01*
X133325809Y-89870642D01*
X133356047Y-89931119D01*
X133356047Y-90082309D01*
X133325809Y-90142785D01*
X133295571Y-90173023D01*
X133235095Y-90203261D01*
X133083904Y-90203261D01*
X133023428Y-90173023D01*
X132993190Y-90142785D01*
D30*
X145672666Y-135504766D02*
X145672666Y-136224433D01*
X145715000Y-136309100D01*
X145757333Y-136351433D01*
X145842000Y-136393766D01*
X146011333Y-136393766D01*
X146096000Y-136351433D01*
X146138333Y-136309100D01*
X146180666Y-136224433D01*
X146180666Y-135504766D01*
X146561666Y-136351433D02*
X146688666Y-136393766D01*
X146900333Y-136393766D01*
X146985000Y-136351433D01*
X147027333Y-136309100D01*
X147069666Y-136224433D01*
X147069666Y-136139766D01*
X147027333Y-136055100D01*
X146985000Y-136012766D01*
X146900333Y-135970433D01*
X146731000Y-135928100D01*
X146646333Y-135885766D01*
X146604000Y-135843433D01*
X146561666Y-135758766D01*
X146561666Y-135674100D01*
X146604000Y-135589433D01*
X146646333Y-135547100D01*
X146731000Y-135504766D01*
X146942666Y-135504766D01*
X147069666Y-135547100D01*
X147747000Y-135928100D02*
X147874000Y-135970433D01*
X147916333Y-136012766D01*
X147958666Y-136097433D01*
X147958666Y-136224433D01*
X147916333Y-136309100D01*
X147874000Y-136351433D01*
X147789333Y-136393766D01*
X147450666Y-136393766D01*
X147450666Y-135504766D01*
X147747000Y-135504766D01*
X147831666Y-135547100D01*
X147874000Y-135589433D01*
X147916333Y-135674100D01*
X147916333Y-135758766D01*
X147874000Y-135843433D01*
X147831666Y-135885766D01*
X147747000Y-135928100D01*
X147450666Y-135928100D01*
X148339666Y-136055100D02*
X149017000Y-136055100D01*
X149440333Y-135504766D02*
X149440333Y-136224433D01*
X149482666Y-136309100D01*
X149525000Y-136351433D01*
X149609666Y-136393766D01*
X149779000Y-136393766D01*
X149863666Y-136351433D01*
X149906000Y-136309100D01*
X149948333Y-136224433D01*
X149948333Y-135504766D01*
X150329333Y-136139766D02*
X150752666Y-136139766D01*
X150244666Y-136393766D02*
X150541000Y-135504766D01*
X150837333Y-136393766D01*
X151641666Y-136393766D02*
X151345333Y-135970433D01*
X151133666Y-136393766D02*
X151133666Y-135504766D01*
X151472333Y-135504766D01*
X151557000Y-135547100D01*
X151599333Y-135589433D01*
X151641666Y-135674100D01*
X151641666Y-135801100D01*
X151599333Y-135885766D01*
X151557000Y-135928100D01*
X151472333Y-135970433D01*
X151133666Y-135970433D01*
X151895666Y-135504766D02*
X152403666Y-135504766D01*
X152149666Y-136393766D02*
X152149666Y-135504766D01*
X153165666Y-136393766D02*
X152657666Y-136393766D01*
X152911666Y-136393766D02*
X152911666Y-135504766D01*
X152827000Y-135631766D01*
X152742333Y-135716433D01*
X152657666Y-135758766D01*
D29*
X143711385Y-132490633D02*
X143741623Y-132520871D01*
X143771861Y-132611585D01*
X143771861Y-132672061D01*
X143741623Y-132762776D01*
X143681147Y-132823252D01*
X143620671Y-132853490D01*
X143499719Y-132883728D01*
X143409004Y-132883728D01*
X143288052Y-132853490D01*
X143227576Y-132823252D01*
X143167100Y-132762776D01*
X143136861Y-132672061D01*
X143136861Y-132611585D01*
X143167100Y-132520871D01*
X143197338Y-132490633D01*
X143409004Y-132127776D02*
X143378766Y-132188252D01*
X143348528Y-132218490D01*
X143288052Y-132248728D01*
X143257814Y-132248728D01*
X143197338Y-132218490D01*
X143167100Y-132188252D01*
X143136861Y-132127776D01*
X143136861Y-132006823D01*
X143167100Y-131946347D01*
X143197338Y-131916109D01*
X143257814Y-131885871D01*
X143288052Y-131885871D01*
X143348528Y-131916109D01*
X143378766Y-131946347D01*
X143409004Y-132006823D01*
X143409004Y-132127776D01*
X143439242Y-132188252D01*
X143469480Y-132218490D01*
X143529957Y-132248728D01*
X143650909Y-132248728D01*
X143711385Y-132218490D01*
X143741623Y-132188252D01*
X143771861Y-132127776D01*
X143771861Y-132006823D01*
X143741623Y-131946347D01*
X143711385Y-131916109D01*
X143650909Y-131885871D01*
X143529957Y-131885871D01*
X143469480Y-131916109D01*
X143439242Y-131946347D01*
X143409004Y-132006823D01*
X148915966Y-126718785D02*
X148885728Y-126749023D01*
X148795014Y-126779261D01*
X148734538Y-126779261D01*
X148643823Y-126749023D01*
X148583347Y-126688547D01*
X148553109Y-126628071D01*
X148522871Y-126507119D01*
X148522871Y-126416404D01*
X148553109Y-126295452D01*
X148583347Y-126234976D01*
X148643823Y-126174500D01*
X148734538Y-126144261D01*
X148795014Y-126144261D01*
X148885728Y-126174500D01*
X148915966Y-126204738D01*
X149218347Y-126779261D02*
X149339300Y-126779261D01*
X149399776Y-126749023D01*
X149430014Y-126718785D01*
X149490490Y-126628071D01*
X149520728Y-126507119D01*
X149520728Y-126265214D01*
X149490490Y-126204738D01*
X149460252Y-126174500D01*
X149399776Y-126144261D01*
X149278823Y-126144261D01*
X149218347Y-126174500D01*
X149188109Y-126204738D01*
X149157871Y-126265214D01*
X149157871Y-126416404D01*
X149188109Y-126476880D01*
X149218347Y-126507119D01*
X149278823Y-126537357D01*
X149399776Y-126537357D01*
X149460252Y-126507119D01*
X149490490Y-126476880D01*
X149520728Y-126416404D01*
X159256185Y-105179585D02*
X159225947Y-105209823D01*
X159135233Y-105240061D01*
X159074757Y-105240061D01*
X158984042Y-105209823D01*
X158923566Y-105149347D01*
X158893328Y-105088871D01*
X158863090Y-104967919D01*
X158863090Y-104877204D01*
X158893328Y-104756252D01*
X158923566Y-104695776D01*
X158984042Y-104635300D01*
X159074757Y-104605061D01*
X159135233Y-104605061D01*
X159225947Y-104635300D01*
X159256185Y-104665538D01*
X159860947Y-105240061D02*
X159498090Y-105240061D01*
X159679519Y-105240061D02*
X159679519Y-104605061D01*
X159619042Y-104695776D01*
X159558566Y-104756252D01*
X159498090Y-104786490D01*
X160254042Y-104605061D02*
X160314519Y-104605061D01*
X160374995Y-104635300D01*
X160405233Y-104665538D01*
X160435471Y-104726014D01*
X160465709Y-104846966D01*
X160465709Y-104998157D01*
X160435471Y-105119109D01*
X160405233Y-105179585D01*
X160374995Y-105209823D01*
X160314519Y-105240061D01*
X160254042Y-105240061D01*
X160193566Y-105209823D01*
X160163328Y-105179585D01*
X160133090Y-105119109D01*
X160102852Y-104998157D01*
X160102852Y-104846966D01*
X160133090Y-104726014D01*
X160163328Y-104665538D01*
X160193566Y-104635300D01*
X160254042Y-104605061D01*
X159332385Y-102207785D02*
X159302147Y-102238023D01*
X159211433Y-102268261D01*
X159150957Y-102268261D01*
X159060242Y-102238023D01*
X158999766Y-102177547D01*
X158969528Y-102117071D01*
X158939290Y-101996119D01*
X158939290Y-101905404D01*
X158969528Y-101784452D01*
X158999766Y-101723976D01*
X159060242Y-101663500D01*
X159150957Y-101633261D01*
X159211433Y-101633261D01*
X159302147Y-101663500D01*
X159332385Y-101693738D01*
X159937147Y-102268261D02*
X159574290Y-102268261D01*
X159755719Y-102268261D02*
X159755719Y-101633261D01*
X159695242Y-101723976D01*
X159634766Y-101784452D01*
X159574290Y-101814690D01*
X160541909Y-102268261D02*
X160179052Y-102268261D01*
X160360480Y-102268261D02*
X160360480Y-101633261D01*
X160300004Y-101723976D01*
X160239528Y-101784452D01*
X160179052Y-101814690D01*
X161278509Y-126499861D02*
X161278509Y-125864861D01*
X161429700Y-125864861D01*
X161520414Y-125895100D01*
X161580890Y-125955576D01*
X161611128Y-126016052D01*
X161641366Y-126137004D01*
X161641366Y-126227719D01*
X161611128Y-126348671D01*
X161580890Y-126409147D01*
X161520414Y-126469623D01*
X161429700Y-126499861D01*
X161278509Y-126499861D01*
X162185652Y-126076528D02*
X162185652Y-126499861D01*
X162034461Y-125834623D02*
X161883271Y-126288195D01*
X162276366Y-126288195D01*
X161303909Y-81516461D02*
X161303909Y-80881461D01*
X161455100Y-80881461D01*
X161545814Y-80911700D01*
X161606290Y-80972176D01*
X161636528Y-81032652D01*
X161666766Y-81153604D01*
X161666766Y-81244319D01*
X161636528Y-81365271D01*
X161606290Y-81425747D01*
X161545814Y-81486223D01*
X161455100Y-81516461D01*
X161303909Y-81516461D01*
X162211052Y-80881461D02*
X162090100Y-80881461D01*
X162029623Y-80911700D01*
X161999385Y-80941938D01*
X161938909Y-81032652D01*
X161908671Y-81153604D01*
X161908671Y-81395509D01*
X161938909Y-81455985D01*
X161969147Y-81486223D01*
X162029623Y-81516461D01*
X162150576Y-81516461D01*
X162211052Y-81486223D01*
X162241290Y-81455985D01*
X162271528Y-81395509D01*
X162271528Y-81244319D01*
X162241290Y-81183842D01*
X162211052Y-81153604D01*
X162150576Y-81123366D01*
X162029623Y-81123366D01*
X161969147Y-81153604D01*
X161938909Y-81183842D01*
X161908671Y-81244319D01*
X138514061Y-124842814D02*
X138211680Y-125054480D01*
X138514061Y-125205671D02*
X137879061Y-125205671D01*
X137879061Y-124963766D01*
X137909300Y-124903290D01*
X137939538Y-124873052D01*
X138000014Y-124842814D01*
X138090728Y-124842814D01*
X138151204Y-124873052D01*
X138181442Y-124903290D01*
X138211680Y-124963766D01*
X138211680Y-125205671D01*
X138514061Y-124238052D02*
X138514061Y-124600909D01*
X138514061Y-124419480D02*
X137879061Y-124419480D01*
X137969776Y-124479957D01*
X138030252Y-124540433D01*
X138060490Y-124600909D01*
X137879061Y-123663528D02*
X137879061Y-123965909D01*
X138181442Y-123996147D01*
X138151204Y-123965909D01*
X138120966Y-123905433D01*
X138120966Y-123754242D01*
X138151204Y-123693766D01*
X138181442Y-123663528D01*
X138241919Y-123633290D01*
X138393109Y-123633290D01*
X138453585Y-123663528D01*
X138483823Y-123693766D01*
X138514061Y-123754242D01*
X138514061Y-123905433D01*
X138483823Y-123965909D01*
X138453585Y-123996147D01*
X133881585Y-127287261D02*
X133669919Y-126984880D01*
X133518728Y-127287261D02*
X133518728Y-126652261D01*
X133760633Y-126652261D01*
X133821109Y-126682500D01*
X133851347Y-126712738D01*
X133881585Y-126773214D01*
X133881585Y-126863928D01*
X133851347Y-126924404D01*
X133821109Y-126954642D01*
X133760633Y-126984880D01*
X133518728Y-126984880D01*
X134486347Y-127287261D02*
X134123490Y-127287261D01*
X134304919Y-127287261D02*
X134304919Y-126652261D01*
X134244442Y-126742976D01*
X134183966Y-126803452D01*
X134123490Y-126833690D01*
X135030633Y-126652261D02*
X134909680Y-126652261D01*
X134849204Y-126682500D01*
X134818966Y-126712738D01*
X134758490Y-126803452D01*
X134728252Y-126924404D01*
X134728252Y-127166309D01*
X134758490Y-127226785D01*
X134788728Y-127257023D01*
X134849204Y-127287261D01*
X134970157Y-127287261D01*
X135030633Y-127257023D01*
X135060871Y-127226785D01*
X135091109Y-127166309D01*
X135091109Y-127015119D01*
X135060871Y-126954642D01*
X135030633Y-126924404D01*
X134970157Y-126894166D01*
X134849204Y-126894166D01*
X134788728Y-126924404D01*
X134758490Y-126954642D01*
X134728252Y-127015119D01*
X158773585Y-99626661D02*
X158561919Y-99324280D01*
X158410728Y-99626661D02*
X158410728Y-98991661D01*
X158652633Y-98991661D01*
X158713109Y-99021900D01*
X158743347Y-99052138D01*
X158773585Y-99112614D01*
X158773585Y-99203328D01*
X158743347Y-99263804D01*
X158713109Y-99294042D01*
X158652633Y-99324280D01*
X158410728Y-99324280D01*
X159378347Y-99626661D02*
X159015490Y-99626661D01*
X159196919Y-99626661D02*
X159196919Y-98991661D01*
X159136442Y-99082376D01*
X159075966Y-99142852D01*
X159015490Y-99173090D01*
X159590014Y-98991661D02*
X160013347Y-98991661D01*
X159741204Y-99626661D01*
X161653461Y-111634814D02*
X161351080Y-111846480D01*
X161653461Y-111997671D02*
X161018461Y-111997671D01*
X161018461Y-111755766D01*
X161048700Y-111695290D01*
X161078938Y-111665052D01*
X161139414Y-111634814D01*
X161230128Y-111634814D01*
X161290604Y-111665052D01*
X161320842Y-111695290D01*
X161351080Y-111755766D01*
X161351080Y-111997671D01*
X161653461Y-111030052D02*
X161653461Y-111392909D01*
X161653461Y-111211480D02*
X161018461Y-111211480D01*
X161109176Y-111271957D01*
X161169652Y-111332433D01*
X161199890Y-111392909D01*
X161653461Y-110727671D02*
X161653461Y-110606719D01*
X161623223Y-110546242D01*
X161592985Y-110516004D01*
X161502271Y-110455528D01*
X161381319Y-110425290D01*
X161139414Y-110425290D01*
X161078938Y-110455528D01*
X161048700Y-110485766D01*
X161018461Y-110546242D01*
X161018461Y-110667195D01*
X161048700Y-110727671D01*
X161078938Y-110757909D01*
X161139414Y-110788147D01*
X161290604Y-110788147D01*
X161351080Y-110757909D01*
X161381319Y-110727671D01*
X161411557Y-110667195D01*
X161411557Y-110546242D01*
X161381319Y-110485766D01*
X161351080Y-110455528D01*
X161290604Y-110425290D01*
X163431461Y-111660214D02*
X163129080Y-111871880D01*
X163431461Y-112023071D02*
X162796461Y-112023071D01*
X162796461Y-111781166D01*
X162826700Y-111720690D01*
X162856938Y-111690452D01*
X162917414Y-111660214D01*
X163008128Y-111660214D01*
X163068604Y-111690452D01*
X163098842Y-111720690D01*
X163129080Y-111781166D01*
X163129080Y-112023071D01*
X162856938Y-111418309D02*
X162826700Y-111388071D01*
X162796461Y-111327595D01*
X162796461Y-111176404D01*
X162826700Y-111115928D01*
X162856938Y-111085690D01*
X162917414Y-111055452D01*
X162977890Y-111055452D01*
X163068604Y-111085690D01*
X163431461Y-111448547D01*
X163431461Y-111055452D01*
X162796461Y-110662357D02*
X162796461Y-110601880D01*
X162826700Y-110541404D01*
X162856938Y-110511166D01*
X162917414Y-110480928D01*
X163038366Y-110450690D01*
X163189557Y-110450690D01*
X163310509Y-110480928D01*
X163370985Y-110511166D01*
X163401223Y-110541404D01*
X163431461Y-110601880D01*
X163431461Y-110662357D01*
X163401223Y-110722833D01*
X163370985Y-110753071D01*
X163310509Y-110783309D01*
X163189557Y-110813547D01*
X163038366Y-110813547D01*
X162917414Y-110783309D01*
X162856938Y-110753071D01*
X162826700Y-110722833D01*
X162796461Y-110662357D01*
X163523385Y-100160061D02*
X163311719Y-99857680D01*
X163160528Y-100160061D02*
X163160528Y-99525061D01*
X163402433Y-99525061D01*
X163462909Y-99555300D01*
X163493147Y-99585538D01*
X163523385Y-99646014D01*
X163523385Y-99736728D01*
X163493147Y-99797204D01*
X163462909Y-99827442D01*
X163402433Y-99857680D01*
X163160528Y-99857680D01*
X163765290Y-99585538D02*
X163795528Y-99555300D01*
X163856004Y-99525061D01*
X164007195Y-99525061D01*
X164067671Y-99555300D01*
X164097909Y-99585538D01*
X164128147Y-99646014D01*
X164128147Y-99706490D01*
X164097909Y-99797204D01*
X163735052Y-100160061D01*
X164128147Y-100160061D01*
X164732909Y-100160061D02*
X164370052Y-100160061D01*
X164551480Y-100160061D02*
X164551480Y-99525061D01*
X164491004Y-99615776D01*
X164430528Y-99676252D01*
X164370052Y-99706490D01*
X160754785Y-128150861D02*
X160543119Y-127848480D01*
X160391928Y-128150861D02*
X160391928Y-127515861D01*
X160633833Y-127515861D01*
X160694309Y-127546100D01*
X160724547Y-127576338D01*
X160754785Y-127636814D01*
X160754785Y-127727528D01*
X160724547Y-127788004D01*
X160694309Y-127818242D01*
X160633833Y-127848480D01*
X160391928Y-127848480D01*
X160996690Y-127576338D02*
X161026928Y-127546100D01*
X161087404Y-127515861D01*
X161238595Y-127515861D01*
X161299071Y-127546100D01*
X161329309Y-127576338D01*
X161359547Y-127636814D01*
X161359547Y-127697290D01*
X161329309Y-127788004D01*
X160966452Y-128150861D01*
X161359547Y-128150861D01*
X161601452Y-127576338D02*
X161631690Y-127546100D01*
X161692166Y-127515861D01*
X161843357Y-127515861D01*
X161903833Y-127546100D01*
X161934071Y-127576338D01*
X161964309Y-127636814D01*
X161964309Y-127697290D01*
X161934071Y-127788004D01*
X161571214Y-128150861D01*
X161964309Y-128150861D01*
X160805585Y-79865461D02*
X160593919Y-79563080D01*
X160442728Y-79865461D02*
X160442728Y-79230461D01*
X160684633Y-79230461D01*
X160745109Y-79260700D01*
X160775347Y-79290938D01*
X160805585Y-79351414D01*
X160805585Y-79442128D01*
X160775347Y-79502604D01*
X160745109Y-79532842D01*
X160684633Y-79563080D01*
X160442728Y-79563080D01*
X161047490Y-79290938D02*
X161077728Y-79260700D01*
X161138204Y-79230461D01*
X161289395Y-79230461D01*
X161349871Y-79260700D01*
X161380109Y-79290938D01*
X161410347Y-79351414D01*
X161410347Y-79411890D01*
X161380109Y-79502604D01*
X161017252Y-79865461D01*
X161410347Y-79865461D01*
X161954633Y-79442128D02*
X161954633Y-79865461D01*
X161803442Y-79200223D02*
X161652252Y-79653795D01*
X162045347Y-79653795D01*
X162771061Y-116918014D02*
X162468680Y-117129680D01*
X162771061Y-117280871D02*
X162136061Y-117280871D01*
X162136061Y-117038966D01*
X162166300Y-116978490D01*
X162196538Y-116948252D01*
X162257014Y-116918014D01*
X162347728Y-116918014D01*
X162408204Y-116948252D01*
X162438442Y-116978490D01*
X162468680Y-117038966D01*
X162468680Y-117280871D01*
X162196538Y-116676109D02*
X162166300Y-116645871D01*
X162136061Y-116585395D01*
X162136061Y-116434204D01*
X162166300Y-116373728D01*
X162196538Y-116343490D01*
X162257014Y-116313252D01*
X162317490Y-116313252D01*
X162408204Y-116343490D01*
X162771061Y-116706347D01*
X162771061Y-116313252D01*
X162136061Y-115768966D02*
X162136061Y-115889919D01*
X162166300Y-115950395D01*
X162196538Y-115980633D01*
X162287252Y-116041109D01*
X162408204Y-116071347D01*
X162650109Y-116071347D01*
X162710585Y-116041109D01*
X162740823Y-116010871D01*
X162771061Y-115950395D01*
X162771061Y-115829442D01*
X162740823Y-115768966D01*
X162710585Y-115738728D01*
X162650109Y-115708490D01*
X162498919Y-115708490D01*
X162438442Y-115738728D01*
X162408204Y-115768966D01*
X162377966Y-115829442D01*
X162377966Y-115950395D01*
X162408204Y-116010871D01*
X162438442Y-116041109D01*
X162498919Y-116071347D01*
D31*
X142022104Y-124413917D02*
X142022104Y-123979577D01*
X142022104Y-124145040D02*
X142063470Y-124124357D01*
X142146201Y-124124357D01*
X142187567Y-124145040D01*
X142208250Y-124165722D01*
X142228932Y-124207088D01*
X142228932Y-124331185D01*
X142208250Y-124372551D01*
X142187567Y-124393234D01*
X142146201Y-124413917D01*
X142063470Y-124413917D01*
X142022104Y-124393234D01*
X142601224Y-124124357D02*
X142601224Y-124558697D01*
X142601224Y-124393234D02*
X142559858Y-124413917D01*
X142477127Y-124413917D01*
X142435761Y-124393234D01*
X142415078Y-124372551D01*
X142394395Y-124331185D01*
X142394395Y-124207088D01*
X142415078Y-124165722D01*
X142435761Y-124145040D01*
X142477127Y-124124357D01*
X142559858Y-124124357D01*
X142601224Y-124145040D01*
X142787370Y-124020942D02*
X142808052Y-124000260D01*
X142849418Y-123979577D01*
X142952832Y-123979577D01*
X142994198Y-124000260D01*
X143014881Y-124020942D01*
X143035564Y-124062308D01*
X143035564Y-124103674D01*
X143014881Y-124165722D01*
X142766687Y-124413917D01*
X143035564Y-124413917D01*
X143180344Y-123979577D02*
X143469904Y-123979577D01*
X143283758Y-124413917D01*
X143821512Y-124124357D02*
X143821512Y-124413917D01*
X143718098Y-123958894D02*
X143614684Y-124269137D01*
X143883561Y-124269137D01*
X144235170Y-124124357D02*
X144235170Y-124413917D01*
X144131755Y-123958894D02*
X144028341Y-124269137D01*
X144297218Y-124269137D01*
X144690192Y-124413917D02*
X144441998Y-124413917D01*
X144566095Y-124413917D02*
X144566095Y-123979577D01*
X144524730Y-124041625D01*
X144483364Y-124082991D01*
X144441998Y-124103674D01*
X144876338Y-124248454D02*
X145207264Y-124248454D01*
X145600238Y-124124357D02*
X145600238Y-124475965D01*
X145579555Y-124517331D01*
X145558872Y-124538014D01*
X145517507Y-124558697D01*
X145455458Y-124558697D01*
X145414092Y-124538014D01*
X145600238Y-124393234D02*
X145558872Y-124413917D01*
X145476141Y-124413917D01*
X145434775Y-124393234D01*
X145414092Y-124372551D01*
X145393410Y-124331185D01*
X145393410Y-124207088D01*
X145414092Y-124165722D01*
X145434775Y-124145040D01*
X145476141Y-124124357D01*
X145558872Y-124124357D01*
X145600238Y-124145040D01*
X146034578Y-124413917D02*
X145786384Y-124413917D01*
X145910481Y-124413917D02*
X145910481Y-123979577D01*
X145869115Y-124041625D01*
X145827750Y-124082991D01*
X145786384Y-124103674D01*
D32*
X163189262Y-105474830D02*
X163189262Y-106099912D01*
X163226031Y-106173451D01*
X163262801Y-106210220D01*
X163336340Y-106246990D01*
X163483418Y-106246990D01*
X163556957Y-106210220D01*
X163593726Y-106173451D01*
X163630496Y-106099912D01*
X163630496Y-105474830D01*
X163924652Y-105474830D02*
X164439425Y-105474830D01*
X164108500Y-106246990D01*
M02*
