G04 #@! TF.GenerationSoftware,KiCad,Pcbnew,5.1.6-c6e7f7d~87~ubuntu18.04.1*
G04 #@! TF.CreationDate,2020-07-31T19:21:43+02:00*
G04 #@! TF.ProjectId,hm-env-sensor,686d2d65-6e76-42d7-9365-6e736f722e6b,A1*
G04 #@! TF.SameCoordinates,Original*
G04 #@! TF.FileFunction,Legend,Top*
G04 #@! TF.FilePolarity,Positive*
%FSLAX46Y46*%
G04 Gerber Fmt 4.6, Leading zero omitted, Abs format (unit mm)*
G04 Created by KiCad (PCBNEW 5.1.6-c6e7f7d~87~ubuntu18.04.1) date 2020-07-31 19:21:43*
%MOMM*%
%LPD*%
G01*
G04 APERTURE LIST*
%ADD10C,0.300000*%
%ADD11C,0.254000*%
G04 #@! TA.AperFunction,Profile*
%ADD12C,0.254000*%
G04 #@! TD*
%ADD13C,0.190500*%
%ADD14C,0.317500*%
%ADD15C,0.120000*%
%ADD16C,1.000000*%
%ADD17C,0.150000*%
%ADD18C,0.370000*%
%ADD19C,0.380000*%
%ADD20C,0.400000*%
%ADD21C,0.420000*%
%ADD22C,0.127000*%
%ADD23C,0.203200*%
%ADD24C,0.223606*%
%ADD25C,0.050000*%
%ADD26C,0.100000*%
%ADD27C,0.200000*%
%ADD28C,0.158750*%
%ADD29C,0.180000*%
G04 APERTURE END LIST*
D10*
X133068857Y-94277571D02*
X133068857Y-92777571D01*
X133568857Y-93849000D01*
X134068857Y-92777571D01*
X134068857Y-94277571D01*
X134783142Y-94277571D02*
X134783142Y-92777571D01*
X134783142Y-93491857D02*
X135640285Y-93491857D01*
X135640285Y-94277571D02*
X135640285Y-92777571D01*
X136354571Y-93706142D02*
X137497428Y-93706142D01*
X138068857Y-92777571D02*
X139068857Y-92777571D01*
X138068857Y-94277571D01*
X139068857Y-94277571D01*
X140426000Y-94277571D02*
X139568857Y-94277571D01*
X139997428Y-94277571D02*
X139997428Y-92777571D01*
X139854571Y-92991857D01*
X139711714Y-93134714D01*
X139568857Y-93206142D01*
X141140285Y-94277571D02*
X141426000Y-94277571D01*
X141568857Y-94206142D01*
X141640285Y-94134714D01*
X141783142Y-93920428D01*
X141854571Y-93634714D01*
X141854571Y-93063285D01*
X141783142Y-92920428D01*
X141711714Y-92849000D01*
X141568857Y-92777571D01*
X141283142Y-92777571D01*
X141140285Y-92849000D01*
X141068857Y-92920428D01*
X140997428Y-93063285D01*
X140997428Y-93420428D01*
X141068857Y-93563285D01*
X141140285Y-93634714D01*
X141283142Y-93706142D01*
X141568857Y-93706142D01*
X141711714Y-93634714D01*
X141783142Y-93563285D01*
X141854571Y-93420428D01*
X142997428Y-93491857D02*
X143211714Y-93563285D01*
X143283142Y-93634714D01*
X143354571Y-93777571D01*
X143354571Y-93991857D01*
X143283142Y-94134714D01*
X143211714Y-94206142D01*
X143068857Y-94277571D01*
X142497428Y-94277571D01*
X142497428Y-92777571D01*
X142997428Y-92777571D01*
X143140285Y-92849000D01*
X143211714Y-92920428D01*
X143283142Y-93063285D01*
X143283142Y-93206142D01*
X143211714Y-93349000D01*
X143140285Y-93420428D01*
X142997428Y-93491857D01*
X142497428Y-93491857D01*
X91027999Y-110914571D02*
X91027999Y-109414571D01*
X91527999Y-110486000D01*
X92027999Y-109414571D01*
X92027999Y-110914571D01*
X92742285Y-110914571D02*
X92742285Y-109914571D01*
X92742285Y-109414571D02*
X92670857Y-109486000D01*
X92742285Y-109557428D01*
X92813714Y-109486000D01*
X92742285Y-109414571D01*
X92742285Y-109557428D01*
X94099428Y-110843142D02*
X93956571Y-110914571D01*
X93670857Y-110914571D01*
X93527999Y-110843142D01*
X93456571Y-110771714D01*
X93385142Y-110628857D01*
X93385142Y-110200285D01*
X93456571Y-110057428D01*
X93527999Y-109986000D01*
X93670857Y-109914571D01*
X93956571Y-109914571D01*
X94099428Y-109986000D01*
X94742285Y-110914571D02*
X94742285Y-109914571D01*
X94742285Y-110200285D02*
X94813714Y-110057428D01*
X94885142Y-109986000D01*
X95027999Y-109914571D01*
X95170857Y-109914571D01*
X95885142Y-110914571D02*
X95742285Y-110843142D01*
X95670857Y-110771714D01*
X95599428Y-110628857D01*
X95599428Y-110200285D01*
X95670857Y-110057428D01*
X95742285Y-109986000D01*
X95885142Y-109914571D01*
X96099428Y-109914571D01*
X96242285Y-109986000D01*
X96313714Y-110057428D01*
X96385142Y-110200285D01*
X96385142Y-110628857D01*
X96313714Y-110771714D01*
X96242285Y-110843142D01*
X96099428Y-110914571D01*
X95885142Y-110914571D01*
X97027999Y-109914571D02*
X97027999Y-111414571D01*
X97027999Y-109986000D02*
X97170857Y-109914571D01*
X97456571Y-109914571D01*
X97599428Y-109986000D01*
X97670857Y-110057428D01*
X97742285Y-110200285D01*
X97742285Y-110628857D01*
X97670857Y-110771714D01*
X97599428Y-110843142D01*
X97456571Y-110914571D01*
X97170857Y-110914571D01*
X97027999Y-110843142D01*
X98385142Y-110914571D02*
X98385142Y-109414571D01*
X99027999Y-110914571D02*
X99027999Y-110128857D01*
X98956571Y-109986000D01*
X98813714Y-109914571D01*
X98599428Y-109914571D01*
X98456571Y-109986000D01*
X98385142Y-110057428D01*
X99956571Y-110914571D02*
X99813714Y-110843142D01*
X99742285Y-110771714D01*
X99670857Y-110628857D01*
X99670857Y-110200285D01*
X99742285Y-110057428D01*
X99813714Y-109986000D01*
X99956571Y-109914571D01*
X100170857Y-109914571D01*
X100313714Y-109986000D01*
X100385142Y-110057428D01*
X100456571Y-110200285D01*
X100456571Y-110628857D01*
X100385142Y-110771714D01*
X100313714Y-110843142D01*
X100170857Y-110914571D01*
X99956571Y-110914571D01*
X101099428Y-109914571D02*
X101099428Y-110914571D01*
X101099428Y-110057428D02*
X101170857Y-109986000D01*
X101313714Y-109914571D01*
X101527999Y-109914571D01*
X101670857Y-109986000D01*
X101742285Y-110128857D01*
X101742285Y-110914571D01*
X103027999Y-110843142D02*
X102885142Y-110914571D01*
X102599428Y-110914571D01*
X102456571Y-110843142D01*
X102385142Y-110700285D01*
X102385142Y-110128857D01*
X102456571Y-109986000D01*
X102599428Y-109914571D01*
X102885142Y-109914571D01*
X103027999Y-109986000D01*
X103099428Y-110128857D01*
X103099428Y-110271714D01*
X102385142Y-110414571D01*
X146558571Y-75688000D02*
X147272857Y-75688000D01*
X146415714Y-76116571D02*
X146915714Y-74616571D01*
X147415714Y-76116571D01*
X147915714Y-76116571D02*
X147915714Y-74616571D01*
X148272857Y-74616571D01*
X148487142Y-74688000D01*
X148630000Y-74830857D01*
X148701428Y-74973714D01*
X148772857Y-75259428D01*
X148772857Y-75473714D01*
X148701428Y-75759428D01*
X148630000Y-75902285D01*
X148487142Y-76045142D01*
X148272857Y-76116571D01*
X147915714Y-76116571D01*
X149272857Y-74616571D02*
X150272857Y-76116571D01*
X150272857Y-74616571D02*
X149272857Y-76116571D01*
X151558571Y-76116571D02*
X150844285Y-76116571D01*
X150844285Y-74616571D01*
X151915714Y-74616571D02*
X152844285Y-74616571D01*
X152344285Y-75188000D01*
X152558571Y-75188000D01*
X152701428Y-75259428D01*
X152772857Y-75330857D01*
X152844285Y-75473714D01*
X152844285Y-75830857D01*
X152772857Y-75973714D01*
X152701428Y-76045142D01*
X152558571Y-76116571D01*
X152130000Y-76116571D01*
X151987142Y-76045142D01*
X151915714Y-75973714D01*
X154130000Y-75116571D02*
X154130000Y-76116571D01*
X153772857Y-74545142D02*
X153415714Y-75616571D01*
X154344285Y-75616571D01*
X155630000Y-74616571D02*
X154915714Y-74616571D01*
X154844285Y-75330857D01*
X154915714Y-75259428D01*
X155058571Y-75188000D01*
X155415714Y-75188000D01*
X155558571Y-75259428D01*
X155630000Y-75330857D01*
X155701428Y-75473714D01*
X155701428Y-75830857D01*
X155630000Y-75973714D01*
X155558571Y-76045142D01*
X155415714Y-76116571D01*
X155058571Y-76116571D01*
X154915714Y-76045142D01*
X154844285Y-75973714D01*
D11*
X103632000Y-93726000D02*
X109982000Y-93726000D01*
X103632000Y-78486000D02*
X109982000Y-78486000D01*
X103632000Y-81026000D02*
X109982000Y-81026000D01*
X103632000Y-83566000D02*
X109982000Y-83566000D01*
X103632000Y-86106000D02*
X109982000Y-86106000D01*
X104696380Y-86995000D02*
X104599619Y-86946619D01*
X104454476Y-86946619D01*
X104309333Y-86995000D01*
X104212571Y-87091761D01*
X104164190Y-87188523D01*
X104115809Y-87382047D01*
X104115809Y-87527190D01*
X104164190Y-87720714D01*
X104212571Y-87817476D01*
X104309333Y-87914238D01*
X104454476Y-87962619D01*
X104551238Y-87962619D01*
X104696380Y-87914238D01*
X104744761Y-87865857D01*
X104744761Y-87527190D01*
X104551238Y-87527190D01*
X105180190Y-87962619D02*
X105180190Y-86946619D01*
X105567238Y-86946619D01*
X105664000Y-86995000D01*
X105712380Y-87043380D01*
X105760761Y-87140142D01*
X105760761Y-87285285D01*
X105712380Y-87382047D01*
X105664000Y-87430428D01*
X105567238Y-87478809D01*
X105180190Y-87478809D01*
X106196190Y-87962619D02*
X106196190Y-86946619D01*
X106873523Y-86946619D02*
X107067047Y-86946619D01*
X107163809Y-86995000D01*
X107260571Y-87091761D01*
X107308952Y-87285285D01*
X107308952Y-87623952D01*
X107260571Y-87817476D01*
X107163809Y-87914238D01*
X107067047Y-87962619D01*
X106873523Y-87962619D01*
X106776761Y-87914238D01*
X106680000Y-87817476D01*
X106631619Y-87623952D01*
X106631619Y-87285285D01*
X106680000Y-87091761D01*
X106776761Y-86995000D01*
X106873523Y-86946619D01*
X107696000Y-87043380D02*
X107744380Y-86995000D01*
X107841142Y-86946619D01*
X108083047Y-86946619D01*
X108179809Y-86995000D01*
X108228190Y-87043380D01*
X108276571Y-87140142D01*
X108276571Y-87236904D01*
X108228190Y-87382047D01*
X107647619Y-87962619D01*
X108276571Y-87962619D01*
X108615238Y-86946619D02*
X109244190Y-86946619D01*
X108905523Y-87333666D01*
X109050666Y-87333666D01*
X109147428Y-87382047D01*
X109195809Y-87430428D01*
X109244190Y-87527190D01*
X109244190Y-87769095D01*
X109195809Y-87865857D01*
X109147428Y-87914238D01*
X109050666Y-87962619D01*
X108760380Y-87962619D01*
X108663619Y-87914238D01*
X108615238Y-87865857D01*
X103632000Y-88646000D02*
X109982000Y-88646000D01*
X103632000Y-91186000D02*
X109982000Y-91186000D01*
X99743380Y-86741000D02*
X99622428Y-86680523D01*
X99441000Y-86680523D01*
X99259571Y-86741000D01*
X99138619Y-86861952D01*
X99078142Y-86982904D01*
X99017666Y-87224809D01*
X99017666Y-87406238D01*
X99078142Y-87648142D01*
X99138619Y-87769095D01*
X99259571Y-87890047D01*
X99441000Y-87950523D01*
X99561952Y-87950523D01*
X99743380Y-87890047D01*
X99803857Y-87829571D01*
X99803857Y-87406238D01*
X99561952Y-87406238D01*
X100348142Y-87950523D02*
X100348142Y-86680523D01*
X101073857Y-87950523D01*
X101073857Y-86680523D01*
X101678619Y-87950523D02*
X101678619Y-86680523D01*
X101981000Y-86680523D01*
X102162428Y-86741000D01*
X102283380Y-86861952D01*
X102343857Y-86982904D01*
X102404333Y-87224809D01*
X102404333Y-87406238D01*
X102343857Y-87648142D01*
X102283380Y-87769095D01*
X102162428Y-87890047D01*
X101981000Y-87950523D01*
X101678619Y-87950523D01*
D10*
X168851971Y-123590571D02*
X168137685Y-124090571D01*
X168851971Y-124447714D02*
X167351971Y-124447714D01*
X167351971Y-123876285D01*
X167423400Y-123733428D01*
X167494828Y-123662000D01*
X167637685Y-123590571D01*
X167851971Y-123590571D01*
X167994828Y-123662000D01*
X168066257Y-123733428D01*
X168137685Y-123876285D01*
X168137685Y-124447714D01*
X168066257Y-122947714D02*
X168066257Y-122447714D01*
X168851971Y-122233428D02*
X168851971Y-122947714D01*
X167351971Y-122947714D01*
X167351971Y-122233428D01*
X168780542Y-121662000D02*
X168851971Y-121447714D01*
X168851971Y-121090571D01*
X168780542Y-120947714D01*
X168709114Y-120876285D01*
X168566257Y-120804857D01*
X168423400Y-120804857D01*
X168280542Y-120876285D01*
X168209114Y-120947714D01*
X168137685Y-121090571D01*
X168066257Y-121376285D01*
X167994828Y-121519142D01*
X167923400Y-121590571D01*
X167780542Y-121662000D01*
X167637685Y-121662000D01*
X167494828Y-121590571D01*
X167423400Y-121519142D01*
X167351971Y-121376285D01*
X167351971Y-121019142D01*
X167423400Y-120804857D01*
X168066257Y-120162000D02*
X168066257Y-119662000D01*
X168851971Y-119447714D02*
X168851971Y-120162000D01*
X167351971Y-120162000D01*
X167351971Y-119447714D01*
X167351971Y-119019142D02*
X167351971Y-118162000D01*
X168851971Y-118590571D02*
X167351971Y-118590571D01*
X168398000Y-87963142D02*
X168398000Y-87248857D01*
X168826571Y-88106000D02*
X167326571Y-87606000D01*
X168826571Y-87106000D01*
X168826571Y-86606000D02*
X167326571Y-86606000D01*
X167326571Y-86034571D01*
X167398000Y-85891714D01*
X167469428Y-85820285D01*
X167612285Y-85748857D01*
X167826571Y-85748857D01*
X167969428Y-85820285D01*
X168040857Y-85891714D01*
X168112285Y-86034571D01*
X168112285Y-86606000D01*
X168826571Y-85106000D02*
X167326571Y-85106000D01*
X167326571Y-84534571D01*
X167398000Y-84391714D01*
X167469428Y-84320285D01*
X167612285Y-84248857D01*
X167826571Y-84248857D01*
X167969428Y-84320285D01*
X168040857Y-84391714D01*
X168112285Y-84534571D01*
X168112285Y-85106000D01*
X168040857Y-106924028D02*
X168112285Y-106709742D01*
X168183714Y-106638314D01*
X168326571Y-106566885D01*
X168540857Y-106566885D01*
X168683714Y-106638314D01*
X168755142Y-106709742D01*
X168826571Y-106852600D01*
X168826571Y-107424028D01*
X167326571Y-107424028D01*
X167326571Y-106924028D01*
X167398000Y-106781171D01*
X167469428Y-106709742D01*
X167612285Y-106638314D01*
X167755142Y-106638314D01*
X167898000Y-106709742D01*
X167969428Y-106781171D01*
X168040857Y-106924028D01*
X168040857Y-107424028D01*
X168826571Y-105924028D02*
X167326571Y-105924028D01*
X168398000Y-105424028D01*
X167326571Y-104924028D01*
X168826571Y-104924028D01*
X168040857Y-104209742D02*
X168040857Y-103709742D01*
X168826571Y-103495457D02*
X168826571Y-104209742D01*
X167326571Y-104209742D01*
X167326571Y-103495457D01*
X167326571Y-102209742D02*
X167326571Y-102495457D01*
X167398000Y-102638314D01*
X167469428Y-102709742D01*
X167683714Y-102852600D01*
X167969428Y-102924028D01*
X168540857Y-102924028D01*
X168683714Y-102852600D01*
X168755142Y-102781171D01*
X168826571Y-102638314D01*
X168826571Y-102352600D01*
X168755142Y-102209742D01*
X168683714Y-102138314D01*
X168540857Y-102066885D01*
X168183714Y-102066885D01*
X168040857Y-102138314D01*
X167969428Y-102209742D01*
X167898000Y-102352600D01*
X167898000Y-102638314D01*
X167969428Y-102781171D01*
X168040857Y-102852600D01*
X168183714Y-102924028D01*
X167969428Y-101209742D02*
X167898000Y-101352600D01*
X167826571Y-101424028D01*
X167683714Y-101495457D01*
X167612285Y-101495457D01*
X167469428Y-101424028D01*
X167398000Y-101352600D01*
X167326571Y-101209742D01*
X167326571Y-100924028D01*
X167398000Y-100781171D01*
X167469428Y-100709742D01*
X167612285Y-100638314D01*
X167683714Y-100638314D01*
X167826571Y-100709742D01*
X167898000Y-100781171D01*
X167969428Y-100924028D01*
X167969428Y-101209742D01*
X168040857Y-101352600D01*
X168112285Y-101424028D01*
X168255142Y-101495457D01*
X168540857Y-101495457D01*
X168683714Y-101424028D01*
X168755142Y-101352600D01*
X168826571Y-101209742D01*
X168826571Y-100924028D01*
X168755142Y-100781171D01*
X168683714Y-100709742D01*
X168540857Y-100638314D01*
X168255142Y-100638314D01*
X168112285Y-100709742D01*
X168040857Y-100781171D01*
X167969428Y-100924028D01*
X167326571Y-99709742D02*
X167326571Y-99566885D01*
X167398000Y-99424028D01*
X167469428Y-99352600D01*
X167612285Y-99281171D01*
X167898000Y-99209742D01*
X168255142Y-99209742D01*
X168540857Y-99281171D01*
X168683714Y-99352600D01*
X168755142Y-99424028D01*
X168826571Y-99566885D01*
X168826571Y-99709742D01*
X168755142Y-99852600D01*
X168683714Y-99924028D01*
X168540857Y-99995457D01*
X168255142Y-100066885D01*
X167898000Y-100066885D01*
X167612285Y-99995457D01*
X167469428Y-99924028D01*
X167398000Y-99852600D01*
X167326571Y-99709742D01*
X97812979Y-74767166D02*
X98031729Y-73017166D01*
X97927562Y-73850500D02*
X98927562Y-73850500D01*
X98812979Y-74767166D02*
X99031729Y-73017166D01*
X99646312Y-74767166D02*
X99792145Y-73600500D01*
X99865062Y-73017166D02*
X99771312Y-73100500D01*
X99844229Y-73183833D01*
X99937979Y-73100500D01*
X99865062Y-73017166D01*
X99844229Y-73183833D01*
X100479645Y-74767166D02*
X100698395Y-73017166D01*
X101125479Y-74267166D01*
X101865062Y-73017166D01*
X101646312Y-74767166D01*
X102479645Y-74767166D02*
X102625479Y-73600500D01*
X102698395Y-73017166D02*
X102604645Y-73100500D01*
X102677562Y-73183833D01*
X102771312Y-73100500D01*
X102698395Y-73017166D01*
X102677562Y-73183833D01*
X103458812Y-73600500D02*
X103312979Y-74767166D01*
X103437979Y-73767166D02*
X103531729Y-73683833D01*
X103708812Y-73600500D01*
X103958812Y-73600500D01*
X104115062Y-73683833D01*
X104177562Y-73850500D01*
X104062979Y-74767166D01*
X105646312Y-74767166D02*
X105865062Y-73017166D01*
X105656729Y-74683833D02*
X105479645Y-74767166D01*
X105146312Y-74767166D01*
X104990062Y-74683833D01*
X104917145Y-74600500D01*
X104854645Y-74433833D01*
X104917145Y-73933833D01*
X105021312Y-73767166D01*
X105115062Y-73683833D01*
X105292145Y-73600500D01*
X105625479Y-73600500D01*
X105781729Y-73683833D01*
X106406729Y-74683833D02*
X106562979Y-74767166D01*
X106896312Y-74767166D01*
X107073395Y-74683833D01*
X107177562Y-74517166D01*
X107187979Y-74433833D01*
X107125479Y-74267166D01*
X106969229Y-74183833D01*
X106719229Y-74183833D01*
X106562979Y-74100500D01*
X106500479Y-73933833D01*
X106510895Y-73850500D01*
X106615062Y-73683833D01*
X106792145Y-73600500D01*
X107042145Y-73600500D01*
X107198395Y-73683833D01*
X94521312Y-77692166D02*
X94740062Y-75942166D01*
X95500479Y-76525500D02*
X95354645Y-77692166D01*
X95479645Y-76692166D02*
X95573395Y-76608833D01*
X95750479Y-76525500D01*
X96000479Y-76525500D01*
X96156729Y-76608833D01*
X96219229Y-76775500D01*
X96104645Y-77692166D01*
X96865062Y-77608833D02*
X97021312Y-77692166D01*
X97354645Y-77692166D01*
X97531729Y-77608833D01*
X97635895Y-77442166D01*
X97646312Y-77358833D01*
X97583812Y-77192166D01*
X97427562Y-77108833D01*
X97177562Y-77108833D01*
X97021312Y-77025500D01*
X96958812Y-76858833D01*
X96969229Y-76775500D01*
X97073395Y-76608833D01*
X97250479Y-76525500D01*
X97500479Y-76525500D01*
X97656729Y-76608833D01*
X99031729Y-77608833D02*
X98854645Y-77692166D01*
X98521312Y-77692166D01*
X98365062Y-77608833D01*
X98302562Y-77442166D01*
X98385895Y-76775500D01*
X98490062Y-76608833D01*
X98667145Y-76525500D01*
X99000479Y-76525500D01*
X99156729Y-76608833D01*
X99219229Y-76775500D01*
X99198395Y-76942166D01*
X98344229Y-77108833D01*
X99854645Y-77692166D02*
X100000479Y-76525500D01*
X99958812Y-76858833D02*
X100062979Y-76692166D01*
X100156729Y-76608833D01*
X100333812Y-76525500D01*
X100500479Y-76525500D01*
X100833812Y-76525500D02*
X101500479Y-76525500D01*
X101156729Y-75942166D02*
X100969229Y-77442166D01*
X101031729Y-77608833D01*
X101187979Y-77692166D01*
X101354645Y-77692166D01*
X103240062Y-75942166D02*
X104240062Y-75942166D01*
X103521312Y-77692166D02*
X103740062Y-75942166D01*
X105354645Y-77692166D02*
X105469229Y-76775500D01*
X105406729Y-76608833D01*
X105250479Y-76525500D01*
X104917145Y-76525500D01*
X104740062Y-76608833D01*
X105365062Y-77608833D02*
X105187979Y-77692166D01*
X104771312Y-77692166D01*
X104615062Y-77608833D01*
X104552562Y-77442166D01*
X104573395Y-77275500D01*
X104677562Y-77108833D01*
X104854645Y-77025500D01*
X105271312Y-77025500D01*
X105448395Y-76942166D01*
X106437979Y-77692166D02*
X106281729Y-77608833D01*
X106219229Y-77442166D01*
X106406729Y-75942166D01*
X107781729Y-77608833D02*
X107604645Y-77692166D01*
X107271312Y-77692166D01*
X107115062Y-77608833D01*
X107052562Y-77442166D01*
X107135895Y-76775500D01*
X107240062Y-76608833D01*
X107417145Y-76525500D01*
X107750479Y-76525500D01*
X107906729Y-76608833D01*
X107969229Y-76775500D01*
X107948395Y-76942166D01*
X107094229Y-77108833D01*
X108750479Y-76525500D02*
X108604645Y-77692166D01*
X108729645Y-76692166D02*
X108823395Y-76608833D01*
X109000479Y-76525500D01*
X109250479Y-76525500D01*
X109406729Y-76608833D01*
X109469229Y-76775500D01*
X109354645Y-77692166D01*
X110083812Y-76525500D02*
X110750479Y-76525500D01*
X110406729Y-75942166D02*
X110219229Y-77442166D01*
X110281729Y-77608833D01*
X110437979Y-77692166D01*
X110604645Y-77692166D01*
D12*
X169398000Y-135704200D02*
X169398000Y-71704200D01*
X90398000Y-71704200D02*
X90398000Y-135704200D01*
X161898000Y-64204200D02*
X97898000Y-64204200D01*
X161898000Y-64204200D02*
G75*
G02*
X169398000Y-71704200I0J-7500000D01*
G01*
X169398000Y-135704200D02*
G75*
G02*
X161898000Y-143204200I-7500000J0D01*
G01*
X161898000Y-143204200D02*
X97898000Y-143204200D01*
X90398000Y-71704200D02*
G75*
G02*
X97898000Y-64204200I7500000J0D01*
G01*
X97898000Y-143204200D02*
G75*
G02*
X90398000Y-135704200I0J7500000D01*
G01*
D11*
X97282000Y-93726000D02*
X103632000Y-93726000D01*
D13*
X104017535Y-127707571D02*
X104017535Y-128179285D01*
X103727250Y-127925285D01*
X103727250Y-128034142D01*
X103690964Y-128106714D01*
X103654678Y-128143000D01*
X103582107Y-128179285D01*
X103400678Y-128179285D01*
X103328107Y-128143000D01*
X103291821Y-128106714D01*
X103255535Y-128034142D01*
X103255535Y-127816428D01*
X103291821Y-127743857D01*
X103328107Y-127707571D01*
X103328107Y-128505857D02*
X103291821Y-128542142D01*
X103255535Y-128505857D01*
X103291821Y-128469571D01*
X103328107Y-128505857D01*
X103255535Y-128505857D01*
X104017535Y-128796142D02*
X104017535Y-129304142D01*
X103255535Y-128977571D01*
X104017535Y-129485571D02*
X103255535Y-129739571D01*
X104017535Y-129993571D01*
X103255535Y-131191000D02*
X103255535Y-130828142D01*
X104017535Y-130828142D01*
X103255535Y-131445000D02*
X103763535Y-131445000D01*
X104017535Y-131445000D02*
X103981250Y-131408714D01*
X103944964Y-131445000D01*
X103981250Y-131481285D01*
X104017535Y-131445000D01*
X103944964Y-131445000D01*
X103763535Y-131807857D02*
X103001535Y-131807857D01*
X103727250Y-131807857D02*
X103763535Y-131880428D01*
X103763535Y-132025571D01*
X103727250Y-132098142D01*
X103690964Y-132134428D01*
X103618392Y-132170714D01*
X103400678Y-132170714D01*
X103328107Y-132134428D01*
X103291821Y-132098142D01*
X103255535Y-132025571D01*
X103255535Y-131880428D01*
X103291821Y-131807857D01*
X103255535Y-132606142D02*
X103291821Y-132533571D01*
X103328107Y-132497285D01*
X103400678Y-132461000D01*
X103618392Y-132461000D01*
X103690964Y-132497285D01*
X103727250Y-132533571D01*
X103763535Y-132606142D01*
X103763535Y-132715000D01*
X103727250Y-132787571D01*
X103690964Y-132823857D01*
X103618392Y-132860142D01*
X103400678Y-132860142D01*
X103328107Y-132823857D01*
X103291821Y-132787571D01*
X103255535Y-132715000D01*
X103255535Y-132606142D01*
X99654178Y-128723571D02*
X99617892Y-128832428D01*
X99581607Y-128868714D01*
X99509035Y-128905000D01*
X99400178Y-128905000D01*
X99327607Y-128868714D01*
X99291321Y-128832428D01*
X99255035Y-128759857D01*
X99255035Y-128469571D01*
X100017035Y-128469571D01*
X100017035Y-128723571D01*
X99980750Y-128796142D01*
X99944464Y-128832428D01*
X99871892Y-128868714D01*
X99799321Y-128868714D01*
X99726750Y-128832428D01*
X99690464Y-128796142D01*
X99654178Y-128723571D01*
X99654178Y-128469571D01*
X99255035Y-129558142D02*
X99654178Y-129558142D01*
X99726750Y-129521857D01*
X99763035Y-129449285D01*
X99763035Y-129304142D01*
X99726750Y-129231571D01*
X99291321Y-129558142D02*
X99255035Y-129485571D01*
X99255035Y-129304142D01*
X99291321Y-129231571D01*
X99363892Y-129195285D01*
X99436464Y-129195285D01*
X99509035Y-129231571D01*
X99545321Y-129304142D01*
X99545321Y-129485571D01*
X99581607Y-129558142D01*
X99763035Y-129812142D02*
X99763035Y-130102428D01*
X100017035Y-129921000D02*
X99363892Y-129921000D01*
X99291321Y-129957285D01*
X99255035Y-130029857D01*
X99255035Y-130102428D01*
X99763035Y-130247571D02*
X99763035Y-130537857D01*
X100017035Y-130356428D02*
X99363892Y-130356428D01*
X99291321Y-130392714D01*
X99255035Y-130465285D01*
X99255035Y-130537857D01*
X99291321Y-131082142D02*
X99255035Y-131009571D01*
X99255035Y-130864428D01*
X99291321Y-130791857D01*
X99363892Y-130755571D01*
X99654178Y-130755571D01*
X99726750Y-130791857D01*
X99763035Y-130864428D01*
X99763035Y-131009571D01*
X99726750Y-131082142D01*
X99654178Y-131118428D01*
X99581607Y-131118428D01*
X99509035Y-130755571D01*
X99255035Y-131445000D02*
X99763035Y-131445000D01*
X99617892Y-131445000D02*
X99690464Y-131481285D01*
X99726750Y-131517571D01*
X99763035Y-131590142D01*
X99763035Y-131662714D01*
X99763035Y-131844142D02*
X99255035Y-132025571D01*
X99763035Y-132207000D02*
X99255035Y-132025571D01*
X99073607Y-131953000D01*
X99037321Y-131916714D01*
X99001035Y-131844142D01*
D11*
X107599238Y-91821000D02*
X107478285Y-91760523D01*
X107296857Y-91760523D01*
X107115428Y-91821000D01*
X106994476Y-91941952D01*
X106934000Y-92062904D01*
X106873523Y-92304809D01*
X106873523Y-92486238D01*
X106934000Y-92728142D01*
X106994476Y-92849095D01*
X107115428Y-92970047D01*
X107296857Y-93030523D01*
X107417809Y-93030523D01*
X107599238Y-92970047D01*
X107659714Y-92909571D01*
X107659714Y-92486238D01*
X107417809Y-92486238D01*
X108204000Y-93030523D02*
X108204000Y-91760523D01*
X108687809Y-91760523D01*
X108808761Y-91821000D01*
X108869238Y-91881476D01*
X108929714Y-92002428D01*
X108929714Y-92183857D01*
X108869238Y-92304809D01*
X108808761Y-92365285D01*
X108687809Y-92425761D01*
X108204000Y-92425761D01*
X109474000Y-93030523D02*
X109474000Y-91760523D01*
X110320666Y-91760523D02*
X110562571Y-91760523D01*
X110683523Y-91821000D01*
X110804476Y-91941952D01*
X110864952Y-92183857D01*
X110864952Y-92607190D01*
X110804476Y-92849095D01*
X110683523Y-92970047D01*
X110562571Y-93030523D01*
X110320666Y-93030523D01*
X110199714Y-92970047D01*
X110078761Y-92849095D01*
X110018285Y-92607190D01*
X110018285Y-92183857D01*
X110078761Y-91941952D01*
X110199714Y-91821000D01*
X110320666Y-91760523D01*
X111953523Y-92183857D02*
X111953523Y-93030523D01*
X111651142Y-91700047D02*
X111348761Y-92607190D01*
X112134952Y-92607190D01*
X104805238Y-89408000D02*
X104684285Y-89347523D01*
X104502857Y-89347523D01*
X104321428Y-89408000D01*
X104200476Y-89528952D01*
X104140000Y-89649904D01*
X104079523Y-89891809D01*
X104079523Y-90073238D01*
X104140000Y-90315142D01*
X104200476Y-90436095D01*
X104321428Y-90557047D01*
X104502857Y-90617523D01*
X104623809Y-90617523D01*
X104805238Y-90557047D01*
X104865714Y-90496571D01*
X104865714Y-90073238D01*
X104623809Y-90073238D01*
X105410000Y-90617523D02*
X105410000Y-89347523D01*
X105893809Y-89347523D01*
X106014761Y-89408000D01*
X106075238Y-89468476D01*
X106135714Y-89589428D01*
X106135714Y-89770857D01*
X106075238Y-89891809D01*
X106014761Y-89952285D01*
X105893809Y-90012761D01*
X105410000Y-90012761D01*
X106680000Y-90617523D02*
X106680000Y-89347523D01*
X107526666Y-89347523D02*
X107768571Y-89347523D01*
X107889523Y-89408000D01*
X108010476Y-89528952D01*
X108070952Y-89770857D01*
X108070952Y-90194190D01*
X108010476Y-90436095D01*
X107889523Y-90557047D01*
X107768571Y-90617523D01*
X107526666Y-90617523D01*
X107405714Y-90557047D01*
X107284761Y-90436095D01*
X107224285Y-90194190D01*
X107224285Y-89770857D01*
X107284761Y-89528952D01*
X107405714Y-89408000D01*
X107526666Y-89347523D01*
X109220000Y-89347523D02*
X108615238Y-89347523D01*
X108554761Y-89952285D01*
X108615238Y-89891809D01*
X108736190Y-89831333D01*
X109038571Y-89831333D01*
X109159523Y-89891809D01*
X109220000Y-89952285D01*
X109280476Y-90073238D01*
X109280476Y-90375619D01*
X109220000Y-90496571D01*
X109159523Y-90557047D01*
X109038571Y-90617523D01*
X108736190Y-90617523D01*
X108615238Y-90557047D01*
X108554761Y-90496571D01*
X97282000Y-91186000D02*
X103632000Y-91186000D01*
X97282000Y-88646000D02*
X103632000Y-88646000D01*
X97282000Y-86106000D02*
X103632000Y-86106000D01*
X97282000Y-83566000D02*
X103632000Y-83566000D01*
X97282000Y-81026000D02*
X103632000Y-81026000D01*
X97282000Y-78486000D02*
X103632000Y-78486000D01*
X103632000Y-78486000D02*
X103632000Y-93726000D01*
X97046142Y-92546714D02*
X98013761Y-92546714D01*
X97529952Y-93030523D02*
X97529952Y-92062904D01*
X99223285Y-91760523D02*
X98618523Y-91760523D01*
X98558047Y-92365285D01*
X98618523Y-92304809D01*
X98739476Y-92244333D01*
X99041857Y-92244333D01*
X99162809Y-92304809D01*
X99223285Y-92365285D01*
X99283761Y-92486238D01*
X99283761Y-92788619D01*
X99223285Y-92909571D01*
X99162809Y-92970047D01*
X99041857Y-93030523D01*
X98739476Y-93030523D01*
X98618523Y-92970047D01*
X98558047Y-92909571D01*
X99646619Y-91760523D02*
X100069952Y-93030523D01*
X100493285Y-91760523D01*
X104696380Y-84455000D02*
X104599619Y-84406619D01*
X104454476Y-84406619D01*
X104309333Y-84455000D01*
X104212571Y-84551761D01*
X104164190Y-84648523D01*
X104115809Y-84842047D01*
X104115809Y-84987190D01*
X104164190Y-85180714D01*
X104212571Y-85277476D01*
X104309333Y-85374238D01*
X104454476Y-85422619D01*
X104551238Y-85422619D01*
X104696380Y-85374238D01*
X104744761Y-85325857D01*
X104744761Y-84987190D01*
X104551238Y-84987190D01*
X105180190Y-85422619D02*
X105180190Y-84406619D01*
X105567238Y-84406619D01*
X105664000Y-84455000D01*
X105712380Y-84503380D01*
X105760761Y-84600142D01*
X105760761Y-84745285D01*
X105712380Y-84842047D01*
X105664000Y-84890428D01*
X105567238Y-84938809D01*
X105180190Y-84938809D01*
X106196190Y-85422619D02*
X106196190Y-84406619D01*
X106873523Y-84406619D02*
X107067047Y-84406619D01*
X107163809Y-84455000D01*
X107260571Y-84551761D01*
X107308952Y-84745285D01*
X107308952Y-85083952D01*
X107260571Y-85277476D01*
X107163809Y-85374238D01*
X107067047Y-85422619D01*
X106873523Y-85422619D01*
X106776761Y-85374238D01*
X106680000Y-85277476D01*
X106631619Y-85083952D01*
X106631619Y-84745285D01*
X106680000Y-84551761D01*
X106776761Y-84455000D01*
X106873523Y-84406619D01*
X107696000Y-84503380D02*
X107744380Y-84455000D01*
X107841142Y-84406619D01*
X108083047Y-84406619D01*
X108179809Y-84455000D01*
X108228190Y-84503380D01*
X108276571Y-84600142D01*
X108276571Y-84696904D01*
X108228190Y-84842047D01*
X107647619Y-85422619D01*
X108276571Y-85422619D01*
X108615238Y-84406619D02*
X109292571Y-84406619D01*
X108857142Y-85422619D01*
X104696380Y-79375000D02*
X104599619Y-79326619D01*
X104454476Y-79326619D01*
X104309333Y-79375000D01*
X104212571Y-79471761D01*
X104164190Y-79568523D01*
X104115809Y-79762047D01*
X104115809Y-79907190D01*
X104164190Y-80100714D01*
X104212571Y-80197476D01*
X104309333Y-80294238D01*
X104454476Y-80342619D01*
X104551238Y-80342619D01*
X104696380Y-80294238D01*
X104744761Y-80245857D01*
X104744761Y-79907190D01*
X104551238Y-79907190D01*
X105180190Y-80342619D02*
X105180190Y-79326619D01*
X105567238Y-79326619D01*
X105664000Y-79375000D01*
X105712380Y-79423380D01*
X105760761Y-79520142D01*
X105760761Y-79665285D01*
X105712380Y-79762047D01*
X105664000Y-79810428D01*
X105567238Y-79858809D01*
X105180190Y-79858809D01*
X106196190Y-80342619D02*
X106196190Y-79326619D01*
X106873523Y-79326619D02*
X107067047Y-79326619D01*
X107163809Y-79375000D01*
X107260571Y-79471761D01*
X107308952Y-79665285D01*
X107308952Y-80003952D01*
X107260571Y-80197476D01*
X107163809Y-80294238D01*
X107067047Y-80342619D01*
X106873523Y-80342619D01*
X106776761Y-80294238D01*
X106680000Y-80197476D01*
X106631619Y-80003952D01*
X106631619Y-79665285D01*
X106680000Y-79471761D01*
X106776761Y-79375000D01*
X106873523Y-79326619D01*
X107647619Y-79326619D02*
X108276571Y-79326619D01*
X107937904Y-79713666D01*
X108083047Y-79713666D01*
X108179809Y-79762047D01*
X108228190Y-79810428D01*
X108276571Y-79907190D01*
X108276571Y-80149095D01*
X108228190Y-80245857D01*
X108179809Y-80294238D01*
X108083047Y-80342619D01*
X107792761Y-80342619D01*
X107696000Y-80294238D01*
X107647619Y-80245857D01*
X108615238Y-79326619D02*
X109244190Y-79326619D01*
X108905523Y-79713666D01*
X109050666Y-79713666D01*
X109147428Y-79762047D01*
X109195809Y-79810428D01*
X109244190Y-79907190D01*
X109244190Y-80149095D01*
X109195809Y-80245857D01*
X109147428Y-80294238D01*
X109050666Y-80342619D01*
X108760380Y-80342619D01*
X108663619Y-80294238D01*
X108615238Y-80245857D01*
X104696380Y-81788000D02*
X104599619Y-81739619D01*
X104454476Y-81739619D01*
X104309333Y-81788000D01*
X104212571Y-81884761D01*
X104164190Y-81981523D01*
X104115809Y-82175047D01*
X104115809Y-82320190D01*
X104164190Y-82513714D01*
X104212571Y-82610476D01*
X104309333Y-82707238D01*
X104454476Y-82755619D01*
X104551238Y-82755619D01*
X104696380Y-82707238D01*
X104744761Y-82658857D01*
X104744761Y-82320190D01*
X104551238Y-82320190D01*
X105180190Y-82755619D02*
X105180190Y-81739619D01*
X105567238Y-81739619D01*
X105664000Y-81788000D01*
X105712380Y-81836380D01*
X105760761Y-81933142D01*
X105760761Y-82078285D01*
X105712380Y-82175047D01*
X105664000Y-82223428D01*
X105567238Y-82271809D01*
X105180190Y-82271809D01*
X106196190Y-82755619D02*
X106196190Y-81739619D01*
X106873523Y-81739619D02*
X107067047Y-81739619D01*
X107163809Y-81788000D01*
X107260571Y-81884761D01*
X107308952Y-82078285D01*
X107308952Y-82416952D01*
X107260571Y-82610476D01*
X107163809Y-82707238D01*
X107067047Y-82755619D01*
X106873523Y-82755619D01*
X106776761Y-82707238D01*
X106680000Y-82610476D01*
X106631619Y-82416952D01*
X106631619Y-82078285D01*
X106680000Y-81884761D01*
X106776761Y-81788000D01*
X106873523Y-81739619D01*
X107647619Y-81739619D02*
X108276571Y-81739619D01*
X107937904Y-82126666D01*
X108083047Y-82126666D01*
X108179809Y-82175047D01*
X108228190Y-82223428D01*
X108276571Y-82320190D01*
X108276571Y-82562095D01*
X108228190Y-82658857D01*
X108179809Y-82707238D01*
X108083047Y-82755619D01*
X107792761Y-82755619D01*
X107696000Y-82707238D01*
X107647619Y-82658857D01*
X108663619Y-81836380D02*
X108712000Y-81788000D01*
X108808761Y-81739619D01*
X109050666Y-81739619D01*
X109147428Y-81788000D01*
X109195809Y-81836380D01*
X109244190Y-81933142D01*
X109244190Y-82029904D01*
X109195809Y-82175047D01*
X108615238Y-82755619D01*
X109244190Y-82755619D01*
X99386571Y-81788000D02*
X99289809Y-81739619D01*
X99144666Y-81739619D01*
X98999523Y-81788000D01*
X98902761Y-81884761D01*
X98854380Y-81981523D01*
X98806000Y-82175047D01*
X98806000Y-82320190D01*
X98854380Y-82513714D01*
X98902761Y-82610476D01*
X98999523Y-82707238D01*
X99144666Y-82755619D01*
X99241428Y-82755619D01*
X99386571Y-82707238D01*
X99434952Y-82658857D01*
X99434952Y-82320190D01*
X99241428Y-82320190D01*
X99870380Y-82755619D02*
X99870380Y-81739619D01*
X100257428Y-81739619D01*
X100354190Y-81788000D01*
X100402571Y-81836380D01*
X100450952Y-81933142D01*
X100450952Y-82078285D01*
X100402571Y-82175047D01*
X100354190Y-82223428D01*
X100257428Y-82271809D01*
X99870380Y-82271809D01*
X100886380Y-82755619D02*
X100886380Y-81739619D01*
X101273428Y-81739619D02*
X101902380Y-81739619D01*
X101563714Y-82126666D01*
X101708857Y-82126666D01*
X101805619Y-82175047D01*
X101854000Y-82223428D01*
X101902380Y-82320190D01*
X101902380Y-82562095D01*
X101854000Y-82658857D01*
X101805619Y-82707238D01*
X101708857Y-82755619D01*
X101418571Y-82755619D01*
X101321809Y-82707238D01*
X101273428Y-82658857D01*
X102821619Y-81739619D02*
X102337809Y-81739619D01*
X102289428Y-82223428D01*
X102337809Y-82175047D01*
X102434571Y-82126666D01*
X102676476Y-82126666D01*
X102773238Y-82175047D01*
X102821619Y-82223428D01*
X102870000Y-82320190D01*
X102870000Y-82562095D01*
X102821619Y-82658857D01*
X102773238Y-82707238D01*
X102676476Y-82755619D01*
X102434571Y-82755619D01*
X102337809Y-82707238D01*
X102289428Y-82658857D01*
X99386571Y-79375000D02*
X99289809Y-79326619D01*
X99144666Y-79326619D01*
X98999523Y-79375000D01*
X98902761Y-79471761D01*
X98854380Y-79568523D01*
X98806000Y-79762047D01*
X98806000Y-79907190D01*
X98854380Y-80100714D01*
X98902761Y-80197476D01*
X98999523Y-80294238D01*
X99144666Y-80342619D01*
X99241428Y-80342619D01*
X99386571Y-80294238D01*
X99434952Y-80245857D01*
X99434952Y-79907190D01*
X99241428Y-79907190D01*
X99870380Y-80342619D02*
X99870380Y-79326619D01*
X100257428Y-79326619D01*
X100354190Y-79375000D01*
X100402571Y-79423380D01*
X100450952Y-79520142D01*
X100450952Y-79665285D01*
X100402571Y-79762047D01*
X100354190Y-79810428D01*
X100257428Y-79858809D01*
X99870380Y-79858809D01*
X100886380Y-80342619D02*
X100886380Y-79326619D01*
X101273428Y-79326619D02*
X101902380Y-79326619D01*
X101563714Y-79713666D01*
X101708857Y-79713666D01*
X101805619Y-79762047D01*
X101854000Y-79810428D01*
X101902380Y-79907190D01*
X101902380Y-80149095D01*
X101854000Y-80245857D01*
X101805619Y-80294238D01*
X101708857Y-80342619D01*
X101418571Y-80342619D01*
X101321809Y-80294238D01*
X101273428Y-80245857D01*
X102773238Y-79665285D02*
X102773238Y-80342619D01*
X102531333Y-79278238D02*
X102289428Y-80003952D01*
X102918380Y-80003952D01*
D13*
X98370571Y-84455000D02*
X98298000Y-84418714D01*
X98189142Y-84418714D01*
X98080285Y-84455000D01*
X98007714Y-84527571D01*
X97971428Y-84600142D01*
X97935142Y-84745285D01*
X97935142Y-84854142D01*
X97971428Y-84999285D01*
X98007714Y-85071857D01*
X98080285Y-85144428D01*
X98189142Y-85180714D01*
X98261714Y-85180714D01*
X98370571Y-85144428D01*
X98406857Y-85108142D01*
X98406857Y-84854142D01*
X98261714Y-84854142D01*
X98733428Y-85180714D02*
X98733428Y-84418714D01*
X99023714Y-84418714D01*
X99096285Y-84455000D01*
X99132571Y-84491285D01*
X99168857Y-84563857D01*
X99168857Y-84672714D01*
X99132571Y-84745285D01*
X99096285Y-84781571D01*
X99023714Y-84817857D01*
X98733428Y-84817857D01*
X99495428Y-85180714D02*
X99495428Y-84418714D01*
X99785714Y-84418714D02*
X100257428Y-84418714D01*
X100003428Y-84709000D01*
X100112285Y-84709000D01*
X100184857Y-84745285D01*
X100221142Y-84781571D01*
X100257428Y-84854142D01*
X100257428Y-85035571D01*
X100221142Y-85108142D01*
X100184857Y-85144428D01*
X100112285Y-85180714D01*
X99894571Y-85180714D01*
X99822000Y-85144428D01*
X99785714Y-85108142D01*
X100620285Y-85180714D02*
X100765428Y-85180714D01*
X100838000Y-85144428D01*
X100874285Y-85108142D01*
X100946857Y-84999285D01*
X100983142Y-84854142D01*
X100983142Y-84563857D01*
X100946857Y-84491285D01*
X100910571Y-84455000D01*
X100838000Y-84418714D01*
X100692857Y-84418714D01*
X100620285Y-84455000D01*
X100584000Y-84491285D01*
X100547714Y-84563857D01*
X100547714Y-84745285D01*
X100584000Y-84817857D01*
X100620285Y-84854142D01*
X100692857Y-84890428D01*
X100838000Y-84890428D01*
X100910571Y-84854142D01*
X100946857Y-84817857D01*
X100983142Y-84745285D01*
X101854000Y-84382428D02*
X101200857Y-85362142D01*
X101999142Y-84418714D02*
X102253142Y-85180714D01*
X102507142Y-84418714D01*
X102761142Y-85180714D02*
X102761142Y-84418714D01*
X103196571Y-85180714D01*
X103196571Y-84418714D01*
D11*
X99138619Y-89347523D02*
X99924809Y-89347523D01*
X99501476Y-89831333D01*
X99682904Y-89831333D01*
X99803857Y-89891809D01*
X99864333Y-89952285D01*
X99924809Y-90073238D01*
X99924809Y-90375619D01*
X99864333Y-90496571D01*
X99803857Y-90557047D01*
X99682904Y-90617523D01*
X99320047Y-90617523D01*
X99199095Y-90557047D01*
X99138619Y-90496571D01*
X100287666Y-89347523D02*
X100711000Y-90617523D01*
X101134333Y-89347523D01*
X101436714Y-89347523D02*
X102222904Y-89347523D01*
X101799571Y-89831333D01*
X101981000Y-89831333D01*
X102101952Y-89891809D01*
X102162428Y-89952285D01*
X102222904Y-90073238D01*
X102222904Y-90375619D01*
X102162428Y-90496571D01*
X102101952Y-90557047D01*
X101981000Y-90617523D01*
X101618142Y-90617523D01*
X101497190Y-90557047D01*
X101436714Y-90496571D01*
D14*
X101116190Y-128741714D02*
X102083809Y-128741714D01*
X101600000Y-129225523D02*
X101600000Y-128257904D01*
X101116190Y-132043714D02*
X102083809Y-132043714D01*
D11*
X119507000Y-73152000D02*
X119507000Y-72136000D01*
X117983000Y-73152000D02*
X117983000Y-72136000D01*
D15*
X96326000Y-93786000D02*
X94996000Y-93786000D01*
X96326000Y-92456000D02*
X96326000Y-93786000D01*
X93726000Y-93786000D02*
X91126000Y-93786000D01*
X93726000Y-91186000D02*
X93726000Y-93786000D01*
X96326000Y-91186000D02*
X93726000Y-91186000D01*
X91126000Y-93786000D02*
X91126000Y-78426000D01*
X96326000Y-91186000D02*
X96326000Y-78426000D01*
X96326000Y-78426000D02*
X91126000Y-78426000D01*
D16*
X131592320Y-104444800D02*
X131925060Y-105176320D01*
X131592320Y-104536240D02*
X132773420Y-105549700D01*
X131706620Y-104399080D02*
X132323840Y-104726740D01*
X132026660Y-103979980D02*
X132636260Y-104086660D01*
X132862320Y-102821740D02*
X132140960Y-102969060D01*
X132621020Y-102128320D02*
X131965700Y-102494080D01*
X131752340Y-101259640D02*
X131333240Y-101846380D01*
X131165600Y-101008180D02*
X130944620Y-101693980D01*
X129900680Y-100992940D02*
X130068320Y-101602540D01*
X129466340Y-101252020D02*
X129641600Y-101610160D01*
X128468120Y-102029260D02*
X128925320Y-102318820D01*
X128292860Y-102509320D02*
X128734820Y-102669340D01*
X127967740Y-103753920D02*
X128673860Y-103626920D01*
X128216660Y-104399080D02*
X128780540Y-103919020D01*
X128882140Y-105298240D02*
X129247900Y-104536240D01*
X133672580Y-103245920D02*
X132204460Y-103332280D01*
X132681980Y-101061520D02*
X131569460Y-102128320D01*
X130416300Y-100004880D02*
X130421380Y-101518720D01*
X128155700Y-100980240D02*
X129217420Y-102087680D01*
X127170180Y-103266240D02*
X128587500Y-103205280D01*
X128206500Y-105470960D02*
X129059940Y-104449880D01*
D17*
X129222500Y-104040940D02*
X129529840Y-104307640D01*
X128892300Y-101127560D02*
X129875280Y-100634800D01*
X131071620Y-104632760D02*
X130949700Y-104348280D01*
X131208780Y-104178100D02*
X130954780Y-104343200D01*
X129707640Y-104175560D02*
X129933700Y-104350820D01*
X129339340Y-104061260D02*
X129598420Y-104399080D01*
X129115820Y-103840280D02*
X129209800Y-104010460D01*
X129115820Y-103840280D02*
X129209800Y-104010460D01*
X128978660Y-102986840D02*
X129110740Y-103809800D01*
X129402840Y-102250240D02*
X128983740Y-102981760D01*
X130274060Y-101820980D02*
X129402840Y-102250240D01*
X131089400Y-101988620D02*
X130274060Y-101828600D01*
X131599940Y-102417880D02*
X131089400Y-101988620D01*
X131833620Y-103090980D02*
X131599940Y-102417880D01*
X131828540Y-103596440D02*
X131828540Y-103078280D01*
X131452620Y-104307640D02*
X131828540Y-103596440D01*
X131274820Y-104429560D02*
X131452620Y-104307640D01*
X128003300Y-100408740D02*
X128887220Y-101130100D01*
X128247140Y-101762560D02*
X127645160Y-100853240D01*
X128242060Y-101757480D02*
X127855980Y-102755700D01*
X126712980Y-103024940D02*
X127828040Y-102778560D01*
X126855220Y-102969060D02*
X126855220Y-103619300D01*
X131231640Y-104371140D02*
X131759960Y-105752900D01*
X131622800Y-106050080D02*
X131236720Y-105069640D01*
X132151120Y-105722420D02*
X131622800Y-106050080D01*
X132834380Y-106055160D02*
X132013960Y-105526840D01*
X131970780Y-105750360D02*
X132847080Y-106370120D01*
X132857240Y-106365040D02*
X133540500Y-105674160D01*
X133253480Y-105590340D02*
X132768340Y-106121200D01*
X133286500Y-103954580D02*
X132905500Y-104935020D01*
X133182360Y-103987600D02*
X134305040Y-103776780D01*
X134320280Y-102798880D02*
X134317740Y-103756460D01*
X134236460Y-103540560D02*
X133129020Y-103764080D01*
X132933440Y-101770180D02*
X133299200Y-102638860D01*
X133548120Y-100888800D02*
X132844540Y-101879400D01*
X132849620Y-100190300D02*
X133543040Y-100881180D01*
X131833620Y-100865940D02*
X132844540Y-100192840D01*
X131147820Y-100479860D02*
X131953000Y-100817680D01*
X130931920Y-99390200D02*
X131157980Y-100561140D01*
X129966720Y-99390200D02*
X130931920Y-99390200D01*
X129956560Y-99397820D02*
X129755900Y-100423980D01*
X128968500Y-100792280D02*
X129872740Y-100413820D01*
X128033780Y-100144580D02*
X129004060Y-100860860D01*
X127347980Y-100860860D02*
X128021080Y-100147120D01*
X127368300Y-100896420D02*
X127962660Y-101749860D01*
X127629920Y-102580440D02*
X127965200Y-101747320D01*
X126560580Y-102778560D02*
X127731520Y-102575360D01*
X126563120Y-102781100D02*
X126563120Y-103766620D01*
X126563120Y-103774240D02*
X127635000Y-103969820D01*
X127325120Y-105681780D02*
X127922020Y-104818180D01*
X128054100Y-106377740D02*
X127332740Y-105684320D01*
X128887220Y-105806240D02*
X128061720Y-106370120D01*
X128899920Y-105816400D02*
X129245360Y-106037380D01*
X129283460Y-106019600D02*
X129933700Y-104350820D01*
D18*
X132849620Y-106210100D02*
X133403340Y-105664000D01*
X132783580Y-104769920D02*
X133403340Y-105656380D01*
X131660900Y-105836720D02*
X131086860Y-104396540D01*
X131998720Y-105651300D02*
X131660900Y-105836720D01*
X132834380Y-106217720D02*
X131998720Y-105651300D01*
X133189980Y-103858060D02*
X132783580Y-104769920D01*
X134203440Y-103687880D02*
X133189980Y-103858060D01*
X134203440Y-102852220D02*
X134203440Y-103687880D01*
X133121400Y-102623620D02*
X134203440Y-102852220D01*
X132781040Y-101686360D02*
X133121400Y-102623620D01*
X133398260Y-100896420D02*
X132781040Y-101686360D01*
X132844540Y-100347780D02*
X133398260Y-100893880D01*
X131940300Y-100980240D02*
X132844540Y-100345800D01*
X131025900Y-100535740D02*
X131927600Y-100985320D01*
X130812540Y-99517200D02*
X131025900Y-100535740D01*
X130045460Y-99496880D02*
X130830320Y-99496880D01*
X130053080Y-99509580D02*
X129847340Y-100523040D01*
X128948180Y-100949760D02*
X129794000Y-100543360D01*
X128059180Y-100307140D02*
X128887220Y-100959920D01*
D19*
X127510540Y-100865940D02*
X128010920Y-100332540D01*
D18*
X127520700Y-100888800D02*
X128076960Y-101739700D01*
X127749300Y-102656640D02*
X128097280Y-101790500D01*
X126700280Y-102872540D02*
X127718820Y-102692200D01*
D19*
X126712980Y-102885240D02*
X126707900Y-103672640D01*
D18*
X126702820Y-103662480D02*
X127652780Y-103880920D01*
X127680720Y-103903780D02*
X128038860Y-104787700D01*
X127505460Y-105664000D02*
X128038860Y-104830880D01*
D19*
X127490220Y-105664000D02*
X128054100Y-106202480D01*
D20*
X128066800Y-106202480D02*
X128846580Y-105671620D01*
D18*
X128856740Y-105653840D02*
X129174240Y-105859580D01*
D21*
X129202180Y-105839260D02*
X129753360Y-104416860D01*
D18*
X131097020Y-104394000D02*
G75*
G03*
X131467860Y-102529640I-746760J1117600D01*
G01*
X131478020Y-102544880D02*
G75*
G03*
X129552700Y-102346760I-1061720J-863600D01*
G01*
X129527300Y-102372160D02*
G75*
G03*
X129603500Y-104226360I965200J-889000D01*
G01*
D22*
X114982000Y-135286500D02*
X115082000Y-135286500D01*
X117682000Y-131286500D02*
X117582000Y-131286500D01*
D23*
X117682000Y-135286500D02*
X117582000Y-135286500D01*
X114982000Y-131286500D02*
X115082000Y-131286500D01*
X114982000Y-135286500D02*
X114982000Y-134686500D01*
D24*
X114893803Y-135486500D02*
G75*
G03*
X114893803Y-135486500I-111803J0D01*
G01*
D23*
X117682000Y-134086500D02*
X117682000Y-132486500D01*
X114982000Y-132486500D02*
X114982000Y-134086500D01*
X117682000Y-131286500D02*
X117682000Y-131886500D01*
X117682000Y-135286500D02*
X117682000Y-134686500D01*
X114982000Y-131286500D02*
X114982000Y-131886500D01*
D17*
X125715000Y-143106000D02*
X125715000Y-139956000D01*
X125715000Y-137356000D02*
X125715000Y-136331000D01*
X126665000Y-134481000D02*
X127540000Y-134481000D01*
X131540000Y-134456000D02*
X132415000Y-134456000D01*
X133365000Y-136281000D02*
X133365000Y-137331000D01*
X133365000Y-139856000D02*
X133365000Y-143056000D01*
D15*
X113365500Y-121793500D02*
X113365500Y-122768500D01*
X116615500Y-119518500D02*
X116615500Y-120493500D01*
X116615500Y-121793500D02*
X116615500Y-122768500D01*
X113365500Y-119518500D02*
X113365500Y-120493500D01*
X116390500Y-122768500D02*
X116615500Y-122768500D01*
X113590500Y-122768500D02*
X113365500Y-122768500D01*
X113365500Y-119518500D02*
X113590500Y-119518500D01*
X110870000Y-94090000D02*
X108970000Y-94090000D01*
X109470000Y-96410000D02*
X110870000Y-96410000D01*
D11*
X133743700Y-125907800D02*
X133743700Y-124777500D01*
X130937000Y-125907800D02*
X130937000Y-124777500D01*
D15*
X163830000Y-102022000D02*
X162330000Y-102022000D01*
X165330000Y-105242000D02*
X162330000Y-105242000D01*
D11*
X120476800Y-125148300D02*
X119346500Y-125148300D01*
X120476800Y-127955000D02*
X119346500Y-127955000D01*
X159222400Y-130005000D02*
X159222400Y-130792400D01*
X159222400Y-130792400D02*
X158562000Y-130792400D01*
X157038000Y-130792400D02*
X156377600Y-130792400D01*
X156377600Y-130792400D02*
X156377600Y-130005000D01*
X158003200Y-129471600D02*
X157596800Y-129471600D01*
X140779500Y-128016000D02*
X146240500Y-128016000D01*
X146240500Y-135636000D02*
X140779500Y-135636000D01*
X140779500Y-128016000D02*
X140779500Y-135636000D01*
X146240500Y-135636000D02*
X146240500Y-128016000D01*
X146240500Y-128397000D02*
X140779500Y-128397000D01*
D15*
X152722000Y-77876000D02*
X153772000Y-77876000D01*
X151602000Y-83096000D02*
X150552000Y-83096000D01*
X152722000Y-83096000D02*
X153772000Y-83096000D01*
D11*
X123825000Y-120650000D02*
X124841000Y-120650000D01*
X123825000Y-119126000D02*
X124841000Y-119126000D01*
X110744000Y-121285000D02*
X110744000Y-120269000D01*
X109220000Y-121285000D02*
X109220000Y-120269000D01*
X113157000Y-123571000D02*
X112141000Y-123571000D01*
X113157000Y-125095000D02*
X112141000Y-125095000D01*
X109601000Y-98298000D02*
X110617000Y-98298000D01*
X109601000Y-96774000D02*
X110617000Y-96774000D01*
X106680000Y-97917000D02*
X106680000Y-98933000D01*
X108204000Y-97917000D02*
X108204000Y-98933000D01*
X106426000Y-102489000D02*
X106426000Y-101473000D01*
X104902000Y-102489000D02*
X104902000Y-101473000D01*
X106426000Y-98933000D02*
X106426000Y-97917000D01*
X104902000Y-98933000D02*
X104902000Y-97917000D01*
X102870000Y-102489000D02*
X102870000Y-101473000D01*
X101346000Y-102489000D02*
X101346000Y-101473000D01*
X102870000Y-98933000D02*
X102870000Y-97917000D01*
X101346000Y-98933000D02*
X101346000Y-97917000D01*
X135509000Y-125857000D02*
X135509000Y-124841000D01*
X133985000Y-125857000D02*
X133985000Y-124841000D01*
X141351000Y-79248000D02*
X142367000Y-79248000D01*
X141351000Y-77724000D02*
X142367000Y-77724000D01*
X114173000Y-132651500D02*
X114173000Y-131635500D01*
X112649000Y-132651500D02*
X112649000Y-131635500D01*
X116459000Y-128206500D02*
X117983000Y-128206500D01*
X116459000Y-130492500D02*
X117983000Y-130492500D01*
X162433000Y-99568000D02*
X161417000Y-99568000D01*
X162433000Y-101092000D02*
X161417000Y-101092000D01*
X118237000Y-81534000D02*
X117221000Y-81534000D01*
X118237000Y-83058000D02*
X117221000Y-83058000D01*
X118237000Y-79756000D02*
X117221000Y-79756000D01*
X118237000Y-81280000D02*
X117221000Y-81280000D01*
X137287000Y-125857000D02*
X137287000Y-124841000D01*
X135763000Y-125857000D02*
X135763000Y-124841000D01*
X125222000Y-124587000D02*
X125222000Y-125603000D01*
X126746000Y-124587000D02*
X126746000Y-125603000D01*
X115189000Y-125349000D02*
X114173000Y-125349000D01*
X115189000Y-126873000D02*
X114173000Y-126873000D01*
X117221000Y-87884000D02*
X118237000Y-87884000D01*
X117221000Y-86360000D02*
X118237000Y-86360000D01*
X96647000Y-121920000D02*
X95631000Y-121920000D01*
X96647000Y-123444000D02*
X95631000Y-123444000D01*
X122174000Y-134239000D02*
X122174000Y-135255000D01*
X123698000Y-134239000D02*
X123698000Y-135255000D01*
X157099000Y-134112000D02*
X158115000Y-134112000D01*
X157099000Y-132588000D02*
X158115000Y-132588000D01*
X149479000Y-132588000D02*
X150495000Y-132588000D01*
X149479000Y-131064000D02*
X150495000Y-131064000D01*
X149479000Y-134366000D02*
X150495000Y-134366000D01*
X149479000Y-132842000D02*
X150495000Y-132842000D01*
X144018000Y-126365000D02*
X144018000Y-125349000D01*
X142494000Y-126365000D02*
X142494000Y-125349000D01*
X142240000Y-126365000D02*
X142240000Y-125349000D01*
X140716000Y-126365000D02*
X140716000Y-125349000D01*
X96647000Y-123698000D02*
X95631000Y-123698000D01*
X96647000Y-125222000D02*
X95631000Y-125222000D01*
X154396440Y-132064760D02*
X154396440Y-131353560D01*
X153558240Y-131353560D02*
X154396440Y-131353560D01*
X153558240Y-134198360D02*
X154396440Y-134198360D01*
X154396440Y-134198360D02*
X154396440Y-133487160D01*
X154396440Y-128892300D02*
X154396440Y-128181100D01*
X153558240Y-128181100D02*
X154396440Y-128181100D01*
X153558240Y-131025900D02*
X154396440Y-131025900D01*
X154396440Y-131025900D02*
X154396440Y-130314700D01*
X138430000Y-137414000D02*
X138938000Y-137414000D01*
X138430000Y-139954000D02*
X138938000Y-139954000D01*
X94615000Y-120675400D02*
X94615000Y-121716800D01*
X94449900Y-121602500D02*
X94449900Y-120777000D01*
X94602300Y-120637300D02*
X94462600Y-120764300D01*
X94602300Y-121729500D02*
X94449900Y-121602500D01*
D25*
X96041200Y-120933400D02*
X96171200Y-120823400D01*
X96181200Y-120803400D02*
X96101200Y-120813400D01*
X96181200Y-120803400D02*
X96181200Y-120883400D01*
X95965800Y-120803400D02*
X95965800Y-120883400D01*
X95965800Y-120803400D02*
X95885800Y-120813400D01*
X95834200Y-120912400D02*
X95964200Y-120802400D01*
D26*
X95912000Y-121268000D02*
X95912000Y-121048000D01*
X96102000Y-121048000D02*
X96002000Y-121148000D01*
X96102000Y-121268000D02*
X95992000Y-121168000D01*
X96102000Y-121268000D02*
X96102000Y-121048000D01*
X96272000Y-121158000D02*
X95752000Y-121158000D01*
D22*
X95631000Y-121793000D02*
X94615000Y-121793000D01*
X94615000Y-120573800D02*
X95631000Y-120573800D01*
X100862000Y-104140000D02*
G75*
G03*
X100862000Y-104140000I-4850000J0D01*
G01*
D10*
X101555000Y-105881000D02*
G75*
G03*
X101555000Y-105881000I-100000J0D01*
G01*
D15*
X113992000Y-117678000D02*
X113592000Y-117678000D01*
X113992000Y-114478000D02*
X113592000Y-114478000D01*
D27*
X133465000Y-121365000D02*
X133815000Y-121365000D01*
X131965000Y-121365000D02*
X131615000Y-121365000D01*
D11*
X131215000Y-121415000D02*
X131215000Y-121015000D01*
X134215000Y-121415000D02*
X134215000Y-121015000D01*
D27*
X132465000Y-121315000D02*
G75*
G02*
X132965000Y-121315000I250000J0D01*
G01*
X131965000Y-121315000D02*
G75*
G02*
X132465000Y-121315000I250000J0D01*
G01*
X132965000Y-121315000D02*
G75*
G02*
X133465000Y-121315000I250000J0D01*
G01*
D11*
X122732800Y-124333000D02*
X122021600Y-124333000D01*
X122021600Y-125171200D02*
X122021600Y-124333000D01*
X124866400Y-125171200D02*
X124866400Y-124333000D01*
X124866400Y-124333000D02*
X124155200Y-124333000D01*
X102870000Y-94361000D02*
X102870000Y-93345000D01*
X101346000Y-94361000D02*
X101346000Y-93345000D01*
X106426000Y-94361000D02*
X106426000Y-93345000D01*
X104902000Y-94361000D02*
X104902000Y-93345000D01*
X128270000Y-127174000D02*
X123270000Y-127174000D01*
X126900000Y-129874000D02*
X126900000Y-127174000D01*
X123270000Y-129874000D02*
X128270000Y-129874000D01*
X126460000Y-129874000D02*
X126460000Y-127174000D01*
X123317000Y-132858500D02*
X128317000Y-132858500D01*
X124687000Y-130158500D02*
X124687000Y-132858500D01*
X128317000Y-130158500D02*
X123317000Y-130158500D01*
X125127000Y-130158500D02*
X125127000Y-132858500D01*
X94615000Y-125501400D02*
X94615000Y-126542800D01*
X94449900Y-126428500D02*
X94449900Y-125603000D01*
X94602300Y-125463300D02*
X94462600Y-125590300D01*
X94602300Y-126555500D02*
X94449900Y-126428500D01*
D25*
X96041200Y-125759400D02*
X96171200Y-125649400D01*
X96181200Y-125629400D02*
X96101200Y-125639400D01*
X96181200Y-125629400D02*
X96181200Y-125709400D01*
X95965800Y-125629400D02*
X95965800Y-125709400D01*
X95965800Y-125629400D02*
X95885800Y-125639400D01*
X95834200Y-125738400D02*
X95964200Y-125628400D01*
D26*
X95912000Y-126094000D02*
X95912000Y-125874000D01*
X96102000Y-125874000D02*
X96002000Y-125974000D01*
X96102000Y-126094000D02*
X95992000Y-125994000D01*
X96102000Y-126094000D02*
X96102000Y-125874000D01*
X96272000Y-125984000D02*
X95752000Y-125984000D01*
D22*
X95631000Y-126619000D02*
X94615000Y-126619000D01*
X94615000Y-125399800D02*
X95631000Y-125399800D01*
D11*
X120904000Y-120269000D02*
X120904000Y-121285000D01*
X122428000Y-120269000D02*
X122428000Y-121285000D01*
X119126000Y-120269000D02*
X119126000Y-121285000D01*
X120650000Y-120269000D02*
X120650000Y-121285000D01*
X117348000Y-120269000D02*
X117348000Y-121285000D01*
X118872000Y-120269000D02*
X118872000Y-121285000D01*
X110998000Y-120269000D02*
X110998000Y-121285000D01*
X112522000Y-120269000D02*
X112522000Y-121285000D01*
X135890000Y-121285000D02*
X136906000Y-121285000D01*
X135890000Y-119253000D02*
X136906000Y-119253000D01*
X110617000Y-98552000D02*
X109601000Y-98552000D01*
X110617000Y-100076000D02*
X109601000Y-100076000D01*
X106680000Y-101473000D02*
X106680000Y-102489000D01*
X108204000Y-101473000D02*
X108204000Y-102489000D01*
X103124000Y-101473000D02*
X103124000Y-102489000D01*
X104648000Y-101473000D02*
X104648000Y-102489000D01*
X101092000Y-98933000D02*
X101092000Y-97917000D01*
X99568000Y-98933000D02*
X99568000Y-97917000D01*
X131064000Y-129540000D02*
X132080000Y-129540000D01*
X131064000Y-127508000D02*
X132080000Y-127508000D01*
X117221000Y-136207500D02*
X116205000Y-136207500D01*
X117221000Y-137731500D02*
X116205000Y-137731500D01*
X119761000Y-134810500D02*
X119761000Y-133794500D01*
X118237000Y-134810500D02*
X118237000Y-133794500D01*
X160655000Y-103378000D02*
X159639000Y-103378000D01*
X160655000Y-104902000D02*
X159639000Y-104902000D01*
X160655000Y-101600000D02*
X159639000Y-101600000D01*
X160655000Y-103124000D02*
X159639000Y-103124000D01*
X119888000Y-129667000D02*
X119888000Y-130683000D01*
X121920000Y-129667000D02*
X121920000Y-130683000D01*
X135890000Y-131699000D02*
X135890000Y-132715000D01*
X137414000Y-131699000D02*
X137414000Y-132715000D01*
X149606000Y-129667000D02*
X149606000Y-128651000D01*
X148082000Y-129667000D02*
X148082000Y-128651000D01*
X136398000Y-139065000D02*
X136398000Y-138049000D01*
X134874000Y-139065000D02*
X134874000Y-138049000D01*
X140970000Y-138049000D02*
X140970000Y-139065000D01*
X142494000Y-138049000D02*
X142494000Y-139065000D01*
X150368000Y-82677000D02*
X150368000Y-81661000D01*
X148844000Y-82677000D02*
X148844000Y-81661000D01*
X148844000Y-78105000D02*
X148844000Y-79121000D01*
X150368000Y-78105000D02*
X150368000Y-79121000D01*
X105133140Y-133393180D02*
X111450122Y-133393180D01*
X105133140Y-127312420D02*
X105133140Y-133393180D01*
X111442500Y-127312420D02*
X105133140Y-127312420D01*
X111450120Y-127317500D02*
X111450120Y-128371600D01*
X111450120Y-132384800D02*
X111450120Y-133388100D01*
D22*
X162330000Y-123412000D02*
X162330000Y-119412000D01*
X165330000Y-123412000D02*
X165330000Y-119412000D01*
X162333000Y-119412000D02*
X162891800Y-119412000D01*
X164769000Y-119412000D02*
X165327800Y-119412000D01*
X162332200Y-123412000D02*
X162941800Y-123412000D01*
X164769000Y-123412000D02*
X165327800Y-123412000D01*
X164669738Y-121412000D02*
G75*
G03*
X164669738Y-121412000I-839738J0D01*
G01*
X162358000Y-88233000D02*
X162358000Y-84233000D01*
X165358000Y-88233000D02*
X165358000Y-84233000D01*
X162361000Y-84233000D02*
X162919800Y-84233000D01*
X164797000Y-84233000D02*
X165355800Y-84233000D01*
X162360200Y-88233000D02*
X162969800Y-88233000D01*
X164797000Y-88233000D02*
X165355800Y-88233000D01*
X164697738Y-86233000D02*
G75*
G03*
X164697738Y-86233000I-839738J0D01*
G01*
D11*
X117729000Y-73533000D02*
X117729000Y-74549000D01*
X116205000Y-73533000D02*
X116205000Y-74549000D01*
X141351000Y-87884000D02*
X142367000Y-87884000D01*
X141351000Y-89408000D02*
X142367000Y-89408000D01*
X120794000Y-64466000D02*
X138794000Y-64466000D01*
X120794000Y-70466000D02*
X138794000Y-70466000D01*
X120203411Y-70686000D02*
G75*
G03*
X120203411Y-70686000I-339411J0D01*
G01*
X138794000Y-64466000D02*
X138794000Y-71086000D01*
X120794000Y-89966000D02*
X120794000Y-89376000D01*
X120794000Y-89966000D02*
X123164000Y-89966000D01*
X138794000Y-89966000D02*
X136304000Y-89966000D01*
X138794000Y-89966000D02*
X138794000Y-89426000D01*
X120794000Y-64466000D02*
X120794000Y-71086000D01*
X165255000Y-81686800D02*
X165255000Y-80645400D01*
X165420100Y-80759700D02*
X165420100Y-81585200D01*
X165267700Y-81724900D02*
X165407400Y-81597900D01*
X165267700Y-80632700D02*
X165420100Y-80759700D01*
D25*
X163828800Y-81428800D02*
X163698800Y-81538800D01*
X163688800Y-81558800D02*
X163768800Y-81548800D01*
X163688800Y-81558800D02*
X163688800Y-81478800D01*
X163904200Y-81558800D02*
X163904200Y-81478800D01*
X163904200Y-81558800D02*
X163984200Y-81548800D01*
X164035800Y-81449800D02*
X163905800Y-81559800D01*
D26*
X163958000Y-81094200D02*
X163958000Y-81314200D01*
X163768000Y-81314200D02*
X163868000Y-81214200D01*
X163768000Y-81094200D02*
X163878000Y-81194200D01*
X163768000Y-81094200D02*
X163768000Y-81314200D01*
X163598000Y-81204200D02*
X164118000Y-81204200D01*
D22*
X164239000Y-80569200D02*
X165255000Y-80569200D01*
X165255000Y-81788400D02*
X164239000Y-81788400D01*
D11*
X165227000Y-126720600D02*
X165227000Y-125679200D01*
X165392100Y-125793500D02*
X165392100Y-126619000D01*
X165239700Y-126758700D02*
X165379400Y-126631700D01*
X165239700Y-125666500D02*
X165392100Y-125793500D01*
D25*
X163800800Y-126462600D02*
X163670800Y-126572600D01*
X163660800Y-126592600D02*
X163740800Y-126582600D01*
X163660800Y-126592600D02*
X163660800Y-126512600D01*
X163876200Y-126592600D02*
X163876200Y-126512600D01*
X163876200Y-126592600D02*
X163956200Y-126582600D01*
X164007800Y-126483600D02*
X163877800Y-126593600D01*
D26*
X163930000Y-126128000D02*
X163930000Y-126348000D01*
X163740000Y-126348000D02*
X163840000Y-126248000D01*
X163740000Y-126128000D02*
X163850000Y-126228000D01*
X163740000Y-126128000D02*
X163740000Y-126348000D01*
X163570000Y-126238000D02*
X164090000Y-126238000D01*
D22*
X164211000Y-125603000D02*
X165227000Y-125603000D01*
X165227000Y-126822200D02*
X164211000Y-126822200D01*
D11*
X163385500Y-78803500D02*
X164401500Y-78803500D01*
X163385500Y-80327500D02*
X164401500Y-80327500D01*
X163322000Y-128600200D02*
X164338000Y-128600200D01*
X163322000Y-127076200D02*
X164338000Y-127076200D01*
X159893000Y-83312000D02*
X160909000Y-83312000D01*
X159893000Y-84836000D02*
X160909000Y-84836000D01*
D28*
X117955785Y-70584785D02*
X117925547Y-70615023D01*
X117834833Y-70645261D01*
X117774357Y-70645261D01*
X117683642Y-70615023D01*
X117623166Y-70554547D01*
X117592928Y-70494071D01*
X117562690Y-70373119D01*
X117562690Y-70282404D01*
X117592928Y-70161452D01*
X117623166Y-70100976D01*
X117683642Y-70040500D01*
X117774357Y-70010261D01*
X117834833Y-70010261D01*
X117925547Y-70040500D01*
X117955785Y-70070738D01*
X118197690Y-70070738D02*
X118227928Y-70040500D01*
X118288404Y-70010261D01*
X118439595Y-70010261D01*
X118500071Y-70040500D01*
X118530309Y-70070738D01*
X118560547Y-70131214D01*
X118560547Y-70191690D01*
X118530309Y-70282404D01*
X118167452Y-70645261D01*
X118560547Y-70645261D01*
X118802452Y-70070738D02*
X118832690Y-70040500D01*
X118893166Y-70010261D01*
X119044357Y-70010261D01*
X119104833Y-70040500D01*
X119135071Y-70070738D01*
X119165309Y-70131214D01*
X119165309Y-70191690D01*
X119135071Y-70282404D01*
X118772214Y-70645261D01*
X119165309Y-70645261D01*
D17*
X93392666Y-94238380D02*
X93392666Y-94952666D01*
X93345047Y-95095523D01*
X93249809Y-95190761D01*
X93106952Y-95238380D01*
X93011714Y-95238380D01*
X94392666Y-95238380D02*
X93821238Y-95238380D01*
X94106952Y-95238380D02*
X94106952Y-94238380D01*
X94011714Y-94381238D01*
X93916476Y-94476476D01*
X93821238Y-94524095D01*
D11*
X125482701Y-108051379D02*
X125377940Y-107998998D01*
X125325559Y-107946617D01*
X125273178Y-107841855D01*
X125273178Y-107527569D01*
X125325559Y-107422807D01*
X125377940Y-107370426D01*
X125482701Y-107318045D01*
X125639844Y-107318045D01*
X125744606Y-107370426D01*
X125796987Y-107422807D01*
X125849368Y-107527569D01*
X125849368Y-107841855D01*
X125796987Y-107946617D01*
X125744606Y-107998998D01*
X125639844Y-108051379D01*
X125482701Y-108051379D01*
X126320797Y-107318045D02*
X126320797Y-108418045D01*
X126320797Y-107370426D02*
X126425559Y-107318045D01*
X126635082Y-107318045D01*
X126739844Y-107370426D01*
X126792225Y-107422807D01*
X126844606Y-107527569D01*
X126844606Y-107841855D01*
X126792225Y-107946617D01*
X126739844Y-107998998D01*
X126635082Y-108051379D01*
X126425559Y-108051379D01*
X126320797Y-107998998D01*
X127735082Y-107998998D02*
X127630320Y-108051379D01*
X127420797Y-108051379D01*
X127316035Y-107998998D01*
X127263654Y-107894236D01*
X127263654Y-107475188D01*
X127316035Y-107370426D01*
X127420797Y-107318045D01*
X127630320Y-107318045D01*
X127735082Y-107370426D01*
X127787463Y-107475188D01*
X127787463Y-107579950D01*
X127263654Y-107684712D01*
X128258892Y-107318045D02*
X128258892Y-108051379D01*
X128258892Y-107422807D02*
X128311273Y-107370426D01*
X128416035Y-107318045D01*
X128573178Y-107318045D01*
X128677940Y-107370426D01*
X128730320Y-107475188D01*
X128730320Y-108051379D01*
D29*
X129798202Y-108097580D02*
X129798202Y-107097580D01*
X130226774Y-108097580D02*
X130226774Y-107573771D01*
X130179155Y-107478533D01*
X130083917Y-107430914D01*
X129941060Y-107430914D01*
X129845821Y-107478533D01*
X129798202Y-107526152D01*
X131131536Y-108097580D02*
X131131536Y-107573771D01*
X131083917Y-107478533D01*
X130988679Y-107430914D01*
X130798202Y-107430914D01*
X130702964Y-107478533D01*
X131131536Y-108049961D02*
X131036298Y-108097580D01*
X130798202Y-108097580D01*
X130702964Y-108049961D01*
X130655345Y-107954723D01*
X130655345Y-107859485D01*
X130702964Y-107764247D01*
X130798202Y-107716628D01*
X131036298Y-107716628D01*
X131131536Y-107669009D01*
X131607726Y-108097580D02*
X131607726Y-107430914D01*
X131607726Y-107621390D02*
X131655345Y-107526152D01*
X131702964Y-107478533D01*
X131798202Y-107430914D01*
X131893440Y-107430914D01*
X132655345Y-108097580D02*
X132655345Y-107097580D01*
X132655345Y-108049961D02*
X132560107Y-108097580D01*
X132369631Y-108097580D01*
X132274393Y-108049961D01*
X132226774Y-108002342D01*
X132179155Y-107907104D01*
X132179155Y-107621390D01*
X132226774Y-107526152D01*
X132274393Y-107478533D01*
X132369631Y-107430914D01*
X132560107Y-107430914D01*
X132655345Y-107478533D01*
X133036298Y-107430914D02*
X133226774Y-108097580D01*
X133417250Y-107621390D01*
X133607726Y-108097580D01*
X133798202Y-107430914D01*
X134607726Y-108097580D02*
X134607726Y-107573771D01*
X134560107Y-107478533D01*
X134464869Y-107430914D01*
X134274393Y-107430914D01*
X134179155Y-107478533D01*
X134607726Y-108049961D02*
X134512488Y-108097580D01*
X134274393Y-108097580D01*
X134179155Y-108049961D01*
X134131536Y-107954723D01*
X134131536Y-107859485D01*
X134179155Y-107764247D01*
X134274393Y-107716628D01*
X134512488Y-107716628D01*
X134607726Y-107669009D01*
X135083917Y-108097580D02*
X135083917Y-107430914D01*
X135083917Y-107621390D02*
X135131536Y-107526152D01*
X135179155Y-107478533D01*
X135274393Y-107430914D01*
X135369631Y-107430914D01*
X136083917Y-108049961D02*
X135988679Y-108097580D01*
X135798202Y-108097580D01*
X135702964Y-108049961D01*
X135655345Y-107954723D01*
X135655345Y-107573771D01*
X135702964Y-107478533D01*
X135798202Y-107430914D01*
X135988679Y-107430914D01*
X136083917Y-107478533D01*
X136131536Y-107573771D01*
X136131536Y-107669009D01*
X135655345Y-107764247D01*
D17*
X105386761Y-137620380D02*
X105386761Y-136620380D01*
X105386761Y-137001333D02*
X105482000Y-136953714D01*
X105672476Y-136953714D01*
X105767714Y-137001333D01*
X105815333Y-137048952D01*
X105862952Y-137144190D01*
X105862952Y-137429904D01*
X105815333Y-137525142D01*
X105767714Y-137572761D01*
X105672476Y-137620380D01*
X105482000Y-137620380D01*
X105386761Y-137572761D01*
X106720095Y-136953714D02*
X106720095Y-137953714D01*
X106720095Y-137572761D02*
X106624857Y-137620380D01*
X106434380Y-137620380D01*
X106339142Y-137572761D01*
X106291523Y-137525142D01*
X106243904Y-137429904D01*
X106243904Y-137144190D01*
X106291523Y-137048952D01*
X106339142Y-137001333D01*
X106434380Y-136953714D01*
X106624857Y-136953714D01*
X106720095Y-137001333D01*
X107148666Y-136715619D02*
X107196285Y-136668000D01*
X107291523Y-136620380D01*
X107529619Y-136620380D01*
X107624857Y-136668000D01*
X107672476Y-136715619D01*
X107720095Y-136810857D01*
X107720095Y-136906095D01*
X107672476Y-137048952D01*
X107101047Y-137620380D01*
X107720095Y-137620380D01*
X108053428Y-136620380D02*
X108720095Y-136620380D01*
X108291523Y-137620380D01*
X109529619Y-136953714D02*
X109529619Y-137620380D01*
X109291523Y-136572761D02*
X109053428Y-137287047D01*
X109672476Y-137287047D01*
X110482000Y-136953714D02*
X110482000Y-137620380D01*
X110243904Y-136572761D02*
X110005809Y-137287047D01*
X110624857Y-137287047D01*
X111529619Y-137620380D02*
X110958190Y-137620380D01*
X111243904Y-137620380D02*
X111243904Y-136620380D01*
X111148666Y-136763238D01*
X111053428Y-136858476D01*
X110958190Y-136906095D01*
X111958190Y-137239428D02*
X112720095Y-137239428D01*
X113624857Y-136953714D02*
X113624857Y-137763238D01*
X113577238Y-137858476D01*
X113529619Y-137906095D01*
X113434380Y-137953714D01*
X113291523Y-137953714D01*
X113196285Y-137906095D01*
X113624857Y-137572761D02*
X113529619Y-137620380D01*
X113339142Y-137620380D01*
X113243904Y-137572761D01*
X113196285Y-137525142D01*
X113148666Y-137429904D01*
X113148666Y-137144190D01*
X113196285Y-137048952D01*
X113243904Y-137001333D01*
X113339142Y-136953714D01*
X113529619Y-136953714D01*
X113624857Y-137001333D01*
X114624857Y-137620380D02*
X114053428Y-137620380D01*
X114339142Y-137620380D02*
X114339142Y-136620380D01*
X114243904Y-136763238D01*
X114148666Y-136858476D01*
X114053428Y-136906095D01*
D28*
X124112261Y-142106952D02*
X124626309Y-142106952D01*
X124686785Y-142076714D01*
X124717023Y-142046476D01*
X124747261Y-141986000D01*
X124747261Y-141865047D01*
X124717023Y-141804571D01*
X124686785Y-141774333D01*
X124626309Y-141744095D01*
X124112261Y-141744095D01*
X124717023Y-141471952D02*
X124747261Y-141381238D01*
X124747261Y-141230047D01*
X124717023Y-141169571D01*
X124686785Y-141139333D01*
X124626309Y-141109095D01*
X124565833Y-141109095D01*
X124505357Y-141139333D01*
X124475119Y-141169571D01*
X124444880Y-141230047D01*
X124414642Y-141351000D01*
X124384404Y-141411476D01*
X124354166Y-141441714D01*
X124293690Y-141471952D01*
X124233214Y-141471952D01*
X124172738Y-141441714D01*
X124142500Y-141411476D01*
X124112261Y-141351000D01*
X124112261Y-141199809D01*
X124142500Y-141109095D01*
X124414642Y-140625285D02*
X124444880Y-140534571D01*
X124475119Y-140504333D01*
X124535595Y-140474095D01*
X124626309Y-140474095D01*
X124686785Y-140504333D01*
X124717023Y-140534571D01*
X124747261Y-140595047D01*
X124747261Y-140836952D01*
X124112261Y-140836952D01*
X124112261Y-140625285D01*
X124142500Y-140564809D01*
X124172738Y-140534571D01*
X124233214Y-140504333D01*
X124293690Y-140504333D01*
X124354166Y-140534571D01*
X124384404Y-140564809D01*
X124414642Y-140625285D01*
X124414642Y-140836952D01*
X124505357Y-140201952D02*
X124505357Y-139718142D01*
X124112261Y-139415761D02*
X124626309Y-139415761D01*
X124686785Y-139385523D01*
X124717023Y-139355285D01*
X124747261Y-139294809D01*
X124747261Y-139173857D01*
X124717023Y-139113380D01*
X124686785Y-139083142D01*
X124626309Y-139052904D01*
X124112261Y-139052904D01*
X124565833Y-138780761D02*
X124565833Y-138478380D01*
X124747261Y-138841238D02*
X124112261Y-138629571D01*
X124747261Y-138417904D01*
X124747261Y-137843380D02*
X124444880Y-138055047D01*
X124747261Y-138206238D02*
X124112261Y-138206238D01*
X124112261Y-137964333D01*
X124142500Y-137903857D01*
X124172738Y-137873619D01*
X124233214Y-137843380D01*
X124323928Y-137843380D01*
X124384404Y-137873619D01*
X124414642Y-137903857D01*
X124444880Y-137964333D01*
X124444880Y-138206238D01*
X124112261Y-137661952D02*
X124112261Y-137299095D01*
X124747261Y-137480523D02*
X124112261Y-137480523D01*
X124747261Y-136754809D02*
X124747261Y-137117666D01*
X124747261Y-136936238D02*
X124112261Y-136936238D01*
X124202976Y-136996714D01*
X124263452Y-137057190D01*
X124293690Y-137117666D01*
X115545809Y-118143261D02*
X115545809Y-118657309D01*
X115576047Y-118717785D01*
X115606285Y-118748023D01*
X115666761Y-118778261D01*
X115787714Y-118778261D01*
X115848190Y-118748023D01*
X115878428Y-118717785D01*
X115908666Y-118657309D01*
X115908666Y-118143261D01*
X116543666Y-118778261D02*
X116180809Y-118778261D01*
X116362238Y-118778261D02*
X116362238Y-118143261D01*
X116301761Y-118233976D01*
X116241285Y-118294452D01*
X116180809Y-118324690D01*
X117148428Y-118778261D02*
X116785571Y-118778261D01*
X116967000Y-118778261D02*
X116967000Y-118143261D01*
X116906523Y-118233976D01*
X116846047Y-118294452D01*
X116785571Y-118324690D01*
X111989809Y-94267261D02*
X111989809Y-94781309D01*
X112020047Y-94841785D01*
X112050285Y-94872023D01*
X112110761Y-94902261D01*
X112231714Y-94902261D01*
X112292190Y-94872023D01*
X112322428Y-94841785D01*
X112352666Y-94781309D01*
X112352666Y-94267261D01*
X112987666Y-94902261D02*
X112624809Y-94902261D01*
X112806238Y-94902261D02*
X112806238Y-94267261D01*
X112745761Y-94357976D01*
X112685285Y-94418452D01*
X112624809Y-94448690D01*
X113380761Y-94267261D02*
X113441238Y-94267261D01*
X113501714Y-94297500D01*
X113531952Y-94327738D01*
X113562190Y-94388214D01*
X113592428Y-94509166D01*
X113592428Y-94660357D01*
X113562190Y-94781309D01*
X113531952Y-94841785D01*
X113501714Y-94872023D01*
X113441238Y-94902261D01*
X113380761Y-94902261D01*
X113320285Y-94872023D01*
X113290047Y-94841785D01*
X113259809Y-94781309D01*
X113229571Y-94660357D01*
X113229571Y-94509166D01*
X113259809Y-94388214D01*
X113290047Y-94327738D01*
X113320285Y-94297500D01*
X113380761Y-94267261D01*
X129691190Y-125001261D02*
X129691190Y-125515309D01*
X129721428Y-125575785D01*
X129751666Y-125606023D01*
X129812142Y-125636261D01*
X129933095Y-125636261D01*
X129993571Y-125606023D01*
X130023809Y-125575785D01*
X130054047Y-125515309D01*
X130054047Y-125001261D01*
X130386666Y-125636261D02*
X130507619Y-125636261D01*
X130568095Y-125606023D01*
X130598333Y-125575785D01*
X130658809Y-125485071D01*
X130689047Y-125364119D01*
X130689047Y-125122214D01*
X130658809Y-125061738D01*
X130628571Y-125031500D01*
X130568095Y-125001261D01*
X130447142Y-125001261D01*
X130386666Y-125031500D01*
X130356428Y-125061738D01*
X130326190Y-125122214D01*
X130326190Y-125273404D01*
X130356428Y-125333880D01*
X130386666Y-125364119D01*
X130447142Y-125394357D01*
X130568095Y-125394357D01*
X130628571Y-125364119D01*
X130658809Y-125333880D01*
X130689047Y-125273404D01*
X114832190Y-98712261D02*
X114832190Y-99226309D01*
X114862428Y-99286785D01*
X114892666Y-99317023D01*
X114953142Y-99347261D01*
X115074095Y-99347261D01*
X115134571Y-99317023D01*
X115164809Y-99286785D01*
X115195047Y-99226309D01*
X115195047Y-98712261D01*
X115588142Y-98984404D02*
X115527666Y-98954166D01*
X115497428Y-98923928D01*
X115467190Y-98863452D01*
X115467190Y-98833214D01*
X115497428Y-98772738D01*
X115527666Y-98742500D01*
X115588142Y-98712261D01*
X115709095Y-98712261D01*
X115769571Y-98742500D01*
X115799809Y-98772738D01*
X115830047Y-98833214D01*
X115830047Y-98863452D01*
X115799809Y-98923928D01*
X115769571Y-98954166D01*
X115709095Y-98984404D01*
X115588142Y-98984404D01*
X115527666Y-99014642D01*
X115497428Y-99044880D01*
X115467190Y-99105357D01*
X115467190Y-99226309D01*
X115497428Y-99286785D01*
X115527666Y-99317023D01*
X115588142Y-99347261D01*
X115709095Y-99347261D01*
X115769571Y-99317023D01*
X115799809Y-99286785D01*
X115830047Y-99226309D01*
X115830047Y-99105357D01*
X115799809Y-99044880D01*
X115769571Y-99014642D01*
X115709095Y-98984404D01*
X164446010Y-100960161D02*
X164446010Y-101474209D01*
X164476248Y-101534685D01*
X164506486Y-101564923D01*
X164566962Y-101595161D01*
X164687915Y-101595161D01*
X164748391Y-101564923D01*
X164778629Y-101534685D01*
X164808867Y-101474209D01*
X164808867Y-100960161D01*
X165383391Y-100960161D02*
X165262439Y-100960161D01*
X165201962Y-100990400D01*
X165171724Y-101020638D01*
X165111248Y-101111352D01*
X165081010Y-101232304D01*
X165081010Y-101474209D01*
X165111248Y-101534685D01*
X165141486Y-101564923D01*
X165201962Y-101595161D01*
X165322915Y-101595161D01*
X165383391Y-101564923D01*
X165413629Y-101534685D01*
X165443867Y-101474209D01*
X165443867Y-101323019D01*
X165413629Y-101262542D01*
X165383391Y-101232304D01*
X165322915Y-101202066D01*
X165201962Y-101202066D01*
X165141486Y-101232304D01*
X165111248Y-101262542D01*
X165081010Y-101323019D01*
X116864190Y-125318761D02*
X116864190Y-125832809D01*
X116894428Y-125893285D01*
X116924666Y-125923523D01*
X116985142Y-125953761D01*
X117106095Y-125953761D01*
X117166571Y-125923523D01*
X117196809Y-125893285D01*
X117227047Y-125832809D01*
X117227047Y-125318761D01*
X117801571Y-125530428D02*
X117801571Y-125953761D01*
X117650380Y-125288523D02*
X117499190Y-125742095D01*
X117892285Y-125742095D01*
X157250190Y-127160261D02*
X157250190Y-127674309D01*
X157280428Y-127734785D01*
X157310666Y-127765023D01*
X157371142Y-127795261D01*
X157492095Y-127795261D01*
X157552571Y-127765023D01*
X157582809Y-127734785D01*
X157613047Y-127674309D01*
X157613047Y-127160261D01*
X157854952Y-127160261D02*
X158248047Y-127160261D01*
X158036380Y-127402166D01*
X158127095Y-127402166D01*
X158187571Y-127432404D01*
X158217809Y-127462642D01*
X158248047Y-127523119D01*
X158248047Y-127674309D01*
X158217809Y-127734785D01*
X158187571Y-127765023D01*
X158127095Y-127795261D01*
X157945666Y-127795261D01*
X157885190Y-127765023D01*
X157854952Y-127734785D01*
X145058190Y-126906261D02*
X145058190Y-127420309D01*
X145088428Y-127480785D01*
X145118666Y-127511023D01*
X145179142Y-127541261D01*
X145300095Y-127541261D01*
X145360571Y-127511023D01*
X145390809Y-127480785D01*
X145421047Y-127420309D01*
X145421047Y-126906261D01*
X145693190Y-126966738D02*
X145723428Y-126936500D01*
X145783904Y-126906261D01*
X145935095Y-126906261D01*
X145995571Y-126936500D01*
X146025809Y-126966738D01*
X146056047Y-127027214D01*
X146056047Y-127087690D01*
X146025809Y-127178404D01*
X145662952Y-127541261D01*
X146056047Y-127541261D01*
D11*
X140413619Y-128088571D02*
X140365238Y-128185333D01*
X140316857Y-128233714D01*
X140220095Y-128282095D01*
X139929809Y-128282095D01*
X139833047Y-128233714D01*
X139784666Y-128185333D01*
X139736285Y-128088571D01*
X139736285Y-127943428D01*
X139784666Y-127846666D01*
X139833047Y-127798285D01*
X139929809Y-127749904D01*
X140220095Y-127749904D01*
X140316857Y-127798285D01*
X140365238Y-127846666D01*
X140413619Y-127943428D01*
X140413619Y-128088571D01*
D28*
X151678190Y-76688261D02*
X151678190Y-77202309D01*
X151708428Y-77262785D01*
X151738666Y-77293023D01*
X151799142Y-77323261D01*
X151920095Y-77323261D01*
X151980571Y-77293023D01*
X152010809Y-77262785D01*
X152041047Y-77202309D01*
X152041047Y-76688261D01*
X152676047Y-77323261D02*
X152313190Y-77323261D01*
X152494619Y-77323261D02*
X152494619Y-76688261D01*
X152434142Y-76778976D01*
X152373666Y-76839452D01*
X152313190Y-76869690D01*
X123416785Y-118524261D02*
X123205119Y-118221880D01*
X123053928Y-118524261D02*
X123053928Y-117889261D01*
X123295833Y-117889261D01*
X123356309Y-117919500D01*
X123386547Y-117949738D01*
X123416785Y-118010214D01*
X123416785Y-118100928D01*
X123386547Y-118161404D01*
X123356309Y-118191642D01*
X123295833Y-118221880D01*
X123053928Y-118221880D01*
X123628452Y-117889261D02*
X124021547Y-117889261D01*
X123809880Y-118131166D01*
X123900595Y-118131166D01*
X123961071Y-118161404D01*
X123991309Y-118191642D01*
X124021547Y-118252119D01*
X124021547Y-118403309D01*
X123991309Y-118463785D01*
X123961071Y-118494023D01*
X123900595Y-118524261D01*
X123719166Y-118524261D01*
X123658690Y-118494023D01*
X123628452Y-118463785D01*
X124233214Y-117889261D02*
X124626309Y-117889261D01*
X124414642Y-118131166D01*
X124505357Y-118131166D01*
X124565833Y-118161404D01*
X124596071Y-118191642D01*
X124626309Y-118252119D01*
X124626309Y-118403309D01*
X124596071Y-118463785D01*
X124565833Y-118494023D01*
X124505357Y-118524261D01*
X124323928Y-118524261D01*
X124263452Y-118494023D01*
X124233214Y-118463785D01*
X109319785Y-118905261D02*
X109108119Y-118602880D01*
X108956928Y-118905261D02*
X108956928Y-118270261D01*
X109198833Y-118270261D01*
X109259309Y-118300500D01*
X109289547Y-118330738D01*
X109319785Y-118391214D01*
X109319785Y-118481928D01*
X109289547Y-118542404D01*
X109259309Y-118572642D01*
X109198833Y-118602880D01*
X108956928Y-118602880D01*
X109531452Y-118270261D02*
X109924547Y-118270261D01*
X109712880Y-118512166D01*
X109803595Y-118512166D01*
X109864071Y-118542404D01*
X109894309Y-118572642D01*
X109924547Y-118633119D01*
X109924547Y-118784309D01*
X109894309Y-118844785D01*
X109864071Y-118875023D01*
X109803595Y-118905261D01*
X109622166Y-118905261D01*
X109561690Y-118875023D01*
X109531452Y-118844785D01*
X110166452Y-118330738D02*
X110196690Y-118300500D01*
X110257166Y-118270261D01*
X110408357Y-118270261D01*
X110468833Y-118300500D01*
X110499071Y-118330738D01*
X110529309Y-118391214D01*
X110529309Y-118451690D01*
X110499071Y-118542404D01*
X110136214Y-118905261D01*
X110529309Y-118905261D01*
X109573785Y-124747261D02*
X109362119Y-124444880D01*
X109210928Y-124747261D02*
X109210928Y-124112261D01*
X109452833Y-124112261D01*
X109513309Y-124142500D01*
X109543547Y-124172738D01*
X109573785Y-124233214D01*
X109573785Y-124323928D01*
X109543547Y-124384404D01*
X109513309Y-124414642D01*
X109452833Y-124444880D01*
X109210928Y-124444880D01*
X109785452Y-124112261D02*
X110178547Y-124112261D01*
X109966880Y-124354166D01*
X110057595Y-124354166D01*
X110118071Y-124384404D01*
X110148309Y-124414642D01*
X110178547Y-124475119D01*
X110178547Y-124626309D01*
X110148309Y-124686785D01*
X110118071Y-124717023D01*
X110057595Y-124747261D01*
X109876166Y-124747261D01*
X109815690Y-124717023D01*
X109785452Y-124686785D01*
X110783309Y-124747261D02*
X110420452Y-124747261D01*
X110601880Y-124747261D02*
X110601880Y-124112261D01*
X110541404Y-124202976D01*
X110480928Y-124263452D01*
X110420452Y-124293690D01*
X112367785Y-97823261D02*
X112156119Y-97520880D01*
X112004928Y-97823261D02*
X112004928Y-97188261D01*
X112246833Y-97188261D01*
X112307309Y-97218500D01*
X112337547Y-97248738D01*
X112367785Y-97309214D01*
X112367785Y-97399928D01*
X112337547Y-97460404D01*
X112307309Y-97490642D01*
X112246833Y-97520880D01*
X112004928Y-97520880D01*
X112579452Y-97188261D02*
X112972547Y-97188261D01*
X112760880Y-97430166D01*
X112851595Y-97430166D01*
X112912071Y-97460404D01*
X112942309Y-97490642D01*
X112972547Y-97551119D01*
X112972547Y-97702309D01*
X112942309Y-97762785D01*
X112912071Y-97793023D01*
X112851595Y-97823261D01*
X112670166Y-97823261D01*
X112609690Y-97793023D01*
X112579452Y-97762785D01*
X113365642Y-97188261D02*
X113426119Y-97188261D01*
X113486595Y-97218500D01*
X113516833Y-97248738D01*
X113547071Y-97309214D01*
X113577309Y-97430166D01*
X113577309Y-97581357D01*
X113547071Y-97702309D01*
X113516833Y-97762785D01*
X113486595Y-97793023D01*
X113426119Y-97823261D01*
X113365642Y-97823261D01*
X113305166Y-97793023D01*
X113274928Y-97762785D01*
X113244690Y-97702309D01*
X113214452Y-97581357D01*
X113214452Y-97430166D01*
X113244690Y-97309214D01*
X113274928Y-97248738D01*
X113305166Y-97218500D01*
X113365642Y-97188261D01*
X107033785Y-96553261D02*
X106822119Y-96250880D01*
X106670928Y-96553261D02*
X106670928Y-95918261D01*
X106912833Y-95918261D01*
X106973309Y-95948500D01*
X107003547Y-95978738D01*
X107033785Y-96039214D01*
X107033785Y-96129928D01*
X107003547Y-96190404D01*
X106973309Y-96220642D01*
X106912833Y-96250880D01*
X106670928Y-96250880D01*
X107275690Y-95978738D02*
X107305928Y-95948500D01*
X107366404Y-95918261D01*
X107517595Y-95918261D01*
X107578071Y-95948500D01*
X107608309Y-95978738D01*
X107638547Y-96039214D01*
X107638547Y-96099690D01*
X107608309Y-96190404D01*
X107245452Y-96553261D01*
X107638547Y-96553261D01*
X107940928Y-96553261D02*
X108061880Y-96553261D01*
X108122357Y-96523023D01*
X108152595Y-96492785D01*
X108213071Y-96402071D01*
X108243309Y-96281119D01*
X108243309Y-96039214D01*
X108213071Y-95978738D01*
X108182833Y-95948500D01*
X108122357Y-95918261D01*
X108001404Y-95918261D01*
X107940928Y-95948500D01*
X107910690Y-95978738D01*
X107880452Y-96039214D01*
X107880452Y-96190404D01*
X107910690Y-96250880D01*
X107940928Y-96281119D01*
X108001404Y-96311357D01*
X108122357Y-96311357D01*
X108182833Y-96281119D01*
X108213071Y-96250880D01*
X108243309Y-96190404D01*
X106459261Y-105310214D02*
X106156880Y-105521880D01*
X106459261Y-105673071D02*
X105824261Y-105673071D01*
X105824261Y-105431166D01*
X105854500Y-105370690D01*
X105884738Y-105340452D01*
X105945214Y-105310214D01*
X106035928Y-105310214D01*
X106096404Y-105340452D01*
X106126642Y-105370690D01*
X106156880Y-105431166D01*
X106156880Y-105673071D01*
X105884738Y-105068309D02*
X105854500Y-105038071D01*
X105824261Y-104977595D01*
X105824261Y-104826404D01*
X105854500Y-104765928D01*
X105884738Y-104735690D01*
X105945214Y-104705452D01*
X106005690Y-104705452D01*
X106096404Y-104735690D01*
X106459261Y-105098547D01*
X106459261Y-104705452D01*
X106096404Y-104342595D02*
X106066166Y-104403071D01*
X106035928Y-104433309D01*
X105975452Y-104463547D01*
X105945214Y-104463547D01*
X105884738Y-104433309D01*
X105854500Y-104403071D01*
X105824261Y-104342595D01*
X105824261Y-104221642D01*
X105854500Y-104161166D01*
X105884738Y-104130928D01*
X105945214Y-104100690D01*
X105975452Y-104100690D01*
X106035928Y-104130928D01*
X106066166Y-104161166D01*
X106096404Y-104221642D01*
X106096404Y-104342595D01*
X106126642Y-104403071D01*
X106156880Y-104433309D01*
X106217357Y-104463547D01*
X106338309Y-104463547D01*
X106398785Y-104433309D01*
X106429023Y-104403071D01*
X106459261Y-104342595D01*
X106459261Y-104221642D01*
X106429023Y-104161166D01*
X106398785Y-104130928D01*
X106338309Y-104100690D01*
X106217357Y-104100690D01*
X106156880Y-104130928D01*
X106126642Y-104161166D01*
X106096404Y-104221642D01*
X105001785Y-96553261D02*
X104790119Y-96250880D01*
X104638928Y-96553261D02*
X104638928Y-95918261D01*
X104880833Y-95918261D01*
X104941309Y-95948500D01*
X104971547Y-95978738D01*
X105001785Y-96039214D01*
X105001785Y-96129928D01*
X104971547Y-96190404D01*
X104941309Y-96220642D01*
X104880833Y-96250880D01*
X104638928Y-96250880D01*
X105243690Y-95978738D02*
X105273928Y-95948500D01*
X105334404Y-95918261D01*
X105485595Y-95918261D01*
X105546071Y-95948500D01*
X105576309Y-95978738D01*
X105606547Y-96039214D01*
X105606547Y-96099690D01*
X105576309Y-96190404D01*
X105213452Y-96553261D01*
X105606547Y-96553261D01*
X105818214Y-95918261D02*
X106241547Y-95918261D01*
X105969404Y-96553261D01*
X101445785Y-104681261D02*
X101234119Y-104378880D01*
X101082928Y-104681261D02*
X101082928Y-104046261D01*
X101324833Y-104046261D01*
X101385309Y-104076500D01*
X101415547Y-104106738D01*
X101445785Y-104167214D01*
X101445785Y-104257928D01*
X101415547Y-104318404D01*
X101385309Y-104348642D01*
X101324833Y-104378880D01*
X101082928Y-104378880D01*
X101687690Y-104106738D02*
X101717928Y-104076500D01*
X101778404Y-104046261D01*
X101929595Y-104046261D01*
X101990071Y-104076500D01*
X102020309Y-104106738D01*
X102050547Y-104167214D01*
X102050547Y-104227690D01*
X102020309Y-104318404D01*
X101657452Y-104681261D01*
X102050547Y-104681261D01*
X102625071Y-104046261D02*
X102322690Y-104046261D01*
X102292452Y-104348642D01*
X102322690Y-104318404D01*
X102383166Y-104288166D01*
X102534357Y-104288166D01*
X102594833Y-104318404D01*
X102625071Y-104348642D01*
X102655309Y-104409119D01*
X102655309Y-104560309D01*
X102625071Y-104620785D01*
X102594833Y-104651023D01*
X102534357Y-104681261D01*
X102383166Y-104681261D01*
X102322690Y-104651023D01*
X102292452Y-104620785D01*
X101953785Y-96553261D02*
X101742119Y-96250880D01*
X101590928Y-96553261D02*
X101590928Y-95918261D01*
X101832833Y-95918261D01*
X101893309Y-95948500D01*
X101923547Y-95978738D01*
X101953785Y-96039214D01*
X101953785Y-96129928D01*
X101923547Y-96190404D01*
X101893309Y-96220642D01*
X101832833Y-96250880D01*
X101590928Y-96250880D01*
X102195690Y-95978738D02*
X102225928Y-95948500D01*
X102286404Y-95918261D01*
X102437595Y-95918261D01*
X102498071Y-95948500D01*
X102528309Y-95978738D01*
X102558547Y-96039214D01*
X102558547Y-96099690D01*
X102528309Y-96190404D01*
X102165452Y-96553261D01*
X102558547Y-96553261D01*
X102770214Y-95918261D02*
X103163309Y-95918261D01*
X102951642Y-96160166D01*
X103042357Y-96160166D01*
X103102833Y-96190404D01*
X103133071Y-96220642D01*
X103163309Y-96281119D01*
X103163309Y-96432309D01*
X103133071Y-96492785D01*
X103102833Y-96523023D01*
X103042357Y-96553261D01*
X102860928Y-96553261D01*
X102800452Y-96523023D01*
X102770214Y-96492785D01*
X134338785Y-127922261D02*
X134127119Y-127619880D01*
X133975928Y-127922261D02*
X133975928Y-127287261D01*
X134217833Y-127287261D01*
X134278309Y-127317500D01*
X134308547Y-127347738D01*
X134338785Y-127408214D01*
X134338785Y-127498928D01*
X134308547Y-127559404D01*
X134278309Y-127589642D01*
X134217833Y-127619880D01*
X133975928Y-127619880D01*
X134580690Y-127347738D02*
X134610928Y-127317500D01*
X134671404Y-127287261D01*
X134822595Y-127287261D01*
X134883071Y-127317500D01*
X134913309Y-127347738D01*
X134943547Y-127408214D01*
X134943547Y-127468690D01*
X134913309Y-127559404D01*
X134550452Y-127922261D01*
X134943547Y-127922261D01*
X135548309Y-127922261D02*
X135185452Y-127922261D01*
X135366880Y-127922261D02*
X135366880Y-127287261D01*
X135306404Y-127377976D01*
X135245928Y-127438452D01*
X135185452Y-127468690D01*
X140942785Y-77122261D02*
X140731119Y-76819880D01*
X140579928Y-77122261D02*
X140579928Y-76487261D01*
X140821833Y-76487261D01*
X140882309Y-76517500D01*
X140912547Y-76547738D01*
X140942785Y-76608214D01*
X140942785Y-76698928D01*
X140912547Y-76759404D01*
X140882309Y-76789642D01*
X140821833Y-76819880D01*
X140579928Y-76819880D01*
X141184690Y-76547738D02*
X141214928Y-76517500D01*
X141275404Y-76487261D01*
X141426595Y-76487261D01*
X141487071Y-76517500D01*
X141517309Y-76547738D01*
X141547547Y-76608214D01*
X141547547Y-76668690D01*
X141517309Y-76759404D01*
X141154452Y-77122261D01*
X141547547Y-77122261D01*
X141940642Y-76487261D02*
X142001119Y-76487261D01*
X142061595Y-76517500D01*
X142091833Y-76547738D01*
X142122071Y-76608214D01*
X142152309Y-76729166D01*
X142152309Y-76880357D01*
X142122071Y-77001309D01*
X142091833Y-77061785D01*
X142061595Y-77092023D01*
X142001119Y-77122261D01*
X141940642Y-77122261D01*
X141880166Y-77092023D01*
X141849928Y-77061785D01*
X141819690Y-77001309D01*
X141789452Y-76880357D01*
X141789452Y-76729166D01*
X141819690Y-76608214D01*
X141849928Y-76547738D01*
X141880166Y-76517500D01*
X141940642Y-76487261D01*
X113002785Y-134843761D02*
X112791119Y-134541380D01*
X112639928Y-134843761D02*
X112639928Y-134208761D01*
X112881833Y-134208761D01*
X112942309Y-134239000D01*
X112972547Y-134269238D01*
X113002785Y-134329714D01*
X113002785Y-134420428D01*
X112972547Y-134480904D01*
X112942309Y-134511142D01*
X112881833Y-134541380D01*
X112639928Y-134541380D01*
X113607547Y-134843761D02*
X113244690Y-134843761D01*
X113426119Y-134843761D02*
X113426119Y-134208761D01*
X113365642Y-134299476D01*
X113305166Y-134359952D01*
X113244690Y-134390190D01*
X113909928Y-134843761D02*
X114030880Y-134843761D01*
X114091357Y-134813523D01*
X114121595Y-134783285D01*
X114182071Y-134692571D01*
X114212309Y-134571619D01*
X114212309Y-134329714D01*
X114182071Y-134269238D01*
X114151833Y-134239000D01*
X114091357Y-134208761D01*
X113970404Y-134208761D01*
X113909928Y-134239000D01*
X113879690Y-134269238D01*
X113849452Y-134329714D01*
X113849452Y-134480904D01*
X113879690Y-134541380D01*
X113909928Y-134571619D01*
X113970404Y-134601857D01*
X114091357Y-134601857D01*
X114151833Y-134571619D01*
X114182071Y-134541380D01*
X114212309Y-134480904D01*
X116431785Y-127858761D02*
X116220119Y-127556380D01*
X116068928Y-127858761D02*
X116068928Y-127223761D01*
X116310833Y-127223761D01*
X116371309Y-127254000D01*
X116401547Y-127284238D01*
X116431785Y-127344714D01*
X116431785Y-127435428D01*
X116401547Y-127495904D01*
X116371309Y-127526142D01*
X116310833Y-127556380D01*
X116068928Y-127556380D01*
X117036547Y-127858761D02*
X116673690Y-127858761D01*
X116855119Y-127858761D02*
X116855119Y-127223761D01*
X116794642Y-127314476D01*
X116734166Y-127374952D01*
X116673690Y-127405190D01*
X117399404Y-127495904D02*
X117338928Y-127465666D01*
X117308690Y-127435428D01*
X117278452Y-127374952D01*
X117278452Y-127344714D01*
X117308690Y-127284238D01*
X117338928Y-127254000D01*
X117399404Y-127223761D01*
X117520357Y-127223761D01*
X117580833Y-127254000D01*
X117611071Y-127284238D01*
X117641309Y-127344714D01*
X117641309Y-127374952D01*
X117611071Y-127435428D01*
X117580833Y-127465666D01*
X117520357Y-127495904D01*
X117399404Y-127495904D01*
X117338928Y-127526142D01*
X117308690Y-127556380D01*
X117278452Y-127616857D01*
X117278452Y-127737809D01*
X117308690Y-127798285D01*
X117338928Y-127828523D01*
X117399404Y-127858761D01*
X117520357Y-127858761D01*
X117580833Y-127828523D01*
X117611071Y-127798285D01*
X117641309Y-127737809D01*
X117641309Y-127616857D01*
X117611071Y-127556380D01*
X117580833Y-127526142D01*
X117520357Y-127495904D01*
X158659285Y-100629961D02*
X158447619Y-100327580D01*
X158296428Y-100629961D02*
X158296428Y-99994961D01*
X158538333Y-99994961D01*
X158598809Y-100025200D01*
X158629047Y-100055438D01*
X158659285Y-100115914D01*
X158659285Y-100206628D01*
X158629047Y-100267104D01*
X158598809Y-100297342D01*
X158538333Y-100327580D01*
X158296428Y-100327580D01*
X159264047Y-100629961D02*
X158901190Y-100629961D01*
X159082619Y-100629961D02*
X159082619Y-99994961D01*
X159022142Y-100085676D01*
X158961666Y-100146152D01*
X158901190Y-100176390D01*
X159475714Y-99994961D02*
X159899047Y-99994961D01*
X159626904Y-100629961D01*
X117193785Y-84107261D02*
X116982119Y-83804880D01*
X116830928Y-84107261D02*
X116830928Y-83472261D01*
X117072833Y-83472261D01*
X117133309Y-83502500D01*
X117163547Y-83532738D01*
X117193785Y-83593214D01*
X117193785Y-83683928D01*
X117163547Y-83744404D01*
X117133309Y-83774642D01*
X117072833Y-83804880D01*
X116830928Y-83804880D01*
X117798547Y-84107261D02*
X117435690Y-84107261D01*
X117617119Y-84107261D02*
X117617119Y-83472261D01*
X117556642Y-83562976D01*
X117496166Y-83623452D01*
X117435690Y-83653690D01*
X118342833Y-83472261D02*
X118221880Y-83472261D01*
X118161404Y-83502500D01*
X118131166Y-83532738D01*
X118070690Y-83623452D01*
X118040452Y-83744404D01*
X118040452Y-83986309D01*
X118070690Y-84046785D01*
X118100928Y-84077023D01*
X118161404Y-84107261D01*
X118282357Y-84107261D01*
X118342833Y-84077023D01*
X118373071Y-84046785D01*
X118403309Y-83986309D01*
X118403309Y-83835119D01*
X118373071Y-83774642D01*
X118342833Y-83744404D01*
X118282357Y-83714166D01*
X118161404Y-83714166D01*
X118100928Y-83744404D01*
X118070690Y-83774642D01*
X118040452Y-83835119D01*
X117193785Y-79535261D02*
X116982119Y-79232880D01*
X116830928Y-79535261D02*
X116830928Y-78900261D01*
X117072833Y-78900261D01*
X117133309Y-78930500D01*
X117163547Y-78960738D01*
X117193785Y-79021214D01*
X117193785Y-79111928D01*
X117163547Y-79172404D01*
X117133309Y-79202642D01*
X117072833Y-79232880D01*
X116830928Y-79232880D01*
X117798547Y-79535261D02*
X117435690Y-79535261D01*
X117617119Y-79535261D02*
X117617119Y-78900261D01*
X117556642Y-78990976D01*
X117496166Y-79051452D01*
X117435690Y-79081690D01*
X118373071Y-78900261D02*
X118070690Y-78900261D01*
X118040452Y-79202642D01*
X118070690Y-79172404D01*
X118131166Y-79142166D01*
X118282357Y-79142166D01*
X118342833Y-79172404D01*
X118373071Y-79202642D01*
X118403309Y-79263119D01*
X118403309Y-79414309D01*
X118373071Y-79474785D01*
X118342833Y-79505023D01*
X118282357Y-79535261D01*
X118131166Y-79535261D01*
X118070690Y-79505023D01*
X118040452Y-79474785D01*
X136243785Y-127922261D02*
X136032119Y-127619880D01*
X135880928Y-127922261D02*
X135880928Y-127287261D01*
X136122833Y-127287261D01*
X136183309Y-127317500D01*
X136213547Y-127347738D01*
X136243785Y-127408214D01*
X136243785Y-127498928D01*
X136213547Y-127559404D01*
X136183309Y-127589642D01*
X136122833Y-127619880D01*
X135880928Y-127619880D01*
X136848547Y-127922261D02*
X136485690Y-127922261D01*
X136667119Y-127922261D02*
X136667119Y-127287261D01*
X136606642Y-127377976D01*
X136546166Y-127438452D01*
X136485690Y-127468690D01*
X137090452Y-127347738D02*
X137120690Y-127317500D01*
X137181166Y-127287261D01*
X137332357Y-127287261D01*
X137392833Y-127317500D01*
X137423071Y-127347738D01*
X137453309Y-127408214D01*
X137453309Y-127468690D01*
X137423071Y-127559404D01*
X137060214Y-127922261D01*
X137453309Y-127922261D01*
X127353785Y-125382261D02*
X127142119Y-125079880D01*
X126990928Y-125382261D02*
X126990928Y-124747261D01*
X127232833Y-124747261D01*
X127293309Y-124777500D01*
X127323547Y-124807738D01*
X127353785Y-124868214D01*
X127353785Y-124958928D01*
X127323547Y-125019404D01*
X127293309Y-125049642D01*
X127232833Y-125079880D01*
X126990928Y-125079880D01*
X127958547Y-125382261D02*
X127595690Y-125382261D01*
X127777119Y-125382261D02*
X127777119Y-124747261D01*
X127716642Y-124837976D01*
X127656166Y-124898452D01*
X127595690Y-124928690D01*
X128563309Y-125382261D02*
X128200452Y-125382261D01*
X128381880Y-125382261D02*
X128381880Y-124747261D01*
X128321404Y-124837976D01*
X128260928Y-124898452D01*
X128200452Y-124928690D01*
X114399785Y-124874261D02*
X114188119Y-124571880D01*
X114036928Y-124874261D02*
X114036928Y-124239261D01*
X114278833Y-124239261D01*
X114339309Y-124269500D01*
X114369547Y-124299738D01*
X114399785Y-124360214D01*
X114399785Y-124450928D01*
X114369547Y-124511404D01*
X114339309Y-124541642D01*
X114278833Y-124571880D01*
X114036928Y-124571880D01*
X115004547Y-124874261D02*
X114641690Y-124874261D01*
X114823119Y-124874261D02*
X114823119Y-124239261D01*
X114762642Y-124329976D01*
X114702166Y-124390452D01*
X114641690Y-124420690D01*
X115397642Y-124239261D02*
X115458119Y-124239261D01*
X115518595Y-124269500D01*
X115548833Y-124299738D01*
X115579071Y-124360214D01*
X115609309Y-124481166D01*
X115609309Y-124632357D01*
X115579071Y-124753309D01*
X115548833Y-124813785D01*
X115518595Y-124844023D01*
X115458119Y-124874261D01*
X115397642Y-124874261D01*
X115337166Y-124844023D01*
X115306928Y-124813785D01*
X115276690Y-124753309D01*
X115246452Y-124632357D01*
X115246452Y-124481166D01*
X115276690Y-124360214D01*
X115306928Y-124299738D01*
X115337166Y-124269500D01*
X115397642Y-124239261D01*
X117496166Y-86139261D02*
X117284500Y-85836880D01*
X117133309Y-86139261D02*
X117133309Y-85504261D01*
X117375214Y-85504261D01*
X117435690Y-85534500D01*
X117465928Y-85564738D01*
X117496166Y-85625214D01*
X117496166Y-85715928D01*
X117465928Y-85776404D01*
X117435690Y-85806642D01*
X117375214Y-85836880D01*
X117133309Y-85836880D01*
X117798547Y-86139261D02*
X117919500Y-86139261D01*
X117979976Y-86109023D01*
X118010214Y-86078785D01*
X118070690Y-85988071D01*
X118100928Y-85867119D01*
X118100928Y-85625214D01*
X118070690Y-85564738D01*
X118040452Y-85534500D01*
X117979976Y-85504261D01*
X117859023Y-85504261D01*
X117798547Y-85534500D01*
X117768309Y-85564738D01*
X117738071Y-85625214D01*
X117738071Y-85776404D01*
X117768309Y-85836880D01*
X117798547Y-85867119D01*
X117859023Y-85897357D01*
X117979976Y-85897357D01*
X118040452Y-85867119D01*
X118070690Y-85836880D01*
X118100928Y-85776404D01*
X98446166Y-122969261D02*
X98234500Y-122666880D01*
X98083309Y-122969261D02*
X98083309Y-122334261D01*
X98325214Y-122334261D01*
X98385690Y-122364500D01*
X98415928Y-122394738D01*
X98446166Y-122455214D01*
X98446166Y-122545928D01*
X98415928Y-122606404D01*
X98385690Y-122636642D01*
X98325214Y-122666880D01*
X98083309Y-122666880D01*
X98809023Y-122606404D02*
X98748547Y-122576166D01*
X98718309Y-122545928D01*
X98688071Y-122485452D01*
X98688071Y-122455214D01*
X98718309Y-122394738D01*
X98748547Y-122364500D01*
X98809023Y-122334261D01*
X98929976Y-122334261D01*
X98990452Y-122364500D01*
X99020690Y-122394738D01*
X99050928Y-122455214D01*
X99050928Y-122485452D01*
X99020690Y-122545928D01*
X98990452Y-122576166D01*
X98929976Y-122606404D01*
X98809023Y-122606404D01*
X98748547Y-122636642D01*
X98718309Y-122666880D01*
X98688071Y-122727357D01*
X98688071Y-122848309D01*
X98718309Y-122908785D01*
X98748547Y-122939023D01*
X98809023Y-122969261D01*
X98929976Y-122969261D01*
X98990452Y-122939023D01*
X99020690Y-122908785D01*
X99050928Y-122848309D01*
X99050928Y-122727357D01*
X99020690Y-122666880D01*
X98990452Y-122636642D01*
X98929976Y-122606404D01*
X122830166Y-137447261D02*
X122618500Y-137144880D01*
X122467309Y-137447261D02*
X122467309Y-136812261D01*
X122709214Y-136812261D01*
X122769690Y-136842500D01*
X122799928Y-136872738D01*
X122830166Y-136933214D01*
X122830166Y-137023928D01*
X122799928Y-137084404D01*
X122769690Y-137114642D01*
X122709214Y-137144880D01*
X122467309Y-137144880D01*
X123041833Y-136812261D02*
X123465166Y-136812261D01*
X123193023Y-137447261D01*
X157628166Y-135161261D02*
X157416500Y-134858880D01*
X157265309Y-135161261D02*
X157265309Y-134526261D01*
X157507214Y-134526261D01*
X157567690Y-134556500D01*
X157597928Y-134586738D01*
X157628166Y-134647214D01*
X157628166Y-134737928D01*
X157597928Y-134798404D01*
X157567690Y-134828642D01*
X157507214Y-134858880D01*
X157265309Y-134858880D01*
X158172452Y-134526261D02*
X158051500Y-134526261D01*
X157991023Y-134556500D01*
X157960785Y-134586738D01*
X157900309Y-134677452D01*
X157870071Y-134798404D01*
X157870071Y-135040309D01*
X157900309Y-135100785D01*
X157930547Y-135131023D01*
X157991023Y-135161261D01*
X158111976Y-135161261D01*
X158172452Y-135131023D01*
X158202690Y-135100785D01*
X158232928Y-135040309D01*
X158232928Y-134889119D01*
X158202690Y-134828642D01*
X158172452Y-134798404D01*
X158111976Y-134768166D01*
X157991023Y-134768166D01*
X157930547Y-134798404D01*
X157900309Y-134828642D01*
X157870071Y-134889119D01*
X151024166Y-130589261D02*
X150812500Y-130286880D01*
X150661309Y-130589261D02*
X150661309Y-129954261D01*
X150903214Y-129954261D01*
X150963690Y-129984500D01*
X150993928Y-130014738D01*
X151024166Y-130075214D01*
X151024166Y-130165928D01*
X150993928Y-130226404D01*
X150963690Y-130256642D01*
X150903214Y-130286880D01*
X150661309Y-130286880D01*
X151598690Y-129954261D02*
X151296309Y-129954261D01*
X151266071Y-130256642D01*
X151296309Y-130226404D01*
X151356785Y-130196166D01*
X151507976Y-130196166D01*
X151568452Y-130226404D01*
X151598690Y-130256642D01*
X151628928Y-130317119D01*
X151628928Y-130468309D01*
X151598690Y-130528785D01*
X151568452Y-130559023D01*
X151507976Y-130589261D01*
X151356785Y-130589261D01*
X151296309Y-130559023D01*
X151266071Y-130528785D01*
X150008166Y-135415261D02*
X149796500Y-135112880D01*
X149645309Y-135415261D02*
X149645309Y-134780261D01*
X149887214Y-134780261D01*
X149947690Y-134810500D01*
X149977928Y-134840738D01*
X150008166Y-134901214D01*
X150008166Y-134991928D01*
X149977928Y-135052404D01*
X149947690Y-135082642D01*
X149887214Y-135112880D01*
X149645309Y-135112880D01*
X150552452Y-134991928D02*
X150552452Y-135415261D01*
X150401261Y-134750023D02*
X150250071Y-135203595D01*
X150643166Y-135203595D01*
X143150166Y-123731261D02*
X142938500Y-123428880D01*
X142787309Y-123731261D02*
X142787309Y-123096261D01*
X143029214Y-123096261D01*
X143089690Y-123126500D01*
X143119928Y-123156738D01*
X143150166Y-123217214D01*
X143150166Y-123307928D01*
X143119928Y-123368404D01*
X143089690Y-123398642D01*
X143029214Y-123428880D01*
X142787309Y-123428880D01*
X143361833Y-123096261D02*
X143754928Y-123096261D01*
X143543261Y-123338166D01*
X143633976Y-123338166D01*
X143694452Y-123368404D01*
X143724690Y-123398642D01*
X143754928Y-123459119D01*
X143754928Y-123610309D01*
X143724690Y-123670785D01*
X143694452Y-123701023D01*
X143633976Y-123731261D01*
X143452547Y-123731261D01*
X143392071Y-123701023D01*
X143361833Y-123670785D01*
X141372166Y-123731261D02*
X141160500Y-123428880D01*
X141009309Y-123731261D02*
X141009309Y-123096261D01*
X141251214Y-123096261D01*
X141311690Y-123126500D01*
X141341928Y-123156738D01*
X141372166Y-123217214D01*
X141372166Y-123307928D01*
X141341928Y-123368404D01*
X141311690Y-123398642D01*
X141251214Y-123428880D01*
X141009309Y-123428880D01*
X141614071Y-123156738D02*
X141644309Y-123126500D01*
X141704785Y-123096261D01*
X141855976Y-123096261D01*
X141916452Y-123126500D01*
X141946690Y-123156738D01*
X141976928Y-123217214D01*
X141976928Y-123277690D01*
X141946690Y-123368404D01*
X141583833Y-123731261D01*
X141976928Y-123731261D01*
X98446166Y-124747261D02*
X98234500Y-124444880D01*
X98083309Y-124747261D02*
X98083309Y-124112261D01*
X98325214Y-124112261D01*
X98385690Y-124142500D01*
X98415928Y-124172738D01*
X98446166Y-124233214D01*
X98446166Y-124323928D01*
X98415928Y-124384404D01*
X98385690Y-124414642D01*
X98325214Y-124444880D01*
X98083309Y-124444880D01*
X99050928Y-124747261D02*
X98688071Y-124747261D01*
X98869500Y-124747261D02*
X98869500Y-124112261D01*
X98809023Y-124202976D01*
X98748547Y-124263452D01*
X98688071Y-124293690D01*
X153863523Y-135221738D02*
X153803047Y-135191500D01*
X153742571Y-135131023D01*
X153651857Y-135040309D01*
X153591380Y-135010071D01*
X153530904Y-135010071D01*
X153561142Y-135161261D02*
X153500666Y-135131023D01*
X153440190Y-135070547D01*
X153409952Y-134949595D01*
X153409952Y-134737928D01*
X153440190Y-134616976D01*
X153500666Y-134556500D01*
X153561142Y-134526261D01*
X153682095Y-134526261D01*
X153742571Y-134556500D01*
X153803047Y-134616976D01*
X153833285Y-134737928D01*
X153833285Y-134949595D01*
X153803047Y-135070547D01*
X153742571Y-135131023D01*
X153682095Y-135161261D01*
X153561142Y-135161261D01*
X154044952Y-134526261D02*
X154438047Y-134526261D01*
X154226380Y-134768166D01*
X154317095Y-134768166D01*
X154377571Y-134798404D01*
X154407809Y-134828642D01*
X154438047Y-134889119D01*
X154438047Y-135040309D01*
X154407809Y-135100785D01*
X154377571Y-135131023D01*
X154317095Y-135161261D01*
X154135666Y-135161261D01*
X154075190Y-135131023D01*
X154044952Y-135100785D01*
X153863523Y-127855738D02*
X153803047Y-127825500D01*
X153742571Y-127765023D01*
X153651857Y-127674309D01*
X153591380Y-127644071D01*
X153530904Y-127644071D01*
X153561142Y-127795261D02*
X153500666Y-127765023D01*
X153440190Y-127704547D01*
X153409952Y-127583595D01*
X153409952Y-127371928D01*
X153440190Y-127250976D01*
X153500666Y-127190500D01*
X153561142Y-127160261D01*
X153682095Y-127160261D01*
X153742571Y-127190500D01*
X153803047Y-127250976D01*
X153833285Y-127371928D01*
X153833285Y-127583595D01*
X153803047Y-127704547D01*
X153742571Y-127765023D01*
X153682095Y-127795261D01*
X153561142Y-127795261D01*
X154075190Y-127220738D02*
X154105428Y-127190500D01*
X154165904Y-127160261D01*
X154317095Y-127160261D01*
X154377571Y-127190500D01*
X154407809Y-127220738D01*
X154438047Y-127281214D01*
X154438047Y-127341690D01*
X154407809Y-127432404D01*
X154044952Y-127795261D01*
X154438047Y-127795261D01*
X138623523Y-136745738D02*
X138563047Y-136715500D01*
X138502571Y-136655023D01*
X138411857Y-136564309D01*
X138351380Y-136534071D01*
X138290904Y-136534071D01*
X138321142Y-136685261D02*
X138260666Y-136655023D01*
X138200190Y-136594547D01*
X138169952Y-136473595D01*
X138169952Y-136261928D01*
X138200190Y-136140976D01*
X138260666Y-136080500D01*
X138321142Y-136050261D01*
X138442095Y-136050261D01*
X138502571Y-136080500D01*
X138563047Y-136140976D01*
X138593285Y-136261928D01*
X138593285Y-136473595D01*
X138563047Y-136594547D01*
X138502571Y-136655023D01*
X138442095Y-136685261D01*
X138321142Y-136685261D01*
X139198047Y-136685261D02*
X138835190Y-136685261D01*
X139016619Y-136685261D02*
X139016619Y-136050261D01*
X138956142Y-136140976D01*
X138895666Y-136201452D01*
X138835190Y-136231690D01*
D27*
X140506404Y-136772642D02*
X140468309Y-136848833D01*
X140430214Y-136886928D01*
X140354023Y-136925023D01*
X140125452Y-136925023D01*
X140049261Y-136886928D01*
X140011166Y-136848833D01*
X139973071Y-136772642D01*
X139973071Y-136658357D01*
X140011166Y-136582166D01*
X140049261Y-136544071D01*
X140125452Y-136505976D01*
X140354023Y-136505976D01*
X140430214Y-136544071D01*
X140468309Y-136582166D01*
X140506404Y-136658357D01*
X140506404Y-136772642D01*
D28*
X97811166Y-121445261D02*
X97811166Y-120810261D01*
X98053071Y-120810261D01*
X98113547Y-120840500D01*
X98143785Y-120870738D01*
X98174023Y-120931214D01*
X98174023Y-121021928D01*
X98143785Y-121082404D01*
X98113547Y-121112642D01*
X98053071Y-121142880D01*
X97811166Y-121142880D01*
X98385690Y-120810261D02*
X98536880Y-121445261D01*
X98657833Y-120991690D01*
X98778785Y-121445261D01*
X98929976Y-120810261D01*
X99534738Y-121445261D02*
X99323071Y-121142880D01*
X99171880Y-121445261D02*
X99171880Y-120810261D01*
X99413785Y-120810261D01*
X99474261Y-120840500D01*
X99504500Y-120870738D01*
X99534738Y-120931214D01*
X99534738Y-121021928D01*
X99504500Y-121082404D01*
X99474261Y-121112642D01*
X99413785Y-121142880D01*
X99171880Y-121142880D01*
X100109261Y-121445261D02*
X99806880Y-121445261D01*
X99806880Y-120810261D01*
X100320928Y-121112642D02*
X100532595Y-121112642D01*
X100623309Y-121445261D02*
X100320928Y-121445261D01*
X100320928Y-120810261D01*
X100623309Y-120810261D01*
X100895452Y-121445261D02*
X100895452Y-120810261D01*
X101046642Y-120810261D01*
X101137357Y-120840500D01*
X101197833Y-120900976D01*
X101228071Y-120961452D01*
X101258309Y-121082404D01*
X101258309Y-121173119D01*
X101228071Y-121294071D01*
X101197833Y-121354547D01*
X101137357Y-121415023D01*
X101046642Y-121445261D01*
X100895452Y-121445261D01*
X101863071Y-121445261D02*
X101500214Y-121445261D01*
X101681642Y-121445261D02*
X101681642Y-120810261D01*
X101621166Y-120900976D01*
X101560690Y-120961452D01*
X101500214Y-120991690D01*
X94545237Y-98710246D02*
X94545237Y-98075246D01*
X94756904Y-98528818D01*
X94968570Y-98075246D01*
X94968570Y-98710246D01*
X95270951Y-98710246D02*
X95270951Y-98075246D01*
X95633808Y-98710246D02*
X95361665Y-98347389D01*
X95633808Y-98075246D02*
X95270951Y-98438104D01*
X96238570Y-98710246D02*
X95875713Y-98710246D01*
X96057142Y-98710246D02*
X96057142Y-98075246D01*
X95996665Y-98165961D01*
X95936189Y-98226437D01*
X95875713Y-98256675D01*
X113686166Y-113825261D02*
X113383785Y-113825261D01*
X113383785Y-113190261D01*
X113867595Y-113250738D02*
X113897833Y-113220500D01*
X113958309Y-113190261D01*
X114109500Y-113190261D01*
X114169976Y-113220500D01*
X114200214Y-113250738D01*
X114230452Y-113311214D01*
X114230452Y-113371690D01*
X114200214Y-113462404D01*
X113837357Y-113825261D01*
X114230452Y-113825261D01*
X132609166Y-118905261D02*
X132306785Y-118905261D01*
X132306785Y-118270261D01*
X133153452Y-118905261D02*
X132790595Y-118905261D01*
X132972023Y-118905261D02*
X132972023Y-118270261D01*
X132911547Y-118360976D01*
X132851071Y-118421452D01*
X132790595Y-118451690D01*
X124481166Y-123652642D02*
X124269500Y-123652642D01*
X124269500Y-123985261D02*
X124269500Y-123350261D01*
X124571880Y-123350261D01*
X124813785Y-123652642D02*
X125025452Y-123652642D01*
X125116166Y-123985261D02*
X124813785Y-123985261D01*
X124813785Y-123350261D01*
X125116166Y-123350261D01*
X125297595Y-123350261D02*
X125660452Y-123350261D01*
X125479023Y-123985261D02*
X125479023Y-123350261D01*
X126204738Y-123985261D02*
X125841880Y-123985261D01*
X126023309Y-123985261D02*
X126023309Y-123350261D01*
X125962833Y-123440976D01*
X125902357Y-123501452D01*
X125841880Y-123531690D01*
X99038833Y-94823642D02*
X98827166Y-94823642D01*
X98827166Y-95156261D02*
X98827166Y-94521261D01*
X99129547Y-94521261D01*
X99583119Y-94823642D02*
X99673833Y-94853880D01*
X99704071Y-94884119D01*
X99734309Y-94944595D01*
X99734309Y-95035309D01*
X99704071Y-95095785D01*
X99673833Y-95126023D01*
X99613357Y-95156261D01*
X99371452Y-95156261D01*
X99371452Y-94521261D01*
X99583119Y-94521261D01*
X99643595Y-94551500D01*
X99673833Y-94581738D01*
X99704071Y-94642214D01*
X99704071Y-94702690D01*
X99673833Y-94763166D01*
X99643595Y-94793404D01*
X99583119Y-94823642D01*
X99371452Y-94823642D01*
X99976214Y-94581738D02*
X100006452Y-94551500D01*
X100066928Y-94521261D01*
X100218119Y-94521261D01*
X100278595Y-94551500D01*
X100308833Y-94581738D01*
X100339071Y-94642214D01*
X100339071Y-94702690D01*
X100308833Y-94793404D01*
X99945976Y-95156261D01*
X100339071Y-95156261D01*
X103483833Y-94315642D02*
X103272166Y-94315642D01*
X103272166Y-94648261D02*
X103272166Y-94013261D01*
X103574547Y-94013261D01*
X104028119Y-94315642D02*
X104118833Y-94345880D01*
X104149071Y-94376119D01*
X104179309Y-94436595D01*
X104179309Y-94527309D01*
X104149071Y-94587785D01*
X104118833Y-94618023D01*
X104058357Y-94648261D01*
X103816452Y-94648261D01*
X103816452Y-94013261D01*
X104028119Y-94013261D01*
X104088595Y-94043500D01*
X104118833Y-94073738D01*
X104149071Y-94134214D01*
X104149071Y-94194690D01*
X104118833Y-94255166D01*
X104088595Y-94285404D01*
X104028119Y-94315642D01*
X103816452Y-94315642D01*
X104784071Y-94648261D02*
X104421214Y-94648261D01*
X104602642Y-94648261D02*
X104602642Y-94013261D01*
X104542166Y-94103976D01*
X104481690Y-94164452D01*
X104421214Y-94194690D01*
X125261309Y-126906261D02*
X125261309Y-126271261D01*
X125412500Y-126271261D01*
X125503214Y-126301500D01*
X125563690Y-126361976D01*
X125593928Y-126422452D01*
X125624166Y-126543404D01*
X125624166Y-126634119D01*
X125593928Y-126755071D01*
X125563690Y-126815547D01*
X125503214Y-126876023D01*
X125412500Y-126906261D01*
X125261309Y-126906261D01*
X125866071Y-126331738D02*
X125896309Y-126301500D01*
X125956785Y-126271261D01*
X126107976Y-126271261D01*
X126168452Y-126301500D01*
X126198690Y-126331738D01*
X126228928Y-126392214D01*
X126228928Y-126452690D01*
X126198690Y-126543404D01*
X125835833Y-126906261D01*
X126228928Y-126906261D01*
X123991309Y-133891261D02*
X123991309Y-133256261D01*
X124142500Y-133256261D01*
X124233214Y-133286500D01*
X124293690Y-133346976D01*
X124323928Y-133407452D01*
X124354166Y-133528404D01*
X124354166Y-133619119D01*
X124323928Y-133740071D01*
X124293690Y-133800547D01*
X124233214Y-133861023D01*
X124142500Y-133891261D01*
X123991309Y-133891261D01*
X124958928Y-133891261D02*
X124596071Y-133891261D01*
X124777500Y-133891261D02*
X124777500Y-133256261D01*
X124717023Y-133346976D01*
X124656547Y-133407452D01*
X124596071Y-133437690D01*
X98183095Y-126210785D02*
X98152857Y-126241023D01*
X98062142Y-126271261D01*
X98001666Y-126271261D01*
X97910952Y-126241023D01*
X97850476Y-126180547D01*
X97820238Y-126120071D01*
X97790000Y-125999119D01*
X97790000Y-125908404D01*
X97820238Y-125787452D01*
X97850476Y-125726976D01*
X97910952Y-125666500D01*
X98001666Y-125636261D01*
X98062142Y-125636261D01*
X98152857Y-125666500D01*
X98183095Y-125696738D01*
X98455238Y-126271261D02*
X98455238Y-125636261D01*
X98455238Y-125938642D02*
X98818095Y-125938642D01*
X98818095Y-126271261D02*
X98818095Y-125636261D01*
X99090238Y-126089833D02*
X99392619Y-126089833D01*
X99029761Y-126271261D02*
X99241428Y-125636261D01*
X99453095Y-126271261D01*
X100027619Y-126271261D02*
X99815952Y-125968880D01*
X99664761Y-126271261D02*
X99664761Y-125636261D01*
X99906666Y-125636261D01*
X99967142Y-125666500D01*
X99997380Y-125696738D01*
X100027619Y-125757214D01*
X100027619Y-125847928D01*
X99997380Y-125908404D01*
X99967142Y-125938642D01*
X99906666Y-125968880D01*
X99664761Y-125968880D01*
X100632380Y-125666500D02*
X100571904Y-125636261D01*
X100481190Y-125636261D01*
X100390476Y-125666500D01*
X100330000Y-125726976D01*
X100299761Y-125787452D01*
X100269523Y-125908404D01*
X100269523Y-125999119D01*
X100299761Y-126120071D01*
X100330000Y-126180547D01*
X100390476Y-126241023D01*
X100481190Y-126271261D01*
X100541666Y-126271261D01*
X100632380Y-126241023D01*
X100662619Y-126210785D01*
X100662619Y-125999119D01*
X100541666Y-125999119D01*
X100934761Y-126271261D02*
X100934761Y-125636261D01*
X101237142Y-126271261D02*
X101237142Y-125636261D01*
X101600000Y-126271261D01*
X101600000Y-125636261D01*
X102235000Y-125666500D02*
X102174523Y-125636261D01*
X102083809Y-125636261D01*
X101993095Y-125666500D01*
X101932619Y-125726976D01*
X101902380Y-125787452D01*
X101872142Y-125908404D01*
X101872142Y-125999119D01*
X101902380Y-126120071D01*
X101932619Y-126180547D01*
X101993095Y-126241023D01*
X102083809Y-126271261D01*
X102144285Y-126271261D01*
X102235000Y-126241023D01*
X102265238Y-126210785D01*
X102265238Y-125999119D01*
X102144285Y-125999119D01*
X102870000Y-126271261D02*
X102507142Y-126271261D01*
X102688571Y-126271261D02*
X102688571Y-125636261D01*
X102628095Y-125726976D01*
X102567619Y-125787452D01*
X102507142Y-125817690D01*
X121257785Y-118590785D02*
X121227547Y-118621023D01*
X121136833Y-118651261D01*
X121076357Y-118651261D01*
X120985642Y-118621023D01*
X120925166Y-118560547D01*
X120894928Y-118500071D01*
X120864690Y-118379119D01*
X120864690Y-118288404D01*
X120894928Y-118167452D01*
X120925166Y-118106976D01*
X120985642Y-118046500D01*
X121076357Y-118016261D01*
X121136833Y-118016261D01*
X121227547Y-118046500D01*
X121257785Y-118076738D01*
X121499690Y-118076738D02*
X121529928Y-118046500D01*
X121590404Y-118016261D01*
X121741595Y-118016261D01*
X121802071Y-118046500D01*
X121832309Y-118076738D01*
X121862547Y-118137214D01*
X121862547Y-118197690D01*
X121832309Y-118288404D01*
X121469452Y-118651261D01*
X121862547Y-118651261D01*
X122467309Y-118651261D02*
X122104452Y-118651261D01*
X122285880Y-118651261D02*
X122285880Y-118016261D01*
X122225404Y-118106976D01*
X122164928Y-118167452D01*
X122104452Y-118197690D01*
X119479785Y-118590785D02*
X119449547Y-118621023D01*
X119358833Y-118651261D01*
X119298357Y-118651261D01*
X119207642Y-118621023D01*
X119147166Y-118560547D01*
X119116928Y-118500071D01*
X119086690Y-118379119D01*
X119086690Y-118288404D01*
X119116928Y-118167452D01*
X119147166Y-118106976D01*
X119207642Y-118046500D01*
X119298357Y-118016261D01*
X119358833Y-118016261D01*
X119449547Y-118046500D01*
X119479785Y-118076738D01*
X119721690Y-118076738D02*
X119751928Y-118046500D01*
X119812404Y-118016261D01*
X119963595Y-118016261D01*
X120024071Y-118046500D01*
X120054309Y-118076738D01*
X120084547Y-118137214D01*
X120084547Y-118197690D01*
X120054309Y-118288404D01*
X119691452Y-118651261D01*
X120084547Y-118651261D01*
X120477642Y-118016261D02*
X120538119Y-118016261D01*
X120598595Y-118046500D01*
X120628833Y-118076738D01*
X120659071Y-118137214D01*
X120689309Y-118258166D01*
X120689309Y-118409357D01*
X120659071Y-118530309D01*
X120628833Y-118590785D01*
X120598595Y-118621023D01*
X120538119Y-118651261D01*
X120477642Y-118651261D01*
X120417166Y-118621023D01*
X120386928Y-118590785D01*
X120356690Y-118530309D01*
X120326452Y-118409357D01*
X120326452Y-118258166D01*
X120356690Y-118137214D01*
X120386928Y-118076738D01*
X120417166Y-118046500D01*
X120477642Y-118016261D01*
X117701785Y-118590785D02*
X117671547Y-118621023D01*
X117580833Y-118651261D01*
X117520357Y-118651261D01*
X117429642Y-118621023D01*
X117369166Y-118560547D01*
X117338928Y-118500071D01*
X117308690Y-118379119D01*
X117308690Y-118288404D01*
X117338928Y-118167452D01*
X117369166Y-118106976D01*
X117429642Y-118046500D01*
X117520357Y-118016261D01*
X117580833Y-118016261D01*
X117671547Y-118046500D01*
X117701785Y-118076738D01*
X118306547Y-118651261D02*
X117943690Y-118651261D01*
X118125119Y-118651261D02*
X118125119Y-118016261D01*
X118064642Y-118106976D01*
X118004166Y-118167452D01*
X117943690Y-118197690D01*
X118608928Y-118651261D02*
X118729880Y-118651261D01*
X118790357Y-118621023D01*
X118820595Y-118590785D01*
X118881071Y-118500071D01*
X118911309Y-118379119D01*
X118911309Y-118137214D01*
X118881071Y-118076738D01*
X118850833Y-118046500D01*
X118790357Y-118016261D01*
X118669404Y-118016261D01*
X118608928Y-118046500D01*
X118578690Y-118076738D01*
X118548452Y-118137214D01*
X118548452Y-118288404D01*
X118578690Y-118348880D01*
X118608928Y-118379119D01*
X118669404Y-118409357D01*
X118790357Y-118409357D01*
X118850833Y-118379119D01*
X118881071Y-118348880D01*
X118911309Y-118288404D01*
X111351785Y-118844785D02*
X111321547Y-118875023D01*
X111230833Y-118905261D01*
X111170357Y-118905261D01*
X111079642Y-118875023D01*
X111019166Y-118814547D01*
X110988928Y-118754071D01*
X110958690Y-118633119D01*
X110958690Y-118542404D01*
X110988928Y-118421452D01*
X111019166Y-118360976D01*
X111079642Y-118300500D01*
X111170357Y-118270261D01*
X111230833Y-118270261D01*
X111321547Y-118300500D01*
X111351785Y-118330738D01*
X111956547Y-118905261D02*
X111593690Y-118905261D01*
X111775119Y-118905261D02*
X111775119Y-118270261D01*
X111714642Y-118360976D01*
X111654166Y-118421452D01*
X111593690Y-118451690D01*
X112319404Y-118542404D02*
X112258928Y-118512166D01*
X112228690Y-118481928D01*
X112198452Y-118421452D01*
X112198452Y-118391214D01*
X112228690Y-118330738D01*
X112258928Y-118300500D01*
X112319404Y-118270261D01*
X112440357Y-118270261D01*
X112500833Y-118300500D01*
X112531071Y-118330738D01*
X112561309Y-118391214D01*
X112561309Y-118421452D01*
X112531071Y-118481928D01*
X112500833Y-118512166D01*
X112440357Y-118542404D01*
X112319404Y-118542404D01*
X112258928Y-118572642D01*
X112228690Y-118602880D01*
X112198452Y-118663357D01*
X112198452Y-118784309D01*
X112228690Y-118844785D01*
X112258928Y-118875023D01*
X112319404Y-118905261D01*
X112440357Y-118905261D01*
X112500833Y-118875023D01*
X112531071Y-118844785D01*
X112561309Y-118784309D01*
X112561309Y-118663357D01*
X112531071Y-118602880D01*
X112500833Y-118572642D01*
X112440357Y-118542404D01*
X136370785Y-118844785D02*
X136340547Y-118875023D01*
X136249833Y-118905261D01*
X136189357Y-118905261D01*
X136098642Y-118875023D01*
X136038166Y-118814547D01*
X136007928Y-118754071D01*
X135977690Y-118633119D01*
X135977690Y-118542404D01*
X136007928Y-118421452D01*
X136038166Y-118360976D01*
X136098642Y-118300500D01*
X136189357Y-118270261D01*
X136249833Y-118270261D01*
X136340547Y-118300500D01*
X136370785Y-118330738D01*
X136975547Y-118905261D02*
X136612690Y-118905261D01*
X136794119Y-118905261D02*
X136794119Y-118270261D01*
X136733642Y-118360976D01*
X136673166Y-118421452D01*
X136612690Y-118451690D01*
X137187214Y-118270261D02*
X137610547Y-118270261D01*
X137338404Y-118905261D01*
X112367785Y-99540785D02*
X112337547Y-99571023D01*
X112246833Y-99601261D01*
X112186357Y-99601261D01*
X112095642Y-99571023D01*
X112035166Y-99510547D01*
X112004928Y-99450071D01*
X111974690Y-99329119D01*
X111974690Y-99238404D01*
X112004928Y-99117452D01*
X112035166Y-99056976D01*
X112095642Y-98996500D01*
X112186357Y-98966261D01*
X112246833Y-98966261D01*
X112337547Y-98996500D01*
X112367785Y-99026738D01*
X112972547Y-99601261D02*
X112609690Y-99601261D01*
X112791119Y-99601261D02*
X112791119Y-98966261D01*
X112730642Y-99056976D01*
X112670166Y-99117452D01*
X112609690Y-99147690D01*
X113516833Y-98966261D02*
X113395880Y-98966261D01*
X113335404Y-98996500D01*
X113305166Y-99026738D01*
X113244690Y-99117452D01*
X113214452Y-99238404D01*
X113214452Y-99480309D01*
X113244690Y-99540785D01*
X113274928Y-99571023D01*
X113335404Y-99601261D01*
X113456357Y-99601261D01*
X113516833Y-99571023D01*
X113547071Y-99540785D01*
X113577309Y-99480309D01*
X113577309Y-99329119D01*
X113547071Y-99268642D01*
X113516833Y-99238404D01*
X113456357Y-99208166D01*
X113335404Y-99208166D01*
X113274928Y-99238404D01*
X113244690Y-99268642D01*
X113214452Y-99329119D01*
X108303785Y-104620785D02*
X108273547Y-104651023D01*
X108182833Y-104681261D01*
X108122357Y-104681261D01*
X108031642Y-104651023D01*
X107971166Y-104590547D01*
X107940928Y-104530071D01*
X107910690Y-104409119D01*
X107910690Y-104318404D01*
X107940928Y-104197452D01*
X107971166Y-104136976D01*
X108031642Y-104076500D01*
X108122357Y-104046261D01*
X108182833Y-104046261D01*
X108273547Y-104076500D01*
X108303785Y-104106738D01*
X108908547Y-104681261D02*
X108545690Y-104681261D01*
X108727119Y-104681261D02*
X108727119Y-104046261D01*
X108666642Y-104136976D01*
X108606166Y-104197452D01*
X108545690Y-104227690D01*
X109483071Y-104046261D02*
X109180690Y-104046261D01*
X109150452Y-104348642D01*
X109180690Y-104318404D01*
X109241166Y-104288166D01*
X109392357Y-104288166D01*
X109452833Y-104318404D01*
X109483071Y-104348642D01*
X109513309Y-104409119D01*
X109513309Y-104560309D01*
X109483071Y-104620785D01*
X109452833Y-104651023D01*
X109392357Y-104681261D01*
X109241166Y-104681261D01*
X109180690Y-104651023D01*
X109150452Y-104620785D01*
X103477785Y-104620785D02*
X103447547Y-104651023D01*
X103356833Y-104681261D01*
X103296357Y-104681261D01*
X103205642Y-104651023D01*
X103145166Y-104590547D01*
X103114928Y-104530071D01*
X103084690Y-104409119D01*
X103084690Y-104318404D01*
X103114928Y-104197452D01*
X103145166Y-104136976D01*
X103205642Y-104076500D01*
X103296357Y-104046261D01*
X103356833Y-104046261D01*
X103447547Y-104076500D01*
X103477785Y-104106738D01*
X104082547Y-104681261D02*
X103719690Y-104681261D01*
X103901119Y-104681261D02*
X103901119Y-104046261D01*
X103840642Y-104136976D01*
X103780166Y-104197452D01*
X103719690Y-104227690D01*
X104626833Y-104257928D02*
X104626833Y-104681261D01*
X104475642Y-104016023D02*
X104324452Y-104469595D01*
X104717547Y-104469595D01*
X99667785Y-96492785D02*
X99637547Y-96523023D01*
X99546833Y-96553261D01*
X99486357Y-96553261D01*
X99395642Y-96523023D01*
X99335166Y-96462547D01*
X99304928Y-96402071D01*
X99274690Y-96281119D01*
X99274690Y-96190404D01*
X99304928Y-96069452D01*
X99335166Y-96008976D01*
X99395642Y-95948500D01*
X99486357Y-95918261D01*
X99546833Y-95918261D01*
X99637547Y-95948500D01*
X99667785Y-95978738D01*
X100272547Y-96553261D02*
X99909690Y-96553261D01*
X100091119Y-96553261D02*
X100091119Y-95918261D01*
X100030642Y-96008976D01*
X99970166Y-96069452D01*
X99909690Y-96099690D01*
X100484214Y-95918261D02*
X100877309Y-95918261D01*
X100665642Y-96160166D01*
X100756357Y-96160166D01*
X100816833Y-96190404D01*
X100847071Y-96220642D01*
X100877309Y-96281119D01*
X100877309Y-96432309D01*
X100847071Y-96492785D01*
X100816833Y-96523023D01*
X100756357Y-96553261D01*
X100574928Y-96553261D01*
X100514452Y-96523023D01*
X100484214Y-96492785D01*
X131163785Y-130528785D02*
X131133547Y-130559023D01*
X131042833Y-130589261D01*
X130982357Y-130589261D01*
X130891642Y-130559023D01*
X130831166Y-130498547D01*
X130800928Y-130438071D01*
X130770690Y-130317119D01*
X130770690Y-130226404D01*
X130800928Y-130105452D01*
X130831166Y-130044976D01*
X130891642Y-129984500D01*
X130982357Y-129954261D01*
X131042833Y-129954261D01*
X131133547Y-129984500D01*
X131163785Y-130014738D01*
X131768547Y-130589261D02*
X131405690Y-130589261D01*
X131587119Y-130589261D02*
X131587119Y-129954261D01*
X131526642Y-130044976D01*
X131466166Y-130105452D01*
X131405690Y-130135690D01*
X132010452Y-130014738D02*
X132040690Y-129984500D01*
X132101166Y-129954261D01*
X132252357Y-129954261D01*
X132312833Y-129984500D01*
X132343071Y-130014738D01*
X132373309Y-130075214D01*
X132373309Y-130135690D01*
X132343071Y-130226404D01*
X131980214Y-130589261D01*
X132373309Y-130589261D01*
X116812785Y-138847285D02*
X116782547Y-138877523D01*
X116691833Y-138907761D01*
X116631357Y-138907761D01*
X116540642Y-138877523D01*
X116480166Y-138817047D01*
X116449928Y-138756571D01*
X116419690Y-138635619D01*
X116419690Y-138544904D01*
X116449928Y-138423952D01*
X116480166Y-138363476D01*
X116540642Y-138303000D01*
X116631357Y-138272761D01*
X116691833Y-138272761D01*
X116782547Y-138303000D01*
X116812785Y-138333238D01*
X117417547Y-138907761D02*
X117054690Y-138907761D01*
X117236119Y-138907761D02*
X117236119Y-138272761D01*
X117175642Y-138363476D01*
X117115166Y-138423952D01*
X117054690Y-138454190D01*
X118022309Y-138907761D02*
X117659452Y-138907761D01*
X117840880Y-138907761D02*
X117840880Y-138272761D01*
X117780404Y-138363476D01*
X117719928Y-138423952D01*
X117659452Y-138454190D01*
X118590785Y-132243285D02*
X118560547Y-132273523D01*
X118469833Y-132303761D01*
X118409357Y-132303761D01*
X118318642Y-132273523D01*
X118258166Y-132213047D01*
X118227928Y-132152571D01*
X118197690Y-132031619D01*
X118197690Y-131940904D01*
X118227928Y-131819952D01*
X118258166Y-131759476D01*
X118318642Y-131699000D01*
X118409357Y-131668761D01*
X118469833Y-131668761D01*
X118560547Y-131699000D01*
X118590785Y-131729238D01*
X119195547Y-132303761D02*
X118832690Y-132303761D01*
X119014119Y-132303761D02*
X119014119Y-131668761D01*
X118953642Y-131759476D01*
X118893166Y-131819952D01*
X118832690Y-131850190D01*
X119588642Y-131668761D02*
X119649119Y-131668761D01*
X119709595Y-131699000D01*
X119739833Y-131729238D01*
X119770071Y-131789714D01*
X119800309Y-131910666D01*
X119800309Y-132061857D01*
X119770071Y-132182809D01*
X119739833Y-132243285D01*
X119709595Y-132273523D01*
X119649119Y-132303761D01*
X119588642Y-132303761D01*
X119528166Y-132273523D01*
X119497928Y-132243285D01*
X119467690Y-132182809D01*
X119437452Y-132061857D01*
X119437452Y-131910666D01*
X119467690Y-131789714D01*
X119497928Y-131729238D01*
X119528166Y-131699000D01*
X119588642Y-131668761D01*
X157562126Y-104369325D02*
X157531888Y-104399563D01*
X157441174Y-104429801D01*
X157380698Y-104429801D01*
X157289983Y-104399563D01*
X157229507Y-104339087D01*
X157199269Y-104278611D01*
X157169031Y-104157659D01*
X157169031Y-104066944D01*
X157199269Y-103945992D01*
X157229507Y-103885516D01*
X157289983Y-103825040D01*
X157380698Y-103794801D01*
X157441174Y-103794801D01*
X157531888Y-103825040D01*
X157562126Y-103855278D01*
X157864507Y-104429801D02*
X157985460Y-104429801D01*
X158045936Y-104399563D01*
X158076174Y-104369325D01*
X158136650Y-104278611D01*
X158166888Y-104157659D01*
X158166888Y-103915754D01*
X158136650Y-103855278D01*
X158106412Y-103825040D01*
X158045936Y-103794801D01*
X157924983Y-103794801D01*
X157864507Y-103825040D01*
X157834269Y-103855278D01*
X157804031Y-103915754D01*
X157804031Y-104066944D01*
X157834269Y-104127420D01*
X157864507Y-104157659D01*
X157924983Y-104187897D01*
X158045936Y-104187897D01*
X158106412Y-104157659D01*
X158136650Y-104127420D01*
X158166888Y-104066944D01*
X157485926Y-102568465D02*
X157455688Y-102598703D01*
X157364974Y-102628941D01*
X157304498Y-102628941D01*
X157213783Y-102598703D01*
X157153307Y-102538227D01*
X157123069Y-102477751D01*
X157092831Y-102356799D01*
X157092831Y-102266084D01*
X157123069Y-102145132D01*
X157153307Y-102084656D01*
X157213783Y-102024180D01*
X157304498Y-101993941D01*
X157364974Y-101993941D01*
X157455688Y-102024180D01*
X157485926Y-102054418D01*
X157848783Y-102266084D02*
X157788307Y-102235846D01*
X157758069Y-102205608D01*
X157727831Y-102145132D01*
X157727831Y-102114894D01*
X157758069Y-102054418D01*
X157788307Y-102024180D01*
X157848783Y-101993941D01*
X157969736Y-101993941D01*
X158030212Y-102024180D01*
X158060450Y-102054418D01*
X158090688Y-102114894D01*
X158090688Y-102145132D01*
X158060450Y-102205608D01*
X158030212Y-102235846D01*
X157969736Y-102266084D01*
X157848783Y-102266084D01*
X157788307Y-102296322D01*
X157758069Y-102326560D01*
X157727831Y-102387037D01*
X157727831Y-102507989D01*
X157758069Y-102568465D01*
X157788307Y-102598703D01*
X157848783Y-102628941D01*
X157969736Y-102628941D01*
X158030212Y-102598703D01*
X158060450Y-102568465D01*
X158090688Y-102507989D01*
X158090688Y-102387037D01*
X158060450Y-102326560D01*
X158030212Y-102296322D01*
X157969736Y-102266084D01*
X120671166Y-133068785D02*
X120640928Y-133099023D01*
X120550214Y-133129261D01*
X120489738Y-133129261D01*
X120399023Y-133099023D01*
X120338547Y-133038547D01*
X120308309Y-132978071D01*
X120278071Y-132857119D01*
X120278071Y-132766404D01*
X120308309Y-132645452D01*
X120338547Y-132584976D01*
X120399023Y-132524500D01*
X120489738Y-132494261D01*
X120550214Y-132494261D01*
X120640928Y-132524500D01*
X120671166Y-132554738D01*
X120882833Y-132494261D02*
X121306166Y-132494261D01*
X121034023Y-133129261D01*
X136546166Y-130274785D02*
X136515928Y-130305023D01*
X136425214Y-130335261D01*
X136364738Y-130335261D01*
X136274023Y-130305023D01*
X136213547Y-130244547D01*
X136183309Y-130184071D01*
X136153071Y-130063119D01*
X136153071Y-129972404D01*
X136183309Y-129851452D01*
X136213547Y-129790976D01*
X136274023Y-129730500D01*
X136364738Y-129700261D01*
X136425214Y-129700261D01*
X136515928Y-129730500D01*
X136546166Y-129760738D01*
X137090452Y-129700261D02*
X136969500Y-129700261D01*
X136909023Y-129730500D01*
X136878785Y-129760738D01*
X136818309Y-129851452D01*
X136788071Y-129972404D01*
X136788071Y-130214309D01*
X136818309Y-130274785D01*
X136848547Y-130305023D01*
X136909023Y-130335261D01*
X137029976Y-130335261D01*
X137090452Y-130305023D01*
X137120690Y-130274785D01*
X137150928Y-130214309D01*
X137150928Y-130063119D01*
X137120690Y-130002642D01*
X137090452Y-129972404D01*
X137029976Y-129942166D01*
X136909023Y-129942166D01*
X136848547Y-129972404D01*
X136818309Y-130002642D01*
X136788071Y-130063119D01*
X147419785Y-129772833D02*
X147450023Y-129803071D01*
X147480261Y-129893785D01*
X147480261Y-129954261D01*
X147450023Y-130044976D01*
X147389547Y-130105452D01*
X147329071Y-130135690D01*
X147208119Y-130165928D01*
X147117404Y-130165928D01*
X146996452Y-130135690D01*
X146935976Y-130105452D01*
X146875500Y-130044976D01*
X146845261Y-129954261D01*
X146845261Y-129893785D01*
X146875500Y-129803071D01*
X146905738Y-129772833D01*
X146845261Y-129198309D02*
X146845261Y-129500690D01*
X147147642Y-129530928D01*
X147117404Y-129500690D01*
X147087166Y-129440214D01*
X147087166Y-129289023D01*
X147117404Y-129228547D01*
X147147642Y-129198309D01*
X147208119Y-129168071D01*
X147359309Y-129168071D01*
X147419785Y-129198309D01*
X147450023Y-129228547D01*
X147480261Y-129289023D01*
X147480261Y-129440214D01*
X147450023Y-129500690D01*
X147419785Y-129530928D01*
X135530166Y-136624785D02*
X135499928Y-136655023D01*
X135409214Y-136685261D01*
X135348738Y-136685261D01*
X135258023Y-136655023D01*
X135197547Y-136594547D01*
X135167309Y-136534071D01*
X135137071Y-136413119D01*
X135137071Y-136322404D01*
X135167309Y-136201452D01*
X135197547Y-136140976D01*
X135258023Y-136080500D01*
X135348738Y-136050261D01*
X135409214Y-136050261D01*
X135499928Y-136080500D01*
X135530166Y-136110738D01*
X136074452Y-136261928D02*
X136074452Y-136685261D01*
X135923261Y-136020023D02*
X135772071Y-136473595D01*
X136165166Y-136473595D01*
X141626166Y-136624785D02*
X141595928Y-136655023D01*
X141505214Y-136685261D01*
X141444738Y-136685261D01*
X141354023Y-136655023D01*
X141293547Y-136594547D01*
X141263309Y-136534071D01*
X141233071Y-136413119D01*
X141233071Y-136322404D01*
X141263309Y-136201452D01*
X141293547Y-136140976D01*
X141354023Y-136080500D01*
X141444738Y-136050261D01*
X141505214Y-136050261D01*
X141595928Y-136080500D01*
X141626166Y-136110738D01*
X141837833Y-136050261D02*
X142230928Y-136050261D01*
X142019261Y-136292166D01*
X142109976Y-136292166D01*
X142170452Y-136322404D01*
X142200690Y-136352642D01*
X142230928Y-136413119D01*
X142230928Y-136564309D01*
X142200690Y-136624785D01*
X142170452Y-136655023D01*
X142109976Y-136685261D01*
X141928547Y-136685261D01*
X141868071Y-136655023D01*
X141837833Y-136624785D01*
X147976166Y-82522785D02*
X147945928Y-82553023D01*
X147855214Y-82583261D01*
X147794738Y-82583261D01*
X147704023Y-82553023D01*
X147643547Y-82492547D01*
X147613309Y-82432071D01*
X147583071Y-82311119D01*
X147583071Y-82220404D01*
X147613309Y-82099452D01*
X147643547Y-82038976D01*
X147704023Y-81978500D01*
X147794738Y-81948261D01*
X147855214Y-81948261D01*
X147945928Y-81978500D01*
X147976166Y-82008738D01*
X148218071Y-82008738D02*
X148248309Y-81978500D01*
X148308785Y-81948261D01*
X148459976Y-81948261D01*
X148520452Y-81978500D01*
X148550690Y-82008738D01*
X148580928Y-82069214D01*
X148580928Y-82129690D01*
X148550690Y-82220404D01*
X148187833Y-82583261D01*
X148580928Y-82583261D01*
X147976166Y-78712785D02*
X147945928Y-78743023D01*
X147855214Y-78773261D01*
X147794738Y-78773261D01*
X147704023Y-78743023D01*
X147643547Y-78682547D01*
X147613309Y-78622071D01*
X147583071Y-78501119D01*
X147583071Y-78410404D01*
X147613309Y-78289452D01*
X147643547Y-78228976D01*
X147704023Y-78168500D01*
X147794738Y-78138261D01*
X147855214Y-78138261D01*
X147945928Y-78168500D01*
X147976166Y-78198738D01*
X148580928Y-78773261D02*
X148218071Y-78773261D01*
X148399500Y-78773261D02*
X148399500Y-78138261D01*
X148339023Y-78228976D01*
X148278547Y-78289452D01*
X148218071Y-78319690D01*
X112004928Y-127716642D02*
X112095642Y-127746880D01*
X112125880Y-127777119D01*
X112156119Y-127837595D01*
X112156119Y-127928309D01*
X112125880Y-127988785D01*
X112095642Y-128019023D01*
X112035166Y-128049261D01*
X111793261Y-128049261D01*
X111793261Y-127414261D01*
X112004928Y-127414261D01*
X112065404Y-127444500D01*
X112095642Y-127474738D01*
X112125880Y-127535214D01*
X112125880Y-127595690D01*
X112095642Y-127656166D01*
X112065404Y-127686404D01*
X112004928Y-127716642D01*
X111793261Y-127716642D01*
X112398023Y-127867833D02*
X112700404Y-127867833D01*
X112337547Y-128049261D02*
X112549214Y-127414261D01*
X112760880Y-128049261D01*
X112881833Y-127414261D02*
X113244690Y-127414261D01*
X113063261Y-128049261D02*
X113063261Y-127414261D01*
X113788976Y-128049261D02*
X113426119Y-128049261D01*
X113607547Y-128049261D02*
X113607547Y-127414261D01*
X113547071Y-127504976D01*
X113486595Y-127565452D01*
X113426119Y-127595690D01*
X162133461Y-122065519D02*
X161831080Y-122277185D01*
X162133461Y-122428376D02*
X161498461Y-122428376D01*
X161498461Y-122186471D01*
X161528700Y-122125995D01*
X161558938Y-122095757D01*
X161619414Y-122065519D01*
X161710128Y-122065519D01*
X161770604Y-122095757D01*
X161800842Y-122125995D01*
X161831080Y-122186471D01*
X161831080Y-122428376D01*
X162103223Y-121823614D02*
X162133461Y-121732900D01*
X162133461Y-121581709D01*
X162103223Y-121521233D01*
X162072985Y-121490995D01*
X162012509Y-121460757D01*
X161952033Y-121460757D01*
X161891557Y-121490995D01*
X161861319Y-121521233D01*
X161831080Y-121581709D01*
X161800842Y-121702661D01*
X161770604Y-121763138D01*
X161740366Y-121793376D01*
X161679890Y-121823614D01*
X161619414Y-121823614D01*
X161558938Y-121793376D01*
X161528700Y-121763138D01*
X161498461Y-121702661D01*
X161498461Y-121551471D01*
X161528700Y-121460757D01*
X161498461Y-121279328D02*
X161498461Y-120916471D01*
X162133461Y-121097900D02*
X161498461Y-121097900D01*
X162133461Y-120372185D02*
X162133461Y-120735042D01*
X162133461Y-120553614D02*
X161498461Y-120553614D01*
X161589176Y-120614090D01*
X161649652Y-120674566D01*
X161679890Y-120735042D01*
X162110661Y-86913119D02*
X161808280Y-87124785D01*
X162110661Y-87275976D02*
X161475661Y-87275976D01*
X161475661Y-87034071D01*
X161505900Y-86973595D01*
X161536138Y-86943357D01*
X161596614Y-86913119D01*
X161687328Y-86913119D01*
X161747804Y-86943357D01*
X161778042Y-86973595D01*
X161808280Y-87034071D01*
X161808280Y-87275976D01*
X162080423Y-86671214D02*
X162110661Y-86580500D01*
X162110661Y-86429309D01*
X162080423Y-86368833D01*
X162050185Y-86338595D01*
X161989709Y-86308357D01*
X161929233Y-86308357D01*
X161868757Y-86338595D01*
X161838519Y-86368833D01*
X161808280Y-86429309D01*
X161778042Y-86550261D01*
X161747804Y-86610738D01*
X161717566Y-86640976D01*
X161657090Y-86671214D01*
X161596614Y-86671214D01*
X161536138Y-86640976D01*
X161505900Y-86610738D01*
X161475661Y-86550261D01*
X161475661Y-86399071D01*
X161505900Y-86308357D01*
X161475661Y-86126928D02*
X161475661Y-85764071D01*
X162110661Y-85945500D02*
X161475661Y-85945500D01*
X161536138Y-85582642D02*
X161505900Y-85552404D01*
X161475661Y-85491928D01*
X161475661Y-85340738D01*
X161505900Y-85280261D01*
X161536138Y-85250023D01*
X161596614Y-85219785D01*
X161657090Y-85219785D01*
X161747804Y-85250023D01*
X162110661Y-85612880D01*
X162110661Y-85219785D01*
X116431785Y-72169261D02*
X116220119Y-71866880D01*
X116068928Y-72169261D02*
X116068928Y-71534261D01*
X116310833Y-71534261D01*
X116371309Y-71564500D01*
X116401547Y-71594738D01*
X116431785Y-71655214D01*
X116431785Y-71745928D01*
X116401547Y-71806404D01*
X116371309Y-71836642D01*
X116310833Y-71866880D01*
X116068928Y-71866880D01*
X117036547Y-72169261D02*
X116673690Y-72169261D01*
X116855119Y-72169261D02*
X116855119Y-71534261D01*
X116794642Y-71624976D01*
X116734166Y-71685452D01*
X116673690Y-71715690D01*
X117248214Y-71534261D02*
X117641309Y-71534261D01*
X117429642Y-71776166D01*
X117520357Y-71776166D01*
X117580833Y-71806404D01*
X117611071Y-71836642D01*
X117641309Y-71897119D01*
X117641309Y-72048309D01*
X117611071Y-72108785D01*
X117580833Y-72139023D01*
X117520357Y-72169261D01*
X117338928Y-72169261D01*
X117278452Y-72139023D01*
X117248214Y-72108785D01*
X141323785Y-87663261D02*
X141112119Y-87360880D01*
X140960928Y-87663261D02*
X140960928Y-87028261D01*
X141202833Y-87028261D01*
X141263309Y-87058500D01*
X141293547Y-87088738D01*
X141323785Y-87149214D01*
X141323785Y-87239928D01*
X141293547Y-87300404D01*
X141263309Y-87330642D01*
X141202833Y-87360880D01*
X140960928Y-87360880D01*
X141928547Y-87663261D02*
X141565690Y-87663261D01*
X141747119Y-87663261D02*
X141747119Y-87028261D01*
X141686642Y-87118976D01*
X141626166Y-87179452D01*
X141565690Y-87209690D01*
X142472833Y-87239928D02*
X142472833Y-87663261D01*
X142321642Y-86998023D02*
X142170452Y-87451595D01*
X142563547Y-87451595D01*
X118642190Y-88933261D02*
X118642190Y-89447309D01*
X118672428Y-89507785D01*
X118702666Y-89538023D01*
X118763142Y-89568261D01*
X118884095Y-89568261D01*
X118944571Y-89538023D01*
X118974809Y-89507785D01*
X119005047Y-89447309D01*
X119005047Y-88933261D01*
X119609809Y-88933261D02*
X119307428Y-88933261D01*
X119277190Y-89235642D01*
X119307428Y-89205404D01*
X119367904Y-89175166D01*
X119519095Y-89175166D01*
X119579571Y-89205404D01*
X119609809Y-89235642D01*
X119640047Y-89296119D01*
X119640047Y-89447309D01*
X119609809Y-89507785D01*
X119579571Y-89538023D01*
X119519095Y-89568261D01*
X119367904Y-89568261D01*
X119307428Y-89538023D01*
X119277190Y-89507785D01*
X161278509Y-81499861D02*
X161278509Y-80864861D01*
X161429700Y-80864861D01*
X161520414Y-80895100D01*
X161580890Y-80955576D01*
X161611128Y-81016052D01*
X161641366Y-81137004D01*
X161641366Y-81227719D01*
X161611128Y-81348671D01*
X161580890Y-81409147D01*
X161520414Y-81469623D01*
X161429700Y-81499861D01*
X161278509Y-81499861D01*
X162185652Y-81076528D02*
X162185652Y-81499861D01*
X162034461Y-80834623D02*
X161883271Y-81288195D01*
X162276366Y-81288195D01*
X161275909Y-126550261D02*
X161275909Y-125915261D01*
X161427100Y-125915261D01*
X161517814Y-125945500D01*
X161578290Y-126005976D01*
X161608528Y-126066452D01*
X161638766Y-126187404D01*
X161638766Y-126278119D01*
X161608528Y-126399071D01*
X161578290Y-126459547D01*
X161517814Y-126520023D01*
X161427100Y-126550261D01*
X161275909Y-126550261D01*
X162183052Y-125915261D02*
X162062100Y-125915261D01*
X162001623Y-125945500D01*
X161971385Y-125975738D01*
X161910909Y-126066452D01*
X161880671Y-126187404D01*
X161880671Y-126429309D01*
X161910909Y-126489785D01*
X161941147Y-126520023D01*
X162001623Y-126550261D01*
X162122576Y-126550261D01*
X162183052Y-126520023D01*
X162213290Y-126489785D01*
X162243528Y-126429309D01*
X162243528Y-126278119D01*
X162213290Y-126217642D01*
X162183052Y-126187404D01*
X162122576Y-126157166D01*
X162001623Y-126157166D01*
X161941147Y-126187404D01*
X161910909Y-126217642D01*
X161880671Y-126278119D01*
X160742085Y-79903561D02*
X160530419Y-79601180D01*
X160379228Y-79903561D02*
X160379228Y-79268561D01*
X160621133Y-79268561D01*
X160681609Y-79298800D01*
X160711847Y-79329038D01*
X160742085Y-79389514D01*
X160742085Y-79480228D01*
X160711847Y-79540704D01*
X160681609Y-79570942D01*
X160621133Y-79601180D01*
X160379228Y-79601180D01*
X160983990Y-79329038D02*
X161014228Y-79298800D01*
X161074704Y-79268561D01*
X161225895Y-79268561D01*
X161286371Y-79298800D01*
X161316609Y-79329038D01*
X161346847Y-79389514D01*
X161346847Y-79449990D01*
X161316609Y-79540704D01*
X160953752Y-79903561D01*
X161346847Y-79903561D01*
X161588752Y-79329038D02*
X161618990Y-79298800D01*
X161679466Y-79268561D01*
X161830657Y-79268561D01*
X161891133Y-79298800D01*
X161921371Y-79329038D01*
X161951609Y-79389514D01*
X161951609Y-79449990D01*
X161921371Y-79540704D01*
X161558514Y-79903561D01*
X161951609Y-79903561D01*
X160729385Y-128125461D02*
X160517719Y-127823080D01*
X160366528Y-128125461D02*
X160366528Y-127490461D01*
X160608433Y-127490461D01*
X160668909Y-127520700D01*
X160699147Y-127550938D01*
X160729385Y-127611414D01*
X160729385Y-127702128D01*
X160699147Y-127762604D01*
X160668909Y-127792842D01*
X160608433Y-127823080D01*
X160366528Y-127823080D01*
X160971290Y-127550938D02*
X161001528Y-127520700D01*
X161062004Y-127490461D01*
X161213195Y-127490461D01*
X161273671Y-127520700D01*
X161303909Y-127550938D01*
X161334147Y-127611414D01*
X161334147Y-127671890D01*
X161303909Y-127762604D01*
X160941052Y-128125461D01*
X161334147Y-128125461D01*
X161878433Y-127702128D02*
X161878433Y-128125461D01*
X161727242Y-127460223D02*
X161576052Y-127913795D01*
X161969147Y-127913795D01*
X160043585Y-83091261D02*
X159831919Y-82788880D01*
X159680728Y-83091261D02*
X159680728Y-82456261D01*
X159922633Y-82456261D01*
X159983109Y-82486500D01*
X160013347Y-82516738D01*
X160043585Y-82577214D01*
X160043585Y-82667928D01*
X160013347Y-82728404D01*
X159983109Y-82758642D01*
X159922633Y-82788880D01*
X159680728Y-82788880D01*
X160285490Y-82516738D02*
X160315728Y-82486500D01*
X160376204Y-82456261D01*
X160527395Y-82456261D01*
X160587871Y-82486500D01*
X160618109Y-82516738D01*
X160648347Y-82577214D01*
X160648347Y-82637690D01*
X160618109Y-82728404D01*
X160255252Y-83091261D01*
X160648347Y-83091261D01*
X161192633Y-82456261D02*
X161071680Y-82456261D01*
X161011204Y-82486500D01*
X160980966Y-82516738D01*
X160920490Y-82607452D01*
X160890252Y-82728404D01*
X160890252Y-82970309D01*
X160920490Y-83030785D01*
X160950728Y-83061023D01*
X161011204Y-83091261D01*
X161132157Y-83091261D01*
X161192633Y-83061023D01*
X161222871Y-83030785D01*
X161253109Y-82970309D01*
X161253109Y-82819119D01*
X161222871Y-82758642D01*
X161192633Y-82728404D01*
X161132157Y-82698166D01*
X161011204Y-82698166D01*
X160950728Y-82728404D01*
X160920490Y-82758642D01*
X160890252Y-82819119D01*
M02*
