G04 #@! TF.GenerationSoftware,KiCad,Pcbnew,5.1.6-c6e7f7d~87~ubuntu18.04.1*
G04 #@! TF.CreationDate,2020-07-31T19:21:43+02:00*
G04 #@! TF.ProjectId,hm-env-sensor,686d2d65-6e76-42d7-9365-6e736f722e6b,A1*
G04 #@! TF.SameCoordinates,Original*
G04 #@! TF.FileFunction,Paste,Top*
G04 #@! TF.FilePolarity,Positive*
%FSLAX46Y46*%
G04 Gerber Fmt 4.6, Leading zero omitted, Abs format (unit mm)*
G04 Created by KiCad (PCBNEW 5.1.6-c6e7f7d~87~ubuntu18.04.1) date 2020-07-31 19:21:43*
%MOMM*%
%LPD*%
G01*
G04 APERTURE LIST*
G04 #@! TA.AperFunction,Profile*
%ADD10C,0.254000*%
G04 #@! TD*
%ADD11C,0.100000*%
%ADD12R,1.016000X1.016000*%
%ADD13R,0.250000X1.700000*%
%ADD14R,1.800000X3.900000*%
%ADD15O,0.230000X0.800000*%
%ADD16R,0.230000X0.230000*%
%ADD17R,1.050000X0.680000*%
%ADD18R,0.500000X0.260000*%
%ADD19R,0.650000X0.400000*%
%ADD20R,0.550000X1.200000*%
%ADD21R,1.200000X0.550000*%
%ADD22R,1.000000X1.400000*%
%ADD23R,1.270000X0.325000*%
%ADD24R,1.524000X1.778000*%
%ADD25R,1.400000X1.000000*%
%ADD26R,1.400000X1.200000*%
%ADD27R,0.800000X0.800000*%
%ADD28R,1.300000X3.400000*%
%ADD29R,3.000000X1.600000*%
%ADD30R,0.914400X0.914400*%
%ADD31R,2.000000X1.700000*%
%ADD32R,1.270000X1.524000*%
%ADD33R,1.524000X1.270000*%
%ADD34R,1.754000X1.327000*%
%ADD35R,1.550000X0.750000*%
%ADD36R,0.750000X1.550000*%
%ADD37R,1.400000X1.400000*%
G04 APERTURE END LIST*
D10*
X169398000Y-135704200D02*
X169398000Y-71704200D01*
X90398000Y-71704200D02*
X90398000Y-135704200D01*
X161898000Y-64204200D02*
X97898000Y-64204200D01*
X161898000Y-64204200D02*
G75*
G02*
X169398000Y-71704200I0J-7500000D01*
G01*
X169398000Y-135704200D02*
G75*
G02*
X161898000Y-143204200I-7500000J0D01*
G01*
X161898000Y-143204200D02*
X97898000Y-143204200D01*
X90398000Y-71704200D02*
G75*
G02*
X97898000Y-64204200I7500000J0D01*
G01*
X97898000Y-143204200D02*
G75*
G02*
X90398000Y-135704200I0J7500000D01*
G01*
D11*
G36*
X117432000Y-134861500D02*
G01*
X117232000Y-134861500D01*
X117232000Y-135661500D01*
X117432000Y-135661500D01*
X117432000Y-134861500D01*
G37*
G36*
X117032000Y-134861500D02*
G01*
X116832000Y-134861500D01*
X116832000Y-135661500D01*
X117032000Y-135661500D01*
X117032000Y-134861500D01*
G37*
G36*
X116632000Y-134861500D02*
G01*
X116432000Y-134861500D01*
X116432000Y-135661500D01*
X116632000Y-135661500D01*
X116632000Y-134861500D01*
G37*
G36*
X116232000Y-134861500D02*
G01*
X116032000Y-134861500D01*
X116032000Y-135661500D01*
X116232000Y-135661500D01*
X116232000Y-134861500D01*
G37*
G36*
X115832000Y-134861500D02*
G01*
X115632000Y-134861500D01*
X115632000Y-135661500D01*
X115832000Y-135661500D01*
X115832000Y-134861500D01*
G37*
G36*
X115432000Y-134861500D02*
G01*
X115232000Y-134861500D01*
X115232000Y-135661500D01*
X115432000Y-135661500D01*
X115432000Y-134861500D01*
G37*
G36*
X115232000Y-131711500D02*
G01*
X115432000Y-131711500D01*
X115432000Y-130911500D01*
X115232000Y-130911500D01*
X115232000Y-131711500D01*
G37*
G36*
X115632000Y-131711500D02*
G01*
X115832000Y-131711500D01*
X115832000Y-130911500D01*
X115632000Y-130911500D01*
X115632000Y-131711500D01*
G37*
G36*
X116032000Y-131711500D02*
G01*
X116232000Y-131711500D01*
X116232000Y-130911500D01*
X116032000Y-130911500D01*
X116032000Y-131711500D01*
G37*
G36*
X117232000Y-131711500D02*
G01*
X117432000Y-131711500D01*
X117432000Y-130911500D01*
X117232000Y-130911500D01*
X117232000Y-131711500D01*
G37*
G36*
X116832000Y-131711500D02*
G01*
X117032000Y-131711500D01*
X117032000Y-130911500D01*
X116832000Y-130911500D01*
X116832000Y-131711500D01*
G37*
G36*
X116832000Y-131711500D02*
G01*
X117032000Y-131711500D01*
X117032000Y-130911500D01*
X116832000Y-130911500D01*
X116832000Y-131711500D01*
G37*
G36*
X116432000Y-131711500D02*
G01*
X116632000Y-131711500D01*
X116632000Y-130911500D01*
X116432000Y-130911500D01*
X116432000Y-131711500D01*
G37*
G36*
X114707000Y-134511500D02*
G01*
X115232000Y-134511500D01*
X115232000Y-134261500D01*
X114707000Y-134261500D01*
X114707000Y-134511500D01*
G37*
G36*
X117957000Y-132061500D02*
G01*
X117432000Y-132061500D01*
X117432000Y-132311500D01*
X117957000Y-132311500D01*
X117957000Y-132061500D01*
G37*
G36*
X117957000Y-134261500D02*
G01*
X117432000Y-134261500D01*
X117432000Y-134511500D01*
X117957000Y-134511500D01*
X117957000Y-134261500D01*
G37*
G36*
X114707000Y-132311500D02*
G01*
X115232000Y-132311500D01*
X115232000Y-132061500D01*
X114707000Y-132061500D01*
X114707000Y-132311500D01*
G37*
G36*
X115432000Y-134386500D02*
G01*
X116232000Y-134386500D01*
X116232000Y-133386500D01*
X115432000Y-133386500D01*
X115432000Y-134386500D01*
G37*
G36*
X117232000Y-132186500D02*
G01*
X116432000Y-132186500D01*
X116432000Y-133186500D01*
X117232000Y-133186500D01*
X117232000Y-132186500D01*
G37*
G36*
X117232000Y-133386500D02*
G01*
X116432000Y-133386500D01*
X116432000Y-134386500D01*
X117232000Y-134386500D01*
X117232000Y-133386500D01*
G37*
G36*
X115432000Y-133186500D02*
G01*
X116232000Y-133186500D01*
X116232000Y-132186500D01*
X115432000Y-132186500D01*
X115432000Y-133186500D01*
G37*
D12*
X118745000Y-71755000D03*
X118745000Y-73533000D03*
D13*
X130840000Y-135406000D03*
X130190000Y-135406000D03*
X129540000Y-135406000D03*
X128890000Y-135406000D03*
X128240000Y-135406000D03*
D14*
X130690000Y-139606000D03*
X128390000Y-139606000D03*
D15*
X115990500Y-122618500D03*
X115490500Y-122618500D03*
X114990500Y-122618500D03*
D16*
X114490500Y-122903500D03*
X113990500Y-122903500D03*
D15*
X113990500Y-119668500D03*
D16*
X114490500Y-119383500D03*
D15*
X114990500Y-119668500D03*
D16*
X115490500Y-119383500D03*
X115990500Y-119383500D03*
D17*
X114355500Y-121593500D03*
X114355500Y-120693500D03*
X115625500Y-121593500D03*
D18*
X113360500Y-121393500D03*
X113360500Y-120893500D03*
X116620500Y-121393500D03*
X116620500Y-120893500D03*
D17*
X115625500Y-120693500D03*
D16*
X115990500Y-122903500D03*
X115490500Y-122903500D03*
X114990500Y-122903500D03*
D15*
X114490500Y-122618500D03*
X113990500Y-122618500D03*
D16*
X113990500Y-119383500D03*
D15*
X114490500Y-119668500D03*
D16*
X114990500Y-119383500D03*
D15*
X115490500Y-119668500D03*
X115990500Y-119668500D03*
D19*
X111120000Y-94600000D03*
X111120000Y-95900000D03*
X109220000Y-95250000D03*
X109220000Y-95900000D03*
X109220000Y-94600000D03*
D20*
X133284000Y-124049000D03*
X132334000Y-124049000D03*
X131384000Y-124049000D03*
X133284000Y-126649000D03*
X131384000Y-126649000D03*
G36*
G01*
X162505000Y-102182000D02*
X162780000Y-102182000D01*
G75*
G02*
X162905000Y-102307000I0J-125000D01*
G01*
X162905000Y-102557000D01*
G75*
G02*
X162780000Y-102682000I-125000J0D01*
G01*
X162505000Y-102682000D01*
G75*
G02*
X162380000Y-102557000I0J125000D01*
G01*
X162380000Y-102307000D01*
G75*
G02*
X162505000Y-102182000I125000J0D01*
G01*
G37*
G36*
G01*
X162505000Y-102982000D02*
X162780000Y-102982000D01*
G75*
G02*
X162905000Y-103107000I0J-125000D01*
G01*
X162905000Y-103357000D01*
G75*
G02*
X162780000Y-103482000I-125000J0D01*
G01*
X162505000Y-103482000D01*
G75*
G02*
X162380000Y-103357000I0J125000D01*
G01*
X162380000Y-103107000D01*
G75*
G02*
X162505000Y-102982000I125000J0D01*
G01*
G37*
G36*
G01*
X162505000Y-103782000D02*
X162780000Y-103782000D01*
G75*
G02*
X162905000Y-103907000I0J-125000D01*
G01*
X162905000Y-104157000D01*
G75*
G02*
X162780000Y-104282000I-125000J0D01*
G01*
X162505000Y-104282000D01*
G75*
G02*
X162380000Y-104157000I0J125000D01*
G01*
X162380000Y-103907000D01*
G75*
G02*
X162505000Y-103782000I125000J0D01*
G01*
G37*
G36*
G01*
X162505000Y-104582000D02*
X162780000Y-104582000D01*
G75*
G02*
X162905000Y-104707000I0J-125000D01*
G01*
X162905000Y-104957000D01*
G75*
G02*
X162780000Y-105082000I-125000J0D01*
G01*
X162505000Y-105082000D01*
G75*
G02*
X162380000Y-104957000I0J125000D01*
G01*
X162380000Y-104707000D01*
G75*
G02*
X162505000Y-104582000I125000J0D01*
G01*
G37*
G36*
G01*
X164880000Y-104582000D02*
X165155000Y-104582000D01*
G75*
G02*
X165280000Y-104707000I0J-125000D01*
G01*
X165280000Y-104957000D01*
G75*
G02*
X165155000Y-105082000I-125000J0D01*
G01*
X164880000Y-105082000D01*
G75*
G02*
X164755000Y-104957000I0J125000D01*
G01*
X164755000Y-104707000D01*
G75*
G02*
X164880000Y-104582000I125000J0D01*
G01*
G37*
G36*
G01*
X164880000Y-103782000D02*
X165155000Y-103782000D01*
G75*
G02*
X165280000Y-103907000I0J-125000D01*
G01*
X165280000Y-104157000D01*
G75*
G02*
X165155000Y-104282000I-125000J0D01*
G01*
X164880000Y-104282000D01*
G75*
G02*
X164755000Y-104157000I0J125000D01*
G01*
X164755000Y-103907000D01*
G75*
G02*
X164880000Y-103782000I125000J0D01*
G01*
G37*
G36*
G01*
X164880000Y-102982000D02*
X165155000Y-102982000D01*
G75*
G02*
X165280000Y-103107000I0J-125000D01*
G01*
X165280000Y-103357000D01*
G75*
G02*
X165155000Y-103482000I-125000J0D01*
G01*
X164880000Y-103482000D01*
G75*
G02*
X164755000Y-103357000I0J125000D01*
G01*
X164755000Y-103107000D01*
G75*
G02*
X164880000Y-102982000I125000J0D01*
G01*
G37*
G36*
G01*
X164880000Y-102182000D02*
X165155000Y-102182000D01*
G75*
G02*
X165280000Y-102307000I0J-125000D01*
G01*
X165280000Y-102557000D01*
G75*
G02*
X165155000Y-102682000I-125000J0D01*
G01*
X164880000Y-102682000D01*
G75*
G02*
X164755000Y-102557000I0J125000D01*
G01*
X164755000Y-102307000D01*
G75*
G02*
X164880000Y-102182000I125000J0D01*
G01*
G37*
D21*
X118618000Y-125608000D03*
X118618000Y-126558000D03*
X118618000Y-127508000D03*
X121218000Y-125608000D03*
X121218000Y-127508000D03*
D22*
X157800000Y-131232000D03*
X156850000Y-129032000D03*
X158750000Y-129032000D03*
D23*
X139890500Y-128901000D03*
X139890500Y-129551000D03*
X139890500Y-130201000D03*
X139890500Y-130851000D03*
X139890500Y-131501000D03*
X139890500Y-132151000D03*
X139890500Y-132801000D03*
X139890500Y-133451000D03*
X139890500Y-134101000D03*
X139890500Y-134751000D03*
X147129500Y-134751000D03*
X147129500Y-134101000D03*
X147129500Y-133451000D03*
X147129500Y-132801000D03*
X147129500Y-132151000D03*
X147129500Y-131501000D03*
X147129500Y-130851000D03*
X147129500Y-130201000D03*
X147129500Y-129551000D03*
X147129500Y-128901000D03*
G36*
G01*
X151862000Y-78811000D02*
X151862000Y-78161000D01*
G75*
G02*
X152012000Y-78011000I150000J0D01*
G01*
X152312000Y-78011000D01*
G75*
G02*
X152462000Y-78161000I0J-150000D01*
G01*
X152462000Y-78811000D01*
G75*
G02*
X152312000Y-78961000I-150000J0D01*
G01*
X152012000Y-78961000D01*
G75*
G02*
X151862000Y-78811000I0J150000D01*
G01*
G37*
G36*
G01*
X152687000Y-78636000D02*
X152687000Y-78336000D01*
G75*
G02*
X152837000Y-78186000I150000J0D01*
G01*
X153487000Y-78186000D01*
G75*
G02*
X153637000Y-78336000I0J-150000D01*
G01*
X153637000Y-78636000D01*
G75*
G02*
X153487000Y-78786000I-150000J0D01*
G01*
X152837000Y-78786000D01*
G75*
G02*
X152687000Y-78636000I0J150000D01*
G01*
G37*
G36*
G01*
X152687000Y-79436000D02*
X152687000Y-79136000D01*
G75*
G02*
X152837000Y-78986000I150000J0D01*
G01*
X153487000Y-78986000D01*
G75*
G02*
X153637000Y-79136000I0J-150000D01*
G01*
X153637000Y-79436000D01*
G75*
G02*
X153487000Y-79586000I-150000J0D01*
G01*
X152837000Y-79586000D01*
G75*
G02*
X152687000Y-79436000I0J150000D01*
G01*
G37*
G36*
G01*
X152687000Y-80236000D02*
X152687000Y-79936000D01*
G75*
G02*
X152837000Y-79786000I150000J0D01*
G01*
X153487000Y-79786000D01*
G75*
G02*
X153637000Y-79936000I0J-150000D01*
G01*
X153637000Y-80236000D01*
G75*
G02*
X153487000Y-80386000I-150000J0D01*
G01*
X152837000Y-80386000D01*
G75*
G02*
X152687000Y-80236000I0J150000D01*
G01*
G37*
G36*
G01*
X152687000Y-81036000D02*
X152687000Y-80736000D01*
G75*
G02*
X152837000Y-80586000I150000J0D01*
G01*
X153487000Y-80586000D01*
G75*
G02*
X153637000Y-80736000I0J-150000D01*
G01*
X153637000Y-81036000D01*
G75*
G02*
X153487000Y-81186000I-150000J0D01*
G01*
X152837000Y-81186000D01*
G75*
G02*
X152687000Y-81036000I0J150000D01*
G01*
G37*
G36*
G01*
X152687000Y-81836000D02*
X152687000Y-81536000D01*
G75*
G02*
X152837000Y-81386000I150000J0D01*
G01*
X153487000Y-81386000D01*
G75*
G02*
X153637000Y-81536000I0J-150000D01*
G01*
X153637000Y-81836000D01*
G75*
G02*
X153487000Y-81986000I-150000J0D01*
G01*
X152837000Y-81986000D01*
G75*
G02*
X152687000Y-81836000I0J150000D01*
G01*
G37*
G36*
G01*
X152687000Y-82636000D02*
X152687000Y-82336000D01*
G75*
G02*
X152837000Y-82186000I150000J0D01*
G01*
X153487000Y-82186000D01*
G75*
G02*
X153637000Y-82336000I0J-150000D01*
G01*
X153637000Y-82636000D01*
G75*
G02*
X153487000Y-82786000I-150000J0D01*
G01*
X152837000Y-82786000D01*
G75*
G02*
X152687000Y-82636000I0J150000D01*
G01*
G37*
G36*
G01*
X151862000Y-82811000D02*
X151862000Y-82161000D01*
G75*
G02*
X152012000Y-82011000I150000J0D01*
G01*
X152312000Y-82011000D01*
G75*
G02*
X152462000Y-82161000I0J-150000D01*
G01*
X152462000Y-82811000D01*
G75*
G02*
X152312000Y-82961000I-150000J0D01*
G01*
X152012000Y-82961000D01*
G75*
G02*
X151862000Y-82811000I0J150000D01*
G01*
G37*
G36*
G01*
X150687000Y-82636000D02*
X150687000Y-82336000D01*
G75*
G02*
X150837000Y-82186000I150000J0D01*
G01*
X151487000Y-82186000D01*
G75*
G02*
X151637000Y-82336000I0J-150000D01*
G01*
X151637000Y-82636000D01*
G75*
G02*
X151487000Y-82786000I-150000J0D01*
G01*
X150837000Y-82786000D01*
G75*
G02*
X150687000Y-82636000I0J150000D01*
G01*
G37*
G36*
G01*
X150687000Y-81836000D02*
X150687000Y-81536000D01*
G75*
G02*
X150837000Y-81386000I150000J0D01*
G01*
X151487000Y-81386000D01*
G75*
G02*
X151637000Y-81536000I0J-150000D01*
G01*
X151637000Y-81836000D01*
G75*
G02*
X151487000Y-81986000I-150000J0D01*
G01*
X150837000Y-81986000D01*
G75*
G02*
X150687000Y-81836000I0J150000D01*
G01*
G37*
G36*
G01*
X150687000Y-81036000D02*
X150687000Y-80736000D01*
G75*
G02*
X150837000Y-80586000I150000J0D01*
G01*
X151487000Y-80586000D01*
G75*
G02*
X151637000Y-80736000I0J-150000D01*
G01*
X151637000Y-81036000D01*
G75*
G02*
X151487000Y-81186000I-150000J0D01*
G01*
X150837000Y-81186000D01*
G75*
G02*
X150687000Y-81036000I0J150000D01*
G01*
G37*
G36*
G01*
X150687000Y-80236000D02*
X150687000Y-79936000D01*
G75*
G02*
X150837000Y-79786000I150000J0D01*
G01*
X151487000Y-79786000D01*
G75*
G02*
X151637000Y-79936000I0J-150000D01*
G01*
X151637000Y-80236000D01*
G75*
G02*
X151487000Y-80386000I-150000J0D01*
G01*
X150837000Y-80386000D01*
G75*
G02*
X150687000Y-80236000I0J150000D01*
G01*
G37*
G36*
G01*
X150687000Y-79436000D02*
X150687000Y-79136000D01*
G75*
G02*
X150837000Y-78986000I150000J0D01*
G01*
X151487000Y-78986000D01*
G75*
G02*
X151637000Y-79136000I0J-150000D01*
G01*
X151637000Y-79436000D01*
G75*
G02*
X151487000Y-79586000I-150000J0D01*
G01*
X150837000Y-79586000D01*
G75*
G02*
X150687000Y-79436000I0J150000D01*
G01*
G37*
G36*
G01*
X150687000Y-78636000D02*
X150687000Y-78336000D01*
G75*
G02*
X150837000Y-78186000I150000J0D01*
G01*
X151487000Y-78186000D01*
G75*
G02*
X151637000Y-78336000I0J-150000D01*
G01*
X151637000Y-78636000D01*
G75*
G02*
X151487000Y-78786000I-150000J0D01*
G01*
X150837000Y-78786000D01*
G75*
G02*
X150687000Y-78636000I0J150000D01*
G01*
G37*
D12*
X125222000Y-119888000D03*
X123444000Y-119888000D03*
X109982000Y-119888000D03*
X109982000Y-121666000D03*
X111760000Y-124333000D03*
X113538000Y-124333000D03*
X110998000Y-97536000D03*
X109220000Y-97536000D03*
X107442000Y-99314000D03*
X107442000Y-97536000D03*
X105664000Y-101092000D03*
X105664000Y-102870000D03*
X105664000Y-97536000D03*
X105664000Y-99314000D03*
X102108000Y-101092000D03*
X102108000Y-102870000D03*
X102108000Y-97536000D03*
X102108000Y-99314000D03*
X134747000Y-124460000D03*
X134747000Y-126238000D03*
X142748000Y-78486000D03*
X140970000Y-78486000D03*
X113411000Y-131254500D03*
X113411000Y-133032500D03*
D24*
X115824000Y-129349500D03*
X118618000Y-129349500D03*
D12*
X161036000Y-100330000D03*
X162814000Y-100330000D03*
X116840000Y-82296000D03*
X118618000Y-82296000D03*
X116840000Y-80518000D03*
X118618000Y-80518000D03*
X136525000Y-124460000D03*
X136525000Y-126238000D03*
X125984000Y-125984000D03*
X125984000Y-124206000D03*
X113792000Y-126111000D03*
X115570000Y-126111000D03*
X118618000Y-87122000D03*
X116840000Y-87122000D03*
X95250000Y-122682000D03*
X97028000Y-122682000D03*
X122936000Y-135636000D03*
X122936000Y-133858000D03*
X158496000Y-133350000D03*
X156718000Y-133350000D03*
X150876000Y-131826000D03*
X149098000Y-131826000D03*
X150876000Y-133604000D03*
X149098000Y-133604000D03*
X143256000Y-124968000D03*
X143256000Y-126746000D03*
X141478000Y-124968000D03*
X141478000Y-126746000D03*
X95250000Y-124460000D03*
X97028000Y-124460000D03*
D25*
X152654000Y-131826000D03*
X152654000Y-133728460D03*
X154863800Y-132773420D03*
X152654000Y-128653540D03*
X152654000Y-130556000D03*
X154863800Y-129600960D03*
D26*
X139784000Y-139484000D03*
X137584000Y-137884000D03*
X137584000Y-139484000D03*
X139784000Y-137884000D03*
D27*
X95250000Y-121158000D03*
X96774000Y-121158000D03*
D28*
X112742000Y-116078000D03*
X114842000Y-116078000D03*
D29*
X132715000Y-120015000D03*
X132715000Y-122415000D03*
D22*
X122494040Y-126075440D03*
X124396500Y-126075440D03*
X123441460Y-123865640D03*
D30*
X102108000Y-92964000D03*
X102108000Y-94742000D03*
X105664000Y-92964000D03*
X105664000Y-94742000D03*
D31*
X128270000Y-128524000D03*
X123270000Y-128524000D03*
X123317000Y-131508500D03*
X128317000Y-131508500D03*
D27*
X95250000Y-125984000D03*
X96774000Y-125984000D03*
D12*
X121666000Y-121666000D03*
X121666000Y-119888000D03*
X119888000Y-121666000D03*
X119888000Y-119888000D03*
X118110000Y-121666000D03*
X118110000Y-119888000D03*
X111760000Y-121666000D03*
X111760000Y-119888000D03*
D32*
X137414000Y-120269000D03*
X135382000Y-120269000D03*
D12*
X109220000Y-99314000D03*
X110998000Y-99314000D03*
X107442000Y-102870000D03*
X107442000Y-101092000D03*
X103886000Y-102870000D03*
X103886000Y-101092000D03*
X100330000Y-97536000D03*
X100330000Y-99314000D03*
D32*
X132588000Y-128524000D03*
X130556000Y-128524000D03*
D12*
X115824000Y-136969500D03*
X117602000Y-136969500D03*
X118999000Y-133413500D03*
X118999000Y-135191500D03*
X159258000Y-104140000D03*
X161036000Y-104140000D03*
X159258000Y-102362000D03*
X161036000Y-102362000D03*
D33*
X120904000Y-131191000D03*
X120904000Y-129159000D03*
D12*
X136652000Y-133096000D03*
X136652000Y-131318000D03*
X148844000Y-128270000D03*
X148844000Y-130048000D03*
X135636000Y-137668000D03*
X135636000Y-139446000D03*
X141732000Y-139446000D03*
X141732000Y-137668000D03*
X149606000Y-81280000D03*
X149606000Y-83058000D03*
X149606000Y-79502000D03*
X149606000Y-77724000D03*
D34*
X163830000Y-123802000D03*
X163830000Y-119022000D03*
X163858000Y-88623000D03*
X163858000Y-83843000D03*
D12*
X116967000Y-74930000D03*
X116967000Y-73152000D03*
X142748000Y-88646000D03*
X140970000Y-88646000D03*
D35*
X138794000Y-72006000D03*
X138794000Y-73276000D03*
X138794000Y-74546000D03*
X138794000Y-75816000D03*
X138794000Y-77086000D03*
X138794000Y-78356000D03*
X138794000Y-79626000D03*
X138794000Y-80896000D03*
X138794000Y-82166000D03*
X138794000Y-83436000D03*
X138794000Y-84706000D03*
X138794000Y-85976000D03*
X138794000Y-87246000D03*
X138794000Y-88516000D03*
D36*
X135524000Y-89966000D03*
X134254000Y-89966000D03*
X132984000Y-89966000D03*
X131714000Y-89966000D03*
X130444000Y-89966000D03*
X129174000Y-89966000D03*
X127904000Y-89966000D03*
X126634000Y-89966000D03*
X125364000Y-89966000D03*
X124094000Y-89966000D03*
D35*
X120794000Y-88476000D03*
X120794000Y-87206000D03*
X120794000Y-85936000D03*
X120794000Y-84666000D03*
X120794000Y-83396000D03*
X120794000Y-82126000D03*
X120794000Y-80856000D03*
X120794000Y-79586000D03*
X120794000Y-78316000D03*
X120794000Y-77046000D03*
X120794000Y-75776000D03*
X120794000Y-74506000D03*
X120794000Y-73236000D03*
X120794000Y-71966000D03*
D37*
X128795000Y-78282000D03*
X131335000Y-78282000D03*
X128820400Y-80949000D03*
X131360400Y-80949000D03*
D27*
X163096000Y-81204200D03*
X164620000Y-81204200D03*
X163068000Y-126238000D03*
X164592000Y-126238000D03*
D12*
X164782500Y-79565500D03*
X163004500Y-79565500D03*
X162941000Y-127838200D03*
X164719000Y-127838200D03*
X161290000Y-84074000D03*
X159512000Y-84074000D03*
M02*
