G04 #@! TF.GenerationSoftware,KiCad,Pcbnew,(5.1.2)-2*
G04 #@! TF.CreationDate,2019-09-23T21:32:25+02:00*
G04 #@! TF.ProjectId,hm-env-sensor,686d2d65-6e76-42d7-9365-6e736f722e6b,A1*
G04 #@! TF.SameCoordinates,Original*
G04 #@! TF.FileFunction,Soldermask,Top*
G04 #@! TF.FilePolarity,Negative*
%FSLAX46Y46*%
G04 Gerber Fmt 4.6, Leading zero omitted, Abs format (unit mm)*
G04 Created by KiCad (PCBNEW (5.1.2)-2) date 2019-09-23 21:32:25*
%MOMM*%
%LPD*%
G04 APERTURE LIST*
%ADD10C,0.254000*%
%ADD11C,0.100000*%
G04 APERTURE END LIST*
D10*
X169398000Y-135704200D02*
X169398000Y-71704200D01*
X129398000Y-71704200D02*
X129398000Y-135704200D01*
X161898000Y-64204200D02*
X136898000Y-64204200D01*
X161898000Y-64204200D02*
G75*
G02X169398000Y-71704200I0J-7500000D01*
G01*
X169398000Y-135704200D02*
G75*
G02X161898000Y-143204200I-7500000J0D01*
G01*
X161898000Y-143204200D02*
X136898000Y-143204200D01*
X129398000Y-71704200D02*
G75*
G02X136898000Y-64204200I7500000J0D01*
G01*
X136898000Y-143204200D02*
G75*
G02X129398000Y-135704200I0J7500000D01*
G01*
D11*
G36*
X143041400Y-128013400D02*
G01*
X143041400Y-124513400D01*
X142591400Y-124513400D01*
X142591400Y-128013400D01*
X143041400Y-128013400D01*
G37*
G36*
X144791400Y-124513400D02*
G01*
X144791400Y-128013400D01*
X145241400Y-128013400D01*
X145241400Y-124513400D01*
X144791400Y-124513400D01*
G37*
G36*
X151498800Y-142768400D02*
G01*
X150297200Y-142768400D01*
X150297200Y-141666800D01*
X151498800Y-141666800D01*
X151498800Y-142768400D01*
X151498800Y-142768400D01*
G37*
G36*
X148498800Y-142768400D02*
G01*
X147297200Y-142768400D01*
X147297200Y-141666800D01*
X148498800Y-141666800D01*
X148498800Y-142768400D01*
X148498800Y-142768400D01*
G37*
G36*
X142364400Y-142146000D02*
G01*
X140562800Y-142146000D01*
X140562800Y-140744400D01*
X142364400Y-140744400D01*
X142364400Y-142146000D01*
X142364400Y-142146000D01*
G37*
G36*
X153125578Y-140126217D02*
G01*
X153248254Y-140163431D01*
X153248257Y-140163432D01*
X153361312Y-140223861D01*
X153460412Y-140305189D01*
X153541739Y-140404287D01*
X153602168Y-140517342D01*
X153602168Y-140517343D01*
X153602169Y-140517345D01*
X153639383Y-140640021D01*
X153648800Y-140735637D01*
X153648800Y-141399563D01*
X153639383Y-141495179D01*
X153602169Y-141617855D01*
X153602168Y-141617858D01*
X153541739Y-141730913D01*
X153460412Y-141830012D01*
X153361313Y-141911339D01*
X153248258Y-141971768D01*
X153248255Y-141971769D01*
X153125579Y-142008983D01*
X152998000Y-142021548D01*
X152870422Y-142008983D01*
X152747746Y-141971769D01*
X152747743Y-141971768D01*
X152634688Y-141911339D01*
X152535589Y-141830012D01*
X152454263Y-141730915D01*
X152393831Y-141617856D01*
X152381426Y-141576963D01*
X152356617Y-141495179D01*
X152347200Y-141399563D01*
X152347200Y-140735638D01*
X152356617Y-140640022D01*
X152393831Y-140517346D01*
X152393832Y-140517343D01*
X152454261Y-140404288D01*
X152535589Y-140305188D01*
X152634687Y-140223861D01*
X152747742Y-140163432D01*
X152747745Y-140163431D01*
X152870421Y-140126217D01*
X152998000Y-140113652D01*
X153125578Y-140126217D01*
X153125578Y-140126217D01*
G37*
G36*
X145925578Y-140126217D02*
G01*
X146048254Y-140163431D01*
X146048257Y-140163432D01*
X146161312Y-140223861D01*
X146260412Y-140305189D01*
X146341739Y-140404287D01*
X146402168Y-140517342D01*
X146402168Y-140517343D01*
X146402169Y-140517345D01*
X146439383Y-140640021D01*
X146448800Y-140735637D01*
X146448800Y-141399563D01*
X146439383Y-141495179D01*
X146402169Y-141617855D01*
X146402168Y-141617858D01*
X146341739Y-141730913D01*
X146260412Y-141830012D01*
X146161313Y-141911339D01*
X146048258Y-141971768D01*
X146048255Y-141971769D01*
X145925579Y-142008983D01*
X145798000Y-142021548D01*
X145670422Y-142008983D01*
X145547746Y-141971769D01*
X145547743Y-141971768D01*
X145434688Y-141911339D01*
X145335589Y-141830012D01*
X145254263Y-141730915D01*
X145193831Y-141617856D01*
X145181426Y-141576963D01*
X145156617Y-141495179D01*
X145147200Y-141399563D01*
X145147200Y-140735638D01*
X145156617Y-140640022D01*
X145193831Y-140517346D01*
X145193832Y-140517343D01*
X145254261Y-140404288D01*
X145335589Y-140305188D01*
X145434687Y-140223861D01*
X145547742Y-140163432D01*
X145547745Y-140163431D01*
X145670421Y-140126217D01*
X145798000Y-140113652D01*
X145925578Y-140126217D01*
X145925578Y-140126217D01*
G37*
G36*
X142480508Y-138882802D02*
G01*
X142553448Y-138913015D01*
X142553450Y-138913016D01*
X142586495Y-138935096D01*
X142612020Y-138952151D01*
X142619095Y-138956879D01*
X142674921Y-139012705D01*
X142709508Y-139064467D01*
X142718785Y-139078352D01*
X142748998Y-139151292D01*
X142764400Y-139228723D01*
X142764400Y-139307677D01*
X142748998Y-139385108D01*
X142718785Y-139458048D01*
X142681266Y-139514200D01*
X142674921Y-139523695D01*
X142619095Y-139579521D01*
X142553450Y-139623384D01*
X142553449Y-139623385D01*
X142553448Y-139623385D01*
X142480508Y-139653598D01*
X142403077Y-139669000D01*
X142324123Y-139669000D01*
X142246692Y-139653598D01*
X142173752Y-139623385D01*
X142173751Y-139623385D01*
X142173750Y-139623384D01*
X142108105Y-139579521D01*
X142052279Y-139523695D01*
X142045935Y-139514200D01*
X142008415Y-139458048D01*
X141978202Y-139385108D01*
X141962800Y-139307677D01*
X141962800Y-139228723D01*
X141978202Y-139151292D01*
X142008415Y-139078352D01*
X142017693Y-139064467D01*
X142052279Y-139012705D01*
X142108105Y-138956879D01*
X142115181Y-138952151D01*
X142140705Y-138935096D01*
X142173750Y-138913016D01*
X142173752Y-138913015D01*
X142246692Y-138882802D01*
X142324123Y-138867400D01*
X142403077Y-138867400D01*
X142480508Y-138882802D01*
X142480508Y-138882802D01*
G37*
G36*
X140680508Y-138882802D02*
G01*
X140753448Y-138913015D01*
X140753450Y-138913016D01*
X140786495Y-138935096D01*
X140812020Y-138952151D01*
X140819095Y-138956879D01*
X140874921Y-139012705D01*
X140909508Y-139064467D01*
X140918785Y-139078352D01*
X140948998Y-139151292D01*
X140964400Y-139228723D01*
X140964400Y-139307677D01*
X140948998Y-139385108D01*
X140918785Y-139458048D01*
X140881266Y-139514200D01*
X140874921Y-139523695D01*
X140819095Y-139579521D01*
X140753450Y-139623384D01*
X140753449Y-139623385D01*
X140753448Y-139623385D01*
X140680508Y-139653598D01*
X140603077Y-139669000D01*
X140524123Y-139669000D01*
X140446692Y-139653598D01*
X140373752Y-139623385D01*
X140373751Y-139623385D01*
X140373750Y-139623384D01*
X140308105Y-139579521D01*
X140252279Y-139523695D01*
X140245935Y-139514200D01*
X140208415Y-139458048D01*
X140178202Y-139385108D01*
X140162800Y-139307677D01*
X140162800Y-139228723D01*
X140178202Y-139151292D01*
X140208415Y-139078352D01*
X140217693Y-139064467D01*
X140252279Y-139012705D01*
X140308105Y-138956879D01*
X140315181Y-138952151D01*
X140340705Y-138935096D01*
X140373750Y-138913016D01*
X140373752Y-138913015D01*
X140446692Y-138882802D01*
X140524123Y-138867400D01*
X140603077Y-138867400D01*
X140680508Y-138882802D01*
X140680508Y-138882802D01*
G37*
G36*
X164397624Y-135885294D02*
G01*
X164734302Y-136024751D01*
X164734303Y-136024752D01*
X165037306Y-136227211D01*
X165294989Y-136484894D01*
X165401067Y-136643652D01*
X165497449Y-136787898D01*
X165636906Y-137124576D01*
X165708000Y-137481990D01*
X165708000Y-137846410D01*
X165636906Y-138203824D01*
X165497449Y-138540502D01*
X165437110Y-138630806D01*
X165294989Y-138843506D01*
X165037306Y-139101189D01*
X164962321Y-139151292D01*
X164734302Y-139303649D01*
X164397624Y-139443106D01*
X164040210Y-139514200D01*
X163675790Y-139514200D01*
X163318376Y-139443106D01*
X162981698Y-139303649D01*
X162753679Y-139151292D01*
X162678694Y-139101189D01*
X162421011Y-138843506D01*
X162278890Y-138630806D01*
X162218551Y-138540502D01*
X162079094Y-138203824D01*
X162008000Y-137846410D01*
X162008000Y-137481990D01*
X162079094Y-137124576D01*
X162218551Y-136787898D01*
X162314933Y-136643652D01*
X162421011Y-136484894D01*
X162678694Y-136227211D01*
X162981697Y-136024752D01*
X162981698Y-136024751D01*
X163318376Y-135885294D01*
X163675790Y-135814200D01*
X164040210Y-135814200D01*
X164397624Y-135885294D01*
X164397624Y-135885294D01*
G37*
G36*
X150911300Y-138606420D02*
G01*
X150913702Y-138630806D01*
X150920815Y-138654255D01*
X150932366Y-138675866D01*
X150947911Y-138694808D01*
X150966853Y-138710353D01*
X150988464Y-138721904D01*
X151011913Y-138729017D01*
X151036299Y-138731419D01*
X151060685Y-138729017D01*
X151084134Y-138721904D01*
X151105745Y-138710353D01*
X151124687Y-138694808D01*
X151125514Y-138693981D01*
X151125516Y-138693978D01*
X151174378Y-138645116D01*
X151231834Y-138606725D01*
X151295676Y-138580281D01*
X151363449Y-138566800D01*
X151432551Y-138566800D01*
X151500324Y-138580281D01*
X151564166Y-138606725D01*
X151621622Y-138645116D01*
X151670484Y-138693978D01*
X151708875Y-138751434D01*
X151735319Y-138815276D01*
X151748800Y-138883049D01*
X151748800Y-138952151D01*
X151735319Y-139019924D01*
X151708875Y-139083766D01*
X151670484Y-139141222D01*
X151621622Y-139190084D01*
X151564166Y-139228475D01*
X151500324Y-139254919D01*
X151432551Y-139268400D01*
X151363449Y-139268400D01*
X151295676Y-139254919D01*
X151231834Y-139228475D01*
X151174378Y-139190084D01*
X151125516Y-139141222D01*
X151097266Y-139098943D01*
X151081729Y-139080012D01*
X151062788Y-139064467D01*
X151041177Y-139052915D01*
X151017728Y-139045802D01*
X150993341Y-139043400D01*
X147802659Y-139043400D01*
X147778273Y-139045802D01*
X147754824Y-139052915D01*
X147733213Y-139064466D01*
X147714271Y-139080011D01*
X147698734Y-139098943D01*
X147670484Y-139141222D01*
X147621622Y-139190084D01*
X147564166Y-139228475D01*
X147500324Y-139254919D01*
X147432551Y-139268400D01*
X147363449Y-139268400D01*
X147295676Y-139254919D01*
X147231834Y-139228475D01*
X147174378Y-139190084D01*
X147125516Y-139141222D01*
X147087125Y-139083766D01*
X147060681Y-139019924D01*
X147047200Y-138952151D01*
X147047200Y-138883049D01*
X147060681Y-138815276D01*
X147087125Y-138751434D01*
X147125516Y-138693978D01*
X147174378Y-138645116D01*
X147231834Y-138606725D01*
X147295676Y-138580281D01*
X147363449Y-138566800D01*
X147432551Y-138566800D01*
X147500324Y-138580281D01*
X147564166Y-138606725D01*
X147621622Y-138645116D01*
X147670484Y-138693978D01*
X147670486Y-138693981D01*
X147671313Y-138694808D01*
X147690255Y-138710353D01*
X147711866Y-138721904D01*
X147735315Y-138729017D01*
X147759701Y-138731419D01*
X147784087Y-138729017D01*
X147807536Y-138721904D01*
X147829147Y-138710353D01*
X147848089Y-138694808D01*
X147863634Y-138675866D01*
X147875185Y-138654255D01*
X147882298Y-138630806D01*
X147884700Y-138606420D01*
X147884700Y-136791800D01*
X150911300Y-136791800D01*
X150911300Y-138606420D01*
X150911300Y-138606420D01*
G37*
G36*
X145925578Y-136656217D02*
G01*
X146048254Y-136693431D01*
X146048257Y-136693432D01*
X146161312Y-136753861D01*
X146260412Y-136835189D01*
X146341739Y-136934287D01*
X146402168Y-137047342D01*
X146402168Y-137047343D01*
X146402169Y-137047345D01*
X146439383Y-137170021D01*
X146448800Y-137265637D01*
X146448800Y-137929563D01*
X146439383Y-138025179D01*
X146402169Y-138147855D01*
X146402168Y-138147858D01*
X146341739Y-138260913D01*
X146260412Y-138360012D01*
X146161313Y-138441339D01*
X146048258Y-138501768D01*
X146048255Y-138501769D01*
X145925579Y-138538983D01*
X145798000Y-138551548D01*
X145670422Y-138538983D01*
X145547746Y-138501769D01*
X145547743Y-138501768D01*
X145434688Y-138441339D01*
X145335589Y-138360012D01*
X145254263Y-138260915D01*
X145193831Y-138147856D01*
X145181426Y-138106963D01*
X145156617Y-138025179D01*
X145147200Y-137929563D01*
X145147200Y-137265638D01*
X145156617Y-137170022D01*
X145193831Y-137047346D01*
X145193832Y-137047343D01*
X145254261Y-136934288D01*
X145335589Y-136835188D01*
X145434687Y-136753861D01*
X145547742Y-136693432D01*
X145547745Y-136693431D01*
X145670421Y-136656217D01*
X145798000Y-136643652D01*
X145925578Y-136656217D01*
X145925578Y-136656217D01*
G37*
G36*
X153125578Y-136656217D02*
G01*
X153248254Y-136693431D01*
X153248257Y-136693432D01*
X153361312Y-136753861D01*
X153460412Y-136835189D01*
X153541739Y-136934287D01*
X153602168Y-137047342D01*
X153602168Y-137047343D01*
X153602169Y-137047345D01*
X153639383Y-137170021D01*
X153648800Y-137265637D01*
X153648800Y-137929563D01*
X153639383Y-138025179D01*
X153602169Y-138147855D01*
X153602168Y-138147858D01*
X153541739Y-138260913D01*
X153460412Y-138360012D01*
X153361313Y-138441339D01*
X153248258Y-138501768D01*
X153248255Y-138501769D01*
X153125579Y-138538983D01*
X152998000Y-138551548D01*
X152870422Y-138538983D01*
X152747746Y-138501769D01*
X152747743Y-138501768D01*
X152634688Y-138441339D01*
X152535589Y-138360012D01*
X152454263Y-138260915D01*
X152393831Y-138147856D01*
X152381426Y-138106963D01*
X152356617Y-138025179D01*
X152347200Y-137929563D01*
X152347200Y-137265638D01*
X152356617Y-137170022D01*
X152393831Y-137047346D01*
X152393832Y-137047343D01*
X152454261Y-136934288D01*
X152535589Y-136835188D01*
X152634687Y-136753861D01*
X152747742Y-136693432D01*
X152747745Y-136693431D01*
X152870421Y-136656217D01*
X152998000Y-136643652D01*
X153125578Y-136656217D01*
X153125578Y-136656217D01*
G37*
G36*
X142364400Y-137792000D02*
G01*
X140562800Y-137792000D01*
X140562800Y-136390400D01*
X142364400Y-136390400D01*
X142364400Y-137792000D01*
X142364400Y-137792000D01*
G37*
G36*
X140178079Y-131370752D02*
G01*
X140314719Y-131427350D01*
X140437685Y-131509513D01*
X140542267Y-131614095D01*
X140624430Y-131737061D01*
X140681028Y-131873701D01*
X140709880Y-132018751D01*
X140709880Y-132166649D01*
X140681028Y-132311699D01*
X140624430Y-132448339D01*
X140542267Y-132571305D01*
X140437685Y-132675887D01*
X140314719Y-132758050D01*
X140178079Y-132814648D01*
X140033029Y-132843500D01*
X139885131Y-132843500D01*
X139740081Y-132814648D01*
X139603441Y-132758050D01*
X139480475Y-132675887D01*
X139375893Y-132571305D01*
X139293730Y-132448339D01*
X139237132Y-132311699D01*
X139208280Y-132166649D01*
X139208280Y-132018751D01*
X139237132Y-131873701D01*
X139293730Y-131737061D01*
X139375893Y-131614095D01*
X139480475Y-131509513D01*
X139603441Y-131427350D01*
X139740081Y-131370752D01*
X139885131Y-131341900D01*
X140033029Y-131341900D01*
X140178079Y-131370752D01*
X140178079Y-131370752D01*
G37*
G36*
X142646400Y-132664200D02*
G01*
X141528800Y-132664200D01*
X141528800Y-131546600D01*
X142646400Y-131546600D01*
X142646400Y-132664200D01*
X142646400Y-132664200D01*
G37*
G36*
X142646400Y-130886200D02*
G01*
X141528800Y-130886200D01*
X141528800Y-129768600D01*
X142646400Y-129768600D01*
X142646400Y-130886200D01*
X142646400Y-130886200D01*
G37*
G36*
X140707340Y-130831820D02*
G01*
X139205740Y-130831820D01*
X139205740Y-129330220D01*
X140707340Y-129330220D01*
X140707340Y-130831820D01*
X140707340Y-130831820D01*
G37*
G36*
X163576000Y-128371600D02*
G01*
X162458400Y-128371600D01*
X162458400Y-127254000D01*
X163576000Y-127254000D01*
X163576000Y-128371600D01*
X163576000Y-128371600D01*
G37*
G36*
X165354000Y-128371600D02*
G01*
X164236400Y-128371600D01*
X164236400Y-127254000D01*
X165354000Y-127254000D01*
X165354000Y-128371600D01*
X165354000Y-128371600D01*
G37*
G36*
X143043000Y-125061801D02*
G01*
X143045402Y-125086187D01*
X143052515Y-125109636D01*
X143064066Y-125131247D01*
X143079611Y-125150189D01*
X143098553Y-125165734D01*
X143120164Y-125177285D01*
X143143613Y-125184398D01*
X143167999Y-125186800D01*
X144664801Y-125186800D01*
X144689187Y-125184398D01*
X144712636Y-125177285D01*
X144734247Y-125165734D01*
X144753189Y-125150189D01*
X144768734Y-125131247D01*
X144780285Y-125109636D01*
X144787398Y-125086187D01*
X144789800Y-125061801D01*
X144789800Y-124511800D01*
X145243000Y-124511800D01*
X145243000Y-124936801D01*
X145245402Y-124961187D01*
X145252515Y-124984636D01*
X145264066Y-125006247D01*
X145279611Y-125025189D01*
X145298553Y-125040734D01*
X145320164Y-125052285D01*
X145343613Y-125059398D01*
X145367999Y-125061800D01*
X146418000Y-125061800D01*
X146418000Y-127465000D01*
X145367999Y-127465000D01*
X145343613Y-127467402D01*
X145320164Y-127474515D01*
X145298553Y-127486066D01*
X145279611Y-127501611D01*
X145264066Y-127520553D01*
X145252515Y-127542164D01*
X145245402Y-127565613D01*
X145243000Y-127589999D01*
X145243000Y-128015000D01*
X144789800Y-128015000D01*
X144789800Y-127464999D01*
X144787398Y-127440613D01*
X144780285Y-127417164D01*
X144768734Y-127395553D01*
X144753189Y-127376611D01*
X144734247Y-127361066D01*
X144712636Y-127349515D01*
X144689187Y-127342402D01*
X144664801Y-127340000D01*
X143167999Y-127340000D01*
X143143613Y-127342402D01*
X143120164Y-127349515D01*
X143098553Y-127361066D01*
X143079611Y-127376611D01*
X143064066Y-127395553D01*
X143052515Y-127417164D01*
X143045402Y-127440613D01*
X143043000Y-127464999D01*
X143043000Y-128015000D01*
X142589800Y-128015000D01*
X142589800Y-127589999D01*
X142587398Y-127565613D01*
X142580285Y-127542164D01*
X142568734Y-127520553D01*
X142553189Y-127501611D01*
X142534247Y-127486066D01*
X142512636Y-127474515D01*
X142489187Y-127467402D01*
X142464801Y-127465000D01*
X141414800Y-127465000D01*
X141414800Y-125839999D01*
X142468000Y-125839999D01*
X142468000Y-126686801D01*
X142470402Y-126711187D01*
X142477515Y-126734636D01*
X142489066Y-126756247D01*
X142504611Y-126775189D01*
X142523553Y-126790734D01*
X142545164Y-126802285D01*
X142568613Y-126809398D01*
X142592999Y-126811800D01*
X142714801Y-126811800D01*
X142739187Y-126809398D01*
X142762636Y-126802285D01*
X142784247Y-126790734D01*
X142803189Y-126775189D01*
X142818734Y-126756247D01*
X142830285Y-126734636D01*
X142837398Y-126711187D01*
X142839800Y-126686801D01*
X142839800Y-125839999D01*
X144993000Y-125839999D01*
X144993000Y-126686801D01*
X144995402Y-126711187D01*
X145002515Y-126734636D01*
X145014066Y-126756247D01*
X145029611Y-126775189D01*
X145048553Y-126790734D01*
X145070164Y-126802285D01*
X145093613Y-126809398D01*
X145117999Y-126811800D01*
X145239801Y-126811800D01*
X145264187Y-126809398D01*
X145287636Y-126802285D01*
X145309247Y-126790734D01*
X145328189Y-126775189D01*
X145343734Y-126756247D01*
X145355285Y-126734636D01*
X145362398Y-126711187D01*
X145364800Y-126686801D01*
X145364800Y-125839999D01*
X145362398Y-125815613D01*
X145355285Y-125792164D01*
X145343734Y-125770553D01*
X145328189Y-125751611D01*
X145309247Y-125736066D01*
X145287636Y-125724515D01*
X145264187Y-125717402D01*
X145239801Y-125715000D01*
X145117999Y-125715000D01*
X145093613Y-125717402D01*
X145070164Y-125724515D01*
X145048553Y-125736066D01*
X145029611Y-125751611D01*
X145014066Y-125770553D01*
X145002515Y-125792164D01*
X144995402Y-125815613D01*
X144993000Y-125839999D01*
X142839800Y-125839999D01*
X142837398Y-125815613D01*
X142830285Y-125792164D01*
X142818734Y-125770553D01*
X142803189Y-125751611D01*
X142784247Y-125736066D01*
X142762636Y-125724515D01*
X142739187Y-125717402D01*
X142714801Y-125715000D01*
X142592999Y-125715000D01*
X142568613Y-125717402D01*
X142545164Y-125724515D01*
X142523553Y-125736066D01*
X142504611Y-125751611D01*
X142489066Y-125770553D01*
X142477515Y-125792164D01*
X142470402Y-125815613D01*
X142468000Y-125839999D01*
X141414800Y-125839999D01*
X141414800Y-125061800D01*
X142464801Y-125061800D01*
X142489187Y-125059398D01*
X142512636Y-125052285D01*
X142534247Y-125040734D01*
X142553189Y-125025189D01*
X142568734Y-125006247D01*
X142580285Y-124984636D01*
X142587398Y-124961187D01*
X142589800Y-124936801D01*
X142589800Y-124511800D01*
X143043000Y-124511800D01*
X143043000Y-125061801D01*
X143043000Y-125061801D01*
G37*
G36*
X148031200Y-127965200D02*
G01*
X146913600Y-127965200D01*
X146913600Y-126847600D01*
X148031200Y-126847600D01*
X148031200Y-127965200D01*
X148031200Y-127965200D01*
G37*
G36*
X136728200Y-127533400D02*
G01*
X135610600Y-127533400D01*
X135610600Y-126415800D01*
X136728200Y-126415800D01*
X136728200Y-127533400D01*
X136728200Y-127533400D01*
G37*
G36*
X138506200Y-127533400D02*
G01*
X137388600Y-127533400D01*
X137388600Y-126415800D01*
X138506200Y-126415800D01*
X138506200Y-127533400D01*
X138506200Y-127533400D01*
G37*
G36*
X140893800Y-127431800D02*
G01*
X139014200Y-127431800D01*
X139014200Y-125806200D01*
X140893800Y-125806200D01*
X140893800Y-127431800D01*
X140893800Y-127431800D01*
G37*
G36*
X163546800Y-126655000D02*
G01*
X162645200Y-126655000D01*
X162645200Y-125753400D01*
X163546800Y-125753400D01*
X163546800Y-126655000D01*
X163546800Y-126655000D01*
G37*
G36*
X165070800Y-126655000D02*
G01*
X164169200Y-126655000D01*
X164169200Y-125753400D01*
X165070800Y-125753400D01*
X165070800Y-126655000D01*
X165070800Y-126655000D01*
G37*
G36*
X148031200Y-126187200D02*
G01*
X146913600Y-126187200D01*
X146913600Y-125069600D01*
X148031200Y-125069600D01*
X148031200Y-126187200D01*
X148031200Y-126187200D01*
G37*
G36*
X140893800Y-124637800D02*
G01*
X139014200Y-124637800D01*
X139014200Y-123012200D01*
X140893800Y-123012200D01*
X140893800Y-124637800D01*
X140893800Y-124637800D01*
G37*
G36*
X164758800Y-124082000D02*
G01*
X162957200Y-124082000D01*
X162957200Y-122680400D01*
X164758800Y-122680400D01*
X164758800Y-124082000D01*
X164758800Y-124082000D01*
G37*
G36*
X164874908Y-120818802D02*
G01*
X164947848Y-120849015D01*
X164947850Y-120849016D01*
X164980895Y-120871096D01*
X165013494Y-120892878D01*
X165069322Y-120948706D01*
X165113185Y-121014352D01*
X165143398Y-121087292D01*
X165158800Y-121164723D01*
X165158800Y-121243677D01*
X165143398Y-121321108D01*
X165113185Y-121394048D01*
X165113184Y-121394050D01*
X165069321Y-121459695D01*
X165013495Y-121515521D01*
X164947850Y-121559384D01*
X164947849Y-121559385D01*
X164947848Y-121559385D01*
X164874908Y-121589598D01*
X164797477Y-121605000D01*
X164718523Y-121605000D01*
X164641092Y-121589598D01*
X164568152Y-121559385D01*
X164568151Y-121559385D01*
X164568150Y-121559384D01*
X164502505Y-121515521D01*
X164446679Y-121459695D01*
X164402816Y-121394050D01*
X164402815Y-121394048D01*
X164372602Y-121321108D01*
X164357200Y-121243677D01*
X164357200Y-121164723D01*
X164372602Y-121087292D01*
X164402815Y-121014352D01*
X164446678Y-120948706D01*
X164502506Y-120892878D01*
X164535105Y-120871096D01*
X164568150Y-120849016D01*
X164568152Y-120849015D01*
X164641092Y-120818802D01*
X164718523Y-120803400D01*
X164797477Y-120803400D01*
X164874908Y-120818802D01*
X164874908Y-120818802D01*
G37*
G36*
X163074908Y-120818802D02*
G01*
X163147848Y-120849015D01*
X163147850Y-120849016D01*
X163180895Y-120871096D01*
X163213494Y-120892878D01*
X163269322Y-120948706D01*
X163313185Y-121014352D01*
X163343398Y-121087292D01*
X163358800Y-121164723D01*
X163358800Y-121243677D01*
X163343398Y-121321108D01*
X163313185Y-121394048D01*
X163313184Y-121394050D01*
X163269321Y-121459695D01*
X163213495Y-121515521D01*
X163147850Y-121559384D01*
X163147849Y-121559385D01*
X163147848Y-121559385D01*
X163074908Y-121589598D01*
X162997477Y-121605000D01*
X162918523Y-121605000D01*
X162841092Y-121589598D01*
X162768152Y-121559385D01*
X162768151Y-121559385D01*
X162768150Y-121559384D01*
X162702505Y-121515521D01*
X162646679Y-121459695D01*
X162602816Y-121394050D01*
X162602815Y-121394048D01*
X162572602Y-121321108D01*
X162557200Y-121243677D01*
X162557200Y-121164723D01*
X162572602Y-121087292D01*
X162602815Y-121014352D01*
X162646678Y-120948706D01*
X162702506Y-120892878D01*
X162735105Y-120871096D01*
X162768150Y-120849016D01*
X162768152Y-120849015D01*
X162841092Y-120818802D01*
X162918523Y-120803400D01*
X162997477Y-120803400D01*
X163074908Y-120818802D01*
X163074908Y-120818802D01*
G37*
G36*
X164758800Y-119728000D02*
G01*
X162957200Y-119728000D01*
X162957200Y-118326400D01*
X164758800Y-118326400D01*
X164758800Y-119728000D01*
X164758800Y-119728000D01*
G37*
G36*
X131023607Y-117194277D02*
G01*
X131084129Y-117206316D01*
X131255162Y-117277160D01*
X131409087Y-117380010D01*
X131539990Y-117510913D01*
X131642840Y-117664838D01*
X131713684Y-117835871D01*
X131749800Y-118017438D01*
X131749800Y-118202562D01*
X131713684Y-118384129D01*
X131642840Y-118555162D01*
X131539990Y-118709087D01*
X131409087Y-118839990D01*
X131255162Y-118942840D01*
X131084129Y-119013684D01*
X131023607Y-119025723D01*
X130902564Y-119049800D01*
X130717436Y-119049800D01*
X130596393Y-119025723D01*
X130535871Y-119013684D01*
X130364838Y-118942840D01*
X130210913Y-118839990D01*
X130080010Y-118709087D01*
X129977160Y-118555162D01*
X129906316Y-118384129D01*
X129870200Y-118202562D01*
X129870200Y-118017438D01*
X129906316Y-117835871D01*
X129977160Y-117664838D01*
X130080010Y-117510913D01*
X130210913Y-117380010D01*
X130364838Y-117277160D01*
X130535871Y-117206316D01*
X130596393Y-117194277D01*
X130717436Y-117170200D01*
X130902564Y-117170200D01*
X131023607Y-117194277D01*
X131023607Y-117194277D01*
G37*
G36*
X156423607Y-117194277D02*
G01*
X156484129Y-117206316D01*
X156655162Y-117277160D01*
X156809087Y-117380010D01*
X156939990Y-117510913D01*
X157042840Y-117664838D01*
X157113684Y-117835871D01*
X157149800Y-118017438D01*
X157149800Y-118202562D01*
X157113684Y-118384129D01*
X157042840Y-118555162D01*
X156939990Y-118709087D01*
X156809087Y-118839990D01*
X156655162Y-118942840D01*
X156484129Y-119013684D01*
X156423607Y-119025723D01*
X156302564Y-119049800D01*
X156117436Y-119049800D01*
X155996393Y-119025723D01*
X155935871Y-119013684D01*
X155764838Y-118942840D01*
X155610913Y-118839990D01*
X155480010Y-118709087D01*
X155377160Y-118555162D01*
X155306316Y-118384129D01*
X155270200Y-118202562D01*
X155270200Y-118017438D01*
X155306316Y-117835871D01*
X155377160Y-117664838D01*
X155480010Y-117510913D01*
X155610913Y-117380010D01*
X155764838Y-117277160D01*
X155935871Y-117206316D01*
X155996393Y-117194277D01*
X156117436Y-117170200D01*
X156302564Y-117170200D01*
X156423607Y-117194277D01*
X156423607Y-117194277D01*
G37*
G36*
X138060800Y-118993800D02*
G01*
X136259200Y-118993800D01*
X136259200Y-116892200D01*
X138060800Y-116892200D01*
X138060800Y-118993800D01*
X138060800Y-118993800D01*
G37*
G36*
X164414200Y-117906800D02*
G01*
X163296600Y-117906800D01*
X163296600Y-116789200D01*
X164414200Y-116789200D01*
X164414200Y-117906800D01*
X164414200Y-117906800D01*
G37*
G36*
X156423607Y-114654277D02*
G01*
X156484129Y-114666316D01*
X156655162Y-114737160D01*
X156809087Y-114840010D01*
X156939990Y-114970913D01*
X157042840Y-115124838D01*
X157113684Y-115295871D01*
X157149800Y-115477438D01*
X157149800Y-115662562D01*
X157113684Y-115844129D01*
X157042840Y-116015162D01*
X156939990Y-116169087D01*
X156809087Y-116299990D01*
X156655162Y-116402840D01*
X156484129Y-116473684D01*
X156423607Y-116485723D01*
X156302564Y-116509800D01*
X156117436Y-116509800D01*
X155996393Y-116485723D01*
X155935871Y-116473684D01*
X155764838Y-116402840D01*
X155610913Y-116299990D01*
X155480010Y-116169087D01*
X155377160Y-116015162D01*
X155306316Y-115844129D01*
X155270200Y-115662562D01*
X155270200Y-115477438D01*
X155306316Y-115295871D01*
X155377160Y-115124838D01*
X155480010Y-114970913D01*
X155610913Y-114840010D01*
X155764838Y-114737160D01*
X155935871Y-114666316D01*
X155996393Y-114654277D01*
X156117436Y-114630200D01*
X156302564Y-114630200D01*
X156423607Y-114654277D01*
X156423607Y-114654277D01*
G37*
G36*
X131023607Y-114654277D02*
G01*
X131084129Y-114666316D01*
X131255162Y-114737160D01*
X131409087Y-114840010D01*
X131539990Y-114970913D01*
X131642840Y-115124838D01*
X131713684Y-115295871D01*
X131749800Y-115477438D01*
X131749800Y-115662562D01*
X131713684Y-115844129D01*
X131642840Y-116015162D01*
X131539990Y-116169087D01*
X131409087Y-116299990D01*
X131255162Y-116402840D01*
X131084129Y-116473684D01*
X131023607Y-116485723D01*
X130902564Y-116509800D01*
X130717436Y-116509800D01*
X130596393Y-116485723D01*
X130535871Y-116473684D01*
X130364838Y-116402840D01*
X130210913Y-116299990D01*
X130080010Y-116169087D01*
X129977160Y-116015162D01*
X129906316Y-115844129D01*
X129870200Y-115662562D01*
X129870200Y-115477438D01*
X129906316Y-115295871D01*
X129977160Y-115124838D01*
X130080010Y-114970913D01*
X130210913Y-114840010D01*
X130364838Y-114737160D01*
X130535871Y-114666316D01*
X130596393Y-114654277D01*
X130717436Y-114630200D01*
X130902564Y-114630200D01*
X131023607Y-114654277D01*
X131023607Y-114654277D01*
G37*
G36*
X164414200Y-116128800D02*
G01*
X163296600Y-116128800D01*
X163296600Y-115011200D01*
X164414200Y-115011200D01*
X164414200Y-116128800D01*
X164414200Y-116128800D01*
G37*
G36*
X138060800Y-113993800D02*
G01*
X136259200Y-113993800D01*
X136259200Y-111892200D01*
X138060800Y-111892200D01*
X138060800Y-113993800D01*
X138060800Y-113993800D01*
G37*
G36*
X156423607Y-112114277D02*
G01*
X156484129Y-112126316D01*
X156655162Y-112197160D01*
X156809087Y-112300010D01*
X156939990Y-112430913D01*
X157042840Y-112584838D01*
X157113684Y-112755871D01*
X157149800Y-112937438D01*
X157149800Y-113122562D01*
X157113684Y-113304129D01*
X157042840Y-113475162D01*
X156939990Y-113629087D01*
X156809087Y-113759990D01*
X156655162Y-113862840D01*
X156484129Y-113933684D01*
X156423607Y-113945723D01*
X156302564Y-113969800D01*
X156117436Y-113969800D01*
X155996393Y-113945723D01*
X155935871Y-113933684D01*
X155764838Y-113862840D01*
X155610913Y-113759990D01*
X155480010Y-113629087D01*
X155377160Y-113475162D01*
X155306316Y-113304129D01*
X155270200Y-113122562D01*
X155270200Y-112937438D01*
X155306316Y-112755871D01*
X155377160Y-112584838D01*
X155480010Y-112430913D01*
X155610913Y-112300010D01*
X155764838Y-112197160D01*
X155935871Y-112126316D01*
X155996393Y-112114277D01*
X156117436Y-112090200D01*
X156302564Y-112090200D01*
X156423607Y-112114277D01*
X156423607Y-112114277D01*
G37*
G36*
X131023607Y-112114277D02*
G01*
X131084129Y-112126316D01*
X131255162Y-112197160D01*
X131409087Y-112300010D01*
X131539990Y-112430913D01*
X131642840Y-112584838D01*
X131713684Y-112755871D01*
X131749800Y-112937438D01*
X131749800Y-113122562D01*
X131713684Y-113304129D01*
X131642840Y-113475162D01*
X131539990Y-113629087D01*
X131409087Y-113759990D01*
X131255162Y-113862840D01*
X131084129Y-113933684D01*
X131023607Y-113945723D01*
X130902564Y-113969800D01*
X130717436Y-113969800D01*
X130596393Y-113945723D01*
X130535871Y-113933684D01*
X130364838Y-113862840D01*
X130210913Y-113759990D01*
X130080010Y-113629087D01*
X129977160Y-113475162D01*
X129906316Y-113304129D01*
X129870200Y-113122562D01*
X129870200Y-112937438D01*
X129906316Y-112755871D01*
X129977160Y-112584838D01*
X130080010Y-112430913D01*
X130210913Y-112300010D01*
X130364838Y-112197160D01*
X130535871Y-112126316D01*
X130596393Y-112114277D01*
X130717436Y-112090200D01*
X130902564Y-112090200D01*
X131023607Y-112114277D01*
X131023607Y-112114277D01*
G37*
G36*
X156423607Y-109574277D02*
G01*
X156484129Y-109586316D01*
X156655162Y-109657160D01*
X156809087Y-109760010D01*
X156939990Y-109890913D01*
X157042840Y-110044838D01*
X157113684Y-110215871D01*
X157149800Y-110397438D01*
X157149800Y-110582562D01*
X157113684Y-110764129D01*
X157042840Y-110935162D01*
X156939990Y-111089087D01*
X156809087Y-111219990D01*
X156655162Y-111322840D01*
X156484129Y-111393684D01*
X156423607Y-111405723D01*
X156302564Y-111429800D01*
X156117436Y-111429800D01*
X155996393Y-111405723D01*
X155935871Y-111393684D01*
X155764838Y-111322840D01*
X155610913Y-111219990D01*
X155480010Y-111089087D01*
X155377160Y-110935162D01*
X155306316Y-110764129D01*
X155270200Y-110582562D01*
X155270200Y-110397438D01*
X155306316Y-110215871D01*
X155377160Y-110044838D01*
X155480010Y-109890913D01*
X155610913Y-109760010D01*
X155764838Y-109657160D01*
X155935871Y-109586316D01*
X155996393Y-109574277D01*
X156117436Y-109550200D01*
X156302564Y-109550200D01*
X156423607Y-109574277D01*
X156423607Y-109574277D01*
G37*
G36*
X131023607Y-109574277D02*
G01*
X131084129Y-109586316D01*
X131255162Y-109657160D01*
X131409087Y-109760010D01*
X131539990Y-109890913D01*
X131642840Y-110044838D01*
X131713684Y-110215871D01*
X131749800Y-110397438D01*
X131749800Y-110582562D01*
X131713684Y-110764129D01*
X131642840Y-110935162D01*
X131539990Y-111089087D01*
X131409087Y-111219990D01*
X131255162Y-111322840D01*
X131084129Y-111393684D01*
X131023607Y-111405723D01*
X130902564Y-111429800D01*
X130717436Y-111429800D01*
X130596393Y-111405723D01*
X130535871Y-111393684D01*
X130364838Y-111322840D01*
X130210913Y-111219990D01*
X130080010Y-111089087D01*
X129977160Y-110935162D01*
X129906316Y-110764129D01*
X129870200Y-110582562D01*
X129870200Y-110397438D01*
X129906316Y-110215871D01*
X129977160Y-110044838D01*
X130080010Y-109890913D01*
X130210913Y-109760010D01*
X130364838Y-109657160D01*
X130535871Y-109586316D01*
X130596393Y-109574277D01*
X130717436Y-109550200D01*
X130902564Y-109550200D01*
X131023607Y-109574277D01*
X131023607Y-109574277D01*
G37*
G36*
X133654800Y-111302801D02*
G01*
X132537200Y-111302801D01*
X132537200Y-110185201D01*
X133654800Y-110185201D01*
X133654800Y-111302801D01*
X133654800Y-111302801D01*
G37*
G36*
X154482800Y-111302800D02*
G01*
X153365200Y-111302800D01*
X153365200Y-110185200D01*
X154482800Y-110185200D01*
X154482800Y-111302800D01*
X154482800Y-111302800D01*
G37*
G36*
X135178800Y-111302800D02*
G01*
X134061200Y-111302800D01*
X134061200Y-110185200D01*
X135178800Y-110185200D01*
X135178800Y-111302800D01*
X135178800Y-111302800D01*
G37*
G36*
X150124800Y-111297800D02*
G01*
X149473200Y-111297800D01*
X149473200Y-109996200D01*
X150124800Y-109996200D01*
X150124800Y-111297800D01*
X150124800Y-111297800D01*
G37*
G36*
X151074800Y-111297800D02*
G01*
X150423200Y-111297800D01*
X150423200Y-109996200D01*
X151074800Y-109996200D01*
X151074800Y-111297800D01*
X151074800Y-111297800D01*
G37*
G36*
X152024800Y-111297800D02*
G01*
X151373200Y-111297800D01*
X151373200Y-109996200D01*
X152024800Y-109996200D01*
X152024800Y-111297800D01*
X152024800Y-111297800D01*
G37*
G36*
X149148800Y-110794800D02*
G01*
X148031200Y-110794800D01*
X148031200Y-109677200D01*
X149148800Y-109677200D01*
X149148800Y-110794800D01*
X149148800Y-110794800D01*
G37*
G36*
X163728400Y-109956600D02*
G01*
X162610800Y-109956600D01*
X162610800Y-108839000D01*
X163728400Y-108839000D01*
X163728400Y-109956600D01*
X163728400Y-109956600D01*
G37*
G36*
X161925000Y-109931200D02*
G01*
X160807400Y-109931200D01*
X160807400Y-108813600D01*
X161925000Y-108813600D01*
X161925000Y-109931200D01*
X161925000Y-109931200D01*
G37*
G36*
X147624800Y-109905800D02*
G01*
X146507200Y-109905800D01*
X146507200Y-108788200D01*
X147624800Y-108788200D01*
X147624800Y-109905800D01*
X147624800Y-109905800D01*
G37*
G36*
X145846800Y-109905800D02*
G01*
X144729200Y-109905800D01*
X144729200Y-108788200D01*
X145846800Y-108788200D01*
X145846800Y-109905800D01*
X145846800Y-109905800D01*
G37*
G36*
X144322800Y-109905800D02*
G01*
X143205200Y-109905800D01*
X143205200Y-108788200D01*
X144322800Y-108788200D01*
X144322800Y-109905800D01*
X144322800Y-109905800D01*
G37*
G36*
X142798800Y-109905800D02*
G01*
X141427200Y-109905800D01*
X141427200Y-108280200D01*
X142798800Y-108280200D01*
X142798800Y-109905800D01*
X142798800Y-109905800D01*
G37*
G36*
X140766800Y-109905800D02*
G01*
X139395200Y-109905800D01*
X139395200Y-108280200D01*
X140766800Y-108280200D01*
X140766800Y-109905800D01*
X140766800Y-109905800D01*
G37*
G36*
X138988800Y-109905800D02*
G01*
X137617200Y-109905800D01*
X137617200Y-108280200D01*
X138988800Y-108280200D01*
X138988800Y-109905800D01*
X138988800Y-109905800D01*
G37*
G36*
X136956800Y-109905800D02*
G01*
X135585200Y-109905800D01*
X135585200Y-108280200D01*
X136956800Y-108280200D01*
X136956800Y-109905800D01*
X136956800Y-109905800D01*
G37*
G36*
X133654800Y-109524801D02*
G01*
X132537200Y-109524801D01*
X132537200Y-108407201D01*
X133654800Y-108407201D01*
X133654800Y-109524801D01*
X133654800Y-109524801D01*
G37*
G36*
X135178800Y-109524800D02*
G01*
X134061200Y-109524800D01*
X134061200Y-108407200D01*
X135178800Y-108407200D01*
X135178800Y-109524800D01*
X135178800Y-109524800D01*
G37*
G36*
X154482800Y-109524800D02*
G01*
X153365200Y-109524800D01*
X153365200Y-108407200D01*
X154482800Y-108407200D01*
X154482800Y-109524800D01*
X154482800Y-109524800D01*
G37*
G36*
X149148800Y-109016800D02*
G01*
X148031200Y-109016800D01*
X148031200Y-107899200D01*
X149148800Y-107899200D01*
X149148800Y-109016800D01*
X149148800Y-109016800D01*
G37*
G36*
X156423607Y-107034277D02*
G01*
X156484129Y-107046316D01*
X156655162Y-107117160D01*
X156809087Y-107220010D01*
X156939990Y-107350913D01*
X157042840Y-107504838D01*
X157113684Y-107675871D01*
X157149800Y-107857438D01*
X157149800Y-108042562D01*
X157113684Y-108224129D01*
X157042840Y-108395162D01*
X156939990Y-108549087D01*
X156809087Y-108679990D01*
X156655162Y-108782840D01*
X156484129Y-108853684D01*
X156423607Y-108865723D01*
X156302564Y-108889800D01*
X156117436Y-108889800D01*
X155996393Y-108865723D01*
X155935871Y-108853684D01*
X155764838Y-108782840D01*
X155610913Y-108679990D01*
X155480010Y-108549087D01*
X155377160Y-108395162D01*
X155306316Y-108224129D01*
X155270200Y-108042562D01*
X155270200Y-107857438D01*
X155306316Y-107675871D01*
X155377160Y-107504838D01*
X155480010Y-107350913D01*
X155610913Y-107220010D01*
X155764838Y-107117160D01*
X155935871Y-107046316D01*
X155996393Y-107034277D01*
X156117436Y-107010200D01*
X156302564Y-107010200D01*
X156423607Y-107034277D01*
X156423607Y-107034277D01*
G37*
G36*
X131023607Y-107034277D02*
G01*
X131084129Y-107046316D01*
X131255162Y-107117160D01*
X131409087Y-107220010D01*
X131539990Y-107350913D01*
X131642840Y-107504838D01*
X131713684Y-107675871D01*
X131749800Y-107857438D01*
X131749800Y-108042562D01*
X131713684Y-108224129D01*
X131642840Y-108395162D01*
X131539990Y-108549087D01*
X131409087Y-108679990D01*
X131255162Y-108782840D01*
X131084129Y-108853684D01*
X131023607Y-108865723D01*
X130902564Y-108889800D01*
X130717436Y-108889800D01*
X130596393Y-108865723D01*
X130535871Y-108853684D01*
X130364838Y-108782840D01*
X130210913Y-108679990D01*
X130080010Y-108549087D01*
X129977160Y-108395162D01*
X129906316Y-108224129D01*
X129870200Y-108042562D01*
X129870200Y-107857438D01*
X129906316Y-107675871D01*
X129977160Y-107504838D01*
X130080010Y-107350913D01*
X130210913Y-107220010D01*
X130364838Y-107117160D01*
X130535871Y-107046316D01*
X130596393Y-107034277D01*
X130717436Y-107010200D01*
X130902564Y-107010200D01*
X131023607Y-107034277D01*
X131023607Y-107034277D01*
G37*
G36*
X152024800Y-108697800D02*
G01*
X151373200Y-108697800D01*
X151373200Y-107396200D01*
X152024800Y-107396200D01*
X152024800Y-108697800D01*
X152024800Y-108697800D01*
G37*
G36*
X150124800Y-108697800D02*
G01*
X149473200Y-108697800D01*
X149473200Y-107396200D01*
X150124800Y-107396200D01*
X150124800Y-108697800D01*
X150124800Y-108697800D01*
G37*
G36*
X146857340Y-108279160D02*
G01*
X145755740Y-108279160D01*
X145755740Y-106777560D01*
X146857340Y-106777560D01*
X146857340Y-108279160D01*
X146857340Y-108279160D01*
G37*
G36*
X163728400Y-108178600D02*
G01*
X162610800Y-108178600D01*
X162610800Y-107061000D01*
X163728400Y-107061000D01*
X163728400Y-108178600D01*
X163728400Y-108178600D01*
G37*
G36*
X161925000Y-108153200D02*
G01*
X160807400Y-108153200D01*
X160807400Y-107035600D01*
X161925000Y-107035600D01*
X161925000Y-108153200D01*
X161925000Y-108153200D01*
G37*
G36*
X144322800Y-108127800D02*
G01*
X143205200Y-108127800D01*
X143205200Y-107010200D01*
X144322800Y-107010200D01*
X144322800Y-108127800D01*
X144322800Y-108127800D01*
G37*
G36*
X142372800Y-107995800D02*
G01*
X141721200Y-107995800D01*
X141721200Y-106694200D01*
X142372800Y-106694200D01*
X142372800Y-107995800D01*
X142372800Y-107995800D01*
G37*
G36*
X140472800Y-107995800D02*
G01*
X139821200Y-107995800D01*
X139821200Y-106694200D01*
X140472800Y-106694200D01*
X140472800Y-107995800D01*
X140472800Y-107995800D01*
G37*
G36*
X133546800Y-107765800D02*
G01*
X132645200Y-107765800D01*
X132645200Y-106864200D01*
X133546800Y-106864200D01*
X133546800Y-107765800D01*
X133546800Y-107765800D01*
G37*
G36*
X154374800Y-107765800D02*
G01*
X153473200Y-107765800D01*
X153473200Y-106864200D01*
X154374800Y-106864200D01*
X154374800Y-107765800D01*
X154374800Y-107765800D01*
G37*
G36*
X136937800Y-107722800D02*
G01*
X135236200Y-107722800D01*
X135236200Y-104621200D01*
X136937800Y-104621200D01*
X136937800Y-107722800D01*
X136937800Y-107722800D01*
G37*
G36*
X139337800Y-107722800D02*
G01*
X137636200Y-107722800D01*
X137636200Y-104621200D01*
X139337800Y-104621200D01*
X139337800Y-107722800D01*
X139337800Y-107722800D01*
G37*
G36*
X152069800Y-106984800D02*
G01*
X150698200Y-106984800D01*
X150698200Y-105359200D01*
X152069800Y-105359200D01*
X152069800Y-106984800D01*
X152069800Y-106984800D01*
G37*
G36*
X150037800Y-106984800D02*
G01*
X148666200Y-106984800D01*
X148666200Y-105359200D01*
X150037800Y-105359200D01*
X150037800Y-106984800D01*
X150037800Y-106984800D01*
G37*
G36*
X144322800Y-106730800D02*
G01*
X143205200Y-106730800D01*
X143205200Y-105613200D01*
X144322800Y-105613200D01*
X144322800Y-106730800D01*
X144322800Y-106730800D01*
G37*
G36*
X156423607Y-104494277D02*
G01*
X156484129Y-104506316D01*
X156605065Y-104556409D01*
X156632469Y-104567760D01*
X156655162Y-104577160D01*
X156809087Y-104680010D01*
X156939990Y-104810913D01*
X157042840Y-104964838D01*
X157113684Y-105135871D01*
X157149800Y-105317438D01*
X157149800Y-105502562D01*
X157113684Y-105684129D01*
X157042840Y-105855162D01*
X156939990Y-106009087D01*
X156809087Y-106139990D01*
X156655162Y-106242840D01*
X156484129Y-106313684D01*
X156423607Y-106325723D01*
X156302564Y-106349800D01*
X156117436Y-106349800D01*
X155996393Y-106325723D01*
X155935871Y-106313684D01*
X155764838Y-106242840D01*
X155610913Y-106139990D01*
X155480010Y-106009087D01*
X155377160Y-105855162D01*
X155306316Y-105684129D01*
X155270200Y-105502562D01*
X155270200Y-105317438D01*
X155306316Y-105135871D01*
X155377160Y-104964838D01*
X155480010Y-104810913D01*
X155610913Y-104680010D01*
X155764838Y-104577160D01*
X155787532Y-104567760D01*
X155814935Y-104556409D01*
X155935871Y-104506316D01*
X155996393Y-104494277D01*
X156117436Y-104470200D01*
X156302564Y-104470200D01*
X156423607Y-104494277D01*
X156423607Y-104494277D01*
G37*
G36*
X131023607Y-104494277D02*
G01*
X131084129Y-104506316D01*
X131205065Y-104556409D01*
X131232469Y-104567760D01*
X131255162Y-104577160D01*
X131409087Y-104680010D01*
X131539990Y-104810913D01*
X131642840Y-104964838D01*
X131713684Y-105135871D01*
X131749800Y-105317438D01*
X131749800Y-105502562D01*
X131713684Y-105684129D01*
X131642840Y-105855162D01*
X131539990Y-106009087D01*
X131409087Y-106139990D01*
X131255162Y-106242840D01*
X131084129Y-106313684D01*
X131023607Y-106325723D01*
X130902564Y-106349800D01*
X130717436Y-106349800D01*
X130596393Y-106325723D01*
X130535871Y-106313684D01*
X130364838Y-106242840D01*
X130210913Y-106139990D01*
X130080010Y-106009087D01*
X129977160Y-105855162D01*
X129906316Y-105684129D01*
X129870200Y-105502562D01*
X129870200Y-105317438D01*
X129906316Y-105135871D01*
X129977160Y-104964838D01*
X130080010Y-104810913D01*
X130210913Y-104680010D01*
X130364838Y-104577160D01*
X130387532Y-104567760D01*
X130414935Y-104556409D01*
X130535871Y-104506316D01*
X130596393Y-104494277D01*
X130717436Y-104470200D01*
X130902564Y-104470200D01*
X131023607Y-104494277D01*
X131023607Y-104494277D01*
G37*
G36*
X161950400Y-106349800D02*
G01*
X160832800Y-106349800D01*
X160832800Y-105232200D01*
X161950400Y-105232200D01*
X161950400Y-106349800D01*
X161950400Y-106349800D01*
G37*
G36*
X154374800Y-106241800D02*
G01*
X153473200Y-106241800D01*
X153473200Y-105340200D01*
X154374800Y-105340200D01*
X154374800Y-106241800D01*
X154374800Y-106241800D01*
G37*
G36*
X133546800Y-106241800D02*
G01*
X132645200Y-106241800D01*
X132645200Y-105340200D01*
X133546800Y-105340200D01*
X133546800Y-106241800D01*
X133546800Y-106241800D01*
G37*
G36*
X145902300Y-106069360D02*
G01*
X144800700Y-106069360D01*
X144800700Y-104567760D01*
X145902300Y-104567760D01*
X145902300Y-106069360D01*
X145902300Y-106069360D01*
G37*
G36*
X147804760Y-106069360D02*
G01*
X146703160Y-106069360D01*
X146703160Y-104567760D01*
X147804760Y-104567760D01*
X147804760Y-106069360D01*
X147804760Y-106069360D01*
G37*
G36*
X142372800Y-105395800D02*
G01*
X141721200Y-105395800D01*
X141721200Y-104094200D01*
X142372800Y-104094200D01*
X142372800Y-105395800D01*
X142372800Y-105395800D01*
G37*
G36*
X140472800Y-105395800D02*
G01*
X139821200Y-105395800D01*
X139821200Y-104094200D01*
X140472800Y-104094200D01*
X140472800Y-105395800D01*
X140472800Y-105395800D01*
G37*
G36*
X141422800Y-105395800D02*
G01*
X140771200Y-105395800D01*
X140771200Y-104094200D01*
X141422800Y-104094200D01*
X141422800Y-105395800D01*
X141422800Y-105395800D01*
G37*
G36*
X163184600Y-104955800D02*
G01*
X162481400Y-104955800D01*
X162481400Y-102452600D01*
X163184600Y-102452600D01*
X163184600Y-104955800D01*
X163184600Y-104955800D01*
G37*
G36*
X165234600Y-104955800D02*
G01*
X164531400Y-104955800D01*
X164531400Y-102452600D01*
X165234600Y-102452600D01*
X165234600Y-104955800D01*
X165234600Y-104955800D01*
G37*
G36*
X144322800Y-104952800D02*
G01*
X143205200Y-104952800D01*
X143205200Y-103835200D01*
X144322800Y-103835200D01*
X144322800Y-104952800D01*
X144322800Y-104952800D01*
G37*
G36*
X161950400Y-104571800D02*
G01*
X160832800Y-104571800D01*
X160832800Y-102235000D01*
X161950400Y-102235000D01*
X161950400Y-104571800D01*
X161950400Y-104571800D01*
G37*
G36*
X149426800Y-104278800D02*
G01*
X147325200Y-104278800D01*
X147325200Y-102477200D01*
X149426800Y-102477200D01*
X149426800Y-104278800D01*
X149426800Y-104278800D01*
G37*
G36*
X154426800Y-104278800D02*
G01*
X152325200Y-104278800D01*
X152325200Y-102477200D01*
X154426800Y-102477200D01*
X154426800Y-104278800D01*
X154426800Y-104278800D01*
G37*
G36*
X133654800Y-103936800D02*
G01*
X132537200Y-103936800D01*
X132537200Y-102819200D01*
X133654800Y-102819200D01*
X133654800Y-103936800D01*
X133654800Y-103936800D01*
G37*
G36*
X135432800Y-103936800D02*
G01*
X134315200Y-103936800D01*
X134315200Y-102819200D01*
X135432800Y-102819200D01*
X135432800Y-103936800D01*
X135432800Y-103936800D01*
G37*
G36*
X131023607Y-101954277D02*
G01*
X131084129Y-101966316D01*
X131255162Y-102037160D01*
X131409087Y-102140010D01*
X131539990Y-102270913D01*
X131642841Y-102424840D01*
X131713684Y-102595872D01*
X131749800Y-102777436D01*
X131749800Y-102962564D01*
X131725723Y-103083607D01*
X131713684Y-103144129D01*
X131642840Y-103315162D01*
X131539990Y-103469087D01*
X131409087Y-103599990D01*
X131255162Y-103702840D01*
X131084129Y-103773684D01*
X131023607Y-103785723D01*
X130902564Y-103809800D01*
X130717436Y-103809800D01*
X130596393Y-103785723D01*
X130535871Y-103773684D01*
X130364838Y-103702840D01*
X130210913Y-103599990D01*
X130080010Y-103469087D01*
X129977160Y-103315162D01*
X129906316Y-103144129D01*
X129894277Y-103083607D01*
X129870200Y-102962564D01*
X129870200Y-102777436D01*
X129906316Y-102595872D01*
X129977159Y-102424840D01*
X130080010Y-102270913D01*
X130210913Y-102140010D01*
X130364838Y-102037160D01*
X130535871Y-101966316D01*
X130596393Y-101954277D01*
X130717436Y-101930200D01*
X130902564Y-101930200D01*
X131023607Y-101954277D01*
X131023607Y-101954277D01*
G37*
G36*
X156423607Y-101954277D02*
G01*
X156484129Y-101966316D01*
X156655162Y-102037160D01*
X156809087Y-102140010D01*
X156939990Y-102270913D01*
X157042841Y-102424840D01*
X157113684Y-102595872D01*
X157149800Y-102777436D01*
X157149800Y-102962564D01*
X157125723Y-103083607D01*
X157113684Y-103144129D01*
X157042840Y-103315162D01*
X156939990Y-103469087D01*
X156809087Y-103599990D01*
X156655162Y-103702840D01*
X156484129Y-103773684D01*
X156423607Y-103785723D01*
X156302564Y-103809800D01*
X156117436Y-103809800D01*
X155996393Y-103785723D01*
X155935871Y-103773684D01*
X155764838Y-103702840D01*
X155610913Y-103599990D01*
X155480010Y-103469087D01*
X155377160Y-103315162D01*
X155306316Y-103144129D01*
X155294277Y-103083607D01*
X155270200Y-102962564D01*
X155270200Y-102777436D01*
X155306316Y-102595872D01*
X155377159Y-102424840D01*
X155480010Y-102270913D01*
X155610913Y-102140010D01*
X155764838Y-102037160D01*
X155935871Y-101966316D01*
X155996393Y-101954277D01*
X156117436Y-101930200D01*
X156302564Y-101930200D01*
X156423607Y-101954277D01*
X156423607Y-101954277D01*
G37*
G36*
X138417300Y-102706300D02*
G01*
X137045700Y-102706300D01*
X137045700Y-96429700D01*
X138417300Y-96429700D01*
X138417300Y-102706300D01*
X138417300Y-102706300D01*
G37*
G36*
X145656300Y-102706300D02*
G01*
X144284700Y-102706300D01*
X144284700Y-96429700D01*
X145656300Y-96429700D01*
X145656300Y-102706300D01*
X145656300Y-102706300D01*
G37*
G36*
X135435800Y-102307800D02*
G01*
X134134200Y-102307800D01*
X134134200Y-100806200D01*
X135435800Y-100806200D01*
X135435800Y-102307800D01*
X135435800Y-102307800D01*
G37*
G36*
X133835800Y-102307800D02*
G01*
X132534200Y-102307800D01*
X132534200Y-100806200D01*
X133835800Y-100806200D01*
X133835800Y-102307800D01*
X133835800Y-102307800D01*
G37*
G36*
X165354000Y-101803200D02*
G01*
X164236400Y-101803200D01*
X164236400Y-100685600D01*
X165354000Y-100685600D01*
X165354000Y-101803200D01*
X165354000Y-101803200D01*
G37*
G36*
X163576000Y-101803200D02*
G01*
X162458400Y-101803200D01*
X162458400Y-100685600D01*
X163576000Y-100685600D01*
X163576000Y-101803200D01*
X163576000Y-101803200D01*
G37*
G36*
X150413340Y-101802160D02*
G01*
X149311740Y-101802160D01*
X149311740Y-100300560D01*
X150413340Y-100300560D01*
X150413340Y-101802160D01*
X150413340Y-101802160D01*
G37*
G36*
X147878800Y-101650800D02*
G01*
X146761200Y-101650800D01*
X146761200Y-100533200D01*
X147878800Y-100533200D01*
X147878800Y-101650800D01*
X147878800Y-101650800D01*
G37*
G36*
X160629600Y-100332001D02*
G01*
X160632002Y-100356387D01*
X160639115Y-100379836D01*
X160650666Y-100401447D01*
X160666211Y-100420389D01*
X160685153Y-100435934D01*
X160706764Y-100447485D01*
X160730213Y-100454598D01*
X160754599Y-100457000D01*
X161950400Y-100457000D01*
X161950400Y-101574600D01*
X160832800Y-101574600D01*
X160832800Y-101343999D01*
X160830398Y-101319613D01*
X160823285Y-101296164D01*
X160811734Y-101274553D01*
X160796189Y-101255611D01*
X160777247Y-101240066D01*
X160755636Y-101228515D01*
X160732187Y-101221402D01*
X160707801Y-101219000D01*
X159512000Y-101219000D01*
X159512000Y-100101400D01*
X160629600Y-100101400D01*
X160629600Y-100332001D01*
X160629600Y-100332001D01*
G37*
G36*
X152958800Y-101523800D02*
G01*
X151841200Y-101523800D01*
X151841200Y-100406200D01*
X152958800Y-100406200D01*
X152958800Y-101523800D01*
X152958800Y-101523800D01*
G37*
G36*
X154482800Y-101523800D02*
G01*
X153365200Y-101523800D01*
X153365200Y-100406200D01*
X154482800Y-100406200D01*
X154482800Y-101523800D01*
X154482800Y-101523800D01*
G37*
G36*
X131023607Y-99414277D02*
G01*
X131084129Y-99426316D01*
X131255162Y-99497160D01*
X131397638Y-99592360D01*
X131409087Y-99600010D01*
X131539990Y-99730913D01*
X131642841Y-99884840D01*
X131713684Y-100055872D01*
X131749800Y-100237436D01*
X131749800Y-100422564D01*
X131743428Y-100454598D01*
X131713684Y-100604129D01*
X131642840Y-100775162D01*
X131539990Y-100929087D01*
X131409087Y-101059990D01*
X131255162Y-101162840D01*
X131084129Y-101233684D01*
X131023607Y-101245723D01*
X130902564Y-101269800D01*
X130717436Y-101269800D01*
X130596393Y-101245723D01*
X130535871Y-101233684D01*
X130364838Y-101162840D01*
X130210913Y-101059990D01*
X130080010Y-100929087D01*
X129977160Y-100775162D01*
X129906316Y-100604129D01*
X129876572Y-100454598D01*
X129870200Y-100422564D01*
X129870200Y-100237436D01*
X129906316Y-100055872D01*
X129977159Y-99884840D01*
X130080010Y-99730913D01*
X130210913Y-99600010D01*
X130222362Y-99592360D01*
X130364838Y-99497160D01*
X130535871Y-99426316D01*
X130596393Y-99414277D01*
X130717436Y-99390200D01*
X130902564Y-99390200D01*
X131023607Y-99414277D01*
X131023607Y-99414277D01*
G37*
G36*
X156423607Y-99414277D02*
G01*
X156484129Y-99426316D01*
X156655162Y-99497160D01*
X156797638Y-99592360D01*
X156809087Y-99600010D01*
X156939990Y-99730913D01*
X157042841Y-99884840D01*
X157113684Y-100055872D01*
X157149800Y-100237436D01*
X157149800Y-100422564D01*
X157143428Y-100454598D01*
X157113684Y-100604129D01*
X157042840Y-100775162D01*
X156939990Y-100929087D01*
X156809087Y-101059990D01*
X156655162Y-101162840D01*
X156484129Y-101233684D01*
X156423607Y-101245723D01*
X156302564Y-101269800D01*
X156117436Y-101269800D01*
X155996393Y-101245723D01*
X155935871Y-101233684D01*
X155764838Y-101162840D01*
X155610913Y-101059990D01*
X155480010Y-100929087D01*
X155377160Y-100775162D01*
X155306316Y-100604129D01*
X155276572Y-100454598D01*
X155270200Y-100422564D01*
X155270200Y-100237436D01*
X155306316Y-100055872D01*
X155377159Y-99884840D01*
X155480010Y-99730913D01*
X155610913Y-99600010D01*
X155622362Y-99592360D01*
X155764838Y-99497160D01*
X155935871Y-99426316D01*
X155996393Y-99414277D01*
X156117436Y-99390200D01*
X156302564Y-99390200D01*
X156423607Y-99414277D01*
X156423607Y-99414277D01*
G37*
G36*
X158851600Y-101219000D02*
G01*
X157734000Y-101219000D01*
X157734000Y-100101400D01*
X158851600Y-100101400D01*
X158851600Y-101219000D01*
X158851600Y-101219000D01*
G37*
G36*
X133835800Y-100107800D02*
G01*
X132534200Y-100107800D01*
X132534200Y-98606200D01*
X133835800Y-98606200D01*
X133835800Y-100107800D01*
X133835800Y-100107800D01*
G37*
G36*
X135435800Y-100107800D02*
G01*
X134134200Y-100107800D01*
X134134200Y-98606200D01*
X135435800Y-98606200D01*
X135435800Y-100107800D01*
X135435800Y-100107800D01*
G37*
G36*
X147878800Y-99872800D02*
G01*
X146761200Y-99872800D01*
X146761200Y-98755200D01*
X147878800Y-98755200D01*
X147878800Y-99872800D01*
X147878800Y-99872800D01*
G37*
G36*
X152958800Y-99745800D02*
G01*
X151841200Y-99745800D01*
X151841200Y-98628200D01*
X152958800Y-98628200D01*
X152958800Y-99745800D01*
X152958800Y-99745800D01*
G37*
G36*
X154482800Y-99745800D02*
G01*
X153365200Y-99745800D01*
X153365200Y-98628200D01*
X154482800Y-98628200D01*
X154482800Y-99745800D01*
X154482800Y-99745800D01*
G37*
G36*
X152635800Y-97862800D02*
G01*
X151488299Y-97862800D01*
X151463913Y-97865202D01*
X151440464Y-97872315D01*
X151418853Y-97883866D01*
X151399911Y-97899411D01*
X151384366Y-97918353D01*
X151372815Y-97939964D01*
X151370930Y-97946179D01*
X151370275Y-97947404D01*
X151363162Y-97970853D01*
X151360760Y-97995239D01*
X151360760Y-99592360D01*
X150259160Y-99592360D01*
X150259160Y-97990602D01*
X150259298Y-97990147D01*
X150261700Y-97965761D01*
X150261700Y-96368640D01*
X151409201Y-96368640D01*
X151433587Y-96366238D01*
X151450195Y-96361200D01*
X152635800Y-96361200D01*
X152635800Y-97862800D01*
X152635800Y-97862800D01*
G37*
G36*
X149460840Y-97970398D02*
G01*
X149460702Y-97970853D01*
X149458300Y-97995239D01*
X149458300Y-99592360D01*
X148356700Y-99592360D01*
X148356700Y-97990602D01*
X148356838Y-97990147D01*
X148359240Y-97965761D01*
X148359240Y-96368640D01*
X149460840Y-96368640D01*
X149460840Y-97970398D01*
X149460840Y-97970398D01*
G37*
G36*
X156423607Y-96874277D02*
G01*
X156484129Y-96886316D01*
X156655162Y-96957160D01*
X156809087Y-97060010D01*
X156939990Y-97190913D01*
X157042840Y-97344838D01*
X157109720Y-97506300D01*
X157113684Y-97515872D01*
X157149800Y-97697436D01*
X157149800Y-97882564D01*
X157127387Y-97995239D01*
X157113684Y-98064129D01*
X157042840Y-98235162D01*
X156939990Y-98389087D01*
X156809087Y-98519990D01*
X156655162Y-98622840D01*
X156484129Y-98693684D01*
X156423607Y-98705723D01*
X156302564Y-98729800D01*
X156117436Y-98729800D01*
X155996393Y-98705723D01*
X155935871Y-98693684D01*
X155764838Y-98622840D01*
X155610913Y-98519990D01*
X155480010Y-98389087D01*
X155377160Y-98235162D01*
X155306316Y-98064129D01*
X155292613Y-97995239D01*
X155270200Y-97882564D01*
X155270200Y-97697436D01*
X155306316Y-97515872D01*
X155310281Y-97506300D01*
X155377160Y-97344838D01*
X155480010Y-97190913D01*
X155610913Y-97060010D01*
X155764838Y-96957160D01*
X155935871Y-96886316D01*
X155996393Y-96874277D01*
X156117436Y-96850200D01*
X156302564Y-96850200D01*
X156423607Y-96874277D01*
X156423607Y-96874277D01*
G37*
G36*
X131023607Y-96874277D02*
G01*
X131084129Y-96886316D01*
X131255162Y-96957160D01*
X131409087Y-97060010D01*
X131539990Y-97190913D01*
X131642840Y-97344838D01*
X131709720Y-97506300D01*
X131713684Y-97515872D01*
X131749800Y-97697436D01*
X131749800Y-97882564D01*
X131727387Y-97995239D01*
X131713684Y-98064129D01*
X131642840Y-98235162D01*
X131539990Y-98389087D01*
X131409087Y-98519990D01*
X131255162Y-98622840D01*
X131084129Y-98693684D01*
X131023607Y-98705723D01*
X130902564Y-98729800D01*
X130717436Y-98729800D01*
X130596393Y-98705723D01*
X130535871Y-98693684D01*
X130364838Y-98622840D01*
X130210913Y-98519990D01*
X130080010Y-98389087D01*
X129977160Y-98235162D01*
X129906316Y-98064129D01*
X129892613Y-97995239D01*
X129870200Y-97882564D01*
X129870200Y-97697436D01*
X129906316Y-97515872D01*
X129910281Y-97506300D01*
X129977160Y-97344838D01*
X130080010Y-97190913D01*
X130210913Y-97060010D01*
X130364838Y-96957160D01*
X130535871Y-96886316D01*
X130596393Y-96874277D01*
X130717436Y-96850200D01*
X130902564Y-96850200D01*
X131023607Y-96874277D01*
X131023607Y-96874277D01*
G37*
G36*
X135432800Y-98094800D02*
G01*
X134315200Y-98094800D01*
X134315200Y-96977200D01*
X135432800Y-96977200D01*
X135432800Y-98094800D01*
X135432800Y-98094800D01*
G37*
G36*
X133654800Y-98094800D02*
G01*
X132537200Y-98094800D01*
X132537200Y-96977200D01*
X133654800Y-96977200D01*
X133654800Y-98094800D01*
X133654800Y-98094800D01*
G37*
G36*
X154535800Y-97862800D02*
G01*
X153434200Y-97862800D01*
X153434200Y-96361200D01*
X154535800Y-96361200D01*
X154535800Y-97862800D01*
X154535800Y-97862800D01*
G37*
G36*
X147878800Y-97586800D02*
G01*
X146761200Y-97586800D01*
X146761200Y-96469200D01*
X147878800Y-96469200D01*
X147878800Y-97586800D01*
X147878800Y-97586800D01*
G37*
G36*
X133654800Y-96316800D02*
G01*
X132537200Y-96316800D01*
X132537200Y-95199200D01*
X133654800Y-95199200D01*
X133654800Y-96316800D01*
X133654800Y-96316800D01*
G37*
G36*
X135432800Y-96316800D02*
G01*
X134315200Y-96316800D01*
X134315200Y-95199200D01*
X135432800Y-95199200D01*
X135432800Y-96316800D01*
X135432800Y-96316800D01*
G37*
G36*
X131023607Y-94334277D02*
G01*
X131084129Y-94346316D01*
X131255162Y-94417160D01*
X131409087Y-94520010D01*
X131539990Y-94650913D01*
X131642840Y-94804838D01*
X131713684Y-94975871D01*
X131749800Y-95157438D01*
X131749800Y-95342562D01*
X131713684Y-95524129D01*
X131642840Y-95695162D01*
X131539990Y-95849087D01*
X131409087Y-95979990D01*
X131255162Y-96082840D01*
X131084129Y-96153684D01*
X131023607Y-96165723D01*
X130902564Y-96189800D01*
X130717436Y-96189800D01*
X130596393Y-96165723D01*
X130535871Y-96153684D01*
X130364838Y-96082840D01*
X130210913Y-95979990D01*
X130080010Y-95849087D01*
X129977160Y-95695162D01*
X129906316Y-95524129D01*
X129870200Y-95342562D01*
X129870200Y-95157438D01*
X129906316Y-94975871D01*
X129977160Y-94804838D01*
X130080010Y-94650913D01*
X130210913Y-94520010D01*
X130364838Y-94417160D01*
X130535871Y-94346316D01*
X130596393Y-94334277D01*
X130717436Y-94310200D01*
X130902564Y-94310200D01*
X131023607Y-94334277D01*
X131023607Y-94334277D01*
G37*
G36*
X156423607Y-94334277D02*
G01*
X156484129Y-94346316D01*
X156655162Y-94417160D01*
X156809087Y-94520010D01*
X156939990Y-94650913D01*
X157042840Y-94804838D01*
X157113684Y-94975871D01*
X157149800Y-95157438D01*
X157149800Y-95342562D01*
X157113684Y-95524129D01*
X157042840Y-95695162D01*
X156939990Y-95849087D01*
X156809087Y-95979990D01*
X156655162Y-96082840D01*
X156484129Y-96153684D01*
X156423607Y-96165723D01*
X156302564Y-96189800D01*
X156117436Y-96189800D01*
X155996393Y-96165723D01*
X155935871Y-96153684D01*
X155764838Y-96082840D01*
X155610913Y-95979990D01*
X155480010Y-95849087D01*
X155377160Y-95695162D01*
X155306316Y-95524129D01*
X155270200Y-95342562D01*
X155270200Y-95157438D01*
X155306316Y-94975871D01*
X155377160Y-94804838D01*
X155480010Y-94650913D01*
X155610913Y-94520010D01*
X155764838Y-94417160D01*
X155935871Y-94346316D01*
X155996393Y-94334277D01*
X156117436Y-94310200D01*
X156302564Y-94310200D01*
X156423607Y-94334277D01*
X156423607Y-94334277D01*
G37*
G36*
X147878800Y-95808800D02*
G01*
X146761200Y-95808800D01*
X146761200Y-94691200D01*
X147878800Y-94691200D01*
X147878800Y-95808800D01*
X147878800Y-95808800D01*
G37*
G36*
X153585800Y-95662800D02*
G01*
X152484200Y-95662800D01*
X152484200Y-94161200D01*
X153585800Y-94161200D01*
X153585800Y-95662800D01*
X153585800Y-95662800D01*
G37*
G36*
X150408260Y-95660440D02*
G01*
X149306660Y-95660440D01*
X149306660Y-94158840D01*
X150408260Y-94158840D01*
X150408260Y-95660440D01*
X150408260Y-95660440D01*
G37*
G36*
X137718800Y-94792800D02*
G01*
X136601200Y-94792800D01*
X136601200Y-93675200D01*
X137718800Y-93675200D01*
X137718800Y-94792800D01*
X137718800Y-94792800D01*
G37*
G36*
X141020800Y-94792800D02*
G01*
X139903200Y-94792800D01*
X139903200Y-93675200D01*
X141020800Y-93675200D01*
X141020800Y-94792800D01*
X141020800Y-94792800D01*
G37*
G36*
X142798800Y-94792800D02*
G01*
X141681200Y-94792800D01*
X141681200Y-93675200D01*
X142798800Y-93675200D01*
X142798800Y-94792800D01*
X142798800Y-94792800D01*
G37*
G36*
X144195800Y-94792800D02*
G01*
X143078200Y-94792800D01*
X143078200Y-93675200D01*
X144195800Y-93675200D01*
X144195800Y-94792800D01*
X144195800Y-94792800D01*
G37*
G36*
X145973800Y-94792800D02*
G01*
X144856200Y-94792800D01*
X144856200Y-93675200D01*
X145973800Y-93675200D01*
X145973800Y-94792800D01*
X145973800Y-94792800D01*
G37*
G36*
X139496800Y-94792800D02*
G01*
X138379200Y-94792800D01*
X138379200Y-93675200D01*
X139496800Y-93675200D01*
X139496800Y-94792800D01*
X139496800Y-94792800D01*
G37*
G36*
X156423607Y-91794277D02*
G01*
X156484129Y-91806316D01*
X156655162Y-91877160D01*
X156809087Y-91980010D01*
X156939990Y-92110913D01*
X157042840Y-92264838D01*
X157113684Y-92435871D01*
X157149800Y-92617438D01*
X157149800Y-92802562D01*
X157113684Y-92984129D01*
X157042840Y-93155162D01*
X156939990Y-93309087D01*
X156809087Y-93439990D01*
X156655162Y-93542840D01*
X156484129Y-93613684D01*
X156423607Y-93625723D01*
X156302564Y-93649800D01*
X156117436Y-93649800D01*
X155996393Y-93625723D01*
X155935871Y-93613684D01*
X155764838Y-93542840D01*
X155610913Y-93439990D01*
X155480010Y-93309087D01*
X155377160Y-93155162D01*
X155306316Y-92984129D01*
X155270200Y-92802562D01*
X155270200Y-92617438D01*
X155306316Y-92435871D01*
X155377160Y-92264838D01*
X155480010Y-92110913D01*
X155610913Y-91980010D01*
X155764838Y-91877160D01*
X155935871Y-91806316D01*
X155996393Y-91794277D01*
X156117436Y-91770200D01*
X156302564Y-91770200D01*
X156423607Y-91794277D01*
X156423607Y-91794277D01*
G37*
G36*
X131023607Y-91794277D02*
G01*
X131084129Y-91806316D01*
X131255162Y-91877160D01*
X131409087Y-91980010D01*
X131539990Y-92110913D01*
X131642840Y-92264838D01*
X131713684Y-92435871D01*
X131749800Y-92617438D01*
X131749800Y-92802562D01*
X131713684Y-92984129D01*
X131642840Y-93155162D01*
X131539990Y-93309087D01*
X131409087Y-93439990D01*
X131255162Y-93542840D01*
X131084129Y-93613684D01*
X131023607Y-93625723D01*
X130902564Y-93649800D01*
X130717436Y-93649800D01*
X130596393Y-93625723D01*
X130535871Y-93613684D01*
X130364838Y-93542840D01*
X130210913Y-93439990D01*
X130080010Y-93309087D01*
X129977160Y-93155162D01*
X129906316Y-92984129D01*
X129870200Y-92802562D01*
X129870200Y-92617438D01*
X129906316Y-92435871D01*
X129977160Y-92264838D01*
X130080010Y-92110913D01*
X130210913Y-91980010D01*
X130364838Y-91877160D01*
X130535871Y-91806316D01*
X130596393Y-91794277D01*
X130717436Y-91770200D01*
X130902564Y-91770200D01*
X131023607Y-91794277D01*
X131023607Y-91794277D01*
G37*
G36*
X135377321Y-92095047D02*
G01*
X135437889Y-92107095D01*
X135447106Y-92110913D01*
X135551997Y-92154360D01*
X135654687Y-92222975D01*
X135742025Y-92310313D01*
X135810640Y-92413003D01*
X135857905Y-92527112D01*
X135882000Y-92648245D01*
X135882000Y-92771755D01*
X135857905Y-92892888D01*
X135810640Y-93006997D01*
X135742025Y-93109687D01*
X135654687Y-93197025D01*
X135551997Y-93265640D01*
X135494942Y-93289273D01*
X135437889Y-93312905D01*
X135377322Y-93324952D01*
X135316755Y-93337000D01*
X135193245Y-93337000D01*
X135132678Y-93324952D01*
X135072111Y-93312905D01*
X135015058Y-93289273D01*
X134958003Y-93265640D01*
X134855313Y-93197025D01*
X134767975Y-93109687D01*
X134699360Y-93006997D01*
X134652095Y-92892888D01*
X134628000Y-92771755D01*
X134628000Y-92648245D01*
X134652095Y-92527112D01*
X134699360Y-92413003D01*
X134767975Y-92310313D01*
X134855313Y-92222975D01*
X134958003Y-92154360D01*
X135062894Y-92110913D01*
X135072111Y-92107095D01*
X135132679Y-92095047D01*
X135193245Y-92083000D01*
X135316755Y-92083000D01*
X135377321Y-92095047D01*
X135377321Y-92095047D01*
G37*
G36*
X148470800Y-91501800D02*
G01*
X147469200Y-91501800D01*
X147469200Y-89700200D01*
X148470800Y-89700200D01*
X148470800Y-91501800D01*
X148470800Y-91501800D01*
G37*
G36*
X149740800Y-91501800D02*
G01*
X148739200Y-91501800D01*
X148739200Y-89700200D01*
X149740800Y-89700200D01*
X149740800Y-91501800D01*
X149740800Y-91501800D01*
G37*
G36*
X138310800Y-91501800D02*
G01*
X137309200Y-91501800D01*
X137309200Y-89700200D01*
X138310800Y-89700200D01*
X138310800Y-91501800D01*
X138310800Y-91501800D01*
G37*
G36*
X139580800Y-91501800D02*
G01*
X138579200Y-91501800D01*
X138579200Y-89700200D01*
X139580800Y-89700200D01*
X139580800Y-91501800D01*
X139580800Y-91501800D01*
G37*
G36*
X140850800Y-91501800D02*
G01*
X139849200Y-91501800D01*
X139849200Y-89700200D01*
X140850800Y-89700200D01*
X140850800Y-91501800D01*
X140850800Y-91501800D01*
G37*
G36*
X147200800Y-91501800D02*
G01*
X146199200Y-91501800D01*
X146199200Y-89700200D01*
X147200800Y-89700200D01*
X147200800Y-91501800D01*
X147200800Y-91501800D01*
G37*
G36*
X145930800Y-91501800D02*
G01*
X144929200Y-91501800D01*
X144929200Y-89700200D01*
X145930800Y-89700200D01*
X145930800Y-91501800D01*
X145930800Y-91501800D01*
G37*
G36*
X144660800Y-91501800D02*
G01*
X143659200Y-91501800D01*
X143659200Y-89700200D01*
X144660800Y-89700200D01*
X144660800Y-91501800D01*
X144660800Y-91501800D01*
G37*
G36*
X143390800Y-91501800D02*
G01*
X142389200Y-91501800D01*
X142389200Y-89700200D01*
X143390800Y-89700200D01*
X143390800Y-91501800D01*
X143390800Y-91501800D01*
G37*
G36*
X142120800Y-91501800D02*
G01*
X141119200Y-91501800D01*
X141119200Y-89700200D01*
X142120800Y-89700200D01*
X142120800Y-91501800D01*
X142120800Y-91501800D01*
G37*
G36*
X131023607Y-89254277D02*
G01*
X131084129Y-89266316D01*
X131255162Y-89337160D01*
X131409087Y-89440010D01*
X131539990Y-89570913D01*
X131642840Y-89724838D01*
X131713684Y-89895871D01*
X131749800Y-90077438D01*
X131749800Y-90262562D01*
X131713684Y-90444129D01*
X131642840Y-90615162D01*
X131539990Y-90769087D01*
X131409087Y-90899990D01*
X131255162Y-91002840D01*
X131084129Y-91073684D01*
X131023607Y-91085723D01*
X130902564Y-91109800D01*
X130717436Y-91109800D01*
X130596393Y-91085723D01*
X130535871Y-91073684D01*
X130364838Y-91002840D01*
X130210913Y-90899990D01*
X130080010Y-90769087D01*
X129977160Y-90615162D01*
X129906316Y-90444129D01*
X129870200Y-90262562D01*
X129870200Y-90077438D01*
X129906316Y-89895871D01*
X129977160Y-89724838D01*
X130080010Y-89570913D01*
X130210913Y-89440010D01*
X130364838Y-89337160D01*
X130535871Y-89266316D01*
X130596393Y-89254277D01*
X130717436Y-89230200D01*
X130902564Y-89230200D01*
X131023607Y-89254277D01*
X131023607Y-89254277D01*
G37*
G36*
X156423607Y-89254277D02*
G01*
X156484129Y-89266316D01*
X156655162Y-89337160D01*
X156809087Y-89440010D01*
X156939990Y-89570913D01*
X157042840Y-89724838D01*
X157113684Y-89895871D01*
X157149800Y-90077438D01*
X157149800Y-90262562D01*
X157113684Y-90444129D01*
X157042840Y-90615162D01*
X156939990Y-90769087D01*
X156809087Y-90899990D01*
X156655162Y-91002840D01*
X156484129Y-91073684D01*
X156423607Y-91085723D01*
X156302564Y-91109800D01*
X156117436Y-91109800D01*
X155996393Y-91085723D01*
X155935871Y-91073684D01*
X155764838Y-91002840D01*
X155610913Y-90899990D01*
X155480010Y-90769087D01*
X155377160Y-90615162D01*
X155306316Y-90444129D01*
X155270200Y-90262562D01*
X155270200Y-90077438D01*
X155306316Y-89895871D01*
X155377160Y-89724838D01*
X155480010Y-89570913D01*
X155610913Y-89440010D01*
X155764838Y-89337160D01*
X155935871Y-89266316D01*
X155996393Y-89254277D01*
X156117436Y-89230200D01*
X156302564Y-89230200D01*
X156423607Y-89254277D01*
X156423607Y-89254277D01*
G37*
G36*
X153410800Y-89651800D02*
G01*
X151609200Y-89651800D01*
X151609200Y-88650200D01*
X153410800Y-88650200D01*
X153410800Y-89651800D01*
X153410800Y-89651800D01*
G37*
G36*
X135410800Y-89611800D02*
G01*
X133609200Y-89611800D01*
X133609200Y-88610200D01*
X135410800Y-88610200D01*
X135410800Y-89611800D01*
X135410800Y-89611800D01*
G37*
G36*
X164758800Y-89082000D02*
G01*
X162957200Y-89082000D01*
X162957200Y-87680400D01*
X164758800Y-87680400D01*
X164758800Y-89082000D01*
X164758800Y-89082000D01*
G37*
G36*
X131023607Y-86714277D02*
G01*
X131084129Y-86726316D01*
X131255162Y-86797160D01*
X131409087Y-86900010D01*
X131539990Y-87030913D01*
X131642840Y-87184838D01*
X131713684Y-87355871D01*
X131749800Y-87537438D01*
X131749800Y-87722562D01*
X131713684Y-87904129D01*
X131642840Y-88075162D01*
X131539990Y-88229087D01*
X131409087Y-88359990D01*
X131255162Y-88462840D01*
X131084129Y-88533684D01*
X131023607Y-88545723D01*
X130902564Y-88569800D01*
X130717436Y-88569800D01*
X130596393Y-88545723D01*
X130535871Y-88533684D01*
X130364838Y-88462840D01*
X130210913Y-88359990D01*
X130080010Y-88229087D01*
X129977160Y-88075162D01*
X129906316Y-87904129D01*
X129870200Y-87722562D01*
X129870200Y-87537438D01*
X129906316Y-87355871D01*
X129977160Y-87184838D01*
X130080010Y-87030913D01*
X130210913Y-86900010D01*
X130364838Y-86797160D01*
X130535871Y-86726316D01*
X130596393Y-86714277D01*
X130717436Y-86690200D01*
X130902564Y-86690200D01*
X131023607Y-86714277D01*
X131023607Y-86714277D01*
G37*
G36*
X156423607Y-86714277D02*
G01*
X156484129Y-86726316D01*
X156655162Y-86797160D01*
X156809087Y-86900010D01*
X156939990Y-87030913D01*
X157042840Y-87184838D01*
X157113684Y-87355871D01*
X157149800Y-87537438D01*
X157149800Y-87722562D01*
X157113684Y-87904129D01*
X157042840Y-88075162D01*
X156939990Y-88229087D01*
X156809087Y-88359990D01*
X156655162Y-88462840D01*
X156484129Y-88533684D01*
X156423607Y-88545723D01*
X156302564Y-88569800D01*
X156117436Y-88569800D01*
X155996393Y-88545723D01*
X155935871Y-88533684D01*
X155764838Y-88462840D01*
X155610913Y-88359990D01*
X155480010Y-88229087D01*
X155377160Y-88075162D01*
X155306316Y-87904129D01*
X155270200Y-87722562D01*
X155270200Y-87537438D01*
X155306316Y-87355871D01*
X155377160Y-87184838D01*
X155480010Y-87030913D01*
X155610913Y-86900010D01*
X155764838Y-86797160D01*
X155935871Y-86726316D01*
X155996393Y-86714277D01*
X156117436Y-86690200D01*
X156302564Y-86690200D01*
X156423607Y-86714277D01*
X156423607Y-86714277D01*
G37*
G36*
X153410800Y-88381800D02*
G01*
X151609200Y-88381800D01*
X151609200Y-87380200D01*
X153410800Y-87380200D01*
X153410800Y-88381800D01*
X153410800Y-88381800D01*
G37*
G36*
X135410800Y-88341800D02*
G01*
X133609200Y-88341800D01*
X133609200Y-87340200D01*
X135410800Y-87340200D01*
X135410800Y-88341800D01*
X135410800Y-88341800D01*
G37*
G36*
X153410800Y-87111800D02*
G01*
X151609200Y-87111800D01*
X151609200Y-86110200D01*
X153410800Y-86110200D01*
X153410800Y-87111800D01*
X153410800Y-87111800D01*
G37*
G36*
X135410800Y-87071800D02*
G01*
X133609200Y-87071800D01*
X133609200Y-86070200D01*
X135410800Y-86070200D01*
X135410800Y-87071800D01*
X135410800Y-87071800D01*
G37*
G36*
X164874908Y-85818802D02*
G01*
X164947848Y-85849015D01*
X164947850Y-85849016D01*
X164980895Y-85871096D01*
X165013494Y-85892878D01*
X165069322Y-85948706D01*
X165113185Y-86014352D01*
X165143398Y-86087292D01*
X165158800Y-86164723D01*
X165158800Y-86243677D01*
X165143398Y-86321108D01*
X165113185Y-86394048D01*
X165113184Y-86394050D01*
X165069321Y-86459695D01*
X165013495Y-86515521D01*
X164947850Y-86559384D01*
X164947849Y-86559385D01*
X164947848Y-86559385D01*
X164874908Y-86589598D01*
X164797477Y-86605000D01*
X164718523Y-86605000D01*
X164641092Y-86589598D01*
X164568152Y-86559385D01*
X164568151Y-86559385D01*
X164568150Y-86559384D01*
X164502505Y-86515521D01*
X164446679Y-86459695D01*
X164402816Y-86394050D01*
X164402815Y-86394048D01*
X164372602Y-86321108D01*
X164357200Y-86243677D01*
X164357200Y-86164723D01*
X164372602Y-86087292D01*
X164402815Y-86014352D01*
X164446678Y-85948706D01*
X164502506Y-85892878D01*
X164535105Y-85871096D01*
X164568150Y-85849016D01*
X164568152Y-85849015D01*
X164641092Y-85818802D01*
X164718523Y-85803400D01*
X164797477Y-85803400D01*
X164874908Y-85818802D01*
X164874908Y-85818802D01*
G37*
G36*
X163074908Y-85818802D02*
G01*
X163147848Y-85849015D01*
X163147850Y-85849016D01*
X163180895Y-85871096D01*
X163213494Y-85892878D01*
X163269322Y-85948706D01*
X163313185Y-86014352D01*
X163343398Y-86087292D01*
X163358800Y-86164723D01*
X163358800Y-86243677D01*
X163343398Y-86321108D01*
X163313185Y-86394048D01*
X163313184Y-86394050D01*
X163269321Y-86459695D01*
X163213495Y-86515521D01*
X163147850Y-86559384D01*
X163147849Y-86559385D01*
X163147848Y-86559385D01*
X163074908Y-86589598D01*
X162997477Y-86605000D01*
X162918523Y-86605000D01*
X162841092Y-86589598D01*
X162768152Y-86559385D01*
X162768151Y-86559385D01*
X162768150Y-86559384D01*
X162702505Y-86515521D01*
X162646679Y-86459695D01*
X162602816Y-86394050D01*
X162602815Y-86394048D01*
X162572602Y-86321108D01*
X162557200Y-86243677D01*
X162557200Y-86164723D01*
X162572602Y-86087292D01*
X162602815Y-86014352D01*
X162646678Y-85948706D01*
X162702506Y-85892878D01*
X162735105Y-85871096D01*
X162768150Y-85849016D01*
X162768152Y-85849015D01*
X162841092Y-85818802D01*
X162918523Y-85803400D01*
X162997477Y-85803400D01*
X163074908Y-85818802D01*
X163074908Y-85818802D01*
G37*
G36*
X131023607Y-84174277D02*
G01*
X131084129Y-84186316D01*
X131255162Y-84257160D01*
X131409087Y-84360010D01*
X131539990Y-84490913D01*
X131642840Y-84644838D01*
X131713684Y-84815871D01*
X131749800Y-84997438D01*
X131749800Y-85182562D01*
X131713684Y-85364129D01*
X131642840Y-85535162D01*
X131539990Y-85689087D01*
X131409087Y-85819990D01*
X131255162Y-85922840D01*
X131084129Y-85993684D01*
X131023607Y-86005723D01*
X130902564Y-86029800D01*
X130717436Y-86029800D01*
X130596393Y-86005723D01*
X130535871Y-85993684D01*
X130364838Y-85922840D01*
X130210913Y-85819990D01*
X130080010Y-85689087D01*
X129977160Y-85535162D01*
X129906316Y-85364129D01*
X129870200Y-85182562D01*
X129870200Y-84997438D01*
X129906316Y-84815871D01*
X129977160Y-84644838D01*
X130080010Y-84490913D01*
X130210913Y-84360010D01*
X130364838Y-84257160D01*
X130535871Y-84186316D01*
X130596393Y-84174277D01*
X130717436Y-84150200D01*
X130902564Y-84150200D01*
X131023607Y-84174277D01*
X131023607Y-84174277D01*
G37*
G36*
X156423607Y-84174277D02*
G01*
X156484129Y-84186316D01*
X156655162Y-84257160D01*
X156809087Y-84360010D01*
X156939990Y-84490913D01*
X157042840Y-84644838D01*
X157113684Y-84815871D01*
X157149800Y-84997438D01*
X157149800Y-85182562D01*
X157113684Y-85364129D01*
X157042840Y-85535162D01*
X156939990Y-85689087D01*
X156809087Y-85819990D01*
X156655162Y-85922840D01*
X156484129Y-85993684D01*
X156423607Y-86005723D01*
X156302564Y-86029800D01*
X156117436Y-86029800D01*
X155996393Y-86005723D01*
X155935871Y-85993684D01*
X155764838Y-85922840D01*
X155610913Y-85819990D01*
X155480010Y-85689087D01*
X155377160Y-85535162D01*
X155306316Y-85364129D01*
X155270200Y-85182562D01*
X155270200Y-84997438D01*
X155306316Y-84815871D01*
X155377160Y-84644838D01*
X155480010Y-84490913D01*
X155610913Y-84360010D01*
X155764838Y-84257160D01*
X155935871Y-84186316D01*
X155996393Y-84174277D01*
X156117436Y-84150200D01*
X156302564Y-84150200D01*
X156423607Y-84174277D01*
X156423607Y-84174277D01*
G37*
G36*
X153410800Y-85841800D02*
G01*
X151609200Y-85841800D01*
X151609200Y-84840200D01*
X153410800Y-84840200D01*
X153410800Y-85841800D01*
X153410800Y-85841800D01*
G37*
G36*
X135410800Y-85801800D02*
G01*
X133609200Y-85801800D01*
X133609200Y-84800200D01*
X135410800Y-84800200D01*
X135410800Y-85801800D01*
X135410800Y-85801800D01*
G37*
G36*
X164758800Y-84728000D02*
G01*
X162957200Y-84728000D01*
X162957200Y-83326400D01*
X164758800Y-83326400D01*
X164758800Y-84728000D01*
X164758800Y-84728000D01*
G37*
G36*
X153410800Y-84571800D02*
G01*
X151609200Y-84571800D01*
X151609200Y-83570200D01*
X153410800Y-83570200D01*
X153410800Y-84571800D01*
X153410800Y-84571800D01*
G37*
G36*
X135410800Y-84531800D02*
G01*
X133609200Y-84531800D01*
X133609200Y-83530200D01*
X135410800Y-83530200D01*
X135410800Y-84531800D01*
X135410800Y-84531800D01*
G37*
G36*
X147010000Y-83501000D02*
G01*
X140610000Y-83501000D01*
X140610000Y-77101000D01*
X147010000Y-77101000D01*
X147010000Y-83501000D01*
X147010000Y-83501000D01*
G37*
G36*
X156423607Y-81634277D02*
G01*
X156484129Y-81646316D01*
X156655162Y-81717160D01*
X156809087Y-81820010D01*
X156939990Y-81950913D01*
X157042840Y-82104838D01*
X157113684Y-82275871D01*
X157149800Y-82457438D01*
X157149800Y-82642562D01*
X157113684Y-82824129D01*
X157042840Y-82995162D01*
X156939990Y-83149087D01*
X156809087Y-83279990D01*
X156655162Y-83382840D01*
X156484129Y-83453684D01*
X156423607Y-83465723D01*
X156302564Y-83489800D01*
X156117436Y-83489800D01*
X155996393Y-83465723D01*
X155935871Y-83453684D01*
X155764838Y-83382840D01*
X155610913Y-83279990D01*
X155480010Y-83149087D01*
X155377160Y-82995162D01*
X155306316Y-82824129D01*
X155270200Y-82642562D01*
X155270200Y-82457438D01*
X155306316Y-82275871D01*
X155377160Y-82104838D01*
X155480010Y-81950913D01*
X155610913Y-81820010D01*
X155764838Y-81717160D01*
X155935871Y-81646316D01*
X155996393Y-81634277D01*
X156117436Y-81610200D01*
X156302564Y-81610200D01*
X156423607Y-81634277D01*
X156423607Y-81634277D01*
G37*
G36*
X131023607Y-81634277D02*
G01*
X131084129Y-81646316D01*
X131255162Y-81717160D01*
X131409087Y-81820010D01*
X131539990Y-81950913D01*
X131642840Y-82104838D01*
X131713684Y-82275871D01*
X131749800Y-82457438D01*
X131749800Y-82642562D01*
X131713684Y-82824129D01*
X131642840Y-82995162D01*
X131539990Y-83149087D01*
X131409087Y-83279990D01*
X131255162Y-83382840D01*
X131084129Y-83453684D01*
X131023607Y-83465723D01*
X130902564Y-83489800D01*
X130717436Y-83489800D01*
X130596393Y-83465723D01*
X130535871Y-83453684D01*
X130364838Y-83382840D01*
X130210913Y-83279990D01*
X130080010Y-83149087D01*
X129977160Y-82995162D01*
X129906316Y-82824129D01*
X129870200Y-82642562D01*
X129870200Y-82457438D01*
X129906316Y-82275871D01*
X129977160Y-82104838D01*
X130080010Y-81950913D01*
X130210913Y-81820010D01*
X130364838Y-81717160D01*
X130535871Y-81646316D01*
X130596393Y-81634277D01*
X130717436Y-81610200D01*
X130902564Y-81610200D01*
X131023607Y-81634277D01*
X131023607Y-81634277D01*
G37*
G36*
X153410800Y-83301800D02*
G01*
X151609200Y-83301800D01*
X151609200Y-82300200D01*
X153410800Y-82300200D01*
X153410800Y-83301800D01*
X153410800Y-83301800D01*
G37*
G36*
X135410800Y-83261800D02*
G01*
X133609200Y-83261800D01*
X133609200Y-82260200D01*
X135410800Y-82260200D01*
X135410800Y-83261800D01*
X135410800Y-83261800D01*
G37*
G36*
X153410800Y-82031800D02*
G01*
X151609200Y-82031800D01*
X151609200Y-81030200D01*
X153410800Y-81030200D01*
X153410800Y-82031800D01*
X153410800Y-82031800D01*
G37*
G36*
X135410800Y-81991800D02*
G01*
X133609200Y-81991800D01*
X133609200Y-80990200D01*
X135410800Y-80990200D01*
X135410800Y-81991800D01*
X135410800Y-81991800D01*
G37*
G36*
X163546800Y-81655000D02*
G01*
X162645200Y-81655000D01*
X162645200Y-80753400D01*
X163546800Y-80753400D01*
X163546800Y-81655000D01*
X163546800Y-81655000D01*
G37*
G36*
X165070800Y-81655000D02*
G01*
X164169200Y-81655000D01*
X164169200Y-80753400D01*
X165070800Y-80753400D01*
X165070800Y-81655000D01*
X165070800Y-81655000D01*
G37*
G36*
X156423607Y-79094277D02*
G01*
X156484129Y-79106316D01*
X156655162Y-79177160D01*
X156809087Y-79280010D01*
X156939990Y-79410913D01*
X157042840Y-79564838D01*
X157113684Y-79735871D01*
X157149800Y-79917438D01*
X157149800Y-80102562D01*
X157113684Y-80284129D01*
X157042840Y-80455162D01*
X156939990Y-80609087D01*
X156809087Y-80739990D01*
X156655162Y-80842840D01*
X156655161Y-80842841D01*
X156655160Y-80842841D01*
X156605065Y-80863591D01*
X156484129Y-80913684D01*
X156423607Y-80925723D01*
X156302564Y-80949800D01*
X156117436Y-80949800D01*
X155996393Y-80925723D01*
X155935871Y-80913684D01*
X155814935Y-80863591D01*
X155764840Y-80842841D01*
X155764839Y-80842841D01*
X155764838Y-80842840D01*
X155610913Y-80739990D01*
X155480010Y-80609087D01*
X155377160Y-80455162D01*
X155306316Y-80284129D01*
X155270200Y-80102562D01*
X155270200Y-79917438D01*
X155306316Y-79735871D01*
X155377160Y-79564838D01*
X155480010Y-79410913D01*
X155610913Y-79280010D01*
X155764838Y-79177160D01*
X155935871Y-79106316D01*
X155996393Y-79094277D01*
X156117436Y-79070200D01*
X156302564Y-79070200D01*
X156423607Y-79094277D01*
X156423607Y-79094277D01*
G37*
G36*
X131023607Y-79094277D02*
G01*
X131084129Y-79106316D01*
X131255162Y-79177160D01*
X131409087Y-79280010D01*
X131539990Y-79410913D01*
X131642840Y-79564838D01*
X131713684Y-79735871D01*
X131749800Y-79917438D01*
X131749800Y-80102562D01*
X131713684Y-80284129D01*
X131642840Y-80455162D01*
X131539990Y-80609087D01*
X131409087Y-80739990D01*
X131255162Y-80842840D01*
X131255161Y-80842841D01*
X131255160Y-80842841D01*
X131205065Y-80863591D01*
X131084129Y-80913684D01*
X131023607Y-80925723D01*
X130902564Y-80949800D01*
X130717436Y-80949800D01*
X130596393Y-80925723D01*
X130535871Y-80913684D01*
X130414935Y-80863591D01*
X130364840Y-80842841D01*
X130364839Y-80842841D01*
X130364838Y-80842840D01*
X130210913Y-80739990D01*
X130080010Y-80609087D01*
X129977160Y-80455162D01*
X129906316Y-80284129D01*
X129870200Y-80102562D01*
X129870200Y-79917438D01*
X129906316Y-79735871D01*
X129977160Y-79564838D01*
X130080010Y-79410913D01*
X130210913Y-79280010D01*
X130364838Y-79177160D01*
X130535871Y-79106316D01*
X130596393Y-79094277D01*
X130717436Y-79070200D01*
X130902564Y-79070200D01*
X131023607Y-79094277D01*
X131023607Y-79094277D01*
G37*
G36*
X153410800Y-80761800D02*
G01*
X151609200Y-80761800D01*
X151609200Y-79760200D01*
X153410800Y-79760200D01*
X153410800Y-80761800D01*
X153410800Y-80761800D01*
G37*
G36*
X135410800Y-80721800D02*
G01*
X133609200Y-80721800D01*
X133609200Y-79720200D01*
X135410800Y-79720200D01*
X135410800Y-80721800D01*
X135410800Y-80721800D01*
G37*
G36*
X163576000Y-80137000D02*
G01*
X162458400Y-80137000D01*
X162458400Y-79019400D01*
X163576000Y-79019400D01*
X163576000Y-80137000D01*
X163576000Y-80137000D01*
G37*
G36*
X165354000Y-80137000D02*
G01*
X164236400Y-80137000D01*
X164236400Y-79019400D01*
X165354000Y-79019400D01*
X165354000Y-80137000D01*
X165354000Y-80137000D01*
G37*
G36*
X153410800Y-79491800D02*
G01*
X151609200Y-79491800D01*
X151609200Y-78490200D01*
X153410800Y-78490200D01*
X153410800Y-79491800D01*
X153410800Y-79491800D01*
G37*
G36*
X135410800Y-79451800D02*
G01*
X133609200Y-79451800D01*
X133609200Y-78450200D01*
X135410800Y-78450200D01*
X135410800Y-79451800D01*
X135410800Y-79451800D01*
G37*
G36*
X131023607Y-76554277D02*
G01*
X131084129Y-76566316D01*
X131255162Y-76637160D01*
X131409087Y-76740010D01*
X131539990Y-76870913D01*
X131642840Y-77024838D01*
X131713684Y-77195871D01*
X131749800Y-77377438D01*
X131749800Y-77562562D01*
X131713684Y-77744129D01*
X131642840Y-77915162D01*
X131539990Y-78069087D01*
X131409087Y-78199990D01*
X131255162Y-78302840D01*
X131084129Y-78373684D01*
X131023607Y-78385723D01*
X130902564Y-78409800D01*
X130717436Y-78409800D01*
X130596393Y-78385723D01*
X130535871Y-78373684D01*
X130364838Y-78302840D01*
X130210913Y-78199990D01*
X130080010Y-78069087D01*
X129977160Y-77915162D01*
X129906316Y-77744129D01*
X129870200Y-77562562D01*
X129870200Y-77377438D01*
X129906316Y-77195871D01*
X129977160Y-77024838D01*
X130080010Y-76870913D01*
X130210913Y-76740010D01*
X130364838Y-76637160D01*
X130535871Y-76566316D01*
X130596393Y-76554277D01*
X130717436Y-76530200D01*
X130902564Y-76530200D01*
X131023607Y-76554277D01*
X131023607Y-76554277D01*
G37*
G36*
X156423607Y-76554277D02*
G01*
X156484129Y-76566316D01*
X156655162Y-76637160D01*
X156809087Y-76740010D01*
X156939990Y-76870913D01*
X157042840Y-77024838D01*
X157113684Y-77195871D01*
X157149800Y-77377438D01*
X157149800Y-77562562D01*
X157113684Y-77744129D01*
X157042840Y-77915162D01*
X156939990Y-78069087D01*
X156809087Y-78199990D01*
X156655162Y-78302840D01*
X156484129Y-78373684D01*
X156423607Y-78385723D01*
X156302564Y-78409800D01*
X156117436Y-78409800D01*
X155996393Y-78385723D01*
X155935871Y-78373684D01*
X155764838Y-78302840D01*
X155610913Y-78199990D01*
X155480010Y-78069087D01*
X155377160Y-77915162D01*
X155306316Y-77744129D01*
X155270200Y-77562562D01*
X155270200Y-77377438D01*
X155306316Y-77195871D01*
X155377160Y-77024838D01*
X155480010Y-76870913D01*
X155610913Y-76740010D01*
X155764838Y-76637160D01*
X155935871Y-76566316D01*
X155996393Y-76554277D01*
X156117436Y-76530200D01*
X156302564Y-76530200D01*
X156423607Y-76554277D01*
X156423607Y-76554277D01*
G37*
G36*
X153410800Y-78221800D02*
G01*
X151609200Y-78221800D01*
X151609200Y-77220200D01*
X153410800Y-77220200D01*
X153410800Y-78221800D01*
X153410800Y-78221800D01*
G37*
G36*
X135410800Y-78181800D02*
G01*
X133609200Y-78181800D01*
X133609200Y-77180200D01*
X135410800Y-77180200D01*
X135410800Y-78181800D01*
X135410800Y-78181800D01*
G37*
G36*
X153410800Y-76951800D02*
G01*
X151609200Y-76951800D01*
X151609200Y-75950200D01*
X153410800Y-75950200D01*
X153410800Y-76951800D01*
X153410800Y-76951800D01*
G37*
G36*
X135410800Y-76911800D02*
G01*
X133609200Y-76911800D01*
X133609200Y-75910200D01*
X135410800Y-75910200D01*
X135410800Y-76911800D01*
X135410800Y-76911800D01*
G37*
G36*
X133273800Y-75996800D02*
G01*
X132156200Y-75996800D01*
X132156200Y-74879200D01*
X133273800Y-74879200D01*
X133273800Y-75996800D01*
X133273800Y-75996800D01*
G37*
G36*
X156423607Y-74014277D02*
G01*
X156484129Y-74026316D01*
X156655162Y-74097160D01*
X156809087Y-74200010D01*
X156939990Y-74330913D01*
X157042840Y-74484838D01*
X157113684Y-74655871D01*
X157149800Y-74837438D01*
X157149800Y-75022562D01*
X157113684Y-75204129D01*
X157042840Y-75375162D01*
X156939990Y-75529087D01*
X156809087Y-75659990D01*
X156655162Y-75762840D01*
X156484129Y-75833684D01*
X156423607Y-75845723D01*
X156302564Y-75869800D01*
X156117436Y-75869800D01*
X155996393Y-75845723D01*
X155935871Y-75833684D01*
X155764838Y-75762840D01*
X155610913Y-75659990D01*
X155480010Y-75529087D01*
X155377160Y-75375162D01*
X155306316Y-75204129D01*
X155270200Y-75022562D01*
X155270200Y-74837438D01*
X155306316Y-74655871D01*
X155377160Y-74484838D01*
X155480010Y-74330913D01*
X155610913Y-74200010D01*
X155764838Y-74097160D01*
X155935871Y-74026316D01*
X155996393Y-74014277D01*
X156117436Y-73990200D01*
X156302564Y-73990200D01*
X156423607Y-74014277D01*
X156423607Y-74014277D01*
G37*
G36*
X131023607Y-74014277D02*
G01*
X131084129Y-74026316D01*
X131255162Y-74097160D01*
X131409087Y-74200010D01*
X131539990Y-74330913D01*
X131642840Y-74484838D01*
X131713684Y-74655871D01*
X131749800Y-74837438D01*
X131749800Y-75022562D01*
X131713684Y-75204129D01*
X131642840Y-75375162D01*
X131539990Y-75529087D01*
X131409087Y-75659990D01*
X131255162Y-75762840D01*
X131084129Y-75833684D01*
X131023607Y-75845723D01*
X130902564Y-75869800D01*
X130717436Y-75869800D01*
X130596393Y-75845723D01*
X130535871Y-75833684D01*
X130364838Y-75762840D01*
X130210913Y-75659990D01*
X130080010Y-75529087D01*
X129977160Y-75375162D01*
X129906316Y-75204129D01*
X129870200Y-75022562D01*
X129870200Y-74837438D01*
X129906316Y-74655871D01*
X129977160Y-74484838D01*
X130080010Y-74330913D01*
X130210913Y-74200010D01*
X130364838Y-74097160D01*
X130535871Y-74026316D01*
X130596393Y-74014277D01*
X130717436Y-73990200D01*
X130902564Y-73990200D01*
X131023607Y-74014277D01*
X131023607Y-74014277D01*
G37*
G36*
X153410800Y-75681800D02*
G01*
X151609200Y-75681800D01*
X151609200Y-74680200D01*
X153410800Y-74680200D01*
X153410800Y-75681800D01*
X153410800Y-75681800D01*
G37*
G36*
X135410800Y-75641800D02*
G01*
X133609200Y-75641800D01*
X133609200Y-74640200D01*
X135410800Y-74640200D01*
X135410800Y-75641800D01*
X135410800Y-75641800D01*
G37*
G36*
X153410800Y-74411800D02*
G01*
X151609200Y-74411800D01*
X151609200Y-73410200D01*
X153410800Y-73410200D01*
X153410800Y-74411800D01*
X153410800Y-74411800D01*
G37*
G36*
X135410800Y-74371800D02*
G01*
X133609200Y-74371800D01*
X133609200Y-73370200D01*
X135410800Y-73370200D01*
X135410800Y-74371800D01*
X135410800Y-74371800D01*
G37*
G36*
X133273800Y-74218800D02*
G01*
X132156200Y-74218800D01*
X132156200Y-73101200D01*
X133273800Y-73101200D01*
X133273800Y-74218800D01*
X133273800Y-74218800D01*
G37*
G36*
X131749800Y-73329800D02*
G01*
X129870200Y-73329800D01*
X129870200Y-71450200D01*
X131749800Y-71450200D01*
X131749800Y-73329800D01*
X131749800Y-73329800D01*
G37*
G36*
X157149800Y-73329800D02*
G01*
X155270200Y-73329800D01*
X155270200Y-71450200D01*
X157149800Y-71450200D01*
X157149800Y-73329800D01*
X157149800Y-73329800D01*
G37*
G36*
X153410800Y-73141800D02*
G01*
X151609200Y-73141800D01*
X151609200Y-72140200D01*
X153410800Y-72140200D01*
X153410800Y-73141800D01*
X153410800Y-73141800D01*
G37*
G36*
X135410800Y-73101800D02*
G01*
X133609200Y-73101800D01*
X133609200Y-72100200D01*
X135410800Y-72100200D01*
X135410800Y-73101800D01*
X135410800Y-73101800D01*
G37*
G36*
X164397624Y-67965294D02*
G01*
X164734302Y-68104751D01*
X164734303Y-68104752D01*
X165037306Y-68307211D01*
X165294989Y-68564894D01*
X165430268Y-68767354D01*
X165497449Y-68867898D01*
X165636906Y-69204576D01*
X165708000Y-69561990D01*
X165708000Y-69926410D01*
X165636906Y-70283824D01*
X165497449Y-70620502D01*
X165497448Y-70620503D01*
X165294989Y-70923506D01*
X165037306Y-71181189D01*
X164834846Y-71316468D01*
X164734302Y-71383649D01*
X164397624Y-71523106D01*
X164040210Y-71594200D01*
X163675790Y-71594200D01*
X163318376Y-71523106D01*
X162981698Y-71383649D01*
X162881154Y-71316468D01*
X162678694Y-71181189D01*
X162421011Y-70923506D01*
X162218552Y-70620503D01*
X162218551Y-70620502D01*
X162079094Y-70283824D01*
X162008000Y-69926410D01*
X162008000Y-69561990D01*
X162079094Y-69204576D01*
X162218551Y-68867898D01*
X162285732Y-68767354D01*
X162421011Y-68564894D01*
X162678694Y-68307211D01*
X162981697Y-68104752D01*
X162981698Y-68104751D01*
X163318376Y-67965294D01*
X163675790Y-67894200D01*
X164040210Y-67894200D01*
X164397624Y-67965294D01*
X164397624Y-67965294D01*
G37*
M02*
