G04 #@! TF.GenerationSoftware,KiCad,Pcbnew,5.1.6-c6e7f7d~87~ubuntu18.04.1*
G04 #@! TF.CreationDate,2020-07-31T19:21:44+02:00*
G04 #@! TF.ProjectId,hm-env-sensor,686d2d65-6e76-42d7-9365-6e736f722e6b,A1*
G04 #@! TF.SameCoordinates,Original*
G04 #@! TF.FileFunction,Soldermask,Bot*
G04 #@! TF.FilePolarity,Negative*
%FSLAX46Y46*%
G04 Gerber Fmt 4.6, Leading zero omitted, Abs format (unit mm)*
G04 Created by KiCad (PCBNEW 5.1.6-c6e7f7d~87~ubuntu18.04.1) date 2020-07-31 19:21:44*
%MOMM*%
%LPD*%
G01*
G04 APERTURE LIST*
G04 #@! TA.AperFunction,Profile*
%ADD10C,0.254000*%
G04 #@! TD*
%ADD11C,0.100000*%
G04 APERTURE END LIST*
D10*
X169398000Y-135704200D02*
X169398000Y-71704200D01*
X90398000Y-71704200D02*
X90398000Y-135704200D01*
X161898000Y-64204200D02*
X97898000Y-64204200D01*
X161898000Y-64204200D02*
G75*
G02*
X169398000Y-71704200I0J-7500000D01*
G01*
X169398000Y-135704200D02*
G75*
G02*
X161898000Y-143204200I-7500000J0D01*
G01*
X161898000Y-143204200D02*
X97898000Y-143204200D01*
X90398000Y-71704200D02*
G75*
G02*
X97898000Y-64204200I7500000J0D01*
G01*
X97898000Y-143204200D02*
G75*
G02*
X90398000Y-135704200I0J7500000D01*
G01*
D11*
G36*
X126096826Y-137267576D02*
G01*
X126247627Y-137313321D01*
X126247629Y-137313322D01*
X126386604Y-137387606D01*
X126386606Y-137387607D01*
X126386605Y-137387607D01*
X126508422Y-137487578D01*
X126590466Y-137587550D01*
X126608394Y-137609395D01*
X126667198Y-137719409D01*
X126682679Y-137748372D01*
X126728424Y-137899173D01*
X126740000Y-138016707D01*
X126740000Y-139195293D01*
X126728424Y-139312827D01*
X126688904Y-139443106D01*
X126682678Y-139463630D01*
X126608394Y-139602605D01*
X126508422Y-139724422D01*
X126386605Y-139824394D01*
X126247630Y-139898678D01*
X126247628Y-139898679D01*
X126096827Y-139944424D01*
X125940000Y-139959870D01*
X125783174Y-139944424D01*
X125632373Y-139898679D01*
X125632371Y-139898678D01*
X125493396Y-139824394D01*
X125371579Y-139724422D01*
X125271607Y-139602605D01*
X125197323Y-139463630D01*
X125191097Y-139443106D01*
X125151577Y-139312827D01*
X125140001Y-139195293D01*
X125140000Y-138016708D01*
X125151576Y-137899174D01*
X125197321Y-137748373D01*
X125271607Y-137609395D01*
X125371578Y-137487578D01*
X125493394Y-137387607D01*
X125493393Y-137387607D01*
X125493395Y-137387606D01*
X125632370Y-137313322D01*
X125632372Y-137313321D01*
X125783173Y-137267576D01*
X125940000Y-137252130D01*
X126096826Y-137267576D01*
G37*
G36*
X133296826Y-137267576D02*
G01*
X133447627Y-137313321D01*
X133447629Y-137313322D01*
X133586604Y-137387606D01*
X133586606Y-137387607D01*
X133586605Y-137387607D01*
X133708422Y-137487578D01*
X133790466Y-137587550D01*
X133808394Y-137609395D01*
X133867198Y-137719409D01*
X133882679Y-137748372D01*
X133928424Y-137899173D01*
X133940000Y-138016707D01*
X133940000Y-139195293D01*
X133928424Y-139312827D01*
X133888904Y-139443106D01*
X133882678Y-139463630D01*
X133808394Y-139602605D01*
X133708422Y-139724422D01*
X133586605Y-139824394D01*
X133447630Y-139898678D01*
X133447628Y-139898679D01*
X133296827Y-139944424D01*
X133140000Y-139959870D01*
X132983174Y-139944424D01*
X132832373Y-139898679D01*
X132832371Y-139898678D01*
X132693396Y-139824394D01*
X132571579Y-139724422D01*
X132471607Y-139602605D01*
X132397323Y-139463630D01*
X132391097Y-139443106D01*
X132351577Y-139312827D01*
X132340001Y-139195293D01*
X132340000Y-138016708D01*
X132351576Y-137899174D01*
X132397321Y-137748373D01*
X132471607Y-137609395D01*
X132571578Y-137487578D01*
X132693394Y-137387607D01*
X132693393Y-137387607D01*
X132693395Y-137387606D01*
X132832370Y-137313322D01*
X132832372Y-137313321D01*
X132983173Y-137267576D01*
X133140000Y-137252130D01*
X133296826Y-137267576D01*
G37*
G36*
X164397624Y-135885294D02*
G01*
X164734302Y-136024751D01*
X164734303Y-136024752D01*
X165037306Y-136227211D01*
X165294989Y-136484894D01*
X165412590Y-136660897D01*
X165497449Y-136787898D01*
X165636906Y-137124576D01*
X165708000Y-137481990D01*
X165708000Y-137846410D01*
X165636906Y-138203824D01*
X165497449Y-138540502D01*
X165497448Y-138540503D01*
X165294989Y-138843506D01*
X165037306Y-139101189D01*
X164896467Y-139195294D01*
X164734302Y-139303649D01*
X164397624Y-139443106D01*
X164040210Y-139514200D01*
X163675790Y-139514200D01*
X163318376Y-139443106D01*
X162981698Y-139303649D01*
X162819533Y-139195294D01*
X162678694Y-139101189D01*
X162421011Y-138843506D01*
X162218552Y-138540503D01*
X162218551Y-138540502D01*
X162079094Y-138203824D01*
X162008000Y-137846410D01*
X162008000Y-137481990D01*
X162079094Y-137124576D01*
X162218551Y-136787898D01*
X162303410Y-136660897D01*
X162421011Y-136484894D01*
X162678694Y-136227211D01*
X162981697Y-136024752D01*
X162981698Y-136024751D01*
X163318376Y-135885294D01*
X163675790Y-135814200D01*
X164040210Y-135814200D01*
X164397624Y-135885294D01*
G37*
G36*
X96427224Y-135758294D02*
G01*
X96763902Y-135897751D01*
X96864446Y-135964932D01*
X97066906Y-136100211D01*
X97324589Y-136357894D01*
X97348997Y-136394424D01*
X97527049Y-136660898D01*
X97666506Y-136997576D01*
X97737600Y-137354990D01*
X97737600Y-137719410D01*
X97666506Y-138076824D01*
X97527049Y-138413502D01*
X97527048Y-138413503D01*
X97324589Y-138716506D01*
X97066906Y-138974189D01*
X96876836Y-139101189D01*
X96763902Y-139176649D01*
X96427224Y-139316106D01*
X96069810Y-139387200D01*
X95705390Y-139387200D01*
X95347976Y-139316106D01*
X95011298Y-139176649D01*
X94898364Y-139101189D01*
X94708294Y-138974189D01*
X94450611Y-138716506D01*
X94248152Y-138413503D01*
X94248151Y-138413502D01*
X94108694Y-138076824D01*
X94037600Y-137719410D01*
X94037600Y-137354990D01*
X94108694Y-136997576D01*
X94248151Y-136660898D01*
X94426203Y-136394424D01*
X94450611Y-136357894D01*
X94708294Y-136100211D01*
X94910754Y-135964932D01*
X95011298Y-135897751D01*
X95347976Y-135758294D01*
X95705390Y-135687200D01*
X96069810Y-135687200D01*
X96427224Y-135758294D01*
G37*
G36*
X133296826Y-133717576D02*
G01*
X133447627Y-133763321D01*
X133447629Y-133763322D01*
X133586604Y-133837606D01*
X133586606Y-133837607D01*
X133586605Y-133837607D01*
X133708422Y-133937578D01*
X133790466Y-134037550D01*
X133808394Y-134059395D01*
X133882678Y-134198370D01*
X133882679Y-134198372D01*
X133928424Y-134349173D01*
X133940000Y-134466707D01*
X133940000Y-135645293D01*
X133928424Y-135762827D01*
X133887495Y-135897751D01*
X133882678Y-135913630D01*
X133808394Y-136052605D01*
X133708422Y-136174422D01*
X133586605Y-136274394D01*
X133447630Y-136348678D01*
X133447628Y-136348679D01*
X133296827Y-136394424D01*
X133140000Y-136409870D01*
X132983174Y-136394424D01*
X132832373Y-136348679D01*
X132832371Y-136348678D01*
X132693396Y-136274394D01*
X132571579Y-136174422D01*
X132471607Y-136052605D01*
X132397323Y-135913630D01*
X132392506Y-135897751D01*
X132351577Y-135762827D01*
X132340001Y-135645293D01*
X132340000Y-134466708D01*
X132351576Y-134349174D01*
X132397321Y-134198373D01*
X132471607Y-134059395D01*
X132571578Y-133937578D01*
X132693394Y-133837607D01*
X132693393Y-133837607D01*
X132693395Y-133837606D01*
X132832370Y-133763322D01*
X132832372Y-133763321D01*
X132983173Y-133717576D01*
X133140000Y-133702130D01*
X133296826Y-133717576D01*
G37*
G36*
X126096826Y-133717576D02*
G01*
X126247627Y-133763321D01*
X126247629Y-133763322D01*
X126386604Y-133837606D01*
X126386606Y-133837607D01*
X126386605Y-133837607D01*
X126508422Y-133937578D01*
X126590466Y-134037550D01*
X126608394Y-134059395D01*
X126682678Y-134198370D01*
X126682679Y-134198372D01*
X126728424Y-134349173D01*
X126740000Y-134466707D01*
X126740000Y-135645293D01*
X126728424Y-135762827D01*
X126687495Y-135897751D01*
X126682678Y-135913630D01*
X126608394Y-136052605D01*
X126508422Y-136174422D01*
X126386605Y-136274394D01*
X126247630Y-136348678D01*
X126247628Y-136348679D01*
X126096827Y-136394424D01*
X125940000Y-136409870D01*
X125783174Y-136394424D01*
X125632373Y-136348679D01*
X125632371Y-136348678D01*
X125493396Y-136274394D01*
X125371579Y-136174422D01*
X125271607Y-136052605D01*
X125197323Y-135913630D01*
X125192506Y-135897751D01*
X125151577Y-135762827D01*
X125140001Y-135645293D01*
X125140000Y-134466708D01*
X125151576Y-134349174D01*
X125197321Y-134198373D01*
X125271607Y-134059395D01*
X125371578Y-133937578D01*
X125493394Y-133837607D01*
X125493393Y-133837607D01*
X125493395Y-133837606D01*
X125632370Y-133763322D01*
X125632372Y-133763321D01*
X125783173Y-133717576D01*
X125940000Y-133702130D01*
X126096826Y-133717576D01*
G37*
G36*
X111661499Y-130659552D02*
G01*
X111798139Y-130716150D01*
X111921105Y-130798313D01*
X112025687Y-130902895D01*
X112107850Y-131025861D01*
X112164448Y-131162501D01*
X112193300Y-131307551D01*
X112193300Y-131455449D01*
X112164448Y-131600499D01*
X112107850Y-131737139D01*
X112025687Y-131860105D01*
X111921105Y-131964687D01*
X111798139Y-132046850D01*
X111661499Y-132103448D01*
X111516449Y-132132300D01*
X111368551Y-132132300D01*
X111223501Y-132103448D01*
X111086861Y-132046850D01*
X110963895Y-131964687D01*
X110859313Y-131860105D01*
X110777150Y-131737139D01*
X110720552Y-131600499D01*
X110691700Y-131455449D01*
X110691700Y-131307551D01*
X110720552Y-131162501D01*
X110777150Y-131025861D01*
X110859313Y-130902895D01*
X110963895Y-130798313D01*
X111086861Y-130716150D01*
X111223501Y-130659552D01*
X111368551Y-130630700D01*
X111516449Y-130630700D01*
X111661499Y-130659552D01*
G37*
G36*
X112190760Y-130120620D02*
G01*
X110689160Y-130120620D01*
X110689160Y-128619020D01*
X112190760Y-128619020D01*
X112190760Y-130120620D01*
G37*
G36*
X114386343Y-120162714D02*
G01*
X114386346Y-120162715D01*
X114386345Y-120162715D01*
X114477339Y-120200406D01*
X114518563Y-120227951D01*
X114559230Y-120255124D01*
X114628876Y-120324770D01*
X114683595Y-120406663D01*
X114721286Y-120497657D01*
X114733178Y-120557441D01*
X114740291Y-120580890D01*
X114751842Y-120602501D01*
X114767388Y-120621443D01*
X114786329Y-120636988D01*
X114807940Y-120648539D01*
X114831389Y-120655652D01*
X114855775Y-120658054D01*
X114880161Y-120655652D01*
X114941253Y-120643500D01*
X115039747Y-120643500D01*
X115100839Y-120655652D01*
X115125225Y-120658054D01*
X115149611Y-120655652D01*
X115173060Y-120648539D01*
X115194671Y-120636988D01*
X115213613Y-120621443D01*
X115229158Y-120602501D01*
X115240709Y-120580890D01*
X115247822Y-120557441D01*
X115259714Y-120497657D01*
X115297405Y-120406663D01*
X115352124Y-120324770D01*
X115421770Y-120255124D01*
X115462437Y-120227951D01*
X115503661Y-120200406D01*
X115594655Y-120162715D01*
X115594654Y-120162715D01*
X115594657Y-120162714D01*
X115691253Y-120143500D01*
X115789747Y-120143500D01*
X115886343Y-120162714D01*
X115886346Y-120162715D01*
X115886345Y-120162715D01*
X115977339Y-120200406D01*
X116018563Y-120227951D01*
X116059230Y-120255124D01*
X116128876Y-120324770D01*
X116183595Y-120406663D01*
X116221286Y-120497657D01*
X116240500Y-120594253D01*
X116240500Y-120692747D01*
X116221286Y-120789343D01*
X116183595Y-120880337D01*
X116128876Y-120962230D01*
X116059229Y-121031877D01*
X116047720Y-121039567D01*
X116028778Y-121055112D01*
X116013233Y-121074054D01*
X116001681Y-121095664D01*
X115994568Y-121119113D01*
X115992166Y-121143499D01*
X115994568Y-121167885D01*
X116001681Y-121191334D01*
X116013232Y-121212945D01*
X116028777Y-121231887D01*
X116047720Y-121247433D01*
X116059229Y-121255123D01*
X116128875Y-121324769D01*
X116160784Y-121372523D01*
X116183595Y-121406663D01*
X116221286Y-121497657D01*
X116240500Y-121594253D01*
X116240500Y-121692747D01*
X116221286Y-121789343D01*
X116211570Y-121812800D01*
X116183594Y-121880339D01*
X116128875Y-121962231D01*
X116059231Y-122031875D01*
X115977339Y-122086594D01*
X115977338Y-122086595D01*
X115977337Y-122086595D01*
X115886343Y-122124286D01*
X115789747Y-122143500D01*
X115691253Y-122143500D01*
X115594657Y-122124286D01*
X115503663Y-122086595D01*
X115503662Y-122086595D01*
X115503661Y-122086594D01*
X115421769Y-122031875D01*
X115352125Y-121962231D01*
X115297406Y-121880339D01*
X115269430Y-121812800D01*
X115259714Y-121789343D01*
X115247822Y-121729559D01*
X115240709Y-121706110D01*
X115229158Y-121684499D01*
X115213612Y-121665557D01*
X115194671Y-121650012D01*
X115173060Y-121638461D01*
X115149611Y-121631348D01*
X115125225Y-121628946D01*
X115100839Y-121631348D01*
X115039747Y-121643500D01*
X114941253Y-121643500D01*
X114880161Y-121631348D01*
X114855775Y-121628946D01*
X114831389Y-121631348D01*
X114807940Y-121638461D01*
X114786329Y-121650012D01*
X114767387Y-121665557D01*
X114751842Y-121684499D01*
X114740291Y-121706110D01*
X114733178Y-121729559D01*
X114721286Y-121789343D01*
X114711570Y-121812800D01*
X114683594Y-121880339D01*
X114628875Y-121962231D01*
X114559231Y-122031875D01*
X114477339Y-122086594D01*
X114477338Y-122086595D01*
X114477337Y-122086595D01*
X114386343Y-122124286D01*
X114289747Y-122143500D01*
X114191253Y-122143500D01*
X114094657Y-122124286D01*
X114003663Y-122086595D01*
X114003662Y-122086595D01*
X114003661Y-122086594D01*
X113921769Y-122031875D01*
X113852125Y-121962231D01*
X113797406Y-121880339D01*
X113769430Y-121812800D01*
X113759714Y-121789343D01*
X113740500Y-121692747D01*
X113740500Y-121594253D01*
X113759714Y-121497657D01*
X113797405Y-121406663D01*
X113820217Y-121372523D01*
X113852125Y-121324769D01*
X113921771Y-121255123D01*
X113933280Y-121247433D01*
X113952222Y-121231888D01*
X113967767Y-121212946D01*
X113979319Y-121191336D01*
X113986432Y-121167887D01*
X113988834Y-121143501D01*
X113986432Y-121119115D01*
X113979319Y-121095666D01*
X113967768Y-121074055D01*
X113952223Y-121055113D01*
X113933280Y-121039567D01*
X113921771Y-121031877D01*
X113852124Y-120962230D01*
X113797405Y-120880337D01*
X113759714Y-120789343D01*
X113740500Y-120692747D01*
X113740500Y-120594253D01*
X113759714Y-120497657D01*
X113797405Y-120406663D01*
X113852124Y-120324770D01*
X113921770Y-120255124D01*
X113962437Y-120227951D01*
X114003661Y-120200406D01*
X114094655Y-120162715D01*
X114094654Y-120162715D01*
X114094657Y-120162714D01*
X114191253Y-120143500D01*
X114289747Y-120143500D01*
X114386343Y-120162714D01*
G37*
G36*
X164846908Y-121026602D02*
G01*
X164915739Y-121055113D01*
X164919850Y-121056816D01*
X164945648Y-121074054D01*
X164985494Y-121100678D01*
X165041322Y-121156506D01*
X165085185Y-121222152D01*
X165115398Y-121295092D01*
X165130800Y-121372523D01*
X165130800Y-121451477D01*
X165115398Y-121528908D01*
X165085185Y-121601848D01*
X165041322Y-121667494D01*
X164985494Y-121723322D01*
X164952895Y-121745104D01*
X164919850Y-121767184D01*
X164919849Y-121767185D01*
X164919848Y-121767185D01*
X164846908Y-121797398D01*
X164769477Y-121812800D01*
X164690523Y-121812800D01*
X164613092Y-121797398D01*
X164540152Y-121767185D01*
X164540151Y-121767185D01*
X164540150Y-121767184D01*
X164507105Y-121745104D01*
X164474506Y-121723322D01*
X164418678Y-121667494D01*
X164374815Y-121601848D01*
X164344602Y-121528908D01*
X164329200Y-121451477D01*
X164329200Y-121372523D01*
X164344602Y-121295092D01*
X164374815Y-121222152D01*
X164418678Y-121156506D01*
X164474506Y-121100678D01*
X164514352Y-121074054D01*
X164540150Y-121056816D01*
X164544261Y-121055113D01*
X164613092Y-121026602D01*
X164690523Y-121011200D01*
X164769477Y-121011200D01*
X164846908Y-121026602D01*
G37*
G36*
X163046908Y-121026602D02*
G01*
X163115739Y-121055113D01*
X163119850Y-121056816D01*
X163145648Y-121074054D01*
X163185494Y-121100678D01*
X163241322Y-121156506D01*
X163285185Y-121222152D01*
X163315398Y-121295092D01*
X163330800Y-121372523D01*
X163330800Y-121451477D01*
X163315398Y-121528908D01*
X163285185Y-121601848D01*
X163241322Y-121667494D01*
X163185494Y-121723322D01*
X163152895Y-121745104D01*
X163119850Y-121767184D01*
X163119849Y-121767185D01*
X163119848Y-121767185D01*
X163046908Y-121797398D01*
X162969477Y-121812800D01*
X162890523Y-121812800D01*
X162813092Y-121797398D01*
X162740152Y-121767185D01*
X162740151Y-121767185D01*
X162740150Y-121767184D01*
X162707105Y-121745104D01*
X162674506Y-121723322D01*
X162618678Y-121667494D01*
X162574815Y-121601848D01*
X162544602Y-121528908D01*
X162529200Y-121451477D01*
X162529200Y-121372523D01*
X162544602Y-121295092D01*
X162574815Y-121222152D01*
X162618678Y-121156506D01*
X162674506Y-121100678D01*
X162714352Y-121074054D01*
X162740150Y-121056816D01*
X162744261Y-121055113D01*
X162813092Y-121026602D01*
X162890523Y-121011200D01*
X162969477Y-121011200D01*
X163046908Y-121026602D01*
G37*
G36*
X115658604Y-107786968D02*
G01*
X115746142Y-107823228D01*
X115833678Y-107859486D01*
X115833679Y-107859487D01*
X115991237Y-107964763D01*
X116125237Y-108098763D01*
X116213007Y-108230121D01*
X116230514Y-108256322D01*
X116303032Y-108431396D01*
X116340000Y-108617250D01*
X116340000Y-108806750D01*
X116303032Y-108992604D01*
X116230514Y-109167678D01*
X116230513Y-109167679D01*
X116125237Y-109325237D01*
X115991237Y-109459237D01*
X115859879Y-109547007D01*
X115833678Y-109564514D01*
X115658604Y-109637032D01*
X115472750Y-109674000D01*
X115283250Y-109674000D01*
X115097396Y-109637032D01*
X114922322Y-109564514D01*
X114896121Y-109547007D01*
X114764763Y-109459237D01*
X114630763Y-109325237D01*
X114525487Y-109167679D01*
X114525486Y-109167678D01*
X114489228Y-109080142D01*
X114452968Y-108992604D01*
X114416000Y-108806750D01*
X114416000Y-108617250D01*
X114452968Y-108431396D01*
X114525486Y-108256322D01*
X114542993Y-108230121D01*
X114630763Y-108098763D01*
X114764763Y-107964763D01*
X114922321Y-107859487D01*
X114922322Y-107859486D01*
X115009858Y-107823228D01*
X115097396Y-107786968D01*
X115283250Y-107750000D01*
X115472750Y-107750000D01*
X115658604Y-107786968D01*
G37*
G36*
X145043604Y-107786968D02*
G01*
X145131142Y-107823228D01*
X145218678Y-107859486D01*
X145218679Y-107859487D01*
X145376237Y-107964763D01*
X145510237Y-108098763D01*
X145598007Y-108230121D01*
X145615514Y-108256322D01*
X145688032Y-108431396D01*
X145725000Y-108617250D01*
X145725000Y-108806750D01*
X145688032Y-108992604D01*
X145615514Y-109167678D01*
X145615513Y-109167679D01*
X145510237Y-109325237D01*
X145376237Y-109459237D01*
X145244879Y-109547007D01*
X145218678Y-109564514D01*
X145043604Y-109637032D01*
X144857750Y-109674000D01*
X144668250Y-109674000D01*
X144482396Y-109637032D01*
X144307322Y-109564514D01*
X144281121Y-109547007D01*
X144149763Y-109459237D01*
X144015763Y-109325237D01*
X143910487Y-109167679D01*
X143910486Y-109167678D01*
X143874228Y-109080142D01*
X143837968Y-108992604D01*
X143801000Y-108806750D01*
X143801000Y-108617250D01*
X143837968Y-108431396D01*
X143910486Y-108256322D01*
X143927993Y-108230121D01*
X144015763Y-108098763D01*
X144149763Y-107964763D01*
X144307321Y-107859487D01*
X144307322Y-107859486D01*
X144394858Y-107823228D01*
X144482396Y-107786968D01*
X144668250Y-107750000D01*
X144857750Y-107750000D01*
X145043604Y-107786968D01*
G37*
G36*
X115658604Y-105246968D02*
G01*
X115833678Y-105319486D01*
X115833679Y-105319487D01*
X115991237Y-105424763D01*
X116125237Y-105558763D01*
X116213007Y-105690121D01*
X116230514Y-105716322D01*
X116303032Y-105891396D01*
X116340000Y-106077250D01*
X116340000Y-106266750D01*
X116303032Y-106452604D01*
X116230514Y-106627678D01*
X116230513Y-106627679D01*
X116125237Y-106785237D01*
X115991237Y-106919237D01*
X115859879Y-107007007D01*
X115833678Y-107024514D01*
X115746142Y-107060772D01*
X115658604Y-107097032D01*
X115472750Y-107134000D01*
X115283250Y-107134000D01*
X115097396Y-107097032D01*
X114922322Y-107024514D01*
X114896121Y-107007007D01*
X114764763Y-106919237D01*
X114630763Y-106785237D01*
X114525487Y-106627679D01*
X114525486Y-106627678D01*
X114489228Y-106540142D01*
X114452968Y-106452604D01*
X114416000Y-106266750D01*
X114416000Y-106077250D01*
X114452968Y-105891396D01*
X114525486Y-105716322D01*
X114542993Y-105690121D01*
X114630763Y-105558763D01*
X114764763Y-105424763D01*
X114922321Y-105319487D01*
X114922322Y-105319486D01*
X115097396Y-105246968D01*
X115283250Y-105210000D01*
X115472750Y-105210000D01*
X115658604Y-105246968D01*
G37*
G36*
X145043604Y-105246968D02*
G01*
X145218678Y-105319486D01*
X145218679Y-105319487D01*
X145376237Y-105424763D01*
X145510237Y-105558763D01*
X145598007Y-105690121D01*
X145615514Y-105716322D01*
X145688032Y-105891396D01*
X145725000Y-106077250D01*
X145725000Y-106266750D01*
X145688032Y-106452604D01*
X145615514Y-106627678D01*
X145615513Y-106627679D01*
X145510237Y-106785237D01*
X145376237Y-106919237D01*
X145244879Y-107007007D01*
X145218678Y-107024514D01*
X145131142Y-107060772D01*
X145043604Y-107097032D01*
X144857750Y-107134000D01*
X144668250Y-107134000D01*
X144482396Y-107097032D01*
X144307322Y-107024514D01*
X144281121Y-107007007D01*
X144149763Y-106919237D01*
X144015763Y-106785237D01*
X143910487Y-106627679D01*
X143910486Y-106627678D01*
X143874228Y-106540142D01*
X143837968Y-106452604D01*
X143801000Y-106266750D01*
X143801000Y-106077250D01*
X143837968Y-105891396D01*
X143910486Y-105716322D01*
X143927993Y-105690121D01*
X144015763Y-105558763D01*
X144149763Y-105424763D01*
X144307321Y-105319487D01*
X144307322Y-105319486D01*
X144482396Y-105246968D01*
X144668250Y-105210000D01*
X144857750Y-105210000D01*
X145043604Y-105246968D01*
G37*
G36*
X98901000Y-106299000D02*
G01*
X97123000Y-106299000D01*
X97123000Y-104521000D01*
X98901000Y-104521000D01*
X98901000Y-106299000D01*
G37*
G36*
X145043604Y-102706968D02*
G01*
X145131142Y-102743228D01*
X145218678Y-102779486D01*
X145218679Y-102779487D01*
X145376237Y-102884763D01*
X145510237Y-103018763D01*
X145584102Y-103129311D01*
X145615514Y-103176322D01*
X145688032Y-103351396D01*
X145725000Y-103537250D01*
X145725000Y-103726750D01*
X145688032Y-103912604D01*
X145651772Y-104000142D01*
X145615514Y-104087678D01*
X145615513Y-104087679D01*
X145510237Y-104245237D01*
X145376237Y-104379237D01*
X145244879Y-104467007D01*
X145218678Y-104484514D01*
X145131142Y-104520772D01*
X145043604Y-104557032D01*
X144857750Y-104594000D01*
X144668250Y-104594000D01*
X144482396Y-104557032D01*
X144394858Y-104520772D01*
X144307322Y-104484514D01*
X144281121Y-104467007D01*
X144149763Y-104379237D01*
X144015763Y-104245237D01*
X143910487Y-104087679D01*
X143910486Y-104087678D01*
X143874228Y-104000142D01*
X143837968Y-103912604D01*
X143801000Y-103726750D01*
X143801000Y-103537250D01*
X143837968Y-103351396D01*
X143874228Y-103263858D01*
X143910486Y-103176322D01*
X143941898Y-103129311D01*
X144015763Y-103018763D01*
X144149763Y-102884763D01*
X144307321Y-102779487D01*
X144307322Y-102779486D01*
X144394858Y-102743228D01*
X144482396Y-102706968D01*
X144668250Y-102670000D01*
X144857750Y-102670000D01*
X145043604Y-102706968D01*
G37*
G36*
X115658604Y-102706968D02*
G01*
X115746142Y-102743228D01*
X115833678Y-102779486D01*
X115833679Y-102779487D01*
X115991237Y-102884763D01*
X116125237Y-103018763D01*
X116199102Y-103129311D01*
X116230514Y-103176322D01*
X116303032Y-103351396D01*
X116340000Y-103537250D01*
X116340000Y-103726750D01*
X116303032Y-103912604D01*
X116266772Y-104000142D01*
X116230514Y-104087678D01*
X116230513Y-104087679D01*
X116125237Y-104245237D01*
X115991237Y-104379237D01*
X115859879Y-104467007D01*
X115833678Y-104484514D01*
X115746142Y-104520772D01*
X115658604Y-104557032D01*
X115472750Y-104594000D01*
X115283250Y-104594000D01*
X115097396Y-104557032D01*
X115009858Y-104520772D01*
X114922322Y-104484514D01*
X114896121Y-104467007D01*
X114764763Y-104379237D01*
X114630763Y-104245237D01*
X114525487Y-104087679D01*
X114525486Y-104087678D01*
X114489228Y-104000142D01*
X114452968Y-103912604D01*
X114416000Y-103726750D01*
X114416000Y-103537250D01*
X114452968Y-103351396D01*
X114489228Y-103263858D01*
X114525486Y-103176322D01*
X114556898Y-103129311D01*
X114630763Y-103018763D01*
X114764763Y-102884763D01*
X114922321Y-102779487D01*
X114922322Y-102779486D01*
X115009858Y-102743228D01*
X115097396Y-102706968D01*
X115283250Y-102670000D01*
X115472750Y-102670000D01*
X115658604Y-102706968D01*
G37*
G36*
X98185435Y-101998082D02*
G01*
X98271312Y-102015164D01*
X98433099Y-102082179D01*
X98578704Y-102179469D01*
X98702531Y-102303296D01*
X98799821Y-102448901D01*
X98799822Y-102448903D01*
X98866836Y-102610689D01*
X98900413Y-102779487D01*
X98901000Y-102782441D01*
X98901000Y-102957559D01*
X98866836Y-103129312D01*
X98799821Y-103291099D01*
X98702531Y-103436704D01*
X98578704Y-103560531D01*
X98433099Y-103657821D01*
X98271312Y-103724836D01*
X98185435Y-103741918D01*
X98099560Y-103759000D01*
X97924440Y-103759000D01*
X97752688Y-103724836D01*
X97590901Y-103657821D01*
X97445296Y-103560531D01*
X97321469Y-103436704D01*
X97224179Y-103291099D01*
X97157164Y-103129312D01*
X97123000Y-102957559D01*
X97123000Y-102782441D01*
X97123588Y-102779487D01*
X97157164Y-102610689D01*
X97224178Y-102448903D01*
X97224179Y-102448901D01*
X97321469Y-102303296D01*
X97445296Y-102179469D01*
X97590901Y-102082179D01*
X97752688Y-102015164D01*
X97838565Y-101998082D01*
X97924440Y-101981000D01*
X98099560Y-101981000D01*
X98185435Y-101998082D01*
G37*
G36*
X145043604Y-100166968D02*
G01*
X145131142Y-100203228D01*
X145218678Y-100239486D01*
X145218679Y-100239487D01*
X145376237Y-100344763D01*
X145510237Y-100478763D01*
X145598007Y-100610121D01*
X145615514Y-100636322D01*
X145651772Y-100723858D01*
X145688032Y-100811396D01*
X145725000Y-100997250D01*
X145725000Y-101186750D01*
X145688032Y-101372604D01*
X145651772Y-101460142D01*
X145615514Y-101547678D01*
X145615513Y-101547679D01*
X145510237Y-101705237D01*
X145376237Y-101839237D01*
X145244879Y-101927007D01*
X145218678Y-101944514D01*
X145131142Y-101980772D01*
X145043604Y-102017032D01*
X144857750Y-102054000D01*
X144668250Y-102054000D01*
X144482396Y-102017032D01*
X144394858Y-101980772D01*
X144307322Y-101944514D01*
X144281121Y-101927007D01*
X144149763Y-101839237D01*
X144015763Y-101705237D01*
X143910487Y-101547679D01*
X143910486Y-101547678D01*
X143874228Y-101460142D01*
X143837968Y-101372604D01*
X143801000Y-101186750D01*
X143801000Y-100997250D01*
X143837968Y-100811396D01*
X143874228Y-100723858D01*
X143910486Y-100636322D01*
X143927993Y-100610121D01*
X144015763Y-100478763D01*
X144149763Y-100344763D01*
X144307321Y-100239487D01*
X144307322Y-100239486D01*
X144394858Y-100203228D01*
X144482396Y-100166968D01*
X144668250Y-100130000D01*
X144857750Y-100130000D01*
X145043604Y-100166968D01*
G37*
G36*
X115658604Y-100166968D02*
G01*
X115746142Y-100203228D01*
X115833678Y-100239486D01*
X115833679Y-100239487D01*
X115991237Y-100344763D01*
X116125237Y-100478763D01*
X116213007Y-100610121D01*
X116230514Y-100636322D01*
X116266772Y-100723858D01*
X116303032Y-100811396D01*
X116340000Y-100997250D01*
X116340000Y-101186750D01*
X116303032Y-101372604D01*
X116266772Y-101460142D01*
X116230514Y-101547678D01*
X116230513Y-101547679D01*
X116125237Y-101705237D01*
X115991237Y-101839237D01*
X115859879Y-101927007D01*
X115833678Y-101944514D01*
X115746142Y-101980772D01*
X115658604Y-102017032D01*
X115472750Y-102054000D01*
X115283250Y-102054000D01*
X115097396Y-102017032D01*
X115009858Y-101980772D01*
X114922322Y-101944514D01*
X114896121Y-101927007D01*
X114764763Y-101839237D01*
X114630763Y-101705237D01*
X114525487Y-101547679D01*
X114525486Y-101547678D01*
X114489228Y-101460142D01*
X114452968Y-101372604D01*
X114416000Y-101186750D01*
X114416000Y-100997250D01*
X114452968Y-100811396D01*
X114489228Y-100723858D01*
X114525486Y-100636322D01*
X114542993Y-100610121D01*
X114630763Y-100478763D01*
X114764763Y-100344763D01*
X114922321Y-100239487D01*
X114922322Y-100239486D01*
X115009858Y-100203228D01*
X115097396Y-100166968D01*
X115283250Y-100130000D01*
X115472750Y-100130000D01*
X115658604Y-100166968D01*
G37*
G36*
X145043604Y-97626968D02*
G01*
X145218678Y-97699486D01*
X145218679Y-97699487D01*
X145376237Y-97804763D01*
X145510237Y-97938763D01*
X145598007Y-98070121D01*
X145615514Y-98096322D01*
X145688032Y-98271396D01*
X145725000Y-98457250D01*
X145725000Y-98646750D01*
X145688032Y-98832604D01*
X145651772Y-98920142D01*
X145615514Y-99007678D01*
X145615513Y-99007679D01*
X145510237Y-99165237D01*
X145376237Y-99299237D01*
X145244879Y-99387007D01*
X145218678Y-99404514D01*
X145043604Y-99477032D01*
X144857750Y-99514000D01*
X144668250Y-99514000D01*
X144482396Y-99477032D01*
X144394858Y-99440772D01*
X144307322Y-99404514D01*
X144281121Y-99387007D01*
X144149763Y-99299237D01*
X144015763Y-99165237D01*
X143910487Y-99007679D01*
X143910486Y-99007678D01*
X143837968Y-98832604D01*
X143801000Y-98646750D01*
X143801000Y-98457250D01*
X143837968Y-98271396D01*
X143874228Y-98183858D01*
X143910486Y-98096322D01*
X143927993Y-98070121D01*
X144015763Y-97938763D01*
X144149763Y-97804763D01*
X144307321Y-97699487D01*
X144307322Y-97699486D01*
X144482396Y-97626968D01*
X144668250Y-97590000D01*
X144857750Y-97590000D01*
X145043604Y-97626968D01*
G37*
G36*
X96046000Y-93506000D02*
G01*
X93946000Y-93506000D01*
X93946000Y-91406000D01*
X96046000Y-91406000D01*
X96046000Y-93506000D01*
G37*
G36*
X92584687Y-91411027D02*
G01*
X92762274Y-91446350D01*
X92953362Y-91525502D01*
X93125336Y-91640411D01*
X93271589Y-91786664D01*
X93386498Y-91958638D01*
X93465650Y-92149726D01*
X93506000Y-92352584D01*
X93506000Y-92559416D01*
X93465650Y-92762274D01*
X93386498Y-92953362D01*
X93271589Y-93125336D01*
X93125336Y-93271589D01*
X92953362Y-93386498D01*
X92762274Y-93465650D01*
X92584687Y-93500973D01*
X92559417Y-93506000D01*
X92352583Y-93506000D01*
X92327313Y-93500973D01*
X92149726Y-93465650D01*
X91958638Y-93386498D01*
X91786664Y-93271589D01*
X91640411Y-93125336D01*
X91525502Y-92953362D01*
X91446350Y-92762274D01*
X91406000Y-92559416D01*
X91406000Y-92352584D01*
X91446350Y-92149726D01*
X91525502Y-91958638D01*
X91640411Y-91786664D01*
X91786664Y-91640411D01*
X91958638Y-91525502D01*
X92149726Y-91446350D01*
X92327313Y-91411027D01*
X92352583Y-91406000D01*
X92559417Y-91406000D01*
X92584687Y-91411027D01*
G37*
G36*
X95124687Y-88871027D02*
G01*
X95302274Y-88906350D01*
X95493362Y-88985502D01*
X95665336Y-89100411D01*
X95811589Y-89246664D01*
X95926498Y-89418638D01*
X96005650Y-89609726D01*
X96046000Y-89812584D01*
X96046000Y-90019416D01*
X96005650Y-90222274D01*
X95926498Y-90413362D01*
X95811589Y-90585336D01*
X95665336Y-90731589D01*
X95493362Y-90846498D01*
X95302274Y-90925650D01*
X95124687Y-90960973D01*
X95099417Y-90966000D01*
X94892583Y-90966000D01*
X94867313Y-90960973D01*
X94689726Y-90925650D01*
X94498638Y-90846498D01*
X94326664Y-90731589D01*
X94180411Y-90585336D01*
X94065502Y-90413362D01*
X93986350Y-90222274D01*
X93946000Y-90019416D01*
X93946000Y-89812584D01*
X93986350Y-89609726D01*
X94065502Y-89418638D01*
X94180411Y-89246664D01*
X94326664Y-89100411D01*
X94498638Y-88985502D01*
X94689726Y-88906350D01*
X94867313Y-88871027D01*
X94892583Y-88866000D01*
X95099417Y-88866000D01*
X95124687Y-88871027D01*
G37*
G36*
X92584687Y-88871027D02*
G01*
X92762274Y-88906350D01*
X92953362Y-88985502D01*
X93125336Y-89100411D01*
X93271589Y-89246664D01*
X93386498Y-89418638D01*
X93465650Y-89609726D01*
X93506000Y-89812584D01*
X93506000Y-90019416D01*
X93465650Y-90222274D01*
X93386498Y-90413362D01*
X93271589Y-90585336D01*
X93125336Y-90731589D01*
X92953362Y-90846498D01*
X92762274Y-90925650D01*
X92584687Y-90960973D01*
X92559417Y-90966000D01*
X92352583Y-90966000D01*
X92327313Y-90960973D01*
X92149726Y-90925650D01*
X91958638Y-90846498D01*
X91786664Y-90731589D01*
X91640411Y-90585336D01*
X91525502Y-90413362D01*
X91446350Y-90222274D01*
X91406000Y-90019416D01*
X91406000Y-89812584D01*
X91446350Y-89609726D01*
X91525502Y-89418638D01*
X91640411Y-89246664D01*
X91786664Y-89100411D01*
X91958638Y-88985502D01*
X92149726Y-88906350D01*
X92327313Y-88871027D01*
X92352583Y-88866000D01*
X92559417Y-88866000D01*
X92584687Y-88871027D01*
G37*
G36*
X92584687Y-86331027D02*
G01*
X92762274Y-86366350D01*
X92953362Y-86445502D01*
X93125336Y-86560411D01*
X93271589Y-86706664D01*
X93386498Y-86878638D01*
X93465650Y-87069726D01*
X93506000Y-87272584D01*
X93506000Y-87479416D01*
X93465650Y-87682274D01*
X93386498Y-87873362D01*
X93271589Y-88045336D01*
X93125336Y-88191589D01*
X92953362Y-88306498D01*
X92762274Y-88385650D01*
X92584687Y-88420973D01*
X92559417Y-88426000D01*
X92352583Y-88426000D01*
X92327313Y-88420973D01*
X92149726Y-88385650D01*
X91958638Y-88306498D01*
X91786664Y-88191589D01*
X91640411Y-88045336D01*
X91525502Y-87873362D01*
X91446350Y-87682274D01*
X91406000Y-87479416D01*
X91406000Y-87272584D01*
X91446350Y-87069726D01*
X91525502Y-86878638D01*
X91640411Y-86706664D01*
X91786664Y-86560411D01*
X91958638Y-86445502D01*
X92149726Y-86366350D01*
X92327313Y-86331027D01*
X92352583Y-86326000D01*
X92559417Y-86326000D01*
X92584687Y-86331027D01*
G37*
G36*
X95124687Y-86331027D02*
G01*
X95302274Y-86366350D01*
X95493362Y-86445502D01*
X95665336Y-86560411D01*
X95811589Y-86706664D01*
X95926498Y-86878638D01*
X96005650Y-87069726D01*
X96046000Y-87272584D01*
X96046000Y-87479416D01*
X96005650Y-87682274D01*
X95926498Y-87873362D01*
X95811589Y-88045336D01*
X95665336Y-88191589D01*
X95493362Y-88306498D01*
X95302274Y-88385650D01*
X95124687Y-88420973D01*
X95099417Y-88426000D01*
X94892583Y-88426000D01*
X94867313Y-88420973D01*
X94689726Y-88385650D01*
X94498638Y-88306498D01*
X94326664Y-88191589D01*
X94180411Y-88045336D01*
X94065502Y-87873362D01*
X93986350Y-87682274D01*
X93946000Y-87479416D01*
X93946000Y-87272584D01*
X93986350Y-87069726D01*
X94065502Y-86878638D01*
X94180411Y-86706664D01*
X94326664Y-86560411D01*
X94498638Y-86445502D01*
X94689726Y-86366350D01*
X94867313Y-86331027D01*
X94892583Y-86326000D01*
X95099417Y-86326000D01*
X95124687Y-86331027D01*
G37*
G36*
X164874908Y-85847602D02*
G01*
X164947848Y-85877815D01*
X164947850Y-85877816D01*
X164960098Y-85886000D01*
X165013494Y-85921678D01*
X165069322Y-85977506D01*
X165113185Y-86043152D01*
X165143398Y-86116092D01*
X165158800Y-86193523D01*
X165158800Y-86272477D01*
X165143398Y-86349908D01*
X165136587Y-86366350D01*
X165113184Y-86422850D01*
X165069321Y-86488495D01*
X165013495Y-86544321D01*
X164947850Y-86588184D01*
X164947849Y-86588185D01*
X164947848Y-86588185D01*
X164874908Y-86618398D01*
X164797477Y-86633800D01*
X164718523Y-86633800D01*
X164641092Y-86618398D01*
X164568152Y-86588185D01*
X164568151Y-86588185D01*
X164568150Y-86588184D01*
X164502505Y-86544321D01*
X164446679Y-86488495D01*
X164402816Y-86422850D01*
X164379413Y-86366350D01*
X164372602Y-86349908D01*
X164357200Y-86272477D01*
X164357200Y-86193523D01*
X164372602Y-86116092D01*
X164402815Y-86043152D01*
X164446678Y-85977506D01*
X164502506Y-85921678D01*
X164555902Y-85886000D01*
X164568150Y-85877816D01*
X164568152Y-85877815D01*
X164641092Y-85847602D01*
X164718523Y-85832200D01*
X164797477Y-85832200D01*
X164874908Y-85847602D01*
G37*
G36*
X163074908Y-85847602D02*
G01*
X163147848Y-85877815D01*
X163147850Y-85877816D01*
X163160098Y-85886000D01*
X163213494Y-85921678D01*
X163269322Y-85977506D01*
X163313185Y-86043152D01*
X163343398Y-86116092D01*
X163358800Y-86193523D01*
X163358800Y-86272477D01*
X163343398Y-86349908D01*
X163336587Y-86366350D01*
X163313184Y-86422850D01*
X163269321Y-86488495D01*
X163213495Y-86544321D01*
X163147850Y-86588184D01*
X163147849Y-86588185D01*
X163147848Y-86588185D01*
X163074908Y-86618398D01*
X162997477Y-86633800D01*
X162918523Y-86633800D01*
X162841092Y-86618398D01*
X162768152Y-86588185D01*
X162768151Y-86588185D01*
X162768150Y-86588184D01*
X162702505Y-86544321D01*
X162646679Y-86488495D01*
X162602816Y-86422850D01*
X162579413Y-86366350D01*
X162572602Y-86349908D01*
X162557200Y-86272477D01*
X162557200Y-86193523D01*
X162572602Y-86116092D01*
X162602815Y-86043152D01*
X162646678Y-85977506D01*
X162702506Y-85921678D01*
X162755902Y-85886000D01*
X162768150Y-85877816D01*
X162768152Y-85877815D01*
X162841092Y-85847602D01*
X162918523Y-85832200D01*
X162997477Y-85832200D01*
X163074908Y-85847602D01*
G37*
G36*
X95124687Y-83791027D02*
G01*
X95302274Y-83826350D01*
X95493362Y-83905502D01*
X95665336Y-84020411D01*
X95811589Y-84166664D01*
X95926498Y-84338638D01*
X96005650Y-84529726D01*
X96046000Y-84732584D01*
X96046000Y-84939416D01*
X96005650Y-85142274D01*
X95926498Y-85333362D01*
X95811589Y-85505336D01*
X95665336Y-85651589D01*
X95493362Y-85766498D01*
X95302274Y-85845650D01*
X95124687Y-85880973D01*
X95099417Y-85886000D01*
X94892583Y-85886000D01*
X94867313Y-85880973D01*
X94689726Y-85845650D01*
X94498638Y-85766498D01*
X94326664Y-85651589D01*
X94180411Y-85505336D01*
X94065502Y-85333362D01*
X93986350Y-85142274D01*
X93946000Y-84939416D01*
X93946000Y-84732584D01*
X93986350Y-84529726D01*
X94065502Y-84338638D01*
X94180411Y-84166664D01*
X94326664Y-84020411D01*
X94498638Y-83905502D01*
X94689726Y-83826350D01*
X94867313Y-83791027D01*
X94892583Y-83786000D01*
X95099417Y-83786000D01*
X95124687Y-83791027D01*
G37*
G36*
X92584687Y-83791027D02*
G01*
X92762274Y-83826350D01*
X92953362Y-83905502D01*
X93125336Y-84020411D01*
X93271589Y-84166664D01*
X93386498Y-84338638D01*
X93465650Y-84529726D01*
X93506000Y-84732584D01*
X93506000Y-84939416D01*
X93465650Y-85142274D01*
X93386498Y-85333362D01*
X93271589Y-85505336D01*
X93125336Y-85651589D01*
X92953362Y-85766498D01*
X92762274Y-85845650D01*
X92584687Y-85880973D01*
X92559417Y-85886000D01*
X92352583Y-85886000D01*
X92327313Y-85880973D01*
X92149726Y-85845650D01*
X91958638Y-85766498D01*
X91786664Y-85651589D01*
X91640411Y-85505336D01*
X91525502Y-85333362D01*
X91446350Y-85142274D01*
X91406000Y-84939416D01*
X91406000Y-84732584D01*
X91446350Y-84529726D01*
X91525502Y-84338638D01*
X91640411Y-84166664D01*
X91786664Y-84020411D01*
X91958638Y-83905502D01*
X92149726Y-83826350D01*
X92327313Y-83791027D01*
X92352583Y-83786000D01*
X92559417Y-83786000D01*
X92584687Y-83791027D01*
G37*
G36*
X92584687Y-81251027D02*
G01*
X92762274Y-81286350D01*
X92953362Y-81365502D01*
X93125336Y-81480411D01*
X93271589Y-81626664D01*
X93386498Y-81798638D01*
X93465650Y-81989726D01*
X93506000Y-82192584D01*
X93506000Y-82399416D01*
X93465650Y-82602274D01*
X93386498Y-82793362D01*
X93271589Y-82965336D01*
X93125336Y-83111589D01*
X92953362Y-83226498D01*
X92762274Y-83305650D01*
X92584687Y-83340973D01*
X92559417Y-83346000D01*
X92352583Y-83346000D01*
X92327313Y-83340973D01*
X92149726Y-83305650D01*
X91958638Y-83226498D01*
X91786664Y-83111589D01*
X91640411Y-82965336D01*
X91525502Y-82793362D01*
X91446350Y-82602274D01*
X91406000Y-82399416D01*
X91406000Y-82192584D01*
X91446350Y-81989726D01*
X91525502Y-81798638D01*
X91640411Y-81626664D01*
X91786664Y-81480411D01*
X91958638Y-81365502D01*
X92149726Y-81286350D01*
X92327313Y-81251027D01*
X92352583Y-81246000D01*
X92559417Y-81246000D01*
X92584687Y-81251027D01*
G37*
G36*
X95124687Y-81251027D02*
G01*
X95302274Y-81286350D01*
X95493362Y-81365502D01*
X95665336Y-81480411D01*
X95811589Y-81626664D01*
X95926498Y-81798638D01*
X96005650Y-81989726D01*
X96046000Y-82192584D01*
X96046000Y-82399416D01*
X96005650Y-82602274D01*
X95926498Y-82793362D01*
X95811589Y-82965336D01*
X95665336Y-83111589D01*
X95493362Y-83226498D01*
X95302274Y-83305650D01*
X95124687Y-83340973D01*
X95099417Y-83346000D01*
X94892583Y-83346000D01*
X94867313Y-83340973D01*
X94689726Y-83305650D01*
X94498638Y-83226498D01*
X94326664Y-83111589D01*
X94180411Y-82965336D01*
X94065502Y-82793362D01*
X93986350Y-82602274D01*
X93946000Y-82399416D01*
X93946000Y-82192584D01*
X93986350Y-81989726D01*
X94065502Y-81798638D01*
X94180411Y-81626664D01*
X94326664Y-81480411D01*
X94498638Y-81365502D01*
X94689726Y-81286350D01*
X94867313Y-81251027D01*
X94892583Y-81246000D01*
X95099417Y-81246000D01*
X95124687Y-81251027D01*
G37*
G36*
X128001535Y-81198464D02*
G01*
X128156224Y-81262539D01*
X128156226Y-81262540D01*
X128295444Y-81355562D01*
X128413838Y-81473956D01*
X128506860Y-81613174D01*
X128506861Y-81613176D01*
X128570936Y-81767865D01*
X128603600Y-81932081D01*
X128603600Y-82099519D01*
X128570936Y-82263735D01*
X128514734Y-82399416D01*
X128506860Y-82418426D01*
X128413838Y-82557644D01*
X128295444Y-82676038D01*
X128156226Y-82769060D01*
X128156225Y-82769061D01*
X128156224Y-82769061D01*
X128001535Y-82833136D01*
X127837319Y-82865800D01*
X127669881Y-82865800D01*
X127505665Y-82833136D01*
X127350976Y-82769061D01*
X127350975Y-82769061D01*
X127350974Y-82769060D01*
X127211756Y-82676038D01*
X127093362Y-82557644D01*
X127000340Y-82418426D01*
X126992466Y-82399416D01*
X126936264Y-82263735D01*
X126903600Y-82099519D01*
X126903600Y-81932081D01*
X126936264Y-81767865D01*
X127000339Y-81613176D01*
X127000340Y-81613174D01*
X127093362Y-81473956D01*
X127211756Y-81355562D01*
X127350974Y-81262540D01*
X127350976Y-81262539D01*
X127505665Y-81198464D01*
X127669881Y-81165800D01*
X127837319Y-81165800D01*
X128001535Y-81198464D01*
G37*
G36*
X130312935Y-81198464D02*
G01*
X130467624Y-81262539D01*
X130467626Y-81262540D01*
X130606844Y-81355562D01*
X130725238Y-81473956D01*
X130818260Y-81613174D01*
X130818261Y-81613176D01*
X130882336Y-81767865D01*
X130915000Y-81932081D01*
X130915000Y-82099519D01*
X130882336Y-82263735D01*
X130826134Y-82399416D01*
X130818260Y-82418426D01*
X130725238Y-82557644D01*
X130606844Y-82676038D01*
X130467626Y-82769060D01*
X130467625Y-82769061D01*
X130467624Y-82769061D01*
X130312935Y-82833136D01*
X130148719Y-82865800D01*
X129981281Y-82865800D01*
X129817065Y-82833136D01*
X129662376Y-82769061D01*
X129662375Y-82769061D01*
X129662374Y-82769060D01*
X129523156Y-82676038D01*
X129404762Y-82557644D01*
X129311740Y-82418426D01*
X129303866Y-82399416D01*
X129247664Y-82263735D01*
X129215000Y-82099519D01*
X129215000Y-81932081D01*
X129247664Y-81767865D01*
X129311739Y-81613176D01*
X129311740Y-81613174D01*
X129404762Y-81473956D01*
X129523156Y-81355562D01*
X129662374Y-81262540D01*
X129662376Y-81262539D01*
X129817065Y-81198464D01*
X129981281Y-81165800D01*
X130148719Y-81165800D01*
X130312935Y-81198464D01*
G37*
G36*
X132675135Y-81198464D02*
G01*
X132829824Y-81262539D01*
X132829826Y-81262540D01*
X132969044Y-81355562D01*
X133087438Y-81473956D01*
X133180460Y-81613174D01*
X133180461Y-81613176D01*
X133244536Y-81767865D01*
X133277200Y-81932081D01*
X133277200Y-82099519D01*
X133244536Y-82263735D01*
X133188334Y-82399416D01*
X133180460Y-82418426D01*
X133087438Y-82557644D01*
X132969044Y-82676038D01*
X132829826Y-82769060D01*
X132829825Y-82769061D01*
X132829824Y-82769061D01*
X132675135Y-82833136D01*
X132510919Y-82865800D01*
X132343481Y-82865800D01*
X132179265Y-82833136D01*
X132024576Y-82769061D01*
X132024575Y-82769061D01*
X132024574Y-82769060D01*
X131885356Y-82676038D01*
X131766962Y-82557644D01*
X131673940Y-82418426D01*
X131666066Y-82399416D01*
X131609864Y-82263735D01*
X131577200Y-82099519D01*
X131577200Y-81932081D01*
X131609864Y-81767865D01*
X131673939Y-81613176D01*
X131673940Y-81613174D01*
X131766962Y-81473956D01*
X131885356Y-81355562D01*
X132024574Y-81262540D01*
X132024576Y-81262539D01*
X132179265Y-81198464D01*
X132343481Y-81165800D01*
X132510919Y-81165800D01*
X132675135Y-81198464D01*
G37*
G36*
X130415026Y-78525115D02*
G01*
X130633411Y-78615573D01*
X130633413Y-78615574D01*
X130829133Y-78746350D01*
X130829955Y-78746899D01*
X130997101Y-78914045D01*
X131128427Y-79110589D01*
X131218885Y-79328974D01*
X131265000Y-79560809D01*
X131265000Y-79797191D01*
X131218885Y-80029026D01*
X131142996Y-80212238D01*
X131128426Y-80247413D01*
X130997101Y-80443955D01*
X130829955Y-80611101D01*
X130633413Y-80742426D01*
X130633412Y-80742427D01*
X130633411Y-80742427D01*
X130415026Y-80832885D01*
X130183191Y-80879000D01*
X129946809Y-80879000D01*
X129714974Y-80832885D01*
X129496589Y-80742427D01*
X129496588Y-80742427D01*
X129496587Y-80742426D01*
X129300045Y-80611101D01*
X129132899Y-80443955D01*
X129001574Y-80247413D01*
X128987004Y-80212238D01*
X128911115Y-80029026D01*
X128865000Y-79797191D01*
X128865000Y-79560809D01*
X128911115Y-79328974D01*
X129001573Y-79110589D01*
X129132899Y-78914045D01*
X129300045Y-78746899D01*
X129300867Y-78746350D01*
X129496587Y-78615574D01*
X129496589Y-78615573D01*
X129714974Y-78525115D01*
X129946809Y-78479000D01*
X130183191Y-78479000D01*
X130415026Y-78525115D01*
G37*
G36*
X92584687Y-78711027D02*
G01*
X92762274Y-78746350D01*
X92953362Y-78825502D01*
X93125336Y-78940411D01*
X93271589Y-79086664D01*
X93386498Y-79258638D01*
X93465650Y-79449726D01*
X93506000Y-79652584D01*
X93506000Y-79859416D01*
X93465650Y-80062274D01*
X93386498Y-80253362D01*
X93271589Y-80425336D01*
X93125336Y-80571589D01*
X92953362Y-80686498D01*
X92762274Y-80765650D01*
X92584687Y-80800973D01*
X92559417Y-80806000D01*
X92352583Y-80806000D01*
X92327313Y-80800973D01*
X92149726Y-80765650D01*
X91958638Y-80686498D01*
X91786664Y-80571589D01*
X91640411Y-80425336D01*
X91525502Y-80253362D01*
X91446350Y-80062274D01*
X91406000Y-79859416D01*
X91406000Y-79652584D01*
X91446350Y-79449726D01*
X91525502Y-79258638D01*
X91640411Y-79086664D01*
X91786664Y-78940411D01*
X91958638Y-78825502D01*
X92149726Y-78746350D01*
X92327313Y-78711027D01*
X92352583Y-78706000D01*
X92559417Y-78706000D01*
X92584687Y-78711027D01*
G37*
G36*
X95124687Y-78711027D02*
G01*
X95302274Y-78746350D01*
X95493362Y-78825502D01*
X95665336Y-78940411D01*
X95811589Y-79086664D01*
X95926498Y-79258638D01*
X96005650Y-79449726D01*
X96046000Y-79652584D01*
X96046000Y-79859416D01*
X96005650Y-80062274D01*
X95926498Y-80253362D01*
X95811589Y-80425336D01*
X95665336Y-80571589D01*
X95493362Y-80686498D01*
X95302274Y-80765650D01*
X95124687Y-80800973D01*
X95099417Y-80806000D01*
X94892583Y-80806000D01*
X94867313Y-80800973D01*
X94689726Y-80765650D01*
X94498638Y-80686498D01*
X94326664Y-80571589D01*
X94180411Y-80425336D01*
X94065502Y-80253362D01*
X93986350Y-80062274D01*
X93946000Y-79859416D01*
X93946000Y-79652584D01*
X93986350Y-79449726D01*
X94065502Y-79258638D01*
X94180411Y-79086664D01*
X94326664Y-78940411D01*
X94498638Y-78825502D01*
X94689726Y-78746350D01*
X94867313Y-78711027D01*
X94892583Y-78706000D01*
X95099417Y-78706000D01*
X95124687Y-78711027D01*
G37*
G36*
X132675135Y-78734664D02*
G01*
X132829824Y-78798739D01*
X132829826Y-78798740D01*
X132969044Y-78891762D01*
X133087438Y-79010156D01*
X133180460Y-79149374D01*
X133180461Y-79149376D01*
X133244536Y-79304065D01*
X133277200Y-79468281D01*
X133277200Y-79635719D01*
X133244536Y-79799935D01*
X133219897Y-79859417D01*
X133180460Y-79954626D01*
X133087438Y-80093844D01*
X132969044Y-80212238D01*
X132829826Y-80305260D01*
X132829825Y-80305261D01*
X132829824Y-80305261D01*
X132675135Y-80369336D01*
X132510919Y-80402000D01*
X132343481Y-80402000D01*
X132179265Y-80369336D01*
X132024576Y-80305261D01*
X132024575Y-80305261D01*
X132024574Y-80305260D01*
X131885356Y-80212238D01*
X131766962Y-80093844D01*
X131673940Y-79954626D01*
X131634503Y-79859417D01*
X131609864Y-79799935D01*
X131577200Y-79635719D01*
X131577200Y-79468281D01*
X131609864Y-79304065D01*
X131673939Y-79149376D01*
X131673940Y-79149374D01*
X131766962Y-79010156D01*
X131885356Y-78891762D01*
X132024574Y-78798740D01*
X132024576Y-78798739D01*
X132179265Y-78734664D01*
X132343481Y-78702000D01*
X132510919Y-78702000D01*
X132675135Y-78734664D01*
G37*
G36*
X128001535Y-78734664D02*
G01*
X128156224Y-78798739D01*
X128156226Y-78798740D01*
X128295444Y-78891762D01*
X128413838Y-79010156D01*
X128506860Y-79149374D01*
X128506861Y-79149376D01*
X128570936Y-79304065D01*
X128603600Y-79468281D01*
X128603600Y-79635719D01*
X128570936Y-79799935D01*
X128546297Y-79859417D01*
X128506860Y-79954626D01*
X128413838Y-80093844D01*
X128295444Y-80212238D01*
X128156226Y-80305260D01*
X128156225Y-80305261D01*
X128156224Y-80305261D01*
X128001535Y-80369336D01*
X127837319Y-80402000D01*
X127669881Y-80402000D01*
X127505665Y-80369336D01*
X127350976Y-80305261D01*
X127350975Y-80305261D01*
X127350974Y-80305260D01*
X127211756Y-80212238D01*
X127093362Y-80093844D01*
X127000340Y-79954626D01*
X126960903Y-79859417D01*
X126936264Y-79799935D01*
X126903600Y-79635719D01*
X126903600Y-79468281D01*
X126936264Y-79304065D01*
X127000339Y-79149376D01*
X127000340Y-79149374D01*
X127093362Y-79010156D01*
X127211756Y-78891762D01*
X127350974Y-78798740D01*
X127350976Y-78798739D01*
X127505665Y-78734664D01*
X127669881Y-78702000D01*
X127837319Y-78702000D01*
X128001535Y-78734664D01*
G37*
G36*
X132675135Y-76499464D02*
G01*
X132829824Y-76563539D01*
X132829826Y-76563540D01*
X132969044Y-76656562D01*
X133087438Y-76774956D01*
X133180460Y-76914174D01*
X133180461Y-76914176D01*
X133244536Y-77068865D01*
X133277200Y-77233081D01*
X133277200Y-77400519D01*
X133244536Y-77564735D01*
X133180461Y-77719424D01*
X133180460Y-77719426D01*
X133087438Y-77858644D01*
X132969044Y-77977038D01*
X132829826Y-78070060D01*
X132829825Y-78070061D01*
X132829824Y-78070061D01*
X132675135Y-78134136D01*
X132510919Y-78166800D01*
X132343481Y-78166800D01*
X132179265Y-78134136D01*
X132024576Y-78070061D01*
X132024575Y-78070061D01*
X132024574Y-78070060D01*
X131885356Y-77977038D01*
X131766962Y-77858644D01*
X131673940Y-77719426D01*
X131673939Y-77719424D01*
X131609864Y-77564735D01*
X131577200Y-77400519D01*
X131577200Y-77233081D01*
X131609864Y-77068865D01*
X131673939Y-76914176D01*
X131673940Y-76914174D01*
X131766962Y-76774956D01*
X131885356Y-76656562D01*
X132024574Y-76563540D01*
X132024576Y-76563539D01*
X132179265Y-76499464D01*
X132343481Y-76466800D01*
X132510919Y-76466800D01*
X132675135Y-76499464D01*
G37*
G36*
X130312935Y-76499464D02*
G01*
X130467624Y-76563539D01*
X130467626Y-76563540D01*
X130606844Y-76656562D01*
X130725238Y-76774956D01*
X130818260Y-76914174D01*
X130818261Y-76914176D01*
X130882336Y-77068865D01*
X130915000Y-77233081D01*
X130915000Y-77400519D01*
X130882336Y-77564735D01*
X130818261Y-77719424D01*
X130818260Y-77719426D01*
X130725238Y-77858644D01*
X130606844Y-77977038D01*
X130467626Y-78070060D01*
X130467625Y-78070061D01*
X130467624Y-78070061D01*
X130312935Y-78134136D01*
X130148719Y-78166800D01*
X129981281Y-78166800D01*
X129817065Y-78134136D01*
X129662376Y-78070061D01*
X129662375Y-78070061D01*
X129662374Y-78070060D01*
X129523156Y-77977038D01*
X129404762Y-77858644D01*
X129311740Y-77719426D01*
X129311739Y-77719424D01*
X129247664Y-77564735D01*
X129215000Y-77400519D01*
X129215000Y-77233081D01*
X129247664Y-77068865D01*
X129311739Y-76914176D01*
X129311740Y-76914174D01*
X129404762Y-76774956D01*
X129523156Y-76656562D01*
X129662374Y-76563540D01*
X129662376Y-76563539D01*
X129817065Y-76499464D01*
X129981281Y-76466800D01*
X130148719Y-76466800D01*
X130312935Y-76499464D01*
G37*
G36*
X128001535Y-76499464D02*
G01*
X128156224Y-76563539D01*
X128156226Y-76563540D01*
X128295444Y-76656562D01*
X128413838Y-76774956D01*
X128506860Y-76914174D01*
X128506861Y-76914176D01*
X128570936Y-77068865D01*
X128603600Y-77233081D01*
X128603600Y-77400519D01*
X128570936Y-77564735D01*
X128506861Y-77719424D01*
X128506860Y-77719426D01*
X128413838Y-77858644D01*
X128295444Y-77977038D01*
X128156226Y-78070060D01*
X128156225Y-78070061D01*
X128156224Y-78070061D01*
X128001535Y-78134136D01*
X127837319Y-78166800D01*
X127669881Y-78166800D01*
X127505665Y-78134136D01*
X127350976Y-78070061D01*
X127350975Y-78070061D01*
X127350974Y-78070060D01*
X127211756Y-77977038D01*
X127093362Y-77858644D01*
X127000340Y-77719426D01*
X127000339Y-77719424D01*
X126936264Y-77564735D01*
X126903600Y-77400519D01*
X126903600Y-77233081D01*
X126936264Y-77068865D01*
X127000339Y-76914176D01*
X127000340Y-76914174D01*
X127093362Y-76774956D01*
X127211756Y-76656562D01*
X127350974Y-76563540D01*
X127350976Y-76563539D01*
X127505665Y-76499464D01*
X127669881Y-76466800D01*
X127837319Y-76466800D01*
X128001535Y-76499464D01*
G37*
G36*
X164397624Y-67965294D02*
G01*
X164734302Y-68104751D01*
X164734303Y-68104752D01*
X165037306Y-68307211D01*
X165294989Y-68564894D01*
X165398424Y-68719697D01*
X165497449Y-68867898D01*
X165636906Y-69204576D01*
X165708000Y-69561990D01*
X165708000Y-69926410D01*
X165636906Y-70283824D01*
X165497449Y-70620502D01*
X165497448Y-70620503D01*
X165294989Y-70923506D01*
X165037306Y-71181189D01*
X164834846Y-71316468D01*
X164734302Y-71383649D01*
X164397624Y-71523106D01*
X164040210Y-71594200D01*
X163675790Y-71594200D01*
X163318376Y-71523106D01*
X162981698Y-71383649D01*
X162881154Y-71316468D01*
X162678694Y-71181189D01*
X162421011Y-70923506D01*
X162218552Y-70620503D01*
X162218551Y-70620502D01*
X162079094Y-70283824D01*
X162008000Y-69926410D01*
X162008000Y-69561990D01*
X162079094Y-69204576D01*
X162218551Y-68867898D01*
X162317576Y-68719697D01*
X162421011Y-68564894D01*
X162678694Y-68307211D01*
X162981697Y-68104752D01*
X162981698Y-68104751D01*
X163318376Y-67965294D01*
X163675790Y-67894200D01*
X164040210Y-67894200D01*
X164397624Y-67965294D01*
G37*
G36*
X96551624Y-67817094D02*
G01*
X96888302Y-67956551D01*
X96901388Y-67965295D01*
X97191306Y-68159011D01*
X97448989Y-68416694D01*
X97548013Y-68564895D01*
X97651449Y-68719698D01*
X97790906Y-69056376D01*
X97862000Y-69413790D01*
X97862000Y-69778210D01*
X97790906Y-70135624D01*
X97651449Y-70472302D01*
X97651448Y-70472303D01*
X97448989Y-70775306D01*
X97191306Y-71032989D01*
X96988846Y-71168268D01*
X96888302Y-71235449D01*
X96551624Y-71374906D01*
X96194210Y-71446000D01*
X95829790Y-71446000D01*
X95472376Y-71374906D01*
X95135698Y-71235449D01*
X95035154Y-71168268D01*
X94832694Y-71032989D01*
X94575011Y-70775306D01*
X94372552Y-70472303D01*
X94372551Y-70472302D01*
X94233094Y-70135624D01*
X94162000Y-69778210D01*
X94162000Y-69413790D01*
X94233094Y-69056376D01*
X94372551Y-68719698D01*
X94475987Y-68564895D01*
X94575011Y-68416694D01*
X94832694Y-68159011D01*
X95122612Y-67965295D01*
X95135698Y-67956551D01*
X95472376Y-67817094D01*
X95829790Y-67746000D01*
X96194210Y-67746000D01*
X96551624Y-67817094D01*
G37*
M02*
