G04 #@! TF.GenerationSoftware,KiCad,Pcbnew,5.1.6-c6e7f7d~87~ubuntu18.04.1*
G04 #@! TF.CreationDate,2020-07-31T19:21:43+02:00*
G04 #@! TF.ProjectId,hm-env-sensor,686d2d65-6e76-42d7-9365-6e736f722e6b,A1*
G04 #@! TF.SameCoordinates,Original*
G04 #@! TF.FileFunction,Legend,Bot*
G04 #@! TF.FilePolarity,Positive*
%FSLAX46Y46*%
G04 Gerber Fmt 4.6, Leading zero omitted, Abs format (unit mm)*
G04 Created by KiCad (PCBNEW 5.1.6-c6e7f7d~87~ubuntu18.04.1) date 2020-07-31 19:21:43*
%MOMM*%
%LPD*%
G01*
G04 APERTURE LIST*
%ADD10C,0.300000*%
G04 #@! TA.AperFunction,Profile*
%ADD11C,0.254000*%
G04 #@! TD*
G04 APERTURE END LIST*
D10*
X141755827Y-103140761D02*
X141505827Y-101140761D01*
X140898684Y-103140761D02*
X140767732Y-102093142D01*
X140839160Y-101902666D01*
X141017732Y-101807428D01*
X141303446Y-101807428D01*
X141505827Y-101902666D01*
X141612970Y-101997904D01*
X139970113Y-101807428D02*
X139755827Y-103140761D01*
X139255827Y-102188380D01*
X138993922Y-103140761D01*
X138446303Y-101807428D01*
X137755827Y-102378857D02*
X136232017Y-102378857D01*
X134601065Y-103045523D02*
X134803446Y-103140761D01*
X135184398Y-103140761D01*
X135362970Y-103045523D01*
X135434398Y-102855047D01*
X135339160Y-102093142D01*
X135220113Y-101902666D01*
X135017732Y-101807428D01*
X134636779Y-101807428D01*
X134458208Y-101902666D01*
X134386779Y-102093142D01*
X134410589Y-102283619D01*
X135386779Y-102474095D01*
X133493922Y-101807428D02*
X133660589Y-103140761D01*
X133517732Y-101997904D02*
X133410589Y-101902666D01*
X133208208Y-101807428D01*
X132922494Y-101807428D01*
X132743922Y-101902666D01*
X132672494Y-102093142D01*
X132803446Y-103140761D01*
X131874875Y-101807428D02*
X131565351Y-103140761D01*
X130922494Y-101807428D01*
X130232017Y-102378857D02*
X128708208Y-102378857D01*
X127934398Y-103045523D02*
X127755827Y-103140761D01*
X127374875Y-103140761D01*
X127172494Y-103045523D01*
X127053446Y-102855047D01*
X127041541Y-102759809D01*
X127112970Y-102569333D01*
X127291541Y-102474095D01*
X127577255Y-102474095D01*
X127755827Y-102378857D01*
X127827255Y-102188380D01*
X127815351Y-102093142D01*
X127696303Y-101902666D01*
X127493922Y-101807428D01*
X127208208Y-101807428D01*
X127029636Y-101902666D01*
X125458208Y-103045523D02*
X125660589Y-103140761D01*
X126041541Y-103140761D01*
X126220113Y-103045523D01*
X126291541Y-102855047D01*
X126196303Y-102093142D01*
X126077255Y-101902666D01*
X125874875Y-101807428D01*
X125493922Y-101807428D01*
X125315351Y-101902666D01*
X125243922Y-102093142D01*
X125267732Y-102283619D01*
X126243922Y-102474095D01*
X124351065Y-101807428D02*
X124517732Y-103140761D01*
X124374875Y-101997904D02*
X124267732Y-101902666D01*
X124065351Y-101807428D01*
X123779636Y-101807428D01*
X123601065Y-101902666D01*
X123529636Y-102093142D01*
X123660589Y-103140761D01*
X122791541Y-103045523D02*
X122612970Y-103140761D01*
X122232017Y-103140761D01*
X122029636Y-103045523D01*
X121910589Y-102855047D01*
X121898684Y-102759809D01*
X121970113Y-102569333D01*
X122148684Y-102474095D01*
X122434398Y-102474095D01*
X122612970Y-102378857D01*
X122684398Y-102188380D01*
X122672494Y-102093142D01*
X122553446Y-101902666D01*
X122351065Y-101807428D01*
X122065351Y-101807428D01*
X121886779Y-101902666D01*
X120803446Y-103140761D02*
X120982017Y-103045523D01*
X121065351Y-102950285D01*
X121136779Y-102759809D01*
X121065351Y-102188380D01*
X120946303Y-101997904D01*
X120839160Y-101902666D01*
X120636779Y-101807428D01*
X120351065Y-101807428D01*
X120172494Y-101902666D01*
X120089160Y-101997904D01*
X120017732Y-102188380D01*
X120089160Y-102759809D01*
X120208208Y-102950285D01*
X120315351Y-103045523D01*
X120517732Y-103140761D01*
X120803446Y-103140761D01*
X119279636Y-103140761D02*
X119112970Y-101807428D01*
X119160589Y-102188380D02*
X119041541Y-101997904D01*
X118934398Y-101902666D01*
X118732017Y-101807428D01*
X118541541Y-101807428D01*
X132089160Y-106440761D02*
X132636779Y-105488380D01*
X133232017Y-106440761D02*
X132982017Y-104440761D01*
X132220113Y-104440761D01*
X132041541Y-104536000D01*
X131958208Y-104631238D01*
X131886779Y-104821714D01*
X131922494Y-105107428D01*
X132041541Y-105297904D01*
X132148684Y-105393142D01*
X132351065Y-105488380D01*
X133112970Y-105488380D01*
X130458208Y-106345523D02*
X130660589Y-106440761D01*
X131041541Y-106440761D01*
X131220113Y-106345523D01*
X131291541Y-106155047D01*
X131196303Y-105393142D01*
X131077255Y-105202666D01*
X130874875Y-105107428D01*
X130493922Y-105107428D01*
X130315351Y-105202666D01*
X130243922Y-105393142D01*
X130267732Y-105583619D01*
X131243922Y-105774095D01*
X129541541Y-105107428D02*
X129232017Y-106440761D01*
X128589160Y-105107428D01*
X127970113Y-106250285D02*
X127886779Y-106345523D01*
X127993922Y-106440761D01*
X128077255Y-106345523D01*
X127970113Y-106250285D01*
X127993922Y-106440761D01*
X126243922Y-105393142D02*
X125970113Y-105488380D01*
X125886779Y-105583619D01*
X125815351Y-105774095D01*
X125851065Y-106059809D01*
X125970113Y-106250285D01*
X126077255Y-106345523D01*
X126279636Y-106440761D01*
X127041541Y-106440761D01*
X126791541Y-104440761D01*
X126124875Y-104440761D01*
X125946303Y-104536000D01*
X125862970Y-104631238D01*
X125791541Y-104821714D01*
X125815351Y-105012190D01*
X125934398Y-105202666D01*
X126041541Y-105297904D01*
X126243922Y-105393142D01*
X126910589Y-105393142D01*
X150692351Y-113299761D02*
X150442351Y-111299761D01*
X149835208Y-113299761D02*
X149704255Y-112252142D01*
X149775684Y-112061666D01*
X149954255Y-111966428D01*
X150239970Y-111966428D01*
X150442351Y-112061666D01*
X150549494Y-112156904D01*
X149001875Y-111966428D02*
X148239970Y-111966428D01*
X148632827Y-111299761D02*
X148847113Y-113014047D01*
X148775684Y-113204523D01*
X148597113Y-113299761D01*
X148406636Y-113299761D01*
X147859017Y-111966428D02*
X147097113Y-111966428D01*
X147489970Y-111299761D02*
X147704255Y-113014047D01*
X147632827Y-113204523D01*
X147454255Y-113299761D01*
X147263779Y-113299761D01*
X146430446Y-111966428D02*
X146680446Y-113966428D01*
X146442351Y-112061666D02*
X146239970Y-111966428D01*
X145859017Y-111966428D01*
X145680446Y-112061666D01*
X145597113Y-112156904D01*
X145525684Y-112347380D01*
X145597113Y-112918809D01*
X145716160Y-113109285D01*
X145823303Y-113204523D01*
X146025684Y-113299761D01*
X146406636Y-113299761D01*
X146585208Y-113204523D01*
X144870922Y-113204523D02*
X144692351Y-113299761D01*
X144311398Y-113299761D01*
X144109017Y-113204523D01*
X143989970Y-113014047D01*
X143978065Y-112918809D01*
X144049494Y-112728333D01*
X144228065Y-112633095D01*
X144513779Y-112633095D01*
X144692351Y-112537857D01*
X144763779Y-112347380D01*
X144751875Y-112252142D01*
X144632827Y-112061666D01*
X144430446Y-111966428D01*
X144144732Y-111966428D01*
X143966160Y-112061666D01*
X143144732Y-113109285D02*
X143061398Y-113204523D01*
X143168541Y-113299761D01*
X143251875Y-113204523D01*
X143144732Y-113109285D01*
X143168541Y-113299761D01*
X143013779Y-112061666D02*
X142930446Y-112156904D01*
X143037589Y-112252142D01*
X143120922Y-112156904D01*
X143013779Y-112061666D01*
X143037589Y-112252142D01*
X140525684Y-111204523D02*
X142561398Y-113775952D01*
X138430446Y-111204523D02*
X140466160Y-113775952D01*
X137001875Y-111966428D02*
X137204255Y-113585476D01*
X137323303Y-113775952D01*
X137430446Y-113871190D01*
X137632827Y-113966428D01*
X137918541Y-113966428D01*
X138097113Y-113871190D01*
X137156636Y-113204523D02*
X137359017Y-113299761D01*
X137739970Y-113299761D01*
X137918541Y-113204523D01*
X138001875Y-113109285D01*
X138073303Y-112918809D01*
X138001875Y-112347380D01*
X137882827Y-112156904D01*
X137775684Y-112061666D01*
X137573303Y-111966428D01*
X137192351Y-111966428D01*
X137013779Y-112061666D01*
X136216160Y-113299761D02*
X136049494Y-111966428D01*
X135966160Y-111299761D02*
X136073303Y-111395000D01*
X135989970Y-111490238D01*
X135882827Y-111395000D01*
X135966160Y-111299761D01*
X135989970Y-111490238D01*
X135382827Y-111966428D02*
X134620922Y-111966428D01*
X135013779Y-111299761D02*
X135228065Y-113014047D01*
X135156636Y-113204523D01*
X134978065Y-113299761D01*
X134787589Y-113299761D01*
X134120922Y-113299761D02*
X133870922Y-111299761D01*
X133263779Y-113299761D02*
X133132827Y-112252142D01*
X133204255Y-112061666D01*
X133382827Y-111966428D01*
X133668541Y-111966428D01*
X133870922Y-112061666D01*
X133978065Y-112156904D01*
X131287589Y-111966428D02*
X131454255Y-113299761D01*
X132144732Y-111966428D02*
X132275684Y-113014047D01*
X132204255Y-113204523D01*
X132025684Y-113299761D01*
X131739970Y-113299761D01*
X131537589Y-113204523D01*
X131430446Y-113109285D01*
X130501875Y-113299761D02*
X130251875Y-111299761D01*
X130347113Y-112061666D02*
X130144732Y-111966428D01*
X129763779Y-111966428D01*
X129585208Y-112061666D01*
X129501875Y-112156904D01*
X129430446Y-112347380D01*
X129501875Y-112918809D01*
X129620922Y-113109285D01*
X129728065Y-113204523D01*
X129930446Y-113299761D01*
X130311398Y-113299761D01*
X130489970Y-113204523D01*
X128668541Y-113109285D02*
X128585208Y-113204523D01*
X128692351Y-113299761D01*
X128775684Y-113204523D01*
X128668541Y-113109285D01*
X128692351Y-113299761D01*
X126870922Y-113204523D02*
X127073303Y-113299761D01*
X127454255Y-113299761D01*
X127632827Y-113204523D01*
X127716160Y-113109285D01*
X127787589Y-112918809D01*
X127716160Y-112347380D01*
X127597113Y-112156904D01*
X127489970Y-112061666D01*
X127287589Y-111966428D01*
X126906636Y-111966428D01*
X126728065Y-112061666D01*
X125739970Y-113299761D02*
X125918541Y-113204523D01*
X126001875Y-113109285D01*
X126073303Y-112918809D01*
X126001875Y-112347380D01*
X125882827Y-112156904D01*
X125775684Y-112061666D01*
X125573303Y-111966428D01*
X125287589Y-111966428D01*
X125109017Y-112061666D01*
X125025684Y-112156904D01*
X124954255Y-112347380D01*
X125025684Y-112918809D01*
X125144732Y-113109285D01*
X125251875Y-113204523D01*
X125454255Y-113299761D01*
X125739970Y-113299761D01*
X124216160Y-113299761D02*
X124049494Y-111966428D01*
X124073303Y-112156904D02*
X123966160Y-112061666D01*
X123763779Y-111966428D01*
X123478065Y-111966428D01*
X123299494Y-112061666D01*
X123228065Y-112252142D01*
X123359017Y-113299761D01*
X123228065Y-112252142D02*
X123109017Y-112061666D01*
X122906636Y-111966428D01*
X122620922Y-111966428D01*
X122442351Y-112061666D01*
X122370922Y-112252142D01*
X122501875Y-113299761D01*
X119859017Y-111204523D02*
X121894732Y-113775952D01*
X119454255Y-113299761D02*
X119204255Y-111299761D01*
X118597113Y-113299761D02*
X118466160Y-112252142D01*
X118537589Y-112061666D01*
X118716160Y-111966428D01*
X119001875Y-111966428D01*
X119204255Y-112061666D01*
X119311398Y-112156904D01*
X117644732Y-113299761D02*
X117478065Y-111966428D01*
X117394732Y-111299761D02*
X117501875Y-111395000D01*
X117418541Y-111490238D01*
X117311398Y-111395000D01*
X117394732Y-111299761D01*
X117418541Y-111490238D01*
X116692351Y-113299761D02*
X116525684Y-111966428D01*
X116549494Y-112156904D02*
X116442351Y-112061666D01*
X116239970Y-111966428D01*
X115954255Y-111966428D01*
X115775684Y-112061666D01*
X115704255Y-112252142D01*
X115835208Y-113299761D01*
X115704255Y-112252142D02*
X115585208Y-112061666D01*
X115382827Y-111966428D01*
X115097113Y-111966428D01*
X114918541Y-112061666D01*
X114847113Y-112252142D01*
X114978065Y-113299761D01*
X114025684Y-113299761D02*
X113859017Y-111966428D01*
X113775684Y-111299761D02*
X113882827Y-111395000D01*
X113799494Y-111490238D01*
X113692351Y-111395000D01*
X113775684Y-111299761D01*
X113799494Y-111490238D01*
X112906636Y-111966428D02*
X113073303Y-113299761D01*
X112930446Y-112156904D02*
X112823303Y-112061666D01*
X112620922Y-111966428D01*
X112335208Y-111966428D01*
X112156636Y-112061666D01*
X112085208Y-112252142D01*
X112216160Y-113299761D01*
X110406636Y-113299761D02*
X110156636Y-111299761D01*
X110394732Y-113204523D02*
X110597113Y-113299761D01*
X110978065Y-113299761D01*
X111156636Y-113204523D01*
X111239970Y-113109285D01*
X111311398Y-112918809D01*
X111239970Y-112347380D01*
X111120922Y-112156904D01*
X111013779Y-112061666D01*
X110811398Y-111966428D01*
X110430446Y-111966428D01*
X110251875Y-112061666D01*
X109537589Y-113204523D02*
X109359017Y-113299761D01*
X108978065Y-113299761D01*
X108775684Y-113204523D01*
X108656636Y-113014047D01*
X108644732Y-112918809D01*
X108716160Y-112728333D01*
X108894732Y-112633095D01*
X109180446Y-112633095D01*
X109359017Y-112537857D01*
X109430446Y-112347380D01*
X109418541Y-112252142D01*
X109299494Y-112061666D01*
X109097113Y-111966428D01*
X108811398Y-111966428D01*
X108632827Y-112061666D01*
D11*
X169398000Y-135704200D02*
X169398000Y-71704200D01*
X90398000Y-71704200D02*
X90398000Y-135704200D01*
X161898000Y-64204200D02*
X97898000Y-64204200D01*
X161898000Y-64204200D02*
G75*
G02*
X169398000Y-71704200I0J-7500000D01*
G01*
X169398000Y-135704200D02*
G75*
G02*
X161898000Y-143204200I-7500000J0D01*
G01*
X161898000Y-143204200D02*
X97898000Y-143204200D01*
X90398000Y-71704200D02*
G75*
G02*
X97898000Y-64204200I7500000J0D01*
G01*
X97898000Y-143204200D02*
G75*
G02*
X90398000Y-135704200I0J7500000D01*
G01*
M02*
