G04 #@! TF.GenerationSoftware,KiCad,Pcbnew,(5.1.2)-2*
G04 #@! TF.CreationDate,2019-09-23T21:32:25+02:00*
G04 #@! TF.ProjectId,hm-env-sensor,686d2d65-6e76-42d7-9365-6e736f722e6b,A1*
G04 #@! TF.SameCoordinates,Original*
G04 #@! TF.FileFunction,Copper,L2,Bot*
G04 #@! TF.FilePolarity,Positive*
%FSLAX46Y46*%
G04 Gerber Fmt 4.6, Leading zero omitted, Abs format (unit mm)*
G04 Created by KiCad (PCBNEW (5.1.2)-2) date 2019-09-23 21:32:25*
%MOMM*%
%LPD*%
G04 APERTURE LIST*
%ADD10C,0.254000*%
%ADD11C,1.000000*%
%ADD12R,1.400000X1.400000*%
%ADD13C,1.400000*%
%ADD14C,1.778000*%
%ADD15R,1.778000X1.778000*%
%ADD16C,1.300000*%
%ADD17C,2.000000*%
%ADD18O,1.200000X1.800000*%
%ADD19C,0.700000*%
%ADD20C,1.016000*%
%ADD21C,0.609600*%
%ADD22C,0.762000*%
%ADD23C,0.508000*%
G04 APERTURE END LIST*
D10*
X169398000Y-135704200D02*
X169398000Y-71704200D01*
X129398000Y-71704200D02*
X129398000Y-135704200D01*
X161898000Y-64204200D02*
X136898000Y-64204200D01*
X161898000Y-64204200D02*
G75*
G02X169398000Y-71704200I0J-7500000D01*
G01*
X169398000Y-135704200D02*
G75*
G02X161898000Y-143204200I-7500000J0D01*
G01*
X161898000Y-143204200D02*
X136898000Y-143204200D01*
X129398000Y-71704200D02*
G75*
G02X136898000Y-64204200I7500000J0D01*
G01*
X136898000Y-143204200D02*
G75*
G02X129398000Y-135704200I0J7500000D01*
G01*
D11*
X151130000Y-118110000D03*
X153670000Y-118110000D03*
D12*
X139956540Y-130081020D03*
D13*
X139959080Y-132092700D03*
D14*
X130810000Y-80010000D03*
X130810000Y-77470000D03*
X130810000Y-74930000D03*
D15*
X130810000Y-72390000D03*
D14*
X130810000Y-82550000D03*
X130810000Y-85090000D03*
X130810000Y-90170000D03*
X130810000Y-87630000D03*
X130810000Y-92710000D03*
X130810000Y-95250000D03*
X130810000Y-100330000D03*
X130810000Y-97790000D03*
X130810000Y-102870000D03*
X130810000Y-105410000D03*
X130810000Y-110490000D03*
X130810000Y-107950000D03*
X130810000Y-118110000D03*
X130810000Y-115570000D03*
X130810000Y-113030000D03*
X156210000Y-80010000D03*
X156210000Y-77470000D03*
X156210000Y-74930000D03*
D15*
X156210000Y-72390000D03*
D14*
X156210000Y-82550000D03*
X156210000Y-85090000D03*
X156210000Y-90170000D03*
X156210000Y-87630000D03*
X156210000Y-92710000D03*
X156210000Y-95250000D03*
X156210000Y-100330000D03*
X156210000Y-97790000D03*
X156210000Y-102870000D03*
X156210000Y-105410000D03*
X156210000Y-110490000D03*
X156210000Y-107950000D03*
X156210000Y-118110000D03*
X156210000Y-115570000D03*
X156210000Y-113030000D03*
D16*
X141469600Y-82650800D03*
D17*
X143781000Y-80314000D03*
D16*
X146143200Y-82650800D03*
X141469600Y-77951800D03*
X146143200Y-77951800D03*
X143781000Y-77951800D03*
X143781000Y-82650800D03*
X141469600Y-80187000D03*
X146143200Y-80187000D03*
D18*
X145798000Y-141067600D03*
X145798000Y-137597600D03*
X152998000Y-137597600D03*
X152998000Y-141067600D03*
D11*
X151003000Y-104775000D03*
X134493000Y-107696000D03*
X148463000Y-117221000D03*
X135509000Y-118364000D03*
D19*
X143916400Y-126873000D03*
X143916400Y-125653800D03*
X143052800Y-126873000D03*
X144780000Y-126873000D03*
X144780000Y-125653800D03*
X143052800Y-125653800D03*
D11*
X137668000Y-110744000D03*
X141097000Y-103378000D03*
X148717000Y-107188000D03*
X141097000Y-101398600D03*
X136905996Y-90614500D03*
X136906000Y-82677000D03*
X145414998Y-95630998D03*
X133985000Y-116459000D03*
X141097000Y-97218500D03*
X141986000Y-96329510D03*
X132588000Y-72110610D03*
X137160000Y-72110610D03*
X139700000Y-72110610D03*
X142240000Y-72110610D03*
X144780000Y-72110610D03*
X147320000Y-72110610D03*
X149860000Y-72110610D03*
X154305000Y-72110610D03*
X143510000Y-73660000D03*
X140970000Y-73660000D03*
X138430000Y-73660000D03*
X146050000Y-73660000D03*
X148590000Y-73660000D03*
X139700000Y-74930000D03*
X142240000Y-74930000D03*
X144780000Y-74930000D03*
X147320000Y-74930000D03*
X149860000Y-74930000D03*
X148590000Y-76200000D03*
X148590000Y-78740000D03*
X148590000Y-81280000D03*
X148590000Y-83820000D03*
X138430000Y-76200000D03*
X138430000Y-78740000D03*
X144272687Y-92837687D03*
X141469600Y-84827600D03*
X143764000Y-84836000D03*
X146177000Y-84836000D03*
X136905996Y-84455000D03*
X136905996Y-86360000D03*
X136905996Y-88265000D03*
X139573000Y-102362000D03*
X140144500Y-98171000D03*
X149826600Y-115316000D03*
D19*
X152400000Y-112910620D03*
X147110000Y-112452600D03*
X143916400Y-128092200D03*
D11*
X142403176Y-86144990D03*
X144912215Y-86144990D03*
X147419204Y-85566699D03*
D19*
X133273800Y-119659400D03*
X137058400Y-119710200D03*
X140335000Y-119659400D03*
D11*
X143764000Y-103378000D03*
X143764000Y-97282000D03*
X136812501Y-104233600D03*
X136271000Y-99060000D03*
X136906000Y-73914000D03*
D19*
X160045400Y-102641400D03*
X158637210Y-102476083D03*
X139191994Y-93472000D03*
X139192000Y-88011000D03*
X148844000Y-94488000D03*
X136017000Y-75184008D03*
X135635990Y-112014000D03*
X143002000Y-114935000D03*
X159146937Y-94985457D03*
X159139619Y-97046233D03*
X150088600Y-133350000D03*
X137160000Y-92900500D03*
X149987000Y-91948000D03*
X149606000Y-93631010D03*
X149090902Y-92822789D03*
X143510000Y-92075000D03*
X143516435Y-88172021D03*
X138246600Y-88900000D03*
X140081000Y-92837000D03*
X147828000Y-98227340D03*
X148209000Y-101092000D03*
X147650200Y-134797800D03*
X141246588Y-113007390D03*
X151075565Y-100257435D03*
D11*
X145034000Y-108331000D03*
X140763536Y-108188104D03*
D19*
X137033000Y-91948000D03*
X160553400Y-119024400D03*
X156743400Y-119634000D03*
X142798800Y-120827800D03*
X138023600Y-120751600D03*
X135770110Y-89090500D03*
X156944832Y-106686089D03*
X165938200Y-104140000D03*
X141697600Y-87695010D03*
X158648400Y-106705400D03*
X162166473Y-106806060D03*
X135763000Y-87820500D03*
X135763000Y-85280500D03*
X156934256Y-109219999D03*
X166878000Y-105232200D03*
X141071600Y-86004400D03*
X164388800Y-107746800D03*
D11*
X151130000Y-86614000D03*
D19*
X157988000Y-85648800D03*
X158631620Y-98097825D03*
D11*
X151130000Y-85344000D03*
X151130000Y-87884000D03*
X151130000Y-89154000D03*
D19*
X153755976Y-98212032D03*
X149987000Y-89027000D03*
X159131000Y-112623600D03*
D11*
X151130000Y-90424000D03*
D19*
X152019000Y-96012000D03*
X149986101Y-98297189D03*
X148348381Y-95306400D03*
X141859012Y-110617000D03*
X142056610Y-100711010D03*
X148615400Y-134747000D03*
X142392400Y-112928400D03*
X142834185Y-110594315D03*
X142748000Y-99949000D03*
X149377400Y-134213600D03*
X143332200Y-112928400D03*
X146544508Y-124730500D03*
X142976600Y-129641600D03*
D11*
X144399000Y-114935000D03*
X146812018Y-108458000D03*
D19*
X141187237Y-127839074D03*
X138633200Y-128092200D03*
D20*
X148463000Y-116513894D02*
X148463000Y-117221000D01*
X148463000Y-111379000D02*
X148463000Y-116513894D01*
X151003000Y-104775000D02*
X151003000Y-108839000D01*
X151003000Y-108839000D02*
X148463000Y-111379000D01*
X134801894Y-118364000D02*
X135509000Y-118364000D01*
X134493000Y-107696000D02*
X134493000Y-113665000D01*
X134493000Y-113665000D02*
X136008999Y-115180999D01*
X130810000Y-118110000D02*
X131064000Y-118364000D01*
X135509000Y-116831999D02*
X136008999Y-116332000D01*
X135509000Y-118364000D02*
X135509000Y-116831999D01*
X136008999Y-115180999D02*
X136008999Y-116332000D01*
D21*
X148463000Y-117221000D02*
X148336000Y-117348000D01*
D20*
X136008999Y-118330599D02*
X136042400Y-118364000D01*
X136042400Y-118364000D02*
X135509000Y-118364000D01*
X136008999Y-117424200D02*
X136008999Y-118330599D01*
X136008999Y-116332000D02*
X136008999Y-117424200D01*
X135509000Y-116831999D02*
X133976999Y-118364000D01*
X133976999Y-118364000D02*
X133248400Y-118364000D01*
X133248400Y-118364000D02*
X134801894Y-118364000D01*
X131064000Y-118364000D02*
X133248400Y-118364000D01*
X156210000Y-87630000D02*
X154559000Y-85979000D01*
X154559000Y-74041000D02*
X156210000Y-72390000D01*
X154559000Y-85979000D02*
X154559000Y-74041000D01*
D22*
X152387300Y-116852700D02*
X151130000Y-118110000D01*
D20*
X147110000Y-112477000D02*
X147110000Y-115947000D01*
X139910000Y-115947000D02*
X139910000Y-112477000D01*
X138557000Y-110744000D02*
X137668000Y-110744000D01*
X139910000Y-112097000D02*
X138557000Y-110744000D01*
X139910000Y-112477000D02*
X139910000Y-112097000D01*
X141097000Y-106045000D02*
X141097000Y-103378000D01*
X139910000Y-112477000D02*
X139910000Y-112177000D01*
X138294000Y-110561000D02*
X138294000Y-108848000D01*
X139065000Y-111332000D02*
X139446000Y-111713000D01*
X139065000Y-108077000D02*
X139065000Y-111332000D01*
X139910000Y-112177000D02*
X139446000Y-111713000D01*
X138294000Y-108848000D02*
X139065000Y-108077000D01*
X139446000Y-111713000D02*
X138294000Y-110561000D01*
X139446000Y-107745496D02*
X139446000Y-111713000D01*
X139573000Y-107569000D02*
X141097000Y-106045000D01*
X139065000Y-108077000D02*
X139573000Y-107569000D01*
X148717000Y-107895106D02*
X148717000Y-107188000D01*
X148717000Y-109093000D02*
X148717000Y-107895106D01*
X147110000Y-110700000D02*
X148717000Y-109093000D01*
X147110000Y-112477000D02*
X147110000Y-112452600D01*
X141097000Y-103378000D02*
X141097000Y-101398600D01*
X136905996Y-90614500D02*
X136905996Y-88265000D01*
D22*
X142684502Y-95630998D02*
X144707892Y-95630998D01*
X144707892Y-95630998D02*
X145414998Y-95630998D01*
X141097000Y-97218500D02*
X142684502Y-95630998D01*
X141795500Y-96520000D02*
X141097000Y-97218500D01*
X141097000Y-97218500D02*
X141795500Y-96520000D01*
X141985990Y-96329510D02*
X141986000Y-96329510D01*
X141795500Y-96520000D02*
X141985990Y-96329510D01*
D20*
X143781000Y-73931000D02*
X143510000Y-73660000D01*
X143781000Y-80314000D02*
X143781000Y-73931000D01*
X136905996Y-86360000D02*
X136905996Y-84455000D01*
X136905996Y-88265000D02*
X136905996Y-86360000D01*
D22*
X151130000Y-118110000D02*
X150596610Y-118643390D01*
X151130000Y-118110000D02*
X151638000Y-118618000D01*
X151638000Y-118618000D02*
X152336500Y-118618000D01*
X152387300Y-118567200D02*
X152387300Y-116852700D01*
X152336500Y-118618000D02*
X152387300Y-118567200D01*
X151612610Y-118643390D02*
X151638000Y-118618000D01*
X150596610Y-118643390D02*
X151612610Y-118643390D01*
X152311110Y-118643390D02*
X152336500Y-118618000D01*
X151612610Y-118643390D02*
X152311110Y-118643390D01*
X141097000Y-97218500D02*
X140144500Y-98171000D01*
X140144500Y-98171000D02*
X140970000Y-98171000D01*
X140970000Y-98171000D02*
X141097000Y-98298000D01*
X141097000Y-98298000D02*
X141097000Y-97218500D01*
X141097000Y-101398600D02*
X141097000Y-98298000D01*
D20*
X149826600Y-115316000D02*
X152387300Y-115316000D01*
D22*
X152387300Y-112796320D02*
X152387300Y-115316000D01*
D20*
X152387300Y-115316000D02*
X152387300Y-112923320D01*
X152387300Y-115316000D02*
X152387300Y-116852700D01*
D22*
X149860000Y-115349400D02*
X149826600Y-115316000D01*
X149860000Y-116840000D02*
X149860000Y-115349400D01*
X150596610Y-117576610D02*
X150495000Y-117475000D01*
X150596610Y-118643390D02*
X150596610Y-117576610D01*
X150495000Y-117475000D02*
X149860000Y-116840000D01*
X151130000Y-118110000D02*
X150495000Y-117475000D01*
D20*
X147110000Y-112452600D02*
X147110000Y-110700000D01*
X155321001Y-86741001D02*
X154559000Y-85979000D01*
X156210000Y-87630000D02*
X155321001Y-86741001D01*
D22*
X143764000Y-103378000D02*
X143764000Y-97282000D01*
X136271000Y-103632000D02*
X136271000Y-99060000D01*
X136812501Y-104173501D02*
X136271000Y-103632000D01*
X136812501Y-104233600D02*
X136812501Y-104173501D01*
X139979300Y-95453220D02*
X141523211Y-93909308D01*
X136271000Y-96215220D02*
X137033000Y-95453220D01*
X141523211Y-93909308D02*
X141523211Y-92193198D01*
X136271000Y-99060000D02*
X136271000Y-96215220D01*
X141523211Y-92193198D02*
X140690610Y-91360597D01*
X140690610Y-91360597D02*
X140690610Y-87451887D01*
X138658610Y-81889610D02*
X136976601Y-80207601D01*
X140690610Y-87451887D02*
X138658610Y-85419888D01*
X136976601Y-73984601D02*
X136906000Y-73914000D01*
X136976601Y-80207601D02*
X136976601Y-73984601D01*
X137033000Y-95453220D02*
X139979300Y-95453220D01*
X138658610Y-85419888D02*
X138658610Y-81889610D01*
D23*
X160045400Y-102641400D02*
X158802527Y-102641400D01*
X158802527Y-102641400D02*
X158637210Y-102476083D01*
X139192000Y-93471994D02*
X139191994Y-93472000D01*
X139192000Y-88011000D02*
X139192000Y-93471994D01*
D10*
X148844000Y-94488000D02*
X148590000Y-94488000D01*
X135382000Y-111760000D02*
X135636000Y-112014000D01*
X135382000Y-107289560D02*
X135382000Y-111760000D01*
X134467651Y-106375211D02*
X135382000Y-107289560D01*
X135382000Y-99853077D02*
X134467651Y-100767426D01*
X136017000Y-80391000D02*
X137922000Y-82296000D01*
X134467651Y-100767426D02*
X134467651Y-106375211D01*
X136017000Y-75184008D02*
X136017000Y-80391000D01*
X140786601Y-92498311D02*
X140786601Y-93604195D01*
X139954000Y-87757000D02*
X139954000Y-91665710D01*
X139954000Y-91665710D02*
X140786601Y-92498311D01*
X135382000Y-95504000D02*
X135382000Y-99853077D01*
X137922000Y-85725000D02*
X139954000Y-87757000D01*
X139674187Y-94716610D02*
X136169390Y-94716610D01*
X137922000Y-82296000D02*
X137922000Y-85725000D01*
X140786601Y-93604195D02*
X139674187Y-94716610D01*
X136169390Y-94716610D02*
X135382000Y-95504000D01*
X146151611Y-110388389D02*
X146151611Y-113131611D01*
X148844000Y-94488000D02*
X148082000Y-94488000D01*
X147066000Y-107061000D02*
X147701000Y-107696000D01*
X147066000Y-95504000D02*
X147066000Y-107061000D01*
X143351999Y-115284999D02*
X143002000Y-114935000D01*
X146151611Y-113131611D02*
X146177000Y-113157000D01*
X146177000Y-114427000D02*
X144780000Y-115824000D01*
X146177000Y-113157000D02*
X146177000Y-114427000D01*
X143891000Y-115824000D02*
X143351999Y-115284999D01*
X144780000Y-115824000D02*
X143891000Y-115824000D01*
X147701000Y-108839000D02*
X146151611Y-110388389D01*
X147701000Y-107696000D02*
X147701000Y-108839000D01*
X148082000Y-94488000D02*
X147066000Y-95504000D01*
X159146937Y-97038915D02*
X159139619Y-97046233D01*
X159146937Y-94985457D02*
X159146937Y-97038915D01*
X150088600Y-123113800D02*
X150088600Y-133350000D01*
X143891000Y-115824000D02*
X143891000Y-116916200D01*
X143891000Y-116916200D02*
X150088600Y-123113800D01*
X137160000Y-92900500D02*
X135921527Y-92900500D01*
X135921527Y-92900500D02*
X133896111Y-94925916D01*
X133019822Y-100167718D02*
X133019822Y-106422693D01*
X133896111Y-94925916D02*
X133896111Y-99291430D01*
X132562611Y-106879903D02*
X132562611Y-108737389D01*
X133019822Y-106422693D02*
X132562611Y-106879903D01*
X133896111Y-99291430D02*
X133019822Y-100167718D01*
D20*
X130810000Y-110490000D02*
X131826000Y-109474000D01*
D10*
X132562611Y-108737389D02*
X131826000Y-109474000D01*
D22*
X156210000Y-112522000D02*
X155575000Y-111887000D01*
X156210000Y-113030000D02*
X156210000Y-112522000D01*
X155575000Y-112395000D02*
X156210000Y-113030000D01*
X155575000Y-111887000D02*
X155575000Y-112395000D01*
D10*
X153466783Y-103444327D02*
X153466783Y-106730783D01*
X151892000Y-97663000D02*
X151892000Y-98710971D01*
X152958833Y-99777804D02*
X152958833Y-102936377D01*
X152958833Y-102936377D02*
X153466783Y-103444327D01*
X154432000Y-110744000D02*
X155575000Y-111887000D01*
X149987000Y-91948000D02*
X150794213Y-92755213D01*
X154432000Y-107696000D02*
X154432000Y-110744000D01*
X151892000Y-98710971D02*
X152958833Y-99777804D01*
X153466783Y-106730783D02*
X154432000Y-107696000D01*
X150794213Y-96565213D02*
X151892000Y-97663000D01*
X150794213Y-92755213D02*
X150794213Y-96565213D01*
D20*
X156210000Y-118110000D02*
X154686000Y-116586000D01*
D10*
X153416000Y-108204000D02*
X153416000Y-111299514D01*
X154178000Y-112061514D02*
X154178000Y-116078000D01*
X154178000Y-116078000D02*
X154686000Y-116586000D01*
X153416000Y-111299514D02*
X154178000Y-112061514D01*
X150876000Y-99060000D02*
X151993611Y-100177611D01*
X151993611Y-100177611D02*
X151993611Y-103352609D01*
X152501561Y-103860558D02*
X152501561Y-107289561D01*
X152501561Y-107289561D02*
X153416000Y-108204000D01*
X150876000Y-98044000D02*
X150876000Y-99060000D01*
X149606000Y-96774000D02*
X150876000Y-98044000D01*
X149606000Y-93631010D02*
X149606000Y-96774000D01*
X151993611Y-103352609D02*
X152501561Y-103860558D01*
D20*
X156210000Y-115570000D02*
X155194000Y-114554000D01*
D10*
X152476222Y-99977708D02*
X151384000Y-98885486D01*
X153924000Y-107950000D02*
X152984170Y-107010170D01*
X151384000Y-97846398D02*
X150311602Y-96774000D01*
X149585876Y-92822789D02*
X149090902Y-92822789D01*
X154686000Y-111887000D02*
X153924000Y-111125000D01*
X152984170Y-103644229D02*
X152476222Y-103136281D01*
X150311602Y-96774000D02*
X150311602Y-93288602D01*
X154686000Y-114046000D02*
X154686000Y-111887000D01*
X152984170Y-107010170D02*
X152984170Y-103644229D01*
X152476222Y-103136281D02*
X152476222Y-99977708D01*
X155194000Y-114554000D02*
X154686000Y-114046000D01*
X151384000Y-98885486D02*
X151384000Y-97846398D01*
X153924000Y-111125000D02*
X153924000Y-107950000D01*
X149845789Y-92822789D02*
X149585876Y-92822789D01*
X150311602Y-93288602D02*
X149845789Y-92822789D01*
D23*
X143510000Y-88138000D02*
X143510000Y-88138000D01*
X143510000Y-88178456D02*
X143516435Y-88172021D01*
X143510000Y-92075000D02*
X143510000Y-88178456D01*
D10*
X134378722Y-99491334D02*
X133502433Y-100367623D01*
X137533899Y-93606101D02*
X135898440Y-93606101D01*
X133502433Y-106622597D02*
X133045222Y-107079806D01*
X134378722Y-95125819D02*
X134378722Y-99491334D01*
X138246600Y-92893400D02*
X137533899Y-93606101D01*
X135898440Y-93606101D02*
X134378722Y-95125819D01*
X133502433Y-100367623D02*
X133502433Y-106622597D01*
X138246600Y-88900000D02*
X138246600Y-92893400D01*
X133045222Y-107079806D02*
X133045222Y-110794778D01*
D20*
X130810000Y-113030000D02*
X131953000Y-111887000D01*
D10*
X133045222Y-110794778D02*
X131953000Y-111887000D01*
X139474284Y-94234000D02*
X140081000Y-93627284D01*
X133527833Y-112852167D02*
X133527833Y-107279709D01*
X133985042Y-100567523D02*
X134874000Y-99678565D01*
X134874000Y-95313055D02*
X135953055Y-94234000D01*
X134874000Y-99678565D02*
X134874000Y-95313055D01*
X133527833Y-107279709D02*
X133985042Y-106822502D01*
X135953055Y-94234000D02*
X139474284Y-94234000D01*
X133985042Y-106822502D02*
X133985042Y-100567523D01*
X140081000Y-93627284D02*
X140081000Y-93331974D01*
X140081000Y-93331974D02*
X140081000Y-92837000D01*
D20*
X131698999Y-114681001D02*
X132080000Y-114300000D01*
X130810000Y-115570000D02*
X131698999Y-114681001D01*
D10*
X132080000Y-114300000D02*
X133527833Y-112852167D01*
D23*
X147828000Y-100711000D02*
X148209000Y-101092000D01*
X147828000Y-98227340D02*
X147828000Y-100711000D01*
D22*
X147650200Y-134797800D02*
X147650200Y-123058393D01*
X147650200Y-123058393D02*
X141031980Y-116440173D01*
X141031980Y-116440173D02*
X141031980Y-113716972D01*
X141246588Y-113502364D02*
X141246588Y-113007390D01*
X141031980Y-113716972D02*
X141246588Y-113502364D01*
D10*
X152908000Y-108458000D02*
X152908000Y-111506000D01*
X151511000Y-103552512D02*
X152018950Y-104060462D01*
X151511000Y-100692870D02*
X151511000Y-103552512D01*
X151075565Y-100257435D02*
X151511000Y-100692870D01*
X152018950Y-107568950D02*
X152908000Y-108458000D01*
X152908000Y-111506000D02*
X153670000Y-112268000D01*
X153670000Y-115951000D02*
X153670000Y-118110000D01*
X152018950Y-104060462D02*
X152018950Y-107568950D01*
X153670000Y-112268000D02*
X153670000Y-115951000D01*
D20*
X140763536Y-111129694D02*
X140763536Y-108895210D01*
X141393842Y-111760000D02*
X140763536Y-111129694D01*
X140763536Y-108895210D02*
X140763536Y-108188104D01*
X144272000Y-109093000D02*
X144272000Y-110744000D01*
X145034000Y-108331000D02*
X144272000Y-109093000D01*
X144272000Y-110744000D02*
X143256000Y-111760000D01*
X143256000Y-111760000D02*
X141393842Y-111760000D01*
D10*
X132537211Y-106222789D02*
X132080000Y-106680000D01*
X136191513Y-91948000D02*
X133413500Y-94726013D01*
X137033000Y-91948000D02*
X136191513Y-91948000D01*
X133413500Y-94726013D02*
X133413500Y-99091526D01*
X133413500Y-99091526D02*
X132537211Y-99967815D01*
X132537211Y-99967815D02*
X132537211Y-106222789D01*
D20*
X130810000Y-107950000D02*
X131699000Y-107061000D01*
D10*
X132080000Y-106680000D02*
X131699000Y-107061000D01*
X160553400Y-119024400D02*
X159943800Y-119634000D01*
X159943800Y-119634000D02*
X156743400Y-119634000D01*
X142722600Y-120751600D02*
X142798800Y-120827800D01*
X138023600Y-120751600D02*
X142722600Y-120751600D01*
X132054601Y-99767912D02*
X132905500Y-98917013D01*
X132054601Y-101625399D02*
X132054601Y-99767912D01*
X132905500Y-94551500D02*
X135770110Y-91686890D01*
X132905500Y-98917013D02*
X132905500Y-94551500D01*
X135770110Y-89585474D02*
X135770110Y-89090500D01*
X135770110Y-91686890D02*
X135770110Y-89585474D01*
D20*
X130810000Y-102870000D02*
X131572000Y-102108000D01*
D10*
X131572000Y-102108000D02*
X132054601Y-101625399D01*
X166090600Y-105308400D02*
X166090600Y-104292400D01*
X166090600Y-104292400D02*
X165938200Y-104140000D01*
X157449001Y-105838602D02*
X157445988Y-105841615D01*
X157294831Y-106336090D02*
X156944832Y-106686089D01*
X156698207Y-93949001D02*
X157449001Y-94699796D01*
X142415573Y-87472011D02*
X147669984Y-87472011D01*
X152557989Y-86486305D02*
X154970999Y-88899315D01*
X154970999Y-93304721D02*
X155615279Y-93949001D01*
X141697600Y-87695010D02*
X142192574Y-87695010D01*
X157449001Y-94699796D02*
X157449001Y-105838602D01*
X147669984Y-87472011D02*
X150647996Y-84493999D01*
X150647996Y-84493999D02*
X151538001Y-84493999D01*
X152557989Y-85513987D02*
X152557989Y-86486305D01*
X142192574Y-87695010D02*
X142415573Y-87472011D01*
X155615279Y-93949001D02*
X156698207Y-93949001D01*
X157445988Y-105841615D02*
X157445988Y-106184933D01*
X157445988Y-106184933D02*
X157294831Y-106336090D01*
X151538001Y-84493999D02*
X152557989Y-85513987D01*
X154970999Y-88899315D02*
X154970999Y-93304721D01*
X159143374Y-106705400D02*
X159473574Y-107035600D01*
X158648400Y-106705400D02*
X159143374Y-106705400D01*
X164363400Y-107035600D02*
X164541200Y-106857800D01*
X159473574Y-107035600D02*
X164363400Y-107035600D01*
X164362912Y-107036088D02*
X164541200Y-106857800D01*
X164541200Y-106857800D02*
X166090600Y-105308400D01*
X161936933Y-107035600D02*
X161899600Y-107035600D01*
X162166473Y-106806060D02*
X161936933Y-107035600D01*
X162166473Y-106819873D02*
X162382200Y-107035600D01*
X162166473Y-106806060D02*
X162166473Y-106819873D01*
X132397500Y-94345013D02*
X132397500Y-98361500D01*
X135763000Y-87820500D02*
X135763000Y-87884000D01*
X135763000Y-87884000D02*
X135064500Y-88582500D01*
X135064500Y-88582500D02*
X135064500Y-91678013D01*
X135064500Y-91678013D02*
X132397500Y-94345013D01*
D22*
X130810000Y-100330000D02*
X130810000Y-99949000D01*
X130810000Y-99949000D02*
X131699000Y-99060000D01*
D10*
X132397500Y-98361500D02*
X131699000Y-99060000D01*
X135763000Y-85280500D02*
X135763000Y-85344000D01*
X135763000Y-85344000D02*
X134493000Y-86614000D01*
X134493000Y-86614000D02*
X134493000Y-91567000D01*
X134493000Y-91567000D02*
X131698999Y-94361001D01*
D20*
X130810000Y-95250000D02*
X131445000Y-94615000D01*
D10*
X131698999Y-94361001D02*
X131445000Y-94615000D01*
X141567226Y-86995000D02*
X147193000Y-86995000D01*
X141071600Y-86004400D02*
X141071600Y-86499374D01*
X151885788Y-84016988D02*
X153035000Y-85166200D01*
X157480000Y-89662000D02*
X157480000Y-94011684D01*
X157931610Y-94507810D02*
X157931610Y-106335388D01*
X156743400Y-88925400D02*
X157480000Y-89662000D01*
X157835600Y-94367284D02*
X157835600Y-94411800D01*
X157284255Y-108870000D02*
X156934256Y-109219999D01*
X153035000Y-86283800D02*
X154482800Y-87731600D01*
X157897599Y-108256656D02*
X157284255Y-108870000D01*
X141071600Y-86499374D02*
X141567226Y-86995000D01*
X154482800Y-87731600D02*
X154482800Y-87736522D01*
X147193000Y-86995000D02*
X150171012Y-84016988D01*
X154482800Y-87736522D02*
X155671678Y-88925400D01*
X157480000Y-94011684D02*
X157835600Y-94367284D01*
X153035000Y-85166200D02*
X153035000Y-86283800D01*
X155671678Y-88925400D02*
X156743400Y-88925400D01*
X157835600Y-94411800D02*
X157931610Y-94507810D01*
X150171012Y-84016988D02*
X151885788Y-84016988D01*
X157931610Y-106335388D02*
X157897599Y-106369399D01*
X158216600Y-107518200D02*
X157897599Y-107837201D01*
X166878000Y-105232200D02*
X164592000Y-107518200D01*
X157897599Y-107837201D02*
X157897599Y-108256656D01*
X158137398Y-107518200D02*
X157897599Y-107278401D01*
X158826200Y-107518200D02*
X158137398Y-107518200D01*
X157897599Y-107278401D02*
X157897599Y-107837201D01*
X157897599Y-106369399D02*
X157897599Y-107278401D01*
X158826200Y-107518200D02*
X158216600Y-107518200D01*
X164160200Y-107518200D02*
X163931600Y-107518200D01*
X164388800Y-107746800D02*
X164160200Y-107518200D01*
X164592000Y-107518200D02*
X163931600Y-107518200D01*
X163931600Y-107518200D02*
X158826200Y-107518200D01*
D22*
X156210000Y-100076000D02*
X155702000Y-99568000D01*
X156210000Y-100330000D02*
X156210000Y-100076000D01*
X155702000Y-99822000D02*
X156210000Y-100330000D01*
X155702000Y-99568000D02*
X155702000Y-99822000D01*
D10*
X154432000Y-96472487D02*
X153797000Y-95837486D01*
X154944189Y-98350584D02*
X154944189Y-97540189D01*
X155702000Y-99568000D02*
X155702000Y-99108395D01*
X153797000Y-89281000D02*
X151629999Y-87113999D01*
X151629999Y-87113999D02*
X151130000Y-86614000D01*
X154432000Y-97028000D02*
X154432000Y-96472487D01*
X154944189Y-97540189D02*
X154432000Y-97028000D01*
X153797000Y-95837486D02*
X153797000Y-89281000D01*
X155702000Y-99108395D02*
X155526605Y-98933000D01*
X155448000Y-99441000D02*
X155448000Y-99011605D01*
X155448000Y-99011605D02*
X155526605Y-98933000D01*
X155448000Y-98854395D02*
X155448000Y-99441000D01*
X155272605Y-98679000D02*
X155448000Y-98854395D01*
X155526605Y-98933000D02*
X155272605Y-98679000D01*
X155272605Y-98679000D02*
X154944189Y-98350584D01*
X156210000Y-99616395D02*
X156210000Y-100330000D01*
X155526605Y-98933000D02*
X156210000Y-99616395D01*
X155526605Y-99646605D02*
X156210000Y-100330000D01*
X155526605Y-98933000D02*
X155526605Y-99646605D01*
X155448000Y-100076000D02*
X155448000Y-99441000D01*
X155702000Y-100330000D02*
X155448000Y-100076000D01*
X156210000Y-100330000D02*
X155702000Y-100330000D01*
X157988000Y-85648800D02*
X158439264Y-86100064D01*
X158439264Y-97410495D02*
X158631620Y-97602851D01*
X158439264Y-86100064D02*
X158439264Y-97410495D01*
X158631620Y-97602851D02*
X158631620Y-98097825D01*
D22*
X156210000Y-97409000D02*
X155321000Y-96520000D01*
X156210000Y-97790000D02*
X156210000Y-97409000D01*
D10*
X151980900Y-86194900D02*
X151130000Y-85344000D01*
X151980900Y-86753700D02*
X151980900Y-86194900D01*
X154305000Y-89077800D02*
X151980900Y-86753700D01*
X154305000Y-95504000D02*
X154305000Y-89077800D01*
X155321000Y-96520000D02*
X154305000Y-95504000D01*
D20*
X156210000Y-102870000D02*
X155321000Y-101981000D01*
D10*
X153924000Y-97282000D02*
X153924000Y-96647000D01*
X155321000Y-101981000D02*
X154889277Y-101549277D01*
X151629999Y-88383999D02*
X151130000Y-87884000D01*
X153263610Y-90017610D02*
X151629999Y-88383999D01*
X153924000Y-96647000D02*
X153263610Y-95986610D01*
X153263610Y-95986610D02*
X153263610Y-90017610D01*
X154889277Y-98978187D02*
X154461578Y-98550488D01*
X154889277Y-101549277D02*
X154889277Y-98978187D01*
X154461578Y-98550488D02*
X154461578Y-97819578D01*
X154461578Y-97819578D02*
X153924000Y-97282000D01*
D20*
X156210000Y-105410000D02*
X155448000Y-104648000D01*
D10*
X152780999Y-96186514D02*
X153405977Y-96811491D01*
X151130000Y-89154000D02*
X152780999Y-90804999D01*
X152780999Y-90804999D02*
X152780999Y-96186514D01*
X153405977Y-97862033D02*
X153755976Y-98212032D01*
X153405977Y-96811491D02*
X153405977Y-97862033D01*
X154940000Y-104140000D02*
X154940000Y-102870000D01*
X155448000Y-104648000D02*
X154940000Y-104140000D01*
X154940000Y-102870000D02*
X154406666Y-102336666D01*
X154406666Y-102336666D02*
X154406666Y-99178092D01*
X153755976Y-98527402D02*
X153755976Y-98212032D01*
X154406666Y-99178092D02*
X153755976Y-98527402D01*
D20*
X156210000Y-110490000D02*
X155448000Y-109728000D01*
D10*
X153949394Y-106451394D02*
X154940000Y-107442000D01*
X153949394Y-103244423D02*
X153949394Y-106451394D01*
X153441444Y-99577900D02*
X153441444Y-102736473D01*
X155321001Y-109601001D02*
X155448000Y-109728000D01*
X149987000Y-89027000D02*
X149987000Y-90493594D01*
X154940000Y-109220000D02*
X155321001Y-109601001D01*
X154940000Y-107442000D02*
X154940000Y-109220000D01*
X153441444Y-102736473D02*
X153949394Y-103244423D01*
X152400000Y-98536456D02*
X153441444Y-99577900D01*
X151276824Y-96311547D02*
X152400000Y-97434723D01*
X152400000Y-97434723D02*
X152400000Y-98536456D01*
X151276824Y-91783418D02*
X151276824Y-96311547D01*
X149987000Y-90493594D02*
X151276824Y-91783418D01*
X156997400Y-110490000D02*
X156210000Y-110490000D01*
X159131000Y-112623600D02*
X156997400Y-110490000D01*
D22*
X152019000Y-91313000D02*
X151130000Y-90424000D01*
X152019000Y-96012000D02*
X152019000Y-91313000D01*
X156210000Y-107569000D02*
X154940000Y-106299000D01*
X156210000Y-107950000D02*
X156210000Y-107569000D01*
D10*
X152908000Y-98361941D02*
X153924055Y-99377996D01*
X154432005Y-105791005D02*
X154940000Y-106299000D01*
X153924055Y-102536569D02*
X154432005Y-103044519D01*
X153924055Y-99377996D02*
X153924055Y-102536569D01*
X152019000Y-96012000D02*
X152019000Y-96107029D01*
X154432005Y-103044519D02*
X154432005Y-105791005D01*
X152908000Y-96996029D02*
X152908000Y-98361941D01*
X152019000Y-96107029D02*
X152908000Y-96996029D01*
D23*
X148971000Y-97155000D02*
X148971000Y-95929019D01*
X149986101Y-98170101D02*
X148971000Y-97155000D01*
X148971000Y-95929019D02*
X148348381Y-95306400D01*
X149986101Y-98297189D02*
X149986101Y-98170101D01*
D10*
X142056610Y-101205984D02*
X142056610Y-100711010D01*
X142056610Y-110419390D02*
X142056610Y-101205984D01*
X141859012Y-110616988D02*
X142056610Y-110419390D01*
X141859012Y-110617000D02*
X141859012Y-110616988D01*
X142392400Y-113423374D02*
X142392400Y-112928400D01*
X142392400Y-113473006D02*
X142392400Y-113423374D01*
X141762990Y-114102415D02*
X142392400Y-113473006D01*
X141762990Y-116137378D02*
X141762990Y-114102415D01*
X148615400Y-134747000D02*
X148615400Y-122989788D01*
X148615400Y-122989788D02*
X141762990Y-116137378D01*
X142834185Y-100035185D02*
X142748000Y-99949000D01*
X142834185Y-110594315D02*
X142834185Y-100035185D01*
X149377400Y-134213600D02*
X149377400Y-123077195D01*
X149377400Y-123077195D02*
X142240001Y-115939796D01*
X143332200Y-113423374D02*
X143332200Y-112928400D01*
X142240001Y-115939796D02*
X142240001Y-114515573D01*
X142240001Y-114515573D02*
X143332200Y-113423374D01*
X143326599Y-129291601D02*
X143834599Y-129291601D01*
X142976600Y-129641600D02*
X143326599Y-129291601D01*
X146544508Y-126581692D02*
X146544508Y-124730500D01*
X143834599Y-129291601D02*
X146544508Y-126581692D01*
D22*
X146812000Y-108458018D02*
X146812018Y-108458000D01*
X145415000Y-109855018D02*
X146812000Y-108458018D01*
X145415000Y-112522000D02*
X145415000Y-109855018D01*
X144399000Y-113538000D02*
X145415000Y-112522000D01*
X144399000Y-114935000D02*
X144399000Y-113538000D01*
D10*
X141187237Y-127839074D02*
X138886326Y-127839074D01*
X138886326Y-127839074D02*
X138633200Y-128092200D01*
G36*
X168890001Y-71719730D02*
G01*
X168890000Y-135685795D01*
X168815442Y-136713348D01*
X168597312Y-137701348D01*
X168238840Y-138647521D01*
X167747537Y-139532033D01*
X167133695Y-140336357D01*
X166410181Y-141043639D01*
X165592132Y-141639079D01*
X164696707Y-142110183D01*
X163742645Y-142447098D01*
X162747105Y-142643318D01*
X161882487Y-142696200D01*
X136916405Y-142696200D01*
X135888852Y-142621642D01*
X134900852Y-142403512D01*
X133954679Y-142045040D01*
X133440476Y-141759425D01*
X144653744Y-141759425D01*
X144752172Y-141975129D01*
X144890790Y-142167486D01*
X145064272Y-142329104D01*
X145152358Y-142420392D01*
X145325000Y-142334339D01*
X145325000Y-141575600D01*
X146271000Y-141575600D01*
X146271000Y-142334339D01*
X146443642Y-142420392D01*
X146531728Y-142329104D01*
X146705210Y-142167486D01*
X146843828Y-141975129D01*
X146942256Y-141759425D01*
X151853744Y-141759425D01*
X151952172Y-141975129D01*
X152090790Y-142167486D01*
X152264272Y-142329104D01*
X152352358Y-142420392D01*
X152525000Y-142334339D01*
X152525000Y-141575600D01*
X153471000Y-141575600D01*
X153471000Y-142334339D01*
X153643642Y-142420392D01*
X153731728Y-142329104D01*
X153905210Y-142167486D01*
X154043828Y-141975129D01*
X154142256Y-141759425D01*
X154030713Y-141575600D01*
X153471000Y-141575600D01*
X152525000Y-141575600D01*
X151965287Y-141575600D01*
X151853744Y-141759425D01*
X146942256Y-141759425D01*
X146830713Y-141575600D01*
X146271000Y-141575600D01*
X145325000Y-141575600D01*
X144765287Y-141575600D01*
X144653744Y-141759425D01*
X133440476Y-141759425D01*
X133070167Y-141553737D01*
X132265843Y-140939895D01*
X131714380Y-140375775D01*
X144653744Y-140375775D01*
X144765287Y-140559600D01*
X145325000Y-140559600D01*
X145325000Y-139800861D01*
X146271000Y-139800861D01*
X146271000Y-140559600D01*
X146830713Y-140559600D01*
X146942256Y-140375775D01*
X151853744Y-140375775D01*
X151965287Y-140559600D01*
X152525000Y-140559600D01*
X152525000Y-139800861D01*
X153471000Y-139800861D01*
X153471000Y-140559600D01*
X154030713Y-140559600D01*
X154142256Y-140375775D01*
X154043828Y-140160071D01*
X153905210Y-139967714D01*
X153731728Y-139806096D01*
X153643642Y-139714808D01*
X153471000Y-139800861D01*
X152525000Y-139800861D01*
X152352358Y-139714808D01*
X152264272Y-139806096D01*
X152090790Y-139967714D01*
X151952172Y-140160071D01*
X151853744Y-140375775D01*
X146942256Y-140375775D01*
X146843828Y-140160071D01*
X146705210Y-139967714D01*
X146531728Y-139806096D01*
X146443642Y-139714808D01*
X146271000Y-139800861D01*
X145325000Y-139800861D01*
X145152358Y-139714808D01*
X145064272Y-139806096D01*
X144890790Y-139967714D01*
X144752172Y-140160071D01*
X144653744Y-140375775D01*
X131714380Y-140375775D01*
X131558561Y-140216381D01*
X130963121Y-139398332D01*
X130856777Y-139196203D01*
X139832600Y-139196203D01*
X139832600Y-139340197D01*
X139860692Y-139481425D01*
X139915796Y-139614458D01*
X139995795Y-139734185D01*
X140097615Y-139836005D01*
X140217342Y-139916004D01*
X140350375Y-139971108D01*
X140491603Y-139999200D01*
X140635597Y-139999200D01*
X140776825Y-139971108D01*
X140909858Y-139916004D01*
X141029585Y-139836005D01*
X141131405Y-139734185D01*
X141211404Y-139614458D01*
X141266508Y-139481425D01*
X141294600Y-139340197D01*
X141294600Y-139196203D01*
X141632600Y-139196203D01*
X141632600Y-139340197D01*
X141660692Y-139481425D01*
X141715796Y-139614458D01*
X141795795Y-139734185D01*
X141897615Y-139836005D01*
X142017342Y-139916004D01*
X142150375Y-139971108D01*
X142291603Y-139999200D01*
X142435597Y-139999200D01*
X142576825Y-139971108D01*
X142709858Y-139916004D01*
X142829585Y-139836005D01*
X142931405Y-139734185D01*
X143011404Y-139614458D01*
X143066508Y-139481425D01*
X143094600Y-139340197D01*
X143094600Y-139196203D01*
X143066508Y-139054975D01*
X143011404Y-138921942D01*
X142931405Y-138802215D01*
X142829585Y-138700395D01*
X142709858Y-138620396D01*
X142576825Y-138565292D01*
X142435597Y-138537200D01*
X142291603Y-138537200D01*
X142150375Y-138565292D01*
X142017342Y-138620396D01*
X141897615Y-138700395D01*
X141795795Y-138802215D01*
X141715796Y-138921942D01*
X141660692Y-139054975D01*
X141632600Y-139196203D01*
X141294600Y-139196203D01*
X141266508Y-139054975D01*
X141211404Y-138921942D01*
X141131405Y-138802215D01*
X141029585Y-138700395D01*
X140909858Y-138620396D01*
X140776825Y-138565292D01*
X140635597Y-138537200D01*
X140491603Y-138537200D01*
X140350375Y-138565292D01*
X140217342Y-138620396D01*
X140097615Y-138700395D01*
X139995795Y-138802215D01*
X139915796Y-138921942D01*
X139860692Y-139054975D01*
X139832600Y-139196203D01*
X130856777Y-139196203D01*
X130492017Y-138502907D01*
X130416629Y-138289425D01*
X144653744Y-138289425D01*
X144752172Y-138505129D01*
X144890790Y-138697486D01*
X145064272Y-138859104D01*
X145152358Y-138950392D01*
X145325000Y-138864339D01*
X145325000Y-138105600D01*
X146271000Y-138105600D01*
X146271000Y-138864339D01*
X146443642Y-138950392D01*
X146531728Y-138859104D01*
X146540934Y-138850527D01*
X146717000Y-138850527D01*
X146717000Y-138984673D01*
X146743171Y-139116240D01*
X146794506Y-139240174D01*
X146869033Y-139351712D01*
X146963888Y-139446567D01*
X147075426Y-139521094D01*
X147199360Y-139572429D01*
X147330927Y-139598600D01*
X147465073Y-139598600D01*
X147596640Y-139572429D01*
X147720574Y-139521094D01*
X147832112Y-139446567D01*
X147926967Y-139351712D01*
X148001494Y-139240174D01*
X148052829Y-139116240D01*
X148079000Y-138984673D01*
X148079000Y-138850527D01*
X150717000Y-138850527D01*
X150717000Y-138984673D01*
X150743171Y-139116240D01*
X150794506Y-139240174D01*
X150869033Y-139351712D01*
X150963888Y-139446567D01*
X151075426Y-139521094D01*
X151199360Y-139572429D01*
X151330927Y-139598600D01*
X151465073Y-139598600D01*
X151596640Y-139572429D01*
X151720574Y-139521094D01*
X151832112Y-139446567D01*
X151926967Y-139351712D01*
X152001494Y-139240174D01*
X152052829Y-139116240D01*
X152079000Y-138984673D01*
X152079000Y-138850527D01*
X152052829Y-138718960D01*
X152001494Y-138595026D01*
X151926967Y-138483488D01*
X151832112Y-138388633D01*
X151720574Y-138314106D01*
X151660989Y-138289425D01*
X151853744Y-138289425D01*
X151952172Y-138505129D01*
X152090790Y-138697486D01*
X152264272Y-138859104D01*
X152352358Y-138950392D01*
X152525000Y-138864339D01*
X152525000Y-138105600D01*
X153471000Y-138105600D01*
X153471000Y-138864339D01*
X153643642Y-138950392D01*
X153731728Y-138859104D01*
X153905210Y-138697486D01*
X154043828Y-138505129D01*
X154142256Y-138289425D01*
X154030713Y-138105600D01*
X153471000Y-138105600D01*
X152525000Y-138105600D01*
X151965287Y-138105600D01*
X151853744Y-138289425D01*
X151660989Y-138289425D01*
X151596640Y-138262771D01*
X151465073Y-138236600D01*
X151330927Y-138236600D01*
X151199360Y-138262771D01*
X151075426Y-138314106D01*
X150963888Y-138388633D01*
X150869033Y-138483488D01*
X150794506Y-138595026D01*
X150743171Y-138718960D01*
X150717000Y-138850527D01*
X148079000Y-138850527D01*
X148052829Y-138718960D01*
X148001494Y-138595026D01*
X147926967Y-138483488D01*
X147832112Y-138388633D01*
X147720574Y-138314106D01*
X147596640Y-138262771D01*
X147465073Y-138236600D01*
X147330927Y-138236600D01*
X147199360Y-138262771D01*
X147075426Y-138314106D01*
X146963888Y-138388633D01*
X146869033Y-138483488D01*
X146794506Y-138595026D01*
X146743171Y-138718960D01*
X146717000Y-138850527D01*
X146540934Y-138850527D01*
X146705210Y-138697486D01*
X146843828Y-138505129D01*
X146942256Y-138289425D01*
X146830713Y-138105600D01*
X146271000Y-138105600D01*
X145325000Y-138105600D01*
X144765287Y-138105600D01*
X144653744Y-138289425D01*
X130416629Y-138289425D01*
X130155102Y-137548845D01*
X130113253Y-137336519D01*
X160531000Y-137336519D01*
X160531000Y-137991881D01*
X160658855Y-138634650D01*
X160909651Y-139240125D01*
X161273750Y-139785039D01*
X161737161Y-140248450D01*
X162282075Y-140612549D01*
X162887550Y-140863345D01*
X163530319Y-140991200D01*
X164185681Y-140991200D01*
X164828450Y-140863345D01*
X165433925Y-140612549D01*
X165978839Y-140248450D01*
X166442250Y-139785039D01*
X166806349Y-139240125D01*
X167057145Y-138634650D01*
X167185000Y-137991881D01*
X167185000Y-137336519D01*
X167057145Y-136693750D01*
X166806349Y-136088275D01*
X166442250Y-135543361D01*
X165978839Y-135079950D01*
X165433925Y-134715851D01*
X164828450Y-134465055D01*
X164185681Y-134337200D01*
X163530319Y-134337200D01*
X162887550Y-134465055D01*
X162282075Y-134715851D01*
X161737161Y-135079950D01*
X161273750Y-135543361D01*
X160909651Y-136088275D01*
X160658855Y-136693750D01*
X160531000Y-137336519D01*
X130113253Y-137336519D01*
X130028354Y-136905775D01*
X144653744Y-136905775D01*
X144765287Y-137089600D01*
X145325000Y-137089600D01*
X145325000Y-136330861D01*
X146271000Y-136330861D01*
X146271000Y-137089600D01*
X146830713Y-137089600D01*
X146942256Y-136905775D01*
X151853744Y-136905775D01*
X151965287Y-137089600D01*
X152525000Y-137089600D01*
X152525000Y-136330861D01*
X153471000Y-136330861D01*
X153471000Y-137089600D01*
X154030713Y-137089600D01*
X154142256Y-136905775D01*
X154043828Y-136690071D01*
X153905210Y-136497714D01*
X153731728Y-136336096D01*
X153643642Y-136244808D01*
X153471000Y-136330861D01*
X152525000Y-136330861D01*
X152352358Y-136244808D01*
X152264272Y-136336096D01*
X152090790Y-136497714D01*
X151952172Y-136690071D01*
X151853744Y-136905775D01*
X146942256Y-136905775D01*
X146843828Y-136690071D01*
X146705210Y-136497714D01*
X146531728Y-136336096D01*
X146443642Y-136244808D01*
X146271000Y-136330861D01*
X145325000Y-136330861D01*
X145152358Y-136244808D01*
X145064272Y-136336096D01*
X144890790Y-136497714D01*
X144752172Y-136690071D01*
X144653744Y-136905775D01*
X130028354Y-136905775D01*
X129958882Y-136553305D01*
X129906000Y-135688687D01*
X129906000Y-133207138D01*
X139563063Y-133207138D01*
X139640295Y-133395731D01*
X139900629Y-133432885D01*
X140163210Y-133418537D01*
X140277865Y-133395731D01*
X140355097Y-133207138D01*
X139959080Y-132811120D01*
X139563063Y-133207138D01*
X129906000Y-133207138D01*
X129906000Y-132034249D01*
X138618895Y-132034249D01*
X138633243Y-132296830D01*
X138656049Y-132411485D01*
X138844642Y-132488717D01*
X139240660Y-132092700D01*
X140677500Y-132092700D01*
X141073518Y-132488717D01*
X141262111Y-132411485D01*
X141299265Y-132151151D01*
X141284917Y-131888570D01*
X141262111Y-131773915D01*
X141073518Y-131696683D01*
X140677500Y-132092700D01*
X139240660Y-132092700D01*
X138844642Y-131696683D01*
X138656049Y-131773915D01*
X138618895Y-132034249D01*
X129906000Y-132034249D01*
X129906000Y-129381020D01*
X138873697Y-129381020D01*
X138873697Y-130781020D01*
X138881053Y-130855709D01*
X138902839Y-130927528D01*
X138938218Y-130993716D01*
X138985829Y-131051731D01*
X139043844Y-131099342D01*
X139110032Y-131134721D01*
X139181851Y-131156507D01*
X139256540Y-131163863D01*
X139748664Y-131163863D01*
X139959080Y-131374280D01*
X140169496Y-131163863D01*
X140656540Y-131163863D01*
X140731229Y-131156507D01*
X140803048Y-131134721D01*
X140869236Y-131099342D01*
X140927251Y-131051731D01*
X140974862Y-130993716D01*
X141010241Y-130927528D01*
X141032027Y-130855709D01*
X141039383Y-130781020D01*
X141039383Y-129381020D01*
X141032027Y-129306331D01*
X141010241Y-129234512D01*
X140974862Y-129168324D01*
X140927251Y-129110309D01*
X140869236Y-129062698D01*
X140803048Y-129027319D01*
X140731229Y-129005533D01*
X140656540Y-128998177D01*
X139256540Y-128998177D01*
X139181851Y-129005533D01*
X139110032Y-129027319D01*
X139043844Y-129062698D01*
X138985829Y-129110309D01*
X138938218Y-129168324D01*
X138902839Y-129234512D01*
X138881053Y-129306331D01*
X138873697Y-129381020D01*
X129906000Y-129381020D01*
X129906000Y-128020203D01*
X137902200Y-128020203D01*
X137902200Y-128164197D01*
X137930292Y-128305425D01*
X137985396Y-128438458D01*
X138065395Y-128558185D01*
X138167215Y-128660005D01*
X138286942Y-128740004D01*
X138419975Y-128795108D01*
X138561203Y-128823200D01*
X138705197Y-128823200D01*
X138846425Y-128795108D01*
X138979458Y-128740004D01*
X139099185Y-128660005D01*
X139201005Y-128558185D01*
X139281004Y-128438458D01*
X139318856Y-128347074D01*
X140661447Y-128347074D01*
X140721252Y-128406879D01*
X140840979Y-128486878D01*
X140974012Y-128541982D01*
X141115240Y-128570074D01*
X141259234Y-128570074D01*
X141400462Y-128541982D01*
X141533495Y-128486878D01*
X141653222Y-128406879D01*
X141755042Y-128305059D01*
X141835041Y-128185332D01*
X141890145Y-128052299D01*
X141918237Y-127911071D01*
X141918237Y-127767077D01*
X141890145Y-127625849D01*
X141835041Y-127492816D01*
X141755042Y-127373089D01*
X141653222Y-127271269D01*
X141533495Y-127191270D01*
X141400462Y-127136166D01*
X141259234Y-127108074D01*
X141115240Y-127108074D01*
X140974012Y-127136166D01*
X140840979Y-127191270D01*
X140721252Y-127271269D01*
X140661447Y-127331074D01*
X138911269Y-127331074D01*
X138886325Y-127328617D01*
X138861381Y-127331074D01*
X138861379Y-127331074D01*
X138786741Y-127338425D01*
X138709102Y-127361977D01*
X138705197Y-127361200D01*
X138561203Y-127361200D01*
X138419975Y-127389292D01*
X138286942Y-127444396D01*
X138167215Y-127524395D01*
X138065395Y-127626215D01*
X137985396Y-127745942D01*
X137930292Y-127878975D01*
X137902200Y-128020203D01*
X129906000Y-128020203D01*
X129906000Y-120679603D01*
X137292600Y-120679603D01*
X137292600Y-120823597D01*
X137320692Y-120964825D01*
X137375796Y-121097858D01*
X137455795Y-121217585D01*
X137557615Y-121319405D01*
X137677342Y-121399404D01*
X137810375Y-121454508D01*
X137951603Y-121482600D01*
X138095597Y-121482600D01*
X138236825Y-121454508D01*
X138369858Y-121399404D01*
X138489585Y-121319405D01*
X138549390Y-121259600D01*
X142208153Y-121259600D01*
X142230995Y-121293785D01*
X142332815Y-121395605D01*
X142452542Y-121475604D01*
X142585575Y-121530708D01*
X142726803Y-121558800D01*
X142870797Y-121558800D01*
X143012025Y-121530708D01*
X143145058Y-121475604D01*
X143264785Y-121395605D01*
X143366605Y-121293785D01*
X143446604Y-121174058D01*
X143501708Y-121041025D01*
X143529800Y-120899797D01*
X143529800Y-120755803D01*
X143501708Y-120614575D01*
X143446604Y-120481542D01*
X143366605Y-120361815D01*
X143264785Y-120259995D01*
X143145058Y-120179996D01*
X143012025Y-120124892D01*
X142870797Y-120096800D01*
X142726803Y-120096800D01*
X142585575Y-120124892D01*
X142452542Y-120179996D01*
X142357352Y-120243600D01*
X138549390Y-120243600D01*
X138489585Y-120183795D01*
X138369858Y-120103796D01*
X138236825Y-120048692D01*
X138095597Y-120020600D01*
X137951603Y-120020600D01*
X137810375Y-120048692D01*
X137677342Y-120103796D01*
X137557615Y-120183795D01*
X137455795Y-120285615D01*
X137375796Y-120405342D01*
X137320692Y-120538375D01*
X137292600Y-120679603D01*
X129906000Y-120679603D01*
X129906000Y-119002051D01*
X130000422Y-119096473D01*
X130208429Y-119235459D01*
X130439555Y-119331195D01*
X130684916Y-119380000D01*
X130935084Y-119380000D01*
X131180445Y-119331195D01*
X131369223Y-119253000D01*
X133933339Y-119253000D01*
X133976999Y-119257300D01*
X134020659Y-119253000D01*
X135465333Y-119253000D01*
X135509000Y-119257301D01*
X135552667Y-119253000D01*
X135998739Y-119253000D01*
X136042399Y-119257300D01*
X136086059Y-119253000D01*
X136086067Y-119253000D01*
X136216674Y-119240136D01*
X136384251Y-119189303D01*
X136538691Y-119106753D01*
X136674059Y-118995659D01*
X136785153Y-118860291D01*
X136867703Y-118705851D01*
X136918536Y-118538274D01*
X136935701Y-118364000D01*
X136918536Y-118189726D01*
X136918536Y-118189724D01*
X136897999Y-118122024D01*
X136897999Y-116375661D01*
X136902299Y-116332001D01*
X136897999Y-116288341D01*
X136897999Y-115224658D01*
X136902299Y-115180998D01*
X136897999Y-115137333D01*
X136897999Y-115137332D01*
X136887879Y-115034584D01*
X136885135Y-115006723D01*
X136840800Y-114860570D01*
X136834302Y-114839148D01*
X136751752Y-114684708D01*
X136640658Y-114549340D01*
X136606736Y-114521501D01*
X135382000Y-113296765D01*
X135382000Y-112700023D01*
X135422765Y-112716908D01*
X135563993Y-112745000D01*
X135707987Y-112745000D01*
X135849215Y-112716908D01*
X135982248Y-112661804D01*
X136101975Y-112581805D01*
X136203795Y-112479985D01*
X136283794Y-112360258D01*
X136338898Y-112227225D01*
X136366990Y-112085997D01*
X136366990Y-111942003D01*
X136338898Y-111800775D01*
X136283794Y-111667742D01*
X136203795Y-111548015D01*
X136101975Y-111446195D01*
X135982248Y-111366196D01*
X135890000Y-111327986D01*
X135890000Y-107314504D01*
X135892457Y-107289560D01*
X135889185Y-107256343D01*
X135882649Y-107189975D01*
X135853601Y-107094217D01*
X135806429Y-107005965D01*
X135742948Y-106928612D01*
X135723565Y-106912705D01*
X134975651Y-106164791D01*
X134975651Y-100977846D01*
X135509001Y-100444496D01*
X135509000Y-103594577D01*
X135505314Y-103632000D01*
X135509000Y-103669423D01*
X135509000Y-103669425D01*
X135520026Y-103781377D01*
X135563598Y-103925014D01*
X135582767Y-103960877D01*
X135634355Y-104057392D01*
X135673983Y-104105678D01*
X135729578Y-104173422D01*
X135758653Y-104197283D01*
X135943857Y-104382487D01*
X135965357Y-104490578D01*
X136031769Y-104650910D01*
X136128183Y-104795205D01*
X136250896Y-104917918D01*
X136395191Y-105014332D01*
X136555523Y-105080744D01*
X136725730Y-105114600D01*
X136899272Y-105114600D01*
X137069479Y-105080744D01*
X137229811Y-105014332D01*
X137374106Y-104917918D01*
X137496819Y-104795205D01*
X137593233Y-104650910D01*
X137659645Y-104490578D01*
X137693501Y-104320371D01*
X137693501Y-104146829D01*
X137659645Y-103976622D01*
X137593233Y-103816290D01*
X137496819Y-103671995D01*
X137374106Y-103549282D01*
X137229811Y-103452868D01*
X137126851Y-103410220D01*
X137033000Y-103316370D01*
X137033000Y-99505345D01*
X137051732Y-99477310D01*
X137118144Y-99316978D01*
X137152000Y-99146771D01*
X137152000Y-98973229D01*
X137118144Y-98803022D01*
X137051732Y-98642690D01*
X137033000Y-98614655D01*
X137033000Y-96530850D01*
X137348631Y-96215220D01*
X139941877Y-96215220D01*
X139979300Y-96218906D01*
X140016723Y-96215220D01*
X140016726Y-96215220D01*
X140128678Y-96204194D01*
X140272315Y-96160622D01*
X140404692Y-96089865D01*
X140520722Y-95994642D01*
X140544584Y-95965566D01*
X142035564Y-94474586D01*
X142064633Y-94450730D01*
X142115773Y-94388416D01*
X142159856Y-94334701D01*
X142230613Y-94202324D01*
X142247437Y-94146862D01*
X142274185Y-94058686D01*
X142285211Y-93946734D01*
X142285211Y-93946731D01*
X142288897Y-93909308D01*
X142285211Y-93871885D01*
X142285211Y-92230621D01*
X142288897Y-92193198D01*
X142285211Y-92155772D01*
X142274185Y-92043820D01*
X142230613Y-91900183D01*
X142169835Y-91786475D01*
X142159856Y-91767805D01*
X142123517Y-91723527D01*
X142064633Y-91651776D01*
X142035557Y-91627914D01*
X141452610Y-91044967D01*
X141452610Y-88384761D01*
X141484375Y-88397918D01*
X141625603Y-88426010D01*
X141769597Y-88426010D01*
X141910825Y-88397918D01*
X142043858Y-88342814D01*
X142163585Y-88262815D01*
X142224031Y-88202369D01*
X142292159Y-88195659D01*
X142387917Y-88166611D01*
X142476169Y-88119439D01*
X142553522Y-88055958D01*
X142569429Y-88036575D01*
X142625993Y-87980011D01*
X142809307Y-87980011D01*
X142785435Y-88100024D01*
X142785435Y-88244018D01*
X142813527Y-88385246D01*
X142868631Y-88518279D01*
X142875001Y-88527812D01*
X142875000Y-91709579D01*
X142862196Y-91728742D01*
X142807092Y-91861775D01*
X142779000Y-92003003D01*
X142779000Y-92146997D01*
X142807092Y-92288225D01*
X142862196Y-92421258D01*
X142942195Y-92540985D01*
X143044015Y-92642805D01*
X143163742Y-92722804D01*
X143296775Y-92777908D01*
X143438003Y-92806000D01*
X143581997Y-92806000D01*
X143723225Y-92777908D01*
X143856258Y-92722804D01*
X143975985Y-92642805D01*
X144077805Y-92540985D01*
X144157804Y-92421258D01*
X144212908Y-92288225D01*
X144241000Y-92146997D01*
X144241000Y-92003003D01*
X144212908Y-91861775D01*
X144157804Y-91728742D01*
X144145000Y-91709579D01*
X144145000Y-88547072D01*
X144164239Y-88518279D01*
X144219343Y-88385246D01*
X144247435Y-88244018D01*
X144247435Y-88100024D01*
X144223563Y-87980011D01*
X147645040Y-87980011D01*
X147669984Y-87982468D01*
X147694928Y-87980011D01*
X147694931Y-87980011D01*
X147769569Y-87972660D01*
X147865327Y-87943612D01*
X147953579Y-87896440D01*
X148030932Y-87832959D01*
X148046839Y-87813576D01*
X150278971Y-85581445D01*
X150282856Y-85600978D01*
X150349268Y-85761310D01*
X150445682Y-85905605D01*
X150519077Y-85979000D01*
X150445682Y-86052395D01*
X150349268Y-86196690D01*
X150282856Y-86357022D01*
X150249000Y-86527229D01*
X150249000Y-86700771D01*
X150282856Y-86870978D01*
X150349268Y-87031310D01*
X150445682Y-87175605D01*
X150519077Y-87249000D01*
X150445682Y-87322395D01*
X150349268Y-87466690D01*
X150282856Y-87627022D01*
X150249000Y-87797229D01*
X150249000Y-87970771D01*
X150282856Y-88140978D01*
X150349268Y-88301310D01*
X150445682Y-88445605D01*
X150519077Y-88519000D01*
X150515934Y-88522144D01*
X150452985Y-88459195D01*
X150333258Y-88379196D01*
X150200225Y-88324092D01*
X150058997Y-88296000D01*
X149915003Y-88296000D01*
X149773775Y-88324092D01*
X149640742Y-88379196D01*
X149521015Y-88459195D01*
X149419195Y-88561015D01*
X149339196Y-88680742D01*
X149284092Y-88813775D01*
X149256000Y-88955003D01*
X149256000Y-89098997D01*
X149284092Y-89240225D01*
X149339196Y-89373258D01*
X149419195Y-89492985D01*
X149479000Y-89552790D01*
X149479001Y-90468640D01*
X149476543Y-90493594D01*
X149483284Y-90562026D01*
X149486352Y-90593179D01*
X149491351Y-90609657D01*
X149515400Y-90688937D01*
X149562571Y-90777189D01*
X149597029Y-90819176D01*
X149626053Y-90854542D01*
X149645430Y-90870444D01*
X149991986Y-91217000D01*
X149915003Y-91217000D01*
X149773775Y-91245092D01*
X149640742Y-91300196D01*
X149521015Y-91380195D01*
X149419195Y-91482015D01*
X149339196Y-91601742D01*
X149284092Y-91734775D01*
X149256000Y-91876003D01*
X149256000Y-92019997D01*
X149274704Y-92114028D01*
X149162899Y-92091789D01*
X149018905Y-92091789D01*
X148877677Y-92119881D01*
X148744644Y-92174985D01*
X148624917Y-92254984D01*
X148523097Y-92356804D01*
X148443098Y-92476531D01*
X148387994Y-92609564D01*
X148359902Y-92750792D01*
X148359902Y-92894786D01*
X148387994Y-93036014D01*
X148443098Y-93169047D01*
X148523097Y-93288774D01*
X148624917Y-93390594D01*
X148744644Y-93470593D01*
X148877677Y-93525697D01*
X148881477Y-93526453D01*
X148875000Y-93559013D01*
X148875000Y-93703007D01*
X148885740Y-93757000D01*
X148772003Y-93757000D01*
X148630775Y-93785092D01*
X148497742Y-93840196D01*
X148378015Y-93920195D01*
X148318210Y-93980000D01*
X148106944Y-93980000D01*
X148082000Y-93977543D01*
X148057056Y-93980000D01*
X148057053Y-93980000D01*
X147982415Y-93987351D01*
X147886657Y-94016399D01*
X147860220Y-94030530D01*
X147798404Y-94063571D01*
X147757677Y-94096995D01*
X147721052Y-94127052D01*
X147705150Y-94146429D01*
X146724435Y-95127145D01*
X146705052Y-95143052D01*
X146641571Y-95220405D01*
X146594399Y-95308658D01*
X146565351Y-95404416D01*
X146558286Y-95476153D01*
X146555543Y-95504000D01*
X146558000Y-95528944D01*
X146558001Y-107036046D01*
X146555543Y-107061000D01*
X146563462Y-107141395D01*
X146565352Y-107160585D01*
X146588009Y-107235275D01*
X146594400Y-107256343D01*
X146641571Y-107344595D01*
X146684207Y-107396547D01*
X146705053Y-107421948D01*
X146724430Y-107437850D01*
X146863580Y-107577000D01*
X146725247Y-107577000D01*
X146555040Y-107610856D01*
X146394708Y-107677268D01*
X146250413Y-107773682D01*
X146127700Y-107896395D01*
X146031286Y-108040690D01*
X145964874Y-108201022D01*
X145958296Y-108234091D01*
X145921390Y-108270997D01*
X145910136Y-108156725D01*
X145859302Y-107989148D01*
X145776752Y-107834709D01*
X145665659Y-107699341D01*
X145530291Y-107588248D01*
X145375852Y-107505698D01*
X145208275Y-107454864D01*
X145034000Y-107437700D01*
X144859725Y-107454864D01*
X144692148Y-107505698D01*
X144537708Y-107588248D01*
X144436259Y-107671505D01*
X143674263Y-108433501D01*
X143640341Y-108461341D01*
X143529247Y-108596710D01*
X143466310Y-108714457D01*
X143446760Y-108751033D01*
X143446697Y-108751150D01*
X143420048Y-108839001D01*
X143406583Y-108883392D01*
X143395864Y-108918727D01*
X143383000Y-109049334D01*
X143383000Y-109049340D01*
X143378700Y-109093000D01*
X143383000Y-109136660D01*
X143383001Y-110109341D01*
X143342185Y-110068525D01*
X143342185Y-104155722D01*
X143346690Y-104158732D01*
X143507022Y-104225144D01*
X143677229Y-104259000D01*
X143850771Y-104259000D01*
X144020978Y-104225144D01*
X144181310Y-104158732D01*
X144325605Y-104062318D01*
X144448318Y-103939605D01*
X144544732Y-103795310D01*
X144611144Y-103634978D01*
X144645000Y-103464771D01*
X144645000Y-103291229D01*
X144611144Y-103121022D01*
X144544732Y-102960690D01*
X144526000Y-102932655D01*
X144526000Y-97727345D01*
X144544732Y-97699310D01*
X144611144Y-97538978D01*
X144645000Y-97368771D01*
X144645000Y-97195229D01*
X144611144Y-97025022D01*
X144544732Y-96864690D01*
X144448318Y-96720395D01*
X144325605Y-96597682D01*
X144181310Y-96501268D01*
X144020978Y-96434856D01*
X143850771Y-96401000D01*
X143677229Y-96401000D01*
X143507022Y-96434856D01*
X143346690Y-96501268D01*
X143202395Y-96597682D01*
X143079682Y-96720395D01*
X142983268Y-96864690D01*
X142916856Y-97025022D01*
X142883000Y-97195229D01*
X142883000Y-97368771D01*
X142916856Y-97538978D01*
X142983268Y-97699310D01*
X143002001Y-97727346D01*
X143002001Y-99262982D01*
X142961225Y-99246092D01*
X142819997Y-99218000D01*
X142676003Y-99218000D01*
X142534775Y-99246092D01*
X142401742Y-99301196D01*
X142282015Y-99381195D01*
X142180195Y-99483015D01*
X142100196Y-99602742D01*
X142045092Y-99735775D01*
X142017000Y-99877003D01*
X142017000Y-99980010D01*
X141984613Y-99980010D01*
X141843385Y-100008102D01*
X141710352Y-100063206D01*
X141590625Y-100143205D01*
X141488805Y-100245025D01*
X141408806Y-100364752D01*
X141353702Y-100497785D01*
X141325610Y-100639013D01*
X141325610Y-100783007D01*
X141353702Y-100924235D01*
X141408806Y-101057268D01*
X141488805Y-101176995D01*
X141548611Y-101236801D01*
X141548610Y-107770990D01*
X141506289Y-107691813D01*
X141395195Y-107556445D01*
X141259827Y-107445351D01*
X141105387Y-107362801D01*
X140937810Y-107311968D01*
X140763536Y-107294803D01*
X140589263Y-107311968D01*
X140421686Y-107362801D01*
X140267246Y-107445351D01*
X140131878Y-107556445D01*
X140020784Y-107691813D01*
X139938234Y-107846253D01*
X139887400Y-108013830D01*
X139874536Y-108144437D01*
X139874536Y-108938876D01*
X139874537Y-108938886D01*
X139874536Y-111086034D01*
X139870236Y-111129694D01*
X139874536Y-111173354D01*
X139874536Y-111173360D01*
X139881558Y-111244649D01*
X139887400Y-111303968D01*
X139896915Y-111335334D01*
X139938233Y-111471544D01*
X140020783Y-111625984D01*
X140131877Y-111761353D01*
X140165800Y-111789193D01*
X140734343Y-112357736D01*
X140762183Y-112391659D01*
X140778948Y-112405418D01*
X140705167Y-112465968D01*
X140609943Y-112581998D01*
X140539186Y-112714375D01*
X140495614Y-112858012D01*
X140484588Y-112969964D01*
X140484588Y-113182826D01*
X140466702Y-113204620D01*
X140466701Y-113204621D01*
X140395335Y-113291580D01*
X140324579Y-113423957D01*
X140281007Y-113567594D01*
X140266294Y-113716972D01*
X140269981Y-113754405D01*
X140269980Y-116402750D01*
X140266294Y-116440173D01*
X140269980Y-116477596D01*
X140269980Y-116477598D01*
X140281006Y-116589550D01*
X140324578Y-116733187D01*
X140350318Y-116781343D01*
X140395335Y-116865565D01*
X140414408Y-116888805D01*
X140490558Y-116981595D01*
X140519634Y-117005457D01*
X146888201Y-123374025D01*
X146888201Y-124081634D01*
X146757733Y-124027592D01*
X146616505Y-123999500D01*
X146472511Y-123999500D01*
X146331283Y-124027592D01*
X146198250Y-124082696D01*
X146078523Y-124162695D01*
X145976703Y-124264515D01*
X145896704Y-124384242D01*
X145841600Y-124517275D01*
X145813508Y-124658503D01*
X145813508Y-124802497D01*
X145841600Y-124943725D01*
X145896704Y-125076758D01*
X145976703Y-125196485D01*
X146036509Y-125256291D01*
X146036508Y-126371271D01*
X143624179Y-128783601D01*
X143351542Y-128783601D01*
X143326598Y-128781144D01*
X143301654Y-128783601D01*
X143301652Y-128783601D01*
X143227014Y-128790952D01*
X143131256Y-128820000D01*
X143131254Y-128820001D01*
X143043003Y-128867172D01*
X142990086Y-128910600D01*
X142904603Y-128910600D01*
X142763375Y-128938692D01*
X142630342Y-128993796D01*
X142510615Y-129073795D01*
X142408795Y-129175615D01*
X142328796Y-129295342D01*
X142273692Y-129428375D01*
X142245600Y-129569603D01*
X142245600Y-129713597D01*
X142273692Y-129854825D01*
X142328796Y-129987858D01*
X142408795Y-130107585D01*
X142510615Y-130209405D01*
X142630342Y-130289404D01*
X142763375Y-130344508D01*
X142904603Y-130372600D01*
X143048597Y-130372600D01*
X143189825Y-130344508D01*
X143322858Y-130289404D01*
X143442585Y-130209405D01*
X143544405Y-130107585D01*
X143624404Y-129987858D01*
X143679508Y-129854825D01*
X143690493Y-129799601D01*
X143809655Y-129799601D01*
X143834599Y-129802058D01*
X143859543Y-129799601D01*
X143859546Y-129799601D01*
X143934184Y-129792250D01*
X144029942Y-129763202D01*
X144118194Y-129716030D01*
X144195547Y-129652549D01*
X144211454Y-129633166D01*
X146886079Y-126958542D01*
X146888201Y-126956801D01*
X146888200Y-134835225D01*
X146899226Y-134947177D01*
X146942798Y-135090814D01*
X147013555Y-135223191D01*
X147108778Y-135339222D01*
X147224808Y-135434445D01*
X147357185Y-135505202D01*
X147500822Y-135548774D01*
X147650200Y-135563486D01*
X147799577Y-135548774D01*
X147943214Y-135505202D01*
X148075591Y-135434445D01*
X148189080Y-135341308D01*
X148269142Y-135394804D01*
X148402175Y-135449908D01*
X148543403Y-135478000D01*
X148687397Y-135478000D01*
X148828625Y-135449908D01*
X148961658Y-135394804D01*
X149081385Y-135314805D01*
X149183205Y-135212985D01*
X149263204Y-135093258D01*
X149318308Y-134960225D01*
X149321416Y-134944600D01*
X149449397Y-134944600D01*
X149590625Y-134916508D01*
X149723658Y-134861404D01*
X149843385Y-134781405D01*
X149945205Y-134679585D01*
X150025204Y-134559858D01*
X150080308Y-134426825D01*
X150108400Y-134285597D01*
X150108400Y-134141603D01*
X150096345Y-134081000D01*
X150160597Y-134081000D01*
X150301825Y-134052908D01*
X150434858Y-133997804D01*
X150554585Y-133917805D01*
X150656405Y-133815985D01*
X150736404Y-133696258D01*
X150791508Y-133563225D01*
X150819600Y-133421997D01*
X150819600Y-133278003D01*
X150791508Y-133136775D01*
X150736404Y-133003742D01*
X150656405Y-132884015D01*
X150596600Y-132824210D01*
X150596600Y-123138744D01*
X150599057Y-123113800D01*
X150596600Y-123088853D01*
X150589249Y-123014215D01*
X150560201Y-122918457D01*
X150538243Y-122877376D01*
X150513029Y-122830204D01*
X150465450Y-122772229D01*
X150449548Y-122752852D01*
X150430171Y-122736950D01*
X148825424Y-121132203D01*
X162227000Y-121132203D01*
X162227000Y-121276197D01*
X162255092Y-121417425D01*
X162310196Y-121550458D01*
X162390195Y-121670185D01*
X162492015Y-121772005D01*
X162611742Y-121852004D01*
X162744775Y-121907108D01*
X162886003Y-121935200D01*
X163029997Y-121935200D01*
X163171225Y-121907108D01*
X163304258Y-121852004D01*
X163423985Y-121772005D01*
X163525805Y-121670185D01*
X163605804Y-121550458D01*
X163660908Y-121417425D01*
X163689000Y-121276197D01*
X163689000Y-121132203D01*
X164027000Y-121132203D01*
X164027000Y-121276197D01*
X164055092Y-121417425D01*
X164110196Y-121550458D01*
X164190195Y-121670185D01*
X164292015Y-121772005D01*
X164411742Y-121852004D01*
X164544775Y-121907108D01*
X164686003Y-121935200D01*
X164829997Y-121935200D01*
X164971225Y-121907108D01*
X165104258Y-121852004D01*
X165223985Y-121772005D01*
X165325805Y-121670185D01*
X165405804Y-121550458D01*
X165460908Y-121417425D01*
X165489000Y-121276197D01*
X165489000Y-121132203D01*
X165460908Y-120990975D01*
X165405804Y-120857942D01*
X165325805Y-120738215D01*
X165223985Y-120636395D01*
X165104258Y-120556396D01*
X164971225Y-120501292D01*
X164829997Y-120473200D01*
X164686003Y-120473200D01*
X164544775Y-120501292D01*
X164411742Y-120556396D01*
X164292015Y-120636395D01*
X164190195Y-120738215D01*
X164110196Y-120857942D01*
X164055092Y-120990975D01*
X164027000Y-121132203D01*
X163689000Y-121132203D01*
X163660908Y-120990975D01*
X163605804Y-120857942D01*
X163525805Y-120738215D01*
X163423985Y-120636395D01*
X163304258Y-120556396D01*
X163171225Y-120501292D01*
X163029997Y-120473200D01*
X162886003Y-120473200D01*
X162744775Y-120501292D01*
X162611742Y-120556396D01*
X162492015Y-120636395D01*
X162390195Y-120738215D01*
X162310196Y-120857942D01*
X162255092Y-120990975D01*
X162227000Y-121132203D01*
X148825424Y-121132203D01*
X146709112Y-119015891D01*
X150751610Y-119015891D01*
X150798264Y-119201180D01*
X151017517Y-119244931D01*
X151241093Y-119245068D01*
X151460399Y-119201585D01*
X151461736Y-119201180D01*
X151508390Y-119015891D01*
X151130000Y-118637502D01*
X150751610Y-119015891D01*
X146709112Y-119015891D01*
X145914314Y-118221093D01*
X149994932Y-118221093D01*
X150038415Y-118440399D01*
X150038820Y-118441736D01*
X150224109Y-118488390D01*
X150602498Y-118110000D01*
X151657502Y-118110000D01*
X152035891Y-118488390D01*
X152221180Y-118441736D01*
X152264931Y-118222483D01*
X152265068Y-117998907D01*
X152221585Y-117779601D01*
X152221180Y-117778264D01*
X152035891Y-117731610D01*
X151657502Y-118110000D01*
X150602498Y-118110000D01*
X150224109Y-117731610D01*
X150038820Y-117778264D01*
X149995069Y-117997517D01*
X149994932Y-118221093D01*
X145914314Y-118221093D01*
X144399000Y-116705780D01*
X144399000Y-116332000D01*
X144755056Y-116332000D01*
X144780000Y-116334457D01*
X144804944Y-116332000D01*
X144804947Y-116332000D01*
X144879585Y-116324649D01*
X144975343Y-116295601D01*
X145063595Y-116248429D01*
X145140948Y-116184948D01*
X145156855Y-116165565D01*
X146518571Y-114803850D01*
X146537948Y-114787948D01*
X146577579Y-114739657D01*
X146601429Y-114710596D01*
X146648600Y-114622345D01*
X146648601Y-114622343D01*
X146677649Y-114526585D01*
X146685000Y-114451947D01*
X146685000Y-114451945D01*
X146687457Y-114427001D01*
X146685000Y-114402057D01*
X146685000Y-113181943D01*
X146687457Y-113156999D01*
X146684231Y-113124248D01*
X146677649Y-113057415D01*
X146659611Y-112997952D01*
X146659611Y-110598809D01*
X148042571Y-109215850D01*
X148061948Y-109199948D01*
X148099988Y-109153596D01*
X148125429Y-109122596D01*
X148164588Y-109049334D01*
X148172601Y-109034343D01*
X148201649Y-108938585D01*
X148209000Y-108863947D01*
X148209000Y-108863944D01*
X148211457Y-108839000D01*
X148209000Y-108814056D01*
X148209000Y-107720944D01*
X148211457Y-107696000D01*
X148208752Y-107668534D01*
X148201649Y-107596415D01*
X148172601Y-107500657D01*
X148125429Y-107412405D01*
X148061948Y-107335052D01*
X148042565Y-107319145D01*
X147574000Y-106850580D01*
X147574000Y-101457421D01*
X147641195Y-101557985D01*
X147743015Y-101659805D01*
X147862742Y-101739804D01*
X147995775Y-101794908D01*
X148137003Y-101823000D01*
X148280997Y-101823000D01*
X148422225Y-101794908D01*
X148555258Y-101739804D01*
X148674985Y-101659805D01*
X148776805Y-101557985D01*
X148856804Y-101438258D01*
X148911908Y-101305225D01*
X148940000Y-101163997D01*
X148940000Y-101020003D01*
X148911908Y-100878775D01*
X148856804Y-100745742D01*
X148776805Y-100626015D01*
X148674985Y-100524195D01*
X148555258Y-100444196D01*
X148463000Y-100405982D01*
X148463000Y-98592761D01*
X148475804Y-98573598D01*
X148530908Y-98440565D01*
X148559000Y-98299337D01*
X148559000Y-98155343D01*
X148530908Y-98014115D01*
X148475804Y-97881082D01*
X148395805Y-97761355D01*
X148293985Y-97659535D01*
X148174258Y-97579536D01*
X148041225Y-97524432D01*
X147899997Y-97496340D01*
X147756003Y-97496340D01*
X147614775Y-97524432D01*
X147574000Y-97541322D01*
X147574000Y-95714420D01*
X147681593Y-95606827D01*
X147700577Y-95652658D01*
X147780576Y-95772385D01*
X147882396Y-95874205D01*
X148002123Y-95954204D01*
X148135156Y-96009308D01*
X148157761Y-96013804D01*
X148336001Y-96192044D01*
X148336000Y-97123818D01*
X148332929Y-97155000D01*
X148336000Y-97186181D01*
X148336000Y-97186191D01*
X148345188Y-97279481D01*
X148381498Y-97399179D01*
X148440463Y-97509493D01*
X148519815Y-97606185D01*
X148544050Y-97626074D01*
X149255101Y-98337126D01*
X149255101Y-98369186D01*
X149283193Y-98510414D01*
X149338297Y-98643447D01*
X149418296Y-98763174D01*
X149520116Y-98864994D01*
X149639843Y-98944993D01*
X149772876Y-99000097D01*
X149914104Y-99028189D01*
X150058098Y-99028189D01*
X150199326Y-99000097D01*
X150332359Y-98944993D01*
X150368001Y-98921178D01*
X150368001Y-99035046D01*
X150365543Y-99060000D01*
X150370910Y-99114484D01*
X150375352Y-99159585D01*
X150404034Y-99254136D01*
X150404400Y-99255343D01*
X150451571Y-99343595D01*
X150494532Y-99395943D01*
X150515053Y-99420948D01*
X150534430Y-99436850D01*
X150716061Y-99618481D01*
X150609580Y-99689630D01*
X150507760Y-99791450D01*
X150427761Y-99911177D01*
X150372657Y-100044210D01*
X150344565Y-100185438D01*
X150344565Y-100329432D01*
X150372657Y-100470660D01*
X150427761Y-100603693D01*
X150507760Y-100723420D01*
X150609580Y-100825240D01*
X150729307Y-100905239D01*
X150862340Y-100960343D01*
X151003000Y-100988322D01*
X151003001Y-103527558D01*
X151000543Y-103552512D01*
X151005750Y-103605370D01*
X151010352Y-103652097D01*
X151023458Y-103695302D01*
X151039400Y-103747855D01*
X151086571Y-103836107D01*
X151128064Y-103886666D01*
X151134627Y-103894664D01*
X151003000Y-103881699D01*
X150828726Y-103898864D01*
X150661149Y-103949697D01*
X150506709Y-104032247D01*
X150371341Y-104143341D01*
X150260247Y-104278710D01*
X150177697Y-104433150D01*
X150126864Y-104600727D01*
X150114000Y-104731334D01*
X150114001Y-108470763D01*
X147865264Y-110719501D01*
X147831341Y-110747341D01*
X147720247Y-110882710D01*
X147637697Y-111037150D01*
X147610307Y-111127445D01*
X147594487Y-111179598D01*
X147586864Y-111204727D01*
X147574000Y-111335334D01*
X147574000Y-111335340D01*
X147569700Y-111379000D01*
X147574000Y-111422660D01*
X147574001Y-116470218D01*
X147574000Y-116470228D01*
X147574000Y-117264667D01*
X147586864Y-117395274D01*
X147637698Y-117562851D01*
X147720248Y-117717291D01*
X147831342Y-117852659D01*
X147966710Y-117963753D01*
X148121150Y-118046303D01*
X148288727Y-118097136D01*
X148463000Y-118114301D01*
X148637274Y-118097136D01*
X148804851Y-118046303D01*
X148959291Y-117963753D01*
X149094659Y-117852659D01*
X149205753Y-117717291D01*
X149288303Y-117562851D01*
X149339136Y-117395274D01*
X149352000Y-117264667D01*
X149352000Y-117204109D01*
X150751610Y-117204109D01*
X151130000Y-117582498D01*
X151508390Y-117204109D01*
X151461736Y-117018820D01*
X151242483Y-116975069D01*
X151018907Y-116974932D01*
X150799601Y-117018415D01*
X150798264Y-117018820D01*
X150751610Y-117204109D01*
X149352000Y-117204109D01*
X149352000Y-111747235D01*
X151600742Y-109498494D01*
X151634659Y-109470659D01*
X151745753Y-109335291D01*
X151828303Y-109180851D01*
X151855697Y-109090544D01*
X151879136Y-109013276D01*
X151884516Y-108958648D01*
X151892000Y-108882667D01*
X151892000Y-108882661D01*
X151896300Y-108839001D01*
X151892000Y-108795341D01*
X151892000Y-108160420D01*
X152400000Y-108668420D01*
X152400001Y-111481046D01*
X152397543Y-111506000D01*
X152405138Y-111583109D01*
X152407352Y-111605585D01*
X152416973Y-111637301D01*
X152436400Y-111701343D01*
X152483571Y-111789595D01*
X152516502Y-111829721D01*
X152547053Y-111866948D01*
X152566430Y-111882850D01*
X153162000Y-112478420D01*
X153162001Y-115926044D01*
X153162000Y-115926054D01*
X153162001Y-117389864D01*
X153108395Y-117425682D01*
X152985682Y-117548395D01*
X152889268Y-117692690D01*
X152822856Y-117853022D01*
X152789000Y-118023229D01*
X152789000Y-118196771D01*
X152822856Y-118366978D01*
X152889268Y-118527310D01*
X152985682Y-118671605D01*
X153108395Y-118794318D01*
X153252690Y-118890732D01*
X153413022Y-118957144D01*
X153583229Y-118991000D01*
X153756771Y-118991000D01*
X153926978Y-118957144D01*
X154087310Y-118890732D01*
X154231605Y-118794318D01*
X154354318Y-118671605D01*
X154450732Y-118527310D01*
X154517144Y-118366978D01*
X154551000Y-118196771D01*
X154551000Y-118023229D01*
X154517144Y-117853022D01*
X154450732Y-117692690D01*
X154354318Y-117548395D01*
X154231605Y-117425682D01*
X154178000Y-117389865D01*
X154178000Y-117335235D01*
X154940000Y-118097236D01*
X154940000Y-118235084D01*
X154988805Y-118480445D01*
X155084541Y-118711571D01*
X155223527Y-118919578D01*
X155400422Y-119096473D01*
X155608429Y-119235459D01*
X155839555Y-119331195D01*
X156059477Y-119374940D01*
X156040492Y-119420775D01*
X156012400Y-119562003D01*
X156012400Y-119705997D01*
X156040492Y-119847225D01*
X156095596Y-119980258D01*
X156175595Y-120099985D01*
X156277415Y-120201805D01*
X156397142Y-120281804D01*
X156530175Y-120336908D01*
X156671403Y-120365000D01*
X156815397Y-120365000D01*
X156956625Y-120336908D01*
X157089658Y-120281804D01*
X157209385Y-120201805D01*
X157269190Y-120142000D01*
X159918856Y-120142000D01*
X159943800Y-120144457D01*
X159968744Y-120142000D01*
X159968747Y-120142000D01*
X160043385Y-120134649D01*
X160139143Y-120105601D01*
X160227395Y-120058429D01*
X160304748Y-119994948D01*
X160320655Y-119975565D01*
X160540820Y-119755400D01*
X160625397Y-119755400D01*
X160766625Y-119727308D01*
X160899658Y-119672204D01*
X161019385Y-119592205D01*
X161121205Y-119490385D01*
X161201204Y-119370658D01*
X161256308Y-119237625D01*
X161284400Y-119096397D01*
X161284400Y-118952403D01*
X161256308Y-118811175D01*
X161201204Y-118678142D01*
X161121205Y-118558415D01*
X161019385Y-118456595D01*
X160899658Y-118376596D01*
X160766625Y-118321492D01*
X160625397Y-118293400D01*
X160481403Y-118293400D01*
X160340175Y-118321492D01*
X160207142Y-118376596D01*
X160087415Y-118456595D01*
X159985595Y-118558415D01*
X159905596Y-118678142D01*
X159850492Y-118811175D01*
X159822400Y-118952403D01*
X159822400Y-119036980D01*
X159733380Y-119126000D01*
X157269190Y-119126000D01*
X157209385Y-119066195D01*
X157113754Y-119002297D01*
X157196473Y-118919578D01*
X157335459Y-118711571D01*
X157431195Y-118480445D01*
X157480000Y-118235084D01*
X157480000Y-117984916D01*
X157431195Y-117739555D01*
X157335459Y-117508429D01*
X157196473Y-117300422D01*
X157019578Y-117123527D01*
X156811571Y-116984541D01*
X156580445Y-116888805D01*
X156335084Y-116840000D01*
X156580445Y-116791195D01*
X156811571Y-116695459D01*
X157019578Y-116556473D01*
X157196473Y-116379578D01*
X157335459Y-116171571D01*
X157431195Y-115940445D01*
X157480000Y-115695084D01*
X157480000Y-115444916D01*
X157431195Y-115199555D01*
X157335459Y-114968429D01*
X157196473Y-114760422D01*
X157019578Y-114583527D01*
X156811571Y-114444541D01*
X156580445Y-114348805D01*
X156335084Y-114300000D01*
X156580445Y-114251195D01*
X156811571Y-114155459D01*
X157019578Y-114016473D01*
X157196473Y-113839578D01*
X157335459Y-113631571D01*
X157431195Y-113400445D01*
X157480000Y-113155084D01*
X157480000Y-112904916D01*
X157431195Y-112659555D01*
X157335459Y-112428429D01*
X157196473Y-112220422D01*
X157019578Y-112043527D01*
X156811571Y-111904541D01*
X156580445Y-111808805D01*
X156572943Y-111807313D01*
X156494017Y-111728387D01*
X156580445Y-111711195D01*
X156811571Y-111615459D01*
X157019578Y-111476473D01*
X157142515Y-111353536D01*
X158400000Y-112611021D01*
X158400000Y-112695597D01*
X158428092Y-112836825D01*
X158483196Y-112969858D01*
X158563195Y-113089585D01*
X158665015Y-113191405D01*
X158784742Y-113271404D01*
X158917775Y-113326508D01*
X159059003Y-113354600D01*
X159202997Y-113354600D01*
X159344225Y-113326508D01*
X159477258Y-113271404D01*
X159596985Y-113191405D01*
X159698805Y-113089585D01*
X159778804Y-112969858D01*
X159833908Y-112836825D01*
X159862000Y-112695597D01*
X159862000Y-112551603D01*
X159833908Y-112410375D01*
X159778804Y-112277342D01*
X159698805Y-112157615D01*
X159596985Y-112055795D01*
X159477258Y-111975796D01*
X159344225Y-111920692D01*
X159202997Y-111892600D01*
X159118421Y-111892600D01*
X157452504Y-110226684D01*
X157431195Y-110119555D01*
X157335459Y-109888429D01*
X157308972Y-109848788D01*
X157400241Y-109787804D01*
X157502061Y-109685984D01*
X157582060Y-109566257D01*
X157637164Y-109433224D01*
X157665256Y-109291996D01*
X157665256Y-109207419D01*
X158239169Y-108633507D01*
X158258547Y-108617604D01*
X158288833Y-108580700D01*
X158322028Y-108540252D01*
X158369199Y-108452001D01*
X158369200Y-108451999D01*
X158398248Y-108356240D01*
X158405599Y-108281602D01*
X158405599Y-108281601D01*
X158408056Y-108256657D01*
X158405599Y-108231713D01*
X158405599Y-108047621D01*
X158427019Y-108026200D01*
X163713303Y-108026200D01*
X163740996Y-108093058D01*
X163820995Y-108212785D01*
X163922815Y-108314605D01*
X164042542Y-108394604D01*
X164175575Y-108449708D01*
X164316803Y-108477800D01*
X164460797Y-108477800D01*
X164602025Y-108449708D01*
X164735058Y-108394604D01*
X164854785Y-108314605D01*
X164956605Y-108212785D01*
X165036604Y-108093058D01*
X165091708Y-107960025D01*
X165119800Y-107818797D01*
X165119800Y-107708820D01*
X166865421Y-105963200D01*
X166949997Y-105963200D01*
X167091225Y-105935108D01*
X167224258Y-105880004D01*
X167343985Y-105800005D01*
X167445805Y-105698185D01*
X167525804Y-105578458D01*
X167580908Y-105445425D01*
X167609000Y-105304197D01*
X167609000Y-105160203D01*
X167580908Y-105018975D01*
X167525804Y-104885942D01*
X167445805Y-104766215D01*
X167343985Y-104664395D01*
X167224258Y-104584396D01*
X167091225Y-104529292D01*
X166949997Y-104501200D01*
X166806003Y-104501200D01*
X166664775Y-104529292D01*
X166598600Y-104556703D01*
X166598600Y-104455849D01*
X166641108Y-104353225D01*
X166669200Y-104211997D01*
X166669200Y-104068003D01*
X166641108Y-103926775D01*
X166586004Y-103793742D01*
X166506005Y-103674015D01*
X166404185Y-103572195D01*
X166284458Y-103492196D01*
X166151425Y-103437092D01*
X166010197Y-103409000D01*
X165866203Y-103409000D01*
X165724975Y-103437092D01*
X165591942Y-103492196D01*
X165472215Y-103572195D01*
X165370395Y-103674015D01*
X165290396Y-103793742D01*
X165235292Y-103926775D01*
X165207200Y-104068003D01*
X165207200Y-104211997D01*
X165235292Y-104353225D01*
X165290396Y-104486258D01*
X165370395Y-104605985D01*
X165472215Y-104707805D01*
X165582601Y-104781562D01*
X165582600Y-105097979D01*
X164199630Y-106480950D01*
X164152980Y-106527600D01*
X162842360Y-106527600D01*
X162814277Y-106459802D01*
X162734278Y-106340075D01*
X162632458Y-106238255D01*
X162512731Y-106158256D01*
X162379698Y-106103152D01*
X162238470Y-106075060D01*
X162094476Y-106075060D01*
X161953248Y-106103152D01*
X161820215Y-106158256D01*
X161700488Y-106238255D01*
X161598668Y-106340075D01*
X161518669Y-106459802D01*
X161490586Y-106527600D01*
X159683994Y-106527600D01*
X159520229Y-106363835D01*
X159504322Y-106344452D01*
X159426969Y-106280971D01*
X159338717Y-106233799D01*
X159242959Y-106204751D01*
X159174831Y-106198041D01*
X159114385Y-106137595D01*
X158994658Y-106057596D01*
X158861625Y-106002492D01*
X158720397Y-105974400D01*
X158576403Y-105974400D01*
X158439610Y-106001610D01*
X158439610Y-103182099D01*
X158483304Y-103190790D01*
X158484754Y-103191565D01*
X158558347Y-103230902D01*
X158678045Y-103267212D01*
X158771335Y-103276400D01*
X158771338Y-103276400D01*
X158802527Y-103279472D01*
X158833716Y-103276400D01*
X159679979Y-103276400D01*
X159699142Y-103289204D01*
X159832175Y-103344308D01*
X159973403Y-103372400D01*
X160117397Y-103372400D01*
X160258625Y-103344308D01*
X160391658Y-103289204D01*
X160511385Y-103209205D01*
X160613205Y-103107385D01*
X160693204Y-102987658D01*
X160748308Y-102854625D01*
X160776400Y-102713397D01*
X160776400Y-102569403D01*
X160748308Y-102428175D01*
X160693204Y-102295142D01*
X160613205Y-102175415D01*
X160511385Y-102073595D01*
X160391658Y-101993596D01*
X160258625Y-101938492D01*
X160117397Y-101910400D01*
X159973403Y-101910400D01*
X159832175Y-101938492D01*
X159699142Y-101993596D01*
X159679979Y-102006400D01*
X159201317Y-102006400D01*
X159103195Y-101908278D01*
X158983468Y-101828279D01*
X158850435Y-101773175D01*
X158709207Y-101745083D01*
X158565213Y-101745083D01*
X158439610Y-101770067D01*
X158439610Y-98804953D01*
X158559623Y-98828825D01*
X158703617Y-98828825D01*
X158844845Y-98800733D01*
X158977878Y-98745629D01*
X159097605Y-98665630D01*
X159199425Y-98563810D01*
X159279424Y-98444083D01*
X159334528Y-98311050D01*
X159362620Y-98169822D01*
X159362620Y-98025828D01*
X159334528Y-97884600D01*
X159284084Y-97762818D01*
X159352844Y-97749141D01*
X159485877Y-97694037D01*
X159605604Y-97614038D01*
X159707424Y-97512218D01*
X159787423Y-97392491D01*
X159842527Y-97259458D01*
X159870619Y-97118230D01*
X159870619Y-96974236D01*
X159842527Y-96833008D01*
X159787423Y-96699975D01*
X159707424Y-96580248D01*
X159654937Y-96527761D01*
X159654937Y-95511247D01*
X159714742Y-95451442D01*
X159794741Y-95331715D01*
X159849845Y-95198682D01*
X159877937Y-95057454D01*
X159877937Y-94913460D01*
X159849845Y-94772232D01*
X159794741Y-94639199D01*
X159714742Y-94519472D01*
X159612922Y-94417652D01*
X159493195Y-94337653D01*
X159360162Y-94282549D01*
X159218934Y-94254457D01*
X159074940Y-94254457D01*
X158947264Y-94279853D01*
X158947264Y-86132203D01*
X162227000Y-86132203D01*
X162227000Y-86276197D01*
X162255092Y-86417425D01*
X162310196Y-86550458D01*
X162390195Y-86670185D01*
X162492015Y-86772005D01*
X162611742Y-86852004D01*
X162744775Y-86907108D01*
X162886003Y-86935200D01*
X163029997Y-86935200D01*
X163171225Y-86907108D01*
X163304258Y-86852004D01*
X163423985Y-86772005D01*
X163525805Y-86670185D01*
X163605804Y-86550458D01*
X163660908Y-86417425D01*
X163689000Y-86276197D01*
X163689000Y-86132203D01*
X164027000Y-86132203D01*
X164027000Y-86276197D01*
X164055092Y-86417425D01*
X164110196Y-86550458D01*
X164190195Y-86670185D01*
X164292015Y-86772005D01*
X164411742Y-86852004D01*
X164544775Y-86907108D01*
X164686003Y-86935200D01*
X164829997Y-86935200D01*
X164971225Y-86907108D01*
X165104258Y-86852004D01*
X165223985Y-86772005D01*
X165325805Y-86670185D01*
X165405804Y-86550458D01*
X165460908Y-86417425D01*
X165489000Y-86276197D01*
X165489000Y-86132203D01*
X165460908Y-85990975D01*
X165405804Y-85857942D01*
X165325805Y-85738215D01*
X165223985Y-85636395D01*
X165104258Y-85556396D01*
X164971225Y-85501292D01*
X164829997Y-85473200D01*
X164686003Y-85473200D01*
X164544775Y-85501292D01*
X164411742Y-85556396D01*
X164292015Y-85636395D01*
X164190195Y-85738215D01*
X164110196Y-85857942D01*
X164055092Y-85990975D01*
X164027000Y-86132203D01*
X163689000Y-86132203D01*
X163660908Y-85990975D01*
X163605804Y-85857942D01*
X163525805Y-85738215D01*
X163423985Y-85636395D01*
X163304258Y-85556396D01*
X163171225Y-85501292D01*
X163029997Y-85473200D01*
X162886003Y-85473200D01*
X162744775Y-85501292D01*
X162611742Y-85556396D01*
X162492015Y-85636395D01*
X162390195Y-85738215D01*
X162310196Y-85857942D01*
X162255092Y-85990975D01*
X162227000Y-86132203D01*
X158947264Y-86132203D01*
X158947264Y-86125008D01*
X158949721Y-86100064D01*
X158945960Y-86061876D01*
X158939913Y-86000479D01*
X158910865Y-85904721D01*
X158863693Y-85816469D01*
X158800212Y-85739116D01*
X158780829Y-85723209D01*
X158719000Y-85661380D01*
X158719000Y-85576803D01*
X158690908Y-85435575D01*
X158635804Y-85302542D01*
X158555805Y-85182815D01*
X158453985Y-85080995D01*
X158334258Y-85000996D01*
X158201225Y-84945892D01*
X158059997Y-84917800D01*
X157916003Y-84917800D01*
X157774775Y-84945892D01*
X157641742Y-85000996D01*
X157522015Y-85080995D01*
X157480000Y-85123010D01*
X157480000Y-84964916D01*
X157431195Y-84719555D01*
X157335459Y-84488429D01*
X157196473Y-84280422D01*
X157019578Y-84103527D01*
X156811571Y-83964541D01*
X156580445Y-83868805D01*
X156335084Y-83820000D01*
X156580445Y-83771195D01*
X156811571Y-83675459D01*
X157019578Y-83536473D01*
X157196473Y-83359578D01*
X157335459Y-83151571D01*
X157431195Y-82920445D01*
X157480000Y-82675084D01*
X157480000Y-82424916D01*
X157431195Y-82179555D01*
X157335459Y-81948429D01*
X157196473Y-81740422D01*
X157019578Y-81563527D01*
X156811571Y-81424541D01*
X156580445Y-81328805D01*
X156335084Y-81280000D01*
X156580445Y-81231195D01*
X156811571Y-81135459D01*
X157019578Y-80996473D01*
X157196473Y-80819578D01*
X157335459Y-80611571D01*
X157431195Y-80380445D01*
X157480000Y-80135084D01*
X157480000Y-79884916D01*
X157431195Y-79639555D01*
X157335459Y-79408429D01*
X157196473Y-79200422D01*
X157019578Y-79023527D01*
X156811571Y-78884541D01*
X156580445Y-78788805D01*
X156335084Y-78740000D01*
X156580445Y-78691195D01*
X156811571Y-78595459D01*
X157019578Y-78456473D01*
X157196473Y-78279578D01*
X157335459Y-78071571D01*
X157431195Y-77840445D01*
X157480000Y-77595084D01*
X157480000Y-77344916D01*
X157431195Y-77099555D01*
X157335459Y-76868429D01*
X157196473Y-76660422D01*
X157019578Y-76483527D01*
X156811571Y-76344541D01*
X156580445Y-76248805D01*
X156335084Y-76200000D01*
X156580445Y-76151195D01*
X156811571Y-76055459D01*
X157019578Y-75916473D01*
X157196473Y-75739578D01*
X157335459Y-75531571D01*
X157431195Y-75300445D01*
X157480000Y-75055084D01*
X157480000Y-74804916D01*
X157431195Y-74559555D01*
X157335459Y-74328429D01*
X157196473Y-74120422D01*
X157019578Y-73943527D01*
X156977471Y-73915392D01*
X157099000Y-73917072D01*
X157223482Y-73904812D01*
X157343180Y-73868502D01*
X157453494Y-73809537D01*
X157550185Y-73730185D01*
X157629537Y-73633494D01*
X157688502Y-73523180D01*
X157724812Y-73403482D01*
X157737072Y-73279000D01*
X157734000Y-73056750D01*
X157575250Y-72898000D01*
X156718000Y-72898000D01*
X156718000Y-72918000D01*
X155702000Y-72918000D01*
X155702000Y-72898000D01*
X154844750Y-72898000D01*
X154686000Y-73056750D01*
X154682928Y-73279000D01*
X154695188Y-73403482D01*
X154731498Y-73523180D01*
X154790463Y-73633494D01*
X154869815Y-73730185D01*
X154966506Y-73809537D01*
X155076820Y-73868502D01*
X155196518Y-73904812D01*
X155321000Y-73917072D01*
X155442529Y-73915392D01*
X155400422Y-73943527D01*
X155223527Y-74120422D01*
X155084541Y-74328429D01*
X154988805Y-74559555D01*
X154940000Y-74804916D01*
X154940000Y-75055084D01*
X154988805Y-75300445D01*
X155084541Y-75531571D01*
X155223527Y-75739578D01*
X155400422Y-75916473D01*
X155608429Y-76055459D01*
X155839555Y-76151195D01*
X156084916Y-76200000D01*
X155839555Y-76248805D01*
X155608429Y-76344541D01*
X155400422Y-76483527D01*
X155223527Y-76660422D01*
X155084541Y-76868429D01*
X154988805Y-77099555D01*
X154940000Y-77344916D01*
X154940000Y-77595084D01*
X154988805Y-77840445D01*
X155084541Y-78071571D01*
X155223527Y-78279578D01*
X155400422Y-78456473D01*
X155608429Y-78595459D01*
X155839555Y-78691195D01*
X156084916Y-78740000D01*
X155839555Y-78788805D01*
X155608429Y-78884541D01*
X155400422Y-79023527D01*
X155223527Y-79200422D01*
X155084541Y-79408429D01*
X154988805Y-79639555D01*
X154940000Y-79884916D01*
X154940000Y-80135084D01*
X154988805Y-80380445D01*
X155084541Y-80611571D01*
X155223527Y-80819578D01*
X155400422Y-80996473D01*
X155608429Y-81135459D01*
X155839555Y-81231195D01*
X156084916Y-81280000D01*
X155839555Y-81328805D01*
X155608429Y-81424541D01*
X155400422Y-81563527D01*
X155223527Y-81740422D01*
X155084541Y-81948429D01*
X154988805Y-82179555D01*
X154940000Y-82424916D01*
X154940000Y-82675084D01*
X154988805Y-82920445D01*
X155084541Y-83151571D01*
X155223527Y-83359578D01*
X155400422Y-83536473D01*
X155608429Y-83675459D01*
X155839555Y-83771195D01*
X156084916Y-83820000D01*
X155839555Y-83868805D01*
X155608429Y-83964541D01*
X155400422Y-84103527D01*
X155223527Y-84280422D01*
X155084541Y-84488429D01*
X154988805Y-84719555D01*
X154940000Y-84964916D01*
X154940000Y-85215084D01*
X154988805Y-85460445D01*
X155084541Y-85691571D01*
X155223527Y-85899578D01*
X155400422Y-86076473D01*
X155608429Y-86215459D01*
X155721497Y-86262293D01*
X155667536Y-86369115D01*
X156210000Y-86911580D01*
X156752464Y-86369115D01*
X156698503Y-86262293D01*
X156811571Y-86215459D01*
X157019578Y-86076473D01*
X157196473Y-85899578D01*
X157270519Y-85788761D01*
X157285092Y-85862025D01*
X157340196Y-85995058D01*
X157420195Y-86114785D01*
X157522015Y-86216605D01*
X157641742Y-86296604D01*
X157774775Y-86351708D01*
X157916003Y-86379800D01*
X157931264Y-86379800D01*
X157931264Y-89428610D01*
X157904429Y-89378405D01*
X157840948Y-89301052D01*
X157821565Y-89285145D01*
X157120255Y-88583835D01*
X157104348Y-88564452D01*
X157026995Y-88500971D01*
X156938743Y-88453799D01*
X156842985Y-88424751D01*
X156768347Y-88417400D01*
X156768344Y-88417400D01*
X156743400Y-88414943D01*
X156718456Y-88417400D01*
X156278980Y-88417400D01*
X156210000Y-88348420D01*
X156195858Y-88362563D01*
X155477438Y-87644143D01*
X155491580Y-87630000D01*
X156928420Y-87630000D01*
X157470885Y-88172464D01*
X157677349Y-88068169D01*
X157734637Y-87773485D01*
X157733334Y-87473286D01*
X157677349Y-87191831D01*
X157470885Y-87087536D01*
X156928420Y-87630000D01*
X155491580Y-87630000D01*
X154949115Y-87087536D01*
X154742651Y-87191831D01*
X154729435Y-87259814D01*
X153543000Y-86073380D01*
X153543000Y-85191143D01*
X153545457Y-85166199D01*
X153542713Y-85138343D01*
X153535649Y-85066615D01*
X153506601Y-84970857D01*
X153503791Y-84965600D01*
X153459429Y-84882604D01*
X153411850Y-84824629D01*
X153395948Y-84805252D01*
X153376571Y-84789350D01*
X152262643Y-83675423D01*
X152246736Y-83656040D01*
X152169383Y-83592559D01*
X152081131Y-83545387D01*
X151985373Y-83516339D01*
X151910735Y-83508988D01*
X151910732Y-83508988D01*
X151885788Y-83506531D01*
X151860844Y-83508988D01*
X150195956Y-83508988D01*
X150171012Y-83506531D01*
X150146068Y-83508988D01*
X150146065Y-83508988D01*
X150071427Y-83516339D01*
X149975669Y-83545387D01*
X149934588Y-83567345D01*
X149887416Y-83592559D01*
X149832822Y-83637364D01*
X149810064Y-83656040D01*
X149794162Y-83675417D01*
X146982580Y-86487000D01*
X141777647Y-86487000D01*
X141688122Y-86397475D01*
X141719404Y-86350658D01*
X141774508Y-86217625D01*
X141802600Y-86076397D01*
X141802600Y-85932403D01*
X141774508Y-85791175D01*
X141719404Y-85658142D01*
X141639405Y-85538415D01*
X141537585Y-85436595D01*
X141417858Y-85356596D01*
X141284825Y-85301492D01*
X141143597Y-85273400D01*
X140999603Y-85273400D01*
X140858375Y-85301492D01*
X140725342Y-85356596D01*
X140605615Y-85436595D01*
X140503795Y-85538415D01*
X140423796Y-85658142D01*
X140368692Y-85791175D01*
X140340600Y-85932403D01*
X140340600Y-86024247D01*
X139420610Y-85104258D01*
X139420610Y-83725698D01*
X141113122Y-83725698D01*
X141182827Y-83909770D01*
X141433951Y-83941526D01*
X141686444Y-83923680D01*
X141756373Y-83909770D01*
X141826078Y-83725698D01*
X143424522Y-83725698D01*
X143494227Y-83909770D01*
X143745351Y-83941526D01*
X143997844Y-83923680D01*
X144067773Y-83909770D01*
X144137478Y-83725698D01*
X145786722Y-83725698D01*
X145856427Y-83909770D01*
X146107551Y-83941526D01*
X146360044Y-83923680D01*
X146429973Y-83909770D01*
X146499678Y-83725698D01*
X146143200Y-83369220D01*
X145786722Y-83725698D01*
X144137478Y-83725698D01*
X143781000Y-83369220D01*
X143424522Y-83725698D01*
X141826078Y-83725698D01*
X141469600Y-83369220D01*
X141113122Y-83725698D01*
X139420610Y-83725698D01*
X139420610Y-82615151D01*
X140178874Y-82615151D01*
X140196720Y-82867644D01*
X140210630Y-82937573D01*
X140394702Y-83007278D01*
X140751180Y-82650800D01*
X142188020Y-82650800D01*
X142544498Y-83007278D01*
X142625300Y-82976680D01*
X142706102Y-83007278D01*
X143062580Y-82650800D01*
X144499420Y-82650800D01*
X144855898Y-83007278D01*
X144962100Y-82967061D01*
X145068302Y-83007278D01*
X145424780Y-82650800D01*
X146861620Y-82650800D01*
X147218098Y-83007278D01*
X147402170Y-82937573D01*
X147433926Y-82686449D01*
X147416080Y-82433956D01*
X147402170Y-82364027D01*
X147218098Y-82294322D01*
X146861620Y-82650800D01*
X145424780Y-82650800D01*
X145068302Y-82294322D01*
X144962100Y-82334539D01*
X144855898Y-82294322D01*
X144499420Y-82650800D01*
X143062580Y-82650800D01*
X142706102Y-82294322D01*
X142625300Y-82324920D01*
X142544498Y-82294322D01*
X142188020Y-82650800D01*
X140751180Y-82650800D01*
X140394702Y-82294322D01*
X140210630Y-82364027D01*
X140178874Y-82615151D01*
X139420610Y-82615151D01*
X139420610Y-81927033D01*
X139424296Y-81889610D01*
X139417873Y-81824399D01*
X139409584Y-81740232D01*
X139366012Y-81596595D01*
X139333075Y-81534974D01*
X139295255Y-81464217D01*
X139223889Y-81377258D01*
X139200032Y-81348188D01*
X139170962Y-81324331D01*
X139108529Y-81261898D01*
X141113122Y-81261898D01*
X141172576Y-81418900D01*
X141113122Y-81575902D01*
X141469600Y-81932380D01*
X141742699Y-81659281D01*
X143154140Y-81659281D01*
X143273625Y-81876603D01*
X143588223Y-81945563D01*
X143910229Y-81951822D01*
X144227269Y-81895140D01*
X144288375Y-81876603D01*
X144407860Y-81659281D01*
X144010478Y-81261898D01*
X145786722Y-81261898D01*
X145846176Y-81418900D01*
X145786722Y-81575902D01*
X146143200Y-81932380D01*
X146499678Y-81575902D01*
X146440224Y-81418900D01*
X146499678Y-81261898D01*
X146143200Y-80905420D01*
X145786722Y-81261898D01*
X144010478Y-81261898D01*
X143781000Y-81032420D01*
X143154140Y-81659281D01*
X141742699Y-81659281D01*
X141826078Y-81575902D01*
X141766624Y-81418900D01*
X141826078Y-81261898D01*
X141469600Y-80905420D01*
X141113122Y-81261898D01*
X139108529Y-81261898D01*
X137997982Y-80151351D01*
X140178874Y-80151351D01*
X140196720Y-80403844D01*
X140210630Y-80473773D01*
X140394702Y-80543478D01*
X140494951Y-80443229D01*
X142143178Y-80443229D01*
X142199860Y-80760269D01*
X142218397Y-80821375D01*
X142435719Y-80940860D01*
X143062580Y-80314000D01*
X144499420Y-80314000D01*
X145126281Y-80940860D01*
X145343603Y-80821375D01*
X145412563Y-80506777D01*
X145418660Y-80193120D01*
X145424780Y-80187000D01*
X146861620Y-80187000D01*
X147218098Y-80543478D01*
X147402170Y-80473773D01*
X147433926Y-80222649D01*
X147416080Y-79970156D01*
X147402170Y-79900227D01*
X147218098Y-79830522D01*
X146861620Y-80187000D01*
X145424780Y-80187000D01*
X145418010Y-80180230D01*
X145362140Y-79867731D01*
X145343603Y-79806625D01*
X145126281Y-79687140D01*
X144930847Y-79882574D01*
X144884230Y-79900227D01*
X144880037Y-79933383D01*
X144499420Y-80314000D01*
X143062580Y-80314000D01*
X142744286Y-79995706D01*
X142742480Y-79970156D01*
X142728570Y-79900227D01*
X142600191Y-79851612D01*
X142435719Y-79687140D01*
X142218397Y-79806625D01*
X142149437Y-80121223D01*
X142143178Y-80443229D01*
X140494951Y-80443229D01*
X140751180Y-80187000D01*
X140394702Y-79830522D01*
X140210630Y-79900227D01*
X140178874Y-80151351D01*
X137997982Y-80151351D01*
X137738601Y-79891971D01*
X137738601Y-79026698D01*
X141113122Y-79026698D01*
X141129293Y-79069400D01*
X141113122Y-79112102D01*
X141165174Y-79164154D01*
X141182827Y-79210770D01*
X141215983Y-79214963D01*
X141469600Y-79468580D01*
X141720218Y-79217962D01*
X141756373Y-79210770D01*
X141774026Y-79164154D01*
X141826078Y-79112102D01*
X141809907Y-79069400D01*
X141826078Y-79026698D01*
X141774026Y-78974646D01*
X141771782Y-78968719D01*
X143154140Y-78968719D01*
X143781000Y-79595580D01*
X144349881Y-79026698D01*
X145786722Y-79026698D01*
X145802893Y-79069400D01*
X145786722Y-79112102D01*
X145838774Y-79164154D01*
X145856427Y-79210770D01*
X145889583Y-79214963D01*
X146143200Y-79468580D01*
X146393818Y-79217962D01*
X146429973Y-79210770D01*
X146447626Y-79164154D01*
X146499678Y-79112102D01*
X146483507Y-79069400D01*
X146499678Y-79026698D01*
X146447626Y-78974646D01*
X146429973Y-78928030D01*
X146396817Y-78923837D01*
X146143200Y-78670220D01*
X145892582Y-78920838D01*
X145856427Y-78928030D01*
X145838774Y-78974646D01*
X145786722Y-79026698D01*
X144349881Y-79026698D01*
X144407860Y-78968719D01*
X144288375Y-78751397D01*
X143973777Y-78682437D01*
X143789638Y-78678858D01*
X143781000Y-78670220D01*
X143772692Y-78678528D01*
X143651771Y-78676178D01*
X143334731Y-78732860D01*
X143273625Y-78751397D01*
X143154140Y-78968719D01*
X141771782Y-78968719D01*
X141756373Y-78928030D01*
X141723217Y-78923837D01*
X141469600Y-78670220D01*
X141218982Y-78920838D01*
X141182827Y-78928030D01*
X141165174Y-78974646D01*
X141113122Y-79026698D01*
X137738601Y-79026698D01*
X137738601Y-77916151D01*
X140178874Y-77916151D01*
X140196720Y-78168644D01*
X140210630Y-78238573D01*
X140394702Y-78308278D01*
X140751180Y-77951800D01*
X142188020Y-77951800D01*
X142544498Y-78308278D01*
X142625300Y-78277680D01*
X142706102Y-78308278D01*
X143062580Y-77951800D01*
X144499420Y-77951800D01*
X144855898Y-78308278D01*
X144962100Y-78268061D01*
X145068302Y-78308278D01*
X145424780Y-77951800D01*
X146861620Y-77951800D01*
X147218098Y-78308278D01*
X147402170Y-78238573D01*
X147433926Y-77987449D01*
X147416080Y-77734956D01*
X147402170Y-77665027D01*
X147218098Y-77595322D01*
X146861620Y-77951800D01*
X145424780Y-77951800D01*
X145068302Y-77595322D01*
X144962100Y-77635539D01*
X144855898Y-77595322D01*
X144499420Y-77951800D01*
X143062580Y-77951800D01*
X142706102Y-77595322D01*
X142625300Y-77625920D01*
X142544498Y-77595322D01*
X142188020Y-77951800D01*
X140751180Y-77951800D01*
X140394702Y-77595322D01*
X140210630Y-77665027D01*
X140178874Y-77916151D01*
X137738601Y-77916151D01*
X137738601Y-76876902D01*
X141113122Y-76876902D01*
X141469600Y-77233380D01*
X141826078Y-76876902D01*
X143424522Y-76876902D01*
X143781000Y-77233380D01*
X144137478Y-76876902D01*
X145786722Y-76876902D01*
X146143200Y-77233380D01*
X146499678Y-76876902D01*
X146429973Y-76692830D01*
X146178849Y-76661074D01*
X145926356Y-76678920D01*
X145856427Y-76692830D01*
X145786722Y-76876902D01*
X144137478Y-76876902D01*
X144067773Y-76692830D01*
X143816649Y-76661074D01*
X143564156Y-76678920D01*
X143494227Y-76692830D01*
X143424522Y-76876902D01*
X141826078Y-76876902D01*
X141756373Y-76692830D01*
X141505249Y-76661074D01*
X141252756Y-76678920D01*
X141182827Y-76692830D01*
X141113122Y-76876902D01*
X137738601Y-76876902D01*
X137738601Y-74206088D01*
X137753144Y-74170978D01*
X137787000Y-74000771D01*
X137787000Y-73827229D01*
X137753144Y-73657022D01*
X137686732Y-73496690D01*
X137590318Y-73352395D01*
X137467605Y-73229682D01*
X137323310Y-73133268D01*
X137162978Y-73066856D01*
X136992771Y-73033000D01*
X136819229Y-73033000D01*
X136649022Y-73066856D01*
X136488690Y-73133268D01*
X136344395Y-73229682D01*
X136221682Y-73352395D01*
X136125268Y-73496690D01*
X136058856Y-73657022D01*
X136025000Y-73827229D01*
X136025000Y-74000771D01*
X136058856Y-74170978D01*
X136125268Y-74331310D01*
X136214602Y-74465009D01*
X136214602Y-74477992D01*
X136088997Y-74453008D01*
X135945003Y-74453008D01*
X135803775Y-74481100D01*
X135670742Y-74536204D01*
X135551015Y-74616203D01*
X135449195Y-74718023D01*
X135369196Y-74837750D01*
X135314092Y-74970783D01*
X135286000Y-75112011D01*
X135286000Y-75256005D01*
X135314092Y-75397233D01*
X135369196Y-75530266D01*
X135449195Y-75649993D01*
X135509000Y-75709798D01*
X135509001Y-80366046D01*
X135506543Y-80391000D01*
X135516352Y-80490584D01*
X135545400Y-80586343D01*
X135592571Y-80674595D01*
X135629795Y-80719952D01*
X135656053Y-80751948D01*
X135675430Y-80767850D01*
X137414000Y-82506420D01*
X137414001Y-85700046D01*
X137411543Y-85725000D01*
X137419823Y-85809057D01*
X137421352Y-85824585D01*
X137444101Y-85899578D01*
X137450400Y-85920343D01*
X137497571Y-86008595D01*
X137533517Y-86052395D01*
X137561053Y-86085948D01*
X137580430Y-86101850D01*
X138843364Y-87364785D01*
X138726015Y-87443195D01*
X138624195Y-87545015D01*
X138544196Y-87664742D01*
X138489092Y-87797775D01*
X138461000Y-87939003D01*
X138461000Y-88082997D01*
X138485838Y-88207867D01*
X138459825Y-88197092D01*
X138318597Y-88169000D01*
X138174603Y-88169000D01*
X138033375Y-88197092D01*
X137900342Y-88252196D01*
X137780615Y-88332195D01*
X137678795Y-88434015D01*
X137598796Y-88553742D01*
X137543692Y-88686775D01*
X137515600Y-88828003D01*
X137515600Y-88971997D01*
X137543692Y-89113225D01*
X137598796Y-89246258D01*
X137678795Y-89365985D01*
X137738600Y-89425790D01*
X137738601Y-91748312D01*
X137735908Y-91734775D01*
X137680804Y-91601742D01*
X137600805Y-91482015D01*
X137498985Y-91380195D01*
X137379258Y-91300196D01*
X137246225Y-91245092D01*
X137104997Y-91217000D01*
X136961003Y-91217000D01*
X136819775Y-91245092D01*
X136686742Y-91300196D01*
X136567015Y-91380195D01*
X136507210Y-91440000D01*
X136278110Y-91440000D01*
X136278110Y-89616290D01*
X136337915Y-89556485D01*
X136417914Y-89436758D01*
X136473018Y-89303725D01*
X136501110Y-89162497D01*
X136501110Y-89018503D01*
X136473018Y-88877275D01*
X136417914Y-88744242D01*
X136337915Y-88624515D01*
X136236095Y-88522695D01*
X136131976Y-88453125D01*
X136228985Y-88388305D01*
X136330805Y-88286485D01*
X136410804Y-88166758D01*
X136465908Y-88033725D01*
X136494000Y-87892497D01*
X136494000Y-87748503D01*
X136465908Y-87607275D01*
X136410804Y-87474242D01*
X136330805Y-87354515D01*
X136228985Y-87252695D01*
X136109258Y-87172696D01*
X135976225Y-87117592D01*
X135834997Y-87089500D01*
X135691003Y-87089500D01*
X135549775Y-87117592D01*
X135416742Y-87172696D01*
X135297015Y-87252695D01*
X135195195Y-87354515D01*
X135115196Y-87474242D01*
X135060092Y-87607275D01*
X135032000Y-87748503D01*
X135032000Y-87892497D01*
X135032677Y-87895902D01*
X135001000Y-87927580D01*
X135001000Y-86824420D01*
X135813921Y-86011500D01*
X135834997Y-86011500D01*
X135976225Y-85983408D01*
X136109258Y-85928304D01*
X136228985Y-85848305D01*
X136330805Y-85746485D01*
X136410804Y-85626758D01*
X136465908Y-85493725D01*
X136494000Y-85352497D01*
X136494000Y-85208503D01*
X136465908Y-85067275D01*
X136410804Y-84934242D01*
X136330805Y-84814515D01*
X136228985Y-84712695D01*
X136109258Y-84632696D01*
X135976225Y-84577592D01*
X135834997Y-84549500D01*
X135691003Y-84549500D01*
X135549775Y-84577592D01*
X135416742Y-84632696D01*
X135297015Y-84712695D01*
X135195195Y-84814515D01*
X135115196Y-84934242D01*
X135060092Y-85067275D01*
X135032000Y-85208503D01*
X135032000Y-85352497D01*
X135032677Y-85355902D01*
X134151435Y-86237145D01*
X134132052Y-86253052D01*
X134068571Y-86330405D01*
X134021399Y-86418658D01*
X133992351Y-86514416D01*
X133985312Y-86585889D01*
X133982543Y-86614000D01*
X133985000Y-86638944D01*
X133985001Y-91356578D01*
X131604201Y-93737379D01*
X131564247Y-93733444D01*
X131619578Y-93696473D01*
X131796473Y-93519578D01*
X131935459Y-93311571D01*
X132031195Y-93080445D01*
X132080000Y-92835084D01*
X132080000Y-92584916D01*
X132031195Y-92339555D01*
X131935459Y-92108429D01*
X131796473Y-91900422D01*
X131619578Y-91723527D01*
X131411571Y-91584541D01*
X131180445Y-91488805D01*
X130935084Y-91440000D01*
X131180445Y-91391195D01*
X131411571Y-91295459D01*
X131619578Y-91156473D01*
X131796473Y-90979578D01*
X131935459Y-90771571D01*
X132031195Y-90540445D01*
X132080000Y-90295084D01*
X132080000Y-90044916D01*
X132031195Y-89799555D01*
X131935459Y-89568429D01*
X131796473Y-89360422D01*
X131619578Y-89183527D01*
X131411571Y-89044541D01*
X131180445Y-88948805D01*
X130935084Y-88900000D01*
X131180445Y-88851195D01*
X131411571Y-88755459D01*
X131619578Y-88616473D01*
X131796473Y-88439578D01*
X131935459Y-88231571D01*
X132031195Y-88000445D01*
X132080000Y-87755084D01*
X132080000Y-87504916D01*
X132031195Y-87259555D01*
X131935459Y-87028429D01*
X131796473Y-86820422D01*
X131619578Y-86643527D01*
X131411571Y-86504541D01*
X131180445Y-86408805D01*
X130935084Y-86360000D01*
X131180445Y-86311195D01*
X131411571Y-86215459D01*
X131619578Y-86076473D01*
X131796473Y-85899578D01*
X131935459Y-85691571D01*
X132031195Y-85460445D01*
X132080000Y-85215084D01*
X132080000Y-84964916D01*
X132031195Y-84719555D01*
X131935459Y-84488429D01*
X131796473Y-84280422D01*
X131619578Y-84103527D01*
X131411571Y-83964541D01*
X131180445Y-83868805D01*
X130935084Y-83820000D01*
X131180445Y-83771195D01*
X131411571Y-83675459D01*
X131619578Y-83536473D01*
X131796473Y-83359578D01*
X131935459Y-83151571D01*
X132031195Y-82920445D01*
X132080000Y-82675084D01*
X132080000Y-82424916D01*
X132031195Y-82179555D01*
X131935459Y-81948429D01*
X131796473Y-81740422D01*
X131619578Y-81563527D01*
X131411571Y-81424541D01*
X131180445Y-81328805D01*
X130935084Y-81280000D01*
X131180445Y-81231195D01*
X131411571Y-81135459D01*
X131619578Y-80996473D01*
X131796473Y-80819578D01*
X131935459Y-80611571D01*
X132031195Y-80380445D01*
X132080000Y-80135084D01*
X132080000Y-79884916D01*
X132031195Y-79639555D01*
X131935459Y-79408429D01*
X131796473Y-79200422D01*
X131619578Y-79023527D01*
X131411571Y-78884541D01*
X131180445Y-78788805D01*
X130935084Y-78740000D01*
X131180445Y-78691195D01*
X131411571Y-78595459D01*
X131619578Y-78456473D01*
X131796473Y-78279578D01*
X131935459Y-78071571D01*
X132031195Y-77840445D01*
X132080000Y-77595084D01*
X132080000Y-77344916D01*
X132031195Y-77099555D01*
X131935459Y-76868429D01*
X131796473Y-76660422D01*
X131619578Y-76483527D01*
X131411571Y-76344541D01*
X131180445Y-76248805D01*
X130935084Y-76200000D01*
X131180445Y-76151195D01*
X131411571Y-76055459D01*
X131619578Y-75916473D01*
X131796473Y-75739578D01*
X131935459Y-75531571D01*
X132031195Y-75300445D01*
X132080000Y-75055084D01*
X132080000Y-74804916D01*
X132031195Y-74559555D01*
X131935459Y-74328429D01*
X131796473Y-74120422D01*
X131619578Y-73943527D01*
X131411571Y-73804541D01*
X131180445Y-73708805D01*
X130944349Y-73661843D01*
X131699000Y-73661843D01*
X131773689Y-73654487D01*
X131845508Y-73632701D01*
X131911696Y-73597322D01*
X131969711Y-73549711D01*
X132017322Y-73491696D01*
X132052701Y-73425508D01*
X132074487Y-73353689D01*
X132081843Y-73279000D01*
X132081843Y-71501000D01*
X132074487Y-71426311D01*
X132052701Y-71354492D01*
X132017322Y-71288304D01*
X131969711Y-71230289D01*
X131954300Y-71217642D01*
X154771437Y-71182101D01*
X154731498Y-71256820D01*
X154695188Y-71376518D01*
X154682928Y-71501000D01*
X154686000Y-71723250D01*
X154844750Y-71882000D01*
X155702000Y-71882000D01*
X155702000Y-71862000D01*
X156718000Y-71862000D01*
X156718000Y-71882000D01*
X157575250Y-71882000D01*
X157734000Y-71723250D01*
X157737072Y-71501000D01*
X157724812Y-71376518D01*
X157688502Y-71256820D01*
X157646170Y-71177623D01*
X160848559Y-71172635D01*
X160909651Y-71320125D01*
X161273750Y-71865039D01*
X161737161Y-72328450D01*
X162282075Y-72692549D01*
X162887550Y-72943345D01*
X163530319Y-73071200D01*
X164185681Y-73071200D01*
X164828450Y-72943345D01*
X165433925Y-72692549D01*
X165978839Y-72328450D01*
X166442250Y-71865039D01*
X166806349Y-71320125D01*
X166871327Y-71163254D01*
X168855776Y-71160163D01*
X168890001Y-71719730D01*
X168890001Y-71719730D01*
G37*
X168890001Y-71719730D02*
X168890000Y-135685795D01*
X168815442Y-136713348D01*
X168597312Y-137701348D01*
X168238840Y-138647521D01*
X167747537Y-139532033D01*
X167133695Y-140336357D01*
X166410181Y-141043639D01*
X165592132Y-141639079D01*
X164696707Y-142110183D01*
X163742645Y-142447098D01*
X162747105Y-142643318D01*
X161882487Y-142696200D01*
X136916405Y-142696200D01*
X135888852Y-142621642D01*
X134900852Y-142403512D01*
X133954679Y-142045040D01*
X133440476Y-141759425D01*
X144653744Y-141759425D01*
X144752172Y-141975129D01*
X144890790Y-142167486D01*
X145064272Y-142329104D01*
X145152358Y-142420392D01*
X145325000Y-142334339D01*
X145325000Y-141575600D01*
X146271000Y-141575600D01*
X146271000Y-142334339D01*
X146443642Y-142420392D01*
X146531728Y-142329104D01*
X146705210Y-142167486D01*
X146843828Y-141975129D01*
X146942256Y-141759425D01*
X151853744Y-141759425D01*
X151952172Y-141975129D01*
X152090790Y-142167486D01*
X152264272Y-142329104D01*
X152352358Y-142420392D01*
X152525000Y-142334339D01*
X152525000Y-141575600D01*
X153471000Y-141575600D01*
X153471000Y-142334339D01*
X153643642Y-142420392D01*
X153731728Y-142329104D01*
X153905210Y-142167486D01*
X154043828Y-141975129D01*
X154142256Y-141759425D01*
X154030713Y-141575600D01*
X153471000Y-141575600D01*
X152525000Y-141575600D01*
X151965287Y-141575600D01*
X151853744Y-141759425D01*
X146942256Y-141759425D01*
X146830713Y-141575600D01*
X146271000Y-141575600D01*
X145325000Y-141575600D01*
X144765287Y-141575600D01*
X144653744Y-141759425D01*
X133440476Y-141759425D01*
X133070167Y-141553737D01*
X132265843Y-140939895D01*
X131714380Y-140375775D01*
X144653744Y-140375775D01*
X144765287Y-140559600D01*
X145325000Y-140559600D01*
X145325000Y-139800861D01*
X146271000Y-139800861D01*
X146271000Y-140559600D01*
X146830713Y-140559600D01*
X146942256Y-140375775D01*
X151853744Y-140375775D01*
X151965287Y-140559600D01*
X152525000Y-140559600D01*
X152525000Y-139800861D01*
X153471000Y-139800861D01*
X153471000Y-140559600D01*
X154030713Y-140559600D01*
X154142256Y-140375775D01*
X154043828Y-140160071D01*
X153905210Y-139967714D01*
X153731728Y-139806096D01*
X153643642Y-139714808D01*
X153471000Y-139800861D01*
X152525000Y-139800861D01*
X152352358Y-139714808D01*
X152264272Y-139806096D01*
X152090790Y-139967714D01*
X151952172Y-140160071D01*
X151853744Y-140375775D01*
X146942256Y-140375775D01*
X146843828Y-140160071D01*
X146705210Y-139967714D01*
X146531728Y-139806096D01*
X146443642Y-139714808D01*
X146271000Y-139800861D01*
X145325000Y-139800861D01*
X145152358Y-139714808D01*
X145064272Y-139806096D01*
X144890790Y-139967714D01*
X144752172Y-140160071D01*
X144653744Y-140375775D01*
X131714380Y-140375775D01*
X131558561Y-140216381D01*
X130963121Y-139398332D01*
X130856777Y-139196203D01*
X139832600Y-139196203D01*
X139832600Y-139340197D01*
X139860692Y-139481425D01*
X139915796Y-139614458D01*
X139995795Y-139734185D01*
X140097615Y-139836005D01*
X140217342Y-139916004D01*
X140350375Y-139971108D01*
X140491603Y-139999200D01*
X140635597Y-139999200D01*
X140776825Y-139971108D01*
X140909858Y-139916004D01*
X141029585Y-139836005D01*
X141131405Y-139734185D01*
X141211404Y-139614458D01*
X141266508Y-139481425D01*
X141294600Y-139340197D01*
X141294600Y-139196203D01*
X141632600Y-139196203D01*
X141632600Y-139340197D01*
X141660692Y-139481425D01*
X141715796Y-139614458D01*
X141795795Y-139734185D01*
X141897615Y-139836005D01*
X142017342Y-139916004D01*
X142150375Y-139971108D01*
X142291603Y-139999200D01*
X142435597Y-139999200D01*
X142576825Y-139971108D01*
X142709858Y-139916004D01*
X142829585Y-139836005D01*
X142931405Y-139734185D01*
X143011404Y-139614458D01*
X143066508Y-139481425D01*
X143094600Y-139340197D01*
X143094600Y-139196203D01*
X143066508Y-139054975D01*
X143011404Y-138921942D01*
X142931405Y-138802215D01*
X142829585Y-138700395D01*
X142709858Y-138620396D01*
X142576825Y-138565292D01*
X142435597Y-138537200D01*
X142291603Y-138537200D01*
X142150375Y-138565292D01*
X142017342Y-138620396D01*
X141897615Y-138700395D01*
X141795795Y-138802215D01*
X141715796Y-138921942D01*
X141660692Y-139054975D01*
X141632600Y-139196203D01*
X141294600Y-139196203D01*
X141266508Y-139054975D01*
X141211404Y-138921942D01*
X141131405Y-138802215D01*
X141029585Y-138700395D01*
X140909858Y-138620396D01*
X140776825Y-138565292D01*
X140635597Y-138537200D01*
X140491603Y-138537200D01*
X140350375Y-138565292D01*
X140217342Y-138620396D01*
X140097615Y-138700395D01*
X139995795Y-138802215D01*
X139915796Y-138921942D01*
X139860692Y-139054975D01*
X139832600Y-139196203D01*
X130856777Y-139196203D01*
X130492017Y-138502907D01*
X130416629Y-138289425D01*
X144653744Y-138289425D01*
X144752172Y-138505129D01*
X144890790Y-138697486D01*
X145064272Y-138859104D01*
X145152358Y-138950392D01*
X145325000Y-138864339D01*
X145325000Y-138105600D01*
X146271000Y-138105600D01*
X146271000Y-138864339D01*
X146443642Y-138950392D01*
X146531728Y-138859104D01*
X146540934Y-138850527D01*
X146717000Y-138850527D01*
X146717000Y-138984673D01*
X146743171Y-139116240D01*
X146794506Y-139240174D01*
X146869033Y-139351712D01*
X146963888Y-139446567D01*
X147075426Y-139521094D01*
X147199360Y-139572429D01*
X147330927Y-139598600D01*
X147465073Y-139598600D01*
X147596640Y-139572429D01*
X147720574Y-139521094D01*
X147832112Y-139446567D01*
X147926967Y-139351712D01*
X148001494Y-139240174D01*
X148052829Y-139116240D01*
X148079000Y-138984673D01*
X148079000Y-138850527D01*
X150717000Y-138850527D01*
X150717000Y-138984673D01*
X150743171Y-139116240D01*
X150794506Y-139240174D01*
X150869033Y-139351712D01*
X150963888Y-139446567D01*
X151075426Y-139521094D01*
X151199360Y-139572429D01*
X151330927Y-139598600D01*
X151465073Y-139598600D01*
X151596640Y-139572429D01*
X151720574Y-139521094D01*
X151832112Y-139446567D01*
X151926967Y-139351712D01*
X152001494Y-139240174D01*
X152052829Y-139116240D01*
X152079000Y-138984673D01*
X152079000Y-138850527D01*
X152052829Y-138718960D01*
X152001494Y-138595026D01*
X151926967Y-138483488D01*
X151832112Y-138388633D01*
X151720574Y-138314106D01*
X151660989Y-138289425D01*
X151853744Y-138289425D01*
X151952172Y-138505129D01*
X152090790Y-138697486D01*
X152264272Y-138859104D01*
X152352358Y-138950392D01*
X152525000Y-138864339D01*
X152525000Y-138105600D01*
X153471000Y-138105600D01*
X153471000Y-138864339D01*
X153643642Y-138950392D01*
X153731728Y-138859104D01*
X153905210Y-138697486D01*
X154043828Y-138505129D01*
X154142256Y-138289425D01*
X154030713Y-138105600D01*
X153471000Y-138105600D01*
X152525000Y-138105600D01*
X151965287Y-138105600D01*
X151853744Y-138289425D01*
X151660989Y-138289425D01*
X151596640Y-138262771D01*
X151465073Y-138236600D01*
X151330927Y-138236600D01*
X151199360Y-138262771D01*
X151075426Y-138314106D01*
X150963888Y-138388633D01*
X150869033Y-138483488D01*
X150794506Y-138595026D01*
X150743171Y-138718960D01*
X150717000Y-138850527D01*
X148079000Y-138850527D01*
X148052829Y-138718960D01*
X148001494Y-138595026D01*
X147926967Y-138483488D01*
X147832112Y-138388633D01*
X147720574Y-138314106D01*
X147596640Y-138262771D01*
X147465073Y-138236600D01*
X147330927Y-138236600D01*
X147199360Y-138262771D01*
X147075426Y-138314106D01*
X146963888Y-138388633D01*
X146869033Y-138483488D01*
X146794506Y-138595026D01*
X146743171Y-138718960D01*
X146717000Y-138850527D01*
X146540934Y-138850527D01*
X146705210Y-138697486D01*
X146843828Y-138505129D01*
X146942256Y-138289425D01*
X146830713Y-138105600D01*
X146271000Y-138105600D01*
X145325000Y-138105600D01*
X144765287Y-138105600D01*
X144653744Y-138289425D01*
X130416629Y-138289425D01*
X130155102Y-137548845D01*
X130113253Y-137336519D01*
X160531000Y-137336519D01*
X160531000Y-137991881D01*
X160658855Y-138634650D01*
X160909651Y-139240125D01*
X161273750Y-139785039D01*
X161737161Y-140248450D01*
X162282075Y-140612549D01*
X162887550Y-140863345D01*
X163530319Y-140991200D01*
X164185681Y-140991200D01*
X164828450Y-140863345D01*
X165433925Y-140612549D01*
X165978839Y-140248450D01*
X166442250Y-139785039D01*
X166806349Y-139240125D01*
X167057145Y-138634650D01*
X167185000Y-137991881D01*
X167185000Y-137336519D01*
X167057145Y-136693750D01*
X166806349Y-136088275D01*
X166442250Y-135543361D01*
X165978839Y-135079950D01*
X165433925Y-134715851D01*
X164828450Y-134465055D01*
X164185681Y-134337200D01*
X163530319Y-134337200D01*
X162887550Y-134465055D01*
X162282075Y-134715851D01*
X161737161Y-135079950D01*
X161273750Y-135543361D01*
X160909651Y-136088275D01*
X160658855Y-136693750D01*
X160531000Y-137336519D01*
X130113253Y-137336519D01*
X130028354Y-136905775D01*
X144653744Y-136905775D01*
X144765287Y-137089600D01*
X145325000Y-137089600D01*
X145325000Y-136330861D01*
X146271000Y-136330861D01*
X146271000Y-137089600D01*
X146830713Y-137089600D01*
X146942256Y-136905775D01*
X151853744Y-136905775D01*
X151965287Y-137089600D01*
X152525000Y-137089600D01*
X152525000Y-136330861D01*
X153471000Y-136330861D01*
X153471000Y-137089600D01*
X154030713Y-137089600D01*
X154142256Y-136905775D01*
X154043828Y-136690071D01*
X153905210Y-136497714D01*
X153731728Y-136336096D01*
X153643642Y-136244808D01*
X153471000Y-136330861D01*
X152525000Y-136330861D01*
X152352358Y-136244808D01*
X152264272Y-136336096D01*
X152090790Y-136497714D01*
X151952172Y-136690071D01*
X151853744Y-136905775D01*
X146942256Y-136905775D01*
X146843828Y-136690071D01*
X146705210Y-136497714D01*
X146531728Y-136336096D01*
X146443642Y-136244808D01*
X146271000Y-136330861D01*
X145325000Y-136330861D01*
X145152358Y-136244808D01*
X145064272Y-136336096D01*
X144890790Y-136497714D01*
X144752172Y-136690071D01*
X144653744Y-136905775D01*
X130028354Y-136905775D01*
X129958882Y-136553305D01*
X129906000Y-135688687D01*
X129906000Y-133207138D01*
X139563063Y-133207138D01*
X139640295Y-133395731D01*
X139900629Y-133432885D01*
X140163210Y-133418537D01*
X140277865Y-133395731D01*
X140355097Y-133207138D01*
X139959080Y-132811120D01*
X139563063Y-133207138D01*
X129906000Y-133207138D01*
X129906000Y-132034249D01*
X138618895Y-132034249D01*
X138633243Y-132296830D01*
X138656049Y-132411485D01*
X138844642Y-132488717D01*
X139240660Y-132092700D01*
X140677500Y-132092700D01*
X141073518Y-132488717D01*
X141262111Y-132411485D01*
X141299265Y-132151151D01*
X141284917Y-131888570D01*
X141262111Y-131773915D01*
X141073518Y-131696683D01*
X140677500Y-132092700D01*
X139240660Y-132092700D01*
X138844642Y-131696683D01*
X138656049Y-131773915D01*
X138618895Y-132034249D01*
X129906000Y-132034249D01*
X129906000Y-129381020D01*
X138873697Y-129381020D01*
X138873697Y-130781020D01*
X138881053Y-130855709D01*
X138902839Y-130927528D01*
X138938218Y-130993716D01*
X138985829Y-131051731D01*
X139043844Y-131099342D01*
X139110032Y-131134721D01*
X139181851Y-131156507D01*
X139256540Y-131163863D01*
X139748664Y-131163863D01*
X139959080Y-131374280D01*
X140169496Y-131163863D01*
X140656540Y-131163863D01*
X140731229Y-131156507D01*
X140803048Y-131134721D01*
X140869236Y-131099342D01*
X140927251Y-131051731D01*
X140974862Y-130993716D01*
X141010241Y-130927528D01*
X141032027Y-130855709D01*
X141039383Y-130781020D01*
X141039383Y-129381020D01*
X141032027Y-129306331D01*
X141010241Y-129234512D01*
X140974862Y-129168324D01*
X140927251Y-129110309D01*
X140869236Y-129062698D01*
X140803048Y-129027319D01*
X140731229Y-129005533D01*
X140656540Y-128998177D01*
X139256540Y-128998177D01*
X139181851Y-129005533D01*
X139110032Y-129027319D01*
X139043844Y-129062698D01*
X138985829Y-129110309D01*
X138938218Y-129168324D01*
X138902839Y-129234512D01*
X138881053Y-129306331D01*
X138873697Y-129381020D01*
X129906000Y-129381020D01*
X129906000Y-128020203D01*
X137902200Y-128020203D01*
X137902200Y-128164197D01*
X137930292Y-128305425D01*
X137985396Y-128438458D01*
X138065395Y-128558185D01*
X138167215Y-128660005D01*
X138286942Y-128740004D01*
X138419975Y-128795108D01*
X138561203Y-128823200D01*
X138705197Y-128823200D01*
X138846425Y-128795108D01*
X138979458Y-128740004D01*
X139099185Y-128660005D01*
X139201005Y-128558185D01*
X139281004Y-128438458D01*
X139318856Y-128347074D01*
X140661447Y-128347074D01*
X140721252Y-128406879D01*
X140840979Y-128486878D01*
X140974012Y-128541982D01*
X141115240Y-128570074D01*
X141259234Y-128570074D01*
X141400462Y-128541982D01*
X141533495Y-128486878D01*
X141653222Y-128406879D01*
X141755042Y-128305059D01*
X141835041Y-128185332D01*
X141890145Y-128052299D01*
X141918237Y-127911071D01*
X141918237Y-127767077D01*
X141890145Y-127625849D01*
X141835041Y-127492816D01*
X141755042Y-127373089D01*
X141653222Y-127271269D01*
X141533495Y-127191270D01*
X141400462Y-127136166D01*
X141259234Y-127108074D01*
X141115240Y-127108074D01*
X140974012Y-127136166D01*
X140840979Y-127191270D01*
X140721252Y-127271269D01*
X140661447Y-127331074D01*
X138911269Y-127331074D01*
X138886325Y-127328617D01*
X138861381Y-127331074D01*
X138861379Y-127331074D01*
X138786741Y-127338425D01*
X138709102Y-127361977D01*
X138705197Y-127361200D01*
X138561203Y-127361200D01*
X138419975Y-127389292D01*
X138286942Y-127444396D01*
X138167215Y-127524395D01*
X138065395Y-127626215D01*
X137985396Y-127745942D01*
X137930292Y-127878975D01*
X137902200Y-128020203D01*
X129906000Y-128020203D01*
X129906000Y-120679603D01*
X137292600Y-120679603D01*
X137292600Y-120823597D01*
X137320692Y-120964825D01*
X137375796Y-121097858D01*
X137455795Y-121217585D01*
X137557615Y-121319405D01*
X137677342Y-121399404D01*
X137810375Y-121454508D01*
X137951603Y-121482600D01*
X138095597Y-121482600D01*
X138236825Y-121454508D01*
X138369858Y-121399404D01*
X138489585Y-121319405D01*
X138549390Y-121259600D01*
X142208153Y-121259600D01*
X142230995Y-121293785D01*
X142332815Y-121395605D01*
X142452542Y-121475604D01*
X142585575Y-121530708D01*
X142726803Y-121558800D01*
X142870797Y-121558800D01*
X143012025Y-121530708D01*
X143145058Y-121475604D01*
X143264785Y-121395605D01*
X143366605Y-121293785D01*
X143446604Y-121174058D01*
X143501708Y-121041025D01*
X143529800Y-120899797D01*
X143529800Y-120755803D01*
X143501708Y-120614575D01*
X143446604Y-120481542D01*
X143366605Y-120361815D01*
X143264785Y-120259995D01*
X143145058Y-120179996D01*
X143012025Y-120124892D01*
X142870797Y-120096800D01*
X142726803Y-120096800D01*
X142585575Y-120124892D01*
X142452542Y-120179996D01*
X142357352Y-120243600D01*
X138549390Y-120243600D01*
X138489585Y-120183795D01*
X138369858Y-120103796D01*
X138236825Y-120048692D01*
X138095597Y-120020600D01*
X137951603Y-120020600D01*
X137810375Y-120048692D01*
X137677342Y-120103796D01*
X137557615Y-120183795D01*
X137455795Y-120285615D01*
X137375796Y-120405342D01*
X137320692Y-120538375D01*
X137292600Y-120679603D01*
X129906000Y-120679603D01*
X129906000Y-119002051D01*
X130000422Y-119096473D01*
X130208429Y-119235459D01*
X130439555Y-119331195D01*
X130684916Y-119380000D01*
X130935084Y-119380000D01*
X131180445Y-119331195D01*
X131369223Y-119253000D01*
X133933339Y-119253000D01*
X133976999Y-119257300D01*
X134020659Y-119253000D01*
X135465333Y-119253000D01*
X135509000Y-119257301D01*
X135552667Y-119253000D01*
X135998739Y-119253000D01*
X136042399Y-119257300D01*
X136086059Y-119253000D01*
X136086067Y-119253000D01*
X136216674Y-119240136D01*
X136384251Y-119189303D01*
X136538691Y-119106753D01*
X136674059Y-118995659D01*
X136785153Y-118860291D01*
X136867703Y-118705851D01*
X136918536Y-118538274D01*
X136935701Y-118364000D01*
X136918536Y-118189726D01*
X136918536Y-118189724D01*
X136897999Y-118122024D01*
X136897999Y-116375661D01*
X136902299Y-116332001D01*
X136897999Y-116288341D01*
X136897999Y-115224658D01*
X136902299Y-115180998D01*
X136897999Y-115137333D01*
X136897999Y-115137332D01*
X136887879Y-115034584D01*
X136885135Y-115006723D01*
X136840800Y-114860570D01*
X136834302Y-114839148D01*
X136751752Y-114684708D01*
X136640658Y-114549340D01*
X136606736Y-114521501D01*
X135382000Y-113296765D01*
X135382000Y-112700023D01*
X135422765Y-112716908D01*
X135563993Y-112745000D01*
X135707987Y-112745000D01*
X135849215Y-112716908D01*
X135982248Y-112661804D01*
X136101975Y-112581805D01*
X136203795Y-112479985D01*
X136283794Y-112360258D01*
X136338898Y-112227225D01*
X136366990Y-112085997D01*
X136366990Y-111942003D01*
X136338898Y-111800775D01*
X136283794Y-111667742D01*
X136203795Y-111548015D01*
X136101975Y-111446195D01*
X135982248Y-111366196D01*
X135890000Y-111327986D01*
X135890000Y-107314504D01*
X135892457Y-107289560D01*
X135889185Y-107256343D01*
X135882649Y-107189975D01*
X135853601Y-107094217D01*
X135806429Y-107005965D01*
X135742948Y-106928612D01*
X135723565Y-106912705D01*
X134975651Y-106164791D01*
X134975651Y-100977846D01*
X135509001Y-100444496D01*
X135509000Y-103594577D01*
X135505314Y-103632000D01*
X135509000Y-103669423D01*
X135509000Y-103669425D01*
X135520026Y-103781377D01*
X135563598Y-103925014D01*
X135582767Y-103960877D01*
X135634355Y-104057392D01*
X135673983Y-104105678D01*
X135729578Y-104173422D01*
X135758653Y-104197283D01*
X135943857Y-104382487D01*
X135965357Y-104490578D01*
X136031769Y-104650910D01*
X136128183Y-104795205D01*
X136250896Y-104917918D01*
X136395191Y-105014332D01*
X136555523Y-105080744D01*
X136725730Y-105114600D01*
X136899272Y-105114600D01*
X137069479Y-105080744D01*
X137229811Y-105014332D01*
X137374106Y-104917918D01*
X137496819Y-104795205D01*
X137593233Y-104650910D01*
X137659645Y-104490578D01*
X137693501Y-104320371D01*
X137693501Y-104146829D01*
X137659645Y-103976622D01*
X137593233Y-103816290D01*
X137496819Y-103671995D01*
X137374106Y-103549282D01*
X137229811Y-103452868D01*
X137126851Y-103410220D01*
X137033000Y-103316370D01*
X137033000Y-99505345D01*
X137051732Y-99477310D01*
X137118144Y-99316978D01*
X137152000Y-99146771D01*
X137152000Y-98973229D01*
X137118144Y-98803022D01*
X137051732Y-98642690D01*
X137033000Y-98614655D01*
X137033000Y-96530850D01*
X137348631Y-96215220D01*
X139941877Y-96215220D01*
X139979300Y-96218906D01*
X140016723Y-96215220D01*
X140016726Y-96215220D01*
X140128678Y-96204194D01*
X140272315Y-96160622D01*
X140404692Y-96089865D01*
X140520722Y-95994642D01*
X140544584Y-95965566D01*
X142035564Y-94474586D01*
X142064633Y-94450730D01*
X142115773Y-94388416D01*
X142159856Y-94334701D01*
X142230613Y-94202324D01*
X142247437Y-94146862D01*
X142274185Y-94058686D01*
X142285211Y-93946734D01*
X142285211Y-93946731D01*
X142288897Y-93909308D01*
X142285211Y-93871885D01*
X142285211Y-92230621D01*
X142288897Y-92193198D01*
X142285211Y-92155772D01*
X142274185Y-92043820D01*
X142230613Y-91900183D01*
X142169835Y-91786475D01*
X142159856Y-91767805D01*
X142123517Y-91723527D01*
X142064633Y-91651776D01*
X142035557Y-91627914D01*
X141452610Y-91044967D01*
X141452610Y-88384761D01*
X141484375Y-88397918D01*
X141625603Y-88426010D01*
X141769597Y-88426010D01*
X141910825Y-88397918D01*
X142043858Y-88342814D01*
X142163585Y-88262815D01*
X142224031Y-88202369D01*
X142292159Y-88195659D01*
X142387917Y-88166611D01*
X142476169Y-88119439D01*
X142553522Y-88055958D01*
X142569429Y-88036575D01*
X142625993Y-87980011D01*
X142809307Y-87980011D01*
X142785435Y-88100024D01*
X142785435Y-88244018D01*
X142813527Y-88385246D01*
X142868631Y-88518279D01*
X142875001Y-88527812D01*
X142875000Y-91709579D01*
X142862196Y-91728742D01*
X142807092Y-91861775D01*
X142779000Y-92003003D01*
X142779000Y-92146997D01*
X142807092Y-92288225D01*
X142862196Y-92421258D01*
X142942195Y-92540985D01*
X143044015Y-92642805D01*
X143163742Y-92722804D01*
X143296775Y-92777908D01*
X143438003Y-92806000D01*
X143581997Y-92806000D01*
X143723225Y-92777908D01*
X143856258Y-92722804D01*
X143975985Y-92642805D01*
X144077805Y-92540985D01*
X144157804Y-92421258D01*
X144212908Y-92288225D01*
X144241000Y-92146997D01*
X144241000Y-92003003D01*
X144212908Y-91861775D01*
X144157804Y-91728742D01*
X144145000Y-91709579D01*
X144145000Y-88547072D01*
X144164239Y-88518279D01*
X144219343Y-88385246D01*
X144247435Y-88244018D01*
X144247435Y-88100024D01*
X144223563Y-87980011D01*
X147645040Y-87980011D01*
X147669984Y-87982468D01*
X147694928Y-87980011D01*
X147694931Y-87980011D01*
X147769569Y-87972660D01*
X147865327Y-87943612D01*
X147953579Y-87896440D01*
X148030932Y-87832959D01*
X148046839Y-87813576D01*
X150278971Y-85581445D01*
X150282856Y-85600978D01*
X150349268Y-85761310D01*
X150445682Y-85905605D01*
X150519077Y-85979000D01*
X150445682Y-86052395D01*
X150349268Y-86196690D01*
X150282856Y-86357022D01*
X150249000Y-86527229D01*
X150249000Y-86700771D01*
X150282856Y-86870978D01*
X150349268Y-87031310D01*
X150445682Y-87175605D01*
X150519077Y-87249000D01*
X150445682Y-87322395D01*
X150349268Y-87466690D01*
X150282856Y-87627022D01*
X150249000Y-87797229D01*
X150249000Y-87970771D01*
X150282856Y-88140978D01*
X150349268Y-88301310D01*
X150445682Y-88445605D01*
X150519077Y-88519000D01*
X150515934Y-88522144D01*
X150452985Y-88459195D01*
X150333258Y-88379196D01*
X150200225Y-88324092D01*
X150058997Y-88296000D01*
X149915003Y-88296000D01*
X149773775Y-88324092D01*
X149640742Y-88379196D01*
X149521015Y-88459195D01*
X149419195Y-88561015D01*
X149339196Y-88680742D01*
X149284092Y-88813775D01*
X149256000Y-88955003D01*
X149256000Y-89098997D01*
X149284092Y-89240225D01*
X149339196Y-89373258D01*
X149419195Y-89492985D01*
X149479000Y-89552790D01*
X149479001Y-90468640D01*
X149476543Y-90493594D01*
X149483284Y-90562026D01*
X149486352Y-90593179D01*
X149491351Y-90609657D01*
X149515400Y-90688937D01*
X149562571Y-90777189D01*
X149597029Y-90819176D01*
X149626053Y-90854542D01*
X149645430Y-90870444D01*
X149991986Y-91217000D01*
X149915003Y-91217000D01*
X149773775Y-91245092D01*
X149640742Y-91300196D01*
X149521015Y-91380195D01*
X149419195Y-91482015D01*
X149339196Y-91601742D01*
X149284092Y-91734775D01*
X149256000Y-91876003D01*
X149256000Y-92019997D01*
X149274704Y-92114028D01*
X149162899Y-92091789D01*
X149018905Y-92091789D01*
X148877677Y-92119881D01*
X148744644Y-92174985D01*
X148624917Y-92254984D01*
X148523097Y-92356804D01*
X148443098Y-92476531D01*
X148387994Y-92609564D01*
X148359902Y-92750792D01*
X148359902Y-92894786D01*
X148387994Y-93036014D01*
X148443098Y-93169047D01*
X148523097Y-93288774D01*
X148624917Y-93390594D01*
X148744644Y-93470593D01*
X148877677Y-93525697D01*
X148881477Y-93526453D01*
X148875000Y-93559013D01*
X148875000Y-93703007D01*
X148885740Y-93757000D01*
X148772003Y-93757000D01*
X148630775Y-93785092D01*
X148497742Y-93840196D01*
X148378015Y-93920195D01*
X148318210Y-93980000D01*
X148106944Y-93980000D01*
X148082000Y-93977543D01*
X148057056Y-93980000D01*
X148057053Y-93980000D01*
X147982415Y-93987351D01*
X147886657Y-94016399D01*
X147860220Y-94030530D01*
X147798404Y-94063571D01*
X147757677Y-94096995D01*
X147721052Y-94127052D01*
X147705150Y-94146429D01*
X146724435Y-95127145D01*
X146705052Y-95143052D01*
X146641571Y-95220405D01*
X146594399Y-95308658D01*
X146565351Y-95404416D01*
X146558286Y-95476153D01*
X146555543Y-95504000D01*
X146558000Y-95528944D01*
X146558001Y-107036046D01*
X146555543Y-107061000D01*
X146563462Y-107141395D01*
X146565352Y-107160585D01*
X146588009Y-107235275D01*
X146594400Y-107256343D01*
X146641571Y-107344595D01*
X146684207Y-107396547D01*
X146705053Y-107421948D01*
X146724430Y-107437850D01*
X146863580Y-107577000D01*
X146725247Y-107577000D01*
X146555040Y-107610856D01*
X146394708Y-107677268D01*
X146250413Y-107773682D01*
X146127700Y-107896395D01*
X146031286Y-108040690D01*
X145964874Y-108201022D01*
X145958296Y-108234091D01*
X145921390Y-108270997D01*
X145910136Y-108156725D01*
X145859302Y-107989148D01*
X145776752Y-107834709D01*
X145665659Y-107699341D01*
X145530291Y-107588248D01*
X145375852Y-107505698D01*
X145208275Y-107454864D01*
X145034000Y-107437700D01*
X144859725Y-107454864D01*
X144692148Y-107505698D01*
X144537708Y-107588248D01*
X144436259Y-107671505D01*
X143674263Y-108433501D01*
X143640341Y-108461341D01*
X143529247Y-108596710D01*
X143466310Y-108714457D01*
X143446760Y-108751033D01*
X143446697Y-108751150D01*
X143420048Y-108839001D01*
X143406583Y-108883392D01*
X143395864Y-108918727D01*
X143383000Y-109049334D01*
X143383000Y-109049340D01*
X143378700Y-109093000D01*
X143383000Y-109136660D01*
X143383001Y-110109341D01*
X143342185Y-110068525D01*
X143342185Y-104155722D01*
X143346690Y-104158732D01*
X143507022Y-104225144D01*
X143677229Y-104259000D01*
X143850771Y-104259000D01*
X144020978Y-104225144D01*
X144181310Y-104158732D01*
X144325605Y-104062318D01*
X144448318Y-103939605D01*
X144544732Y-103795310D01*
X144611144Y-103634978D01*
X144645000Y-103464771D01*
X144645000Y-103291229D01*
X144611144Y-103121022D01*
X144544732Y-102960690D01*
X144526000Y-102932655D01*
X144526000Y-97727345D01*
X144544732Y-97699310D01*
X144611144Y-97538978D01*
X144645000Y-97368771D01*
X144645000Y-97195229D01*
X144611144Y-97025022D01*
X144544732Y-96864690D01*
X144448318Y-96720395D01*
X144325605Y-96597682D01*
X144181310Y-96501268D01*
X144020978Y-96434856D01*
X143850771Y-96401000D01*
X143677229Y-96401000D01*
X143507022Y-96434856D01*
X143346690Y-96501268D01*
X143202395Y-96597682D01*
X143079682Y-96720395D01*
X142983268Y-96864690D01*
X142916856Y-97025022D01*
X142883000Y-97195229D01*
X142883000Y-97368771D01*
X142916856Y-97538978D01*
X142983268Y-97699310D01*
X143002001Y-97727346D01*
X143002001Y-99262982D01*
X142961225Y-99246092D01*
X142819997Y-99218000D01*
X142676003Y-99218000D01*
X142534775Y-99246092D01*
X142401742Y-99301196D01*
X142282015Y-99381195D01*
X142180195Y-99483015D01*
X142100196Y-99602742D01*
X142045092Y-99735775D01*
X142017000Y-99877003D01*
X142017000Y-99980010D01*
X141984613Y-99980010D01*
X141843385Y-100008102D01*
X141710352Y-100063206D01*
X141590625Y-100143205D01*
X141488805Y-100245025D01*
X141408806Y-100364752D01*
X141353702Y-100497785D01*
X141325610Y-100639013D01*
X141325610Y-100783007D01*
X141353702Y-100924235D01*
X141408806Y-101057268D01*
X141488805Y-101176995D01*
X141548611Y-101236801D01*
X141548610Y-107770990D01*
X141506289Y-107691813D01*
X141395195Y-107556445D01*
X141259827Y-107445351D01*
X141105387Y-107362801D01*
X140937810Y-107311968D01*
X140763536Y-107294803D01*
X140589263Y-107311968D01*
X140421686Y-107362801D01*
X140267246Y-107445351D01*
X140131878Y-107556445D01*
X140020784Y-107691813D01*
X139938234Y-107846253D01*
X139887400Y-108013830D01*
X139874536Y-108144437D01*
X139874536Y-108938876D01*
X139874537Y-108938886D01*
X139874536Y-111086034D01*
X139870236Y-111129694D01*
X139874536Y-111173354D01*
X139874536Y-111173360D01*
X139881558Y-111244649D01*
X139887400Y-111303968D01*
X139896915Y-111335334D01*
X139938233Y-111471544D01*
X140020783Y-111625984D01*
X140131877Y-111761353D01*
X140165800Y-111789193D01*
X140734343Y-112357736D01*
X140762183Y-112391659D01*
X140778948Y-112405418D01*
X140705167Y-112465968D01*
X140609943Y-112581998D01*
X140539186Y-112714375D01*
X140495614Y-112858012D01*
X140484588Y-112969964D01*
X140484588Y-113182826D01*
X140466702Y-113204620D01*
X140466701Y-113204621D01*
X140395335Y-113291580D01*
X140324579Y-113423957D01*
X140281007Y-113567594D01*
X140266294Y-113716972D01*
X140269981Y-113754405D01*
X140269980Y-116402750D01*
X140266294Y-116440173D01*
X140269980Y-116477596D01*
X140269980Y-116477598D01*
X140281006Y-116589550D01*
X140324578Y-116733187D01*
X140350318Y-116781343D01*
X140395335Y-116865565D01*
X140414408Y-116888805D01*
X140490558Y-116981595D01*
X140519634Y-117005457D01*
X146888201Y-123374025D01*
X146888201Y-124081634D01*
X146757733Y-124027592D01*
X146616505Y-123999500D01*
X146472511Y-123999500D01*
X146331283Y-124027592D01*
X146198250Y-124082696D01*
X146078523Y-124162695D01*
X145976703Y-124264515D01*
X145896704Y-124384242D01*
X145841600Y-124517275D01*
X145813508Y-124658503D01*
X145813508Y-124802497D01*
X145841600Y-124943725D01*
X145896704Y-125076758D01*
X145976703Y-125196485D01*
X146036509Y-125256291D01*
X146036508Y-126371271D01*
X143624179Y-128783601D01*
X143351542Y-128783601D01*
X143326598Y-128781144D01*
X143301654Y-128783601D01*
X143301652Y-128783601D01*
X143227014Y-128790952D01*
X143131256Y-128820000D01*
X143131254Y-128820001D01*
X143043003Y-128867172D01*
X142990086Y-128910600D01*
X142904603Y-128910600D01*
X142763375Y-128938692D01*
X142630342Y-128993796D01*
X142510615Y-129073795D01*
X142408795Y-129175615D01*
X142328796Y-129295342D01*
X142273692Y-129428375D01*
X142245600Y-129569603D01*
X142245600Y-129713597D01*
X142273692Y-129854825D01*
X142328796Y-129987858D01*
X142408795Y-130107585D01*
X142510615Y-130209405D01*
X142630342Y-130289404D01*
X142763375Y-130344508D01*
X142904603Y-130372600D01*
X143048597Y-130372600D01*
X143189825Y-130344508D01*
X143322858Y-130289404D01*
X143442585Y-130209405D01*
X143544405Y-130107585D01*
X143624404Y-129987858D01*
X143679508Y-129854825D01*
X143690493Y-129799601D01*
X143809655Y-129799601D01*
X143834599Y-129802058D01*
X143859543Y-129799601D01*
X143859546Y-129799601D01*
X143934184Y-129792250D01*
X144029942Y-129763202D01*
X144118194Y-129716030D01*
X144195547Y-129652549D01*
X144211454Y-129633166D01*
X146886079Y-126958542D01*
X146888201Y-126956801D01*
X146888200Y-134835225D01*
X146899226Y-134947177D01*
X146942798Y-135090814D01*
X147013555Y-135223191D01*
X147108778Y-135339222D01*
X147224808Y-135434445D01*
X147357185Y-135505202D01*
X147500822Y-135548774D01*
X147650200Y-135563486D01*
X147799577Y-135548774D01*
X147943214Y-135505202D01*
X148075591Y-135434445D01*
X148189080Y-135341308D01*
X148269142Y-135394804D01*
X148402175Y-135449908D01*
X148543403Y-135478000D01*
X148687397Y-135478000D01*
X148828625Y-135449908D01*
X148961658Y-135394804D01*
X149081385Y-135314805D01*
X149183205Y-135212985D01*
X149263204Y-135093258D01*
X149318308Y-134960225D01*
X149321416Y-134944600D01*
X149449397Y-134944600D01*
X149590625Y-134916508D01*
X149723658Y-134861404D01*
X149843385Y-134781405D01*
X149945205Y-134679585D01*
X150025204Y-134559858D01*
X150080308Y-134426825D01*
X150108400Y-134285597D01*
X150108400Y-134141603D01*
X150096345Y-134081000D01*
X150160597Y-134081000D01*
X150301825Y-134052908D01*
X150434858Y-133997804D01*
X150554585Y-133917805D01*
X150656405Y-133815985D01*
X150736404Y-133696258D01*
X150791508Y-133563225D01*
X150819600Y-133421997D01*
X150819600Y-133278003D01*
X150791508Y-133136775D01*
X150736404Y-133003742D01*
X150656405Y-132884015D01*
X150596600Y-132824210D01*
X150596600Y-123138744D01*
X150599057Y-123113800D01*
X150596600Y-123088853D01*
X150589249Y-123014215D01*
X150560201Y-122918457D01*
X150538243Y-122877376D01*
X150513029Y-122830204D01*
X150465450Y-122772229D01*
X150449548Y-122752852D01*
X150430171Y-122736950D01*
X148825424Y-121132203D01*
X162227000Y-121132203D01*
X162227000Y-121276197D01*
X162255092Y-121417425D01*
X162310196Y-121550458D01*
X162390195Y-121670185D01*
X162492015Y-121772005D01*
X162611742Y-121852004D01*
X162744775Y-121907108D01*
X162886003Y-121935200D01*
X163029997Y-121935200D01*
X163171225Y-121907108D01*
X163304258Y-121852004D01*
X163423985Y-121772005D01*
X163525805Y-121670185D01*
X163605804Y-121550458D01*
X163660908Y-121417425D01*
X163689000Y-121276197D01*
X163689000Y-121132203D01*
X164027000Y-121132203D01*
X164027000Y-121276197D01*
X164055092Y-121417425D01*
X164110196Y-121550458D01*
X164190195Y-121670185D01*
X164292015Y-121772005D01*
X164411742Y-121852004D01*
X164544775Y-121907108D01*
X164686003Y-121935200D01*
X164829997Y-121935200D01*
X164971225Y-121907108D01*
X165104258Y-121852004D01*
X165223985Y-121772005D01*
X165325805Y-121670185D01*
X165405804Y-121550458D01*
X165460908Y-121417425D01*
X165489000Y-121276197D01*
X165489000Y-121132203D01*
X165460908Y-120990975D01*
X165405804Y-120857942D01*
X165325805Y-120738215D01*
X165223985Y-120636395D01*
X165104258Y-120556396D01*
X164971225Y-120501292D01*
X164829997Y-120473200D01*
X164686003Y-120473200D01*
X164544775Y-120501292D01*
X164411742Y-120556396D01*
X164292015Y-120636395D01*
X164190195Y-120738215D01*
X164110196Y-120857942D01*
X164055092Y-120990975D01*
X164027000Y-121132203D01*
X163689000Y-121132203D01*
X163660908Y-120990975D01*
X163605804Y-120857942D01*
X163525805Y-120738215D01*
X163423985Y-120636395D01*
X163304258Y-120556396D01*
X163171225Y-120501292D01*
X163029997Y-120473200D01*
X162886003Y-120473200D01*
X162744775Y-120501292D01*
X162611742Y-120556396D01*
X162492015Y-120636395D01*
X162390195Y-120738215D01*
X162310196Y-120857942D01*
X162255092Y-120990975D01*
X162227000Y-121132203D01*
X148825424Y-121132203D01*
X146709112Y-119015891D01*
X150751610Y-119015891D01*
X150798264Y-119201180D01*
X151017517Y-119244931D01*
X151241093Y-119245068D01*
X151460399Y-119201585D01*
X151461736Y-119201180D01*
X151508390Y-119015891D01*
X151130000Y-118637502D01*
X150751610Y-119015891D01*
X146709112Y-119015891D01*
X145914314Y-118221093D01*
X149994932Y-118221093D01*
X150038415Y-118440399D01*
X150038820Y-118441736D01*
X150224109Y-118488390D01*
X150602498Y-118110000D01*
X151657502Y-118110000D01*
X152035891Y-118488390D01*
X152221180Y-118441736D01*
X152264931Y-118222483D01*
X152265068Y-117998907D01*
X152221585Y-117779601D01*
X152221180Y-117778264D01*
X152035891Y-117731610D01*
X151657502Y-118110000D01*
X150602498Y-118110000D01*
X150224109Y-117731610D01*
X150038820Y-117778264D01*
X149995069Y-117997517D01*
X149994932Y-118221093D01*
X145914314Y-118221093D01*
X144399000Y-116705780D01*
X144399000Y-116332000D01*
X144755056Y-116332000D01*
X144780000Y-116334457D01*
X144804944Y-116332000D01*
X144804947Y-116332000D01*
X144879585Y-116324649D01*
X144975343Y-116295601D01*
X145063595Y-116248429D01*
X145140948Y-116184948D01*
X145156855Y-116165565D01*
X146518571Y-114803850D01*
X146537948Y-114787948D01*
X146577579Y-114739657D01*
X146601429Y-114710596D01*
X146648600Y-114622345D01*
X146648601Y-114622343D01*
X146677649Y-114526585D01*
X146685000Y-114451947D01*
X146685000Y-114451945D01*
X146687457Y-114427001D01*
X146685000Y-114402057D01*
X146685000Y-113181943D01*
X146687457Y-113156999D01*
X146684231Y-113124248D01*
X146677649Y-113057415D01*
X146659611Y-112997952D01*
X146659611Y-110598809D01*
X148042571Y-109215850D01*
X148061948Y-109199948D01*
X148099988Y-109153596D01*
X148125429Y-109122596D01*
X148164588Y-109049334D01*
X148172601Y-109034343D01*
X148201649Y-108938585D01*
X148209000Y-108863947D01*
X148209000Y-108863944D01*
X148211457Y-108839000D01*
X148209000Y-108814056D01*
X148209000Y-107720944D01*
X148211457Y-107696000D01*
X148208752Y-107668534D01*
X148201649Y-107596415D01*
X148172601Y-107500657D01*
X148125429Y-107412405D01*
X148061948Y-107335052D01*
X148042565Y-107319145D01*
X147574000Y-106850580D01*
X147574000Y-101457421D01*
X147641195Y-101557985D01*
X147743015Y-101659805D01*
X147862742Y-101739804D01*
X147995775Y-101794908D01*
X148137003Y-101823000D01*
X148280997Y-101823000D01*
X148422225Y-101794908D01*
X148555258Y-101739804D01*
X148674985Y-101659805D01*
X148776805Y-101557985D01*
X148856804Y-101438258D01*
X148911908Y-101305225D01*
X148940000Y-101163997D01*
X148940000Y-101020003D01*
X148911908Y-100878775D01*
X148856804Y-100745742D01*
X148776805Y-100626015D01*
X148674985Y-100524195D01*
X148555258Y-100444196D01*
X148463000Y-100405982D01*
X148463000Y-98592761D01*
X148475804Y-98573598D01*
X148530908Y-98440565D01*
X148559000Y-98299337D01*
X148559000Y-98155343D01*
X148530908Y-98014115D01*
X148475804Y-97881082D01*
X148395805Y-97761355D01*
X148293985Y-97659535D01*
X148174258Y-97579536D01*
X148041225Y-97524432D01*
X147899997Y-97496340D01*
X147756003Y-97496340D01*
X147614775Y-97524432D01*
X147574000Y-97541322D01*
X147574000Y-95714420D01*
X147681593Y-95606827D01*
X147700577Y-95652658D01*
X147780576Y-95772385D01*
X147882396Y-95874205D01*
X148002123Y-95954204D01*
X148135156Y-96009308D01*
X148157761Y-96013804D01*
X148336001Y-96192044D01*
X148336000Y-97123818D01*
X148332929Y-97155000D01*
X148336000Y-97186181D01*
X148336000Y-97186191D01*
X148345188Y-97279481D01*
X148381498Y-97399179D01*
X148440463Y-97509493D01*
X148519815Y-97606185D01*
X148544050Y-97626074D01*
X149255101Y-98337126D01*
X149255101Y-98369186D01*
X149283193Y-98510414D01*
X149338297Y-98643447D01*
X149418296Y-98763174D01*
X149520116Y-98864994D01*
X149639843Y-98944993D01*
X149772876Y-99000097D01*
X149914104Y-99028189D01*
X150058098Y-99028189D01*
X150199326Y-99000097D01*
X150332359Y-98944993D01*
X150368001Y-98921178D01*
X150368001Y-99035046D01*
X150365543Y-99060000D01*
X150370910Y-99114484D01*
X150375352Y-99159585D01*
X150404034Y-99254136D01*
X150404400Y-99255343D01*
X150451571Y-99343595D01*
X150494532Y-99395943D01*
X150515053Y-99420948D01*
X150534430Y-99436850D01*
X150716061Y-99618481D01*
X150609580Y-99689630D01*
X150507760Y-99791450D01*
X150427761Y-99911177D01*
X150372657Y-100044210D01*
X150344565Y-100185438D01*
X150344565Y-100329432D01*
X150372657Y-100470660D01*
X150427761Y-100603693D01*
X150507760Y-100723420D01*
X150609580Y-100825240D01*
X150729307Y-100905239D01*
X150862340Y-100960343D01*
X151003000Y-100988322D01*
X151003001Y-103527558D01*
X151000543Y-103552512D01*
X151005750Y-103605370D01*
X151010352Y-103652097D01*
X151023458Y-103695302D01*
X151039400Y-103747855D01*
X151086571Y-103836107D01*
X151128064Y-103886666D01*
X151134627Y-103894664D01*
X151003000Y-103881699D01*
X150828726Y-103898864D01*
X150661149Y-103949697D01*
X150506709Y-104032247D01*
X150371341Y-104143341D01*
X150260247Y-104278710D01*
X150177697Y-104433150D01*
X150126864Y-104600727D01*
X150114000Y-104731334D01*
X150114001Y-108470763D01*
X147865264Y-110719501D01*
X147831341Y-110747341D01*
X147720247Y-110882710D01*
X147637697Y-111037150D01*
X147610307Y-111127445D01*
X147594487Y-111179598D01*
X147586864Y-111204727D01*
X147574000Y-111335334D01*
X147574000Y-111335340D01*
X147569700Y-111379000D01*
X147574000Y-111422660D01*
X147574001Y-116470218D01*
X147574000Y-116470228D01*
X147574000Y-117264667D01*
X147586864Y-117395274D01*
X147637698Y-117562851D01*
X147720248Y-117717291D01*
X147831342Y-117852659D01*
X147966710Y-117963753D01*
X148121150Y-118046303D01*
X148288727Y-118097136D01*
X148463000Y-118114301D01*
X148637274Y-118097136D01*
X148804851Y-118046303D01*
X148959291Y-117963753D01*
X149094659Y-117852659D01*
X149205753Y-117717291D01*
X149288303Y-117562851D01*
X149339136Y-117395274D01*
X149352000Y-117264667D01*
X149352000Y-117204109D01*
X150751610Y-117204109D01*
X151130000Y-117582498D01*
X151508390Y-117204109D01*
X151461736Y-117018820D01*
X151242483Y-116975069D01*
X151018907Y-116974932D01*
X150799601Y-117018415D01*
X150798264Y-117018820D01*
X150751610Y-117204109D01*
X149352000Y-117204109D01*
X149352000Y-111747235D01*
X151600742Y-109498494D01*
X151634659Y-109470659D01*
X151745753Y-109335291D01*
X151828303Y-109180851D01*
X151855697Y-109090544D01*
X151879136Y-109013276D01*
X151884516Y-108958648D01*
X151892000Y-108882667D01*
X151892000Y-108882661D01*
X151896300Y-108839001D01*
X151892000Y-108795341D01*
X151892000Y-108160420D01*
X152400000Y-108668420D01*
X152400001Y-111481046D01*
X152397543Y-111506000D01*
X152405138Y-111583109D01*
X152407352Y-111605585D01*
X152416973Y-111637301D01*
X152436400Y-111701343D01*
X152483571Y-111789595D01*
X152516502Y-111829721D01*
X152547053Y-111866948D01*
X152566430Y-111882850D01*
X153162000Y-112478420D01*
X153162001Y-115926044D01*
X153162000Y-115926054D01*
X153162001Y-117389864D01*
X153108395Y-117425682D01*
X152985682Y-117548395D01*
X152889268Y-117692690D01*
X152822856Y-117853022D01*
X152789000Y-118023229D01*
X152789000Y-118196771D01*
X152822856Y-118366978D01*
X152889268Y-118527310D01*
X152985682Y-118671605D01*
X153108395Y-118794318D01*
X153252690Y-118890732D01*
X153413022Y-118957144D01*
X153583229Y-118991000D01*
X153756771Y-118991000D01*
X153926978Y-118957144D01*
X154087310Y-118890732D01*
X154231605Y-118794318D01*
X154354318Y-118671605D01*
X154450732Y-118527310D01*
X154517144Y-118366978D01*
X154551000Y-118196771D01*
X154551000Y-118023229D01*
X154517144Y-117853022D01*
X154450732Y-117692690D01*
X154354318Y-117548395D01*
X154231605Y-117425682D01*
X154178000Y-117389865D01*
X154178000Y-117335235D01*
X154940000Y-118097236D01*
X154940000Y-118235084D01*
X154988805Y-118480445D01*
X155084541Y-118711571D01*
X155223527Y-118919578D01*
X155400422Y-119096473D01*
X155608429Y-119235459D01*
X155839555Y-119331195D01*
X156059477Y-119374940D01*
X156040492Y-119420775D01*
X156012400Y-119562003D01*
X156012400Y-119705997D01*
X156040492Y-119847225D01*
X156095596Y-119980258D01*
X156175595Y-120099985D01*
X156277415Y-120201805D01*
X156397142Y-120281804D01*
X156530175Y-120336908D01*
X156671403Y-120365000D01*
X156815397Y-120365000D01*
X156956625Y-120336908D01*
X157089658Y-120281804D01*
X157209385Y-120201805D01*
X157269190Y-120142000D01*
X159918856Y-120142000D01*
X159943800Y-120144457D01*
X159968744Y-120142000D01*
X159968747Y-120142000D01*
X160043385Y-120134649D01*
X160139143Y-120105601D01*
X160227395Y-120058429D01*
X160304748Y-119994948D01*
X160320655Y-119975565D01*
X160540820Y-119755400D01*
X160625397Y-119755400D01*
X160766625Y-119727308D01*
X160899658Y-119672204D01*
X161019385Y-119592205D01*
X161121205Y-119490385D01*
X161201204Y-119370658D01*
X161256308Y-119237625D01*
X161284400Y-119096397D01*
X161284400Y-118952403D01*
X161256308Y-118811175D01*
X161201204Y-118678142D01*
X161121205Y-118558415D01*
X161019385Y-118456595D01*
X160899658Y-118376596D01*
X160766625Y-118321492D01*
X160625397Y-118293400D01*
X160481403Y-118293400D01*
X160340175Y-118321492D01*
X160207142Y-118376596D01*
X160087415Y-118456595D01*
X159985595Y-118558415D01*
X159905596Y-118678142D01*
X159850492Y-118811175D01*
X159822400Y-118952403D01*
X159822400Y-119036980D01*
X159733380Y-119126000D01*
X157269190Y-119126000D01*
X157209385Y-119066195D01*
X157113754Y-119002297D01*
X157196473Y-118919578D01*
X157335459Y-118711571D01*
X157431195Y-118480445D01*
X157480000Y-118235084D01*
X157480000Y-117984916D01*
X157431195Y-117739555D01*
X157335459Y-117508429D01*
X157196473Y-117300422D01*
X157019578Y-117123527D01*
X156811571Y-116984541D01*
X156580445Y-116888805D01*
X156335084Y-116840000D01*
X156580445Y-116791195D01*
X156811571Y-116695459D01*
X157019578Y-116556473D01*
X157196473Y-116379578D01*
X157335459Y-116171571D01*
X157431195Y-115940445D01*
X157480000Y-115695084D01*
X157480000Y-115444916D01*
X157431195Y-115199555D01*
X157335459Y-114968429D01*
X157196473Y-114760422D01*
X157019578Y-114583527D01*
X156811571Y-114444541D01*
X156580445Y-114348805D01*
X156335084Y-114300000D01*
X156580445Y-114251195D01*
X156811571Y-114155459D01*
X157019578Y-114016473D01*
X157196473Y-113839578D01*
X157335459Y-113631571D01*
X157431195Y-113400445D01*
X157480000Y-113155084D01*
X157480000Y-112904916D01*
X157431195Y-112659555D01*
X157335459Y-112428429D01*
X157196473Y-112220422D01*
X157019578Y-112043527D01*
X156811571Y-111904541D01*
X156580445Y-111808805D01*
X156572943Y-111807313D01*
X156494017Y-111728387D01*
X156580445Y-111711195D01*
X156811571Y-111615459D01*
X157019578Y-111476473D01*
X157142515Y-111353536D01*
X158400000Y-112611021D01*
X158400000Y-112695597D01*
X158428092Y-112836825D01*
X158483196Y-112969858D01*
X158563195Y-113089585D01*
X158665015Y-113191405D01*
X158784742Y-113271404D01*
X158917775Y-113326508D01*
X159059003Y-113354600D01*
X159202997Y-113354600D01*
X159344225Y-113326508D01*
X159477258Y-113271404D01*
X159596985Y-113191405D01*
X159698805Y-113089585D01*
X159778804Y-112969858D01*
X159833908Y-112836825D01*
X159862000Y-112695597D01*
X159862000Y-112551603D01*
X159833908Y-112410375D01*
X159778804Y-112277342D01*
X159698805Y-112157615D01*
X159596985Y-112055795D01*
X159477258Y-111975796D01*
X159344225Y-111920692D01*
X159202997Y-111892600D01*
X159118421Y-111892600D01*
X157452504Y-110226684D01*
X157431195Y-110119555D01*
X157335459Y-109888429D01*
X157308972Y-109848788D01*
X157400241Y-109787804D01*
X157502061Y-109685984D01*
X157582060Y-109566257D01*
X157637164Y-109433224D01*
X157665256Y-109291996D01*
X157665256Y-109207419D01*
X158239169Y-108633507D01*
X158258547Y-108617604D01*
X158288833Y-108580700D01*
X158322028Y-108540252D01*
X158369199Y-108452001D01*
X158369200Y-108451999D01*
X158398248Y-108356240D01*
X158405599Y-108281602D01*
X158405599Y-108281601D01*
X158408056Y-108256657D01*
X158405599Y-108231713D01*
X158405599Y-108047621D01*
X158427019Y-108026200D01*
X163713303Y-108026200D01*
X163740996Y-108093058D01*
X163820995Y-108212785D01*
X163922815Y-108314605D01*
X164042542Y-108394604D01*
X164175575Y-108449708D01*
X164316803Y-108477800D01*
X164460797Y-108477800D01*
X164602025Y-108449708D01*
X164735058Y-108394604D01*
X164854785Y-108314605D01*
X164956605Y-108212785D01*
X165036604Y-108093058D01*
X165091708Y-107960025D01*
X165119800Y-107818797D01*
X165119800Y-107708820D01*
X166865421Y-105963200D01*
X166949997Y-105963200D01*
X167091225Y-105935108D01*
X167224258Y-105880004D01*
X167343985Y-105800005D01*
X167445805Y-105698185D01*
X167525804Y-105578458D01*
X167580908Y-105445425D01*
X167609000Y-105304197D01*
X167609000Y-105160203D01*
X167580908Y-105018975D01*
X167525804Y-104885942D01*
X167445805Y-104766215D01*
X167343985Y-104664395D01*
X167224258Y-104584396D01*
X167091225Y-104529292D01*
X166949997Y-104501200D01*
X166806003Y-104501200D01*
X166664775Y-104529292D01*
X166598600Y-104556703D01*
X166598600Y-104455849D01*
X166641108Y-104353225D01*
X166669200Y-104211997D01*
X166669200Y-104068003D01*
X166641108Y-103926775D01*
X166586004Y-103793742D01*
X166506005Y-103674015D01*
X166404185Y-103572195D01*
X166284458Y-103492196D01*
X166151425Y-103437092D01*
X166010197Y-103409000D01*
X165866203Y-103409000D01*
X165724975Y-103437092D01*
X165591942Y-103492196D01*
X165472215Y-103572195D01*
X165370395Y-103674015D01*
X165290396Y-103793742D01*
X165235292Y-103926775D01*
X165207200Y-104068003D01*
X165207200Y-104211997D01*
X165235292Y-104353225D01*
X165290396Y-104486258D01*
X165370395Y-104605985D01*
X165472215Y-104707805D01*
X165582601Y-104781562D01*
X165582600Y-105097979D01*
X164199630Y-106480950D01*
X164152980Y-106527600D01*
X162842360Y-106527600D01*
X162814277Y-106459802D01*
X162734278Y-106340075D01*
X162632458Y-106238255D01*
X162512731Y-106158256D01*
X162379698Y-106103152D01*
X162238470Y-106075060D01*
X162094476Y-106075060D01*
X161953248Y-106103152D01*
X161820215Y-106158256D01*
X161700488Y-106238255D01*
X161598668Y-106340075D01*
X161518669Y-106459802D01*
X161490586Y-106527600D01*
X159683994Y-106527600D01*
X159520229Y-106363835D01*
X159504322Y-106344452D01*
X159426969Y-106280971D01*
X159338717Y-106233799D01*
X159242959Y-106204751D01*
X159174831Y-106198041D01*
X159114385Y-106137595D01*
X158994658Y-106057596D01*
X158861625Y-106002492D01*
X158720397Y-105974400D01*
X158576403Y-105974400D01*
X158439610Y-106001610D01*
X158439610Y-103182099D01*
X158483304Y-103190790D01*
X158484754Y-103191565D01*
X158558347Y-103230902D01*
X158678045Y-103267212D01*
X158771335Y-103276400D01*
X158771338Y-103276400D01*
X158802527Y-103279472D01*
X158833716Y-103276400D01*
X159679979Y-103276400D01*
X159699142Y-103289204D01*
X159832175Y-103344308D01*
X159973403Y-103372400D01*
X160117397Y-103372400D01*
X160258625Y-103344308D01*
X160391658Y-103289204D01*
X160511385Y-103209205D01*
X160613205Y-103107385D01*
X160693204Y-102987658D01*
X160748308Y-102854625D01*
X160776400Y-102713397D01*
X160776400Y-102569403D01*
X160748308Y-102428175D01*
X160693204Y-102295142D01*
X160613205Y-102175415D01*
X160511385Y-102073595D01*
X160391658Y-101993596D01*
X160258625Y-101938492D01*
X160117397Y-101910400D01*
X159973403Y-101910400D01*
X159832175Y-101938492D01*
X159699142Y-101993596D01*
X159679979Y-102006400D01*
X159201317Y-102006400D01*
X159103195Y-101908278D01*
X158983468Y-101828279D01*
X158850435Y-101773175D01*
X158709207Y-101745083D01*
X158565213Y-101745083D01*
X158439610Y-101770067D01*
X158439610Y-98804953D01*
X158559623Y-98828825D01*
X158703617Y-98828825D01*
X158844845Y-98800733D01*
X158977878Y-98745629D01*
X159097605Y-98665630D01*
X159199425Y-98563810D01*
X159279424Y-98444083D01*
X159334528Y-98311050D01*
X159362620Y-98169822D01*
X159362620Y-98025828D01*
X159334528Y-97884600D01*
X159284084Y-97762818D01*
X159352844Y-97749141D01*
X159485877Y-97694037D01*
X159605604Y-97614038D01*
X159707424Y-97512218D01*
X159787423Y-97392491D01*
X159842527Y-97259458D01*
X159870619Y-97118230D01*
X159870619Y-96974236D01*
X159842527Y-96833008D01*
X159787423Y-96699975D01*
X159707424Y-96580248D01*
X159654937Y-96527761D01*
X159654937Y-95511247D01*
X159714742Y-95451442D01*
X159794741Y-95331715D01*
X159849845Y-95198682D01*
X159877937Y-95057454D01*
X159877937Y-94913460D01*
X159849845Y-94772232D01*
X159794741Y-94639199D01*
X159714742Y-94519472D01*
X159612922Y-94417652D01*
X159493195Y-94337653D01*
X159360162Y-94282549D01*
X159218934Y-94254457D01*
X159074940Y-94254457D01*
X158947264Y-94279853D01*
X158947264Y-86132203D01*
X162227000Y-86132203D01*
X162227000Y-86276197D01*
X162255092Y-86417425D01*
X162310196Y-86550458D01*
X162390195Y-86670185D01*
X162492015Y-86772005D01*
X162611742Y-86852004D01*
X162744775Y-86907108D01*
X162886003Y-86935200D01*
X163029997Y-86935200D01*
X163171225Y-86907108D01*
X163304258Y-86852004D01*
X163423985Y-86772005D01*
X163525805Y-86670185D01*
X163605804Y-86550458D01*
X163660908Y-86417425D01*
X163689000Y-86276197D01*
X163689000Y-86132203D01*
X164027000Y-86132203D01*
X164027000Y-86276197D01*
X164055092Y-86417425D01*
X164110196Y-86550458D01*
X164190195Y-86670185D01*
X164292015Y-86772005D01*
X164411742Y-86852004D01*
X164544775Y-86907108D01*
X164686003Y-86935200D01*
X164829997Y-86935200D01*
X164971225Y-86907108D01*
X165104258Y-86852004D01*
X165223985Y-86772005D01*
X165325805Y-86670185D01*
X165405804Y-86550458D01*
X165460908Y-86417425D01*
X165489000Y-86276197D01*
X165489000Y-86132203D01*
X165460908Y-85990975D01*
X165405804Y-85857942D01*
X165325805Y-85738215D01*
X165223985Y-85636395D01*
X165104258Y-85556396D01*
X164971225Y-85501292D01*
X164829997Y-85473200D01*
X164686003Y-85473200D01*
X164544775Y-85501292D01*
X164411742Y-85556396D01*
X164292015Y-85636395D01*
X164190195Y-85738215D01*
X164110196Y-85857942D01*
X164055092Y-85990975D01*
X164027000Y-86132203D01*
X163689000Y-86132203D01*
X163660908Y-85990975D01*
X163605804Y-85857942D01*
X163525805Y-85738215D01*
X163423985Y-85636395D01*
X163304258Y-85556396D01*
X163171225Y-85501292D01*
X163029997Y-85473200D01*
X162886003Y-85473200D01*
X162744775Y-85501292D01*
X162611742Y-85556396D01*
X162492015Y-85636395D01*
X162390195Y-85738215D01*
X162310196Y-85857942D01*
X162255092Y-85990975D01*
X162227000Y-86132203D01*
X158947264Y-86132203D01*
X158947264Y-86125008D01*
X158949721Y-86100064D01*
X158945960Y-86061876D01*
X158939913Y-86000479D01*
X158910865Y-85904721D01*
X158863693Y-85816469D01*
X158800212Y-85739116D01*
X158780829Y-85723209D01*
X158719000Y-85661380D01*
X158719000Y-85576803D01*
X158690908Y-85435575D01*
X158635804Y-85302542D01*
X158555805Y-85182815D01*
X158453985Y-85080995D01*
X158334258Y-85000996D01*
X158201225Y-84945892D01*
X158059997Y-84917800D01*
X157916003Y-84917800D01*
X157774775Y-84945892D01*
X157641742Y-85000996D01*
X157522015Y-85080995D01*
X157480000Y-85123010D01*
X157480000Y-84964916D01*
X157431195Y-84719555D01*
X157335459Y-84488429D01*
X157196473Y-84280422D01*
X157019578Y-84103527D01*
X156811571Y-83964541D01*
X156580445Y-83868805D01*
X156335084Y-83820000D01*
X156580445Y-83771195D01*
X156811571Y-83675459D01*
X157019578Y-83536473D01*
X157196473Y-83359578D01*
X157335459Y-83151571D01*
X157431195Y-82920445D01*
X157480000Y-82675084D01*
X157480000Y-82424916D01*
X157431195Y-82179555D01*
X157335459Y-81948429D01*
X157196473Y-81740422D01*
X157019578Y-81563527D01*
X156811571Y-81424541D01*
X156580445Y-81328805D01*
X156335084Y-81280000D01*
X156580445Y-81231195D01*
X156811571Y-81135459D01*
X157019578Y-80996473D01*
X157196473Y-80819578D01*
X157335459Y-80611571D01*
X157431195Y-80380445D01*
X157480000Y-80135084D01*
X157480000Y-79884916D01*
X157431195Y-79639555D01*
X157335459Y-79408429D01*
X157196473Y-79200422D01*
X157019578Y-79023527D01*
X156811571Y-78884541D01*
X156580445Y-78788805D01*
X156335084Y-78740000D01*
X156580445Y-78691195D01*
X156811571Y-78595459D01*
X157019578Y-78456473D01*
X157196473Y-78279578D01*
X157335459Y-78071571D01*
X157431195Y-77840445D01*
X157480000Y-77595084D01*
X157480000Y-77344916D01*
X157431195Y-77099555D01*
X157335459Y-76868429D01*
X157196473Y-76660422D01*
X157019578Y-76483527D01*
X156811571Y-76344541D01*
X156580445Y-76248805D01*
X156335084Y-76200000D01*
X156580445Y-76151195D01*
X156811571Y-76055459D01*
X157019578Y-75916473D01*
X157196473Y-75739578D01*
X157335459Y-75531571D01*
X157431195Y-75300445D01*
X157480000Y-75055084D01*
X157480000Y-74804916D01*
X157431195Y-74559555D01*
X157335459Y-74328429D01*
X157196473Y-74120422D01*
X157019578Y-73943527D01*
X156977471Y-73915392D01*
X157099000Y-73917072D01*
X157223482Y-73904812D01*
X157343180Y-73868502D01*
X157453494Y-73809537D01*
X157550185Y-73730185D01*
X157629537Y-73633494D01*
X157688502Y-73523180D01*
X157724812Y-73403482D01*
X157737072Y-73279000D01*
X157734000Y-73056750D01*
X157575250Y-72898000D01*
X156718000Y-72898000D01*
X156718000Y-72918000D01*
X155702000Y-72918000D01*
X155702000Y-72898000D01*
X154844750Y-72898000D01*
X154686000Y-73056750D01*
X154682928Y-73279000D01*
X154695188Y-73403482D01*
X154731498Y-73523180D01*
X154790463Y-73633494D01*
X154869815Y-73730185D01*
X154966506Y-73809537D01*
X155076820Y-73868502D01*
X155196518Y-73904812D01*
X155321000Y-73917072D01*
X155442529Y-73915392D01*
X155400422Y-73943527D01*
X155223527Y-74120422D01*
X155084541Y-74328429D01*
X154988805Y-74559555D01*
X154940000Y-74804916D01*
X154940000Y-75055084D01*
X154988805Y-75300445D01*
X155084541Y-75531571D01*
X155223527Y-75739578D01*
X155400422Y-75916473D01*
X155608429Y-76055459D01*
X155839555Y-76151195D01*
X156084916Y-76200000D01*
X155839555Y-76248805D01*
X155608429Y-76344541D01*
X155400422Y-76483527D01*
X155223527Y-76660422D01*
X155084541Y-76868429D01*
X154988805Y-77099555D01*
X154940000Y-77344916D01*
X154940000Y-77595084D01*
X154988805Y-77840445D01*
X155084541Y-78071571D01*
X155223527Y-78279578D01*
X155400422Y-78456473D01*
X155608429Y-78595459D01*
X155839555Y-78691195D01*
X156084916Y-78740000D01*
X155839555Y-78788805D01*
X155608429Y-78884541D01*
X155400422Y-79023527D01*
X155223527Y-79200422D01*
X155084541Y-79408429D01*
X154988805Y-79639555D01*
X154940000Y-79884916D01*
X154940000Y-80135084D01*
X154988805Y-80380445D01*
X155084541Y-80611571D01*
X155223527Y-80819578D01*
X155400422Y-80996473D01*
X155608429Y-81135459D01*
X155839555Y-81231195D01*
X156084916Y-81280000D01*
X155839555Y-81328805D01*
X155608429Y-81424541D01*
X155400422Y-81563527D01*
X155223527Y-81740422D01*
X155084541Y-81948429D01*
X154988805Y-82179555D01*
X154940000Y-82424916D01*
X154940000Y-82675084D01*
X154988805Y-82920445D01*
X155084541Y-83151571D01*
X155223527Y-83359578D01*
X155400422Y-83536473D01*
X155608429Y-83675459D01*
X155839555Y-83771195D01*
X156084916Y-83820000D01*
X155839555Y-83868805D01*
X155608429Y-83964541D01*
X155400422Y-84103527D01*
X155223527Y-84280422D01*
X155084541Y-84488429D01*
X154988805Y-84719555D01*
X154940000Y-84964916D01*
X154940000Y-85215084D01*
X154988805Y-85460445D01*
X155084541Y-85691571D01*
X155223527Y-85899578D01*
X155400422Y-86076473D01*
X155608429Y-86215459D01*
X155721497Y-86262293D01*
X155667536Y-86369115D01*
X156210000Y-86911580D01*
X156752464Y-86369115D01*
X156698503Y-86262293D01*
X156811571Y-86215459D01*
X157019578Y-86076473D01*
X157196473Y-85899578D01*
X157270519Y-85788761D01*
X157285092Y-85862025D01*
X157340196Y-85995058D01*
X157420195Y-86114785D01*
X157522015Y-86216605D01*
X157641742Y-86296604D01*
X157774775Y-86351708D01*
X157916003Y-86379800D01*
X157931264Y-86379800D01*
X157931264Y-89428610D01*
X157904429Y-89378405D01*
X157840948Y-89301052D01*
X157821565Y-89285145D01*
X157120255Y-88583835D01*
X157104348Y-88564452D01*
X157026995Y-88500971D01*
X156938743Y-88453799D01*
X156842985Y-88424751D01*
X156768347Y-88417400D01*
X156768344Y-88417400D01*
X156743400Y-88414943D01*
X156718456Y-88417400D01*
X156278980Y-88417400D01*
X156210000Y-88348420D01*
X156195858Y-88362563D01*
X155477438Y-87644143D01*
X155491580Y-87630000D01*
X156928420Y-87630000D01*
X157470885Y-88172464D01*
X157677349Y-88068169D01*
X157734637Y-87773485D01*
X157733334Y-87473286D01*
X157677349Y-87191831D01*
X157470885Y-87087536D01*
X156928420Y-87630000D01*
X155491580Y-87630000D01*
X154949115Y-87087536D01*
X154742651Y-87191831D01*
X154729435Y-87259814D01*
X153543000Y-86073380D01*
X153543000Y-85191143D01*
X153545457Y-85166199D01*
X153542713Y-85138343D01*
X153535649Y-85066615D01*
X153506601Y-84970857D01*
X153503791Y-84965600D01*
X153459429Y-84882604D01*
X153411850Y-84824629D01*
X153395948Y-84805252D01*
X153376571Y-84789350D01*
X152262643Y-83675423D01*
X152246736Y-83656040D01*
X152169383Y-83592559D01*
X152081131Y-83545387D01*
X151985373Y-83516339D01*
X151910735Y-83508988D01*
X151910732Y-83508988D01*
X151885788Y-83506531D01*
X151860844Y-83508988D01*
X150195956Y-83508988D01*
X150171012Y-83506531D01*
X150146068Y-83508988D01*
X150146065Y-83508988D01*
X150071427Y-83516339D01*
X149975669Y-83545387D01*
X149934588Y-83567345D01*
X149887416Y-83592559D01*
X149832822Y-83637364D01*
X149810064Y-83656040D01*
X149794162Y-83675417D01*
X146982580Y-86487000D01*
X141777647Y-86487000D01*
X141688122Y-86397475D01*
X141719404Y-86350658D01*
X141774508Y-86217625D01*
X141802600Y-86076397D01*
X141802600Y-85932403D01*
X141774508Y-85791175D01*
X141719404Y-85658142D01*
X141639405Y-85538415D01*
X141537585Y-85436595D01*
X141417858Y-85356596D01*
X141284825Y-85301492D01*
X141143597Y-85273400D01*
X140999603Y-85273400D01*
X140858375Y-85301492D01*
X140725342Y-85356596D01*
X140605615Y-85436595D01*
X140503795Y-85538415D01*
X140423796Y-85658142D01*
X140368692Y-85791175D01*
X140340600Y-85932403D01*
X140340600Y-86024247D01*
X139420610Y-85104258D01*
X139420610Y-83725698D01*
X141113122Y-83725698D01*
X141182827Y-83909770D01*
X141433951Y-83941526D01*
X141686444Y-83923680D01*
X141756373Y-83909770D01*
X141826078Y-83725698D01*
X143424522Y-83725698D01*
X143494227Y-83909770D01*
X143745351Y-83941526D01*
X143997844Y-83923680D01*
X144067773Y-83909770D01*
X144137478Y-83725698D01*
X145786722Y-83725698D01*
X145856427Y-83909770D01*
X146107551Y-83941526D01*
X146360044Y-83923680D01*
X146429973Y-83909770D01*
X146499678Y-83725698D01*
X146143200Y-83369220D01*
X145786722Y-83725698D01*
X144137478Y-83725698D01*
X143781000Y-83369220D01*
X143424522Y-83725698D01*
X141826078Y-83725698D01*
X141469600Y-83369220D01*
X141113122Y-83725698D01*
X139420610Y-83725698D01*
X139420610Y-82615151D01*
X140178874Y-82615151D01*
X140196720Y-82867644D01*
X140210630Y-82937573D01*
X140394702Y-83007278D01*
X140751180Y-82650800D01*
X142188020Y-82650800D01*
X142544498Y-83007278D01*
X142625300Y-82976680D01*
X142706102Y-83007278D01*
X143062580Y-82650800D01*
X144499420Y-82650800D01*
X144855898Y-83007278D01*
X144962100Y-82967061D01*
X145068302Y-83007278D01*
X145424780Y-82650800D01*
X146861620Y-82650800D01*
X147218098Y-83007278D01*
X147402170Y-82937573D01*
X147433926Y-82686449D01*
X147416080Y-82433956D01*
X147402170Y-82364027D01*
X147218098Y-82294322D01*
X146861620Y-82650800D01*
X145424780Y-82650800D01*
X145068302Y-82294322D01*
X144962100Y-82334539D01*
X144855898Y-82294322D01*
X144499420Y-82650800D01*
X143062580Y-82650800D01*
X142706102Y-82294322D01*
X142625300Y-82324920D01*
X142544498Y-82294322D01*
X142188020Y-82650800D01*
X140751180Y-82650800D01*
X140394702Y-82294322D01*
X140210630Y-82364027D01*
X140178874Y-82615151D01*
X139420610Y-82615151D01*
X139420610Y-81927033D01*
X139424296Y-81889610D01*
X139417873Y-81824399D01*
X139409584Y-81740232D01*
X139366012Y-81596595D01*
X139333075Y-81534974D01*
X139295255Y-81464217D01*
X139223889Y-81377258D01*
X139200032Y-81348188D01*
X139170962Y-81324331D01*
X139108529Y-81261898D01*
X141113122Y-81261898D01*
X141172576Y-81418900D01*
X141113122Y-81575902D01*
X141469600Y-81932380D01*
X141742699Y-81659281D01*
X143154140Y-81659281D01*
X143273625Y-81876603D01*
X143588223Y-81945563D01*
X143910229Y-81951822D01*
X144227269Y-81895140D01*
X144288375Y-81876603D01*
X144407860Y-81659281D01*
X144010478Y-81261898D01*
X145786722Y-81261898D01*
X145846176Y-81418900D01*
X145786722Y-81575902D01*
X146143200Y-81932380D01*
X146499678Y-81575902D01*
X146440224Y-81418900D01*
X146499678Y-81261898D01*
X146143200Y-80905420D01*
X145786722Y-81261898D01*
X144010478Y-81261898D01*
X143781000Y-81032420D01*
X143154140Y-81659281D01*
X141742699Y-81659281D01*
X141826078Y-81575902D01*
X141766624Y-81418900D01*
X141826078Y-81261898D01*
X141469600Y-80905420D01*
X141113122Y-81261898D01*
X139108529Y-81261898D01*
X137997982Y-80151351D01*
X140178874Y-80151351D01*
X140196720Y-80403844D01*
X140210630Y-80473773D01*
X140394702Y-80543478D01*
X140494951Y-80443229D01*
X142143178Y-80443229D01*
X142199860Y-80760269D01*
X142218397Y-80821375D01*
X142435719Y-80940860D01*
X143062580Y-80314000D01*
X144499420Y-80314000D01*
X145126281Y-80940860D01*
X145343603Y-80821375D01*
X145412563Y-80506777D01*
X145418660Y-80193120D01*
X145424780Y-80187000D01*
X146861620Y-80187000D01*
X147218098Y-80543478D01*
X147402170Y-80473773D01*
X147433926Y-80222649D01*
X147416080Y-79970156D01*
X147402170Y-79900227D01*
X147218098Y-79830522D01*
X146861620Y-80187000D01*
X145424780Y-80187000D01*
X145418010Y-80180230D01*
X145362140Y-79867731D01*
X145343603Y-79806625D01*
X145126281Y-79687140D01*
X144930847Y-79882574D01*
X144884230Y-79900227D01*
X144880037Y-79933383D01*
X144499420Y-80314000D01*
X143062580Y-80314000D01*
X142744286Y-79995706D01*
X142742480Y-79970156D01*
X142728570Y-79900227D01*
X142600191Y-79851612D01*
X142435719Y-79687140D01*
X142218397Y-79806625D01*
X142149437Y-80121223D01*
X142143178Y-80443229D01*
X140494951Y-80443229D01*
X140751180Y-80187000D01*
X140394702Y-79830522D01*
X140210630Y-79900227D01*
X140178874Y-80151351D01*
X137997982Y-80151351D01*
X137738601Y-79891971D01*
X137738601Y-79026698D01*
X141113122Y-79026698D01*
X141129293Y-79069400D01*
X141113122Y-79112102D01*
X141165174Y-79164154D01*
X141182827Y-79210770D01*
X141215983Y-79214963D01*
X141469600Y-79468580D01*
X141720218Y-79217962D01*
X141756373Y-79210770D01*
X141774026Y-79164154D01*
X141826078Y-79112102D01*
X141809907Y-79069400D01*
X141826078Y-79026698D01*
X141774026Y-78974646D01*
X141771782Y-78968719D01*
X143154140Y-78968719D01*
X143781000Y-79595580D01*
X144349881Y-79026698D01*
X145786722Y-79026698D01*
X145802893Y-79069400D01*
X145786722Y-79112102D01*
X145838774Y-79164154D01*
X145856427Y-79210770D01*
X145889583Y-79214963D01*
X146143200Y-79468580D01*
X146393818Y-79217962D01*
X146429973Y-79210770D01*
X146447626Y-79164154D01*
X146499678Y-79112102D01*
X146483507Y-79069400D01*
X146499678Y-79026698D01*
X146447626Y-78974646D01*
X146429973Y-78928030D01*
X146396817Y-78923837D01*
X146143200Y-78670220D01*
X145892582Y-78920838D01*
X145856427Y-78928030D01*
X145838774Y-78974646D01*
X145786722Y-79026698D01*
X144349881Y-79026698D01*
X144407860Y-78968719D01*
X144288375Y-78751397D01*
X143973777Y-78682437D01*
X143789638Y-78678858D01*
X143781000Y-78670220D01*
X143772692Y-78678528D01*
X143651771Y-78676178D01*
X143334731Y-78732860D01*
X143273625Y-78751397D01*
X143154140Y-78968719D01*
X141771782Y-78968719D01*
X141756373Y-78928030D01*
X141723217Y-78923837D01*
X141469600Y-78670220D01*
X141218982Y-78920838D01*
X141182827Y-78928030D01*
X141165174Y-78974646D01*
X141113122Y-79026698D01*
X137738601Y-79026698D01*
X137738601Y-77916151D01*
X140178874Y-77916151D01*
X140196720Y-78168644D01*
X140210630Y-78238573D01*
X140394702Y-78308278D01*
X140751180Y-77951800D01*
X142188020Y-77951800D01*
X142544498Y-78308278D01*
X142625300Y-78277680D01*
X142706102Y-78308278D01*
X143062580Y-77951800D01*
X144499420Y-77951800D01*
X144855898Y-78308278D01*
X144962100Y-78268061D01*
X145068302Y-78308278D01*
X145424780Y-77951800D01*
X146861620Y-77951800D01*
X147218098Y-78308278D01*
X147402170Y-78238573D01*
X147433926Y-77987449D01*
X147416080Y-77734956D01*
X147402170Y-77665027D01*
X147218098Y-77595322D01*
X146861620Y-77951800D01*
X145424780Y-77951800D01*
X145068302Y-77595322D01*
X144962100Y-77635539D01*
X144855898Y-77595322D01*
X144499420Y-77951800D01*
X143062580Y-77951800D01*
X142706102Y-77595322D01*
X142625300Y-77625920D01*
X142544498Y-77595322D01*
X142188020Y-77951800D01*
X140751180Y-77951800D01*
X140394702Y-77595322D01*
X140210630Y-77665027D01*
X140178874Y-77916151D01*
X137738601Y-77916151D01*
X137738601Y-76876902D01*
X141113122Y-76876902D01*
X141469600Y-77233380D01*
X141826078Y-76876902D01*
X143424522Y-76876902D01*
X143781000Y-77233380D01*
X144137478Y-76876902D01*
X145786722Y-76876902D01*
X146143200Y-77233380D01*
X146499678Y-76876902D01*
X146429973Y-76692830D01*
X146178849Y-76661074D01*
X145926356Y-76678920D01*
X145856427Y-76692830D01*
X145786722Y-76876902D01*
X144137478Y-76876902D01*
X144067773Y-76692830D01*
X143816649Y-76661074D01*
X143564156Y-76678920D01*
X143494227Y-76692830D01*
X143424522Y-76876902D01*
X141826078Y-76876902D01*
X141756373Y-76692830D01*
X141505249Y-76661074D01*
X141252756Y-76678920D01*
X141182827Y-76692830D01*
X141113122Y-76876902D01*
X137738601Y-76876902D01*
X137738601Y-74206088D01*
X137753144Y-74170978D01*
X137787000Y-74000771D01*
X137787000Y-73827229D01*
X137753144Y-73657022D01*
X137686732Y-73496690D01*
X137590318Y-73352395D01*
X137467605Y-73229682D01*
X137323310Y-73133268D01*
X137162978Y-73066856D01*
X136992771Y-73033000D01*
X136819229Y-73033000D01*
X136649022Y-73066856D01*
X136488690Y-73133268D01*
X136344395Y-73229682D01*
X136221682Y-73352395D01*
X136125268Y-73496690D01*
X136058856Y-73657022D01*
X136025000Y-73827229D01*
X136025000Y-74000771D01*
X136058856Y-74170978D01*
X136125268Y-74331310D01*
X136214602Y-74465009D01*
X136214602Y-74477992D01*
X136088997Y-74453008D01*
X135945003Y-74453008D01*
X135803775Y-74481100D01*
X135670742Y-74536204D01*
X135551015Y-74616203D01*
X135449195Y-74718023D01*
X135369196Y-74837750D01*
X135314092Y-74970783D01*
X135286000Y-75112011D01*
X135286000Y-75256005D01*
X135314092Y-75397233D01*
X135369196Y-75530266D01*
X135449195Y-75649993D01*
X135509000Y-75709798D01*
X135509001Y-80366046D01*
X135506543Y-80391000D01*
X135516352Y-80490584D01*
X135545400Y-80586343D01*
X135592571Y-80674595D01*
X135629795Y-80719952D01*
X135656053Y-80751948D01*
X135675430Y-80767850D01*
X137414000Y-82506420D01*
X137414001Y-85700046D01*
X137411543Y-85725000D01*
X137419823Y-85809057D01*
X137421352Y-85824585D01*
X137444101Y-85899578D01*
X137450400Y-85920343D01*
X137497571Y-86008595D01*
X137533517Y-86052395D01*
X137561053Y-86085948D01*
X137580430Y-86101850D01*
X138843364Y-87364785D01*
X138726015Y-87443195D01*
X138624195Y-87545015D01*
X138544196Y-87664742D01*
X138489092Y-87797775D01*
X138461000Y-87939003D01*
X138461000Y-88082997D01*
X138485838Y-88207867D01*
X138459825Y-88197092D01*
X138318597Y-88169000D01*
X138174603Y-88169000D01*
X138033375Y-88197092D01*
X137900342Y-88252196D01*
X137780615Y-88332195D01*
X137678795Y-88434015D01*
X137598796Y-88553742D01*
X137543692Y-88686775D01*
X137515600Y-88828003D01*
X137515600Y-88971997D01*
X137543692Y-89113225D01*
X137598796Y-89246258D01*
X137678795Y-89365985D01*
X137738600Y-89425790D01*
X137738601Y-91748312D01*
X137735908Y-91734775D01*
X137680804Y-91601742D01*
X137600805Y-91482015D01*
X137498985Y-91380195D01*
X137379258Y-91300196D01*
X137246225Y-91245092D01*
X137104997Y-91217000D01*
X136961003Y-91217000D01*
X136819775Y-91245092D01*
X136686742Y-91300196D01*
X136567015Y-91380195D01*
X136507210Y-91440000D01*
X136278110Y-91440000D01*
X136278110Y-89616290D01*
X136337915Y-89556485D01*
X136417914Y-89436758D01*
X136473018Y-89303725D01*
X136501110Y-89162497D01*
X136501110Y-89018503D01*
X136473018Y-88877275D01*
X136417914Y-88744242D01*
X136337915Y-88624515D01*
X136236095Y-88522695D01*
X136131976Y-88453125D01*
X136228985Y-88388305D01*
X136330805Y-88286485D01*
X136410804Y-88166758D01*
X136465908Y-88033725D01*
X136494000Y-87892497D01*
X136494000Y-87748503D01*
X136465908Y-87607275D01*
X136410804Y-87474242D01*
X136330805Y-87354515D01*
X136228985Y-87252695D01*
X136109258Y-87172696D01*
X135976225Y-87117592D01*
X135834997Y-87089500D01*
X135691003Y-87089500D01*
X135549775Y-87117592D01*
X135416742Y-87172696D01*
X135297015Y-87252695D01*
X135195195Y-87354515D01*
X135115196Y-87474242D01*
X135060092Y-87607275D01*
X135032000Y-87748503D01*
X135032000Y-87892497D01*
X135032677Y-87895902D01*
X135001000Y-87927580D01*
X135001000Y-86824420D01*
X135813921Y-86011500D01*
X135834997Y-86011500D01*
X135976225Y-85983408D01*
X136109258Y-85928304D01*
X136228985Y-85848305D01*
X136330805Y-85746485D01*
X136410804Y-85626758D01*
X136465908Y-85493725D01*
X136494000Y-85352497D01*
X136494000Y-85208503D01*
X136465908Y-85067275D01*
X136410804Y-84934242D01*
X136330805Y-84814515D01*
X136228985Y-84712695D01*
X136109258Y-84632696D01*
X135976225Y-84577592D01*
X135834997Y-84549500D01*
X135691003Y-84549500D01*
X135549775Y-84577592D01*
X135416742Y-84632696D01*
X135297015Y-84712695D01*
X135195195Y-84814515D01*
X135115196Y-84934242D01*
X135060092Y-85067275D01*
X135032000Y-85208503D01*
X135032000Y-85352497D01*
X135032677Y-85355902D01*
X134151435Y-86237145D01*
X134132052Y-86253052D01*
X134068571Y-86330405D01*
X134021399Y-86418658D01*
X133992351Y-86514416D01*
X133985312Y-86585889D01*
X133982543Y-86614000D01*
X133985000Y-86638944D01*
X133985001Y-91356578D01*
X131604201Y-93737379D01*
X131564247Y-93733444D01*
X131619578Y-93696473D01*
X131796473Y-93519578D01*
X131935459Y-93311571D01*
X132031195Y-93080445D01*
X132080000Y-92835084D01*
X132080000Y-92584916D01*
X132031195Y-92339555D01*
X131935459Y-92108429D01*
X131796473Y-91900422D01*
X131619578Y-91723527D01*
X131411571Y-91584541D01*
X131180445Y-91488805D01*
X130935084Y-91440000D01*
X131180445Y-91391195D01*
X131411571Y-91295459D01*
X131619578Y-91156473D01*
X131796473Y-90979578D01*
X131935459Y-90771571D01*
X132031195Y-90540445D01*
X132080000Y-90295084D01*
X132080000Y-90044916D01*
X132031195Y-89799555D01*
X131935459Y-89568429D01*
X131796473Y-89360422D01*
X131619578Y-89183527D01*
X131411571Y-89044541D01*
X131180445Y-88948805D01*
X130935084Y-88900000D01*
X131180445Y-88851195D01*
X131411571Y-88755459D01*
X131619578Y-88616473D01*
X131796473Y-88439578D01*
X131935459Y-88231571D01*
X132031195Y-88000445D01*
X132080000Y-87755084D01*
X132080000Y-87504916D01*
X132031195Y-87259555D01*
X131935459Y-87028429D01*
X131796473Y-86820422D01*
X131619578Y-86643527D01*
X131411571Y-86504541D01*
X131180445Y-86408805D01*
X130935084Y-86360000D01*
X131180445Y-86311195D01*
X131411571Y-86215459D01*
X131619578Y-86076473D01*
X131796473Y-85899578D01*
X131935459Y-85691571D01*
X132031195Y-85460445D01*
X132080000Y-85215084D01*
X132080000Y-84964916D01*
X132031195Y-84719555D01*
X131935459Y-84488429D01*
X131796473Y-84280422D01*
X131619578Y-84103527D01*
X131411571Y-83964541D01*
X131180445Y-83868805D01*
X130935084Y-83820000D01*
X131180445Y-83771195D01*
X131411571Y-83675459D01*
X131619578Y-83536473D01*
X131796473Y-83359578D01*
X131935459Y-83151571D01*
X132031195Y-82920445D01*
X132080000Y-82675084D01*
X132080000Y-82424916D01*
X132031195Y-82179555D01*
X131935459Y-81948429D01*
X131796473Y-81740422D01*
X131619578Y-81563527D01*
X131411571Y-81424541D01*
X131180445Y-81328805D01*
X130935084Y-81280000D01*
X131180445Y-81231195D01*
X131411571Y-81135459D01*
X131619578Y-80996473D01*
X131796473Y-80819578D01*
X131935459Y-80611571D01*
X132031195Y-80380445D01*
X132080000Y-80135084D01*
X132080000Y-79884916D01*
X132031195Y-79639555D01*
X131935459Y-79408429D01*
X131796473Y-79200422D01*
X131619578Y-79023527D01*
X131411571Y-78884541D01*
X131180445Y-78788805D01*
X130935084Y-78740000D01*
X131180445Y-78691195D01*
X131411571Y-78595459D01*
X131619578Y-78456473D01*
X131796473Y-78279578D01*
X131935459Y-78071571D01*
X132031195Y-77840445D01*
X132080000Y-77595084D01*
X132080000Y-77344916D01*
X132031195Y-77099555D01*
X131935459Y-76868429D01*
X131796473Y-76660422D01*
X131619578Y-76483527D01*
X131411571Y-76344541D01*
X131180445Y-76248805D01*
X130935084Y-76200000D01*
X131180445Y-76151195D01*
X131411571Y-76055459D01*
X131619578Y-75916473D01*
X131796473Y-75739578D01*
X131935459Y-75531571D01*
X132031195Y-75300445D01*
X132080000Y-75055084D01*
X132080000Y-74804916D01*
X132031195Y-74559555D01*
X131935459Y-74328429D01*
X131796473Y-74120422D01*
X131619578Y-73943527D01*
X131411571Y-73804541D01*
X131180445Y-73708805D01*
X130944349Y-73661843D01*
X131699000Y-73661843D01*
X131773689Y-73654487D01*
X131845508Y-73632701D01*
X131911696Y-73597322D01*
X131969711Y-73549711D01*
X132017322Y-73491696D01*
X132052701Y-73425508D01*
X132074487Y-73353689D01*
X132081843Y-73279000D01*
X132081843Y-71501000D01*
X132074487Y-71426311D01*
X132052701Y-71354492D01*
X132017322Y-71288304D01*
X131969711Y-71230289D01*
X131954300Y-71217642D01*
X154771437Y-71182101D01*
X154731498Y-71256820D01*
X154695188Y-71376518D01*
X154682928Y-71501000D01*
X154686000Y-71723250D01*
X154844750Y-71882000D01*
X155702000Y-71882000D01*
X155702000Y-71862000D01*
X156718000Y-71862000D01*
X156718000Y-71882000D01*
X157575250Y-71882000D01*
X157734000Y-71723250D01*
X157737072Y-71501000D01*
X157724812Y-71376518D01*
X157688502Y-71256820D01*
X157646170Y-71177623D01*
X160848559Y-71172635D01*
X160909651Y-71320125D01*
X161273750Y-71865039D01*
X161737161Y-72328450D01*
X162282075Y-72692549D01*
X162887550Y-72943345D01*
X163530319Y-73071200D01*
X164185681Y-73071200D01*
X164828450Y-72943345D01*
X165433925Y-72692549D01*
X165978839Y-72328450D01*
X166442250Y-71865039D01*
X166806349Y-71320125D01*
X166871327Y-71163254D01*
X168855776Y-71160163D01*
X168890001Y-71719730D01*
G36*
X133604001Y-113621330D02*
G01*
X133599700Y-113665000D01*
X133616864Y-113839274D01*
X133667698Y-114006852D01*
X133750248Y-114161291D01*
X133824031Y-114251195D01*
X133861342Y-114296659D01*
X133895259Y-114324494D01*
X135119999Y-115549234D01*
X135120000Y-115963765D01*
X134911265Y-116172499D01*
X134911259Y-116172504D01*
X134911254Y-116172509D01*
X134877342Y-116200340D01*
X134849511Y-116234252D01*
X133608764Y-117475000D01*
X131913122Y-117475000D01*
X131796473Y-117300422D01*
X131619578Y-117123527D01*
X131411571Y-116984541D01*
X131180445Y-116888805D01*
X130935084Y-116840000D01*
X131180445Y-116791195D01*
X131411571Y-116695459D01*
X131619578Y-116556473D01*
X131796473Y-116379578D01*
X131935459Y-116171571D01*
X132031195Y-115940445D01*
X132080000Y-115695084D01*
X132080000Y-115557236D01*
X132358493Y-115278743D01*
X132358498Y-115278737D01*
X132739495Y-114897740D01*
X132822752Y-114796291D01*
X132905302Y-114641853D01*
X132956136Y-114474275D01*
X132973300Y-114300000D01*
X132957621Y-114140800D01*
X133604001Y-113494420D01*
X133604001Y-113621330D01*
X133604001Y-113621330D01*
G37*
X133604001Y-113621330D02*
X133599700Y-113665000D01*
X133616864Y-113839274D01*
X133667698Y-114006852D01*
X133750248Y-114161291D01*
X133824031Y-114251195D01*
X133861342Y-114296659D01*
X133895259Y-114324494D01*
X135119999Y-115549234D01*
X135120000Y-115963765D01*
X134911265Y-116172499D01*
X134911259Y-116172504D01*
X134911254Y-116172509D01*
X134877342Y-116200340D01*
X134849511Y-116234252D01*
X133608764Y-117475000D01*
X131913122Y-117475000D01*
X131796473Y-117300422D01*
X131619578Y-117123527D01*
X131411571Y-116984541D01*
X131180445Y-116888805D01*
X130935084Y-116840000D01*
X131180445Y-116791195D01*
X131411571Y-116695459D01*
X131619578Y-116556473D01*
X131796473Y-116379578D01*
X131935459Y-116171571D01*
X132031195Y-115940445D01*
X132080000Y-115695084D01*
X132080000Y-115557236D01*
X132358493Y-115278743D01*
X132358498Y-115278737D01*
X132739495Y-114897740D01*
X132822752Y-114796291D01*
X132905302Y-114641853D01*
X132956136Y-114474275D01*
X132973300Y-114300000D01*
X132957621Y-114140800D01*
X133604001Y-113494420D01*
X133604001Y-113621330D01*
G36*
X132029212Y-104909209D02*
G01*
X131528420Y-105410000D01*
X131542563Y-105424142D01*
X130824143Y-106142563D01*
X130810000Y-106128420D01*
X130795858Y-106142563D01*
X130077438Y-105424143D01*
X130091580Y-105410000D01*
X130077438Y-105395858D01*
X130795858Y-104677437D01*
X130810000Y-104691580D01*
X131352464Y-104149115D01*
X131298503Y-104042293D01*
X131411571Y-103995459D01*
X131619578Y-103856473D01*
X131796473Y-103679578D01*
X131935459Y-103471571D01*
X132029212Y-103245234D01*
X132029212Y-104909209D01*
X132029212Y-104909209D01*
G37*
X132029212Y-104909209D02*
X131528420Y-105410000D01*
X131542563Y-105424142D01*
X130824143Y-106142563D01*
X130810000Y-106128420D01*
X130795858Y-106142563D01*
X130077438Y-105424143D01*
X130091580Y-105410000D01*
X130077438Y-105395858D01*
X130795858Y-104677437D01*
X130810000Y-104691580D01*
X131352464Y-104149115D01*
X131298503Y-104042293D01*
X131411571Y-103995459D01*
X131619578Y-103856473D01*
X131796473Y-103679578D01*
X131935459Y-103471571D01*
X132029212Y-103245234D01*
X132029212Y-104909209D01*
M02*
