M48
; DRILL file {KiCad 5.1.6-c6e7f7d~87~ubuntu18.04.1} date Fri Jul 31 19:21:28 2020
; FORMAT={-:-/ absolute / metric / decimal}
; #@! TF.CreationDate,2020-07-31T19:21:28+02:00
; #@! TF.GenerationSoftware,Kicad,Pcbnew,5.1.6-c6e7f7d~87~ubuntu18.04.1
FMAT,2
METRIC
T1C0.300
T2C0.400
T3C0.600
T4C0.762
T5C0.870
T6C0.900
T7C1.000
T8C0.700
T9C3.300
%
G90
G05
T1
X114.24Y-120.643
X114.24Y-121.643
X114.99Y-121.143
X115.74Y-120.643
X115.74Y-121.643
T2
X91.186Y-95.25
X91.186Y-101.473
X91.186Y-131.064
X91.313Y-108.204
X91.313Y-114.808
X91.313Y-119.888
X91.313Y-125.603
X91.567Y-137.033
X91.694Y-75.819
X94.615Y-94.615
X94.615Y-97.282
X94.615Y-101.092
X94.615Y-105.41
X95.758Y-109.982
X96.774Y-98.298
X96.774Y-101.6
X97.282Y-92.837
X97.282Y-80.899
X97.663Y-94.488
X97.79Y-141.859
X98.171Y-80.391
X98.425Y-84.328
X98.425Y-117.983
X98.552Y-90.678
X98.552Y-110.744
X98.806Y-127.0
X98.933Y-79.79
X99.06Y-97.536
X99.949Y-72.009
X100.457Y-101.219
X100.838Y-92.71
X100.838Y-94.996
X101.473Y-107.188
X101.473Y-135.001
X102.108Y-91.694
X103.378Y-92.71
X103.378Y-94.996
X103.505Y-141.859
X103.886Y-98.933
X104.775Y-72.009
X105.029Y-84.328
X105.156Y-90.551
X105.156Y-104.14
X106.299Y-129.921
X106.426Y-107.188
X107.188Y-104.14
X107.315Y-121.793
X107.569Y-110.617
X108.712Y-101.854
X108.712Y-103.124
X108.712Y-107.315
X109.601Y-141.859
X109.728Y-117.094
X109.982Y-136.525
X110.236Y-95.25
X110.617Y-71.882
X110.617Y-84.328
X110.744Y-90.043
X110.871Y-102.743
X111.76Y-118.618
X111.76Y-123.063
X111.76Y-133.35
X112.268Y-90.297
X112.268Y-96.012
X112.776Y-76.327
X113.157Y-134.874
X114.102Y-135.91
X114.22Y-124.615
X114.29Y-118.617
X114.3Y-129.35
X114.672Y-131.237
X114.681Y-135.191
X114.725Y-123.843
X115.062Y-94.107
X115.189Y-110.744
X115.316Y-71.882
X115.316Y-141.732
X115.712Y-125.287
X115.81Y-123.887
X116.84Y-122.682
X117.221Y-116.332
X117.729Y-76.2
X118.364Y-90.043
X118.364Y-131.0
X118.618Y-95.123
X118.618Y-124.714
X119.126Y-77.216
X119.126Y-78.486
X119.126Y-79.437
X119.126Y-85.852
X119.253Y-131.0
X119.634Y-98.806
X119.888Y-125.73
X119.888Y-127.254
X120.015Y-134.81
X120.774Y-120.712
X121.031Y-111.125
X121.158Y-124.714
X121.285Y-141.732
X121.412Y-107.061
X121.92Y-132.842
X122.338Y-82.259
X122.572Y-83.168
X122.682Y-71.882
X122.936Y-121.412
X122.936Y-122.174
X123.19Y-103.505
X123.19Y-117.602
X124.206Y-121.92
X125.476Y-88.646
X125.476Y-121.412
X125.476Y-128.397
X125.984Y-97.028
X126.746Y-122.682
X126.873Y-112.395
X127.0Y-116.332
X127.0Y-119.761
X127.127Y-91.821
X129.984Y-132.08
X130.429Y-95.504
X130.556Y-127.477
X130.718Y-131.519
X130.81Y-111.125
X130.81Y-133.858
X130.81Y-136.906
X131.572Y-135.382
X132.334Y-125.222
X132.588Y-118.237
X133.731Y-99.949
X134.277Y-88.838
X134.493Y-91.821
X134.788Y-123.19
X135.382Y-133.858
X135.509Y-118.745
X135.636Y-140.97
X136.398Y-116.586
X136.525Y-123.317
X136.652Y-81.788
X137.16Y-72.136
X137.352Y-82.766
X137.402Y-87.88
X137.408Y-84.054
X137.414Y-122.301
X137.414Y-136.398
X137.922Y-132.001
X137.922Y-132.951
X138.176Y-133.858
X138.684Y-140.97
X138.811Y-127.762
X139.319Y-120.269
X140.436Y-85.698
X140.462Y-72.136
X140.716Y-89.916
X140.843Y-100.33
X140.97Y-75.819
X141.478Y-133.604
X141.605Y-91.567
X141.732Y-140.97
X141.862Y-87.672
X142.113Y-94.615
X142.24Y-96.012
X142.24Y-107.95
X142.621Y-116.84
X142.641Y-87.076
X143.129Y-76.962
X143.129Y-113.03
X143.564Y-87.078
X143.829Y-82.931
X144.018Y-121.666
X144.145Y-88.519
X144.27Y-89.919
X144.272Y-110.617
X144.399Y-97.028
X144.526Y-84.201
X144.526Y-122.555
X144.653Y-80.137
X144.752Y-82.931
X144.787Y-126.245
X145.034Y-71.755
X145.042Y-110.018
X145.161Y-77.343
X145.226Y-86.904
X145.288Y-125.222
X145.288Y-129.286
X145.397Y-94.887
X145.482Y-89.482
X145.796Y-126.238
X146.05Y-94.234
X146.085Y-92.916
X146.187Y-86.875
X146.685Y-141.732
X147.066Y-127.508
X147.135Y-91.978
X147.222Y-85.884
X147.29Y-87.003
X147.574Y-103.886
X148.005Y-102.312
X148.082Y-92.202
X148.082Y-101.092
X148.082Y-105.918
X148.082Y-106.934
X148.082Y-107.95
X148.082Y-108.966
X148.082Y-123.19
X148.336Y-79.502
X148.336Y-81.28
X148.463Y-125.349
X149.352Y-88.9
X149.451Y-101.211
X149.606Y-76.454
X149.606Y-84.328
X151.003Y-71.755
X151.257Y-119.126
X152.781Y-86.614
X154.178Y-79.248
X154.178Y-101.346
X154.305Y-141.605
X156.083Y-119.126
X156.21Y-103.251
X158.242Y-84.074
X158.496Y-71.882
X159.258Y-127.0
X160.782Y-119.126
X161.417Y-141.732
X161.544Y-127.0
X162.814Y-78.232
X166.116Y-119.253
X167.767Y-74.803
X167.894Y-83.185
X167.894Y-125.095
X168.021Y-130.048
X168.021Y-136.144
T3
X124.079Y-88.265
X127.754Y-77.317
X127.754Y-79.552
X127.754Y-82.016
X130.065Y-77.317
X130.065Y-82.016
X132.427Y-77.317
X132.427Y-79.552
X132.427Y-82.016
T4
X115.378Y-101.092
X115.378Y-103.632
X115.378Y-106.172
X115.378Y-108.712
X144.763Y-98.552
X144.763Y-101.092
X144.763Y-103.632
X144.763Y-106.172
X144.763Y-108.712
T5
X98.012Y-102.87
X98.012Y-105.41
T6
X111.44Y-129.37
X111.442Y-131.381
T7
X92.456Y-79.756
X92.456Y-82.296
X92.456Y-84.836
X92.456Y-87.376
X92.456Y-89.916
X92.456Y-92.456
X94.996Y-79.756
X94.996Y-82.296
X94.996Y-84.836
X94.996Y-87.376
X94.996Y-89.916
X94.996Y-92.456
X130.065Y-79.679
T8
X162.93Y-121.412
X164.73Y-121.412
X162.958Y-86.233
X164.758Y-86.233
T9
X96.012Y-69.596
X163.858Y-69.744
X163.858Y-137.664
X95.888Y-137.537
T3
G00X125.94Y-135.606
M15
G01X125.94Y-134.506
M16
G05
G00X125.94Y-139.156
M15
G01X125.94Y-138.056
M16
G05
G00X133.14Y-135.606
M15
G01X133.14Y-134.506
M16
G05
G00X133.14Y-139.156
M15
G01X133.14Y-138.056
M16
G05
T0
M30
